<svg width="90" height="152" fill="none" xmlns="http://www.w3.org/2000/svg"><g opacity=".9" fill="#fff"><path d="M26.275 43.823h18.598c4.523 0 10.49 0 13.57 1.874 3.38 2.014 6.032 5.678 6.032 10.722 0 5.464-2.867 9.567-7.614 11.506v.15c6.32 1.296 9.765 6.041 9.765 12.372 0 7.553-5.39 14.751-15.582 14.751H26.266V43.832l.009-.01Zm6.823 22.088h13.655c7.753 0 10.918-2.806 10.918-8.205 0-7.123-5.026-8.13-10.918-8.13H33.098V65.912Zm0 23.525h17.099c5.882 0 9.624-3.6 9.624-9.203 0-6.695-5.39-8.56-11.132-8.56H33.107v17.772l-.01-.01Z"/><path d="M84.08 69.52c0 21.576-17.462 39.067-39.01 39.067-21.549 0-39.002-17.492-39.002-39.067 0-21.576 17.462-39.068 39.001-39.068 21.54 0 39.01 17.492 39.01 39.068ZM45.07 24.494C20.262 24.494.147 44.644.147 69.492s20.115 44.997 44.921 44.997S90 94.34 90 69.492c0-24.849-20.114-44.998-44.93-44.998ZM89.907 124H.242v5.902h89.665V124ZM87.104 117.501c.112 0 .215 0 .317-.01a.786.786 0 0 0 .26-.055.454.454 0 0 0 .187-.159.534.534 0 0 0 .065-.289.48.48 0 0 0-.056-.252.33.33 0 0 0-.158-.14.69.69 0 0 0-.224-.074c-.083 0-.158-.01-.25-.01h-.643v.998h.512l-.01-.009Zm.215-1.389c.372 0 .642.074.828.223.177.149.27.373.27.681 0 .289-.084.485-.233.625-.158.13-.353.205-.596.233l.894 1.38h-.521l-.857-1.352h-.511v1.352h-.494v-3.133h1.22v-.009Zm-2.207 2.461c.103.28.261.532.466.737.195.205.428.363.698.484.26.112.559.168.866.168.307 0 .605-.056.865-.168.27-.121.503-.279.698-.484.196-.205.354-.448.457-.737a2.41 2.41 0 0 0 .176-.904c0-.327-.055-.625-.176-.905a2.403 2.403 0 0 0-.457-.727 2.218 2.218 0 0 0-.698-.476 2.225 2.225 0 0 0-.865-.177c-.307 0-.605.066-.866.177-.27.122-.512.28-.698.476a2.112 2.112 0 0 0-.466.727c-.111.28-.167.569-.167.905 0 .335.056.624.168.904Zm-.446-1.967a2.633 2.633 0 0 1 1.433-1.399c.326-.14.68-.205 1.033-.205.354 0 .717.065 1.052.205.317.14.605.317.838.56.242.242.447.522.577.839.149.326.214.68.214 1.063 0 .382-.065.736-.214 1.063-.14.335-.335.615-.577.857a2.568 2.568 0 0 1-.838.569 2.84 2.84 0 0 1-1.052.196c-.372 0-.707-.065-1.033-.196a2.55 2.55 0 0 1-.856-.569 2.625 2.625 0 0 1-.577-.857c-.15-.327-.205-.681-.205-1.063 0-.383.056-.737.205-1.063ZM11.116 4.718a3.463 3.463 0 0 0-.79-.895 3.714 3.714 0 0 0-1.08-.606c-.4-.14-.82-.215-1.257-.215-.8 0-1.48.159-2.048.467a3.809 3.809 0 0 0-1.359 1.249 5.535 5.535 0 0 0-.763 1.79 8.995 8.995 0 0 0-.242 2.07c0 .709.074 1.343.242 1.986.158.643.41 1.222.763 1.744.344.512.8.932 1.359 1.24.558.307 1.238.466 2.048.466 1.089 0 1.945-.336 2.55-.998.614-.671.987-1.547 1.126-2.638h3.454c-.093 1.016-.326 1.93-.708 2.75-.381.82-.875 1.52-1.498 2.089a6.48 6.48 0 0 1-2.178 1.324 8.077 8.077 0 0 1-2.746.457c-1.238 0-2.355-.215-3.351-.653a7.112 7.112 0 0 1-2.513-1.79C1.445 13.8.924 12.905.56 11.879a9.839 9.839 0 0 1-.55-3.31c0-1.184.178-2.34.55-3.376.363-1.034.884-1.948 1.564-2.713A7.095 7.095 0 0 1 4.638.662C5.624.224 6.74 0 7.988 0c.894 0 1.741.13 2.532.382a6.87 6.87 0 0 1 2.132 1.128 6.166 6.166 0 0 1 1.555 1.828c.41.727.67 1.566.772 2.499h-3.453a2.84 2.84 0 0 0-.41-1.128v.009ZM19.763 13.8c.484.466 1.182.708 2.085.708.652 0 1.21-.158 1.685-.485.465-.326.754-.67.866-1.035h2.839c-.456 1.408-1.154 2.425-2.095 3.03-.94.607-2.075.915-3.406.915-.922 0-1.76-.15-2.495-.448a5.335 5.335 0 0 1-1.89-1.259 5.612 5.612 0 0 1-1.19-1.958c-.28-.755-.42-1.594-.42-2.499 0-.904.14-1.697.428-2.452A5.77 5.77 0 0 1 17.4 6.35a5.802 5.802 0 0 1 1.899-1.306c.735-.317 1.545-.475 2.439-.475.996 0 1.87.196 2.615.578a5.2 5.2 0 0 1 1.825 1.557c.474.653.819 1.399 1.033 2.228.214.83.288 1.707.223 2.62h-8.47c.046 1.045.307 1.81.791 2.276l.01-.028Zm3.649-6.192c-.39-.42-.977-.634-1.76-.634-.511 0-.94.084-1.284.262a2.518 2.518 0 0 0-.819.643 2.396 2.396 0 0 0-.428.82c-.084.29-.13.541-.149.774h5.25c-.15-.82-.419-1.445-.81-1.865ZM31.955 4.858V7.04h.047c.149-.364.354-.7.614-1.016.26-.308.55-.579.885-.793a4.526 4.526 0 0 1 1.07-.513 3.863 3.863 0 0 1 1.182-.177c.214 0 .447.037.708.112v3.002a5.647 5.647 0 0 0-.55-.074c-.214-.019-.419-.038-.614-.038-.586 0-1.09.103-1.499.299-.41.196-.735.466-.986.81a3.165 3.165 0 0 0-.53 1.194 6.765 6.765 0 0 0-.16 1.483v5.305h-3.22V4.877h3.063l-.01-.019ZM45.082 4.858V7.02h-2.365v5.828c0 .55.093.913.27 1.09.177.178.55.27 1.09.27.186 0 .353 0 .52-.018.168-.018.326-.037.475-.065v2.499c-.27.046-.577.074-.912.093-.335.019-.66.028-.977.028-.503 0-.978-.037-1.415-.102a3.169 3.169 0 0 1-1.182-.401 2.13 2.13 0 0 1-.81-.84c-.196-.363-.298-.839-.298-1.436V7.03h-1.955V4.867h1.955V1.343h3.22v3.524h2.365l.019-.01ZM46.96 3.04V.373h3.221V3.04h-3.22Zm3.221 1.818v11.758h-3.22V4.858h3.22ZM51.469 7.021V4.858h1.926v-.914c0-1.044.326-1.902.978-2.573.651-.672 1.638-.998 2.95-.998.29 0 .578.01.866.037.289.019.568.047.838.056v2.415a9.722 9.722 0 0 0-1.182-.065c-.438 0-.754.103-.94.308-.187.205-.28.55-.28 1.035v.708h2.225V7.03h-2.225v9.604h-3.23V7.03H51.47v-.009ZM61.027 3.04V.373h3.22V3.04h-3.22Zm3.22 1.818v11.758h-3.22V4.858h3.22ZM69.34 13.8c.484.466 1.182.708 2.085.708.651 0 1.21-.158 1.685-.485.465-.326.754-.67.865-1.035h2.84c-.457 1.408-1.155 2.425-2.086 3.03-.94.607-2.075.915-3.406.915-.922 0-1.76-.15-2.495-.448a5.336 5.336 0 0 1-1.89-1.259 5.613 5.613 0 0 1-1.191-1.958c-.28-.755-.419-1.594-.419-2.499 0-.904.15-1.697.428-2.452a5.77 5.77 0 0 1 1.229-1.967 5.801 5.801 0 0 1 1.899-1.306c.735-.317 1.545-.475 2.439-.475.996 0 1.87.196 2.615.578a5.2 5.2 0 0 1 1.825 1.557c.474.653.819 1.399 1.033 2.228.214.83.288 1.707.232 2.62h-8.47c.047 1.045.307 1.81.791 2.276l-.01-.028Zm3.649-6.192c-.382-.42-.978-.634-1.76-.634-.511 0-.94.084-1.284.262a2.518 2.518 0 0 0-.82.643 2.396 2.396 0 0 0-.427.82c-.084.29-.13.541-.15.774h5.241c-.149-.82-.419-1.445-.81-1.865h.01ZM86.81 15.124c-.382.634-.875 1.1-1.49 1.38-.614.28-1.302.42-2.075.42-.875 0-1.648-.169-2.318-.514a4.6 4.6 0 0 1-1.647-1.389 6.53 6.53 0 0 1-.978-2.014 8.317 8.317 0 0 1-.325-2.368c0-.82.111-1.548.325-2.285.214-.736.55-1.38.978-1.948a4.86 4.86 0 0 1 1.62-1.352c.65-.345 1.405-.513 2.27-.513.699 0 1.36.149 1.983.447a3.44 3.44 0 0 1 1.49 1.306h.046V.382h3.22v16.243h-3.062v-1.501h-.046.009Zm-.14-5.81a3.425 3.425 0 0 0-.465-1.183 2.605 2.605 0 0 0-.856-.83c-.345-.215-.792-.317-1.313-.317-.521 0-.977.102-1.34.317a2.602 2.602 0 0 0-.875.839 3.904 3.904 0 0 0-.475 1.193 6.253 6.253 0 0 0 .01 2.76c.102.457.279.858.511 1.222.233.354.53.643.885.867.353.224.782.326 1.284.326.53 0 .968-.102 1.331-.317.354-.214.642-.494.856-.858.215-.354.364-.764.457-1.212a7.01 7.01 0 0 0 .14-1.408c0-.484-.047-.95-.14-1.398h-.01ZM8.107 141.492c-.158-1.138-1.247-2.005-2.494-2.005-2.253 0-3.1 1.921-3.1 3.926 0 2.004.847 3.822 3.1 3.822 1.536 0 2.401-1.053 2.587-2.564h2.44c-.261 2.853-2.225 4.681-5.027 4.681-3.537 0-5.613-2.648-5.613-5.939 0-3.292 2.076-6.042 5.613-6.042 2.513 0 4.617 1.473 4.924 4.121h-2.43ZM15.878 140.578c2.606 0 4.282 1.725 4.282 4.373s-1.676 4.354-4.282 4.354-4.273-1.734-4.273-4.354 1.676-4.373 4.273-4.373Zm0 7.012c1.554 0 2.01-1.334 2.01-2.639 0-1.305-.465-2.657-2.01-2.657-1.545 0-2.001 1.333-2.001 2.657s.465 2.639 2 2.639ZM21.566 140.793h2.16v1.538h.037c.41-1.044 1.536-1.762 2.644-1.762.158 0 .353.028.493.074v2.117a4.345 4.345 0 0 0-.82-.075c-1.665 0-2.242 1.203-2.242 2.658v3.729h-2.272v-8.279ZM27.783 140.802h2.16v1.054h.027c.54-.877 1.434-1.278 2.458-1.278 2.596 0 3.76 2.098 3.76 4.448 0 2.209-1.21 4.279-3.63 4.279-.987 0-1.936-.429-2.476-1.249h-.037V152h-2.272v-11.198h.01Zm6.143 4.168c0-1.315-.53-2.676-1.983-2.676-1.452 0-1.963 1.333-1.963 2.676 0 1.342.511 2.629 1.982 2.629 1.47 0 1.964-1.277 1.964-2.629ZM41.17 140.578c2.606 0 4.29 1.725 4.29 4.373s-1.684 4.354-4.29 4.354c-2.607 0-4.264-1.734-4.264-4.354s1.676-4.373 4.263-4.373Zm0 7.012c1.554 0 2.02-1.334 2.02-2.639 0-1.305-.466-2.657-2.02-2.657-1.555 0-2.002 1.333-2.002 2.657s.465 2.639 2.001 2.639ZM46.865 140.793h2.16v1.538h.037c.409-1.044 1.535-1.762 2.634-1.762.158 0 .353.028.493.074v2.117a4.201 4.201 0 0 0-.82-.075c-1.665 0-2.242 1.203-2.242 2.658v3.729h-2.272v-8.279h.01ZM52.86 143.347c.131-2.135 2.03-2.769 3.892-2.769 1.647 0 3.63.364 3.63 2.35v4.307c0 .756.074 1.502.288 1.847h-2.308c-.075-.261-.15-.532-.159-.802-.716.755-1.768 1.025-2.783 1.025-1.563 0-2.81-.783-2.81-2.48 0-1.874 1.405-2.321 2.81-2.517 1.397-.205 2.69-.159 2.69-1.091 0-.933-.679-1.119-1.47-1.119-.866 0-1.424.354-1.508 1.249H52.86Zm5.25 1.679c-.39.335-1.182.354-1.89.485-.706.139-1.34.382-1.34 1.221 0 .839.652 1.054 1.397 1.054 1.768 0 1.843-1.408 1.843-1.903v-.848l-.01-.009ZM64.961 140.802h1.666v1.52h-1.666v4.102c0 .774.196.961.959.961.242 0 .465-.019.707-.066v1.781c-.381.066-.884.084-1.33.084-1.387 0-2.607-.326-2.607-1.967v-4.886h-1.377v-1.52h1.377v-2.48h2.271v2.48-.009ZM70.611 139.525H68.34v-1.875h2.271v1.875Zm-2.271 1.286h2.271v8.28H68.34v-8.28ZM76.4 140.578c2.606 0 4.29 1.725 4.29 4.373s-1.684 4.354-4.29 4.354-4.263-1.734-4.263-4.354 1.675-4.373 4.263-4.373Zm0 7.012c1.554 0 2.02-1.334 2.02-2.639 0-1.305-.466-2.657-2.02-2.657-1.555 0-2.001 1.333-2.001 2.657s.465 2.639 2 2.639ZM82.152 140.802h2.16v1.156h.046c.578-.932 1.564-1.38 2.532-1.38 2.41 0 3.025 1.361 3.025 3.413v5.091h-2.27v-4.681c0-1.361-.401-2.033-1.453-2.033-1.238 0-1.76.69-1.76 2.378v4.345h-2.27v-8.28l-.01-.009Z"/></g></svg>