<svg viewBox="0 0 300 80" xmlns="http://www.w3.org/2000/svg" xml:space="preserve" style="fill-rule:evenodd;clip-rule:evenodd;stroke-linejoin:round;stroke-miterlimit:2">
    <path d="m88.169 39.515-6.984-9.266-1.797 2.178v7.088h-4.91v-23.06h4.91v10.268l8.159-10.268h6.05l-9.162 10.821 9.784 12.239h-6.05ZM97.537 35.331V16.455h4.391v17.701c0 1.072.553 1.867 1.521 1.867.657 0 1.28-.242 1.521-.519l.934 3.354c-.657.588-1.867 1.072-3.665 1.072-3.077 0-4.702-1.591-4.702-4.599ZM109.015 39.515V22.816h4.391v16.699h-4.391Zm-.415-21.124a2.59 2.59 0 0 1 2.593-2.593c1.452 0 2.628 1.141 2.628 2.593a2.626 2.626 0 0 1-2.628 2.627c-1.417 0-2.593-1.175-2.593-2.627ZM139.646 39.515V28.97c0-1.556-.691-2.662-2.489-2.662-1.556 0-2.835 1.037-3.457 1.936v11.271h-4.426V28.97c0-1.556-.691-2.662-2.489-2.662-1.521 0-2.8 1.037-3.457 1.936v11.271h-4.391V22.816h4.391v2.144c.726-.968 2.904-2.559 5.462-2.559 2.455 0 4.045 1.141 4.633 3.008.968-1.486 3.181-3.008 5.739-3.008 3.077 0 4.909 1.625 4.909 5.048v12.066h-4.425ZM161.081 34.122v-5.878c-.726-1.106-2.317-1.936-3.769-1.936-2.523 0-4.252 1.971-4.252 4.84 0 2.904 1.729 4.875 4.252 4.875 1.452 0 3.043-.795 3.769-1.901Zm0 5.393v-2.144c-1.314 1.66-3.112 2.559-5.152 2.559-4.183 0-7.398-3.181-7.398-8.782 0-5.428 3.146-8.747 7.398-8.747 1.971 0 3.803.83 5.152 2.559v-2.144h4.425v16.699h-4.425ZM182.308 39.515V29.42c0-2.317-1.21-3.112-3.077-3.112-1.729 0-3.042.968-3.803 1.936v11.271h-4.391V22.816h4.391v2.144c1.072-1.245 3.146-2.559 5.843-2.559 3.699 0 5.462 2.075 5.462 5.325v11.789h-4.425ZM199.802 25.997c-2.732 0-3.908 1.902-4.079 3.561h8.227c-.138-1.59-1.244-3.561-4.148-3.561Zm-8.644 5.151c0-4.84 3.595-8.747 8.644-8.747 5.013 0 8.365 3.734 8.365 9.162V32.6h-12.411c.311 2.04 1.971 3.734 4.806 3.734 1.417 0 3.353-.588 4.426-1.625l1.971 2.904c-1.66 1.521-4.288 2.317-6.881 2.317-5.082 0-8.92-3.423-8.92-8.782ZM223.794 39.515v-2.109c-1.141 1.244-3.145 2.524-5.877 2.524-3.664 0-5.394-2.005-5.394-5.255V22.816h4.392v10.13c0 2.316 1.209 3.077 3.077 3.077 1.693 0 3.042-.934 3.802-1.901V22.816h4.392v16.699h-4.392ZM234.616 35.331v-8.677h-2.766v-3.838h2.766v-4.563h4.39v4.563h3.388v3.838h-3.388v7.502c0 1.072.554 1.867 1.522 1.867.657 0 1.279-.242 1.52-.519l.935 3.354c-.657.588-1.833 1.072-3.666 1.072-3.076 0-4.701-1.591-4.701-4.599ZM246.577 39.515V22.816h4.39v2.247c1.211-1.452 3.252-2.662 5.325-2.662v4.287c-.311-.069-.691-.103-1.21-.103-1.452 0-3.388.829-4.115 1.901v11.029h-4.39ZM271.676 34.122v-5.878c-.725-1.106-2.317-1.936-3.769-1.936-2.522 0-4.252 1.971-4.252 4.84 0 2.904 1.73 4.875 4.252 4.875 1.452 0 3.044-.795 3.769-1.901Zm0 5.393v-2.144c-1.314 1.66-3.112 2.559-5.151 2.559-4.184 0-7.399-3.181-7.399-8.782 0-5.428 3.147-8.747 7.399-8.747 1.971 0 3.802.83 5.151 2.559v-2.144h4.425v16.699h-4.425ZM281.633 35.331V16.455h4.39v17.701c0 1.072.554 1.867 1.522 1.867.657 0 1.279-.242 1.522-.519l.933 3.354c-.657.588-1.868 1.072-3.666 1.072-3.076 0-4.701-1.591-4.701-4.599ZM25.495 52.36c-5.261-3.552-8.722-9.533-8.722-16.299 0-10.872 8.931-19.717 19.909-19.717 1.517 0 2.99.174 4.41.494l2.734-6.23a26.841 26.841 0 0 0-7.144-.97C21.969 9.638 10 21.491 10 36.061c0 9.519 5.113 17.877 12.759 22.529l2.736-6.23Z" style="fill:#BAD0F0;fill-rule:nonzero"/>
    <path d="M48.806 36.061c0 6.631-5.428 12.006-12.124 12.006-6.695 0-12.123-5.375-12.123-12.006s5.428-12.006 12.123-12.006c6.696 0 12.124 5.375 12.124 12.006Z" style="fill:#BAD0F0;fill-rule:nonzero"/>
    <path d="M37.178 62.47c14.482-.263 26.186-12.005 26.186-26.41 0-9.519-5.113-17.878-12.759-22.528l-2.736 6.229c5.261 3.552 8.723 9.532 8.723 16.299 0 10.872-8.932 19.716-19.91 19.716-1.517 0-2.99-.174-4.409-.492l-6.622 15.078h8.062l3.465-7.892ZM74.385 51.624c0 2.505 1.451 4.201 4.413 4.201 2.95 0 4.399-1.682 4.399-4.215v-6.156h-1.803v6.11c0 1.619-.9 2.671-2.596 2.671-1.711 0-2.611-1.052-2.611-2.671v-6.11h-1.802v6.17ZM90.3 55.641h1.604v-5.193c0-1.512-.796-2.366-2.383-2.366-1.162 0-2.108.61-2.597 1.191v-1.01H85.32v7.378h1.604v-5.147c.365-.503 1.07-.991 1.895-.991.9 0 1.481.379 1.481 1.526v4.612Zm5.894.184c.75 0 1.221-.198 1.512-.474l-.38-1.208c-.123.138-.414.262-.718.262-.458 0-.702-.368-.702-.871v-3.865h1.495v-1.406h-1.495v-2.015h-1.604v2.015H93.08v1.406h1.222v4.261c0 1.222.655 1.895 1.892 1.895Zm2.201-3.881c0 2.337 1.65 3.881 3.864 3.881 1.176 0 2.26-.368 2.993-1.069l-.733-1.056c-.521.521-1.374.811-2.093.811-1.389 0-2.229-.917-2.352-2.033h5.698v-.379c0-2.323-1.42-4.017-3.637-4.017-2.182 0-3.74 1.725-3.74 3.862Zm3.74-2.551c1.452 0 2.047 1.087 2.079 1.955h-4.155c.075-.9.702-1.955 2.076-1.955Zm5.224 6.248h1.604v-5.026c.322-.517 1.222-.977 1.895-.977.198 0 .365.017.503.046v-1.587c-.963 0-1.849.549-2.398 1.25v-1.084h-1.604v7.378Zm10.28 0h1.604v-5.193c0-1.512-.796-2.366-2.384-2.366-1.161 0-2.107.61-2.596 1.191v-1.01h-1.604v7.378h1.604v-5.147c.365-.503 1.07-.991 1.895-.991.9 0 1.481.379 1.481 1.526v4.612Zm3.222-3.697c0 2.337 1.651 3.881 3.865 3.881 1.176 0 2.259-.368 2.993-1.069l-.734-1.056c-.52.521-1.374.811-2.093.811-1.388 0-2.228-.917-2.352-2.033h5.699v-.379c0-2.323-1.42-4.017-3.637-4.017-2.182 0-3.741 1.725-3.741 3.862Zm3.741-2.551c1.452 0 2.047 1.087 2.079 1.955h-4.155c.075-.9.702-1.955 2.076-1.955Zm10.218 6.248h1.604v-5.224c0-1.512-.793-2.335-2.383-2.335-1.159 0-2.122.61-2.611 1.191v-3.819h-1.604v10.187h1.604v-5.147c.382-.503 1.084-.991 1.895-.991.9 0 1.495.35 1.495 1.495v4.643Zm12.723 0h1.605V50.31c0-1.495-.765-2.228-2.125-2.228-1.099 0-2.076.687-2.504 1.357-.245-.808-.918-1.357-2.016-1.357-1.116 0-2.093.733-2.398 1.191v-1.01h-1.604v7.378h1.604v-5.147c.336-.488.992-.991 1.696-.991.869 0 1.223.531 1.223 1.328v4.81h1.601V50.48c.322-.474.995-.977 1.711-.977.857 0 1.207.531 1.207 1.328v4.81Zm3.223-3.697c0 2.337 1.65 3.881 3.864 3.881 1.176 0 2.26-.368 2.993-1.069l-.733-1.056c-.52.521-1.374.811-2.093.811-1.389 0-2.228-.917-2.352-2.033h5.699v-.379c0-2.323-1.421-4.017-3.637-4.017-2.183 0-3.741 1.725-3.741 3.862Zm3.741-2.551c1.452 0 2.047 1.087 2.078 1.955h-4.154c.075-.9.701-1.955 2.076-1.955Zm10.203 6.248h1.605v-5.193c0-1.512-.797-2.366-2.384-2.366-1.162 0-2.108.61-2.596 1.191v-1.01h-1.605v7.378h1.605v-5.147c.365-.503 1.069-.991 1.894-.991.9 0 1.481.379 1.481 1.526v4.612ZM77.953 70.121c1.271 0 2.11-.59 2.697-1.386l-.745-.408a2.348 2.348 0 0 1-1.952 1.017c-1.498 0-2.663-1.184-2.663-2.843 0-1.668 1.165-2.841 2.663-2.841.831 0 1.552.428 1.952 1.015l.733-.408c-.555-.785-1.414-1.383-2.685-1.383-1.981 0-3.566 1.466-3.566 3.617 0 2.15 1.585 3.62 3.566 3.62Zm4.899 0c.46 0 .733-.138.935-.325l-.233-.59a.716.716 0 0 1-.524.21c-.345 0-.514-.27-.514-.65v-5.767h-.785v5.937c0 .753.376 1.185 1.121 1.185Zm2.078-6.041a.539.539 0 0 0 .535-.538.528.528 0 0 0-.535-.523.525.525 0 0 0-.526.523c0 .296.241.538.526.538Zm-.388 5.914h.785v-5.066h-.785v5.066Zm8.472 0h.788v-3.66c0-1.018-.491-1.533-1.414-1.533-.736 0-1.418.484-1.7.946-.149-.526-.589-.946-1.365-.946-.745 0-1.427.535-1.636.86v-.733h-.785v5.066h.785v-3.703c.273-.408.819-.785 1.331-.785.661 0 .934.408.934 1.047v3.441h.788v-3.712c.262-.399.817-.776 1.343-.776.65 0 .931.408.931 1.047v3.441Zm6.031 0h.788v-5.066h-.788v.765c-.408-.555-1.026-.892-1.708-.892-1.334 0-2.256 1.05-2.256 2.666 0 1.647.934 2.654 2.256 2.654.713 0 1.332-.368 1.708-.883v.756Zm0-1.374c-.281.44-.891.796-1.521.796-1.015 0-1.624-.828-1.624-1.949 0-1.124.609-1.961 1.624-1.961.63 0 1.24.377 1.521.817v2.297Zm3.642 1.501c.46 0 .745-.138.943-.325l-.23-.59c-.106.118-.316.21-.535.21-.348 0-.514-.27-.514-.65v-3.145h1.026v-.693h-1.026v-1.386h-.788v1.386h-.84v.693h.84v3.315c0 .753.379 1.185 1.124 1.185Zm1.508-2.666c0 1.585 1.081 2.666 2.582 2.666.828 0 1.51-.274 2.013-.777l-.377-.514a2.222 2.222 0 0 1-1.564.641c-1.09 0-1.76-.799-1.823-1.754h4.1v-.198c0-1.521-.903-2.718-2.432-2.718-1.449 0-2.499 1.185-2.499 2.654Zm2.487-2.004c1.153 0 1.656.935 1.668 1.691h-3.324c.04-.776.575-1.691 1.656-1.691Zm3.746 4.543h.869v-2.78h1.94c1.386 0 2.194-.963 2.194-2.108 0-1.144-.788-2.107-2.194-2.107h-2.809v6.995Zm4.1-4.888c0 .788-.566 1.332-1.394 1.332h-1.837v-2.663h1.837c.828 0 1.394.543 1.394 1.331Zm5.694 4.888h.788v-5.066h-.788v.765c-.408-.555-1.026-.892-1.708-.892-1.334 0-2.257 1.05-2.257 2.666 0 1.647.935 2.654 2.257 2.654.713 0 1.332-.368 1.708-.883v.756Zm0-1.374c-.282.44-.891.796-1.521.796-1.015 0-1.624-.828-1.624-1.949 0-1.124.609-1.961 1.624-1.961.63 0 1.239.377 1.521.817v2.297Zm2.362 1.374h.785v-3.588c.23-.408.892-.808 1.375-.808.126 0 .221.011.316.032v-.806c-.693 0-1.282.389-1.691.923v-.819h-.785v5.066Zm4.741.127c.46 0 .745-.138.943-.325l-.23-.59c-.106.118-.316.21-.535.21-.348 0-.514-.27-.514-.65v-3.145h1.026v-.693h-1.026v-1.386h-.788v1.386h-.84v.693h.84v3.315c0 .753.379 1.185 1.124 1.185Zm5.223-.127h.785v-3.556c0-1.102-.555-1.637-1.613-1.637-.756 0-1.449.44-1.806.86v-.733h-.785v5.066h.785v-3.703c.294-.408.883-.785 1.501-.785.682 0 1.133.282 1.133 1.173v3.315Zm2.064-2.539c0 1.585 1.082 2.666 2.583 2.666.828 0 1.509-.274 2.012-.777l-.377-.514a2.222 2.222 0 0 1-1.564.641c-1.089 0-1.759-.799-1.823-1.754h4.1v-.198c0-1.521-.902-2.718-2.432-2.718-1.449 0-2.499 1.185-2.499 2.654Zm2.488-2.004c1.153 0 1.656.935 1.667 1.691h-3.324c.041-.776.575-1.691 1.657-1.691Zm3.714 4.543h.785v-3.588c.23-.408.891-.808 1.374-.808.127 0 .221.011.316.032v-.806c-.693 0-1.282.389-1.69.923v-.819h-.785v5.066Zm3.303-.471c0 .313.262.575.578.575a.58.58 0 0 0 .575-.575.58.58 0 0 0-.575-.578.582.582 0 0 0-.578.578Zm2.274-2.068c0 1.51 1.018 2.666 2.53 2.666.924 0 1.467-.38 1.855-.883l-.523-.48c-.337.448-.765.658-1.291.658-1.081 0-1.751-.836-1.751-1.961 0-1.121.67-1.949 1.751-1.949.526 0 .954.198 1.291.658l.523-.48c-.388-.503-.931-.883-1.855-.883-1.512 0-2.53 1.156-2.53 2.654Zm7.699 2.666c1.544 0 2.508-1.196 2.508-2.666 0-1.469-.964-2.654-2.508-2.654-1.541 0-2.507 1.185-2.507 2.654 0 1.47.966 2.666 2.507 2.666Zm0-.705c-1.078 0-1.687-.923-1.687-1.961 0-1.026.609-1.949 1.687-1.949 1.082 0 1.68.923 1.68 1.949 0 1.038-.598 1.961-1.68 1.961Zm9.902.578h.788v-3.66c0-1.018-.492-1.533-1.415-1.533-.736 0-1.418.484-1.699.946-.15-.526-.59-.946-1.366-.946-.745 0-1.426.535-1.636.86v-.733h-.785v5.066h.785v-3.703c.273-.408.819-.785 1.331-.785.661 0 .935.408.935 1.047v3.441h.787v-3.712c.262-.399.817-.776 1.343-.776.65 0 .932.408.932 1.047v3.441Zm1.574.21h.618l2.487-7.415h-.618l-2.487 7.415Zm4.971-.21h.871v-6.995h-.765l-1.751 1.802.523.535 1.122-1.184v5.842Zm2.382-.998c.524.693 1.28 1.125 2.465 1.125 1.405 0 2.486-.883 2.486-2.309 0-1.438-1.06-2.234-2.225-2.234-.701 0-1.3.293-1.636.63v-2.433h3.41v-.776h-4.281v3.775l.641.221a2.186 2.186 0 0 1 1.616-.661c.943 0 1.604.587 1.604 1.51 0 .851-.661 1.5-1.615 1.5-.86 0-1.47-.336-1.93-.923l-.535.575Zm6.062.998h4.805v-.776h-3.43c1.949-1.541 3.398-2.844 3.398-4.27 0-1.394-1.185-2.056-2.349-2.056-.986 0-1.901.4-2.435 1.102l.534.557c.412-.526 1.062-.882 1.901-.882.722 0 1.458.388 1.458 1.279 0 1.208-1.363 2.372-3.882 4.353v.693Zm6.481-.724c.443.503 1.05.839 1.941.839 1.961 0 2.843-1.719 2.843-3.608 0-1.909-.744-3.617-2.705-3.617-1.521 0-2.444 1.078-2.444 2.286 0 1.489 1.038 2.234 2.297 2.234.891 0 1.668-.61 1.97-1.09.011.092.011.187.011.282 0 1.322-.555 2.737-1.972 2.737-.722 0-1.142-.293-1.498-.713l-.443.65Zm3.873-3.661c-.368.619-1.05 1.039-1.742 1.039-.903 0-1.616-.484-1.616-1.51 0-.661.535-1.478 1.604-1.478 1.216 0 1.679 1.078 1.754 1.949Zm1.981.892c0 1.699.756 3.62 2.674 3.62 1.909 0 2.676-1.921 2.676-3.62 0-1.708-.767-3.609-2.676-3.609-1.918 0-2.674 1.901-2.674 3.609Zm4.456 0c0 1.394-.448 2.843-1.782 2.843-1.332 0-1.783-1.449-1.783-2.843 0-1.395.451-2.832 1.783-2.832 1.334 0 1.782 1.437 1.782 2.832Zm1.741 1.302h2.519v-.693h-2.519v.693Zm3.4 2.191h4.805v-.776h-3.43c1.949-1.541 3.398-2.844 3.398-4.27 0-1.394-1.185-2.056-2.349-2.056-.986 0-1.901.4-2.435 1.102l.534.557c.412-.526 1.062-.882 1.901-.882.722 0 1.458.388 1.458 1.279 0 1.208-1.363 2.372-3.882 4.353v.693Zm6.136-3.493c0 1.699.756 3.62 2.674 3.62 1.909 0 2.677-1.921 2.677-3.62 0-1.708-.768-3.609-2.677-3.609-1.918 0-2.674 1.901-2.674 3.609Zm4.457 0c0 1.394-.449 2.843-1.783 2.843-1.331 0-1.783-1.449-1.783-2.843 0-1.395.452-2.832 1.783-2.832 1.334 0 1.783 1.437 1.783 2.832Zm3.293 3.493h.871v-6.995h-.764l-1.751 1.802.523.535 1.121-1.184v5.842Zm2.256 0h4.805v-.776h-3.43c1.949-1.541 3.398-2.844 3.398-4.27 0-1.394-1.184-2.056-2.349-2.056-.986 0-1.9.4-2.435 1.102l.535.557c.411-.526 1.06-.882 1.9-.882.722 0 1.458.388 1.458 1.279 0 1.208-1.363 2.372-3.882 4.353v.693Zm5.915-2.191h2.518v-.693h-2.518v.693Zm4.699 2.191h.871v-6.995h-.765l-1.751 1.802.524.535 1.121-1.184v5.842Zm2.224-3.493c0 1.699.757 3.62 2.674 3.62 1.909 0 2.677-1.921 2.677-3.62 0-1.708-.768-3.609-2.677-3.609-1.917 0-2.674 1.901-2.674 3.609Zm4.457 0c0 1.394-.449 2.843-1.783 2.843-1.331 0-1.782-1.449-1.782-2.843 0-1.395.451-2.832 1.782-2.832 1.334 0 1.783 1.437 1.783 2.832Zm1.962 0c0 1.699.757 3.62 2.674 3.62 1.91 0 2.677-1.921 2.677-3.62 0-1.708-.767-3.609-2.677-3.609-1.917 0-2.674 1.901-2.674 3.609Zm4.457 0c0 1.394-.449 2.843-1.783 2.843-1.331 0-1.782-1.449-1.782-2.843 0-1.395.451-2.832 1.782-2.832 1.334 0 1.783 1.437 1.783 2.832Zm3.294 3.493h.871v-6.995h-.765l-1.751 1.802.524.535 1.121-1.184v5.842Z" style="fill:#BAD0F0;fill-rule:nonzero"/>
</svg>
