<?xml version="1.0" encoding="utf-8"?>
<!-- Generator: Adobe Illustrator 19.2.1, SVG Export Plug-In . SVG Version: 6.00 Build 0)  -->
<svg version="1.1" id="Ebene_1" xmlns="http://www.w3.org/2000/svg" xmlns:xlink="http://www.w3.org/1999/xlink" x="0px" y="0px"
	 viewBox="0 0 511.5 505.5" style="enable-background:new 0 0 511.5 505.5;" xml:space="preserve">
<style type="text/css">
	.st0{fill:none;}
	.st1{fill:#127373;}
	.st2{fill:#46E1C8;}
</style>
<g>
	<rect x="73.5" y="81.2" class="st0" width="340" height="90"/>
	<path d="M100,82.2v5.4H84v10.7h13.5v5.4H84v14.7h-6.8V82.2H100z"/>
	<path d="M111.5,81.2v37.1h-6.2V81.2H111.5z"/>
	<path d="M129.1,92.3c1.6,0,3.1,0.3,4.5,0.8s2.5,1.3,3.5,2.3c1,1,1.8,2.2,2.3,3.7c0.6,1.4,0.8,3.1,0.8,4.9c0,0.5,0,0.9-0.1,1.2
		c0,0.3-0.1,0.6-0.2,0.7c-0.1,0.2-0.3,0.3-0.4,0.4c-0.2,0.1-0.4,0.1-0.7,0.1h-15.9c0.2,2.6,0.9,4.6,2.1,5.8c1.2,1.2,2.9,1.9,4.9,1.9
		c1,0,1.9-0.1,2.6-0.4s1.4-0.5,1.9-0.8c0.5-0.3,1-0.5,1.4-0.8c0.4-0.2,0.8-0.4,1.2-0.4c0.2,0,0.5,0,0.6,0.1c0.2,0.1,0.3,0.2,0.5,0.4
		l1.8,2.2c-0.7,0.8-1.4,1.5-2.3,2c-0.9,0.5-1.7,1-2.7,1.3c-0.9,0.3-1.9,0.6-2.8,0.7s-1.9,0.2-2.8,0.2c-1.8,0-3.4-0.3-5-0.9
		c-1.5-0.6-2.9-1.5-4-2.6c-1.1-1.2-2-2.6-2.7-4.3c-0.6-1.7-1-3.7-1-5.9c0-1.8,0.3-3.4,0.8-4.9c0.6-1.5,1.4-2.9,2.4-4s2.4-2,3.9-2.7
		C125.4,92.7,127.1,92.3,129.1,92.3z M129.2,96.8c-1.8,0-3.2,0.5-4.2,1.5c-1,1-1.7,2.5-1.9,4.3h11.6c0-0.8-0.1-1.6-0.3-2.3
		c-0.2-0.7-0.5-1.3-1-1.9c-0.5-0.5-1-1-1.7-1.3C130.9,96.9,130.1,96.8,129.2,96.8z"/>
	<path d="M149.8,105.2l-8.4-12.4h5.9c0.5,0,0.8,0.1,1,0.2c0.2,0.1,0.4,0.3,0.6,0.6l5.4,8.6c0.1-0.3,0.2-0.6,0.3-0.9
		c0.1-0.3,0.3-0.6,0.5-0.9l4.3-6.8c0.2-0.3,0.4-0.5,0.6-0.7c0.2-0.2,0.5-0.2,0.8-0.2h5.7l-8.4,12.1l8.8,13.5h-5.9
		c-0.5,0-0.8-0.1-1.1-0.4c-0.3-0.2-0.5-0.5-0.7-0.8l-5.4-8.9c-0.1,0.6-0.4,1.1-0.6,1.5l-4.8,7.4c-0.2,0.3-0.4,0.5-0.7,0.8
		s-0.6,0.4-1,0.4H141L149.8,105.2z"/>
</g>
<rect x="73.5" y="181.2" class="st1" width="361.4" height="255.2"/>
<rect x="103" y="234" class="st2" width="111" height="64"/>
<rect x="226" y="234" class="st2" width="55.5" height="64"/>
<rect x="292" y="234" class="st2" width="96.4" height="64"/>
<rect x="103" y="313.5" class="st2" width="64" height="64"/>
<rect x="184.5" y="313.5" class="st2" width="97" height="64"/>
<rect x="298" y="313.5" class="st2" width="108.4" height="64"/>
</svg>
