<?xml version="1.0" encoding="utf-8"?>
<!-- Generator: Adobe Illustrator 19.2.1, SVG Export Plug-In . SVG Version: 6.00 Build 0)  -->
<svg version="1.1" id="Ebene_1" xmlns="http://www.w3.org/2000/svg" xmlns:xlink="http://www.w3.org/1999/xlink" x="0px" y="0px"
	 viewBox="0 0 947.1 916.5" style="enable-background:new 0 0 947.1 916.5;" xml:space="preserve">
<style type="text/css">
	.st0{fill:none;}
	.st1{fill:#127373;}
</style>
<g>
	<rect x="72" y="69.9" class="st0" width="340" height="90"/>
	<path d="M75.6,107V70.9h12.5c2.4,0,4.4,0.2,6.1,0.7c1.7,0.5,3,1.1,4.1,1.9s1.9,1.8,2.4,3c0.5,1.2,0.8,2.5,0.8,4
		c0,0.9-0.1,1.7-0.4,2.4s-0.6,1.5-1.2,2.2c-0.5,0.7-1.2,1.3-2,1.8c-0.8,0.6-1.8,1-2.9,1.4c5,1.1,7.5,3.8,7.5,8c0,1.5-0.3,3-0.9,4.2
		c-0.6,1.3-1.4,2.4-2.6,3.4c-1.1,0.9-2.5,1.7-4.1,2.2s-3.5,0.8-5.6,0.8H75.6z M82.4,86.5h5.4c2.3,0,4-0.4,5.2-1.2
		c1.2-0.8,1.8-2.2,1.8-4c0-1.9-0.5-3.2-1.6-4c-1.1-0.8-2.7-1.2-5-1.2h-5.8V86.5z M82.4,91.2v10.6h6.8c1.2,0,2.3-0.1,3.1-0.5
		c0.8-0.3,1.5-0.7,2-1.2s0.9-1.1,1.1-1.8s0.3-1.4,0.3-2.1c0-0.8-0.1-1.5-0.4-2.1s-0.6-1.2-1.2-1.6c-0.5-0.4-1.2-0.8-2-1
		c-0.8-0.2-1.8-0.4-3-0.4H82.4z"/>
	<path d="M114.4,69.9V107h-6.2V69.9H114.4z"/>
	<path d="M132.4,81c1.9,0,3.7,0.3,5.2,0.9c1.6,0.6,2.9,1.5,4,2.6c1.1,1.1,1.9,2.5,2.5,4.1c0.6,1.6,0.9,3.5,0.9,5.5
		c0,2-0.3,3.9-0.9,5.5c-0.6,1.6-1.5,3-2.5,4.2c-1.1,1.2-2.4,2-4,2.7c-1.6,0.6-3.3,0.9-5.2,0.9c-1.9,0-3.7-0.3-5.2-0.9
		c-1.6-0.6-2.9-1.5-4-2.7c-1.1-1.1-2-2.5-2.6-4.2c-0.6-1.6-0.9-3.5-0.9-5.5c0-2,0.3-3.8,0.9-5.5c0.6-1.6,1.5-3,2.6-4.1
		c1.1-1.1,2.4-2,4-2.6C128.7,81.3,130.5,81,132.4,81z M132.4,102.7c2.1,0,3.7-0.7,4.7-2.1c1-1.4,1.5-3.5,1.5-6.3
		c0-2.8-0.5-4.9-1.5-6.3c-1-1.5-2.6-2.2-4.7-2.2c-2.2,0-3.8,0.7-4.8,2.2c-1,1.5-1.6,3.6-1.6,6.3s0.5,4.8,1.6,6.3
		C128.6,101.9,130.2,102.7,132.4,102.7z"/>
	<path d="M167.9,86.8c-0.2,0.2-0.4,0.4-0.5,0.6c-0.2,0.1-0.4,0.2-0.8,0.2c-0.3,0-0.6-0.1-0.9-0.3c-0.3-0.2-0.7-0.4-1.1-0.6
		c-0.4-0.2-0.9-0.5-1.5-0.6c-0.6-0.2-1.3-0.3-2.1-0.3c-1.1,0-2,0.2-2.9,0.6c-0.8,0.4-1.5,1-2,1.7c-0.5,0.7-0.9,1.6-1.2,2.7
		c-0.3,1-0.4,2.2-0.4,3.5c0,1.4,0.1,2.6,0.4,3.6c0.3,1.1,0.7,2,1.3,2.7c0.5,0.7,1.2,1.3,2,1.6c0.8,0.4,1.7,0.6,2.6,0.6
		s1.8-0.1,2.4-0.4c0.6-0.2,1.1-0.5,1.5-0.8s0.8-0.6,1.1-0.8c0.3-0.2,0.7-0.4,1-0.4c0.5,0,0.9,0.2,1.1,0.6l1.8,2.2
		c-0.7,0.8-1.4,1.5-2.2,2c-0.8,0.5-1.6,1-2.5,1.3c-0.9,0.3-1.7,0.6-2.7,0.7c-0.9,0.1-1.8,0.2-2.7,0.2c-1.6,0-3.1-0.3-4.5-0.9
		c-1.4-0.6-2.6-1.5-3.7-2.6c-1-1.1-1.9-2.5-2.5-4.2c-0.6-1.6-0.9-3.5-0.9-5.6c0-1.9,0.3-3.6,0.8-5.2c0.5-1.6,1.3-3,2.4-4.2
		c1.1-1.2,2.4-2.1,3.9-2.8c1.6-0.7,3.3-1,5.4-1c1.9,0,3.6,0.3,5,0.9c1.4,0.6,2.7,1.5,3.9,2.6L167.9,86.8z"/>
	<path d="M179.9,69.9v21.3h1.2c0.4,0,0.7-0.1,1-0.2s0.5-0.3,0.8-0.7l6.4-7.9c0.3-0.3,0.6-0.6,0.9-0.8c0.3-0.2,0.7-0.3,1.2-0.3h5.6
		l-8,9.5c-0.3,0.4-0.6,0.7-0.9,1c-0.3,0.3-0.6,0.5-1,0.8c0.4,0.2,0.7,0.5,0.9,0.9c0.3,0.3,0.5,0.7,0.8,1.1l8.5,12.5h-5.6
		c-0.5,0-0.9-0.1-1.2-0.2c-0.3-0.2-0.6-0.5-0.9-0.9l-6.5-9.7c-0.2-0.4-0.5-0.6-0.8-0.8c-0.2-0.1-0.6-0.2-1.1-0.2h-1.4V107h-6.2V69.9
		H179.9z"/>
</g>
<g>
	<rect x="530" y="69.9" class="st0" width="340" height="90"/>
	<path d="M541.2,107h-6.8V70.9h6.8V107z"/>
	<path d="M549,107V81.4h3.8c0.8,0,1.3,0.4,1.6,1.1l0.4,2c0.5-0.5,1.1-1,1.6-1.5c0.6-0.4,1.2-0.8,1.8-1.1c0.6-0.3,1.3-0.6,2.1-0.7
		s1.5-0.2,2.4-0.2c1.4,0,2.6,0.2,3.7,0.7s2,1.1,2.7,2c0.7,0.9,1.3,1.9,1.7,3.1c0.4,1.2,0.6,2.5,0.6,3.9V107h-6.2V90.7
		c0-1.6-0.4-2.8-1.1-3.6c-0.7-0.9-1.8-1.3-3.3-1.3c-1.1,0-2.1,0.2-3,0.7s-1.8,1.1-2.6,2V107H549z"/>
	<path d="M584,69.9V107h-6.2V69.9H584z"/>
	<path d="M598.5,73.9c0,0.5-0.1,1-0.3,1.5c-0.2,0.5-0.5,0.9-0.9,1.2c-0.4,0.4-0.8,0.6-1.3,0.8c-0.5,0.2-1,0.3-1.5,0.3
		c-0.5,0-1-0.1-1.5-0.3c-0.5-0.2-0.9-0.5-1.2-0.8s-0.6-0.8-0.8-1.2c-0.2-0.5-0.3-1-0.3-1.5c0-0.5,0.1-1.1,0.3-1.5s0.5-0.9,0.8-1.2
		c0.3-0.4,0.8-0.6,1.2-0.8c0.5-0.2,1-0.3,1.5-0.3c0.5,0,1.1,0.1,1.5,0.3c0.5,0.2,0.9,0.5,1.3,0.8c0.4,0.3,0.6,0.8,0.9,1.2
		C598.4,72.8,598.5,73.4,598.5,73.9z M597.5,81.4V107h-6.2V81.4H597.5z"/>
	<path d="M604.5,107V81.4h3.8c0.8,0,1.3,0.4,1.6,1.1l0.4,2c0.5-0.5,1.1-1,1.6-1.5c0.6-0.4,1.2-0.8,1.8-1.1c0.6-0.3,1.3-0.6,2.1-0.7
		c0.7-0.2,1.5-0.2,2.4-0.2c1.4,0,2.6,0.2,3.7,0.7c1.1,0.5,2,1.1,2.7,2c0.7,0.9,1.3,1.9,1.6,3.1c0.4,1.2,0.6,2.5,0.6,3.9V107h-6.2
		V90.7c0-1.6-0.4-2.8-1.1-3.6s-1.8-1.3-3.3-1.3c-1.1,0-2.1,0.2-3,0.7c-0.9,0.5-1.8,1.1-2.7,2V107H604.5z"/>
	<path d="M643.5,81c1.6,0,3.1,0.3,4.5,0.8c1.4,0.5,2.5,1.3,3.5,2.3c1,1,1.8,2.2,2.3,3.7c0.5,1.4,0.8,3.1,0.8,4.9
		c0,0.5,0,0.9-0.1,1.2c0,0.3-0.1,0.6-0.2,0.7c-0.1,0.2-0.3,0.3-0.4,0.4c-0.2,0.1-0.4,0.1-0.7,0.1h-15.9c0.2,2.6,0.9,4.6,2.1,5.8
		s2.9,1.9,4.9,1.9c1,0,1.9-0.1,2.6-0.4s1.4-0.5,1.9-0.8c0.5-0.3,1-0.5,1.4-0.8c0.4-0.2,0.8-0.4,1.2-0.4c0.2,0,0.5,0,0.6,0.1
		s0.3,0.2,0.5,0.4l1.8,2.2c-0.7,0.8-1.4,1.5-2.3,2c-0.9,0.5-1.7,1-2.7,1.3c-0.9,0.3-1.9,0.6-2.8,0.7c-1,0.1-1.9,0.2-2.8,0.2
		c-1.8,0-3.4-0.3-5-0.9c-1.5-0.6-2.9-1.5-4-2.6c-1.1-1.2-2-2.6-2.7-4.3c-0.7-1.7-1-3.7-1-5.9c0-1.8,0.3-3.4,0.8-4.9
		c0.6-1.5,1.4-2.9,2.4-4s2.3-2,3.9-2.7S641.6,81,643.5,81z M643.7,85.4c-1.8,0-3.2,0.5-4.2,1.5c-1,1-1.7,2.5-2,4.3h11.6
		c0-0.8-0.1-1.6-0.3-2.3c-0.2-0.7-0.5-1.3-1-1.9c-0.4-0.5-1-1-1.7-1.3C645.4,85.6,644.6,85.4,643.7,85.4z"/>
</g>
<g>
	<rect x="72" y="512.9" class="st0" width="340" height="90"/>
	<path d="M101.1,513.9v5.5H90.2V550h-6.7v-30.6H72.6v-5.5H101.1z"/>
	<path d="M119,550h-2.8c-0.6,0-1-0.1-1.4-0.3c-0.3-0.2-0.6-0.5-0.8-1.1l-0.5-1.8c-0.7,0.6-1.3,1.1-1.9,1.5s-1.3,0.8-1.9,1.1
		c-0.7,0.3-1.4,0.5-2.1,0.7c-0.8,0.2-1.6,0.2-2.5,0.2c-1.1,0-2.1-0.1-3-0.4c-0.9-0.3-1.7-0.7-2.4-1.3c-0.7-0.6-1.2-1.3-1.5-2.2
		c-0.4-0.9-0.6-1.9-0.6-3c0-1,0.3-1.9,0.8-2.9c0.5-0.9,1.4-1.8,2.5-2.6c1.2-0.8,2.8-1.4,4.7-1.9c2-0.5,4.4-0.8,7.3-0.8v-1.5
		c0-1.7-0.4-3-1.1-3.8c-0.7-0.8-1.8-1.2-3.2-1.2c-1,0-1.8,0.1-2.5,0.3c-0.7,0.2-1.2,0.5-1.7,0.8c-0.5,0.3-0.9,0.6-1.4,0.8
		c-0.4,0.2-0.9,0.4-1.4,0.4c-0.4,0-0.8-0.1-1.1-0.3c-0.3-0.2-0.5-0.5-0.7-0.8l-1.1-2c2.9-2.7,6.5-4,10.7-4c1.5,0,2.8,0.2,4,0.7
		c1.2,0.5,2.2,1.2,3,2.1c0.8,0.9,1.4,1.9,1.9,3.1c0.4,1.2,0.6,2.6,0.6,4V550z M107,546.2c0.6,0,1.2-0.1,1.8-0.2
		c0.5-0.1,1-0.3,1.5-0.5c0.5-0.2,0.9-0.5,1.4-0.8c0.4-0.3,0.9-0.7,1.3-1.2v-4.3c-1.8,0-3.3,0.1-4.5,0.3s-2.2,0.5-2.9,0.9
		c-0.7,0.4-1.3,0.8-1.6,1.2c-0.3,0.5-0.5,1-0.5,1.5c0,1.1,0.3,1.9,1,2.3C105.2,546,106,546.2,107,546.2z"/>
	<path d="M125.2,550v-37.2h6.2v14.7c1-1.1,2.2-1.9,3.5-2.6c1.3-0.6,2.8-1,4.5-1c1.4,0,2.7,0.3,3.8,0.9c1.2,0.6,2.2,1.4,3,2.5
		c0.8,1.1,1.5,2.5,2,4.1c0.5,1.6,0.7,3.5,0.7,5.6c0,1.9-0.3,3.7-0.8,5.3c-0.5,1.6-1.3,3.1-2.2,4.2c-1,1.2-2.1,2.1-3.5,2.8
		c-1.4,0.7-2.9,1-4.6,1c-0.8,0-1.5-0.1-2.2-0.2c-0.6-0.2-1.2-0.4-1.8-0.7c-0.5-0.3-1-0.6-1.5-1c-0.5-0.4-0.9-0.9-1.3-1.4l-0.3,1.7
		c-0.1,0.4-0.3,0.7-0.5,0.9c-0.2,0.2-0.6,0.3-1,0.3H125.2z M137.2,528.8c-1.3,0-2.4,0.3-3.3,0.8c-0.9,0.5-1.8,1.3-2.5,2.3v11.5
		c0.7,0.9,1.5,1.5,2.3,1.8c0.8,0.3,1.7,0.5,2.7,0.5c0.9,0,1.8-0.2,2.5-0.5s1.4-0.9,1.9-1.6c0.5-0.7,0.9-1.6,1.2-2.7
		c0.3-1.1,0.4-2.4,0.4-3.9c0-1.5-0.1-2.8-0.4-3.8s-0.6-1.9-1-2.5c-0.5-0.7-1-1.1-1.6-1.4C138.7,528.9,138,528.8,137.2,528.8z"/>
	<path d="M160.2,512.9V550H154v-37.2H160.2z"/>
	<path d="M177.8,524c1.6,0,3.1,0.3,4.5,0.8s2.5,1.3,3.5,2.3c1,1,1.8,2.2,2.3,3.7c0.6,1.4,0.8,3.1,0.8,4.9c0,0.5,0,0.9-0.1,1.2
		c0,0.3-0.1,0.6-0.2,0.7s-0.3,0.3-0.4,0.4c-0.2,0.1-0.4,0.1-0.7,0.1h-15.9c0.2,2.6,0.9,4.6,2.1,5.8c1.2,1.2,2.9,1.8,4.9,1.8
		c1,0,1.9-0.1,2.6-0.3c0.7-0.2,1.4-0.5,1.9-0.8s1-0.5,1.4-0.8c0.4-0.2,0.8-0.3,1.2-0.3c0.2,0,0.5,0,0.6,0.2c0.2,0.1,0.3,0.2,0.5,0.4
		l1.8,2.2c-0.7,0.8-1.4,1.5-2.3,2c-0.9,0.5-1.7,1-2.7,1.3c-0.9,0.3-1.9,0.6-2.8,0.7c-1,0.1-1.9,0.2-2.8,0.2c-1.8,0-3.4-0.3-5-0.9
		c-1.5-0.6-2.9-1.5-4-2.6c-1.1-1.2-2-2.6-2.7-4.3c-0.6-1.7-1-3.7-1-5.9c0-1.8,0.3-3.4,0.8-4.9c0.6-1.5,1.4-2.9,2.4-4s2.4-2,3.9-2.7
		C174.1,524.3,175.9,524,177.8,524z M177.9,528.4c-1.8,0-3.2,0.5-4.2,1.5s-1.7,2.5-1.9,4.3h11.6c0-0.8-0.1-1.6-0.3-2.3
		c-0.2-0.7-0.5-1.3-1-1.9s-1-1-1.7-1.3C179.6,528.6,178.8,528.4,177.9,528.4z"/>
</g>
<g>
	<rect x="530" y="512.9" class="st0" width="340" height="90"/>
	<path d="M540.6,537.3V550h-6.7v-36.2h11.8c2.4,0,4.5,0.3,6.3,0.8s3.2,1.4,4.4,2.4c1.2,1,2,2.2,2.5,3.7c0.6,1.4,0.8,3,0.8,4.7
		c0,1.8-0.3,3.4-0.9,4.8c-0.6,1.5-1.5,2.7-2.6,3.8c-1.2,1.1-2.6,1.9-4.4,2.5s-3.8,0.9-6.1,0.9H540.6z M540.6,532.1h5.1
		c1.2,0,2.3-0.2,3.2-0.5c0.9-0.3,1.7-0.8,2.3-1.3c0.6-0.6,1-1.3,1.3-2.1c0.3-0.8,0.5-1.7,0.5-2.8c0-1-0.2-1.8-0.5-2.6
		s-0.8-1.5-1.3-2c-0.6-0.6-1.4-1-2.3-1.3c-0.9-0.3-2-0.4-3.2-0.4h-5.1V532.1z"/>
	<path d="M574.8,524c1.9,0,3.7,0.3,5.2,0.9c1.6,0.6,2.9,1.5,4,2.6c1.1,1.1,2,2.5,2.5,4.1s0.9,3.5,0.9,5.5c0,2-0.3,3.9-0.9,5.5
		c-0.6,1.6-1.5,3-2.5,4.2c-1.1,1.2-2.4,2-4,2.7c-1.6,0.6-3.3,0.9-5.2,0.9c-1.9,0-3.7-0.3-5.2-0.9c-1.6-0.6-2.9-1.5-4-2.7
		c-1.1-1.1-2-2.5-2.6-4.2c-0.6-1.6-0.9-3.5-0.9-5.5c0-2,0.3-3.8,0.9-5.5s1.5-3,2.6-4.1c1.1-1.1,2.4-2,4-2.6
		C571.1,524.3,572.8,524,574.8,524z M574.8,545.7c2.1,0,3.7-0.7,4.7-2.2c1-1.4,1.5-3.5,1.5-6.3c0-2.8-0.5-4.9-1.5-6.3
		c-1-1.5-2.6-2.2-4.7-2.2c-2.2,0-3.8,0.7-4.8,2.2c-1,1.5-1.5,3.6-1.5,6.3s0.5,4.8,1.5,6.3C571,544.9,572.6,545.7,574.8,545.7z"/>
	<path d="M607.4,529.4c-0.2,0.3-0.3,0.5-0.5,0.6c-0.2,0.1-0.4,0.2-0.7,0.2c-0.3,0-0.6-0.1-1-0.2c-0.3-0.2-0.7-0.4-1.2-0.6
		c-0.4-0.2-1-0.4-1.5-0.6c-0.6-0.2-1.3-0.2-2-0.2c-1.2,0-2.2,0.3-2.9,0.8c-0.7,0.5-1.1,1.2-1.1,2c0,0.5,0.2,1,0.5,1.4s0.8,0.7,1.4,1
		s1.3,0.5,2,0.8s1.5,0.5,2.3,0.7c0.8,0.3,1.6,0.6,2.3,0.9s1.4,0.8,2,1.3s1.1,1.2,1.4,1.9c0.4,0.7,0.5,1.6,0.5,2.7
		c0,1.2-0.2,2.4-0.7,3.4c-0.4,1-1.1,1.9-2,2.7c-0.9,0.8-1.9,1.4-3.2,1.8c-1.3,0.4-2.7,0.6-4.4,0.6c-0.9,0-1.7-0.1-2.6-0.2
		s-1.7-0.4-2.4-0.7s-1.5-0.6-2.1-1c-0.7-0.4-1.2-0.8-1.7-1.2l1.4-2.4c0.2-0.3,0.4-0.5,0.6-0.6c0.2-0.2,0.6-0.2,1-0.2
		c0.4,0,0.7,0.1,1.1,0.3c0.3,0.2,0.7,0.4,1.2,0.7c0.4,0.2,1,0.5,1.6,0.7s1.4,0.3,2.3,0.3c0.7,0,1.4-0.1,1.9-0.3
		c0.5-0.2,1-0.4,1.3-0.7c0.3-0.3,0.6-0.6,0.8-1c0.2-0.4,0.2-0.8,0.2-1.2c0-0.6-0.2-1.1-0.5-1.5c-0.4-0.4-0.8-0.7-1.4-1
		s-1.3-0.5-2-0.8c-0.8-0.2-1.5-0.5-2.3-0.7c-0.8-0.3-1.6-0.6-2.3-0.9c-0.8-0.4-1.4-0.8-2-1.4c-0.6-0.5-1.1-1.2-1.4-2
		c-0.4-0.8-0.5-1.8-0.5-2.9c0-1,0.2-2,0.6-3s1-1.8,1.8-2.5s1.8-1.3,3-1.7c1.2-0.4,2.6-0.6,4.2-0.6c1.8,0,3.4,0.3,4.8,0.9
		c1.5,0.6,2.7,1.3,3.6,2.3L607.4,529.4z"/>
	<path d="M621.6,516.9c0,0.5-0.1,1-0.3,1.5c-0.2,0.5-0.5,0.9-0.9,1.2s-0.8,0.6-1.3,0.8c-0.5,0.2-1,0.3-1.6,0.3c-0.5,0-1-0.1-1.5-0.3
		c-0.5-0.2-0.9-0.5-1.2-0.8s-0.6-0.8-0.8-1.2c-0.2-0.5-0.3-1-0.3-1.5c0-0.6,0.1-1.1,0.3-1.6c0.2-0.5,0.5-0.9,0.8-1.2
		s0.8-0.6,1.2-0.8c0.5-0.2,1-0.3,1.5-0.3c0.6,0,1.1,0.1,1.6,0.3c0.5,0.2,0.9,0.5,1.3,0.8s0.6,0.8,0.9,1.2
		C621.5,515.8,621.6,516.4,621.6,516.9z M620.6,524.4V550h-6.2v-25.7H620.6z"/>
	<path d="M636,550.4c-2.2,0-3.9-0.6-5.1-1.9c-1.2-1.3-1.8-3-1.8-5.2V529h-2.6c-0.3,0-0.6-0.1-0.9-0.3c-0.2-0.2-0.4-0.5-0.4-1v-2.4
		l4.1-0.7l1.3-7c0.1-0.3,0.2-0.6,0.5-0.8c0.2-0.2,0.5-0.3,0.9-0.3h3.2v8.1h6.8v4.4h-6.8v13.9c0,0.8,0.2,1.4,0.6,1.9
		c0.4,0.4,0.9,0.7,1.6,0.7c0.4,0,0.7,0,1-0.1c0.3-0.1,0.5-0.2,0.7-0.3c0.2-0.1,0.4-0.2,0.5-0.3c0.1-0.1,0.3-0.1,0.5-0.1
		c0.2,0,0.3,0,0.4,0.1c0.1,0.1,0.2,0.2,0.4,0.4l1.9,3c-0.9,0.8-1.9,1.3-3.1,1.7C638.5,550.2,637.3,550.4,636,550.4z"/>
	<path d="M654.5,516.9c0,0.5-0.1,1-0.3,1.5s-0.5,0.9-0.9,1.2s-0.8,0.6-1.3,0.8c-0.5,0.2-1,0.3-1.5,0.3c-0.5,0-1-0.1-1.5-0.3
		c-0.5-0.2-0.9-0.5-1.2-0.8c-0.3-0.3-0.6-0.8-0.8-1.2c-0.2-0.5-0.3-1-0.3-1.5c0-0.6,0.1-1.1,0.3-1.6c0.2-0.5,0.5-0.9,0.8-1.2
		c0.4-0.3,0.8-0.6,1.2-0.8c0.5-0.2,1-0.3,1.5-0.3c0.5,0,1.1,0.1,1.5,0.3c0.5,0.2,0.9,0.5,1.3,0.8s0.6,0.8,0.9,1.2
		C654.4,515.8,654.5,516.4,654.5,516.9z M653.5,524.4V550h-6.2v-25.7H653.5z"/>
	<path d="M671.5,524c1.9,0,3.7,0.3,5.2,0.9c1.6,0.6,2.9,1.5,4,2.6c1.1,1.1,1.9,2.5,2.5,4.1s0.9,3.5,0.9,5.5c0,2-0.3,3.9-0.9,5.5
		c-0.6,1.6-1.5,3-2.5,4.2c-1.1,1.2-2.4,2-4,2.7c-1.6,0.6-3.3,0.9-5.2,0.9s-3.7-0.3-5.2-0.9c-1.6-0.6-2.9-1.5-4-2.7
		c-1.1-1.1-2-2.5-2.6-4.2c-0.6-1.6-0.9-3.5-0.9-5.5c0-2,0.3-3.8,0.9-5.5s1.5-3,2.6-4.1c1.1-1.1,2.4-2,4-2.6
		C667.8,524.3,669.6,524,671.5,524z M671.5,545.7c2.1,0,3.7-0.7,4.7-2.2s1.5-3.5,1.5-6.3c0-2.8-0.5-4.9-1.5-6.3
		c-1-1.5-2.6-2.2-4.7-2.2c-2.2,0-3.8,0.7-4.8,2.2c-1,1.5-1.6,3.6-1.6,6.3s0.5,4.8,1.6,6.3C667.7,544.9,669.3,545.7,671.5,545.7z"/>
	<path d="M688.9,550v-25.7h3.8c0.8,0,1.3,0.4,1.6,1.1l0.4,2c0.5-0.5,1.1-1,1.6-1.5c0.6-0.4,1.2-0.8,1.8-1.1c0.6-0.3,1.3-0.6,2.1-0.7
		c0.7-0.2,1.5-0.2,2.4-0.2c1.4,0,2.6,0.2,3.7,0.7c1.1,0.5,2,1.1,2.7,2s1.3,1.9,1.7,3.1c0.4,1.2,0.6,2.5,0.6,3.9V550h-6.2v-16.3
		c0-1.6-0.4-2.8-1.1-3.6c-0.7-0.9-1.8-1.3-3.3-1.3c-1.1,0-2.1,0.2-3,0.7s-1.8,1.1-2.7,2V550H688.9z"/>
	<path d="M728,524c1.6,0,3.1,0.3,4.5,0.8s2.5,1.3,3.5,2.3c1,1,1.8,2.2,2.3,3.7c0.6,1.4,0.8,3.1,0.8,4.9c0,0.5,0,0.9-0.1,1.2
		c0,0.3-0.1,0.6-0.2,0.7c-0.1,0.2-0.3,0.3-0.4,0.4s-0.4,0.1-0.7,0.1h-15.8c0.2,2.6,0.9,4.6,2.1,5.8c1.2,1.2,2.9,1.8,4.9,1.8
		c1,0,1.9-0.1,2.6-0.3c0.7-0.2,1.4-0.5,1.9-0.8s1-0.5,1.4-0.8c0.4-0.2,0.8-0.3,1.2-0.3c0.2,0,0.5,0,0.6,0.2c0.2,0.1,0.3,0.2,0.5,0.4
		l1.8,2.2c-0.7,0.8-1.4,1.5-2.3,2c-0.9,0.5-1.7,1-2.7,1.3c-0.9,0.3-1.9,0.6-2.8,0.7c-1,0.1-1.9,0.2-2.8,0.2c-1.8,0-3.4-0.3-5-0.9
		c-1.5-0.6-2.9-1.5-4-2.6c-1.1-1.2-2-2.6-2.7-4.3c-0.7-1.7-1-3.7-1-5.9c0-1.8,0.3-3.4,0.8-4.9c0.6-1.5,1.4-2.9,2.4-4s2.3-2,3.9-2.7
		C724.3,524.3,726.1,524,728,524z M728.1,528.4c-1.8,0-3.2,0.5-4.2,1.5s-1.7,2.5-1.9,4.3h11.6c0-0.8-0.1-1.6-0.3-2.3
		c-0.2-0.7-0.5-1.3-1-1.9s-1-1-1.7-1.3C729.8,528.6,729,528.4,728.1,528.4z"/>
	<path d="M762.1,550c-0.8,0-1.3-0.4-1.6-1.1l-0.5-2.5c-0.5,0.6-1.1,1.1-1.7,1.6s-1.2,0.9-1.9,1.2c-0.7,0.4-1.4,0.6-2.2,0.8
		s-1.6,0.3-2.5,0.3c-1.4,0-2.7-0.3-3.8-0.9c-1.2-0.6-2.2-1.4-3-2.5c-0.8-1.1-1.5-2.5-2-4.1s-0.7-3.5-0.7-5.6c0-1.9,0.3-3.7,0.8-5.3
		c0.5-1.6,1.3-3,2.2-4.2c1-1.2,2.1-2.1,3.5-2.8c1.4-0.7,2.9-1,4.6-1c1.4,0,2.7,0.2,3.7,0.7c1,0.5,1.9,1.1,2.7,1.8v-13.5h6.2V550
		H762.1z M753.9,545.5c1.3,0,2.4-0.3,3.3-0.8c0.9-0.5,1.8-1.3,2.6-2.3v-11.5c-0.7-0.9-1.5-1.5-2.3-1.8s-1.7-0.5-2.7-0.5
		c-0.9,0-1.8,0.2-2.5,0.5s-1.4,0.9-1.9,1.6c-0.5,0.7-0.9,1.6-1.2,2.7c-0.3,1.1-0.4,2.4-0.4,3.9c0,1.5,0.1,2.8,0.4,3.8
		c0.2,1,0.6,1.9,1,2.5c0.4,0.7,1,1.1,1.7,1.4C752.4,545.4,753.1,545.5,753.9,545.5z"/>
</g>
<rect x="72" y="169.9" class="st1" width="289" height="71"/>
<rect x="532" y="178.9" class="st1" width="146" height="53"/>
<rect x="693" y="169.9" class="st1" width="66" height="71"/>
<rect x="772" y="185.9" class="st1" width="85" height="39"/>
<rect x="72" y="255.9" class="st1" width="289" height="71"/>
<rect x="72" y="341.9" class="st1" width="289" height="71"/>
<rect x="72" y="602.9" class="st1" width="99" height="71"/>
<rect x="532" y="602.9" class="st1" width="137.6" height="121.5"/>
<rect x="601.2" y="746.3" class="st1" width="137.6" height="47.1"/>
<rect x="719" y="659.6" transform="matrix(7.497742e-11 -1 1 7.497742e-11 88.8809 1486.6541)" class="st1" width="137.6" height="78.6"/>
<rect x="72" y="688.9" class="st1" width="99" height="71"/>
<rect x="72" y="774.9" class="st1" width="99" height="71"/>
<rect x="187" y="602.9" class="st1" width="55" height="71"/>
<rect x="187" y="688.9" class="st1" width="108" height="71"/>
<rect x="187" y="774.9" class="st1" width="55" height="71"/>
<rect x="258" y="602.9" class="st1" width="37" height="71"/>
<rect x="258" y="774.9" class="st1" width="37" height="71"/>
<rect x="310" y="602.9" class="st1" width="51" height="71"/>
<rect x="310" y="688.9" class="st1" width="51" height="71"/>
<rect x="310" y="774.9" class="st1" width="51" height="71"/>
</svg>
