<?xml version="1.0" encoding="utf-8"?>
<!-- Generator: Adobe Illustrator 19.2.1, SVG Export Plug-In . SVG Version: 6.00 Build 0)  -->
<svg version="1.1" id="Ebene_1" xmlns="http://www.w3.org/2000/svg" xmlns:xlink="http://www.w3.org/1999/xlink" x="0px" y="0px"
	 viewBox="0 0 400 400" style="enable-background:new 0 0 400 400;" xml:space="preserve">
<style type="text/css">
	.st0{fill:none;}
	.st1{fill:#127373;}
	.st2{fill:#46E1C8;}
	.st3{fill:none;stroke:#46E1C8;stroke-width:14;stroke-miterlimit:10;}
</style>
<path class="st2" d="M312.7,200c0-67.5-54.7-122.2-122.2-122.2c-42.2,0-79.4,21.4-101.4,53.9c101.4,68.3,0,0,101.4,68.3
	c-103.1,65.7,0,0-103.1,65.7c21.7,34,59.8,56.6,103.1,56.6C258,322.2,312.7,267.5,312.7,200z"/>
<g>
	<path class="st1" d="M262,179.4c-3.8,0-7.1,1.7-9.5,4.3c-2.4-2.7-5.7-4.3-9.5-4.3c-7.2,0-13,6.1-13,13.6c0,2,0.3,3.9,0.9,5.8
		c0,0,0.5,1.7,1,2.6c5.5,11.7,20.5,19.4,20.5,19.4s15-7.6,20.5-19.4c0,0,0.7-1.6,1-2.6c0.6-1.9,0.9-3.8,0.9-5.8
		C275,185.4,269.2,179.4,262,179.4z"/>
</g>
</svg>
