<?xml version="1.0" encoding="utf-8"?>
<!-- Generator: Adobe Illustrator 19.2.1, SVG Export Plug-In . SVG Version: 6.00 Build 0)  -->
<svg version="1.1" id="Ebene_1" xmlns="http://www.w3.org/2000/svg" xmlns:xlink="http://www.w3.org/1999/xlink" x="0px" y="0px"
	 viewBox="0 0 400 400" style="enable-background:new 0 0 400 400;" xml:space="preserve">
<style type="text/css">
	.st0{fill:none;}
	.st1{fill:#127373;}
	.st2{fill:#46E1C8;}
	.st3{fill:none;stroke:#46E1C8;stroke-width:14;stroke-miterlimit:10;}
</style>
<g>
	<path class="st2" d="M320.7,200c0-67.5-54.7-122.2-122.2-122.2c-58.2,0-106.9,40.7-119.2,95.2c121,27.1,0,0,121,27.1
		c-120,31.2-0.3,0-120,31.2c13.8,52.4,61.5,91.1,118.2,91.1C266,322.2,320.7,267.5,320.7,200z"/>
</g>
<g>
	<path class="st1" d="M271.9,156.9c-7.7,0-14.5,3.4-19.4,8.8c-4.8-5.4-11.7-8.8-19.4-8.8c-14.6,0-26.4,12.4-26.4,27.7
		c0,4.1,0.7,8.1,1.9,11.8c0,0,1.1,3.4,2.1,5.3c11.1,23.9,41.8,39.5,41.8,39.5s30.7-15.5,41.8-39.5c0,0,1.4-3.2,2.1-5.3
		c1.2-3.8,1.9-7.7,1.9-11.8C298.3,169.3,286.5,156.9,271.9,156.9z"/>
</g>
</svg>
