<?xml version="1.0" encoding="utf-8"?>
<!-- Generator: Adobe Illustrator 19.1.0, SVG Export Plug-In . SVG Version: 6.00 Build 0)  -->
<svg version="1.1" id="Layer_1" xmlns="http://www.w3.org/2000/svg" xmlns:xlink="http://www.w3.org/1999/xlink" x="0px" y="0px"
	 viewBox="0 0 680 706" enable-background="new 0 0 680 706" xml:space="preserve">
<rect fill="#FFFFFF" width="680" height="706"/>
<g>
	<path fill="#EF301F" d="M596.504,199.573L344.615,54.222c-2.852-1.629-6.378-1.629-9.229,0L83.497,199.573
		c-2.851,1.628-4.614,4.75-4.614,8.007V498.42c0,3.258,1.764,6.379,4.614,8.008l251.889,145.352
		c1.493,0.814,2.985,1.221,4.614,1.221c1.628,0,3.257-0.406,4.615-1.221l251.889-145.352c2.85-1.629,4.613-4.75,4.613-8.008V207.581
		C601.117,204.323,599.353,201.202,596.504,199.573z"/>
	<polygon id="background_1_" fill="#FFFFFF" points="93.717,211.646 340.409,69.16 586.969,211.646 586.969,496.486 340.409,638.84 
		93.717,496.486 	"/>
	<g>
		<path fill-rule="evenodd" clip-rule="evenodd" fill="#0D603F" d="M393.615,381.879c-1.303,0.305-2.207,0.461-3.08,0.725
			c-8.996,2.736-18.221,4.25-27.557,5.123c-11.633,1.088-23.294,1.393-34.965,0.836c-5.143-0.248-10.316-0.483-15.4-1.24
			c-7.161-1.064-14.252-2.607-21.373-3.943c-1.905-0.357-3.812-0.707-5.816-1.078c-0.048,0.555-0.128,0.832-0.085,1.09
			c0.768,4.641,2.073,9.129,4.1,13.371c0.326,0.684,1.222,1.301,1.983,1.537c2.14,0.664,4.329,1.201,6.529,1.629
			c5.875,1.145,11.728,2.77,17.659,3.162c9.103,0.607,18.263,0.4,27.4,0.443c15.682,0.07,31.139-1.434,46.031-6.781
			c0.928-0.336,1.477-0.693,1.686-1.736c0.402-2.018,1.033-3.984,1.48-5.992C392.707,386.766,393.105,384.488,393.615,381.879z
			 M384.426,424.82c0.602,0.398,1.062,0.711,1.527,1.012c2.082,1.352,4.139,2.742,6.258,4.033c1.215,0.742,2.582,1.273,4.008,0.66
			c2.887-1.244,5.242-3.088,6.326-6.186c2.635-7.539-4.996-16.066-11.254-15.238c-3.318,0.44-6.492,1.154-8.922,3.609
			c-2.074,2.094-4.129,4.23-5.953,6.537c-6.738,8.52-12.074,17.928-17.236,27.445c-0.477,0.879-0.486,1.578-0.1,2.478
			c3.547,8.301,7.049,16.623,10.568,24.938c0.158,0.373,0.354,0.733,0.635,1.305c0.17-0.709,0.293-1.189,0.404-1.668
			c2.44-10.523,4.809-21.062,7.35-31.561C379.48,436.225,381.576,430.467,384.426,424.82z M340.226,413.975
			c-0.312,0.277-0.528,0.4-0.639,0.584c-0.702,1.16-1.497,2.283-2.049,3.514c-4.345,9.69-8.648,19.393-12.929,29.109
			c-0.18,0.406-0.2,1.041-0.011,1.43c4.467,9.172,8.968,18.32,13.478,27.469c0.25,0.51,0.633,0.953,1.068,1.596
			c0.59-0.996,1.092-1.727,1.475-2.516c4.33-8.926,8.656-17.848,12.919-26.805c0.25-0.525,0.137-1.377-0.1-1.961
			c-3.615-9.033-7.273-18.047-10.936-27.061C341.789,417.574,341.019,415.836,340.226,413.975z M307.901,473.912
			c0.132,0.023,0.265,0.045,0.395,0.068c0.576-0.939,1.264-1.826,1.709-2.824c3.189-7.127,6.34-14.272,9.457-21.43
			c0.165-0.383,0.051-1.008-0.152-1.41c-2.646-5.268-5.203-10.586-8.041-15.748c-3.526-6.41-7.445-12.58-12.814-17.672
			c-2.088-1.98-4.372-3.68-7.119-4.652c-5.215-1.85-11.04,0.453-13.654,5.395c-2.539,4.797-1.153,10.281,3.408,13.695
			c2.33,1.744,4.765,1.967,7.183,0.408c1.802-1.16,3.421-2.602,5.123-3.918c0.383-0.297,0.775-0.582,1.373-1.033
			c1.588,4.113,3.232,7.939,4.551,11.875c3.112,9.291,4.801,18.932,6.745,28.506C306.657,468.09,307.288,471,307.901,473.912z
			 M336.663,408.473c-0.546-0.164-0.85-0.32-1.163-0.342c-1.866-0.143-3.736-0.369-5.603-0.355
			c-10.342,0.078-20.528-1.25-30.639-3.303c-2.428-0.494-4.851-1.025-7.298-1.397c-0.558-0.082-1.64,0.324-1.72,0.678
			c-0.149,0.654,0.192,1.469,0.478,2.154c0.101,0.238,0.633,0.389,0.979,0.412c2.762,0.207,5.083,1.459,6.93,3.365
			c2.696,2.779,5.494,5.559,7.66,8.736c4.347,6.369,8.284,13.02,12.418,19.535c0.887,1.394,1.89,2.719,3.084,4.418
			C327.354,431.035,332.271,419.92,336.663,408.473z M356.33,441.992c0.158-0.029,0.32-0.062,0.478-0.092
			c0.426-0.598,0.875-1.182,1.27-1.801c4.27-6.711,8.406-13.512,12.826-20.121c3.986-5.963,8.656-11.303,15.281-14.566
			c0.94-0.465,1.752-1.246,2.522-1.984c0.307-0.299,0.334-0.885,0.488-1.342c-0.439-0.078-0.908-0.291-1.314-0.207
			c-1.508,0.311-2.992,0.742-4.492,1.092c-11.381,2.639-22.947,3.936-34.576,4.799c-1.965,0.143-3.916,0.461-6.107,0.728
			C347.336,419.887,351.834,430.939,356.33,441.992z M321.225,297.703c0.577,0.506,0.891,0.852,1.271,1.101
			c5.485,3.581,10.987,7.139,16.466,10.729c0.943,0.618,1.765,0.605,2.718,0.019c5.697-3.511,11.418-6.986,17.123-10.485
			c0.369-0.226,0.68-0.551,1.121-0.916c-0.709-0.568-1.213-1.067-1.799-1.43c-5.379-3.314-10.777-6.592-16.152-9.91
			c-1.181-0.727-2.248-0.662-3.405,0.041c-4.28,2.599-8.6,5.135-12.869,7.75C324.232,295.5,322.864,296.561,321.225,297.703z
			 M335.482,312.885c-0.411-0.316-0.587-0.475-0.784-0.6c-5.75-3.671-11.509-7.329-17.249-11.016
			c-0.925-0.596-1.704-0.243-2.478,0.213c-4.789,2.829-9.575,5.662-14.344,8.527c-0.947,0.568-1.806,1.281-2.767,1.975
			c0.255,0.348,0.389,0.596,0.581,0.78c0.576,0.55,1.119,1.155,1.774,1.593c5.283,3.532,10.574,7.057,15.921,10.492
			c0.453,0.291,1.482,0.152,1.99-0.178c4.982-3.229,9.916-6.535,14.848-9.84C333.778,314.293,334.507,313.645,335.482,312.885z
			 M320.704,327.805c0.629,0.511,1,0.869,1.423,1.145c5.134,3.344,10.296,6.641,15.398,10.033c1.491,0.991,2.808,1.02,4.225,0.001
			c4.896-3.516,9.799-7.026,14.707-10.528c0.648-0.463,1.336-0.869,2.006-1.303c-0.959-1.02-1.465-1.506-2.047-1.868
			c-5.082-3.163-10.166-6.322-15.289-9.419c-0.387-0.232-1.188-0.156-1.604,0.096c-5.165,3.119-10.3,6.286-15.427,9.469
			C322.995,326.114,321.968,326.916,320.704,327.805z M383.314,311.959c-0.562-0.494-0.963-0.96-1.461-1.266
			c-4.98-3.057-9.986-6.073-14.965-9.136c-1.27-0.781-2.434-0.694-3.66,0.058c-5.498,3.377-11.01,6.729-16.508,10.11
			c-0.494,0.306-0.893,0.764-1.42,1.221c0.428,0.382,0.703,0.709,1.049,0.923c5.043,3.127,10.1,6.236,15.148,9.358
			c1.377,0.853,2.717,0.817,4.086-0.02c5.346-3.272,10.701-6.52,16.039-9.803C382.201,313.048,382.674,312.515,383.314,311.959z
			 M346.449,283.307c0.748,0.812,1.322,1.759,2.158,2.295c5.123,3.279,10.299,6.481,15.488,9.656
			c0.383,0.232,1.154,0.258,1.52,0.025c5.248-3.348,10.486-6.715,15.66-10.177c1.525-1.022,1.418-1.721-0.158-2.715
			c-5.586-3.522-11.193-7.009-16.766-10.549c-0.664-0.421-1.104-0.382-1.742,0.022c-3.992,2.535-8.025,5.006-12.02,7.539
			c-1.062,0.676-2.064,1.459-3.025,2.273C347.168,282.014,346.947,282.561,346.449,283.307z M298.774,283.859
			c1.759,1.282,3.269,2.546,4.931,3.561c3.944,2.404,7.95,4.711,11.955,7.012c0.816,0.467,1.667,0.65,2.621,0.008
			c4.458-3.005,8.977-5.924,13.445-8.915c1.112-0.746,2.118-1.648,3.246-2.536c-0.286-0.271-0.432-0.459-0.619-0.576
			c-5.587-3.504-11.171-7.008-16.783-10.473c-0.301-0.186-0.932-0.174-1.232,0.02c-5.188,3.347-10.354,6.725-15.502,10.126
			C300.154,282.536,299.582,283.155,298.774,283.859z M405.418,325.234c-0.496-0.435-0.84-0.822-1.26-1.089
			c-5.02-3.181-10.043-6.362-15.105-9.472c-0.365-0.225-1.17-0.062-1.602,0.199c-4.24,2.572-8.457,5.193-12.662,7.828
			c-1.111,0.695-2.205,1.428-3.227,2.244c-2.166,1.731-2.137,2.686,0.031,4.377c0.26,0.203,0.516,0.408,0.795,0.582
			c3.578,2.221,7.191,4.39,10.73,6.673c1.451,0.936,2.715,0.914,4.152,0.033c5.424-3.326,10.883-6.595,16.313-9.909
			C404.207,326.32,404.736,325.787,405.418,325.234z M312.242,297.656c-6.336-3.906-12.221-7.542-18.125-11.143
			c-0.23-0.141-0.734-0.072-0.984,0.091c-5.608,3.646-11.202,7.314-16.788,10.995c-0.37,0.242-0.658,0.609-1.059,0.988
			c0.479,0.441,0.81,0.849,1.23,1.117c4.607,2.94,9.23,5.855,13.845,8.785c1.409,0.895,2.785,0.849,4.199-0.02
			C300.336,304.924,306.123,301.397,312.242,297.656z M320.925,269.438c0.282,0.196,0.393,0.284,0.514,0.357
			c5.866,3.582,11.726,7.175,17.619,10.712c0.36,0.217,1.105,0.153,1.488-0.081c5.792-3.525,11.551-7.098,17.315-10.667
			c0.248-0.153,0.449-0.378,0.768-0.65c-6.379-3.738-12.619-7.414-18.894-11.028c-0.353-0.202-1.091-0.051-1.489,0.195
			c-4.181,2.576-8.341,5.185-12.48,7.827C324.16,267.128,322.625,268.262,320.925,269.438z M344.238,342.432
			c0.102,0.22,0.119,0.333,0.182,0.382c4.992,3.746,10.148,7.229,15.969,9.573c0.617,0.248,1.629,0.102,2.215-0.257
			c5.75-3.519,11.453-7.119,17.164-10.705c0.33-0.208,0.617-0.486,1.031-0.817c-0.553-0.402-0.943-0.734-1.381-0.998
			c-4.721-2.863-9.459-5.701-14.17-8.583c-1.129-0.689-2.146-0.691-3.26,0.005c-5.395,3.379-10.807,6.728-16.199,10.109
			C345.213,341.502,344.732,342.015,344.238,342.432z M406.467,297.528c-0.273-0.206-0.441-0.359-0.631-0.472
			c-4.568-2.66-9.176-5.258-13.695-7.994c-3.287-1.988-6.404-1.932-9.607,0.137c-3.693,2.386-7.445,4.682-11.17,7.02
			c-0.783,0.49-1.553,0.996-2.434,1.561c0.355,0.262,0.559,0.438,0.789,0.574c5.66,3.387,11.336,6.747,16.975,10.172
			c1.088,0.662,1.949,0.703,3.037-0.018c5.109-3.385,10.266-6.698,15.404-10.041C405.556,298.193,405.957,297.89,406.467,297.528z
			 M276.561,325.245c0.197,0.288,0.234,0.389,0.307,0.439c6.046,4.179,12.09,8.36,18.161,12.506c0.241,0.164,0.811,0.094,1.095-0.08
			c4.661-2.879,9.306-5.783,13.935-8.709c0.678-0.427,1.264-0.996,1.932-1.533c-0.352-0.328-0.501-0.52-0.697-0.641
			c-5.942-3.73-11.871-7.486-17.871-11.123c-0.595-0.359-1.808-0.256-2.454,0.117c-4.136,2.382-8.199,4.887-12.267,7.383
			C277.956,324.061,277.306,324.668,276.561,325.245z M335.689,342.469c-6.449-3.996-12.525-7.784-18.645-11.503
			c-0.373-0.226-1.182-0.079-1.607,0.185c-4.895,3.035-9.755,6.125-14.619,9.209c-0.287,0.182-0.527,0.441-1.008,0.853
			c6.054,3.594,11.931,7.073,17.796,10.572c0.854,0.511,1.639,0.505,2.489-0.005C325.188,348.727,330.288,345.69,335.689,342.469z
			 M323.108,355.592c0.536,0.35,0.812,0.531,1.091,0.707c4.864,3.06,9.714,6.152,14.626,9.139c0.494,0.299,1.496,0.164,2.066-0.139
			c2.437-1.293,4.855-2.643,7.175-4.131c2.203-1.412,4.33-2.957,6.383-4.578c1.162-0.918,1.035-1.453-0.201-2.23
			c-2.854-1.798-5.711-3.585-8.574-5.365c-2.135-1.327-4.279-2.637-6.43-3.961C333.911,348.523,328.674,351.949,323.108,355.592z
			 M377.135,257.861c-0.522-0.429-0.875-0.795-1.293-1.055c-5.596-3.49-11.19-6.979-16.818-10.414
			c-0.357-0.218-1.092-0.157-1.48,0.066c-2.715,1.563-5.414,3.159-8.061,4.835c-1.299,0.821-2.5,1.806-3.693,2.78
			c-0.889,0.729-1.061,1.474,0.125,2.188c5.244,3.158,10.477,6.34,15.705,9.529c0.902,0.55,1.756,0.507,2.637-0.016
			c3.818-2.264,7.645-4.514,11.457-6.787C376.177,258.712,376.57,258.314,377.135,257.861z M356.236,454.137
			c-5.043,8.939-8.875,18.057-13.229,27.221c8.264-0.166,16.27,0.375,24.44-0.777C364.16,471.463,360.525,462.871,356.236,454.137z
			 M367.111,269.205c6.916,3.957,13.564,7.777,20.25,11.538c0.355,0.2,1.098,0.04,1.496-0.21c2.342-1.466,4.656-2.976,6.93-4.541
			c0.957-0.66,1.854-1.436,2.672-2.262c0.93-0.938,0.957-2.036,0.019-2.994c-0.715-0.731-1.482-1.46-2.35-1.985
			c-4.443-2.688-8.924-5.321-13.408-7.938c-0.301-0.174-0.855-0.238-1.131-0.078C376.853,263.471,372.142,266.25,367.111,269.205z
			 M292.979,280.963c0.509-0.21,1.057-0.363,1.529-0.643c4.794-2.827,9.577-5.668,14.351-8.527c0.515-0.309,0.973-0.732,1.406-1.154
			c0.787-0.76,0.773-1.562-0.022-2.31c-0.408-0.384-0.833-0.768-1.308-1.059c-3.466-2.132-6.934-4.262-10.44-6.323
			c-0.365-0.214-1.097-0.142-1.487,0.089c-1.978,1.16-3.917,2.386-5.831,3.647c-2.851,1.878-5.752,3.692-8.474,5.745
			c-2.386,1.797-2.356,3.194,0.114,4.816c2.924,1.92,6.026,3.567,9.061,5.317C292.194,280.743,292.572,280.818,292.979,280.963z
			 M322.355,454.647c-0.135,0.045-0.267,0.088-0.399,0.129c-3.671,8.641-7.345,17.281-11.027,25.949
			c3.314,1.018,21.912,0.707,24.528-0.449C331.084,471.723,326.719,463.184,322.355,454.647z M302.603,258.843
			c4.302,2.534,8.311,4.932,12.357,7.259c1.192,0.686,2.455,0.479,3.603-0.25c4.578-2.914,9.157-5.827,13.715-8.772
			c0.678-0.438,1.241-1.05,1.942-1.655c-0.602-0.498-0.995-0.908-1.464-1.201c-3.646-2.277-7.314-4.524-10.961-6.806
			c-1.034-0.648-1.989-0.636-2.994,0.047c-4.678,3.184-9.371,6.345-14.043,9.539C304.112,257.443,303.559,258.021,302.603,258.843z
			 M328.199,384.215c7.711,0,15.316,0,22.999,0c0-4.441,0-8.809,0-13.244c-7.699,0-15.306,0-22.999,0
			C328.199,375.404,328.199,379.775,328.199,384.215z M324.906,243.653c0.079,0.268,0.157,0.536,0.237,0.804
			c4.425,2.699,8.843,5.413,13.297,8.068c0.298,0.18,0.938,0.059,1.282-0.15c3.964-2.396,7.935-4.786,11.833-7.289
			c1.772-1.139,1.787-1.859-0.012-2.983c-4.164-2.602-8.418-5.06-12.659-7.537c-0.277-0.161-0.846-0.137-1.113,0.046
			c-3.52,2.397-7.014,4.833-10.504,7.275C326.464,242.451,325.695,243.063,324.906,243.653z M405.717,406.477
			c2.963-3.935,5.764-7.688,8.605-11.404c0.773-1.008,0.603-1.662-0.412-2.373c-4.373-3.061-8.707-6.18-13.066-9.26
			c-0.637-0.447-1.336-0.809-2.283-1.375c-1.383,4.977-2.732,9.734-3.978,14.518c-0.104,0.404,0.369,1.129,0.773,1.465
			C398.705,400.826,402.099,403.547,405.717,406.477z M280.739,383.215c-0.709,0.315-1.265,0.457-1.705,0.766
			c-4.015,2.816-8.008,5.66-12.011,8.496c-1.302,0.92-1.535,2.1-0.683,3.391c2.132,3.23,4.33,6.416,6.485,9.631
			c0.572,0.85,1.146,0.875,1.966,0.289c3.043-2.174,6.143-4.273,9.165-6.473c0.35-0.254,0.575-1.033,0.477-1.488
			c-0.656-3.105-1.382-6.199-2.152-9.277C281.844,386.797,281.282,385.078,280.739,383.215z M365.295,355.244
			c0.23,0.377,0.289,0.58,0.426,0.684c2.611,1.967,5.225,3.936,7.871,5.855c0.209,0.152,0.734,0.055,1.01-0.103
			c4.719-2.768,9.463-5.494,14.102-8.389c1.32-0.825,2.385-2.102,3.459-3.269c1.152-1.245,1.076-1.715-0.217-2.745
			c-0.768-0.613-1.602-1.145-2.369-1.758c-2.402-1.913-4.928-2.101-7.566-0.554c-2.705,1.587-5.416,3.166-8.084,4.81
			C371.058,351.541,368.236,353.377,365.295,355.244z M314.974,355.33c-6.426-3.854-12.506-7.52-18.621-11.125
			c-0.383-0.227-1.123-0.176-1.541,0.044c-2.11,1.108-4.203,2.261-6.235,3.505c-1.872,1.147-1.994,1.812-0.382,3.353
			c4.315,4.12,9.324,7.186,14.921,9.245c1.775,0.654,3.668,0.615,5.294-0.41C310.568,358.578,312.598,357.014,314.974,355.33z
			 M368.635,234.113c-0.348-0.448-0.43-0.626-0.568-0.721c-4.227-2.938-8.453-5.88-12.713-8.77c-0.279-0.19-0.906-0.107-1.25,0.079
			c-2.922,1.582-5.822,3.201-8.709,4.846c-0.711,0.404-1.35,0.939-2.447,1.717c0.67,0.47,1.115,0.805,1.582,1.105
			c4.053,2.6,8.103,5.206,12.184,7.766c0.342,0.213,0.99,0.304,1.312,0.123C361.552,238.265,365.045,236.207,368.635,234.113z
			 M362.478,243.056c0.549,0.45,0.949,0.841,1.41,1.145c4.48,2.965,8.959,5.936,13.469,8.86c0.932,0.606,1.951,1.132,2.996,1.505
			c0.711,0.252,1.596,0.391,2.305,0.206c3.27-0.852,3.924-2.702,1.74-5.218c-3.617-4.167-7.361-8.222-11.096-12.285
			c-0.23-0.25-0.955-0.352-1.256-0.183c-2.68,1.522-5.322,3.11-7.959,4.708C363.547,242.124,363.082,242.578,362.478,243.056z
			 M334.464,231.642c-3.173-1.862-6.062-3.662-9.067-5.245c-0.683-0.36-1.978-0.308-2.612,0.118
			c-3.724,2.496-7.344,5.147-10.979,7.773c-1.062,0.768-1.013,1.606,0.098,2.302c2.493,1.567,4.99,3.129,7.527,4.626
			c0.276,0.164,0.892-0.001,1.219-0.213c1.846-1.198,3.651-2.456,5.474-3.693C328.788,235.498,331.454,233.687,334.464,231.642z
			 M271.905,322.527c0.37-0.166,0.629-0.243,0.849-0.385c4.277-2.763,8.561-5.518,12.821-8.312c1.352-0.888,1.387-1.115,0.196-2.164
			c-3.877-3.418-8.162-6.242-12.845-8.438c-1.564-0.732-1.988-0.498-2.206,1.252C269.961,310.525,270.781,316.471,271.905,322.527z
			 M408.549,302.014c-5.676,2.753-10.688,5.83-15.564,9.641c4.322,3.353,8.621,6.235,13.465,8.197
			c1.451,0.587,2.377-0.087,2.453-1.743c0.158-3.506,0.207-7.021,0.172-10.528C409.056,305.834,408.756,304.09,408.549,302.014z
			 M306.388,238.294c-3.111,3.286-6.178,6.435-9.131,9.687c-1.059,1.167-1.891,2.55-2.742,3.888
			c-0.599,0.941-0.33,1.709,0.624,2.373c1.728,1.196,3.392,0.904,4.98-0.126c5.099-3.307,10.164-6.666,15.237-10.012
			c0.06-0.039,0.068-0.155,0.123-0.296C312.536,242.023,309.585,240.233,306.388,238.294z M289.776,284.177
			c-2.671-1.667-5.066-3.213-7.508-4.677c-3.542-2.121-4.776-1.674-5.976,2.274c-1.099,3.619-2.055,7.282-3.055,10.931
			c-0.111,0.414-0.094,0.863-0.136,1.297c0.136,0.121,0.273,0.243,0.407,0.365C278.868,291.012,284.226,287.654,289.776,284.177z
			 M391.668,283.805c4.332,2.637,8.31,5.096,12.338,7.472c0.586,0.345,1.637,0.63,2.043,0.339c0.436-0.312,0.572-1.359,0.484-2.04
			c-0.529-3.989-1.975-7.683-3.865-11.212c-0.4-0.747-0.908-0.97-1.697-0.463C397.984,279.82,394.976,281.709,391.668,283.805z
			 M274.027,329.77c0.292,0.928,0.42,1.67,0.747,2.309c1.525,2.997,3.058,5.994,4.696,8.93c0.587,1.049,1.438,1.966,2.251,2.866
			c1.346,1.488,1.991,1.602,3.829,0.763c0.85-0.388,1.676-0.836,2.475-1.32c2.892-1.746,3.042-2.17,0.357-4.117
			c-4.349-3.156-8.891-6.043-13.358-9.035C274.81,330.022,274.539,329.969,274.027,329.77z M366.838,363.557
			c-0.764-1.898-2.227-2.67-3.539-3.617c-1.666-1.201-3.367-1.344-5.088-0.23c-3.367,2.184-6.705,4.414-10.047,6.637
			c-0.152,0.102-0.225,0.326-0.449,0.668C354.431,367.113,360.677,365.973,366.838,363.557z M331.117,367.018
			c0.063-0.15,0.128-0.301,0.191-0.453c-0.363-0.334-0.688-0.725-1.095-0.996c-2.84-1.891-5.631-3.867-8.567-5.596
			c-2.995-1.762-6.225-0.91-8.358,1.9c-0.576,0.762-0.527,1.412,0.302,1.861c0.691,0.375,1.436,0.734,2.199,0.885
			c3.117,0.617,6.24,1.199,9.377,1.703C327.136,366.639,329.132,366.793,331.117,367.018z M389.441,340.47
			c1.506,0.981,2.711,1.788,3.939,2.56c2.648,1.672,3.74,1.606,5.539-0.973c1.973-2.832,3.654-5.869,5.43-8.838
			c0.242-0.404,0.295-0.922,0.434-1.388c-0.113-0.112-0.229-0.225-0.342-0.337C399.527,334.434,394.615,337.373,389.441,340.47z
			 M339.864,222.16c-2.275,0.186-4.509,0.362-6.74,0.556c-0.32,0.029-0.634,0.152-0.953,0.224c-0.6,0.136-1.111,0.315-0.767,1.117
			c0.629,1.466,5.796,4.579,7.382,4.425c0.186-0.018,0.388-0.04,0.541-0.129c2.287-1.333,4.626-2.589,6.824-4.055
			c1.045-0.698,0.824-1.419-0.469-1.612C343.748,222.398,341.785,222.323,339.864,222.16z M392.351,261.479
			c0.002-2.271-1.123-3.719-2.467-4.965c-0.375-0.348-1.504-0.477-1.779-0.2c-0.398,0.403-0.652,1.415-0.418,1.9
			C388.568,260.036,390.273,260.838,392.351,261.479z M286.879,262.336c0.104,0.09,0.206,0.18,0.31,0.27
			c2.14-0.872,4.06-2.1,5.506-3.969c0.18-0.232-0.065-1.08-0.371-1.334c-0.47-0.391-1.121-0.97-1.789-0.1
			c-0.966,1.263-2,2.473-2.96,3.74C287.268,261.351,287.108,261.869,286.879,262.336z"/>
		<path fill-rule="evenodd" clip-rule="evenodd" fill="#0D603F" d="M393.615,381.879c-0.51,2.609-0.908,4.887-1.408,7.145
			c-0.447,2.008-1.078,3.975-1.48,5.992c-0.209,1.043-0.758,1.4-1.686,1.736c-14.893,5.348-30.35,6.852-46.031,6.781
			c-9.137-0.043-18.297,0.164-27.4-0.443c-5.932-0.393-11.784-2.018-17.659-3.162c-2.2-0.428-4.39-0.965-6.529-1.629
			c-0.762-0.236-1.657-0.854-1.983-1.537c-2.026-4.242-3.331-8.73-4.1-13.371c-0.043-0.258,0.037-0.535,0.085-1.09
			c2.004,0.371,3.911,0.721,5.816,1.078c7.121,1.336,14.212,2.879,21.373,3.943c5.084,0.758,10.258,0.992,15.4,1.24
			c11.671,0.557,23.333,0.252,34.965-0.836c9.336-0.873,18.561-2.387,27.557-5.123C391.408,382.34,392.312,382.184,393.615,381.879z
			"/>
		<path fill-rule="evenodd" clip-rule="evenodd" fill="#0D603F" d="M384.426,424.82c-2.85,5.647-4.945,11.404-6.389,17.365
			c-2.541,10.498-4.91,21.037-7.35,31.561c-0.111,0.478-0.234,0.959-0.404,1.668c-0.281-0.572-0.477-0.932-0.635-1.305
			c-3.52-8.314-7.021-16.637-10.568-24.938c-0.387-0.9-0.377-1.6,0.1-2.478c5.162-9.518,10.498-18.926,17.236-27.445
			c1.824-2.307,3.879-4.443,5.953-6.537c2.43-2.455,5.604-3.17,8.922-3.609c6.258-0.828,13.889,7.699,11.254,15.238
			c-1.084,3.098-3.439,4.941-6.326,6.186c-1.426,0.613-2.793,0.082-4.008-0.66c-2.119-1.291-4.176-2.682-6.258-4.033
			C385.488,425.531,385.027,425.219,384.426,424.82z"/>
		<path fill-rule="evenodd" clip-rule="evenodd" fill="#0D603F" d="M340.226,413.975c0.793,1.861,1.563,3.6,2.278,5.359
			c3.662,9.014,7.32,18.027,10.936,27.061c0.236,0.584,0.35,1.435,0.1,1.961c-4.264,8.957-8.59,17.879-12.919,26.805
			c-0.383,0.789-0.885,1.52-1.475,2.516c-0.435-0.643-0.818-1.086-1.068-1.596c-4.51-9.148-9.011-18.297-13.478-27.469
			c-0.189-0.389-0.169-1.023,0.011-1.43c4.28-9.717,8.584-19.42,12.929-29.109c0.552-1.23,1.347-2.353,2.049-3.514
			C339.698,414.375,339.914,414.252,340.226,413.975z"/>
		<path fill-rule="evenodd" clip-rule="evenodd" fill="#0D603F" d="M307.901,473.912c-0.612-2.912-1.243-5.822-1.837-8.74
			c-1.944-9.574-3.633-19.215-6.745-28.506c-1.318-3.936-2.963-7.762-4.551-11.875c-0.598,0.451-0.99,0.736-1.373,1.033
			c-1.702,1.316-3.321,2.758-5.123,3.918c-2.418,1.559-4.853,1.336-7.183-0.408c-4.562-3.414-5.947-8.898-3.408-13.695
			c2.614-4.941,8.439-7.244,13.654-5.395c2.747,0.973,5.031,2.672,7.119,4.652c5.368,5.092,9.287,11.262,12.814,17.672
			c2.838,5.162,5.395,10.48,8.041,15.748c0.203,0.402,0.317,1.027,0.152,1.41c-3.117,7.158-6.268,14.303-9.457,21.43
			c-0.445,0.998-1.133,1.885-1.709,2.824C308.165,473.957,308.032,473.936,307.901,473.912z"/>
		<path fill-rule="evenodd" clip-rule="evenodd" fill="#0D603F" d="M336.663,408.473c-4.393,11.447-9.31,22.562-14.873,33.902
			c-1.194-1.699-2.197-3.024-3.084-4.418c-4.134-6.516-8.071-13.166-12.418-19.535c-2.166-3.178-4.964-5.957-7.66-8.736
			c-1.847-1.906-4.168-3.158-6.93-3.365c-0.347-0.023-0.879-0.174-0.979-0.412c-0.285-0.686-0.627-1.5-0.478-2.154
			c0.08-0.353,1.162-0.76,1.72-0.678c2.447,0.371,4.87,0.902,7.298,1.397c10.11,2.053,20.297,3.381,30.639,3.303
			c1.866-0.014,3.736,0.213,5.603,0.355C335.814,408.152,336.117,408.309,336.663,408.473z"/>
		<path fill-rule="evenodd" clip-rule="evenodd" fill="#0D603F" d="M356.33,441.992c-4.496-11.053-8.994-22.105-13.625-33.494
			c2.191-0.268,4.143-0.586,6.107-0.728c11.629-0.863,23.195-2.16,34.576-4.799c1.5-0.35,2.984-0.781,4.492-1.092
			c0.406-0.084,0.875,0.129,1.314,0.207c-0.154,0.457-0.182,1.043-0.488,1.342c-0.77,0.738-1.582,1.52-2.522,1.984
			c-6.625,3.264-11.295,8.604-15.281,14.566c-4.42,6.609-8.557,13.41-12.826,20.121c-0.395,0.619-0.844,1.203-1.27,1.801
			C356.65,441.93,356.488,441.963,356.33,441.992z"/>
		<path fill-rule="evenodd" clip-rule="evenodd" fill="#0D603F" d="M321.225,297.703c1.639-1.143,3.007-2.203,4.474-3.102
			c4.27-2.615,8.589-5.151,12.869-7.75c1.157-0.703,2.224-0.767,3.405-0.041c5.375,3.318,10.773,6.596,16.152,9.91
			c0.586,0.362,1.09,0.861,1.799,1.43c-0.441,0.365-0.752,0.69-1.121,0.916c-5.705,3.499-11.426,6.975-17.123,10.485
			c-0.954,0.587-1.775,0.6-2.718-0.019c-5.479-3.591-10.98-7.148-16.466-10.729C322.115,298.556,321.802,298.209,321.225,297.703z"
			/>
		<path fill-rule="evenodd" clip-rule="evenodd" fill="#0D603F" d="M335.482,312.885c-0.975,0.76-1.704,1.408-2.508,1.947
			c-4.932,3.305-9.865,6.61-14.848,9.84c-0.508,0.33-1.537,0.469-1.99,0.178c-5.347-3.436-10.638-6.96-15.921-10.492
			c-0.655-0.438-1.198-1.043-1.774-1.593c-0.192-0.185-0.326-0.433-0.581-0.78c0.962-0.693,1.82-1.406,2.767-1.975
			c4.769-2.865,9.555-5.698,14.344-8.527c0.773-0.456,1.553-0.809,2.478-0.213c5.74,3.686,11.499,7.345,17.249,11.016
			C334.895,312.41,335.071,312.568,335.482,312.885z"/>
		<path fill-rule="evenodd" clip-rule="evenodd" fill="#0D603F" d="M320.704,327.805c1.264-0.889,2.291-1.69,3.392-2.375
			c5.127-3.183,10.262-6.35,15.427-9.469c0.416-0.252,1.217-0.328,1.604-0.096c5.123,3.097,10.207,6.256,15.289,9.419
			c0.582,0.362,1.088,0.849,2.047,1.868c-0.67,0.434-1.357,0.84-2.006,1.303c-4.908,3.502-9.811,7.013-14.707,10.528
			c-1.418,1.018-2.734,0.99-4.225-0.001c-5.102-3.393-10.264-6.69-15.398-10.033C321.704,328.674,321.333,328.315,320.704,327.805z"
			/>
		<path fill-rule="evenodd" clip-rule="evenodd" fill="#0D603F" d="M383.314,311.959c-0.641,0.556-1.113,1.089-1.691,1.445
			c-5.338,3.283-10.693,6.531-16.039,9.803c-1.369,0.838-2.709,0.873-4.086,0.02c-5.049-3.122-10.105-6.231-15.148-9.358
			c-0.346-0.214-0.621-0.541-1.049-0.923c0.527-0.457,0.926-0.915,1.42-1.221c5.498-3.382,11.01-6.733,16.508-10.11
			c1.227-0.752,2.391-0.839,3.66-0.058c4.978,3.062,9.984,6.079,14.965,9.136C382.351,310.999,382.752,311.465,383.314,311.959z"/>
		<path fill-rule="evenodd" clip-rule="evenodd" fill="#0D603F" d="M346.449,283.307c0.498-0.746,0.719-1.293,1.115-1.629
			c0.961-0.814,1.963-1.598,3.025-2.273c3.994-2.533,8.027-5.004,12.02-7.539c0.639-0.404,1.078-0.443,1.742-0.022
			c5.572,3.54,11.18,7.026,16.766,10.549c1.576,0.994,1.684,1.692,0.158,2.715c-5.174,3.462-10.412,6.829-15.66,10.177
			c-0.365,0.232-1.137,0.207-1.52-0.025c-5.189-3.176-10.365-6.377-15.488-9.656C347.771,285.065,347.197,284.119,346.449,283.307z"
			/>
		<path fill-rule="evenodd" clip-rule="evenodd" fill="#0D603F" d="M298.774,283.859c0.809-0.704,1.38-1.323,2.061-1.774
			c5.148-3.401,10.315-6.779,15.502-10.126c0.301-0.193,0.932-0.205,1.232-0.02c5.612,3.465,11.196,6.969,16.783,10.473
			c0.188,0.117,0.333,0.305,0.619,0.576c-1.128,0.888-2.134,1.79-3.246,2.536c-4.469,2.991-8.987,5.91-13.445,8.915
			c-0.954,0.643-1.805,0.459-2.621-0.008c-4.005-2.301-8.011-4.607-11.955-7.012C302.042,286.405,300.532,285.142,298.774,283.859z"
			/>
		<path fill-rule="evenodd" clip-rule="evenodd" fill="#0D603F" d="M405.418,325.234c-0.682,0.553-1.211,1.086-1.834,1.467
			c-5.43,3.315-10.889,6.583-16.313,9.909c-1.437,0.881-2.701,0.903-4.152-0.033c-3.539-2.283-7.152-4.452-10.73-6.673
			c-0.279-0.174-0.535-0.379-0.795-0.582c-2.168-1.691-2.197-2.645-0.031-4.377c1.022-0.816,2.115-1.549,3.227-2.244
			c4.205-2.635,8.422-5.256,12.662-7.828c0.432-0.262,1.236-0.424,1.602-0.199c5.062,3.109,10.086,6.291,15.105,9.472
			C404.578,324.412,404.922,324.799,405.418,325.234z"/>
		<path fill-rule="evenodd" clip-rule="evenodd" fill="#0D603F" d="M312.242,297.656c-6.119,3.74-11.906,7.268-17.682,10.814
			c-1.414,0.868-2.79,0.914-4.199,0.02c-4.614-2.93-9.237-5.845-13.845-8.785c-0.421-0.268-0.752-0.676-1.23-1.117
			c0.4-0.379,0.689-0.746,1.059-0.988c5.586-3.681,11.18-7.35,16.788-10.995c0.25-0.163,0.754-0.232,0.984-0.091
			C300.022,290.114,305.906,293.75,312.242,297.656z"/>
		<path fill-rule="evenodd" clip-rule="evenodd" fill="#0D603F" d="M320.925,269.438c1.7-1.176,3.235-2.31,4.84-3.334
			c4.14-2.643,8.3-5.251,12.48-7.827c0.398-0.246,1.137-0.397,1.489-0.195c6.275,3.614,12.515,7.29,18.894,11.028
			c-0.318,0.272-0.52,0.496-0.768,0.65c-5.764,3.569-11.523,7.142-17.315,10.667c-0.383,0.234-1.128,0.298-1.488,0.081
			c-5.894-3.537-11.753-7.13-17.619-10.712C321.318,269.722,321.207,269.634,320.925,269.438z"/>
		<path fill-rule="evenodd" clip-rule="evenodd" fill="#0D603F" d="M344.238,342.432c0.494-0.417,0.975-0.93,1.551-1.291
			c5.392-3.382,10.805-6.73,16.199-10.109c1.113-0.696,2.131-0.694,3.26-0.005c4.711,2.882,9.449,5.72,14.17,8.583
			c0.438,0.264,0.828,0.596,1.381,0.998c-0.414,0.331-0.701,0.609-1.031,0.817c-5.711,3.586-11.414,7.187-17.164,10.705
			c-0.586,0.358-1.598,0.505-2.215,0.257c-5.82-2.345-10.977-5.827-15.969-9.573C344.357,342.765,344.34,342.651,344.238,342.432z"
			/>
		<path fill-rule="evenodd" clip-rule="evenodd" fill="#0D603F" d="M406.467,297.528c-0.51,0.361-0.91,0.665-1.332,0.939
			c-5.139,3.343-10.295,6.656-15.404,10.041c-1.088,0.721-1.949,0.68-3.037,0.018c-5.639-3.425-11.314-6.785-16.975-10.172
			c-0.23-0.136-0.434-0.312-0.789-0.574c0.881-0.565,1.65-1.07,2.434-1.561c3.725-2.338,7.477-4.634,11.17-7.02
			c3.203-2.068,6.32-2.125,9.607-0.137c4.52,2.736,9.127,5.334,13.695,7.994C406.025,297.169,406.193,297.322,406.467,297.528z"/>
		<path fill-rule="evenodd" clip-rule="evenodd" fill="#0D603F" d="M276.561,325.245c0.745-0.577,1.395-1.185,2.14-1.642
			c4.067-2.496,8.131-5.001,12.267-7.383c0.647-0.373,1.859-0.477,2.454-0.117c6,3.637,11.929,7.393,17.871,11.123
			c0.196,0.121,0.346,0.312,0.697,0.641c-0.668,0.537-1.254,1.106-1.932,1.533c-4.629,2.926-9.273,5.83-13.935,8.709
			c-0.283,0.174-0.854,0.244-1.095,0.08c-6.071-4.146-12.115-8.327-18.161-12.506C276.795,325.634,276.758,325.533,276.561,325.245z
			"/>
		<path fill-rule="evenodd" clip-rule="evenodd" fill="#0D603F" d="M335.689,342.469c-5.4,3.222-10.501,6.258-15.594,9.311
			c-0.851,0.51-1.635,0.516-2.489,0.005c-5.865-3.499-11.742-6.979-17.796-10.572c0.48-0.411,0.721-0.671,1.008-0.853
			c4.864-3.084,9.725-6.174,14.619-9.209c0.426-0.264,1.234-0.41,1.607-0.185C323.163,334.685,329.239,338.473,335.689,342.469z"/>
		<path fill-rule="evenodd" clip-rule="evenodd" fill="#0D603F" d="M323.108,355.592c5.566-3.643,10.804-7.068,16.136-10.559
			c2.151,1.324,4.295,2.634,6.43,3.961c2.863,1.78,5.721,3.567,8.574,5.365c1.236,0.777,1.363,1.312,0.201,2.23
			c-2.053,1.621-4.18,3.166-6.383,4.578c-2.32,1.488-4.738,2.838-7.175,4.131c-0.57,0.303-1.572,0.438-2.066,0.139
			c-4.912-2.986-9.762-6.078-14.626-9.139C323.919,356.123,323.644,355.941,323.108,355.592z"/>
		<path fill-rule="evenodd" clip-rule="evenodd" fill="#0D603F" d="M377.135,257.861c-0.565,0.453-0.957,0.851-1.422,1.127
			c-3.812,2.273-7.639,4.523-11.457,6.787c-0.881,0.522-1.734,0.565-2.637,0.016c-5.228-3.19-10.461-6.371-15.705-9.529
			c-1.186-0.714-1.014-1.459-0.125-2.188c1.193-0.975,2.395-1.959,3.693-2.78c2.647-1.677,5.346-3.272,8.061-4.835
			c0.389-0.223,1.123-0.284,1.48-0.066c5.629,3.435,11.223,6.924,16.818,10.414C376.26,257.066,376.613,257.433,377.135,257.861z"/>
		<path fill-rule="evenodd" clip-rule="evenodd" fill="#0D603F" d="M356.236,454.137c4.289,8.734,7.924,17.326,11.211,26.443
			c-8.17,1.152-16.176,0.611-24.44,0.777C347.361,472.193,351.193,463.076,356.236,454.137z"/>
		<path fill-rule="evenodd" clip-rule="evenodd" fill="#0D603F" d="M367.111,269.205c5.031-2.955,9.742-5.734,14.478-8.471
			c0.275-0.16,0.83-0.096,1.131,0.078c4.484,2.617,8.965,5.25,13.408,7.938c0.867,0.525,1.635,1.254,2.35,1.985
			c0.938,0.958,0.91,2.057-0.019,2.994c-0.818,0.826-1.715,1.602-2.672,2.262c-2.273,1.565-4.588,3.075-6.93,4.541
			c-0.398,0.25-1.141,0.41-1.496,0.21C380.676,276.982,374.027,273.162,367.111,269.205z"/>
		<path fill-rule="evenodd" clip-rule="evenodd" fill="#0D603F" d="M292.979,280.963c-0.407-0.145-0.785-0.22-1.101-0.401
			c-3.035-1.75-6.138-3.398-9.061-5.317c-2.471-1.622-2.5-3.02-0.114-4.816c2.722-2.053,5.623-3.867,8.474-5.745
			c1.914-1.262,3.853-2.487,5.831-3.647c0.391-0.23,1.122-0.303,1.487-0.089c3.507,2.061,6.975,4.191,10.44,6.323
			c0.475,0.291,0.899,0.675,1.308,1.059c0.796,0.748,0.809,1.551,0.022,2.31c-0.434,0.422-0.892,0.846-1.406,1.154
			c-4.773,2.859-9.557,5.7-14.351,8.527C294.035,280.6,293.488,280.753,292.979,280.963z"/>
		<path fill-rule="evenodd" clip-rule="evenodd" fill="#0D603F" d="M322.355,454.647c4.364,8.537,8.729,17.076,13.102,25.629
			c-2.616,1.156-21.214,1.467-24.528,0.449c3.683-8.668,7.356-17.309,11.027-25.949C322.088,454.734,322.22,454.691,322.355,454.647
			z"/>
		<path fill-rule="evenodd" clip-rule="evenodd" fill="#0D603F" d="M302.603,258.843c0.956-0.822,1.509-1.399,2.155-1.841
			c4.672-3.193,9.365-6.355,14.043-9.539c1.005-0.683,1.96-0.694,2.994-0.047c3.647,2.282,7.315,4.529,10.961,6.806
			c0.469,0.293,0.862,0.703,1.464,1.201c-0.701,0.606-1.265,1.218-1.942,1.655c-4.558,2.945-9.137,5.858-13.715,8.772
			c-1.148,0.729-2.41,0.936-3.603,0.25C310.913,263.774,306.905,261.377,302.603,258.843z"/>
		<path fill-rule="evenodd" clip-rule="evenodd" fill="#0D603F" d="M328.199,384.215c0-4.439,0-8.81,0-13.244
			c7.693,0,15.3,0,22.999,0c0,4.436,0,8.803,0,13.244C343.515,384.215,335.91,384.215,328.199,384.215z"/>
		<path fill-rule="evenodd" clip-rule="evenodd" fill="#0D603F" d="M324.906,243.653c0.788-0.59,1.558-1.203,2.362-1.765
			c3.49-2.441,6.984-4.878,10.504-7.275c0.268-0.183,0.836-0.208,1.113-0.046c4.241,2.477,8.495,4.935,12.659,7.537
			c1.799,1.124,1.783,1.844,0.012,2.983c-3.898,2.502-7.869,4.892-11.833,7.289c-0.345,0.209-0.984,0.33-1.282,0.15
			c-4.454-2.655-8.872-5.369-13.297-8.068C325.064,244.189,324.986,243.921,324.906,243.653z"/>
		<path fill-rule="evenodd" clip-rule="evenodd" fill="#0D603F" d="M405.717,406.477c-3.617-2.93-7.012-5.65-10.361-8.43
			c-0.404-0.336-0.877-1.06-0.773-1.465c1.246-4.783,2.596-9.541,3.978-14.518c0.947,0.566,1.647,0.928,2.283,1.375
			c4.359,3.08,8.693,6.199,13.066,9.26c1.016,0.711,1.186,1.365,0.412,2.373C411.48,398.789,408.679,402.541,405.717,406.477z"/>
		<path fill-rule="evenodd" clip-rule="evenodd" fill="#0D603F" d="M280.739,383.215c0.544,1.863,1.105,3.582,1.542,5.334
			c0.771,3.078,1.496,6.172,2.152,9.277c0.099,0.455-0.127,1.234-0.477,1.488c-3.022,2.199-6.122,4.299-9.165,6.473
			c-0.82,0.586-1.394,0.561-1.966-0.289c-2.155-3.215-4.353-6.4-6.485-9.631c-0.853-1.291-0.619-2.471,0.683-3.391
			c4.003-2.836,7.996-5.68,12.011-8.496C279.474,383.672,280.03,383.529,280.739,383.215z"/>
		<path fill-rule="evenodd" clip-rule="evenodd" fill="#0D603F" d="M365.295,355.244c2.941-1.867,5.764-3.703,8.631-5.469
			c2.668-1.644,5.379-3.223,8.084-4.81c2.639-1.547,5.164-1.359,7.566,0.554c0.768,0.613,1.602,1.144,2.369,1.758
			c1.293,1.03,1.369,1.5,0.217,2.745c-1.074,1.167-2.139,2.443-3.459,3.269c-4.639,2.895-9.383,5.621-14.102,8.389
			c-0.275,0.158-0.801,0.256-1.01,0.103c-2.647-1.92-5.26-3.889-7.871-5.855C365.584,355.824,365.525,355.621,365.295,355.244z"/>
		<path fill-rule="evenodd" clip-rule="evenodd" fill="#0D603F" d="M314.974,355.33c-2.376,1.684-4.406,3.248-6.564,4.611
			c-1.626,1.025-3.519,1.064-5.294,0.41c-5.597-2.059-10.606-5.125-14.921-9.245c-1.612-1.54-1.49-2.206,0.382-3.353
			c2.032-1.244,4.125-2.396,6.235-3.505c0.418-0.22,1.158-0.271,1.541-0.044C302.468,347.811,308.548,351.477,314.974,355.33z"/>
		<path fill-rule="evenodd" clip-rule="evenodd" fill="#0D603F" d="M368.635,234.113c-3.59,2.094-7.082,4.152-10.609,6.144
			c-0.322,0.182-0.971,0.091-1.312-0.123c-4.08-2.561-8.131-5.167-12.184-7.766c-0.467-0.3-0.912-0.635-1.582-1.105
			c1.098-0.778,1.736-1.313,2.447-1.717c2.887-1.645,5.787-3.265,8.709-4.846c0.344-0.186,0.971-0.269,1.25-0.079
			c4.26,2.89,8.486,5.832,12.713,8.77C368.205,233.487,368.287,233.665,368.635,234.113z"/>
		<path fill-rule="evenodd" clip-rule="evenodd" fill="#0D603F" d="M362.478,243.056c0.604-0.478,1.068-0.932,1.609-1.261
			c2.637-1.598,5.279-3.186,7.959-4.708c0.301-0.17,1.025-0.067,1.256,0.183c3.734,4.062,7.479,8.118,11.096,12.285
			c2.184,2.516,1.529,4.367-1.74,5.218c-0.709,0.185-1.594,0.046-2.305-0.206c-1.045-0.373-2.064-0.898-2.996-1.505
			c-4.51-2.924-8.988-5.895-13.469-8.86C363.427,243.897,363.027,243.506,362.478,243.056z"/>
		<path fill-rule="evenodd" clip-rule="evenodd" fill="#0D603F" d="M334.464,231.642c-3.01,2.045-5.676,3.855-8.341,5.667
			c-1.822,1.236-3.628,2.495-5.474,3.693c-0.327,0.212-0.942,0.377-1.219,0.213c-2.537-1.496-5.034-3.059-7.527-4.626
			c-1.11-0.696-1.159-1.534-0.098-2.302c3.635-2.626,7.255-5.277,10.979-7.773c0.635-0.426,1.93-0.478,2.612-0.118
			C328.402,227.98,331.291,229.78,334.464,231.642z"/>
		<path fill-rule="evenodd" clip-rule="evenodd" fill="#0D603F" d="M271.905,322.527c-1.123-6.057-1.943-12.002-1.185-18.047
			c0.218-1.75,0.643-1.984,2.206-1.252c4.683,2.195,8.968,5.02,12.845,8.438c1.19,1.049,1.156,1.276-0.196,2.164
			c-4.26,2.794-8.544,5.55-12.821,8.312C272.533,322.284,272.275,322.361,271.905,322.527z"/>
		<path fill-rule="evenodd" clip-rule="evenodd" fill="#0D603F" d="M408.549,302.014c0.207,2.076,0.508,3.82,0.525,5.566
			c0.035,3.508-0.014,7.022-0.172,10.528c-0.076,1.656-1.002,2.33-2.453,1.743c-4.844-1.962-9.143-4.844-13.465-8.197
			C397.861,307.844,402.873,304.767,408.549,302.014z"/>
		<path fill-rule="evenodd" clip-rule="evenodd" fill="#0D603F" d="M306.388,238.294c3.197,1.938,6.148,3.729,9.092,5.514
			c-0.055,0.141-0.064,0.257-0.123,0.296c-5.073,3.345-10.139,6.705-15.237,10.012c-1.589,1.03-3.253,1.322-4.98,0.126
			c-0.954-0.664-1.223-1.432-0.624-2.373c0.852-1.338,1.684-2.721,2.742-3.888C300.21,244.73,303.277,241.58,306.388,238.294z"/>
		<path fill-rule="evenodd" clip-rule="evenodd" fill="#0D603F" d="M289.776,284.177c-5.55,3.478-10.907,6.835-16.267,10.19
			c-0.134-0.122-0.272-0.244-0.407-0.365c0.042-0.434,0.024-0.883,0.136-1.297c1-3.648,1.956-7.311,3.055-10.931
			c1.199-3.948,2.434-4.396,5.976-2.274C284.71,280.964,287.105,282.51,289.776,284.177z"/>
		<path fill-rule="evenodd" clip-rule="evenodd" fill="#0D603F" d="M391.668,283.805c3.309-2.096,6.316-3.984,9.303-5.904
			c0.789-0.507,1.297-0.284,1.697,0.463c1.891,3.529,3.336,7.223,3.865,11.212c0.088,0.681-0.049,1.727-0.484,2.04
			c-0.406,0.291-1.457,0.006-2.043-0.339C399.978,288.9,396,286.441,391.668,283.805z"/>
		<path fill-rule="evenodd" clip-rule="evenodd" fill="#0D603F" d="M274.027,329.77c0.513,0.199,0.783,0.252,0.997,0.394
			c4.468,2.992,9.01,5.879,13.358,9.035c2.685,1.947,2.534,2.371-0.357,4.117c-0.799,0.484-1.625,0.933-2.475,1.32
			c-1.838,0.84-2.483,0.726-3.829-0.763c-0.814-0.9-1.664-1.817-2.251-2.866c-1.639-2.936-3.171-5.933-4.696-8.93
			C274.447,331.439,274.319,330.697,274.027,329.77z"/>
		<path fill-rule="evenodd" clip-rule="evenodd" fill="#0D603F" d="M366.838,363.557c-6.16,2.416-12.406,3.557-19.123,3.457
			c0.225-0.342,0.297-0.566,0.449-0.668c3.342-2.223,6.68-4.453,10.047-6.637c1.721-1.113,3.422-0.971,5.088,0.23
			C364.611,360.887,366.074,361.658,366.838,363.557z"/>
		<path fill-rule="evenodd" clip-rule="evenodd" fill="#0D603F" d="M331.117,367.018c-1.985-0.225-3.982-0.379-5.951-0.695
			c-3.137-0.504-6.26-1.086-9.377-1.703c-0.764-0.15-1.508-0.51-2.199-0.885c-0.829-0.449-0.878-1.1-0.302-1.861
			c2.134-2.81,5.363-3.662,8.358-1.9c2.936,1.728,5.727,3.705,8.567,5.596c0.406,0.271,0.731,0.662,1.095,0.996
			C331.245,366.717,331.181,366.867,331.117,367.018z"/>
		<path fill-rule="evenodd" clip-rule="evenodd" fill="#0D603F" d="M389.441,340.47c5.174-3.097,10.086-6.036,15-8.976
			c0.113,0.112,0.228,0.225,0.342,0.337c-0.139,0.466-0.191,0.983-0.434,1.388c-1.775,2.969-3.457,6.006-5.43,8.838
			c-1.799,2.579-2.891,2.645-5.539,0.973C392.152,342.258,390.947,341.451,389.441,340.47z"/>
		<path fill-rule="evenodd" clip-rule="evenodd" fill="#0D603F" d="M339.864,222.16c1.921,0.163,3.884,0.238,5.818,0.524
			c1.293,0.193,1.514,0.915,0.469,1.612c-2.197,1.466-4.537,2.723-6.824,4.055c-0.153,0.089-0.355,0.112-0.541,0.129
			c-1.586,0.153-6.753-2.96-7.382-4.425c-0.345-0.802,0.167-0.981,0.767-1.117c0.319-0.072,0.633-0.195,0.953-0.224
			C335.355,222.522,337.588,222.346,339.864,222.16z"/>
		<path fill-rule="evenodd" clip-rule="evenodd" fill="#0D603F" d="M392.351,261.479c-2.078-0.641-3.783-1.442-4.664-3.266
			c-0.234-0.484,0.02-1.496,0.418-1.9c0.275-0.276,1.404-0.147,1.779,0.2C391.228,257.76,392.353,259.207,392.351,261.479z"/>
		<path fill-rule="evenodd" clip-rule="evenodd" fill="#0D603F" d="M286.879,262.336c0.229-0.467,0.389-0.985,0.695-1.393
			c0.96-1.268,1.994-2.478,2.96-3.74c0.668-0.87,1.319-0.291,1.789,0.1c0.306,0.254,0.551,1.102,0.371,1.334
			c-1.445,1.869-3.366,3.097-5.506,3.969C287.085,262.516,286.983,262.426,286.879,262.336z"/>
	</g>
	<path id="top-stripes_1_" fill="#EF301F" d="M444.648,160.575L341.64,101.131l0,0c-0.137-0.136-0.272-0.136-0.408-0.136l0,0l0,0
		h-0.135h-0.136c-0.136,0-0.272,0-0.407,0c0,0,0,0-0.136,0h-0.136c-0.136,0-0.406,0-0.543,0l0,0l0,0l0,0
		c-0.135,0-0.271,0.136-0.406,0.136l0,0l-101.381,58.493c-1.221,0.679-1.628,2.172-0.949,3.393c0.678,1.223,2.307,1.629,3.393,0.951
		l90.115-51.98l-38.272,48.858c-0.814,1.086-0.679,2.714,0.406,3.528c1.086,0.814,2.715,0.679,3.529-0.406l41.801-53.337v52.114
		c0,1.357,1.086,2.579,2.578,2.579c1.493,0,2.579-1.085,2.579-2.579v-52.114l41.801,53.337c0.543,0.678,1.221,0.949,2.035,0.949
		c0.543,0,1.086-0.136,1.494-0.543c1.084-0.814,1.221-2.442,0.406-3.528l-38.271-48.858l91.744,52.929
		c0.406,0.271,0.814,0.271,1.221,0.271c0.815,0,1.764-0.407,2.172-1.221C446.277,162.882,445.869,161.253,444.648,160.575
		L444.648,160.575z"/>
	<g id="letter-left_1_">
		<path fill="#EF301F" d="M275.393,522.476l3.027-2.119l13.493,9.631l-2.9,2.031l-2.688-2.04l-4.715,3.302l0.976,3.239l-2.799,1.959
			L275.393,522.476z M280.794,530.565l3.278-2.296l-5.145-3.905L280.794,530.565z"/>
	</g>
	<g id="letter-right_1_">
		<path fill="#EF301F" d="M394.095,531.957l-3.109-2.178l8.684-3.641l0.479-9.022l3.197,2.238l-0.637,5.768l5.266-2.525l3.092,2.165
			l-8.241,3.432l-0.479,9.54l-3.249-2.274l0.625-6.068L394.095,531.957z"/>
	</g>
	<g id="nodeschool-banner_1_">
		<path fill="#EF301F" d="M236.655,202.116c0.923,0,1.613-0.691,1.613-1.613v-8.182l6.684,8.756c0.46,0.578,0.922,1.039,1.73,1.039
			h0.113c0.922,0,1.729-0.691,1.729-1.729v-12.099c0-0.922-0.69-1.613-1.611-1.613c-0.923,0-1.613,0.691-1.613,1.613v7.835
			l-6.453-8.527c-0.462-0.575-0.922-1.036-1.729-1.036h-0.347c-0.922,0-1.728,0.691-1.728,1.729v12.099
			C235.042,201.425,235.733,202.116,236.655,202.116L236.655,202.116z"/>
		<path fill="#EF301F" d="M265.742,202.23c4.723,0,8.181-3.572,8.181-7.835l0,0c0-4.379-3.341-7.836-8.065-7.836
			c-4.725,0-8.182,3.572-8.182,7.836l0,0C257.676,198.772,261.018,202.23,265.742,202.23z M261.248,194.395
			c0-2.651,1.844-4.725,4.609-4.725c2.65,0,4.607,2.189,4.607,4.84l0,0c0,2.65-1.842,4.724-4.607,4.724
			C263.092,199.12,261.248,197.045,261.248,194.395L261.248,194.395z"/>
		<path fill="#EF301F" d="M284.655,201.999h4.264c4.84,0,8.066-3.341,8.066-7.604l0,0c0-4.264-3.342-7.605-8.066-7.605h-4.264
			c-0.921,0-1.728,0.692-1.728,1.728v11.755C283.042,201.308,283.734,201.999,284.655,201.999z M286.383,189.785h2.535
			c2.767,0,4.609,1.844,4.609,4.61l0,0c0,2.65-1.843,4.609-4.609,4.609h-2.535V189.785L286.383,189.785z"/>
		<path fill="#EF301F" d="M306.713,201.999h8.525c0.809,0,1.5-0.691,1.5-1.496c0-0.808-0.691-1.499-1.5-1.499h-6.914v-3.226h5.763
			c0.807,0,1.498-0.692,1.498-1.498c0-0.807-0.691-1.499-1.498-1.499h-5.763v-3.111h6.801c0.805,0,1.496-0.692,1.496-1.497
			c0-0.807-0.691-1.498-1.496-1.498h-8.412c-0.922,0-1.729,0.691-1.729,1.729v11.869C305.1,201.308,305.791,201.999,306.713,201.999
			L306.713,201.999z"/>
		<path fill="#EF301F" d="M325.384,200.387c1.727,1.268,3.686,1.844,5.761,1.844c3.341,0,5.646-1.728,5.646-4.725l0,0
			c0-2.65-1.727-3.802-4.839-4.609c-2.65-0.691-3.342-1.037-3.342-1.959l0,0c0-0.691,0.692-1.381,1.959-1.381
			c1.037,0,2.074,0.345,3.227,1.036c0.231,0.116,0.576,0.23,0.808,0.23c0.923,0,1.612-0.691,1.612-1.498
			c0-0.691-0.346-1.152-0.689-1.383c-1.385-0.921-2.998-1.383-4.842-1.383c-3.111,0-5.3,1.844-5.3,4.609l0,0
			c0,2.995,1.958,3.917,5.069,4.609c2.535,0.692,3.111,1.036,3.111,1.958l0,0c0,0.922-0.807,1.384-2.189,1.384
			c-1.497,0-2.766-0.577-3.918-1.384c-0.23-0.115-0.576-0.345-0.922-0.345c-0.921,0-1.612,0.691-1.612,1.497
			C324.693,199.695,325.038,200.156,325.384,200.387L325.384,200.387z"/>
		<path fill="#EF301F" d="M351.701,202.23c2.418,0,4.031-0.692,5.416-1.958c0.344-0.23,0.576-0.692,0.576-1.152
			c0-0.808-0.691-1.499-1.613-1.499c-0.348,0-0.691,0.115-1.037,0.345c-0.924,0.806-1.846,1.153-3.342,1.153
			c-2.65,0-4.379-2.189-4.379-4.84l0,0c0-2.65,1.844-4.725,4.379-4.725c1.152,0,2.189,0.347,3.111,1.038
			c0.23,0.116,0.576,0.345,1.037,0.345c0.92,0,1.611-0.691,1.611-1.612c0-0.577-0.344-1.037-0.691-1.383
			c-1.267-0.921-2.764-1.498-5.068-1.498c-4.725,0-7.953,3.572-7.953,7.835l0,0C343.98,198.772,347.322,202.23,351.701,202.23z"/>
		<path fill="#EF301F" d="M368.039,202.116c0.924,0,1.729-0.691,1.729-1.729v-4.609h6.223v4.609c0,0.921,0.691,1.729,1.729,1.729
			c0.924,0,1.729-0.691,1.729-1.729v-12.099c0-0.922-0.691-1.729-1.729-1.729c-0.922,0-1.729,0.691-1.729,1.729v4.493h-6.223v-4.493
			c0-0.922-0.691-1.729-1.729-1.729c-0.922,0-1.727,0.691-1.727,1.729v12.099C366.312,201.425,367.002,202.116,368.039,202.116z"/>
		<path fill="#EF301F" d="M393.98,202.23c4.725,0,8.066-3.572,8.066-7.835l0,0c0-4.379-3.342-7.836-8.066-7.836
			c-4.727,0-8.18,3.572-8.18,7.836l0,0C385.914,198.772,389.254,202.23,393.98,202.23z M389.371,194.395
			c0-2.651,1.844-4.725,4.609-4.725c2.648,0,4.609,2.189,4.609,4.84l0,0c0,2.65-1.846,4.724-4.609,4.724
			C391.332,199.12,389.371,197.045,389.371,194.395L389.371,194.395z"/>
		<path fill="#EF301F" d="M416.207,202.23c4.723,0,8.182-3.572,8.182-7.835l0,0c0-4.379-3.342-7.836-8.066-7.836
			s-8.182,3.572-8.182,7.836l0,0C408.14,198.772,411.482,202.23,416.207,202.23z M411.597,194.395c0-2.651,1.844-4.725,4.609-4.725
			c2.65,0,4.609,2.189,4.609,4.84l0,0c0,2.65-1.844,4.724-4.609,4.724C413.556,199.12,411.597,197.045,411.597,194.395
			L411.597,194.395z"/>
		<path fill="#EF301F" d="M435.004,202.058h7.836c0.805,0,1.496-0.691,1.496-1.497c0-0.807-0.691-1.499-1.496-1.499h-6.223v-10.601
			c0-0.921-0.693-1.729-1.728-1.729c-0.922,0-1.73,0.691-1.73,1.729v11.869C433.273,201.366,434.082,202.058,435.004,202.058
			L435.004,202.058z"/>
	</g>
	<path id="bottom-stripes_2_" fill="#EF301F" d="M444.131,545.418c-0.678-1.221-2.307-1.629-3.393-0.949l-89.978,51.979
		l38.271-48.857c0.814-1.086,0.678-2.715-0.408-3.529c-1.084-0.814-2.713-0.678-3.527,0.408l-41.801,53.336v-52.115
		c0-1.357-1.086-2.578-2.579-2.578c-1.493,0-2.579,1.086-2.579,2.578v52.115l-41.801-53.336c-0.814-1.086-2.442-1.223-3.527-0.408
		c-1.086,0.815-1.223,2.443-0.408,3.529l38.272,48.857l-91.744-52.93c-1.222-0.678-2.714-0.271-3.393,0.951
		c-0.679,1.221-0.271,2.715,0.95,3.393l103.008,59.443c0,0,0,0,0.136,0c0.136,0,0.136,0.137,0.271,0.137c0,0,0,0,0.136,0
		c0,0,0,0,0.136,0h0.136c0.136,0,0.407,0.135,0.543,0.135l0,0l0,0l0,0l0,0c0.271,0,0.408,0,0.542-0.135h0.137h0.135
		c0.135,0,0.135-0.137,0.271-0.137c0,0,0,0,0.135,0l101.381-58.494C444.402,548.268,444.81,546.641,444.131,545.418z"/>
	<circle id="bottom-dot-right_2_" fill="#EF301F" cx="450.918" cy="540.668" r="3.121"/>
	<circle id="bottom-dot-left_2_" fill="#EF301F" cx="229.022" cy="540.668" r="3.121"/>
	<g id="letter-middle_2_" enable-background="new    ">
		<path fill="#EF301F" d="M334.104,513.181h3.318v9.599c0,1.074,0.127,1.857,0.381,2.353c0.395,0.875,1.254,1.313,2.577,1.313
			c1.317,0,2.173-0.438,2.567-1.313c0.254-0.495,0.381-1.278,0.381-2.353v-9.599h3.318v9.606c0,1.661-0.258,2.955-0.772,3.881
			c-0.96,1.696-2.791,2.545-5.494,2.545c-2.702,0-4.537-0.849-5.504-2.545c-0.515-0.926-0.772-2.22-0.772-3.881V513.181z"/>
	</g>
</g>
<g>
</g>
<g>
</g>
<g>
</g>
<g>
</g>
<g>
</g>
<g>
</g>
<g>
</g>
<g>
</g>
<g>
</g>
<g>
</g>
<g>
</g>
<g>
</g>
<g>
</g>
<g>
</g>
<g>
</g>
</svg>
