<?xml version="1.0" encoding="utf-8"?>
<!-- Generator: Adobe Illustrator 18.1.0, SVG Export Plug-In . SVG Version: 6.00 Build 0)  -->
<svg version="1.1" xmlns="http://www.w3.org/2000/svg" xmlns:xlink="http://www.w3.org/1999/xlink" x="0px" y="0px"
	 viewBox="0 0 1016 751" enable-background="new 0 0 1016 751" xml:space="preserve">
<g id="padding">
	<path fill="#FCF192" d="M233.8,344.5v275H693v-275H233.8z M668.8,597H258V367h410.8V597z"/>
</g>
<g id="content">
	<rect x="258.5" y="280.3" fill="none" width="410.3" height="420.2"/>
	<text transform="matrix(1 0 0 1 258.5 288.4575)"><tspan x="0" y="0" font-family="'GraublauSans-Regular'" font-size="12">Bavaria ipsum dolor sit amet Steckerleis wea nia ausgähd, kummt nia hoam </tspan><tspan x="0" y="14.4" font-family="'GraublauSans-Regular'" font-size="12">Semmlkneedl back mas Resi großherzig wo hi boarischer hob am acht’n Tag schuf </tspan><tspan x="0" y="28.8" font-family="'GraublauSans-Regular'" font-size="12">Gott des Bia? Fei des is hoid aso g’hupft wia gsprunga, auf gehds beim Schichtl </tspan><tspan x="0" y="43.2" font-family="'GraublauSans-Regular'" font-size="12">Greichats! Biawambn Schuabladdla is des liab, pfenningguat. Steckerleis Brezn naa </tspan><tspan x="0" y="57.6" font-family="'GraublauSans-Regular'" font-size="12">di Biawambn zua Watschnbaam. Gams sammawiedaguad Deandlgwand scheans </tspan><tspan x="0" y="72" font-family="'GraublauSans-Regular'" font-size="12">baddscher Oachkatzlschwoaf, hogg di hera. Ned woar Spuiratz singan no a Maß </tspan><tspan x="0" y="86.4" font-family="'GraublauSans-Regular'" font-size="12">scheans g’hupft wia gsprunga und glei wirds no fui lustiga wos an a bravs hoggd! </tspan><tspan x="0" y="100.8" font-family="'GraublauSans-Regular'" font-size="12">Bradwurschtsemmal du dadst ma scho daugn sei hogg ma uns zamm, schaugn in </tspan><tspan x="0" y="115.2" font-family="'GraublauSans-Regular'" font-size="12">da is hogg ma uns zamm Kirwa noch da Giasinga Heiwog: Barfuaßat Marterl </tspan><tspan x="0" y="129.6" font-family="'GraublauSans-Regular'" font-size="12">Klampfn hoggd ded jo mei is des schee i sog ja nix, i red ja bloß g’hupft wia gsprun</tspan><tspan x="404.3" y="129.6" font-family="'GraublauSans-Regular'" font-size="12">-</tspan><tspan x="0" y="144" font-family="'GraublauSans-Regular'" font-size="12">ga Klampfn Buam. A so a Schmarn ned a Hoiwe, vui. Zwoa Foidweg dei hod Mar</tspan><tspan x="390.8" y="144" font-family="'GraublauSans-Regular'" font-size="12">-</tspan><tspan x="0" y="158.4" font-family="'GraublauSans-Regular'" font-size="12">terl, Wurscht obacht obandeln Reiwadatschi. Gaudi griasd eich midnand. </tspan><tspan x="0" y="230.4" font-family="'GraublauSans-SmboldItalic'" font-size="48">Headline</tspan><tspan x="0" y="259.2" font-family="'GraublauSans-Regular'" font-size="12">Bavaria ipsum dolor sit amet Steckerleis wea nia ausgähd, kummt nia hoam </tspan><tspan x="0" y="273.6" font-family="'GraublauSans-Regular'" font-size="12">Semmlkneedl back mas Resi großherzig wo hi boarischer hob am acht’n Tag schuf </tspan><tspan x="0" y="288" font-family="'GraublauSans-Regular'" font-size="12">Gott des Bia? Fei des is hoid aso g’hupft wia gsprunga, auf gehds beim Schichtl </tspan><tspan x="0" y="302.4" font-family="'GraublauSans-Regular'" font-size="12">Greichats! Biawambn Schuabladdla is des liab, pfenningguat. Steckerleis Brezn naa </tspan><tspan x="0" y="316.8" font-family="'GraublauSans-Regular'" font-size="12">di Biawambn zua Watschnbaam. Gams sammawiedaguad Deandlgwand scheans </tspan><tspan x="0" y="331.2" font-family="'GraublauSans-Regular'" font-size="12">baddscher Oachkatzlschwoaf, hogg di hera. Ned woar Spuiratz singan no a Maß </tspan><tspan x="0" y="345.6" font-family="'GraublauSans-Regular'" font-size="12">scheans g’hupft wia gsprunga und glei wirds no fui lustiga wos an a bravs hoggd! </tspan><tspan x="0" y="360" font-family="'GraublauSans-Regular'" font-size="12">Bradwurschtsemmal du dadst ma scho daugn sei hogg ma uns zamm, schaugn in </tspan><tspan x="0" y="374.4" font-family="'GraublauSans-Regular'" font-size="12">da is hogg ma uns zamm Kirwa noch da Giasinga Heiwog: Barfuaßat Marterl </tspan><tspan x="0" y="388.8" font-family="'GraublauSans-Regular'" font-size="12">Semmlkneedl back mas Resi großherzig wo hi boarischer hob am acht’n Tag schuf </tspan><tspan x="0" y="403.2" font-family="'GraublauSans-Regular'" font-size="12">Gott des Bia? Fei des is hoid aso g’hupft wia gs</tspan></text>
</g>
<g id="content-mask">
	<path opacity="0.5" fill="#FFFFFF" d="M144.7,152v687.5h855V152H144.7z M693,619.5H233.8v-275H693V619.5z"/>
</g>
<g id="scrollbar">
	<line fill="none" stroke="#CAC9C9" stroke-width="10" stroke-miterlimit="10" x1="687.5" y1="620" x2="687.5" y2="344.5"/>
	
		<line fill="none" stroke="#444443" stroke-width="7" stroke-linecap="round" stroke-miterlimit="10" x1="687.5" y1="552.8" x2="687.5" y2="446.2"/>
</g>
<g id="margin">
	<path fill="#A4D7D8" d="M207.2,317v330h512.5V317H207.2z M692.7,620H234.1V344h458.6V620z"/>
</g>
<g id="border">
	<rect x="229.8" y="340" fill="none" stroke="#000000" stroke-width="10" stroke-miterlimit="10" width="467.2" height="284"/>
</g>
<g id="alignment_borders">
	<g opacity="0.6">
		<g>
			<line fill="none" stroke="#010202" stroke-width="0.5" stroke-miterlimit="10" x1="235.2" y1="716" x2="235.2" y2="713"/>
			
				<line fill="none" stroke="#010202" stroke-width="0.5" stroke-miterlimit="10" stroke-dasharray="5.9578,5.9578" x1="235.2" y1="707" x2="235.2" y2="42.7"/>
			<line fill="none" stroke="#010202" stroke-width="0.5" stroke-miterlimit="10" x1="235.2" y1="39.8" x2="235.2" y2="36.8"/>
		</g>
	</g>
	<g opacity="0.6">
		<g>
			<line fill="none" stroke="#010202" stroke-width="0.5" stroke-miterlimit="10" x1="225.6" y1="716" x2="225.6" y2="713"/>
			
				<line fill="none" stroke="#010202" stroke-width="0.5" stroke-miterlimit="10" stroke-dasharray="5.9578,5.9578" x1="225.6" y1="707" x2="225.6" y2="42.7"/>
			<line fill="none" stroke="#010202" stroke-width="0.5" stroke-miterlimit="10" x1="225.6" y1="39.8" x2="225.6" y2="36.8"/>
		</g>
	</g>
	<g opacity="0.6">
		<g>
			<line fill="none" stroke="#010202" stroke-width="0.5" stroke-miterlimit="10" x1="206.6" y1="716" x2="206.6" y2="713"/>
			
				<line fill="none" stroke="#010202" stroke-width="0.5" stroke-miterlimit="10" stroke-dasharray="5.9578,5.9578" x1="206.6" y1="707" x2="206.6" y2="42.7"/>
			<line fill="none" stroke="#010202" stroke-width="0.5" stroke-miterlimit="10" x1="206.6" y1="39.8" x2="206.6" y2="36.8"/>
		</g>
	</g>
	<g opacity="0.6">
		<g>
			<line fill="none" stroke="#010202" stroke-width="0.5" stroke-miterlimit="10" x1="206.6" y1="716" x2="206.6" y2="713"/>
			
				<line fill="none" stroke="#010202" stroke-width="0.5" stroke-miterlimit="10" stroke-dasharray="5.9578,5.9578" x1="206.6" y1="707" x2="206.6" y2="42.7"/>
			<line fill="none" stroke="#010202" stroke-width="0.5" stroke-miterlimit="10" x1="206.6" y1="39.8" x2="206.6" y2="36.8"/>
		</g>
	</g>
	<g opacity="0.6">
		<g>
			<line fill="none" stroke="#010202" stroke-width="0.5" stroke-miterlimit="10" x1="257.6" y1="716" x2="257.6" y2="713"/>
			
				<line fill="none" stroke="#010202" stroke-width="0.5" stroke-miterlimit="10" stroke-dasharray="5.9578,5.9578" x1="257.6" y1="707" x2="257.6" y2="42.7"/>
			<line fill="none" stroke="#010202" stroke-width="0.5" stroke-miterlimit="10" x1="257.6" y1="39.8" x2="257.6" y2="36.8"/>
		</g>
	</g>
	<g opacity="0.6">
		<g>
			<line fill="none" stroke="#010202" stroke-width="0.5" stroke-miterlimit="10" x1="668.8" y1="716" x2="668.8" y2="713"/>
			
				<line fill="none" stroke="#010202" stroke-width="0.5" stroke-miterlimit="10" stroke-dasharray="5.9578,5.9578" x1="668.8" y1="707" x2="668.8" y2="42.7"/>
			<line fill="none" stroke="#010202" stroke-width="0.5" stroke-miterlimit="10" x1="668.8" y1="39.8" x2="668.8" y2="36.8"/>
		</g>
	</g>
	<g opacity="0.6">
		<g>
			<line fill="none" stroke="#010202" stroke-width="0.5" stroke-miterlimit="10" x1="682.8" y1="716" x2="682.8" y2="713"/>
			
				<line fill="none" stroke="#010202" stroke-width="0.5" stroke-miterlimit="10" stroke-dasharray="5.9578,5.9578" x1="682.8" y1="707" x2="682.8" y2="42.7"/>
			<line fill="none" stroke="#010202" stroke-width="0.5" stroke-miterlimit="10" x1="682.8" y1="39.8" x2="682.8" y2="36.8"/>
		</g>
	</g>
	<g opacity="0.6">
		<g>
			<line fill="none" stroke="#010202" stroke-width="0.5" stroke-miterlimit="10" x1="206.4" y1="345.1" x2="209.4" y2="345.1"/>
			
				<line fill="none" stroke="#010202" stroke-width="0.5" stroke-miterlimit="10" stroke-dasharray="6.0052,6.0052" x1="215.4" y1="345.1" x2="969.1" y2="345.1"/>
			<line fill="none" stroke="#010202" stroke-width="0.5" stroke-miterlimit="10" x1="972.1" y1="345.1" x2="975.1" y2="345.1"/>
		</g>
	</g>
	<g opacity="0.6">
		<g>
			<line fill="none" stroke="#010202" stroke-width="0.5" stroke-miterlimit="10" x1="206.4" y1="335.6" x2="209.4" y2="335.6"/>
			
				<line fill="none" stroke="#010202" stroke-width="0.5" stroke-miterlimit="10" stroke-dasharray="6.0052,6.0052" x1="215.4" y1="335.6" x2="969.1" y2="335.6"/>
			<line fill="none" stroke="#010202" stroke-width="0.5" stroke-miterlimit="10" x1="972.1" y1="335.6" x2="975.1" y2="335.6"/>
		</g>
	</g>
	<g opacity="0.6">
		<g>
			<line fill="none" stroke="#010202" stroke-width="0.5" stroke-miterlimit="10" x1="206.4" y1="316.6" x2="209.4" y2="316.6"/>
			
				<line fill="none" stroke="#010202" stroke-width="0.5" stroke-miterlimit="10" stroke-dasharray="6.0052,6.0052" x1="215.4" y1="316.6" x2="969.1" y2="316.6"/>
			<line fill="none" stroke="#010202" stroke-width="0.5" stroke-miterlimit="10" x1="972.1" y1="316.6" x2="975.1" y2="316.6"/>
		</g>
	</g>
	<g opacity="0.6">
		<g>
			<line fill="none" stroke="#010202" stroke-width="0.5" stroke-miterlimit="10" x1="692.6" y1="37.3" x2="692.6" y2="40.3"/>
			
				<line fill="none" stroke="#010202" stroke-width="0.5" stroke-miterlimit="10" stroke-dasharray="5.9532,5.9532" x1="692.6" y1="46.2" x2="692.6" y2="710"/>
			<line fill="none" stroke="#010202" stroke-width="0.5" stroke-miterlimit="10" x1="692.6" y1="713" x2="692.6" y2="716"/>
		</g>
	</g>
	<g opacity="0.6">
		<g>
			<line fill="none" stroke="#010202" stroke-width="0.5" stroke-miterlimit="10" x1="702.2" y1="37.3" x2="702.2" y2="40.3"/>
			
				<line fill="none" stroke="#010202" stroke-width="0.5" stroke-miterlimit="10" stroke-dasharray="5.9532,5.9532" x1="702.2" y1="46.2" x2="702.2" y2="710"/>
			<line fill="none" stroke="#010202" stroke-width="0.5" stroke-miterlimit="10" x1="702.2" y1="713" x2="702.2" y2="716"/>
		</g>
	</g>
	<g opacity="0.6">
		<g>
			<line fill="none" stroke="#010202" stroke-width="0.5" stroke-miterlimit="10" x1="720.2" y1="37.3" x2="720.2" y2="40.3"/>
			
				<line fill="none" stroke="#010202" stroke-width="0.5" stroke-miterlimit="10" stroke-dasharray="5.9532,5.9532" x1="720.2" y1="46.2" x2="720.2" y2="710"/>
			<line fill="none" stroke="#010202" stroke-width="0.5" stroke-miterlimit="10" x1="720.2" y1="713" x2="720.2" y2="716"/>
		</g>
	</g>
	<g opacity="0.6">
		<g>
			<line fill="none" stroke="#010202" stroke-width="0.5" stroke-miterlimit="10" x1="974.4" y1="619.6" x2="971.4" y2="619.6"/>
			
				<line fill="none" stroke="#010202" stroke-width="0.5" stroke-miterlimit="10" stroke-dasharray="6.0052,6.0052" x1="965.4" y1="619.6" x2="211.7" y2="619.6"/>
			<line fill="none" stroke="#010202" stroke-width="0.5" stroke-miterlimit="10" x1="208.7" y1="619.6" x2="205.7" y2="619.6"/>
		</g>
	</g>
	<g opacity="0.6">
		<g>
			<line fill="none" stroke="#010202" stroke-width="0.5" stroke-miterlimit="10" x1="974.4" y1="629.1" x2="971.4" y2="629.1"/>
			
				<line fill="none" stroke="#010202" stroke-width="0.5" stroke-miterlimit="10" stroke-dasharray="6.0052,6.0052" x1="965.4" y1="629.1" x2="211.7" y2="629.1"/>
			<line fill="none" stroke="#010202" stroke-width="0.5" stroke-miterlimit="10" x1="208.7" y1="629.1" x2="205.7" y2="629.1"/>
		</g>
	</g>
	<g opacity="0.6">
		<g>
			<line fill="none" stroke="#010202" stroke-width="0.5" stroke-miterlimit="10" x1="974.4" y1="647.1" x2="971.4" y2="647.1"/>
			
				<line fill="none" stroke="#010202" stroke-width="0.5" stroke-miterlimit="10" stroke-dasharray="6.0052,6.0052" x1="965.4" y1="647.1" x2="211.7" y2="647.1"/>
			<line fill="none" stroke="#010202" stroke-width="0.5" stroke-miterlimit="10" x1="208.7" y1="647.1" x2="205.7" y2="647.1"/>
		</g>
	</g>
	<g opacity="0.6">
		<g>
			<line fill="none" stroke="#010202" stroke-width="0.5" stroke-miterlimit="10" x1="206.4" y1="367.6" x2="209.4" y2="367.6"/>
			
				<line fill="none" stroke="#010202" stroke-width="0.5" stroke-miterlimit="10" stroke-dasharray="6.0052,6.0052" x1="215.4" y1="367.6" x2="969.1" y2="367.6"/>
			<line fill="none" stroke="#010202" stroke-width="0.5" stroke-miterlimit="10" x1="972.1" y1="367.6" x2="975.1" y2="367.6"/>
		</g>
	</g>
	<g opacity="0.6">
		<g>
			<line fill="none" stroke="#010202" stroke-width="0.5" stroke-miterlimit="10" x1="206.4" y1="279.6" x2="209.4" y2="279.6"/>
			
				<line fill="none" stroke="#010202" stroke-width="0.5" stroke-miterlimit="10" stroke-dasharray="6.0052,6.0052" x1="215.4" y1="279.6" x2="969.1" y2="279.6"/>
			<line fill="none" stroke="#010202" stroke-width="0.5" stroke-miterlimit="10" x1="972.1" y1="279.6" x2="975.1" y2="279.6"/>
		</g>
	</g>
	<g opacity="0.6">
		<g>
			<line fill="none" stroke="#010202" stroke-width="0.5" stroke-miterlimit="10" x1="205.7" y1="694.6" x2="208.7" y2="694.6"/>
			
				<line fill="none" stroke="#010202" stroke-width="0.5" stroke-miterlimit="10" stroke-dasharray="6.0052,6.0052" x1="214.7" y1="694.6" x2="968.4" y2="694.6"/>
			<line fill="none" stroke="#010202" stroke-width="0.5" stroke-miterlimit="10" x1="971.4" y1="694.6" x2="974.4" y2="694.6"/>
		</g>
	</g>
	<g opacity="0.6">
		<g>
			<line fill="none" stroke="#010202" stroke-width="0.5" stroke-miterlimit="10" x1="205.7" y1="597.6" x2="208.7" y2="597.6"/>
			
				<line fill="none" stroke="#010202" stroke-width="0.5" stroke-miterlimit="10" stroke-dasharray="6.0052,6.0052" x1="214.7" y1="597.6" x2="968.4" y2="597.6"/>
			<line fill="none" stroke="#010202" stroke-width="0.5" stroke-miterlimit="10" x1="971.4" y1="597.6" x2="974.4" y2="597.6"/>
		</g>
	</g>
</g>
<g id="offsetparent">
	<rect x="43" y="37" opacity="0.3" fill="#76AD76" width="931" height="37"/>
	<rect x="45" y="74" opacity="0.3" fill="#76AD76" width="37" height="642"/>
	<rect x="43" y="37" fill="none" stroke="#76AD76" stroke-width="5" stroke-miterlimit="10" width="932" height="679"/>
	<g>
		<path fill="#76AD76" d="M379.8,24c-1,0.5-2.1,0.8-3.5,0.8c-2.9,0-4.5-1.8-4.5-5s1.6-5,4.4-5c2.4,0,3.7,1.5,3.7,4
			c0,0.4,0,0.9-0.1,1.4h-5.8c0.1,1.8,0.9,2.8,2.5,2.8c1,0,1.9-0.3,2.8-0.7L379.8,24L379.8,24z M376.2,16.5c-1.2,0-1.9,0.7-2.1,2.2
			h3.9C378,17.3,377.4,16.5,376.2,16.5z"/>
		<path fill="#76AD76" d="M382.6,10.3h2.4v14.2h-2.4V10.3z"/>
		<path fill="#76AD76" d="M395.5,24c-1,0.5-2.1,0.8-3.5,0.8c-2.9,0-4.5-1.8-4.5-5s1.6-5,4.4-5c2.4,0,3.7,1.5,3.7,4
			c0,0.4,0,0.9-0.1,1.4h-5.8c0.1,1.8,0.9,2.8,2.5,2.8c1,0,1.9-0.3,2.8-0.7L395.5,24L395.5,24z M391.9,16.5c-1.2,0-1.9,0.7-2.1,2.2
			h3.9C393.7,17.3,393,16.5,391.9,16.5z"/>
		<path fill="#76AD76" d="M400.6,16c1.2-0.8,2.2-1.2,3.3-1.2c1.1,0,2,0.4,2.5,1.4c1.5-1.1,2.6-1.4,3.6-1.4c1.7,0,2.8,0.8,2.8,3.3
			v6.4h-2.4v-6c0-1-0.4-1.6-1.3-1.6c-0.6,0-1.4,0.3-2.3,1.1v0.1v6.4h-2.4v-6c0-1-0.4-1.6-1.3-1.6c-0.7,0-1.5,0.4-2.3,1.1v6.5h-2.4
			V15h2.2V16L400.6,16z"/>
		<path fill="#76AD76" d="M423.2,24c-1,0.5-2.1,0.8-3.5,0.8c-2.9,0-4.5-1.8-4.5-5s1.6-5,4.4-5c2.4,0,3.7,1.5,3.7,4
			c0,0.4,0,0.9-0.1,1.4h-5.8c0.1,1.8,0.9,2.8,2.5,2.8c1,0,1.9-0.3,2.8-0.7L423.2,24L423.2,24z M419.6,16.5c-1.2,0-1.9,0.7-2.1,2.2
			h3.9C421.4,17.3,420.8,16.5,419.6,16.5z"/>
		<path fill="#76AD76" d="M431.7,14.9c1.9,0,2.9,1.1,2.9,3.4v6.3h-2.4v-6.1c0-1-0.4-1.5-1.4-1.5c-0.7,0-1.5,0.4-2.4,1.1v6.6H426V15
			h2.3l0,1C429.5,15.2,430.5,14.9,431.7,14.9z"/>
		<path fill="#76AD76" d="M441.3,24.8c-2.2,0-3.3-1.1-3.3-3.4v-4.6h-1.4V15h1.4v-3l2.4-0.6V15h2.5v1.7h-2.5v4.5c0,1,0.4,1.5,1.3,1.5
			c0.5,0,1-0.1,1.4-0.2l0.3,1.9C442.9,24.7,442.2,24.8,441.3,24.8z"/>
		<path fill="#76AD76" d="M445.7,23.2c0-0.8,0.6-1.5,1.4-1.5c0.8,0,1.5,0.6,1.5,1.5c0,0.8-0.6,1.4-1.5,1.4
			C446.3,24.7,445.7,24.1,445.7,23.2z"/>
		<path fill="#76AD76" d="M460,19.6c0,3.2-1.8,5.2-4.7,5.2c-2.9,0-4.6-1.8-4.6-5c0-3.1,1.8-5,4.8-5C458.3,14.8,460,16.6,460,19.6z
			 M457.5,19.7c0-2-0.8-3.1-2.2-3.1c-1.4,0-2.2,1.1-2.2,3.1c0,2.1,0.8,3.2,2.3,3.2C456.8,23,457.5,21.8,457.5,19.7z"/>
		<path fill="#76AD76" d="M474.5,12.2c-0.6-0.2-1.2-0.3-1.7-0.3c-1.4,0-1.7,0.7-1.7,2v1.1h2.5v1.7h-2.5v7.8h-2.4v-7.8h-3.5v7.8h-2.4
			v-7.8h-1.4v-1.7h1.4v-0.2c0-2.9,1.6-4.1,4.4-4.1c0.9,0,1.7,0.1,2.5,0.4c0.6-0.6,1.6-1,2.9-1c0.9,0,1.6,0.1,2.3,0.3L474.5,12.2
			L474.5,12.2z M468.7,15.1v-1c0-0.5,0-0.9,0.1-1.3c-0.5-0.1-1-0.2-1.6-0.2c-1.4,0-2.1,0.8-2.1,2.2v0.3L468.7,15.1L468.7,15.1z"/>
		<path fill="#76AD76" d="M477.4,23c0.9,0,1.4-0.3,1.4-1c0-1.8-4.4-1.3-4.4-4.5c0-1.9,1.7-2.8,3.7-2.8c1,0,2,0.2,2.8,0.5l-0.5,1.8
			c-0.6-0.2-1.4-0.5-2.2-0.5c-0.9,0-1.4,0.3-1.4,0.9c0,1.7,4.5,1.2,4.5,4.5c0,2.1-1.7,2.8-3.8,2.8c-1.1,0-2.4-0.2-3.3-0.7l0.6-1.8
			C475.4,22.7,476.5,23,477.4,23z"/>
		<path fill="#76AD76" d="M490.6,24c-1,0.5-2.1,0.8-3.5,0.8c-2.9,0-4.5-1.8-4.5-5s1.6-5,4.4-5c2.4,0,3.7,1.5,3.7,4
			c0,0.4,0,0.9-0.1,1.4h-5.8c0.1,1.8,0.9,2.8,2.5,2.8c1,0,1.9-0.3,2.8-0.7L490.6,24L490.6,24z M487,16.5c-1.2,0-1.9,0.7-2.1,2.2h3.9
			C488.8,17.3,488.2,16.5,487,16.5z"/>
		<path fill="#76AD76" d="M496.9,24.8c-2.2,0-3.3-1.1-3.3-3.4v-4.6h-1.4V15h1.4v-3l2.4-0.6V15h2.5v1.7H496v4.5c0,1,0.4,1.5,1.3,1.5
			c0.5,0,1-0.1,1.4-0.2l0.3,1.9C498.4,24.7,497.8,24.8,496.9,24.8z"/>
		<path fill="#76AD76" d="M504.8,11.6c3.5,0,5.2,1.4,5.2,4.2c0,2.8-1.6,4.3-4.9,4.3c-0.5,0-1.2,0-1.7-0.1v4.6H501v-13H504.8z
			 M504.8,18.1c1.8,0,2.7-0.8,2.7-2.3c0-1.6-0.9-2.3-2.8-2.3h-1.2V18C503.9,18.1,504.5,18.1,504.8,18.1z"/>
		<path fill="#76AD76" d="M516.7,23.6c-0.8,0.6-1.6,1.2-2.8,1.2c-1.6,0-2.8-1-2.8-2.7c0-2.3,2.2-3.1,5.3-3.3v-0.7
			c0-1-0.5-1.5-1.6-1.5c-0.7,0-1.6,0.2-2.8,0.6l-0.5-1.7c1.2-0.5,2.4-0.7,3.6-0.7c2.4,0,3.6,1.1,3.6,3.3v3.6c0,1.1,0.1,1.9,0.2,2.8
			h-2C516.9,24.3,516.8,24,516.7,23.6z M516.5,20.2c-1.9,0.1-3,0.4-3,1.6c0,0.7,0.4,1.2,1,1.2c0.6,0,1.3-0.4,1.9-0.9L516.5,20.2
			L516.5,20.2z"/>
		<path fill="#76AD76" d="M524.5,19.3v5.3h-2.4V15h2.4v1.8c1.2-1.5,2.4-2.3,4.1-1.8l-0.3,2.2C526.8,16.9,525.6,17.4,524.5,19.3z"/>
		<path fill="#76AD76" d="M537.3,24c-1,0.5-2.1,0.8-3.5,0.8c-2.9,0-4.5-1.8-4.5-5s1.6-5,4.4-5c2.4,0,3.7,1.5,3.7,4
			c0,0.4,0,0.9-0.1,1.4h-5.8c0.1,1.8,0.9,2.8,2.5,2.8c1,0,1.9-0.3,2.8-0.7L537.3,24L537.3,24z M533.7,16.5c-1.2,0-1.9,0.7-2.1,2.2
			h3.9C535.5,17.3,534.8,16.5,533.7,16.5z"/>
		<path fill="#76AD76" d="M545.7,14.9c1.9,0,2.9,1.1,2.9,3.4v6.3h-2.4v-6.1c0-1-0.4-1.5-1.4-1.5c-0.7,0-1.5,0.4-2.4,1.1v6.6h-2.4V15
			h2.3l0,1C543.6,15.2,544.6,14.9,545.7,14.9z"/>
		<path fill="#76AD76" d="M555.4,24.8c-2.2,0-3.3-1.1-3.3-3.4v-4.6h-1.4V15h1.4v-3l2.4-0.6V15h2.5v1.7h-2.5v4.5c0,1,0.4,1.5,1.3,1.5
			c0.5,0,1-0.1,1.4-0.2l0.3,1.9C556.9,24.7,556.2,24.8,555.4,24.8z"/>
	</g>
	<g>
		<path fill="#76AD76" d="M392.7,51.8c3.2,0,4.8,1.7,4.8,4.9c0,3.2-1.7,5.1-4.6,5.1c-0.7,0-1.2-0.1-1.6-0.3v4.9h-2.4v-14
			C390,52.1,391.4,51.8,392.7,51.8z M391.3,59.6c0.4,0.2,1,0.3,1.5,0.3c1.5,0,2.4-1.1,2.4-3c0-2-0.8-3.1-2.5-3.1
			c-0.4,0-0.9,0.1-1.3,0.2L391.3,59.6L391.3,59.6z"/>
		<path fill="#76AD76" d="M404.7,60.6c-0.8,0.6-1.6,1.2-2.8,1.2c-1.6,0-2.8-1-2.8-2.7c0-2.3,2.2-3.1,5.3-3.3v-0.7
			c0-1-0.5-1.5-1.6-1.5c-0.7,0-1.6,0.2-2.8,0.6l-0.5-1.7c1.2-0.5,2.4-0.7,3.6-0.7c2.4,0,3.6,1.1,3.6,3.3v3.6c0,1.1,0.1,1.9,0.2,2.8
			h-2C404.9,61.3,404.8,61,404.7,60.6z M404.4,57.2c-1.9,0.1-3,0.4-3,1.6c0,0.7,0.4,1.2,1,1.2c0.6,0,1.3-0.4,1.9-0.9L404.4,57.2
			L404.4,57.2z"/>
		<path fill="#76AD76" d="M418,61.2c-1.1,0.3-2.5,0.6-3.8,0.6c-3.2,0-4.8-1.7-4.8-4.9c0-3.2,1.7-5.1,4.6-5.1c0.8,0,1.2,0.1,1.7,0.3
			v-4.7h2.4V61.2z M415.6,54c-0.4-0.2-1-0.3-1.5-0.3c-1.5,0-2.4,1.1-2.4,3c0,2,0.8,3.1,2.5,3.1c0.4,0,0.9-0.1,1.3-0.2V54L415.6,54z"
			/>
		<path fill="#76AD76" d="M429.2,61.2c-1.1,0.3-2.5,0.6-3.8,0.6c-3.2,0-4.8-1.7-4.8-4.9c0-3.2,1.7-5.1,4.6-5.1
			c0.8,0,1.2,0.1,1.7,0.3v-4.7h2.4V61.2z M426.8,54c-0.4-0.2-1-0.3-1.5-0.3c-1.5,0-2.4,1.1-2.4,3c0,2,0.8,3.1,2.5,3.1
			c0.4,0,0.9-0.1,1.3-0.2V54L426.8,54z"/>
		<path fill="#76AD76" d="M432.3,49c0-0.8,0.6-1.4,1.4-1.4c0.9,0,1.5,0.6,1.5,1.4c0,0.8-0.6,1.4-1.5,1.4
			C432.9,50.4,432.3,49.8,432.3,49z M432.6,52h2.4v9.5h-2.4V52z"/>
		<path fill="#76AD76" d="M443.9,51.9c1.9,0,2.9,1.1,2.9,3.4v6.3h-2.4v-6.1c0-1-0.4-1.5-1.4-1.5c-0.7,0-1.5,0.4-2.4,1.1v6.6h-2.4V52
			h2.3l0,1C441.7,52.2,442.8,51.9,443.9,51.9z"/>
		<path fill="#76AD76" d="M458.1,51.5c-0.8,0.2-1.6,0.6-2.1,1.3c0.7,0.6,1,1.5,1,2.6c0,2-1.4,3.2-3.7,3.2c-0.3,0-0.5,0-0.7,0
			c-0.2,0.2-0.3,0.5-0.3,0.8c0,1.8,5.6,0.6,5.6,4.2c0,2.5-2.4,3-4.6,3c-2.4,0-4.2-0.9-4.2-2.8c0-1.2,0.8-2.1,1.6-2.8
			c-0.3-0.3-0.4-0.8-0.4-1.3c0-0.7,0.3-1.3,0.7-1.8c-0.9-0.6-1.3-1.5-1.3-2.7c0-2.1,1.4-3.4,3.7-3.4c0.5,0,1,0.1,1.4,0.2
			c0.9-1,1.8-2,3-2.3L458.1,51.5L458.1,51.5z M455.6,63.7c0-1.3-2.1-1.3-3.7-1.8c-0.6,0.6-1,1.1-1,1.7c0,0.9,0.9,1.4,2.4,1.4
			C454.6,65,455.6,64.7,455.6,63.7z M451.6,55.2c0,1,0.6,1.6,1.6,1.6c1,0,1.7-0.6,1.7-1.6c0-1-0.6-1.7-1.7-1.7
			S451.6,54.1,451.6,55.2z"/>
		<path fill="#76AD76" d="M459.1,54.9h6v1.9h-6V54.9z"/>
		<path fill="#76AD76" d="M471.2,61.8c-2.2,0-3.3-1.1-3.3-3.4v-4.6h-1.4V52h1.4v-3l2.4-0.6V52h2.5v1.7h-2.5v4.5c0,1,0.4,1.5,1.3,1.5
			c0.5,0,1-0.1,1.4-0.2l0.3,1.9C472.8,61.7,472.1,61.8,471.2,61.8z"/>
		<path fill="#76AD76" d="M483.5,56.6c0,3.2-1.8,5.2-4.7,5.2c-2.9,0-4.6-1.8-4.6-5c0-3.1,1.8-5,4.8-5
			C481.8,51.8,483.5,53.6,483.5,56.6z M481,56.7c0-2-0.8-3.1-2.2-3.1c-1.4,0-2.2,1.1-2.2,3.1c0,2.1,0.8,3.2,2.3,3.2
			C480.3,60,481,58.8,481,56.7z"/>
		<path fill="#76AD76" d="M489.9,51.8c3.2,0,4.8,1.7,4.8,4.9c0,3.2-1.7,5.1-4.6,5.1c-0.7,0-1.2-0.1-1.6-0.3v4.9h-2.4v-14
			C487.2,52.1,488.7,51.8,489.9,51.8z M488.5,59.6c0.4,0.2,1,0.3,1.5,0.3c1.5,0,2.4-1.1,2.4-3c0-2-0.8-3.1-2.5-3.1
			c-0.4,0-0.9,0.1-1.3,0.2L488.5,59.6L488.5,59.6z"/>
		<path fill="#76AD76" d="M502.1,55.7c0-4.6,1.9-7.4,3.8-9.6l1.5,1.1c-1.5,2.1-3,4.3-3,8.4c0,4.1,1.4,6.3,3,8.5l-1.5,1.1
			C504,63,502.1,60.3,502.1,55.7z"/>
		<path fill="#76AD76" d="M512.5,61.7c-2.9,0-4.5-1.8-4.5-4.9c0-3.3,1.7-5,4.7-5c1,0,1.8,0.2,2.5,0.5l-0.4,1.8
			c-0.7-0.3-1.3-0.4-2-0.4c-1.6,0-2.4,1-2.4,3c0,2.1,0.8,3.1,2.3,3.1c0.9,0,1.6-0.2,2.2-0.4l0.4,1.7
			C514.5,61.5,513.6,61.7,512.5,61.7z"/>
		<path fill="#76AD76" d="M519.7,60c0.9,0,1.4-0.3,1.4-1c0-1.8-4.4-1.3-4.4-4.5c0-1.9,1.7-2.8,3.7-2.8c1,0,2,0.2,2.8,0.5l-0.5,1.8
			c-0.6-0.2-1.4-0.5-2.2-0.5c-0.9,0-1.4,0.3-1.4,0.9c0,1.7,4.5,1.2,4.5,4.5c0,2.1-1.7,2.8-3.8,2.8c-1.1,0-2.4-0.2-3.3-0.7l0.6-1.8
			C517.8,59.7,518.8,60,519.7,60z"/>
		<path fill="#76AD76" d="M528,60c0.9,0,1.4-0.3,1.4-1c0-1.8-4.4-1.3-4.4-4.5c0-1.9,1.7-2.8,3.7-2.8c1,0,2,0.2,2.8,0.5l-0.5,1.8
			c-0.6-0.2-1.4-0.5-2.2-0.5c-0.9,0-1.4,0.3-1.4,0.9c0,1.7,4.5,1.2,4.5,4.5c0,2.1-1.7,2.8-3.8,2.8c-1.1,0-2.4-0.2-3.3-0.7l0.6-1.8
			C526.1,59.7,527.1,60,528,60z"/>
		<path fill="#76AD76" d="M537.9,55.6c0,4.6-1.9,7.4-3.8,9.6l-1.5-1.1c1.5-2.1,3-4.3,3-8.4c0-4.1-1.4-6.3-3-8.5l1.5-1.1
			C536,48.2,537.9,50.9,537.9,55.6z"/>
	</g>
	<g>
		<path fill="#76AD76" d="M59.6,445.7c0-3.2,1.7-4.8,4.9-4.8c3.2,0,5.1,1.7,5.1,4.6c0,0.7-0.1,1.2-0.3,1.6h4.9v2.4h-14
			C59.9,448.5,59.6,447,59.6,445.7z M67.4,447.2c0.2-0.4,0.3-1,0.3-1.5c0-1.5-1.1-2.4-3-2.4c-2,0-3.1,0.8-3.1,2.5
			c0,0.4,0.1,0.9,0.2,1.3L67.4,447.2L67.4,447.2z"/>
		<path fill="#76AD76" d="M68.5,433.8c0.6,0.8,1.2,1.6,1.2,2.8c0,1.6-1,2.8-2.7,2.8c-2.3,0-3.1-2.2-3.3-5.3H63c-1,0-1.5,0.5-1.5,1.6
			c0,0.7,0.2,1.6,0.6,2.8l-1.7,0.5c-0.5-1.2-0.7-2.4-0.7-3.6c0-2.4,1.1-3.6,3.3-3.6h3.6c1.1,0,1.9-0.1,2.8-0.2v2
			C69.1,433.6,68.9,433.7,68.5,433.8z M65.1,434c0.1,1.9,0.4,3,1.6,3c0.7,0,1.2-0.4,1.2-1c0-0.6-0.4-1.3-0.9-1.9L65.1,434L65.1,434z
			"/>
		<path fill="#76AD76" d="M69,420.5c0.3,1.1,0.6,2.5,0.6,3.8c0,3.2-1.7,4.8-4.9,4.8c-3.2,0-5.1-1.7-5.1-4.6c0-0.8,0.1-1.2,0.3-1.7
			h-4.7v-2.4H69z M61.9,422.9c-0.2,0.4-0.3,1-0.3,1.5c0,1.5,1.1,2.4,3,2.4c2,0,3.1-0.8,3.1-2.5c0-0.4-0.1-0.9-0.2-1.3H61.9
			L61.9,422.9z"/>
		<path fill="#76AD76" d="M69,409.2c0.3,1.1,0.6,2.5,0.6,3.8c0,3.2-1.7,4.8-4.9,4.8c-3.2,0-5.1-1.7-5.1-4.6c0-0.8,0.1-1.2,0.3-1.7
			h-4.7v-2.4H69z M61.9,411.6c-0.2,0.4-0.3,1-0.3,1.5c0,1.5,1.1,2.4,3,2.4c2,0,3.1-0.8,3.1-2.5c0-0.4-0.1-0.9-0.2-1.3H61.9
			L61.9,411.6z"/>
		<path fill="#76AD76" d="M56.8,406.1c-0.8,0-1.4-0.6-1.4-1.4c0-0.9,0.6-1.5,1.4-1.5c0.8,0,1.4,0.6,1.4,1.5
			C58.2,405.6,57.7,406.1,56.8,406.1z M59.9,405.9v-2.4h9.5v2.4H59.9z"/>
		<path fill="#76AD76" d="M59.7,394.6c0-1.9,1.1-2.9,3.4-2.9h6.3v2.4h-6.1c-1,0-1.5,0.4-1.5,1.4c0,0.7,0.4,1.5,1.1,2.4h6.6v2.4h-9.5
			v-2.3l1,0C60.1,396.7,59.7,395.7,59.7,394.6z"/>
		<path fill="#76AD76" d="M59.3,380.4c0.2,0.8,0.6,1.6,1.3,2.1c0.6-0.7,1.5-1,2.6-1c2,0,3.2,1.4,3.2,3.7c0,0.3,0,0.5,0,0.7
			c0.2,0.2,0.5,0.3,0.8,0.3c1.8,0,0.6-5.6,4.2-5.6c2.5,0,3,2.4,3,4.6c0,2.4-0.9,4.2-2.8,4.2c-1.2,0-2.1-0.8-2.8-1.6
			c-0.3,0.3-0.8,0.4-1.3,0.4c-0.7,0-1.3-0.3-1.8-0.7c-0.6,0.9-1.5,1.3-2.7,1.3c-2.1,0-3.4-1.4-3.4-3.7c0-0.5,0.1-1,0.2-1.4
			c-1-0.9-2-1.8-2.3-3L59.3,380.4L59.3,380.4z M63,386.9c1,0,1.6-0.6,1.6-1.6c0-1-0.6-1.7-1.6-1.7c-1,0-1.7,0.6-1.7,1.7
			S62,386.9,63,386.9z M71.6,382.9c-1.3,0-1.3,2.1-1.8,3.7c0.6,0.6,1.1,1,1.7,1c0.9,0,1.4-0.9,1.4-2.4
			C72.8,383.9,72.6,382.9,71.6,382.9z"/>
		<path fill="#76AD76" d="M62.8,379.3v-6h1.9v6H62.8z"/>
		<path fill="#76AD76" d="M55.2,370.7v-2.4h14.2v2.4H55.2z"/>
		<path fill="#76AD76" d="M68.9,357.8c0.5,1,0.8,2.1,0.8,3.5c0,2.9-1.8,4.5-5,4.5s-5-1.6-5-4.4c0-2.4,1.5-3.7,4-3.7
			c0.4,0,0.9,0,1.4,0.1v5.8c1.8-0.1,2.8-0.9,2.8-2.5c0-1-0.3-1.9-0.7-2.8L68.9,357.8L68.9,357.8z M61.4,361.5c0,1.2,0.7,1.9,2.2,2.1
			v-3.9C62.2,359.6,61.4,360.3,61.4,361.5z"/>
		<path fill="#76AD76" d="M56.7,350.6c0,1.5,0.7,1.8,2,1.8h1.2v-2.5h1.7v2.5h7.8v2.4h-7.8v1.4h-1.7v-1.4h-1.1c-2.3,0-3.9-1-3.9-4
			c0-1,0.1-1.7,0.3-2.4l1.7,0.4C56.8,349.4,56.7,350.1,56.7,350.6z"/>
		<path fill="#76AD76" d="M69.7,344.4c0,2.2-1.1,3.3-3.4,3.3h-4.6v1.4h-1.7v-1.4h-3l-0.6-2.4h3.6v-2.5h1.7v2.5h4.5
			c1,0,1.5-0.4,1.5-1.3c0-0.5-0.1-1-0.2-1.4l1.9-0.3C69.5,342.9,69.7,343.6,69.7,344.4z"/>
		<path fill="#76AD76" d="M63.5,335.8c-4.6,0-7.4-1.9-9.6-3.8l1.1-1.5c2.1,1.5,4.3,3,8.4,3c4.1,0,6.3-1.4,8.5-3l1.1,1.5
			C70.9,333.9,68.2,335.8,63.5,335.8z"/>
		<path fill="#76AD76" d="M69.6,325.4c0,2.9-1.8,4.5-4.9,4.5c-3.3,0-5-1.7-5-4.7c0-1,0.2-1.8,0.5-2.5L62,323c-0.3,0.7-0.4,1.3-0.4,2
			c0,1.6,1,2.4,3,2.4c2.1,0,3.1-0.8,3.1-2.3c0-0.9-0.2-1.6-0.4-2.2l1.7-0.4C69.4,323.4,69.6,324.3,69.6,325.4z"/>
		<path fill="#76AD76" d="M67.9,318.2c0-0.9-0.3-1.4-1-1.4c-1.8,0-1.3,4.4-4.5,4.4c-1.9,0-2.8-1.7-2.8-3.7c0-1,0.2-2,0.5-2.8
			l1.8,0.5c-0.2,0.6-0.5,1.4-0.5,2.2c0,0.9,0.3,1.4,0.9,1.4c1.7,0,1.2-4.5,4.5-4.5c2.1,0,2.8,1.7,2.8,3.8c0,1.1-0.2,2.4-0.7,3.3
			l-1.8-0.6C67.5,320.1,67.9,319.1,67.9,318.2z"/>
		<path fill="#76AD76" d="M67.9,309.9c0-0.9-0.3-1.4-1-1.4c-1.8,0-1.3,4.4-4.5,4.4c-1.9,0-2.8-1.7-2.8-3.7c0-1,0.2-2,0.5-2.8
			l1.8,0.5c-0.2,0.6-0.5,1.4-0.5,2.2c0,0.9,0.3,1.4,0.9,1.4c1.7,0,1.2-4.5,4.5-4.5c2.1,0,2.8,1.7,2.8,3.8c0,1.1-0.2,2.4-0.7,3.3
			l-1.8-0.6C67.5,311.8,67.9,310.8,67.9,309.9z"/>
		<path fill="#76AD76" d="M63.4,300c4.6,0,7.4,1.9,9.6,3.8l-1.1,1.5c-2.1-1.5-4.3-3-8.4-3c-4.1,0-6.3,1.4-8.5,3l-1.1-1.5
			C56.1,301.9,58.8,300,63.4,300z"/>
	</g>
</g>
<g id="legend">
	
		<line fill="none" stroke="#010202" stroke-width="2" stroke-linecap="round" stroke-miterlimit="10" x1="215.5" y1="434.5" x2="188.8" y2="434.5"/>
	<g>
		<path d="M119.3,430.7c1.2-0.8,2.2-1.2,3.3-1.2c1.1,0,2,0.4,2.5,1.4c1.5-1.1,2.6-1.4,3.6-1.4c1.7,0,2.8,0.8,2.8,3.3v6.4h-2.4v-6
			c0-1-0.4-1.6-1.3-1.6c-0.6,0-1.4,0.3-2.3,1.1v0.1v6.4h-2.4v-6c0-1-0.4-1.6-1.3-1.6c-0.7,0-1.5,0.4-2.3,1.1v6.5h-2.4v-9.5h2.2
			V430.7L119.3,430.7z"/>
		<path d="M139.4,438.3c-0.8,0.6-1.6,1.2-2.8,1.2c-1.6,0-2.8-1-2.8-2.7c0-2.3,2.2-3.1,5.3-3.3v-0.7c0-1-0.5-1.5-1.6-1.5
			c-0.7,0-1.6,0.2-2.8,0.6l-0.5-1.7c1.2-0.5,2.4-0.7,3.6-0.7c2.4,0,3.6,1.1,3.6,3.3v3.6c0,1.1,0.1,1.9,0.2,2.8h-2
			C139.5,438.9,139.5,438.7,139.4,438.3z M139.1,434.9c-1.9,0.1-3,0.4-3,1.6c0,0.7,0.4,1.2,1,1.2c0.6,0,1.3-0.4,1.9-0.9L139.1,434.9
			L139.1,434.9z"/>
		<path d="M147.1,433.9v5.3h-2.4v-9.5h2.4v1.8c1.2-1.5,2.4-2.3,4.1-1.8l-0.3,2.2C149.5,431.6,148.3,432.1,147.1,433.9z"/>
		<path d="M161,429.1c-0.8,0.2-1.6,0.6-2.1,1.3c0.7,0.6,1,1.5,1,2.6c0,2-1.4,3.2-3.7,3.2c-0.3,0-0.5,0-0.7,0
			c-0.2,0.2-0.3,0.5-0.3,0.8c0,1.8,5.6,0.6,5.6,4.2c0,2.5-2.4,3-4.6,3c-2.4,0-4.2-0.9-4.2-2.8c0-1.2,0.8-2.1,1.6-2.8
			c-0.3-0.3-0.4-0.8-0.4-1.3c0-0.7,0.3-1.3,0.7-1.8c-0.9-0.6-1.3-1.5-1.3-2.7c0-2.1,1.4-3.4,3.7-3.4c0.5,0,1,0.1,1.4,0.2
			c0.9-1,1.8-2,3-2.3L161,429.1L161,429.1z M158.5,441.4c0-1.3-2.1-1.3-3.7-1.8c-0.6,0.6-1,1.1-1,1.7c0,0.9,0.9,1.4,2.4,1.4
			C157.5,442.6,158.5,442.4,158.5,441.4z M154.5,432.8c0,1,0.6,1.6,1.6,1.6c1,0,1.7-0.6,1.7-1.6c0-1-0.6-1.7-1.7-1.7
			S154.5,431.8,154.5,432.8z"/>
		<path d="M162.6,426.6c0-0.8,0.6-1.4,1.4-1.4c0.9,0,1.5,0.6,1.5,1.4c0,0.8-0.6,1.4-1.5,1.4C163.1,428,162.6,427.5,162.6,426.6z
			 M162.8,429.7h2.4v9.5h-2.4V429.7z"/>
		<path d="M174.1,429.5c1.9,0,2.9,1.1,2.9,3.4v6.3h-2.4v-6.1c0-1-0.4-1.5-1.4-1.5c-0.7,0-1.5,0.4-2.4,1.1v6.6h-2.4v-9.5h2.3l0,1
			C172,429.9,173,429.5,174.1,429.5z"/>
	</g>
	<g>
		<g>
			
				<line fill="none" stroke="#010202" stroke-width="2" stroke-linecap="round" stroke-miterlimit="10" x1="235.1" y1="147.5" x2="300" y2="147.5"/>
			<g>
				<circle fill="#010202" cx="235.3" cy="147.5" r="3.8"/>
			</g>
		</g>
	</g>
	<g>
		<path d="M318,151.7c-1,0.5-2.1,0.8-3.5,0.8c-2.9,0-4.5-1.8-4.5-5s1.6-5,4.4-5c2.4,0,3.7,1.5,3.7,4c0,0.4,0,0.9-0.1,1.4h-5.8
			c0.1,1.8,0.9,2.8,2.5,2.8c1,0,1.9-0.3,2.8-0.7L318,151.7L318,151.7z M314.4,144.2c-1.2,0-1.9,0.7-2.1,2.2h3.9
			C316.2,145,315.5,144.2,314.4,144.2z"/>
		<path d="M320.8,138h2.4v14.2h-2.4V138z"/>
		<path d="M333.7,151.7c-1,0.5-2.1,0.8-3.5,0.8c-2.9,0-4.5-1.8-4.5-5s1.6-5,4.4-5c2.4,0,3.7,1.5,3.7,4c0,0.4,0,0.9-0.1,1.4H328
			c0.1,1.8,0.9,2.8,2.5,2.8c1,0,1.9-0.3,2.8-0.7L333.7,151.7L333.7,151.7z M330.1,144.2c-1.2,0-1.9,0.7-2.1,2.2h3.9
			C331.9,145,331.2,144.2,330.1,144.2z"/>
		<path d="M338.8,143.7c1.2-0.8,2.2-1.2,3.3-1.2c1.1,0,2,0.4,2.5,1.4c1.5-1.1,2.6-1.4,3.6-1.4c1.7,0,2.8,0.8,2.8,3.3v6.4h-2.4v-6
			c0-1-0.4-1.6-1.3-1.6c-0.6,0-1.4,0.3-2.3,1.1v0.1v6.4h-2.4v-6c0-1-0.4-1.6-1.3-1.6c-0.7,0-1.5,0.4-2.3,1.1v6.5h-2.4v-9.5h2.2
			V143.7L338.8,143.7z"/>
		<path d="M361.4,151.7c-1,0.5-2.1,0.8-3.5,0.8c-2.9,0-4.5-1.8-4.5-5s1.6-5,4.4-5c2.4,0,3.7,1.5,3.7,4c0,0.4,0,0.9-0.1,1.4h-5.8
			c0.1,1.8,0.9,2.8,2.5,2.8c1,0,1.9-0.3,2.8-0.7L361.4,151.7L361.4,151.7z M357.8,144.2c-1.2,0-1.9,0.7-2.1,2.2h3.9
			C359.6,145,359,144.2,357.8,144.2z"/>
		<path d="M369.8,142.5c1.9,0,2.9,1.1,2.9,3.4v6.3h-2.4v-6.1c0-1-0.4-1.5-1.4-1.5c-0.7,0-1.5,0.4-2.4,1.1v6.6h-2.4v-9.5h2.3l0,1
			C367.7,142.9,368.7,142.5,369.8,142.5z"/>
		<path d="M379.5,152.5c-2.2,0-3.3-1.1-3.3-3.4v-4.6h-1.4v-1.7h1.4v-3l2.4-0.6v3.6h2.5v1.7h-2.5v4.5c0,1,0.4,1.5,1.3,1.5
			c0.5,0,1-0.1,1.4-0.2l0.3,1.9C381.1,152.3,380.4,152.5,379.5,152.5z"/>
		<path d="M383.8,150.9c0-0.8,0.6-1.5,1.4-1.5c0.8,0,1.5,0.6,1.5,1.5c0,0.8-0.6,1.4-1.5,1.4C384.5,152.4,383.8,151.7,383.8,150.9z"
			/>
		<path d="M391.9,150.7c0.9,0,1.4-0.3,1.4-1c0-1.8-4.4-1.3-4.4-4.5c0-1.9,1.7-2.8,3.7-2.8c1,0,2,0.2,2.8,0.5l-0.5,1.8
			c-0.6-0.2-1.4-0.5-2.2-0.5c-0.9,0-1.4,0.3-1.4,0.9c0,1.7,4.5,1.2,4.5,4.5c0,2.1-1.7,2.8-3.8,2.8c-1.1,0-2.4-0.2-3.3-0.7l0.6-1.8
			C389.9,150.3,391,150.7,391.9,150.7z"/>
		<path d="M401.6,152.4c-2.9,0-4.5-1.8-4.5-4.9c0-3.3,1.7-5,4.7-5c1,0,1.8,0.2,2.5,0.5l-0.4,1.8c-0.7-0.3-1.3-0.4-2-0.4
			c-1.6,0-2.4,1-2.4,3c0,2.1,0.8,3.1,2.3,3.1c0.9,0,1.6-0.2,2.2-0.4l0.4,1.7C403.6,152.2,402.6,152.4,401.6,152.4z"/>
		<path d="M408.9,146.9v5.3h-2.4v-9.5h2.4v1.8c1.2-1.5,2.4-2.3,4.1-1.8l-0.3,2.2C411.2,144.6,410.1,145.1,408.9,146.9z"/>
		<path d="M423.1,147.3c0,3.2-1.8,5.2-4.7,5.2c-2.9,0-4.6-1.8-4.6-5c0-3.1,1.8-5,4.8-5C421.4,142.5,423.1,144.3,423.1,147.3z
			 M420.7,147.4c0-2-0.8-3.1-2.2-3.1c-1.4,0-2.2,1.1-2.2,3.1c0,2.1,0.8,3.2,2.3,3.2C419.9,150.6,420.7,149.5,420.7,147.4z"/>
		<path d="M425.7,138h2.4v14.2h-2.4V138z"/>
		<path d="M431.4,138h2.4v14.2h-2.4V138z"/>
		<path d="M437.3,139.2h2.4v11h6v1.9h-8.4V139.2z"/>
		<path d="M454.6,151.7c-1,0.5-2.1,0.8-3.5,0.8c-2.9,0-4.5-1.8-4.5-5s1.6-5,4.4-5c2.4,0,3.7,1.5,3.7,4c0,0.4,0,0.9-0.1,1.4h-5.8
			c0.1,1.8,0.9,2.8,2.5,2.8c1,0,1.9-0.3,2.8-0.7L454.6,151.7L454.6,151.7z M451,144.2c-1.2,0-1.9,0.7-2.1,2.2h3.9
			C452.8,145,452.1,144.2,451,144.2z"/>
		<path d="M461.8,139.6c-1.5,0-1.8,0.7-1.8,2v1.2h2.5v1.7h-2.5v7.8h-2.4v-7.8h-1.4v-1.7h1.4v-1.1c0-2.3,1-3.9,4-3.9
			c1,0,1.7,0.1,2.4,0.3l-0.4,1.7C463,139.6,462.4,139.6,461.8,139.6z"/>
		<path d="M468,152.5c-2.2,0-3.3-1.1-3.3-3.4v-4.6h-1.4v-1.7h1.4v-3l2.4-0.6v3.6h2.5v1.7h-2.5v4.5c0,1,0.4,1.5,1.3,1.5
			c0.5,0,1-0.1,1.4-0.2l0.3,1.9C469.6,152.3,468.9,152.5,468,152.5z"/>
		<path d="M476.8,144.3h8.8v1.9h-8.8V144.3z M476.8,148h8.8v1.9h-8.8V148z"/>
		<path d="M493,147.5c0-3.1,1.9-5.1,5-5.1c3,0,4.9,1.9,4.9,4.9c0,3.1-2,5.1-5.1,5.1C494.9,152.5,493,150.6,493,147.5z M495.4,147.4
			c0,2.1,1,3.2,2.6,3.2c1.6,0,2.5-1.1,2.5-3.1c0-2-0.9-3.1-2.6-3.1C496.4,144.3,495.4,145.4,495.4,147.4z"/>
		<path d="M515,142.5c3.2,0,4.8,1.7,4.8,4.9c0,3.2-1.7,5.1-4.6,5.1c-0.7,0-1.2-0.1-1.6-0.3v4.9h-2.4v-14
			C512.3,142.7,513.7,142.5,515,142.5z M513.6,150.2c0.4,0.2,1,0.3,1.5,0.3c1.5,0,2.4-1.1,2.4-3c0-2-0.8-3.1-2.5-3.1
			c-0.4,0-0.9,0.1-1.3,0.2L513.6,150.2L513.6,150.2z"/>
		<path d="M522.2,139.6c0-0.8,0.6-1.4,1.4-1.4c0.9,0,1.5,0.6,1.5,1.4c0,0.8-0.6,1.4-1.5,1.4C522.7,141,522.2,140.5,522.2,139.6z
			 M522.4,142.7h2.4v9.5h-2.4V142.7z"/>
		<path d="M531.2,148.9l-2.2,3.3h-2.6l3.5-4.8l-3.2-4.7h2.8l1.9,3.1l2-3.1h2.6l-3.3,4.7l3.5,4.9h-2.8L531.2,148.9z"/>
		<path d="M544.4,151.7c-1,0.5-2.1,0.8-3.5,0.8c-2.9,0-4.5-1.8-4.5-5s1.6-5,4.4-5c2.4,0,3.7,1.5,3.7,4c0,0.4,0,0.9-0.1,1.4h-5.8
			c0.1,1.8,0.9,2.8,2.5,2.8c1,0,1.9-0.3,2.8-0.7L544.4,151.7L544.4,151.7z M540.8,144.2c-1.2,0-1.9,0.7-2.1,2.2h3.9
			C542.6,145,542,144.2,540.8,144.2z"/>
		<path d="M547.2,138h2.4v14.2h-2.4V138z"/>
		<path d="M555.3,150.7c0.9,0,1.4-0.3,1.4-1c0-1.8-4.4-1.3-4.4-4.5c0-1.9,1.7-2.8,3.7-2.8c1,0,2,0.2,2.8,0.5l-0.5,1.8
			c-0.6-0.2-1.4-0.5-2.2-0.5c-0.9,0-1.4,0.3-1.4,0.9c0,1.7,4.5,1.2,4.5,4.5c0,2.1-1.7,2.8-3.8,2.8c-1.1,0-2.4-0.2-3.3-0.7l0.6-1.8
			C553.3,150.3,554.4,150.7,555.3,150.7z"/>
	</g>
	
		<line fill="none" stroke="#010202" stroke-width="2" stroke-linecap="round" stroke-miterlimit="10" x1="233.8" y1="464.5" x2="188.8" y2="464.5"/>
	<g>
		<path d="M124.7,459.5c2.8,0,4.2,1.7,4.2,4.8c0,3.4-1.7,5.2-4.9,5.2c-1.2,0-2.6-0.4-3.7-0.9V455h2.4v5
			C123.4,459.6,124,459.5,124.7,459.5z M124.1,467.6c1.6,0,2.4-1.1,2.4-3.2c0-2-0.8-3-2.2-3c-0.6,0-1.1,0.1-1.6,0.5v5.4
			C123.1,467.5,123.6,467.6,124.1,467.6z"/>
		<path d="M140.2,464.3c0,3.2-1.8,5.2-4.7,5.2c-2.9,0-4.6-1.8-4.6-5c0-3.1,1.8-5,4.8-5C138.5,459.5,140.2,461.3,140.2,464.3z
			 M137.7,464.4c0-2-0.8-3.1-2.2-3.1c-1.4,0-2.2,1.1-2.2,3.1c0,2.1,0.8,3.2,2.3,3.2C137,467.6,137.7,466.5,137.7,464.4z"/>
		<path d="M145.2,463.9v5.3h-2.4v-9.5h2.4v1.8c1.2-1.5,2.4-2.3,4.1-1.8l-0.3,2.2C147.5,461.6,146.3,462.1,145.2,463.9z"/>
		<path d="M158.7,468.9c-1.1,0.3-2.5,0.6-3.8,0.6c-3.2,0-4.8-1.7-4.8-4.9c0-3.2,1.7-5.1,4.6-5.1c0.8,0,1.2,0.1,1.7,0.3V455h2.4
			V468.9z M156.3,461.7c-0.4-0.2-1-0.3-1.5-0.3c-1.5,0-2.4,1.1-2.4,3c0,2,0.8,3.1,2.5,3.1c0.4,0,0.9-0.1,1.3-0.2V461.7L156.3,461.7z
			"/>
		<path d="M169.2,468.7c-1,0.5-2.1,0.8-3.5,0.8c-2.9,0-4.5-1.8-4.5-5s1.6-5,4.4-5c2.4,0,3.7,1.5,3.7,4c0,0.4,0,0.9-0.1,1.4h-5.8
			c0.1,1.8,0.9,2.8,2.5,2.8c1,0,1.9-0.3,2.8-0.7L169.2,468.7L169.2,468.7z M165.6,461.2c-1.2,0-1.9,0.7-2.1,2.2h3.9
			C167.4,462,166.8,461.2,165.6,461.2z"/>
		<path d="M174.4,463.9v5.3H172v-9.5h2.4v1.8c1.2-1.5,2.4-2.3,4.1-1.8l-0.3,2.2C176.8,461.6,175.6,462.1,174.4,463.9z"/>
	</g>
	
		<line fill="none" stroke="#010202" stroke-width="2" stroke-linecap="round" stroke-miterlimit="10" x1="246.3" y1="494.5" x2="188.8" y2="494.5"/>
	<g>
		<path d="M113.2,489.5c3.2,0,4.8,1.7,4.8,4.9c0,3.2-1.7,5.1-4.6,5.1c-0.7,0-1.2-0.1-1.6-0.3v4.9h-2.4v-14
			C110.4,489.7,111.9,489.5,113.2,489.5z M111.7,497.2c0.4,0.2,1,0.3,1.5,0.3c1.5,0,2.4-1.1,2.4-3c0-2-0.8-3.1-2.5-3.1
			c-0.4,0-0.9,0.1-1.3,0.2L111.7,497.2L111.7,497.2z"/>
		<path d="M125.2,498.3c-0.8,0.6-1.6,1.2-2.8,1.2c-1.6,0-2.8-1-2.8-2.7c0-2.3,2.2-3.1,5.3-3.3v-0.7c0-1-0.5-1.5-1.6-1.5
			c-0.7,0-1.6,0.2-2.8,0.6l-0.5-1.7c1.2-0.5,2.4-0.7,3.6-0.7c2.4,0,3.6,1.1,3.6,3.3v3.6c0,1.1,0.1,1.9,0.2,2.8h-2
			C125.3,498.9,125.2,498.7,125.2,498.3z M124.9,494.9c-1.9,0.1-3,0.4-3,1.6c0,0.7,0.4,1.2,1,1.2c0.6,0,1.3-0.4,1.9-0.9L124.9,494.9
			L124.9,494.9z"/>
		<path d="M138.4,498.9c-1.1,0.3-2.5,0.6-3.8,0.6c-3.2,0-4.8-1.7-4.8-4.9c0-3.2,1.7-5.1,4.6-5.1c0.8,0,1.2,0.1,1.7,0.3V485h2.4
			V498.9z M136,491.7c-0.4-0.2-1-0.3-1.5-0.3c-1.5,0-2.4,1.1-2.4,3c0,2,0.8,3.1,2.5,3.1c0.4,0,0.9-0.1,1.3-0.2V491.7L136,491.7z"/>
		<path d="M149.7,498.9c-1.1,0.3-2.5,0.6-3.8,0.6c-3.2,0-4.8-1.7-4.8-4.9c0-3.2,1.7-5.1,4.6-5.1c0.8,0,1.2,0.1,1.7,0.3V485h2.4
			V498.9z M147.3,491.7c-0.4-0.2-1-0.3-1.5-0.3c-1.5,0-2.4,1.1-2.4,3c0,2,0.8,3.1,2.5,3.1c0.4,0,0.9-0.1,1.3-0.2V491.7L147.3,491.7z
			"/>
		<path d="M152.8,486.6c0-0.8,0.6-1.4,1.4-1.4c0.9,0,1.5,0.6,1.5,1.4c0,0.8-0.6,1.4-1.5,1.4C153.3,488,152.8,487.5,152.8,486.6z
			 M153,489.7h2.4v9.5H153V489.7z"/>
		<path d="M164.3,489.5c1.9,0,2.9,1.1,2.9,3.4v6.3h-2.4v-6.1c0-1-0.4-1.5-1.4-1.5c-0.7,0-1.5,0.4-2.4,1.1v6.6h-2.4v-9.5h2.3l0,1
			C162.2,489.9,163.2,489.5,164.3,489.5z"/>
		<path d="M178.5,489.1c-0.8,0.2-1.6,0.6-2.1,1.3c0.7,0.6,1,1.5,1,2.6c0,2-1.4,3.2-3.7,3.2c-0.3,0-0.5,0-0.7,0
			c-0.2,0.2-0.3,0.5-0.3,0.8c0,1.8,5.6,0.6,5.6,4.2c0,2.5-2.4,3-4.6,3c-2.4,0-4.2-0.9-4.2-2.8c0-1.2,0.8-2.1,1.6-2.8
			c-0.3-0.3-0.4-0.8-0.4-1.3c0-0.7,0.3-1.3,0.7-1.8c-0.9-0.6-1.3-1.5-1.3-2.7c0-2.1,1.4-3.4,3.7-3.4c0.5,0,1,0.1,1.4,0.2
			c0.9-1,1.8-2,3-2.3L178.5,489.1L178.5,489.1z M176,501.4c0-1.3-2.1-1.3-3.7-1.8c-0.6,0.6-1,1.1-1,1.7c0,0.9,0.9,1.4,2.4,1.4
			C175,502.6,176,502.4,176,501.4z M172,492.8c0,1,0.6,1.6,1.6,1.6c1,0,1.7-0.6,1.7-1.6c0-1-0.6-1.7-1.7-1.7S172,491.8,172,492.8z"
			/>
	</g>
	<g>
		<g>
			
				<line fill="none" stroke="#010202" stroke-width="2" stroke-linecap="round" stroke-miterlimit="10" x1="264.8" y1="260" x2="661.7" y2="260"/>
			<g>
				<polygon fill="#010202" points="266.3,265 257.6,260 266.3,255 				"/>
			</g>
			<g>
				<polygon fill="#010202" points="660.2,265 668.8,260 660.2,255 				"/>
			</g>
		</g>
	</g>
	<g>
		<path d="M428.6,252.2h-1.8l-2.5-6.4l-2.5,6.4H420l-2.8-9.5h2.5l1.5,6.3l2.3-6.3h1.7l2.4,6.4l1.3-6.4h2.3L428.6,252.2z"/>
		<path d="M432.9,239.6c0-0.8,0.6-1.4,1.4-1.4c0.9,0,1.5,0.6,1.5,1.4c0,0.8-0.6,1.4-1.5,1.4C433.5,241,432.9,240.5,432.9,239.6z
			 M433.2,242.7h2.4v9.5h-2.4V242.7z"/>
		<path d="M446.8,251.9c-1.1,0.3-2.5,0.6-3.8,0.6c-3.2,0-4.8-1.7-4.8-4.9c0-3.2,1.7-5.1,4.6-5.1c0.8,0,1.2,0.1,1.7,0.3V238h2.4
			V251.9z M444.4,244.7c-0.4-0.2-1-0.3-1.5-0.3c-1.5,0-2.4,1.1-2.4,3c0,2,0.8,3.1,2.5,3.1c0.4,0,0.9-0.1,1.3-0.2V244.7L444.4,244.7z
			"/>
		<path d="M453.6,252.5c-2.2,0-3.3-1.1-3.3-3.4v-4.6h-1.4v-1.7h1.4v-3l2.4-0.6v3.6h2.5v1.7h-2.5v4.5c0,1,0.4,1.5,1.3,1.5
			c0.5,0,1-0.1,1.4-0.2l0.3,1.9C455.2,252.3,454.5,252.5,453.6,252.5z"/>
		<path d="M463.1,242.5c1.9,0,2.9,1.1,2.9,3.4v6.3h-2.4v-6.1c0-1-0.4-1.5-1.4-1.5c-0.7,0-1.5,0.4-2.4,1.1v6.6h-2.4V238h2.4v5.6
			C461,242.9,462,242.5,463.1,242.5z"/>
		<path d="M474.1,246.3c0-4.6,1.9-7.4,3.8-9.6l1.5,1.1c-1.5,2.1-3,4.3-3,8.4c0,4.1,1.4,6.3,3,8.5l-1.5,1.1
			C476,253.7,474.1,251,474.1,246.3z"/>
		<path d="M484.5,252.4c-2.9,0-4.5-1.8-4.5-4.9c0-3.3,1.7-5,4.7-5c1,0,1.8,0.2,2.5,0.5l-0.4,1.8c-0.7-0.3-1.3-0.4-2-0.4
			c-1.6,0-2.4,1-2.4,3c0,2.1,0.8,3.1,2.3,3.1c0.9,0,1.6-0.2,2.2-0.4l0.4,1.7C486.5,252.2,485.5,252.4,484.5,252.4z"/>
		<path d="M491.7,250.7c0.9,0,1.4-0.3,1.4-1c0-1.8-4.4-1.3-4.4-4.5c0-1.9,1.7-2.8,3.7-2.8c1,0,2,0.2,2.8,0.5l-0.5,1.8
			c-0.6-0.2-1.4-0.5-2.2-0.5c-0.9,0-1.4,0.3-1.4,0.9c0,1.7,4.5,1.2,4.5,4.5c0,2.1-1.7,2.8-3.8,2.8c-1.1,0-2.4-0.2-3.3-0.7l0.6-1.8
			C489.7,250.3,490.8,250.7,491.7,250.7z"/>
		<path d="M500,250.7c0.9,0,1.4-0.3,1.4-1c0-1.8-4.4-1.3-4.4-4.5c0-1.9,1.7-2.8,3.7-2.8c1,0,2,0.2,2.8,0.5l-0.5,1.8
			c-0.6-0.2-1.4-0.5-2.2-0.5c-0.9,0-1.4,0.3-1.4,0.9c0,1.7,4.5,1.2,4.5,4.5c0,2.1-1.7,2.8-3.8,2.8c-1.1,0-2.4-0.2-3.3-0.7l0.6-1.8
			C498,250.3,499.1,250.7,500,250.7z"/>
		<path d="M509.9,246.3c0,4.6-1.9,7.4-3.8,9.6l-1.5-1.1c1.5-2.1,3-4.3,3-8.4c0-4.1-1.4-6.3-3-8.5l1.5-1.1
			C508,238.9,509.9,241.6,509.9,246.3z"/>
	</g>
	<g>
		<g>
			
				<line fill="none" stroke="#010202" stroke-width="2" stroke-linecap="round" stroke-miterlimit="10" x1="740" y1="374.2" x2="740" y2="590.3"/>
			<g>
				<polygon fill="#010202" points="735,375.6 740,367 745,375.6 				"/>
			</g>
			<g>
				<polygon fill="#010202" points="735,588.9 740,597.5 745,588.9 				"/>
			</g>
		</g>
	</g>
	<g>
		<path d="M757.5,440.9c0,1.9-1.1,2.9-3.4,2.9h-6.3v-2.4h6.1c1,0,1.5-0.4,1.5-1.4c0-0.7-0.4-1.5-1.1-2.4h-6.6v-2.4H762v2.4h-5.6
			C757.1,438.8,757.5,439.8,757.5,440.9z"/>
		<path d="M748.3,454.2c-0.5-1-0.8-2.1-0.8-3.5c0-2.9,1.8-4.5,5-4.5s5,1.6,5,4.4c0,2.4-1.5,3.7-4,3.7c-0.4,0-0.9,0-1.4-0.1v-5.8
			c-1.8,0.1-2.8,0.9-2.8,2.5c0,1,0.3,1.9,0.7,2.8L748.3,454.2L748.3,454.2z M755.8,450.6c0-1.2-0.7-1.9-2.2-2.1v3.9
			C755,452.4,755.8,451.8,755.8,450.6z"/>
		<path d="M757.3,457v2.4h-9.5V457H757.3z M760.4,456.8c0.8,0,1.4,0.6,1.4,1.4c0,0.9-0.6,1.5-1.4,1.5c-0.8,0-1.4-0.6-1.4-1.5
			C759,457.4,759.5,456.8,760.4,456.8z"/>
		<path d="M757.9,470.7c-0.2-0.8-0.6-1.6-1.3-2.1c-0.6,0.7-1.5,1-2.6,1c-2,0-3.2-1.4-3.2-3.7c0-0.3,0-0.5,0-0.7
			c-0.2-0.2-0.5-0.3-0.8-0.3c-1.8,0-0.6,5.6-4.2,5.6c-2.5,0-3-2.4-3-4.6c0-2.4,0.9-4.2,2.8-4.2c1.2,0,2.1,0.8,2.8,1.6
			c0.3-0.3,0.8-0.4,1.3-0.4c0.7,0,1.3,0.3,1.8,0.7c0.6-0.9,1.5-1.3,2.7-1.3c2.1,0,3.4,1.4,3.4,3.7c0,0.5-0.1,1-0.2,1.4
			c1,0.9,2,1.8,2.3,3L757.9,470.7L757.9,470.7z M745.6,468.2c1.3,0,1.3-2.1,1.8-3.7c-0.6-0.6-1.1-1-1.7-1c-0.9,0-1.4,0.9-1.4,2.4
			C744.4,467.2,744.6,468.2,745.6,468.2z M754.2,464.2c-1,0-1.6,0.6-1.6,1.6c0,1,0.6,1.7,1.6,1.7c1,0,1.7-0.6,1.7-1.7
			S755.2,464.2,754.2,464.2z"/>
		<path d="M757.5,478.2c0,1.9-1.1,2.9-3.4,2.9h-6.3v-2.4h6.1c1,0,1.5-0.4,1.5-1.4c0-0.7-0.4-1.5-1.1-2.4h-6.6v-2.4H762v2.4h-5.6
			C757.1,476.1,757.5,477.1,757.5,478.2z"/>
		<path d="M747.5,487.8c0-2.2,1.1-3.3,3.4-3.3h4.6v-1.4h1.7v1.4h3l0.6,2.4h-3.6v2.5h-1.7v-2.5H751c-1,0-1.5,0.4-1.5,1.3
			c0,0.5,0.1,1,0.2,1.4l-1.9,0.3C747.7,489.4,747.5,488.7,747.5,487.8z"/>
		<path d="M753.7,496.5c4.6,0,7.4,1.9,9.6,3.8l-1.1,1.5c-2.1-1.5-4.3-3-8.4-3c-4.1,0-6.3,1.4-8.5,3l-1.1-1.5
			C746.3,498.4,749,496.5,753.7,496.5z"/>
		<path d="M747.6,506.9c0-2.9,1.8-4.5,4.9-4.5c3.3,0,5,1.7,5,4.7c0,1-0.2,1.8-0.5,2.5l-1.8-0.4c0.3-0.7,0.4-1.3,0.4-2
			c0-1.6-1-2.4-3-2.4c-2.1,0-3.1,0.8-3.1,2.3c0,0.9,0.2,1.6,0.4,2.2l-1.7,0.4C747.8,508.9,747.6,507.9,747.6,506.9z"/>
		<path d="M749.3,514.1c0,0.9,0.3,1.4,1,1.4c1.8,0,1.3-4.4,4.5-4.4c1.9,0,2.8,1.7,2.8,3.7c0,1-0.2,2-0.5,2.8l-1.8-0.5
			c0.2-0.6,0.5-1.4,0.5-2.2c0-0.9-0.3-1.4-0.9-1.4c-1.7,0-1.2,4.5-4.5,4.5c-2.1,0-2.8-1.7-2.8-3.8c0-1.1,0.2-2.4,0.7-3.3l1.8,0.6
			C749.7,512.1,749.3,513.2,749.3,514.1z"/>
		<path d="M749.3,522.4c0,0.9,0.3,1.4,1,1.4c1.8,0,1.3-4.4,4.5-4.4c1.9,0,2.8,1.7,2.8,3.7c0,1-0.2,2-0.5,2.8l-1.8-0.5
			c0.2-0.6,0.5-1.4,0.5-2.2c0-0.9-0.3-1.4-0.9-1.4c-1.7,0-1.2,4.5-4.5,4.5c-2.1,0-2.8-1.7-2.8-3.8c0-1.1,0.2-2.4,0.7-3.3l1.8,0.6
			C749.7,520.4,749.3,521.5,749.3,522.4z"/>
		<path d="M753.7,532.3c-4.6,0-7.4-1.9-9.6-3.8l1.1-1.5c2.1,1.5,4.3,3,8.4,3c4.1,0,6.3-1.4,8.5-3l1.1,1.5
			C761.1,530.4,758.4,532.3,753.7,532.3z"/>
	</g>
	<g>
		<g>
			
				<line fill="none" stroke="#010202" stroke-width="2" stroke-linecap="round" stroke-miterlimit="10" x1="773" y1="352.2" x2="773" y2="612.3"/>
			<g>
				<polygon fill="#010202" points="768,353.6 773,345 778,353.6 				"/>
			</g>
			<g>
				<polygon fill="#010202" points="768,610.9 773,619.5 778,610.9 				"/>
			</g>
		</g>
	</g>
	<g>
		<path d="M781.3,396.8c-0.5-1-0.8-2.1-0.8-3.5c0-2.9,1.8-4.5,5-4.5s5,1.6,5,4.4c0,2.4-1.5,3.7-4,3.7c-0.4,0-0.9,0-1.4-0.1v-5.8
			c-1.8,0.1-2.8,0.9-2.8,2.5c0,1,0.3,1.9,0.7,2.8L781.3,396.8L781.3,396.8z M788.8,393.2c0-1.2-0.7-1.9-2.2-2.1v3.9
			C788,395,788.8,394.4,788.8,393.2z"/>
		<path d="M795,399.6v2.4h-14.2v-2.4H795z"/>
		<path d="M781.3,412.5c-0.5-1-0.8-2.1-0.8-3.5c0-2.9,1.8-4.5,5-4.5s5,1.6,5,4.4c0,2.4-1.5,3.7-4,3.7c-0.4,0-0.9,0-1.4-0.1v-5.8
			c-1.8,0.1-2.8,0.9-2.8,2.5c0,1,0.3,1.9,0.7,2.8L781.3,412.5L781.3,412.5z M788.8,408.9c0-1.2-0.7-1.9-2.2-2.1v3.9
			C788,410.7,788.8,410,788.8,408.9z"/>
		<path d="M789.3,417.6c0.8,1.2,1.2,2.2,1.2,3.3c0,1.1-0.4,2-1.4,2.5c1.1,1.5,1.4,2.6,1.4,3.6c0,1.7-0.8,2.8-3.3,2.8h-6.4v-2.4h6
			c1,0,1.6-0.4,1.6-1.3c0-0.6-0.3-1.4-1.1-2.3h-0.1h-6.4v-2.4h6c1,0,1.6-0.4,1.6-1.3c0-0.7-0.4-1.5-1.1-2.3h-6.5v-2.4h9.5v2.2H789.3
			L789.3,417.6z"/>
		<path d="M781.3,440.2c-0.5-1-0.8-2.1-0.8-3.5c0-2.9,1.8-4.5,5-4.5s5,1.6,5,4.4c0,2.4-1.5,3.7-4,3.7c-0.4,0-0.9,0-1.4-0.1v-5.8
			c-1.8,0.1-2.8,0.9-2.8,2.5c0,1,0.3,1.9,0.7,2.8L781.3,440.2L781.3,440.2z M788.8,436.6c0-1.2-0.7-1.9-2.2-2.1v3.9
			C788,438.4,788.8,437.8,788.8,436.6z"/>
		<path d="M790.5,448.7c0,1.9-1.1,2.9-3.4,2.9h-6.3v-2.4h6.1c1,0,1.5-0.4,1.5-1.4c0-0.7-0.4-1.5-1.1-2.4h-6.6V443h9.5v2.3l-1,0
			C790.1,446.5,790.5,447.5,790.5,448.7z"/>
		<path d="M780.5,458.3c0-2.2,1.1-3.3,3.4-3.3h4.6v-1.4h1.7v1.4h3l0.6,2.4h-3.6v2.5h-1.7v-2.5H784c-1,0-1.5,0.4-1.5,1.3
			c0,0.5,0.1,1,0.2,1.4l-1.9,0.3C780.7,459.9,780.5,459.2,780.5,458.3z"/>
		<path d="M782.1,462.7c0.8,0,1.5,0.6,1.5,1.4c0,0.8-0.6,1.5-1.5,1.5c-0.8,0-1.4-0.6-1.4-1.5C780.6,463.3,781.3,462.7,782.1,462.7z"
			/>
		<path d="M780.6,472c0-2.9,1.8-4.5,4.9-4.5c3.3,0,5,1.7,5,4.7c0,1-0.2,1.8-0.5,2.5l-1.8-0.4c0.3-0.7,0.4-1.3,0.4-2
			c0-1.6-1-2.4-3-2.4c-2.1,0-3.1,0.8-3.1,2.3c0,0.9,0.2,1.6,0.4,2.2l-1.7,0.4C780.8,474.1,780.6,473.1,780.6,472z"/>
		<path d="M795,476.9v2.4h-14.2v-2.4H795z"/>
		<path d="M790.3,482.6v2.4h-9.5v-2.4H790.3z M793.4,482.4c0.8,0,1.4,0.6,1.4,1.4c0,0.9-0.6,1.5-1.4,1.5c-0.8,0-1.4-0.6-1.4-1.5
			C792,483,792.5,482.4,793.4,482.4z"/>
		<path d="M781.3,495.5c-0.5-1-0.8-2.1-0.8-3.5c0-2.9,1.8-4.5,5-4.5s5,1.6,5,4.4c0,2.4-1.5,3.7-4,3.7c-0.4,0-0.9,0-1.4-0.1v-5.8
			c-1.8,0.1-2.8,0.9-2.8,2.5c0,1,0.3,1.9,0.7,2.8L781.3,495.5L781.3,495.5z M788.8,491.9c0-1.2-0.7-1.9-2.2-2.1v3.9
			C788,493.7,788.8,493.1,788.8,491.9z"/>
		<path d="M790.5,504c0,1.9-1.1,2.9-3.4,2.9h-6.3v-2.4h6.1c1,0,1.5-0.4,1.5-1.4c0-0.7-0.4-1.5-1.1-2.4h-6.6v-2.4h9.5v2.3l-1,0
			C790.1,501.8,790.5,502.8,790.5,504z"/>
		<path d="M780.5,513.6c0-2.2,1.1-3.3,3.4-3.3h4.6v-1.4h1.7v1.4h3l0.6,2.4h-3.6v2.5h-1.7v-2.5H784c-1,0-1.5,0.4-1.5,1.3
			c0,0.5,0.1,1,0.2,1.4l-1.9,0.3C780.7,515.2,780.5,514.5,780.5,513.6z"/>
		<path d="M786.4,525.8v-5.7h-5.6v-2.4h13v2.4h-5.4v5.7h5.4v2.4h-13v-2.4H786.4z"/>
		<path d="M781.3,539c-0.5-1-0.8-2.1-0.8-3.5c0-2.9,1.8-4.5,5-4.5s5,1.6,5,4.4c0,2.4-1.5,3.7-4,3.7c-0.4,0-0.9,0-1.4-0.1v-5.8
			c-1.8,0.1-2.8,0.9-2.8,2.5c0,1,0.3,1.9,0.7,2.8L781.3,539L781.3,539z M788.8,535.4c0-1.2-0.7-1.9-2.2-2.1v3.9
			C788,537.2,788.8,536.5,788.8,535.4z"/>
		<path d="M790.3,541.8v2.4h-9.5v-2.4H790.3z M793.4,541.5c0.8,0,1.4,0.6,1.4,1.4c0,0.9-0.6,1.5-1.4,1.5c-0.8,0-1.4-0.6-1.4-1.5
			C792,542.1,792.5,541.5,793.4,541.5z"/>
		<path d="M790.9,555.4c-0.2-0.8-0.6-1.6-1.3-2.1c-0.6,0.7-1.5,1-2.6,1c-2,0-3.2-1.4-3.2-3.7c0-0.3,0-0.5,0-0.7
			c-0.2-0.2-0.5-0.3-0.8-0.3c-1.8,0-0.6,5.6-4.2,5.6c-2.5,0-3-2.4-3-4.6c0-2.4,0.9-4.2,2.8-4.2c1.2,0,2.1,0.8,2.8,1.6
			c0.3-0.3,0.8-0.4,1.3-0.4c0.7,0,1.3,0.3,1.8,0.7c0.6-0.9,1.5-1.3,2.7-1.3c2.1,0,3.4,1.4,3.4,3.7c0,0.5-0.1,1-0.2,1.4
			c1,0.9,2,1.8,2.3,3L790.9,555.4L790.9,555.4z M778.6,552.9c1.3,0,1.3-2.1,1.8-3.7c-0.6-0.6-1.1-1-1.7-1c-0.9,0-1.4,0.9-1.4,2.4
			C777.4,551.9,777.6,552.9,778.6,552.9z M787.2,548.9c-1,0-1.6,0.6-1.6,1.6c0,1,0.6,1.7,1.6,1.7c1,0,1.7-0.6,1.7-1.7
			C788.8,549.5,788.2,548.9,787.2,548.9z"/>
		<path d="M790.5,562.9c0,1.9-1.1,2.9-3.4,2.9h-6.3v-2.4h6.1c1,0,1.5-0.4,1.5-1.4c0-0.7-0.4-1.5-1.1-2.4h-6.6v-2.4H795v2.4h-5.6
			C790.1,560.8,790.5,561.8,790.5,562.9z"/>
		<path d="M780.5,572.5c0-2.2,1.1-3.3,3.4-3.3h4.6v-1.4h1.7v1.4h3l0.6,2.4h-3.6v2.5h-1.7v-2.5H784c-1,0-1.5,0.4-1.5,1.3
			c0,0.5,0.1,1,0.2,1.4l-1.9,0.3C780.7,574.1,780.5,573.4,780.5,572.5z"/>
	</g>
	<g>
		<g>
			
				<line fill="none" stroke="#010202" stroke-width="2" stroke-linecap="round" stroke-miterlimit="10" x1="803" y1="286.2" x2="803" y2="686.8"/>
			<g>
				<polygon fill="#010202" points="798,287.6 803,279 808,287.6 				"/>
			</g>
			<g>
				<polygon fill="#010202" points="798,685.4 803,694 808,685.4 				"/>
			</g>
		</g>
	</g>
	<g>
		<path d="M811.3,397.6c-0.5-1-0.8-2.1-0.8-3.5c0-2.9,1.8-4.5,5-4.5s5,1.6,5,4.4c0,2.4-1.5,3.7-4,3.7c-0.4,0-0.9,0-1.4-0.1v-5.8
			c-1.8,0.1-2.8,0.9-2.8,2.5c0,1,0.3,1.9,0.7,2.8L811.3,397.6L811.3,397.6z M818.8,394c0-1.2-0.7-1.9-2.2-2.1v3.9
			C818,395.8,818.8,395.1,818.8,394z"/>
		<path d="M825,400.4v2.4h-14.2v-2.4H825z"/>
		<path d="M811.3,413.3c-0.5-1-0.8-2.1-0.8-3.5c0-2.9,1.8-4.5,5-4.5s5,1.6,5,4.4c0,2.4-1.5,3.7-4,3.7c-0.4,0-0.9,0-1.4-0.1v-5.8
			c-1.8,0.1-2.8,0.9-2.8,2.5c0,1,0.3,1.9,0.7,2.8L811.3,413.3L811.3,413.3z M818.8,409.7c0-1.2-0.7-1.9-2.2-2.1v3.9
			C818,411.5,818.8,410.8,818.8,409.7z"/>
		<path d="M819.3,418.3c0.8,1.2,1.2,2.2,1.2,3.3c0,1.1-0.4,2-1.4,2.5c1.1,1.5,1.4,2.6,1.4,3.6c0,1.7-0.8,2.8-3.3,2.8h-6.4v-2.4h6
			c1,0,1.6-0.4,1.6-1.3c0-0.6-0.3-1.4-1.1-2.3h-0.1h-6.4v-2.4h6c1,0,1.6-0.4,1.6-1.3c0-0.7-0.4-1.5-1.1-2.3h-6.5v-2.4h9.5v2.2H819.3
			L819.3,418.3z"/>
		<path d="M811.3,441c-0.5-1-0.8-2.1-0.8-3.5c0-2.9,1.8-4.5,5-4.5s5,1.6,5,4.4c0,2.4-1.5,3.7-4,3.7c-0.4,0-0.9,0-1.4-0.1v-5.8
			c-1.8,0.1-2.8,0.9-2.8,2.5c0,1,0.3,1.9,0.7,2.8L811.3,441L811.3,441z M818.8,437.4c0-1.2-0.7-1.9-2.2-2.1v3.9
			C818,439.2,818.8,438.5,818.8,437.4z"/>
		<path d="M820.5,449.4c0,1.9-1.1,2.9-3.4,2.9h-6.3V450h6.1c1,0,1.5-0.4,1.5-1.4c0-0.7-0.4-1.5-1.1-2.4h-6.6v-2.4h9.5v2.3l-1,0
			C820.1,447.3,820.5,448.3,820.5,449.4z"/>
		<path d="M810.5,459.1c0-2.2,1.1-3.3,3.4-3.3h4.6v-1.4h1.7v1.4h3l0.6,2.4h-3.6v2.5h-1.7v-2.5H814c-1,0-1.5,0.4-1.5,1.3
			c0,0.5,0.1,1,0.2,1.4l-1.9,0.3C810.7,460.6,810.5,460,810.5,459.1z"/>
		<path d="M812.1,463.4c0.8,0,1.5,0.6,1.5,1.4c0,0.8-0.6,1.5-1.5,1.5c-0.8,0-1.4-0.6-1.4-1.5C810.6,464,811.3,463.4,812.1,463.4z"/>
		<path d="M812.3,471.5c0,0.9,0.3,1.4,1,1.4c1.8,0,1.3-4.4,4.5-4.4c1.9,0,2.8,1.7,2.8,3.7c0,1-0.2,2-0.5,2.8l-1.8-0.5
			c0.2-0.6,0.5-1.4,0.5-2.2c0-0.9-0.3-1.4-0.9-1.4c-1.7,0-1.2,4.5-4.5,4.5c-2.1,0-2.8-1.7-2.8-3.8c0-1.1,0.2-2.4,0.7-3.3l1.8,0.6
			C812.7,469.5,812.3,470.6,812.3,471.5z"/>
		<path d="M810.6,481.2c0-2.9,1.8-4.5,4.9-4.5c3.3,0,5,1.7,5,4.7c0,1-0.2,1.8-0.5,2.5l-1.8-0.4c0.3-0.7,0.4-1.3,0.4-2
			c0-1.6-1-2.4-3-2.4c-2.1,0-3.1,0.8-3.1,2.3c0,0.9,0.2,1.6,0.4,2.2l-1.7,0.4C810.8,483.2,810.6,482.2,810.6,481.2z"/>
		<path d="M816.1,488.5h-5.3v-2.4h9.5v2.4h-1.8c1.5,1.2,2.3,2.4,1.8,4.1l-2.2-0.3C818.4,490.8,817.9,489.6,816.1,488.5z"/>
		<path d="M815.7,502.7c-3.2,0-5.2-1.8-5.2-4.7c0-2.9,1.8-4.6,5-4.6c3.1,0,5,1.8,5,4.8C820.5,501,818.7,502.7,815.7,502.7z
			 M815.6,500.3c2,0,3.1-0.8,3.1-2.2c0-1.4-1.1-2.2-3.1-2.2c-2.1,0-3.2,0.8-3.2,2.3C812.4,499.5,813.5,500.3,815.6,500.3z"/>
		<path d="M825,505.3v2.4h-14.2v-2.4H825z"/>
		<path d="M825,511v2.4h-14.2V511H825z"/>
		<path d="M816.4,525.1v-5.7h-5.6v-2.4h13v2.4h-5.4v5.7h5.4v2.4h-13v-2.4H816.4z"/>
		<path d="M811.3,538.2c-0.5-1-0.8-2.1-0.8-3.5c0-2.9,1.8-4.5,5-4.5s5,1.6,5,4.4c0,2.4-1.5,3.7-4,3.7c-0.4,0-0.9,0-1.4-0.1v-5.8
			c-1.8,0.1-2.8,0.9-2.8,2.5c0,1,0.3,1.9,0.7,2.8L811.3,538.2L811.3,538.2z M818.8,534.6c0-1.2-0.7-1.9-2.2-2.1v3.9
			C818,536.4,818.8,535.7,818.8,534.6z"/>
		<path d="M820.3,541v2.4h-9.5V541H820.3z M823.4,540.8c0.8,0,1.4,0.6,1.4,1.4c0,0.9-0.6,1.5-1.4,1.5c-0.8,0-1.4-0.6-1.4-1.5
			C822,541.3,822.5,540.8,823.4,540.8z"/>
		<path d="M820.9,554.7c-0.2-0.8-0.6-1.6-1.3-2.1c-0.6,0.7-1.5,1-2.6,1c-2,0-3.2-1.4-3.2-3.7c0-0.3,0-0.5,0-0.7
			c-0.2-0.2-0.5-0.3-0.8-0.3c-1.8,0-0.6,5.6-4.2,5.6c-2.5,0-3-2.4-3-4.6c0-2.4,0.9-4.2,2.8-4.2c1.2,0,2.1,0.8,2.8,1.6
			c0.3-0.3,0.8-0.4,1.3-0.4c0.7,0,1.3,0.3,1.8,0.7c0.6-0.9,1.5-1.3,2.7-1.3c2.1,0,3.4,1.4,3.4,3.7c0,0.5-0.1,1-0.2,1.4
			c1,0.9,2,1.8,2.3,3L820.9,554.7L820.9,554.7z M808.6,552.2c1.3,0,1.3-2.1,1.8-3.7c-0.6-0.6-1.1-1-1.7-1c-0.9,0-1.4,0.9-1.4,2.4
			C807.4,551.2,807.6,552.2,808.6,552.2z M817.2,548.2c-1,0-1.6,0.6-1.6,1.6c0,1,0.6,1.7,1.6,1.7c1,0,1.7-0.6,1.7-1.7
			C818.8,548.8,818.2,548.2,817.2,548.2z"/>
		<path d="M820.5,562.1c0,1.9-1.1,2.9-3.4,2.9h-6.3v-2.4h6.1c1,0,1.5-0.4,1.5-1.4c0-0.7-0.4-1.5-1.1-2.4h-6.6v-2.4H825v2.4h-5.6
			C820.1,560,820.5,561,820.5,562.1z"/>
		<path d="M810.5,571.8c0-2.2,1.1-3.3,3.4-3.3h4.6v-1.4h1.7v1.4h3l0.6,2.4h-3.6v2.5h-1.7v-2.5H814c-1,0-1.5,0.4-1.5,1.3
			c0,0.5,0.1,1,0.2,1.4l-1.9,0.3C810.7,573.3,810.5,572.6,810.5,571.8z"/>
	</g>
	<g>
		<g>
			
				<line fill="none" stroke="#010202" stroke-width="2" stroke-linecap="round" stroke-miterlimit="10" x1="879" y1="342.7" x2="879" y2="622.3"/>
			<g>
				<polygon fill="#010202" points="874,344.1 879,335.5 884,344.1 				"/>
			</g>
			<g>
				<polygon fill="#010202" points="874,620.9 879,629.5 884,620.9 				"/>
			</g>
		</g>
	</g>
	<g>
		<path d="M887.3,397.2c-0.5-1-0.8-2.1-0.8-3.5c0-2.9,1.8-4.5,5-4.5s5,1.6,5,4.4c0,2.4-1.5,3.7-4,3.7c-0.4,0-0.9,0-1.4-0.1v-5.8
			c-1.8,0.1-2.8,0.9-2.8,2.5c0,1,0.3,1.9,0.7,2.8L887.3,397.2L887.3,397.2z M894.8,393.6c0-1.2-0.7-1.9-2.2-2.1v3.9
			C894,395.4,894.8,394.7,894.8,393.6z"/>
		<path d="M901,400v2.4h-14.2V400H901z"/>
		<path d="M887.3,412.9c-0.5-1-0.8-2.1-0.8-3.5c0-2.9,1.8-4.5,5-4.5s5,1.6,5,4.4c0,2.4-1.5,3.7-4,3.7c-0.4,0-0.9,0-1.4-0.1v-5.8
			c-1.8,0.1-2.8,0.9-2.8,2.5c0,1,0.3,1.9,0.7,2.8L887.3,412.9L887.3,412.9z M894.8,409.3c0-1.2-0.7-1.9-2.2-2.1v3.9
			C894,411.1,894.8,410.4,894.8,409.3z"/>
		<path d="M895.3,417.9c0.8,1.2,1.2,2.2,1.2,3.3c0,1.1-0.4,2-1.4,2.5c1.1,1.5,1.4,2.6,1.4,3.6c0,1.7-0.8,2.8-3.3,2.8h-6.4v-2.4h6
			c1,0,1.6-0.4,1.6-1.3c0-0.6-0.3-1.4-1.1-2.3h-0.1h-6.4v-2.4h6c1,0,1.6-0.4,1.6-1.3c0-0.7-0.4-1.5-1.1-2.3h-6.5v-2.4h9.5v2.2H895.3
			L895.3,417.9z"/>
		<path d="M887.3,440.6c-0.5-1-0.8-2.1-0.8-3.5c0-2.9,1.8-4.5,5-4.5s5,1.6,5,4.4c0,2.4-1.5,3.7-4,3.7c-0.4,0-0.9,0-1.4-0.1v-5.8
			c-1.8,0.1-2.8,0.9-2.8,2.5c0,1,0.3,1.9,0.7,2.8L887.3,440.6L887.3,440.6z M894.8,437c0-1.2-0.7-1.9-2.2-2.1v3.9
			C894,438.8,894.8,438.1,894.8,437z"/>
		<path d="M896.5,449c0,1.9-1.1,2.9-3.4,2.9h-6.3v-2.4h6.1c1,0,1.5-0.4,1.5-1.4c0-0.7-0.4-1.5-1.1-2.4h-6.6v-2.4h9.5v2.3l-1,0
			C896.1,446.9,896.5,447.9,896.5,449z"/>
		<path d="M886.5,458.7c0-2.2,1.1-3.3,3.4-3.3h4.6V454h1.7v1.4h3l0.6,2.4h-3.6v2.5h-1.7v-2.5H890c-1,0-1.5,0.4-1.5,1.3
			c0,0.5,0.1,1,0.2,1.4l-1.9,0.3C886.7,460.2,886.5,459.6,886.5,458.7z"/>
		<path d="M888.1,463c0.8,0,1.5,0.6,1.5,1.4c0,0.8-0.6,1.5-1.5,1.5c-0.8,0-1.4-0.6-1.4-1.5C886.6,463.6,887.3,463,888.1,463z"/>
		<path d="M891.7,477.3c-3.2,0-5.2-1.8-5.2-4.7c0-2.9,1.8-4.6,5-4.6c3.1,0,5,1.8,5,4.8C896.5,475.7,894.7,477.3,891.7,477.3z
			 M891.6,474.9c2,0,3.1-0.8,3.1-2.2c0-1.4-1.1-2.2-3.1-2.2c-2.1,0-3.2,0.8-3.2,2.3C888.4,474.1,889.5,474.9,891.6,474.9z"/>
		<path d="M899.2,491.9c0.2-0.6,0.3-1.2,0.3-1.7c0-1.4-0.7-1.7-2-1.7h-1.1v2.5h-1.7v-2.5h-7.8v-2.4h7.8v-3.5h-7.8v-2.4h7.8v-1.4h1.7
			v1.4h0.2c2.9,0,4.1,1.6,4.1,4.4c0,0.9-0.1,1.7-0.4,2.5c0.6,0.6,1,1.6,1,2.9c0,0.9-0.1,1.6-0.3,2.3L899.2,491.9L899.2,491.9z
			 M896.3,486.1h1c0.5,0,0.9,0,1.3,0.1c0.1-0.5,0.2-1,0.2-1.6c0-1.4-0.8-2.1-2.2-2.1h-0.3L896.3,486.1L896.3,486.1z"/>
		<path d="M888.3,494.7c0,0.9,0.3,1.4,1,1.4c1.8,0,1.3-4.4,4.5-4.4c1.9,0,2.8,1.7,2.8,3.7c0,1-0.2,2-0.5,2.8l-1.8-0.5
			c0.2-0.6,0.5-1.4,0.5-2.2c0-0.9-0.3-1.4-0.9-1.4c-1.7,0-1.2,4.5-4.5,4.5c-2.1,0-2.8-1.7-2.8-3.8c0-1.1,0.2-2.4,0.7-3.3l1.8,0.6
			C888.7,492.8,888.3,493.9,888.3,494.7z"/>
		<path d="M887.3,508c-0.5-1-0.8-2.1-0.8-3.5c0-2.9,1.8-4.5,5-4.5s5,1.6,5,4.4c0,2.4-1.5,3.7-4,3.7c-0.4,0-0.9,0-1.4-0.1v-5.8
			c-1.8,0.1-2.8,0.9-2.8,2.5c0,1,0.3,1.9,0.7,2.8L887.3,508L887.3,508z M894.8,504.4c0-1.2-0.7-1.9-2.2-2.1v3.9
			C894,506.2,894.8,505.5,894.8,504.4z"/>
		<path d="M886.5,514.3c0-2.2,1.1-3.3,3.4-3.3h4.6v-1.4h1.7v1.4h3l0.6,2.4h-3.6v2.5h-1.7v-2.5H890c-1,0-1.5,0.4-1.5,1.3
			c0,0.5,0.1,1,0.2,1.4l-1.9,0.3C886.7,515.8,886.5,515.1,886.5,514.3z"/>
		<path d="M892.4,526.5v-5.7h-5.6v-2.4h13v2.4h-5.4v5.7h5.4v2.4h-13v-2.4H892.4z"/>
		<path d="M887.3,539.6c-0.5-1-0.8-2.1-0.8-3.5c0-2.9,1.8-4.5,5-4.5s5,1.6,5,4.4c0,2.4-1.5,3.7-4,3.7c-0.4,0-0.9,0-1.4-0.1v-5.8
			c-1.8,0.1-2.8,0.9-2.8,2.5c0,1,0.3,1.9,0.7,2.8L887.3,539.6L887.3,539.6z M894.8,536c0-1.2-0.7-1.9-2.2-2.1v3.9
			C894,537.8,894.8,537.1,894.8,536z"/>
		<path d="M896.3,542.4v2.4h-9.5v-2.4H896.3z M899.4,542.2c0.8,0,1.4,0.6,1.4,1.4c0,0.9-0.6,1.5-1.4,1.5c-0.8,0-1.4-0.6-1.4-1.5
			C898,542.7,898.5,542.2,899.4,542.2z"/>
		<path d="M896.9,556.1c-0.2-0.8-0.6-1.6-1.3-2.1c-0.6,0.7-1.5,1-2.6,1c-2,0-3.2-1.4-3.2-3.7c0-0.3,0-0.5,0-0.7
			c-0.2-0.2-0.5-0.3-0.8-0.3c-1.8,0-0.6,5.6-4.2,5.6c-2.5,0-3-2.4-3-4.6c0-2.4,0.9-4.2,2.8-4.2c1.2,0,2.1,0.8,2.8,1.6
			c0.3-0.3,0.8-0.4,1.3-0.4c0.7,0,1.3,0.3,1.8,0.7c0.6-0.9,1.5-1.3,2.7-1.3c2.1,0,3.4,1.4,3.4,3.7c0,0.5-0.1,1-0.2,1.4
			c1,0.9,2,1.8,2.3,3L896.9,556.1L896.9,556.1z M884.6,553.6c1.3,0,1.3-2.1,1.8-3.7c-0.6-0.6-1.1-1-1.7-1c-0.9,0-1.4,0.9-1.4,2.4
			C883.4,552.6,883.6,553.6,884.6,553.6z M893.2,549.6c-1,0-1.6,0.6-1.6,1.6c0,1,0.6,1.7,1.6,1.7c1,0,1.7-0.6,1.7-1.7
			C894.8,550.2,894.2,549.6,893.2,549.6z"/>
		<path d="M896.5,563.5c0,1.9-1.1,2.9-3.4,2.9h-6.3v-2.4h6.1c1,0,1.5-0.4,1.5-1.4c0-0.7-0.4-1.5-1.1-2.4h-6.6v-2.4H901v2.4h-5.6
			C896.1,561.4,896.5,562.4,896.5,563.5z"/>
		<path d="M886.5,573.2c0-2.2,1.1-3.3,3.4-3.3h4.6v-1.4h1.7v1.4h3l0.6,2.4h-3.6v2.5h-1.7v-2.5H890c-1,0-1.5,0.4-1.5,1.3
			c0,0.5,0.1,1,0.2,1.4l-1.9,0.3C886.7,574.7,886.5,574,886.5,573.2z"/>
	</g>
	<g>
		<g>
			
				<line fill="none" stroke="#010202" stroke-width="2" stroke-linecap="round" stroke-miterlimit="10" x1="879" y1="81.2" x2="879" y2="328.3"/>
			<g>
				<polygon fill="#010202" points="874,82.6 879,74 884,82.6 				"/>
			</g>
			<g>
				<polygon fill="#010202" points="874,326.9 879,335.5 884,326.9 				"/>
			</g>
		</g>
	</g>
	<g>
		<path d="M887.3,112.4c-0.5-1-0.8-2.1-0.8-3.5c0-2.9,1.8-4.5,5-4.5s5,1.6,5,4.4c0,2.4-1.5,3.7-4,3.7c-0.4,0-0.9,0-1.4-0.1v-5.8
			c-1.8,0.1-2.8,0.9-2.8,2.5c0,1,0.3,1.9,0.7,2.8L887.3,112.4L887.3,112.4z M894.8,108.7c0-1.2-0.7-1.9-2.2-2.1v3.9
			C894,110.5,894.8,109.9,894.8,108.7z"/>
		<path d="M901,115.1v2.4h-14.2v-2.4H901z"/>
		<path d="M887.3,128c-0.5-1-0.8-2.1-0.8-3.5c0-2.9,1.8-4.5,5-4.5s5,1.6,5,4.4c0,2.4-1.5,3.7-4,3.7c-0.4,0-0.9,0-1.4-0.1v-5.8
			c-1.8,0.1-2.8,0.9-2.8,2.5c0,1,0.3,1.9,0.7,2.8L887.3,128L887.3,128z M894.8,124.4c0-1.2-0.7-1.9-2.2-2.1v3.9
			C894,126.2,894.8,125.6,894.8,124.4z"/>
		<path d="M895.3,133.1c0.8,1.2,1.2,2.2,1.2,3.3c0,1.1-0.4,2-1.4,2.5c1.1,1.5,1.4,2.6,1.4,3.6c0,1.7-0.8,2.8-3.3,2.8h-6.4v-2.4h6
			c1,0,1.6-0.4,1.6-1.3c0-0.6-0.3-1.4-1.1-2.3h-0.1h-6.4v-2.4h6c1,0,1.6-0.4,1.6-1.3c0-0.7-0.4-1.5-1.1-2.3h-6.5v-2.4h9.5v2.2H895.3
			L895.3,133.1z"/>
		<path d="M887.3,155.8c-0.5-1-0.8-2.1-0.8-3.5c0-2.9,1.8-4.5,5-4.5s5,1.6,5,4.4c0,2.4-1.5,3.7-4,3.7c-0.4,0-0.9,0-1.4-0.1V150
			c-1.8,0.1-2.8,0.9-2.8,2.5c0,1,0.3,1.9,0.7,2.8L887.3,155.8L887.3,155.8z M894.8,152.1c0-1.2-0.7-1.9-2.2-2.1v3.9
			C894,154,894.8,153.3,894.8,152.1z"/>
		<path d="M896.5,164.2c0,1.9-1.1,2.9-3.4,2.9h-6.3v-2.4h6.1c1,0,1.5-0.4,1.5-1.4c0-0.7-0.4-1.5-1.1-2.4h-6.6v-2.4h9.5v2.3l-1,0
			C896.1,162,896.5,163,896.5,164.2z"/>
		<path d="M886.5,173.8c0-2.2,1.1-3.3,3.4-3.3h4.6v-1.4h1.7v1.4h3l0.6,2.4h-3.6v2.5h-1.7v-2.5H890c-1,0-1.5,0.4-1.5,1.3
			c0,0.5,0.1,1,0.2,1.4l-1.9,0.3C886.7,175.4,886.5,174.7,886.5,173.8z"/>
		<path d="M888.1,178.2c0.8,0,1.5,0.6,1.5,1.4c0,0.8-0.6,1.5-1.5,1.5c-0.8,0-1.4-0.6-1.4-1.5C886.6,178.8,887.3,178.2,888.1,178.2z"
			/>
		<path d="M891.7,192.5c-3.2,0-5.2-1.8-5.2-4.7c0-2.9,1.8-4.6,5-4.6c3.1,0,5,1.8,5,4.8C896.5,190.8,894.7,192.5,891.7,192.5z
			 M891.6,190.1c2,0,3.1-0.8,3.1-2.2c0-1.4-1.1-2.2-3.1-2.2c-2.1,0-3.2,0.8-3.2,2.3C888.4,189.3,889.5,190.1,891.6,190.1z"/>
		<path d="M899.2,207.1c0.2-0.6,0.3-1.2,0.3-1.7c0-1.4-0.7-1.7-2-1.7h-1.1v2.5h-1.7v-2.5h-7.8v-2.4h7.8v-3.5h-7.8v-2.4h7.8v-1.4h1.7
			v1.4h0.2c2.9,0,4.1,1.6,4.1,4.4c0,0.9-0.1,1.7-0.4,2.5c0.6,0.6,1,1.6,1,2.9c0,0.9-0.1,1.6-0.3,2.3L899.2,207.1L899.2,207.1z
			 M896.3,201.2h1c0.5,0,0.9,0,1.3,0.1c0.1-0.5,0.2-1,0.2-1.6c0-1.4-0.8-2.1-2.2-2.1h-0.3L896.3,201.2L896.3,201.2z"/>
		<path d="M888.3,209.9c0,0.9,0.3,1.4,1,1.4c1.8,0,1.3-4.4,4.5-4.4c1.9,0,2.8,1.7,2.8,3.7c0,1-0.2,2-0.5,2.8l-1.8-0.5
			c0.2-0.6,0.5-1.4,0.5-2.2c0-0.9-0.3-1.4-0.9-1.4c-1.7,0-1.2,4.5-4.5,4.5c-2.1,0-2.8-1.7-2.8-3.8c0-1.1,0.2-2.4,0.7-3.3l1.8,0.6
			C888.7,207.9,888.3,209,888.3,209.9z"/>
		<path d="M887.3,223.1c-0.5-1-0.8-2.1-0.8-3.5c0-2.9,1.8-4.5,5-4.5s5,1.6,5,4.4c0,2.4-1.5,3.7-4,3.7c-0.4,0-0.9,0-1.4-0.1v-5.8
			c-1.8,0.1-2.8,0.9-2.8,2.5c0,1,0.3,1.9,0.7,2.8L887.3,223.1L887.3,223.1z M894.8,219.5c0-1.2-0.7-1.9-2.2-2.1v3.9
			C894,221.3,894.8,220.7,894.8,219.5z"/>
		<path d="M886.5,229.4c0-2.2,1.1-3.3,3.4-3.3h4.6v-1.4h1.7v1.4h3l0.6,2.4h-3.6v2.5h-1.7v-2.5H890c-1,0-1.5,0.4-1.5,1.3
			c0,0.5,0.1,1,0.2,1.4l-1.9,0.3C886.7,231,886.5,230.3,886.5,229.4z"/>
		<path d="M886.8,238.3v-2.4h11v-4.1h1.9v10.6h-1.9v-4.1H886.8z"/>
		<path d="M891.7,251.1c-3.2,0-5.2-1.8-5.2-4.7c0-2.9,1.8-4.6,5-4.6c3.1,0,5,1.8,5,4.8C896.5,249.4,894.7,251.1,891.7,251.1z
			 M891.6,248.6c2,0,3.1-0.8,3.1-2.2c0-1.4-1.1-2.2-3.1-2.2c-2.1,0-3.2,0.8-3.2,2.3C888.4,247.9,889.5,248.6,891.6,248.6z"/>
		<path d="M896.5,257.5c0,3.2-1.7,4.8-4.9,4.8c-3.2,0-5.1-1.7-5.1-4.6c0-0.7,0.1-1.2,0.3-1.6H882v-2.4h14
			C896.3,254.8,896.5,256.2,896.5,257.5z M888.8,256.1c-0.2,0.4-0.3,1-0.3,1.5c0,1.5,1.1,2.4,3,2.4c2,0,3.1-0.8,3.1-2.5
			c0-0.4-0.1-0.9-0.2-1.3L888.8,256.1L888.8,256.1z"/>
	</g>
	<g>
		<g>
			
				<line fill="none" stroke="#010202" stroke-width="2" stroke-linecap="round" stroke-miterlimit="10" x1="835" y1="286.2" x2="835" y2="338.8"/>
			<g>
				<polygon fill="#010202" points="830,287.6 835,279 840,287.6 				"/>
			</g>
			<g>
				<polygon fill="#010202" points="830,337.4 835,346 840,337.4 				"/>
			</g>
		</g>
	</g>
	<g>
		<path d="M848.3,237.3c-0.5-1-0.8-2.1-0.8-3.5c0-2.9,1.8-4.5,5-4.5s5,1.6,5,4.4c0,2.4-1.5,3.7-4,3.7c-0.4,0-0.9,0-1.4-0.1v-5.8
			c-1.8,0.1-2.8,0.9-2.8,2.5c0,1,0.3,1.9,0.7,2.8L848.3,237.3L848.3,237.3z M855.8,233.6c0-1.2-0.7-1.9-2.2-2.1v3.9
			C855,235.5,855.8,234.8,855.8,233.6z"/>
		<path d="M862,240.1v2.4h-14.2v-2.4H862z"/>
		<path d="M848.3,252.9c-0.5-1-0.8-2.1-0.8-3.5c0-2.9,1.8-4.5,5-4.5s5,1.6,5,4.4c0,2.4-1.5,3.7-4,3.7c-0.4,0-0.9,0-1.4-0.1v-5.8
			c-1.8,0.1-2.8,0.9-2.8,2.5c0,1,0.3,1.9,0.7,2.8L848.3,252.9L848.3,252.9z M855.8,249.3c0-1.2-0.7-1.9-2.2-2.1v3.9
			C855,251.1,855.8,250.5,855.8,249.3z"/>
		<path d="M856.3,258c0.8,1.2,1.2,2.2,1.2,3.3c0,1.1-0.4,2-1.4,2.5c1.1,1.5,1.4,2.6,1.4,3.6c0,1.7-0.8,2.8-3.3,2.8h-6.4v-2.4h6
			c1,0,1.6-0.4,1.6-1.3c0-0.6-0.3-1.4-1.1-2.3h-0.1h-6.4v-2.4h6c1,0,1.6-0.4,1.6-1.3c0-0.7-0.4-1.5-1.1-2.3h-6.5v-2.4h9.5v2.2H856.3
			L856.3,258z"/>
		<path d="M848.3,280.7c-0.5-1-0.8-2.1-0.8-3.5c0-2.9,1.8-4.5,5-4.5s5,1.6,5,4.4c0,2.4-1.5,3.7-4,3.7c-0.4,0-0.9,0-1.4-0.1v-5.8
			c-1.8,0.1-2.8,0.9-2.8,2.5c0,1,0.3,1.9,0.7,2.8L848.3,280.7L848.3,280.7z M855.8,277.1c0-1.2-0.7-1.9-2.2-2.1v3.9
			C855,278.9,855.8,278.2,855.8,277.1z"/>
		<path d="M857.5,289.1c0,1.9-1.1,2.9-3.4,2.9h-6.3v-2.4h6.1c1,0,1.5-0.4,1.5-1.4c0-0.7-0.4-1.5-1.1-2.4h-6.6v-2.4h9.5v2.3l-1,0
			C857.1,286.9,857.5,287.9,857.5,289.1z"/>
		<path d="M847.5,298.7c0-2.2,1.1-3.3,3.4-3.3h4.6v-1.4h1.7v1.4h3l0.6,2.4h-3.6v2.5h-1.7v-2.5H851c-1,0-1.5,0.4-1.5,1.3
			c0,0.5,0.1,1,0.2,1.4l-1.9,0.3C847.7,300.3,847.5,299.6,847.5,298.7z"/>
		<path d="M849.1,303.1c0.8,0,1.5,0.6,1.5,1.4c0,0.8-0.6,1.5-1.5,1.5c-0.8,0-1.4-0.6-1.4-1.5C847.6,303.7,848.3,303.1,849.1,303.1z"
			/>
		<path d="M849.3,311.1c0,0.9,0.3,1.4,1,1.4c1.8,0,1.3-4.4,4.5-4.4c1.9,0,2.8,1.7,2.8,3.7c0,1-0.2,2-0.5,2.8l-1.8-0.5
			c0.2-0.6,0.5-1.4,0.5-2.2c0-0.9-0.3-1.4-0.9-1.4c-1.7,0-1.2,4.5-4.5,4.5c-2.1,0-2.8-1.7-2.8-3.8c0-1.1,0.2-2.4,0.7-3.3l1.8,0.6
			C849.7,309.2,849.3,310.2,849.3,311.1z"/>
		<path d="M847.6,320.8c0-2.9,1.8-4.5,4.9-4.5c3.3,0,5,1.7,5,4.7c0,1-0.2,1.8-0.5,2.5l-1.8-0.4c0.3-0.7,0.4-1.3,0.4-2
			c0-1.6-1-2.4-3-2.4c-2.1,0-3.1,0.8-3.1,2.3c0,0.9,0.2,1.6,0.4,2.2l-1.7,0.4C847.8,322.9,847.6,321.9,847.6,320.8z"/>
		<path d="M853.1,328.1h-5.3v-2.4h9.5v2.4h-1.8c1.5,1.2,2.3,2.4,1.8,4.1l-2.2-0.3C855.4,330.5,854.9,329.3,853.1,328.1z"/>
		<path d="M852.7,342.4c-3.2,0-5.2-1.8-5.2-4.7c0-2.9,1.8-4.6,5-4.6c3.1,0,5,1.8,5,4.8C857.5,340.7,855.7,342.4,852.7,342.4z
			 M852.6,339.9c2,0,3.1-0.8,3.1-2.2c0-1.4-1.1-2.2-3.1-2.2c-2.1,0-3.2,0.8-3.2,2.3C849.4,339.2,850.5,339.9,852.6,339.9z"/>
		<path d="M862,345v2.4h-14.2V345H862z"/>
		<path d="M862,350.7v2.4h-14.2v-2.4H862z"/>
		<path d="M847.8,361.4V359h11v-4.1h1.9v10.6h-1.9v-4.1H847.8z"/>
		<path d="M852.7,374.2c-3.2,0-5.2-1.8-5.2-4.7c0-2.9,1.8-4.6,5-4.6c3.1,0,5,1.8,5,4.8C857.5,372.5,855.7,374.2,852.7,374.2z
			 M852.6,371.7c2,0,3.1-0.8,3.1-2.2c0-1.4-1.1-2.2-3.1-2.2c-2.1,0-3.2,0.8-3.2,2.3C849.4,371,850.5,371.7,852.6,371.7z"/>
		<path d="M857.5,380.6c0,3.2-1.7,4.8-4.9,4.8c-3.2,0-5.1-1.7-5.1-4.6c0-0.7,0.1-1.2,0.3-1.6H843v-2.4h14
			C857.3,377.9,857.5,379.3,857.5,380.6z M849.8,379.2c-0.2,0.4-0.3,1-0.3,1.5c0,1.5,1.1,2.4,3,2.4c2,0,3.1-0.8,3.1-2.5
			c0-0.4-0.1-0.9-0.2-1.3L849.8,379.2L849.8,379.2z"/>
	</g>
	<g>
		<g>
			
				<line fill="none" stroke="#010202" stroke-width="2" stroke-linecap="round" stroke-miterlimit="10" x1="243.3" y1="226" x2="675.8" y2="226"/>
			<g>
				<polygon fill="#010202" points="244.8,231 236.2,226 244.8,221 				"/>
			</g>
			<g>
				<polygon fill="#010202" points="674.4,231 683,226 674.4,221 				"/>
			</g>
		</g>
	</g>
	<g>
		<path d="M380.6,216.7c-1,0.5-2.1,0.8-3.5,0.8c-2.9,0-4.5-1.8-4.5-5s1.6-5,4.4-5c2.4,0,3.7,1.5,3.7,4c0,0.4,0,0.9-0.1,1.4h-5.8
			c0.1,1.8,0.9,2.8,2.5,2.8c1,0,1.9-0.3,2.8-0.7L380.6,216.7L380.6,216.7z M377,209.2c-1.2,0-1.9,0.7-2.1,2.2h3.9
			C378.8,210,378.1,209.2,377,209.2z"/>
		<path d="M383.4,203h2.4v14.2h-2.4V203z"/>
		<path d="M396.3,216.7c-1,0.5-2.1,0.8-3.5,0.8c-2.9,0-4.5-1.8-4.5-5s1.6-5,4.4-5c2.4,0,3.7,1.5,3.7,4c0,0.4,0,0.9-0.1,1.4h-5.8
			c0.1,1.8,0.9,2.8,2.5,2.8c1,0,1.9-0.3,2.8-0.7L396.3,216.7L396.3,216.7z M392.7,209.2c-1.2,0-1.9,0.7-2.1,2.2h3.9
			C394.5,210,393.8,209.2,392.7,209.2z"/>
		<path d="M401.3,208.7c1.2-0.8,2.2-1.2,3.3-1.2c1.1,0,2,0.4,2.5,1.4c1.5-1.1,2.6-1.4,3.6-1.4c1.7,0,2.8,0.8,2.8,3.3v6.4h-2.4v-6
			c0-1-0.4-1.6-1.3-1.6c-0.6,0-1.4,0.3-2.3,1.1v0.1v6.4h-2.4v-6c0-1-0.4-1.6-1.3-1.6c-0.7,0-1.5,0.4-2.3,1.1v6.5h-2.4v-9.5h2.2
			V208.7L401.3,208.7z"/>
		<path d="M424,216.7c-1,0.5-2.1,0.8-3.5,0.8c-2.9,0-4.5-1.8-4.5-5s1.6-5,4.4-5c2.4,0,3.7,1.5,3.7,4c0,0.4,0,0.9-0.1,1.4h-5.8
			c0.1,1.8,0.9,2.8,2.5,2.8c1,0,1.9-0.3,2.8-0.7L424,216.7L424,216.7z M420.4,209.2c-1.2,0-1.9,0.7-2.1,2.2h3.9
			C422.2,210,421.5,209.2,420.4,209.2z"/>
		<path d="M432.4,207.5c1.9,0,2.9,1.1,2.9,3.4v6.3H433v-6.1c0-1-0.4-1.5-1.4-1.5c-0.7,0-1.5,0.4-2.4,1.1v6.6h-2.4v-9.5h2.3l0,1
			C430.2,207.9,431.3,207.5,432.4,207.5z"/>
		<path d="M442.1,217.5c-2.2,0-3.3-1.1-3.3-3.4v-4.6h-1.4v-1.7h1.4v-3l2.4-0.6v3.6h2.5v1.7h-2.5v4.5c0,1,0.4,1.5,1.3,1.5
			c0.5,0,1-0.1,1.4-0.2l0.3,1.9C443.6,217.3,442.9,217.5,442.1,217.5z"/>
		<path d="M446.4,215.9c0-0.8,0.6-1.5,1.4-1.5c0.8,0,1.5,0.6,1.5,1.5c0,0.8-0.6,1.4-1.5,1.4C447,217.4,446.4,216.7,446.4,215.9z"/>
		<path d="M455.8,217.4c-2.9,0-4.5-1.8-4.5-4.9c0-3.3,1.7-5,4.7-5c1,0,1.8,0.2,2.5,0.5l-0.4,1.8c-0.7-0.3-1.3-0.4-2-0.4
			c-1.6,0-2.4,1-2.4,3c0,2.1,0.8,3.1,2.3,3.1c0.9,0,1.6-0.2,2.2-0.4l0.4,1.7C457.8,217.2,456.8,217.4,455.8,217.4z"/>
		<path d="M460.7,203h2.4v14.2h-2.4V203z"/>
		<path d="M466.2,204.6c0-0.8,0.6-1.4,1.4-1.4c0.9,0,1.5,0.6,1.5,1.4c0,0.8-0.6,1.4-1.5,1.4C466.7,206,466.2,205.5,466.2,204.6z
			 M466.4,207.7h2.4v9.5h-2.4V207.7z"/>
		<path d="M479.3,216.7c-1,0.5-2.1,0.8-3.5,0.8c-2.9,0-4.5-1.8-4.5-5s1.6-5,4.4-5c2.4,0,3.7,1.5,3.7,4c0,0.4,0,0.9-0.1,1.4h-5.8
			c0.1,1.8,0.9,2.8,2.5,2.8c1,0,1.9-0.3,2.8-0.7L479.3,216.7L479.3,216.7z M475.7,209.2c-1.2,0-1.9,0.7-2.1,2.2h3.9
			C477.5,210,476.8,209.2,475.7,209.2z"/>
		<path d="M487.7,207.5c1.9,0,2.9,1.1,2.9,3.4v6.3h-2.4v-6.1c0-1-0.4-1.5-1.4-1.5c-0.7,0-1.5,0.4-2.4,1.1v6.6h-2.4v-9.5h2.3l0,1
			C485.5,207.9,486.6,207.5,487.7,207.5z"/>
		<path d="M497.4,217.5c-2.2,0-3.3-1.1-3.3-3.4v-4.6h-1.4v-1.7h1.4v-3l2.4-0.6v3.6h2.5v1.7h-2.5v4.5c0,1,0.4,1.5,1.3,1.5
			c0.5,0,1-0.1,1.4-0.2l0.3,1.9C498.9,217.3,498.2,217.5,497.4,217.5z"/>
		<path d="M513.7,217.2h-2.5l-3.1-9.6l-3.1,9.6h-2.5l-2.8-13h2.5l1.8,10l3-10h2.2l3.1,9.9l1.8-9.9h2.3L513.7,217.2z"/>
		<path d="M519.6,204.6c0-0.8,0.6-1.4,1.4-1.4c0.9,0,1.5,0.6,1.5,1.4c0,0.8-0.6,1.4-1.5,1.4C520.2,206,519.6,205.5,519.6,204.6z
			 M519.8,207.7h2.4v9.5h-2.4V207.7z"/>
		<path d="M533.5,216.9c-1.1,0.3-2.5,0.6-3.8,0.6c-3.2,0-4.8-1.7-4.8-4.9c0-3.2,1.7-5.1,4.6-5.1c0.8,0,1.2,0.1,1.7,0.3V203h2.4
			V216.9z M531.1,209.7c-0.4-0.2-1-0.3-1.5-0.3c-1.5,0-2.4,1.1-2.4,3c0,2,0.8,3.1,2.5,3.1c0.4,0,0.9-0.1,1.3-0.2V209.7L531.1,209.7z
			"/>
		<path d="M540.3,217.5c-2.2,0-3.3-1.1-3.3-3.4v-4.6h-1.4v-1.7h1.4v-3l2.4-0.6v3.6h2.5v1.7h-2.5v4.5c0,1,0.4,1.5,1.3,1.5
			c0.5,0,1-0.1,1.4-0.2l0.3,1.9C541.8,217.3,541.1,217.5,540.3,217.5z"/>
		<path d="M549.8,207.5c1.9,0,2.9,1.1,2.9,3.4v6.3h-2.4v-6.1c0-1-0.4-1.5-1.4-1.5c-0.7,0-1.5,0.4-2.4,1.1v6.6h-2.4V203h2.4v5.6
			C547.7,207.9,548.7,207.5,549.8,207.5z"/>
	</g>
	<g>
		<g>
			
				<line fill="none" stroke="#010202" stroke-width="2" stroke-linecap="round" stroke-miterlimit="10" x1="241.7" y1="190.3" x2="675.3" y2="190.3"/>
			<g>
				<polygon fill="#010202" points="243.1,195.3 234.5,190.3 243.1,185.3 				"/>
			</g>
			<g>
				<polygon fill="#010202" points="673.9,195.3 682.5,190.3 673.9,185.3 				"/>
			</g>
		</g>
	</g>
	<g>
		<path d="M381.3,181c-1,0.5-2.1,0.8-3.5,0.8c-2.9,0-4.5-1.8-4.5-5s1.6-5,4.4-5c2.4,0,3.7,1.5,3.7,4c0,0.4,0,0.9-0.1,1.4h-5.8
			c0.1,1.8,0.9,2.8,2.5,2.8c1,0,1.9-0.3,2.8-0.7L381.3,181L381.3,181z M377.7,173.5c-1.2,0-1.9,0.7-2.1,2.2h3.9
			C379.5,174.3,378.9,173.5,377.7,173.5z"/>
		<path d="M384.1,167.3h2.4v14.2h-2.4V167.3z"/>
		<path d="M397,181c-1,0.5-2.1,0.8-3.5,0.8c-2.9,0-4.5-1.8-4.5-5s1.6-5,4.4-5c2.4,0,3.7,1.5,3.7,4c0,0.4,0,0.9-0.1,1.4h-5.8
			c0.1,1.8,0.9,2.8,2.5,2.8c1,0,1.9-0.3,2.8-0.7L397,181L397,181z M393.4,173.5c-1.2,0-1.9,0.7-2.1,2.2h3.9
			C395.2,174.3,394.6,173.5,393.4,173.5z"/>
		<path d="M402.1,173c1.2-0.8,2.2-1.2,3.3-1.2c1.1,0,2,0.4,2.5,1.4c1.5-1.1,2.6-1.4,3.6-1.4c1.7,0,2.8,0.8,2.8,3.3v6.4h-2.4v-6
			c0-1-0.4-1.6-1.3-1.6c-0.6,0-1.4,0.3-2.3,1.1v0.1v6.4h-2.4v-6c0-1-0.4-1.6-1.3-1.6c-0.7,0-1.5,0.4-2.3,1.1v6.5h-2.4V172h2.2V173
			L402.1,173z"/>
		<path d="M424.7,181c-1,0.5-2.1,0.8-3.5,0.8c-2.9,0-4.5-1.8-4.5-5s1.6-5,4.4-5c2.4,0,3.7,1.5,3.7,4c0,0.4,0,0.9-0.1,1.4H419
			c0.1,1.8,0.9,2.8,2.5,2.8c1,0,1.9-0.3,2.8-0.7L424.7,181L424.7,181z M421.1,173.5c-1.2,0-1.9,0.7-2.1,2.2h3.9
			C422.9,174.3,422.3,173.5,421.1,173.5z"/>
		<path d="M433.2,171.9c1.9,0,2.9,1.1,2.9,3.4v6.3h-2.4v-6.1c0-1-0.4-1.5-1.4-1.5c-0.7,0-1.5,0.4-2.4,1.1v6.6h-2.4V172h2.3l0,1
			C431,172.2,432,171.9,433.2,171.9z"/>
		<path d="M442.8,181.8c-2.2,0-3.3-1.1-3.3-3.4v-4.6h-1.4V172h1.4v-3l2.4-0.6v3.6h2.5v1.7h-2.5v4.5c0,1,0.4,1.5,1.3,1.5
			c0.5,0,1-0.1,1.4-0.2l0.3,1.9C444.4,181.7,443.7,181.8,442.8,181.8z"/>
		<path d="M447.2,180.2c0-0.8,0.6-1.5,1.4-1.5c0.8,0,1.5,0.6,1.5,1.5c0,0.8-0.6,1.4-1.5,1.4C447.8,181.7,447.2,181.1,447.2,180.2z"
			/>
		<path d="M455.2,180c0.9,0,1.4-0.3,1.4-1c0-1.8-4.4-1.3-4.4-4.5c0-1.9,1.7-2.8,3.7-2.8c1,0,2,0.2,2.8,0.5l-0.5,1.8
			c-0.6-0.2-1.4-0.5-2.2-0.5c-0.9,0-1.4,0.3-1.4,0.9c0,1.7,4.5,1.2,4.5,4.5c0,2.1-1.7,2.8-3.8,2.8c-1.1,0-2.4-0.2-3.3-0.7l0.6-1.8
			C453.2,179.7,454.3,180,455.2,180z"/>
		<path d="M464.9,181.7c-2.9,0-4.5-1.8-4.5-4.9c0-3.3,1.7-5,4.7-5c1,0,1.8,0.2,2.5,0.5l-0.4,1.8c-0.7-0.3-1.3-0.4-2-0.4
			c-1.6,0-2.4,1-2.4,3c0,2.1,0.8,3.1,2.3,3.1c0.9,0,1.6-0.2,2.2-0.4l0.4,1.7C466.9,181.5,466,181.7,464.9,181.7z"/>
		<path d="M472.2,176.3v5.3h-2.4V172h2.4v1.8c1.2-1.5,2.4-2.3,4.1-1.8l-0.3,2.2C474.6,173.9,473.4,174.4,472.2,176.3z"/>
		<path d="M486.4,176.6c0,3.2-1.8,5.2-4.7,5.2c-2.9,0-4.6-1.8-4.6-5c0-3.1,1.8-5,4.8-5C484.8,171.8,486.4,173.6,486.4,176.6z
			 M484,176.7c0-2-0.8-3.1-2.2-3.1c-1.4,0-2.2,1.1-2.2,3.1c0,2.1,0.8,3.2,2.3,3.2C483.3,180,484,178.8,484,176.7z"/>
		<path d="M489.1,167.3h2.4v14.2h-2.4V167.3z"/>
		<path d="M494.8,167.3h2.4v14.2h-2.4V167.3z"/>
		<path d="M512.9,181.6h-2.5l-3.1-9.6l-3.1,9.6h-2.5l-2.8-13h2.5l1.8,10l3-10h2.2l3.1,9.9l1.8-9.9h2.3L512.9,181.6z"/>
		<path d="M518.8,169c0-0.8,0.6-1.4,1.4-1.4c0.9,0,1.5,0.6,1.5,1.4c0,0.8-0.6,1.4-1.5,1.4C519.4,170.4,518.8,169.8,518.8,169z
			 M519.1,172h2.4v9.5h-2.4V172z"/>
		<path d="M532.7,181.2c-1.1,0.3-2.5,0.6-3.8,0.6c-3.2,0-4.8-1.7-4.8-4.9c0-3.2,1.7-5.1,4.6-5.1c0.8,0,1.2,0.1,1.7,0.3v-4.7h2.4
			V181.2z M530.3,174c-0.4-0.2-1-0.3-1.5-0.3c-1.5,0-2.4,1.1-2.4,3c0,2,0.8,3.1,2.5,3.1c0.4,0,0.9-0.1,1.3-0.2V174L530.3,174z"/>
		<path d="M539.5,181.8c-2.2,0-3.3-1.1-3.3-3.4v-4.6h-1.4V172h1.4v-3l2.4-0.6v3.6h2.5v1.7h-2.5v4.5c0,1,0.4,1.5,1.3,1.5
			c0.5,0,1-0.1,1.4-0.2l0.3,1.9C541,181.7,540.4,181.8,539.5,181.8z"/>
		<path d="M549,171.9c1.9,0,2.9,1.1,2.9,3.4v6.3h-2.4v-6.1c0-1-0.4-1.5-1.4-1.5c-0.7,0-1.5,0.4-2.4,1.1v6.6h-2.4v-14.2h2.4v5.6
			C546.9,172.2,547.9,171.9,549,171.9z"/>
	</g>
	<g>
		<g>
			
				<line fill="none" stroke="#010202" stroke-width="2" stroke-linecap="round" stroke-miterlimit="10" x1="232.7" y1="122.3" x2="694.8" y2="122.3"/>
			<g>
				<polygon fill="#010202" points="234.1,127.3 225.5,122.3 234.1,117.3 				"/>
			</g>
			<g>
				<polygon fill="#010202" points="693.4,127.3 702,122.3 693.4,117.3 				"/>
			</g>
		</g>
	</g>
	<g>
		<path d="M380.4,113c-1,0.5-2.1,0.8-3.5,0.8c-2.9,0-4.5-1.8-4.5-5s1.6-5,4.4-5c2.4,0,3.7,1.5,3.7,4c0,0.4,0,0.9-0.1,1.4h-5.8
			c0.1,1.8,0.9,2.8,2.5,2.8c1,0,1.9-0.3,2.8-0.7L380.4,113L380.4,113z M376.8,105.5c-1.2,0-1.9,0.7-2.1,2.2h3.9
			C378.6,106.3,378,105.5,376.8,105.5z"/>
		<path d="M383.2,99.3h2.4v14.2h-2.4V99.3z"/>
		<path d="M396.1,113c-1,0.5-2.1,0.8-3.5,0.8c-2.9,0-4.5-1.8-4.5-5s1.6-5,4.4-5c2.4,0,3.7,1.5,3.7,4c0,0.4,0,0.9-0.1,1.4h-5.8
			c0.1,1.8,0.9,2.8,2.5,2.8c1,0,1.9-0.3,2.8-0.7L396.1,113L396.1,113z M392.5,105.5c-1.2,0-1.9,0.7-2.1,2.2h3.9
			C394.3,106.3,393.6,105.5,392.5,105.5z"/>
		<path d="M401.2,105c1.2-0.8,2.2-1.2,3.3-1.2c1.1,0,2,0.4,2.5,1.4c1.5-1.1,2.6-1.4,3.6-1.4c1.7,0,2.8,0.8,2.8,3.3v6.4H411v-6
			c0-1-0.4-1.6-1.3-1.6c-0.6,0-1.4,0.3-2.3,1.1v0.1v6.4H405v-6c0-1-0.4-1.6-1.3-1.6c-0.7,0-1.5,0.4-2.3,1.1v6.5h-2.4V104h2.2V105
			L401.2,105z"/>
		<path d="M423.8,113c-1,0.5-2.1,0.8-3.5,0.8c-2.9,0-4.5-1.8-4.5-5s1.6-5,4.4-5c2.4,0,3.7,1.5,3.7,4c0,0.4,0,0.9-0.1,1.4h-5.8
			c0.1,1.8,0.9,2.8,2.5,2.8c1,0,1.9-0.3,2.8-0.7L423.8,113L423.8,113z M420.2,105.5c-1.2,0-1.9,0.7-2.1,2.2h3.9
			C422,106.3,421.4,105.5,420.2,105.5z"/>
		<path d="M432.3,103.9c1.9,0,2.9,1.1,2.9,3.4v6.3h-2.4v-6.1c0-1-0.4-1.5-1.4-1.5c-0.7,0-1.5,0.4-2.4,1.1v6.6h-2.4V104h2.3l0,1
			C430.1,104.2,431.1,103.9,432.3,103.9z"/>
		<path d="M441.9,113.8c-2.2,0-3.3-1.1-3.3-3.4v-4.6h-1.4V104h1.4v-3l2.4-0.6v3.6h2.5v1.7H441v4.5c0,1,0.4,1.5,1.3,1.5
			c0.5,0,1-0.1,1.4-0.2l0.3,1.9C443.5,113.7,442.8,113.8,441.9,113.8z"/>
		<path d="M446.3,112.2c0-0.8,0.6-1.5,1.4-1.5c0.8,0,1.5,0.6,1.5,1.5c0,0.8-0.6,1.4-1.5,1.4C446.9,113.7,446.3,113.1,446.3,112.2z"
			/>
		<path d="M460.6,108.6c0,3.2-1.8,5.2-4.7,5.2c-2.9,0-4.6-1.8-4.6-5c0-3.1,1.8-5,4.8-5C458.9,103.8,460.6,105.6,460.6,108.6z
			 M458.1,108.7c0-2-0.8-3.1-2.2-3.1c-1.4,0-2.2,1.1-2.2,3.1c0,2.1,0.8,3.2,2.3,3.2C457.4,112,458.1,110.8,458.1,108.7z"/>
		<path d="M475.1,101.2c-0.6-0.2-1.2-0.3-1.7-0.3c-1.4,0-1.7,0.7-1.7,2v1.1h2.5v1.7h-2.5v7.8h-2.4v-7.8h-3.5v7.8h-2.4v-7.8H462v-1.7
			h1.4v-0.2c0-2.9,1.6-4.1,4.4-4.1c0.9,0,1.7,0.1,2.5,0.4c0.6-0.6,1.6-1,2.9-1c0.9,0,1.6,0.1,2.3,0.3L475.1,101.2L475.1,101.2z
			 M469.3,104.1v-1c0-0.5,0-0.9,0.1-1.3c-0.5-0.1-1-0.2-1.6-0.2c-1.4,0-2.1,0.8-2.1,2.2v0.3L469.3,104.1L469.3,104.1z"/>
		<path d="M478,112c0.9,0,1.4-0.3,1.4-1c0-1.8-4.4-1.3-4.4-4.5c0-1.9,1.7-2.8,3.7-2.8c1,0,2,0.2,2.8,0.5l-0.5,1.8
			c-0.6-0.2-1.4-0.5-2.2-0.5c-0.9,0-1.4,0.3-1.4,0.9c0,1.7,4.5,1.2,4.5,4.5c0,2.1-1.7,2.8-3.8,2.8c-1.1,0-2.4-0.2-3.3-0.7l0.6-1.8
			C476,111.7,477.1,112,478,112z"/>
		<path d="M491.2,113c-1,0.5-2.1,0.8-3.5,0.8c-2.9,0-4.5-1.8-4.5-5s1.6-5,4.4-5c2.4,0,3.7,1.5,3.7,4c0,0.4,0,0.9-0.1,1.4h-5.8
			c0.1,1.8,0.9,2.8,2.5,2.8c1,0,1.9-0.3,2.8-0.7L491.2,113L491.2,113z M487.6,105.5c-1.2,0-1.9,0.7-2.1,2.2h3.9
			C489.4,106.3,488.8,105.5,487.6,105.5z"/>
		<path d="M497.5,113.8c-2.2,0-3.3-1.1-3.3-3.4v-4.6h-1.4V104h1.4v-3l2.4-0.6v3.6h2.5v1.7h-2.5v4.5c0,1,0.4,1.5,1.3,1.5
			c0.5,0,1-0.1,1.4-0.2l0.3,1.9C499,113.7,498.4,113.8,497.5,113.8z"/>
		<path d="M513.8,113.6h-2.5l-3.1-9.6l-3.1,9.6h-2.5l-2.8-13h2.5l1.8,10l3-10h2.2l3.1,9.9l1.8-9.9h2.3L513.8,113.6z"/>
		<path d="M519.7,101c0-0.8,0.6-1.4,1.4-1.4c0.9,0,1.5,0.6,1.5,1.4c0,0.8-0.6,1.4-1.5,1.4C520.3,102.4,519.7,101.8,519.7,101z
			 M520,104h2.4v9.5H520V104z"/>
		<path d="M533.6,113.2c-1.1,0.3-2.5,0.6-3.8,0.6c-3.2,0-4.8-1.7-4.8-4.9c0-3.2,1.7-5.1,4.6-5.1c0.8,0,1.2,0.1,1.7,0.3v-4.7h2.4
			V113.2z M531.2,106c-0.4-0.2-1-0.3-1.5-0.3c-1.5,0-2.4,1.1-2.4,3c0,2,0.8,3.1,2.5,3.1c0.4,0,0.9-0.1,1.3-0.2V106L531.2,106z"/>
		<path d="M540.4,113.8c-2.2,0-3.3-1.1-3.3-3.4v-4.6h-1.4V104h1.4v-3l2.4-0.6v3.6h2.5v1.7h-2.5v4.5c0,1,0.4,1.5,1.3,1.5
			c0.5,0,1-0.1,1.4-0.2l0.3,1.9C541.9,113.7,541.3,113.8,540.4,113.8z"/>
		<path d="M549.9,103.9c1.9,0,2.9,1.1,2.9,3.4v6.3h-2.4v-6.1c0-1-0.4-1.5-1.4-1.5c-0.7,0-1.5,0.4-2.4,1.1v6.6h-2.4V99.3h2.4v5.6
			C547.8,104.2,548.8,103.9,549.9,103.9z"/>
	</g>
	<g>
		<g>
			
				<line fill="none" stroke="#010202" stroke-width="2" stroke-linecap="round" stroke-miterlimit="10" x1="89.2" y1="122.3" x2="217.8" y2="122.3"/>
			<g>
				<polygon fill="#010202" points="90.6,127.3 82,122.3 90.6,117.3 				"/>
			</g>
			<g>
				<polygon fill="#010202" points="216.4,127.3 225,122.3 216.4,117.3 				"/>
			</g>
		</g>
	</g>
	<g>
		<path d="M82.9,113c-1,0.5-2.1,0.8-3.5,0.8c-2.9,0-4.5-1.8-4.5-5s1.6-5,4.4-5c2.4,0,3.7,1.5,3.7,4c0,0.4,0,0.9-0.1,1.4h-5.8
			c0.1,1.8,0.9,2.8,2.5,2.8c1,0,1.9-0.3,2.8-0.7L82.9,113L82.9,113z M79.3,105.5c-1.2,0-1.9,0.7-2.1,2.2h3.9
			C81.1,106.3,80.4,105.5,79.3,105.5z"/>
		<path d="M85.7,99.3h2.4v14.2h-2.4V99.3z"/>
		<path d="M98.6,113c-1,0.5-2.1,0.8-3.5,0.8c-2.9,0-4.5-1.8-4.5-5s1.6-5,4.4-5c2.4,0,3.7,1.5,3.7,4c0,0.4,0,0.9-0.1,1.4h-5.8
			c0.1,1.8,0.9,2.8,2.5,2.8c1,0,1.9-0.3,2.8-0.7L98.6,113L98.6,113z M95,105.5c-1.2,0-1.9,0.7-2.1,2.2h3.9
			C96.8,106.3,96.1,105.5,95,105.5z"/>
		<path d="M103.7,105c1.2-0.8,2.2-1.2,3.3-1.2c1.1,0,2,0.4,2.5,1.4c1.5-1.1,2.6-1.4,3.6-1.4c1.7,0,2.8,0.8,2.8,3.3v6.4h-2.4v-6
			c0-1-0.4-1.6-1.3-1.6c-0.6,0-1.4,0.3-2.3,1.1v0.1v6.4h-2.4v-6c0-1-0.4-1.6-1.3-1.6c-0.7,0-1.5,0.4-2.3,1.1v6.5h-2.4V104h2.2V105
			L103.7,105z"/>
		<path d="M126.3,113c-1,0.5-2.1,0.8-3.5,0.8c-2.9,0-4.5-1.8-4.5-5s1.6-5,4.4-5c2.4,0,3.7,1.5,3.7,4c0,0.4,0,0.9-0.1,1.4h-5.8
			c0.1,1.8,0.9,2.8,2.5,2.8c1,0,1.9-0.3,2.8-0.7L126.3,113L126.3,113z M122.7,105.5c-1.2,0-1.9,0.7-2.1,2.2h3.9
			C124.5,106.3,123.9,105.5,122.7,105.5z"/>
		<path d="M134.8,103.9c1.9,0,2.9,1.1,2.9,3.4v6.3h-2.4v-6.1c0-1-0.4-1.5-1.4-1.5c-0.7,0-1.5,0.4-2.4,1.1v6.6h-2.4V104h2.3l0,1
			C132.6,104.2,133.6,103.9,134.8,103.9z"/>
		<path d="M144.4,113.8c-2.2,0-3.3-1.1-3.3-3.4v-4.6h-1.4V104h1.4v-3l2.4-0.6v3.6h2.5v1.7h-2.5v4.5c0,1,0.4,1.5,1.3,1.5
			c0.5,0,1-0.1,1.4-0.2l0.3,1.9C146,113.7,145.3,113.8,144.4,113.8z"/>
		<path d="M148.7,112.2c0-0.8,0.6-1.5,1.4-1.5c0.8,0,1.5,0.6,1.5,1.5c0,0.8-0.6,1.4-1.5,1.4C149.4,113.7,148.7,113.1,148.7,112.2z"
			/>
		<path d="M163.1,108.6c0,3.2-1.8,5.2-4.7,5.2c-2.9,0-4.6-1.8-4.6-5c0-3.1,1.8-5,4.8-5C161.4,103.8,163.1,105.6,163.1,108.6z
			 M160.6,108.7c0-2-0.8-3.1-2.2-3.1c-1.4,0-2.2,1.1-2.2,3.1c0,2.1,0.8,3.2,2.3,3.2C159.9,112,160.6,110.8,160.6,108.7z"/>
		<path d="M177.6,101.2c-0.6-0.2-1.2-0.3-1.7-0.3c-1.4,0-1.7,0.7-1.7,2v1.1h2.5v1.7h-2.5v7.8h-2.4v-7.8h-3.5v7.8h-2.4v-7.8h-1.4
			v-1.7h1.4v-0.2c0-2.9,1.6-4.1,4.4-4.1c0.9,0,1.7,0.1,2.5,0.4c0.6-0.6,1.6-1,2.9-1c0.9,0,1.6,0.1,2.3,0.3L177.6,101.2L177.6,101.2z
			 M171.8,104.1v-1c0-0.5,0-0.9,0.1-1.3c-0.5-0.1-1-0.2-1.6-0.2c-1.4,0-2.1,0.8-2.1,2.2v0.3L171.8,104.1L171.8,104.1z"/>
		<path d="M180.5,112c0.9,0,1.4-0.3,1.4-1c0-1.8-4.4-1.3-4.4-4.5c0-1.9,1.7-2.8,3.7-2.8c1,0,2,0.2,2.8,0.5l-0.5,1.8
			c-0.6-0.2-1.4-0.5-2.2-0.5c-0.9,0-1.4,0.3-1.4,0.9c0,1.7,4.5,1.2,4.5,4.5c0,2.1-1.7,2.8-3.8,2.8c-1.1,0-2.4-0.2-3.3-0.7l0.6-1.8
			C178.5,111.7,179.6,112,180.5,112z"/>
		<path d="M193.7,113c-1,0.5-2.1,0.8-3.5,0.8c-2.9,0-4.5-1.8-4.5-5s1.6-5,4.4-5c2.4,0,3.7,1.5,3.7,4c0,0.4,0,0.9-0.1,1.4H188
			c0.1,1.8,0.9,2.8,2.5,2.8c1,0,1.9-0.3,2.8-0.7L193.7,113L193.7,113z M190.1,105.5c-1.2,0-1.9,0.7-2.1,2.2h3.9
			C191.9,106.3,191.2,105.5,190.1,105.5z"/>
		<path d="M200,113.8c-2.2,0-3.3-1.1-3.3-3.4v-4.6h-1.4V104h1.4v-3l2.4-0.6v3.6h2.5v1.7h-2.5v4.5c0,1,0.4,1.5,1.3,1.5
			c0.5,0,1-0.1,1.4-0.2l0.3,1.9C201.5,113.7,200.8,113.8,200,113.8z"/>
		<path d="M204.1,100.6h2.4v11h6v1.9h-8.4V100.6z"/>
		<path d="M221.3,113c-1,0.5-2.1,0.8-3.5,0.8c-2.9,0-4.5-1.8-4.5-5s1.6-5,4.4-5c2.4,0,3.7,1.5,3.7,4c0,0.4,0,0.9-0.1,1.4h-5.8
			c0.1,1.8,0.9,2.8,2.5,2.8c1,0,1.9-0.3,2.8-0.7L221.3,113L221.3,113z M217.7,105.5c-1.2,0-1.9,0.7-2.1,2.2h3.9
			C219.5,106.3,218.9,105.5,217.7,105.5z"/>
		<path d="M228.6,100.9c-1.5,0-1.8,0.7-1.8,2v1.2h2.5v1.7h-2.5v7.8h-2.4v-7.8H223V104h1.4v-1.1c0-2.3,1-3.9,4-3.9
			c1,0,1.7,0.1,2.4,0.3l-0.4,1.7C229.8,101,229.1,100.9,228.6,100.9z"/>
		<path d="M234.7,113.8c-2.2,0-3.3-1.1-3.3-3.4v-4.6H230V104h1.4v-3l2.4-0.6v3.6h2.5v1.7h-2.5v4.5c0,1,0.4,1.5,1.3,1.5
			c0.5,0,1-0.1,1.4-0.2l0.3,1.9C236.3,113.7,235.6,113.8,234.7,113.8z"/>
	</g>
</g>
</svg>
