<?xml version="1.0" encoding="utf-8"?>
<!-- Generator: Adobe Illustrator 18.1.0, SVG Export Plug-In . SVG Version: 6.00 Build 0)  -->
<svg version="1.1" xmlns="http://www.w3.org/2000/svg" xmlns:xlink="http://www.w3.org/1999/xlink" x="0px" y="0px"
	 viewBox="0 0 1016 751" enable-background="new 0 0 1016 751" xml:space="preserve">
<g id="padding">
	<path fill="#FCF192" d="M233.8,344.5v275H693v-275H233.8z M668.8,597H258V367h410.8V597z"/>
</g>
<g id="content">
	<rect x="258.5" y="280.3" fill="none" width="410.3" height="420.2"/>
	<text transform="matrix(1 0 0 1 258.5 288.4575)"><tspan x="0" y="0" font-family="'GraublauSans-Regular'" font-size="12">Bavaria ipsum dolor sit amet Steckerleis wea nia ausgähd, kummt nia hoam </tspan><tspan x="0" y="14.4" font-family="'GraublauSans-Regular'" font-size="12">Semmlkneedl back mas Resi großherzig wo hi boarischer hob am acht’n Tag schuf </tspan><tspan x="0" y="28.8" font-family="'GraublauSans-Regular'" font-size="12">Gott des Bia? Fei des is hoid aso g’hupft wia gsprunga, auf gehds beim Schichtl </tspan><tspan x="0" y="43.2" font-family="'GraublauSans-Regular'" font-size="12">Greichats! Biawambn Schuabladdla is des liab, pfenningguat. Steckerleis Brezn naa </tspan><tspan x="0" y="57.6" font-family="'GraublauSans-Regular'" font-size="12">di Biawambn zua Watschnbaam. Gams sammawiedaguad Deandlgwand scheans </tspan><tspan x="0" y="72" font-family="'GraublauSans-Regular'" font-size="12">baddscher Oachkatzlschwoaf, hogg di hera. Ned woar Spuiratz singan no a Maß </tspan><tspan x="0" y="86.4" font-family="'GraublauSans-Regular'" font-size="12">scheans g’hupft wia gsprunga und glei wirds no fui lustiga wos an a bravs hoggd! </tspan><tspan x="0" y="100.8" font-family="'GraublauSans-Regular'" font-size="12">Bradwurschtsemmal du dadst ma scho daugn sei hogg ma uns zamm, schaugn in </tspan><tspan x="0" y="115.2" font-family="'GraublauSans-Regular'" font-size="12">da is hogg ma uns zamm Kirwa noch da Giasinga Heiwog: Barfuaßat Marterl </tspan><tspan x="0" y="129.6" font-family="'GraublauSans-Regular'" font-size="12">Klampfn hoggd ded jo mei is des schee i sog ja nix, i red ja bloß g’hupft wia gsprun</tspan><tspan x="404.3" y="129.6" font-family="'GraublauSans-Regular'" font-size="12">-</tspan><tspan x="0" y="144" font-family="'GraublauSans-Regular'" font-size="12">ga Klampfn Buam. A so a Schmarn ned a Hoiwe, vui. Zwoa Foidweg dei hod Mar</tspan><tspan x="390.8" y="144" font-family="'GraublauSans-Regular'" font-size="12">-</tspan><tspan x="0" y="158.4" font-family="'GraublauSans-Regular'" font-size="12">terl, Wurscht obacht obandeln Reiwadatschi. Gaudi griasd eich midnand. </tspan><tspan x="0" y="230.4" font-family="'GraublauSans-SmboldItalic'" font-size="48">Headline</tspan><tspan x="0" y="259.2" font-family="'GraublauSans-Regular'" font-size="12">Bavaria ipsum dolor sit amet Steckerleis wea nia ausgähd, kummt nia hoam </tspan><tspan x="0" y="273.6" font-family="'GraublauSans-Regular'" font-size="12">Semmlkneedl back mas Resi großherzig wo hi boarischer hob am acht’n Tag schuf </tspan><tspan x="0" y="288" font-family="'GraublauSans-Regular'" font-size="12">Gott des Bia? Fei des is hoid aso g’hupft wia gsprunga, auf gehds beim Schichtl </tspan><tspan x="0" y="302.4" font-family="'GraublauSans-Regular'" font-size="12">Greichats! Biawambn Schuabladdla is des liab, pfenningguat. Steckerleis Brezn naa </tspan><tspan x="0" y="316.8" font-family="'GraublauSans-Regular'" font-size="12">di Biawambn zua Watschnbaam. Gams sammawiedaguad Deandlgwand scheans </tspan><tspan x="0" y="331.2" font-family="'GraublauSans-Regular'" font-size="12">baddscher Oachkatzlschwoaf, hogg di hera. Ned woar Spuiratz singan no a Maß </tspan><tspan x="0" y="345.6" font-family="'GraublauSans-Regular'" font-size="12">scheans g’hupft wia gsprunga und glei wirds no fui lustiga wos an a bravs hoggd! </tspan><tspan x="0" y="360" font-family="'GraublauSans-Regular'" font-size="12">Bradwurschtsemmal du dadst ma scho daugn sei hogg ma uns zamm, schaugn in </tspan><tspan x="0" y="374.4" font-family="'GraublauSans-Regular'" font-size="12">da is hogg ma uns zamm Kirwa noch da Giasinga Heiwog: Barfuaßat Marterl </tspan><tspan x="0" y="388.8" font-family="'GraublauSans-Regular'" font-size="12">Semmlkneedl back mas Resi großherzig wo hi boarischer hob am acht’n Tag schuf </tspan><tspan x="0" y="403.2" font-family="'GraublauSans-Regular'" font-size="12">Gott des Bia? Fei des is hoid aso g’hupft wia gs</tspan></text>
</g>
<g id="content-mask">
	<path opacity="0.5" fill="#FFFFFF" d="M144.7,152v687.5h855V152H144.7z M693,619.5H233.8v-275H693V619.5z"/>
</g>
<g id="scrollbar">
	<line fill="none" stroke="#CAC9C9" stroke-width="10" stroke-miterlimit="10" x1="687.5" y1="620" x2="687.5" y2="344.5"/>
	
		<line fill="none" stroke="#444443" stroke-width="7" stroke-linecap="round" stroke-miterlimit="10" x1="687.5" y1="552.8" x2="687.5" y2="446.2"/>
</g>
<g id="margin">
	<path fill="#A4D7D8" d="M207.2,317v330h512.5V317H207.2z M692.7,620H234.1V344h458.6V620z"/>
</g>
<g id="border">
	<rect x="229.8" y="340" fill="none" stroke="#000000" stroke-width="10" stroke-miterlimit="10" width="467.2" height="284"/>
</g>
<g id="alignment_borders">
	<g opacity="0.6">
		<g>
			<line fill="none" stroke="#010202" stroke-width="0.5" stroke-miterlimit="10" x1="235.2" y1="716" x2="235.2" y2="713"/>
			
				<line fill="none" stroke="#010202" stroke-width="0.5" stroke-miterlimit="10" stroke-dasharray="5.9578,5.9578" x1="235.2" y1="707" x2="235.2" y2="42.7"/>
			<line fill="none" stroke="#010202" stroke-width="0.5" stroke-miterlimit="10" x1="235.2" y1="39.8" x2="235.2" y2="36.8"/>
		</g>
	</g>
	<g opacity="0.6">
		<g>
			<line fill="none" stroke="#010202" stroke-width="0.5" stroke-miterlimit="10" x1="225.6" y1="716" x2="225.6" y2="713"/>
			
				<line fill="none" stroke="#010202" stroke-width="0.5" stroke-miterlimit="10" stroke-dasharray="5.9578,5.9578" x1="225.6" y1="707" x2="225.6" y2="42.7"/>
			<line fill="none" stroke="#010202" stroke-width="0.5" stroke-miterlimit="10" x1="225.6" y1="39.8" x2="225.6" y2="36.8"/>
		</g>
	</g>
	<g opacity="0.6">
		<g>
			<line fill="none" stroke="#010202" stroke-width="0.5" stroke-miterlimit="10" x1="206.6" y1="716" x2="206.6" y2="713"/>
			
				<line fill="none" stroke="#010202" stroke-width="0.5" stroke-miterlimit="10" stroke-dasharray="5.9578,5.9578" x1="206.6" y1="707" x2="206.6" y2="42.7"/>
			<line fill="none" stroke="#010202" stroke-width="0.5" stroke-miterlimit="10" x1="206.6" y1="39.8" x2="206.6" y2="36.8"/>
		</g>
	</g>
	<g opacity="0.6">
		<g>
			<line fill="none" stroke="#010202" stroke-width="0.5" stroke-miterlimit="10" x1="206.6" y1="716" x2="206.6" y2="713"/>
			
				<line fill="none" stroke="#010202" stroke-width="0.5" stroke-miterlimit="10" stroke-dasharray="5.9578,5.9578" x1="206.6" y1="707" x2="206.6" y2="42.7"/>
			<line fill="none" stroke="#010202" stroke-width="0.5" stroke-miterlimit="10" x1="206.6" y1="39.8" x2="206.6" y2="36.8"/>
		</g>
	</g>
	<g opacity="0.6">
		<g>
			<line fill="none" stroke="#010202" stroke-width="0.5" stroke-miterlimit="10" x1="257.6" y1="716" x2="257.6" y2="713"/>
			
				<line fill="none" stroke="#010202" stroke-width="0.5" stroke-miterlimit="10" stroke-dasharray="5.9578,5.9578" x1="257.6" y1="707" x2="257.6" y2="42.7"/>
			<line fill="none" stroke="#010202" stroke-width="0.5" stroke-miterlimit="10" x1="257.6" y1="39.8" x2="257.6" y2="36.8"/>
		</g>
	</g>
	<g opacity="0.6">
		<g>
			<line fill="none" stroke="#010202" stroke-width="0.5" stroke-miterlimit="10" x1="668.8" y1="716" x2="668.8" y2="713"/>
			
				<line fill="none" stroke="#010202" stroke-width="0.5" stroke-miterlimit="10" stroke-dasharray="5.9578,5.9578" x1="668.8" y1="707" x2="668.8" y2="42.7"/>
			<line fill="none" stroke="#010202" stroke-width="0.5" stroke-miterlimit="10" x1="668.8" y1="39.8" x2="668.8" y2="36.8"/>
		</g>
	</g>
	<g opacity="0.6">
		<g>
			<line fill="none" stroke="#010202" stroke-width="0.5" stroke-miterlimit="10" x1="682.8" y1="716" x2="682.8" y2="713"/>
			
				<line fill="none" stroke="#010202" stroke-width="0.5" stroke-miterlimit="10" stroke-dasharray="5.9578,5.9578" x1="682.8" y1="707" x2="682.8" y2="42.7"/>
			<line fill="none" stroke="#010202" stroke-width="0.5" stroke-miterlimit="10" x1="682.8" y1="39.8" x2="682.8" y2="36.8"/>
		</g>
	</g>
	<g opacity="0.6">
		<g>
			<line fill="none" stroke="#010202" stroke-width="0.5" stroke-miterlimit="10" x1="206.4" y1="345.1" x2="209.4" y2="345.1"/>
			
				<line fill="none" stroke="#010202" stroke-width="0.5" stroke-miterlimit="10" stroke-dasharray="6.0052,6.0052" x1="215.4" y1="345.1" x2="969.1" y2="345.1"/>
			<line fill="none" stroke="#010202" stroke-width="0.5" stroke-miterlimit="10" x1="972.1" y1="345.1" x2="975.1" y2="345.1"/>
		</g>
	</g>
	<g opacity="0.6">
		<g>
			<line fill="none" stroke="#010202" stroke-width="0.5" stroke-miterlimit="10" x1="206.4" y1="335.6" x2="209.4" y2="335.6"/>
			
				<line fill="none" stroke="#010202" stroke-width="0.5" stroke-miterlimit="10" stroke-dasharray="6.0052,6.0052" x1="215.4" y1="335.6" x2="969.1" y2="335.6"/>
			<line fill="none" stroke="#010202" stroke-width="0.5" stroke-miterlimit="10" x1="972.1" y1="335.6" x2="975.1" y2="335.6"/>
		</g>
	</g>
	<g opacity="0.6">
		<g>
			<line fill="none" stroke="#010202" stroke-width="0.5" stroke-miterlimit="10" x1="206.4" y1="316.6" x2="209.4" y2="316.6"/>
			
				<line fill="none" stroke="#010202" stroke-width="0.5" stroke-miterlimit="10" stroke-dasharray="6.0052,6.0052" x1="215.4" y1="316.6" x2="969.1" y2="316.6"/>
			<line fill="none" stroke="#010202" stroke-width="0.5" stroke-miterlimit="10" x1="972.1" y1="316.6" x2="975.1" y2="316.6"/>
		</g>
	</g>
	<g opacity="0.6">
		<g>
			<line fill="none" stroke="#010202" stroke-width="0.5" stroke-miterlimit="10" x1="692.6" y1="37.3" x2="692.6" y2="40.3"/>
			
				<line fill="none" stroke="#010202" stroke-width="0.5" stroke-miterlimit="10" stroke-dasharray="5.9532,5.9532" x1="692.6" y1="46.2" x2="692.6" y2="710"/>
			<line fill="none" stroke="#010202" stroke-width="0.5" stroke-miterlimit="10" x1="692.6" y1="713" x2="692.6" y2="716"/>
		</g>
	</g>
	<g opacity="0.6">
		<g>
			<line fill="none" stroke="#010202" stroke-width="0.5" stroke-miterlimit="10" x1="702.2" y1="37.3" x2="702.2" y2="40.3"/>
			
				<line fill="none" stroke="#010202" stroke-width="0.5" stroke-miterlimit="10" stroke-dasharray="5.9532,5.9532" x1="702.2" y1="46.2" x2="702.2" y2="710"/>
			<line fill="none" stroke="#010202" stroke-width="0.5" stroke-miterlimit="10" x1="702.2" y1="713" x2="702.2" y2="716"/>
		</g>
	</g>
	<g opacity="0.6">
		<g>
			<line fill="none" stroke="#010202" stroke-width="0.5" stroke-miterlimit="10" x1="720.2" y1="37.3" x2="720.2" y2="40.3"/>
			
				<line fill="none" stroke="#010202" stroke-width="0.5" stroke-miterlimit="10" stroke-dasharray="5.9532,5.9532" x1="720.2" y1="46.2" x2="720.2" y2="710"/>
			<line fill="none" stroke="#010202" stroke-width="0.5" stroke-miterlimit="10" x1="720.2" y1="713" x2="720.2" y2="716"/>
		</g>
	</g>
	<g opacity="0.6">
		<g>
			<line fill="none" stroke="#010202" stroke-width="0.5" stroke-miterlimit="10" x1="974.4" y1="619.6" x2="971.4" y2="619.6"/>
			
				<line fill="none" stroke="#010202" stroke-width="0.5" stroke-miterlimit="10" stroke-dasharray="6.0052,6.0052" x1="965.4" y1="619.6" x2="211.7" y2="619.6"/>
			<line fill="none" stroke="#010202" stroke-width="0.5" stroke-miterlimit="10" x1="208.7" y1="619.6" x2="205.7" y2="619.6"/>
		</g>
	</g>
	<g opacity="0.6">
		<g>
			<line fill="none" stroke="#010202" stroke-width="0.5" stroke-miterlimit="10" x1="974.4" y1="629.1" x2="971.4" y2="629.1"/>
			
				<line fill="none" stroke="#010202" stroke-width="0.5" stroke-miterlimit="10" stroke-dasharray="6.0052,6.0052" x1="965.4" y1="629.1" x2="211.7" y2="629.1"/>
			<line fill="none" stroke="#010202" stroke-width="0.5" stroke-miterlimit="10" x1="208.7" y1="629.1" x2="205.7" y2="629.1"/>
		</g>
	</g>
	<g opacity="0.6">
		<g>
			<line fill="none" stroke="#010202" stroke-width="0.5" stroke-miterlimit="10" x1="974.4" y1="647.1" x2="971.4" y2="647.1"/>
			
				<line fill="none" stroke="#010202" stroke-width="0.5" stroke-miterlimit="10" stroke-dasharray="6.0052,6.0052" x1="965.4" y1="647.1" x2="211.7" y2="647.1"/>
			<line fill="none" stroke="#010202" stroke-width="0.5" stroke-miterlimit="10" x1="208.7" y1="647.1" x2="205.7" y2="647.1"/>
		</g>
	</g>
	<g opacity="0.6">
		<g>
			<line fill="none" stroke="#010202" stroke-width="0.5" stroke-miterlimit="10" x1="206.4" y1="367.6" x2="209.4" y2="367.6"/>
			
				<line fill="none" stroke="#010202" stroke-width="0.5" stroke-miterlimit="10" stroke-dasharray="6.0052,6.0052" x1="215.4" y1="367.6" x2="969.1" y2="367.6"/>
			<line fill="none" stroke="#010202" stroke-width="0.5" stroke-miterlimit="10" x1="972.1" y1="367.6" x2="975.1" y2="367.6"/>
		</g>
	</g>
	<g opacity="0.6">
		<g>
			<line fill="none" stroke="#010202" stroke-width="0.5" stroke-miterlimit="10" x1="206.4" y1="279.6" x2="209.4" y2="279.6"/>
			
				<line fill="none" stroke="#010202" stroke-width="0.5" stroke-miterlimit="10" stroke-dasharray="6.0052,6.0052" x1="215.4" y1="279.6" x2="969.1" y2="279.6"/>
			<line fill="none" stroke="#010202" stroke-width="0.5" stroke-miterlimit="10" x1="972.1" y1="279.6" x2="975.1" y2="279.6"/>
		</g>
	</g>
	<g opacity="0.6">
		<g>
			<line fill="none" stroke="#010202" stroke-width="0.5" stroke-miterlimit="10" x1="205.7" y1="694.6" x2="208.7" y2="694.6"/>
			
				<line fill="none" stroke="#010202" stroke-width="0.5" stroke-miterlimit="10" stroke-dasharray="6.0052,6.0052" x1="214.7" y1="694.6" x2="968.4" y2="694.6"/>
			<line fill="none" stroke="#010202" stroke-width="0.5" stroke-miterlimit="10" x1="971.4" y1="694.6" x2="974.4" y2="694.6"/>
		</g>
	</g>
	<g opacity="0.6">
		<g>
			<line fill="none" stroke="#010202" stroke-width="0.5" stroke-miterlimit="10" x1="205.7" y1="597.6" x2="208.7" y2="597.6"/>
			
				<line fill="none" stroke="#010202" stroke-width="0.5" stroke-miterlimit="10" stroke-dasharray="6.0052,6.0052" x1="214.7" y1="597.6" x2="968.4" y2="597.6"/>
			<line fill="none" stroke="#010202" stroke-width="0.5" stroke-miterlimit="10" x1="971.4" y1="597.6" x2="974.4" y2="597.6"/>
		</g>
	</g>
</g>
<g id="offsetparent">
	<rect x="43" y="37" opacity="0.3" fill="#76AD76" width="931" height="37"/>
	<rect x="45" y="74" opacity="0.3" fill="#76AD76" width="37" height="642"/>
	<rect x="43" y="37" fill="none" stroke="#76AD76" stroke-width="5" stroke-miterlimit="10" width="932" height="679"/>
</g>
<g id="legend">
	
		<line fill="none" stroke="#010202" stroke-width="2" stroke-linecap="round" stroke-miterlimit="10" x1="215.5" y1="434.5" x2="188.8" y2="434.5"/>
	<g>
		<path d="M119.3,430.7c1.2-0.8,2.2-1.2,3.3-1.2c1.1,0,2,0.4,2.5,1.4c1.5-1.1,2.6-1.4,3.6-1.4c1.7,0,2.8,0.8,2.8,3.3v6.4h-2.4v-6
			c0-1-0.4-1.6-1.3-1.6c-0.6,0-1.4,0.3-2.3,1.1v0.1v6.4h-2.4v-6c0-1-0.4-1.6-1.3-1.6c-0.7,0-1.5,0.4-2.3,1.1v6.5h-2.4v-9.5h2.2
			V430.7L119.3,430.7z"/>
		<path d="M139.4,438.3c-0.8,0.6-1.6,1.2-2.8,1.2c-1.6,0-2.8-1-2.8-2.7c0-2.3,2.2-3.1,5.3-3.3v-0.7c0-1-0.5-1.5-1.6-1.5
			c-0.7,0-1.6,0.2-2.8,0.6l-0.5-1.7c1.2-0.5,2.4-0.7,3.6-0.7c2.4,0,3.6,1.1,3.6,3.3v3.6c0,1.1,0.1,1.9,0.2,2.8h-2
			C139.5,438.9,139.5,438.7,139.4,438.3z M139.1,434.9c-1.9,0.1-3,0.4-3,1.6c0,0.7,0.4,1.2,1,1.2c0.6,0,1.3-0.4,1.9-0.9L139.1,434.9
			L139.1,434.9z"/>
		<path d="M147.1,433.9v5.3h-2.4v-9.5h2.4v1.8c1.2-1.5,2.4-2.3,4.1-1.8l-0.3,2.2C149.5,431.6,148.3,432.1,147.1,433.9z"/>
		<path d="M161,429.1c-0.8,0.2-1.6,0.6-2.1,1.3c0.7,0.6,1,1.5,1,2.6c0,2-1.4,3.2-3.7,3.2c-0.3,0-0.5,0-0.7,0
			c-0.2,0.2-0.3,0.5-0.3,0.8c0,1.8,5.6,0.6,5.6,4.2c0,2.5-2.4,3-4.6,3c-2.4,0-4.2-0.9-4.2-2.8c0-1.2,0.8-2.1,1.6-2.8
			c-0.3-0.3-0.4-0.8-0.4-1.3c0-0.7,0.3-1.3,0.7-1.8c-0.9-0.6-1.3-1.5-1.3-2.7c0-2.1,1.4-3.4,3.7-3.4c0.5,0,1,0.1,1.4,0.2
			c0.9-1,1.8-2,3-2.3L161,429.1L161,429.1z M158.5,441.4c0-1.3-2.1-1.3-3.7-1.8c-0.6,0.6-1,1.1-1,1.7c0,0.9,0.9,1.4,2.4,1.4
			C157.5,442.6,158.5,442.4,158.5,441.4z M154.5,432.8c0,1,0.6,1.6,1.6,1.6c1,0,1.7-0.6,1.7-1.6c0-1-0.6-1.7-1.7-1.7
			S154.5,431.8,154.5,432.8z"/>
		<path d="M162.6,426.6c0-0.8,0.6-1.4,1.4-1.4c0.9,0,1.5,0.6,1.5,1.4c0,0.8-0.6,1.4-1.5,1.4C163.1,428,162.6,427.5,162.6,426.6z
			 M162.8,429.7h2.4v9.5h-2.4V429.7z"/>
		<path d="M174.1,429.5c1.9,0,2.9,1.1,2.9,3.4v6.3h-2.4v-6.1c0-1-0.4-1.5-1.4-1.5c-0.7,0-1.5,0.4-2.4,1.1v6.6h-2.4v-9.5h2.3l0,1
			C172,429.9,173,429.5,174.1,429.5z"/>
	</g>
	
		<line fill="none" stroke="#010202" stroke-width="2" stroke-linecap="round" stroke-miterlimit="10" x1="233.8" y1="464.5" x2="188.8" y2="464.5"/>
	<g>
		<path d="M124.7,459.5c2.8,0,4.2,1.7,4.2,4.8c0,3.4-1.7,5.2-4.9,5.2c-1.2,0-2.6-0.4-3.7-0.9V455h2.4v5
			C123.4,459.6,124,459.5,124.7,459.5z M124.1,467.6c1.6,0,2.4-1.1,2.4-3.2c0-2-0.8-3-2.2-3c-0.6,0-1.1,0.1-1.6,0.5v5.4
			C123.1,467.5,123.6,467.6,124.1,467.6z"/>
		<path d="M140.2,464.3c0,3.2-1.8,5.2-4.7,5.2c-2.9,0-4.6-1.8-4.6-5c0-3.1,1.8-5,4.8-5C138.5,459.5,140.2,461.3,140.2,464.3z
			 M137.7,464.4c0-2-0.8-3.1-2.2-3.1c-1.4,0-2.2,1.1-2.2,3.1c0,2.1,0.8,3.2,2.3,3.2C137,467.6,137.7,466.5,137.7,464.4z"/>
		<path d="M145.2,463.9v5.3h-2.4v-9.5h2.4v1.8c1.2-1.5,2.4-2.3,4.1-1.8l-0.3,2.2C147.5,461.6,146.3,462.1,145.2,463.9z"/>
		<path d="M158.7,468.9c-1.1,0.3-2.5,0.6-3.8,0.6c-3.2,0-4.8-1.7-4.8-4.9c0-3.2,1.7-5.1,4.6-5.1c0.8,0,1.2,0.1,1.7,0.3V455h2.4
			V468.9z M156.3,461.7c-0.4-0.2-1-0.3-1.5-0.3c-1.5,0-2.4,1.1-2.4,3c0,2,0.8,3.1,2.5,3.1c0.4,0,0.9-0.1,1.3-0.2V461.7L156.3,461.7z
			"/>
		<path d="M169.2,468.7c-1,0.5-2.1,0.8-3.5,0.8c-2.9,0-4.5-1.8-4.5-5s1.6-5,4.4-5c2.4,0,3.7,1.5,3.7,4c0,0.4,0,0.9-0.1,1.4h-5.8
			c0.1,1.8,0.9,2.8,2.5,2.8c1,0,1.9-0.3,2.8-0.7L169.2,468.7L169.2,468.7z M165.6,461.2c-1.2,0-1.9,0.7-2.1,2.2h3.9
			C167.4,462,166.8,461.2,165.6,461.2z"/>
		<path d="M174.4,463.9v5.3H172v-9.5h2.4v1.8c1.2-1.5,2.4-2.3,4.1-1.8l-0.3,2.2C176.8,461.6,175.6,462.1,174.4,463.9z"/>
	</g>
	
		<line fill="none" stroke="#010202" stroke-width="2" stroke-linecap="round" stroke-miterlimit="10" x1="246.3" y1="494.5" x2="188.8" y2="494.5"/>
	<g>
		<path d="M113.2,489.5c3.2,0,4.8,1.7,4.8,4.9c0,3.2-1.7,5.1-4.6,5.1c-0.7,0-1.2-0.1-1.6-0.3v4.9h-2.4v-14
			C110.4,489.7,111.9,489.5,113.2,489.5z M111.7,497.2c0.4,0.2,1,0.3,1.5,0.3c1.5,0,2.4-1.1,2.4-3c0-2-0.8-3.1-2.5-3.1
			c-0.4,0-0.9,0.1-1.3,0.2L111.7,497.2L111.7,497.2z"/>
		<path d="M125.2,498.3c-0.8,0.6-1.6,1.2-2.8,1.2c-1.6,0-2.8-1-2.8-2.7c0-2.3,2.2-3.1,5.3-3.3v-0.7c0-1-0.5-1.5-1.6-1.5
			c-0.7,0-1.6,0.2-2.8,0.6l-0.5-1.7c1.2-0.5,2.4-0.7,3.6-0.7c2.4,0,3.6,1.1,3.6,3.3v3.6c0,1.1,0.1,1.9,0.2,2.8h-2
			C125.3,498.9,125.2,498.7,125.2,498.3z M124.9,494.9c-1.9,0.1-3,0.4-3,1.6c0,0.7,0.4,1.2,1,1.2c0.6,0,1.3-0.4,1.9-0.9L124.9,494.9
			L124.9,494.9z"/>
		<path d="M138.4,498.9c-1.1,0.3-2.5,0.6-3.8,0.6c-3.2,0-4.8-1.7-4.8-4.9c0-3.2,1.7-5.1,4.6-5.1c0.8,0,1.2,0.1,1.7,0.3V485h2.4
			V498.9z M136,491.7c-0.4-0.2-1-0.3-1.5-0.3c-1.5,0-2.4,1.1-2.4,3c0,2,0.8,3.1,2.5,3.1c0.4,0,0.9-0.1,1.3-0.2V491.7L136,491.7z"/>
		<path d="M149.7,498.9c-1.1,0.3-2.5,0.6-3.8,0.6c-3.2,0-4.8-1.7-4.8-4.9c0-3.2,1.7-5.1,4.6-5.1c0.8,0,1.2,0.1,1.7,0.3V485h2.4
			V498.9z M147.3,491.7c-0.4-0.2-1-0.3-1.5-0.3c-1.5,0-2.4,1.1-2.4,3c0,2,0.8,3.1,2.5,3.1c0.4,0,0.9-0.1,1.3-0.2V491.7L147.3,491.7z
			"/>
		<path d="M152.8,486.6c0-0.8,0.6-1.4,1.4-1.4c0.9,0,1.5,0.6,1.5,1.4c0,0.8-0.6,1.4-1.5,1.4C153.3,488,152.8,487.5,152.8,486.6z
			 M153,489.7h2.4v9.5H153V489.7z"/>
		<path d="M164.3,489.5c1.9,0,2.9,1.1,2.9,3.4v6.3h-2.4v-6.1c0-1-0.4-1.5-1.4-1.5c-0.7,0-1.5,0.4-2.4,1.1v6.6h-2.4v-9.5h2.3l0,1
			C162.2,489.9,163.2,489.5,164.3,489.5z"/>
		<path d="M178.5,489.1c-0.8,0.2-1.6,0.6-2.1,1.3c0.7,0.6,1,1.5,1,2.6c0,2-1.4,3.2-3.7,3.2c-0.3,0-0.5,0-0.7,0
			c-0.2,0.2-0.3,0.5-0.3,0.8c0,1.8,5.6,0.6,5.6,4.2c0,2.5-2.4,3-4.6,3c-2.4,0-4.2-0.9-4.2-2.8c0-1.2,0.8-2.1,1.6-2.8
			c-0.3-0.3-0.4-0.8-0.4-1.3c0-0.7,0.3-1.3,0.7-1.8c-0.9-0.6-1.3-1.5-1.3-2.7c0-2.1,1.4-3.4,3.7-3.4c0.5,0,1,0.1,1.4,0.2
			c0.9-1,1.8-2,3-2.3L178.5,489.1L178.5,489.1z M176,501.4c0-1.3-2.1-1.3-3.7-1.8c-0.6,0.6-1,1.1-1,1.7c0,0.9,0.9,1.4,2.4,1.4
			C175,502.6,176,502.4,176,501.4z M172,492.8c0,1,0.6,1.6,1.6,1.6c1,0,1.7-0.6,1.7-1.6c0-1-0.6-1.7-1.7-1.7S172,491.8,172,492.8z"
			/>
	</g>
</g>
</svg>
