<?xml version="1.0" encoding="utf-8"?>
<!-- Generator: Adobe Illustrator 18.1.0, SVG Export Plug-In . SVG Version: 6.00 Build 0)  -->
<svg version="1.1" xmlns="http://www.w3.org/2000/svg" xmlns:xlink="http://www.w3.org/1999/xlink" x="0px" y="0px"
	 viewBox="0 0 1016 751" enable-background="new 0 0 1016 751" xml:space="preserve">
<g id="padding">
	<path fill="#FCF192" d="M233.8,344.5v275H693v-275H233.8z M668.8,597H258V367h410.8V597z"/>
</g>
<g id="content">
	<rect x="258.5" y="280.3" fill="none" width="410.3" height="420.2"/>
	<text transform="matrix(1 0 0 1 258.5 288.4575)"><tspan x="0" y="0" font-family="'GraublauSans-Regular'" font-size="12">Bavaria ipsum dolor sit amet Steckerleis wea nia ausgähd, kummt nia hoam </tspan><tspan x="0" y="14.4" font-family="'GraublauSans-Regular'" font-size="12">Semmlkneedl back mas Resi großherzig wo hi boarischer hob am acht’n Tag schuf </tspan><tspan x="0" y="28.8" font-family="'GraublauSans-Regular'" font-size="12">Gott des Bia? Fei des is hoid aso g’hupft wia gsprunga, auf gehds beim Schichtl </tspan><tspan x="0" y="43.2" font-family="'GraublauSans-Regular'" font-size="12">Greichats! Biawambn Schuabladdla is des liab, pfenningguat. Steckerleis Brezn naa </tspan><tspan x="0" y="57.6" font-family="'GraublauSans-Regular'" font-size="12">di Biawambn zua Watschnbaam. Gams sammawiedaguad Deandlgwand scheans </tspan><tspan x="0" y="72" font-family="'GraublauSans-Regular'" font-size="12">baddscher Oachkatzlschwoaf, hogg di hera. Ned woar Spuiratz singan no a Maß </tspan><tspan x="0" y="86.4" font-family="'GraublauSans-Regular'" font-size="12">scheans g’hupft wia gsprunga und glei wirds no fui lustiga wos an a bravs hoggd! </tspan><tspan x="0" y="100.8" font-family="'GraublauSans-Regular'" font-size="12">Bradwurschtsemmal du dadst ma scho daugn sei hogg ma uns zamm, schaugn in </tspan><tspan x="0" y="115.2" font-family="'GraublauSans-Regular'" font-size="12">da is hogg ma uns zamm Kirwa noch da Giasinga Heiwog: Barfuaßat Marterl </tspan><tspan x="0" y="129.6" font-family="'GraublauSans-Regular'" font-size="12">Klampfn hoggd ded jo mei is des schee i sog ja nix, i red ja bloß g’hupft wia gsprun</tspan><tspan x="404.3" y="129.6" font-family="'GraublauSans-Regular'" font-size="12">-</tspan><tspan x="0" y="144" font-family="'GraublauSans-Regular'" font-size="12">ga Klampfn Buam. A so a Schmarn ned a Hoiwe, vui. Zwoa Foidweg dei hod Mar</tspan><tspan x="390.8" y="144" font-family="'GraublauSans-Regular'" font-size="12">-</tspan><tspan x="0" y="158.4" font-family="'GraublauSans-Regular'" font-size="12">terl, Wurscht obacht obandeln Reiwadatschi. Gaudi griasd eich midnand. </tspan><tspan x="0" y="230.4" font-family="'GraublauSans-SmboldItalic'" font-size="48">Headline</tspan><tspan x="0" y="259.2" font-family="'GraublauSans-Regular'" font-size="12">Bavaria ipsum dolor sit amet Steckerleis wea nia ausgähd, kummt nia hoam </tspan><tspan x="0" y="273.6" font-family="'GraublauSans-Regular'" font-size="12">Semmlkneedl back mas Resi großherzig wo hi boarischer hob am acht’n Tag schuf </tspan><tspan x="0" y="288" font-family="'GraublauSans-Regular'" font-size="12">Gott des Bia? Fei des is hoid aso g’hupft wia gsprunga, auf gehds beim Schichtl </tspan><tspan x="0" y="302.4" font-family="'GraublauSans-Regular'" font-size="12">Greichats! Biawambn Schuabladdla is des liab, pfenningguat. Steckerleis Brezn naa </tspan><tspan x="0" y="316.8" font-family="'GraublauSans-Regular'" font-size="12">di Biawambn zua Watschnbaam. Gams sammawiedaguad Deandlgwand scheans </tspan><tspan x="0" y="331.2" font-family="'GraublauSans-Regular'" font-size="12">baddscher Oachkatzlschwoaf, hogg di hera. Ned woar Spuiratz singan no a Maß </tspan><tspan x="0" y="345.6" font-family="'GraublauSans-Regular'" font-size="12">scheans g’hupft wia gsprunga und glei wirds no fui lustiga wos an a bravs hoggd! </tspan><tspan x="0" y="360" font-family="'GraublauSans-Regular'" font-size="12">Bradwurschtsemmal du dadst ma scho daugn sei hogg ma uns zamm, schaugn in </tspan><tspan x="0" y="374.4" font-family="'GraublauSans-Regular'" font-size="12">da is hogg ma uns zamm Kirwa noch da Giasinga Heiwog: Barfuaßat Marterl </tspan><tspan x="0" y="388.8" font-family="'GraublauSans-Regular'" font-size="12">Semmlkneedl back mas Resi großherzig wo hi boarischer hob am acht’n Tag schuf </tspan><tspan x="0" y="403.2" font-family="'GraublauSans-Regular'" font-size="12">Gott des Bia? Fei des is hoid aso g’hupft wia gs</tspan></text>
</g>
<g id="content-mask">
	<path opacity="0.5" fill="#FFFFFF" d="M144.7,152v687.5h855V152H144.7z M693,619.5H233.8v-275H693V619.5z"/>
</g>
<g id="scrollbar">
	<line fill="none" stroke="#CAC9C9" stroke-width="10" stroke-miterlimit="10" x1="687.5" y1="620" x2="687.5" y2="344.5"/>
	
		<line fill="none" stroke="#444443" stroke-width="7" stroke-linecap="round" stroke-miterlimit="10" x1="687.5" y1="552.8" x2="687.5" y2="446.2"/>
</g>
<g id="margin">
	<path fill="#A4D7D8" d="M207.2,317v330h512.5V317H207.2z M692.7,620H234.1V344h458.6V620z"/>
</g>
<g id="border">
	<rect x="229.8" y="340" fill="none" stroke="#000000" stroke-width="10" stroke-miterlimit="10" width="467.2" height="284"/>
</g>
<g id="alignment_borders">
	<g opacity="0.6">
		<g>
			<line fill="none" stroke="#010202" stroke-width="0.5" stroke-miterlimit="10" x1="235.2" y1="716" x2="235.2" y2="713"/>
			
				<line fill="none" stroke="#010202" stroke-width="0.5" stroke-miterlimit="10" stroke-dasharray="5.9578,5.9578" x1="235.2" y1="707" x2="235.2" y2="42.7"/>
			<line fill="none" stroke="#010202" stroke-width="0.5" stroke-miterlimit="10" x1="235.2" y1="39.8" x2="235.2" y2="36.8"/>
		</g>
	</g>
	<g opacity="0.6">
		<g>
			<line fill="none" stroke="#010202" stroke-width="0.5" stroke-miterlimit="10" x1="225.6" y1="716" x2="225.6" y2="713"/>
			
				<line fill="none" stroke="#010202" stroke-width="0.5" stroke-miterlimit="10" stroke-dasharray="5.9578,5.9578" x1="225.6" y1="707" x2="225.6" y2="42.7"/>
			<line fill="none" stroke="#010202" stroke-width="0.5" stroke-miterlimit="10" x1="225.6" y1="39.8" x2="225.6" y2="36.8"/>
		</g>
	</g>
	<g opacity="0.6">
		<g>
			<line fill="none" stroke="#010202" stroke-width="0.5" stroke-miterlimit="10" x1="206.6" y1="716" x2="206.6" y2="713"/>
			
				<line fill="none" stroke="#010202" stroke-width="0.5" stroke-miterlimit="10" stroke-dasharray="5.9578,5.9578" x1="206.6" y1="707" x2="206.6" y2="42.7"/>
			<line fill="none" stroke="#010202" stroke-width="0.5" stroke-miterlimit="10" x1="206.6" y1="39.8" x2="206.6" y2="36.8"/>
		</g>
	</g>
	<g opacity="0.6">
		<g>
			<line fill="none" stroke="#010202" stroke-width="0.5" stroke-miterlimit="10" x1="206.6" y1="716" x2="206.6" y2="713"/>
			
				<line fill="none" stroke="#010202" stroke-width="0.5" stroke-miterlimit="10" stroke-dasharray="5.9578,5.9578" x1="206.6" y1="707" x2="206.6" y2="42.7"/>
			<line fill="none" stroke="#010202" stroke-width="0.5" stroke-miterlimit="10" x1="206.6" y1="39.8" x2="206.6" y2="36.8"/>
		</g>
	</g>
	<g opacity="0.6">
		<g>
			<line fill="none" stroke="#010202" stroke-width="0.5" stroke-miterlimit="10" x1="257.6" y1="716" x2="257.6" y2="713"/>
			
				<line fill="none" stroke="#010202" stroke-width="0.5" stroke-miterlimit="10" stroke-dasharray="5.9578,5.9578" x1="257.6" y1="707" x2="257.6" y2="42.7"/>
			<line fill="none" stroke="#010202" stroke-width="0.5" stroke-miterlimit="10" x1="257.6" y1="39.8" x2="257.6" y2="36.8"/>
		</g>
	</g>
	<g opacity="0.6">
		<g>
			<line fill="none" stroke="#010202" stroke-width="0.5" stroke-miterlimit="10" x1="668.8" y1="716" x2="668.8" y2="713"/>
			
				<line fill="none" stroke="#010202" stroke-width="0.5" stroke-miterlimit="10" stroke-dasharray="5.9578,5.9578" x1="668.8" y1="707" x2="668.8" y2="42.7"/>
			<line fill="none" stroke="#010202" stroke-width="0.5" stroke-miterlimit="10" x1="668.8" y1="39.8" x2="668.8" y2="36.8"/>
		</g>
	</g>
	<g opacity="0.6">
		<g>
			<line fill="none" stroke="#010202" stroke-width="0.5" stroke-miterlimit="10" x1="682.8" y1="716" x2="682.8" y2="713"/>
			
				<line fill="none" stroke="#010202" stroke-width="0.5" stroke-miterlimit="10" stroke-dasharray="5.9578,5.9578" x1="682.8" y1="707" x2="682.8" y2="42.7"/>
			<line fill="none" stroke="#010202" stroke-width="0.5" stroke-miterlimit="10" x1="682.8" y1="39.8" x2="682.8" y2="36.8"/>
		</g>
	</g>
	<g opacity="0.6">
		<g>
			<line fill="none" stroke="#010202" stroke-width="0.5" stroke-miterlimit="10" x1="206.4" y1="345.1" x2="209.4" y2="345.1"/>
			
				<line fill="none" stroke="#010202" stroke-width="0.5" stroke-miterlimit="10" stroke-dasharray="6.0052,6.0052" x1="215.4" y1="345.1" x2="969.1" y2="345.1"/>
			<line fill="none" stroke="#010202" stroke-width="0.5" stroke-miterlimit="10" x1="972.1" y1="345.1" x2="975.1" y2="345.1"/>
		</g>
	</g>
	<g opacity="0.6">
		<g>
			<line fill="none" stroke="#010202" stroke-width="0.5" stroke-miterlimit="10" x1="206.4" y1="335.6" x2="209.4" y2="335.6"/>
			
				<line fill="none" stroke="#010202" stroke-width="0.5" stroke-miterlimit="10" stroke-dasharray="6.0052,6.0052" x1="215.4" y1="335.6" x2="969.1" y2="335.6"/>
			<line fill="none" stroke="#010202" stroke-width="0.5" stroke-miterlimit="10" x1="972.1" y1="335.6" x2="975.1" y2="335.6"/>
		</g>
	</g>
	<g opacity="0.6">
		<g>
			<line fill="none" stroke="#010202" stroke-width="0.5" stroke-miterlimit="10" x1="206.4" y1="316.6" x2="209.4" y2="316.6"/>
			
				<line fill="none" stroke="#010202" stroke-width="0.5" stroke-miterlimit="10" stroke-dasharray="6.0052,6.0052" x1="215.4" y1="316.6" x2="969.1" y2="316.6"/>
			<line fill="none" stroke="#010202" stroke-width="0.5" stroke-miterlimit="10" x1="972.1" y1="316.6" x2="975.1" y2="316.6"/>
		</g>
	</g>
	<g opacity="0.6">
		<g>
			<line fill="none" stroke="#010202" stroke-width="0.5" stroke-miterlimit="10" x1="692.6" y1="37.3" x2="692.6" y2="40.3"/>
			
				<line fill="none" stroke="#010202" stroke-width="0.5" stroke-miterlimit="10" stroke-dasharray="5.9532,5.9532" x1="692.6" y1="46.2" x2="692.6" y2="710"/>
			<line fill="none" stroke="#010202" stroke-width="0.5" stroke-miterlimit="10" x1="692.6" y1="713" x2="692.6" y2="716"/>
		</g>
	</g>
	<g opacity="0.6">
		<g>
			<line fill="none" stroke="#010202" stroke-width="0.5" stroke-miterlimit="10" x1="702.2" y1="37.3" x2="702.2" y2="40.3"/>
			
				<line fill="none" stroke="#010202" stroke-width="0.5" stroke-miterlimit="10" stroke-dasharray="5.9532,5.9532" x1="702.2" y1="46.2" x2="702.2" y2="710"/>
			<line fill="none" stroke="#010202" stroke-width="0.5" stroke-miterlimit="10" x1="702.2" y1="713" x2="702.2" y2="716"/>
		</g>
	</g>
	<g opacity="0.6">
		<g>
			<line fill="none" stroke="#010202" stroke-width="0.5" stroke-miterlimit="10" x1="720.2" y1="37.3" x2="720.2" y2="40.3"/>
			
				<line fill="none" stroke="#010202" stroke-width="0.5" stroke-miterlimit="10" stroke-dasharray="5.9532,5.9532" x1="720.2" y1="46.2" x2="720.2" y2="710"/>
			<line fill="none" stroke="#010202" stroke-width="0.5" stroke-miterlimit="10" x1="720.2" y1="713" x2="720.2" y2="716"/>
		</g>
	</g>
	<g opacity="0.6">
		<g>
			<line fill="none" stroke="#010202" stroke-width="0.5" stroke-miterlimit="10" x1="974.4" y1="619.6" x2="971.4" y2="619.6"/>
			
				<line fill="none" stroke="#010202" stroke-width="0.5" stroke-miterlimit="10" stroke-dasharray="6.0052,6.0052" x1="965.4" y1="619.6" x2="211.7" y2="619.6"/>
			<line fill="none" stroke="#010202" stroke-width="0.5" stroke-miterlimit="10" x1="208.7" y1="619.6" x2="205.7" y2="619.6"/>
		</g>
	</g>
	<g opacity="0.6">
		<g>
			<line fill="none" stroke="#010202" stroke-width="0.5" stroke-miterlimit="10" x1="974.4" y1="629.1" x2="971.4" y2="629.1"/>
			
				<line fill="none" stroke="#010202" stroke-width="0.5" stroke-miterlimit="10" stroke-dasharray="6.0052,6.0052" x1="965.4" y1="629.1" x2="211.7" y2="629.1"/>
			<line fill="none" stroke="#010202" stroke-width="0.5" stroke-miterlimit="10" x1="208.7" y1="629.1" x2="205.7" y2="629.1"/>
		</g>
	</g>
	<g opacity="0.6">
		<g>
			<line fill="none" stroke="#010202" stroke-width="0.5" stroke-miterlimit="10" x1="974.4" y1="647.1" x2="971.4" y2="647.1"/>
			
				<line fill="none" stroke="#010202" stroke-width="0.5" stroke-miterlimit="10" stroke-dasharray="6.0052,6.0052" x1="965.4" y1="647.1" x2="211.7" y2="647.1"/>
			<line fill="none" stroke="#010202" stroke-width="0.5" stroke-miterlimit="10" x1="208.7" y1="647.1" x2="205.7" y2="647.1"/>
		</g>
	</g>
	<g opacity="0.6">
		<g>
			<line fill="none" stroke="#010202" stroke-width="0.5" stroke-miterlimit="10" x1="206.4" y1="367.6" x2="209.4" y2="367.6"/>
			
				<line fill="none" stroke="#010202" stroke-width="0.5" stroke-miterlimit="10" stroke-dasharray="6.0052,6.0052" x1="215.4" y1="367.6" x2="969.1" y2="367.6"/>
			<line fill="none" stroke="#010202" stroke-width="0.5" stroke-miterlimit="10" x1="972.1" y1="367.6" x2="975.1" y2="367.6"/>
		</g>
	</g>
	<g opacity="0.6">
		<g>
			<line fill="none" stroke="#010202" stroke-width="0.5" stroke-miterlimit="10" x1="206.4" y1="279.6" x2="209.4" y2="279.6"/>
			
				<line fill="none" stroke="#010202" stroke-width="0.5" stroke-miterlimit="10" stroke-dasharray="6.0052,6.0052" x1="215.4" y1="279.6" x2="969.1" y2="279.6"/>
			<line fill="none" stroke="#010202" stroke-width="0.5" stroke-miterlimit="10" x1="972.1" y1="279.6" x2="975.1" y2="279.6"/>
		</g>
	</g>
	<g opacity="0.6">
		<g>
			<line fill="none" stroke="#010202" stroke-width="0.5" stroke-miterlimit="10" x1="205.7" y1="694.6" x2="208.7" y2="694.6"/>
			
				<line fill="none" stroke="#010202" stroke-width="0.5" stroke-miterlimit="10" stroke-dasharray="6.0052,6.0052" x1="214.7" y1="694.6" x2="968.4" y2="694.6"/>
			<line fill="none" stroke="#010202" stroke-width="0.5" stroke-miterlimit="10" x1="971.4" y1="694.6" x2="974.4" y2="694.6"/>
		</g>
	</g>
	<g opacity="0.6">
		<g>
			<line fill="none" stroke="#010202" stroke-width="0.5" stroke-miterlimit="10" x1="205.7" y1="597.6" x2="208.7" y2="597.6"/>
			
				<line fill="none" stroke="#010202" stroke-width="0.5" stroke-miterlimit="10" stroke-dasharray="6.0052,6.0052" x1="214.7" y1="597.6" x2="968.4" y2="597.6"/>
			<line fill="none" stroke="#010202" stroke-width="0.5" stroke-miterlimit="10" x1="971.4" y1="597.6" x2="974.4" y2="597.6"/>
		</g>
	</g>
</g>
<g id="offsetparent">
	<rect x="43" y="37" opacity="0.3" fill="#76AD76" width="931" height="37"/>
	<rect x="45" y="74" opacity="0.3" fill="#76AD76" width="37" height="642"/>
	<rect x="43" y="37" fill="none" stroke="#76AD76" stroke-width="5" stroke-miterlimit="10" width="932" height="679"/>
</g>
<g id="legend">
	
		<line fill="none" stroke="#010202" stroke-width="2" stroke-linecap="round" stroke-miterlimit="10" x1="215.5" y1="434.5" x2="188.8" y2="434.5"/>
	<g>
		<path d="M119.3,430.7c1.2-0.8,2.2-1.2,3.3-1.2c1.1,0,2,0.4,2.5,1.4c1.5-1.1,2.6-1.4,3.6-1.4c1.7,0,2.8,0.8,2.8,3.3v6.4h-2.4v-6
			c0-1-0.4-1.6-1.3-1.6c-0.6,0-1.4,0.3-2.3,1.1v0.1v6.4h-2.4v-6c0-1-0.4-1.6-1.3-1.6c-0.7,0-1.5,0.4-2.3,1.1v6.5h-2.4v-9.5h2.2
			V430.7L119.3,430.7z"/>
		<path d="M139.4,438.3c-0.8,0.6-1.6,1.2-2.8,1.2c-1.6,0-2.8-1-2.8-2.7c0-2.3,2.2-3.1,5.3-3.3v-0.7c0-1-0.5-1.5-1.6-1.5
			c-0.7,0-1.6,0.2-2.8,0.6l-0.5-1.7c1.2-0.5,2.4-0.7,3.6-0.7c2.4,0,3.6,1.1,3.6,3.3v3.6c0,1.1,0.1,1.9,0.2,2.8h-2
			C139.5,438.9,139.5,438.7,139.4,438.3z M139.1,434.9c-1.9,0.1-3,0.4-3,1.6c0,0.7,0.4,1.2,1,1.2c0.6,0,1.3-0.4,1.9-0.9L139.1,434.9
			L139.1,434.9z"/>
		<path d="M147.1,433.9v5.3h-2.4v-9.5h2.4v1.8c1.2-1.5,2.4-2.3,4.1-1.8l-0.3,2.2C149.5,431.6,148.3,432.1,147.1,433.9z"/>
		<path d="M161,429.1c-0.8,0.2-1.6,0.6-2.1,1.3c0.7,0.6,1,1.5,1,2.6c0,2-1.4,3.2-3.7,3.2c-0.3,0-0.5,0-0.7,0
			c-0.2,0.2-0.3,0.5-0.3,0.8c0,1.8,5.6,0.6,5.6,4.2c0,2.5-2.4,3-4.6,3c-2.4,0-4.2-0.9-4.2-2.8c0-1.2,0.8-2.1,1.6-2.8
			c-0.3-0.3-0.4-0.8-0.4-1.3c0-0.7,0.3-1.3,0.7-1.8c-0.9-0.6-1.3-1.5-1.3-2.7c0-2.1,1.4-3.4,3.7-3.4c0.5,0,1,0.1,1.4,0.2
			c0.9-1,1.8-2,3-2.3L161,429.1L161,429.1z M158.5,441.4c0-1.3-2.1-1.3-3.7-1.8c-0.6,0.6-1,1.1-1,1.7c0,0.9,0.9,1.4,2.4,1.4
			C157.5,442.6,158.5,442.4,158.5,441.4z M154.5,432.8c0,1,0.6,1.6,1.6,1.6c1,0,1.7-0.6,1.7-1.6c0-1-0.6-1.7-1.7-1.7
			S154.5,431.8,154.5,432.8z"/>
		<path d="M162.6,426.6c0-0.8,0.6-1.4,1.4-1.4c0.9,0,1.5,0.6,1.5,1.4c0,0.8-0.6,1.4-1.5,1.4C163.1,428,162.6,427.5,162.6,426.6z
			 M162.8,429.7h2.4v9.5h-2.4V429.7z"/>
		<path d="M174.1,429.5c1.9,0,2.9,1.1,2.9,3.4v6.3h-2.4v-6.1c0-1-0.4-1.5-1.4-1.5c-0.7,0-1.5,0.4-2.4,1.1v6.6h-2.4v-9.5h2.3l0,1
			C172,429.9,173,429.5,174.1,429.5z"/>
	</g>
	
		<line fill="none" stroke="#010202" stroke-width="2" stroke-linecap="round" stroke-miterlimit="10" x1="233.8" y1="464.5" x2="188.8" y2="464.5"/>
	<g>
		<path d="M124.7,459.5c2.8,0,4.2,1.7,4.2,4.8c0,3.4-1.7,5.2-4.9,5.2c-1.2,0-2.6-0.4-3.7-0.9V455h2.4v5
			C123.4,459.6,124,459.5,124.7,459.5z M124.1,467.6c1.6,0,2.4-1.1,2.4-3.2c0-2-0.8-3-2.2-3c-0.6,0-1.1,0.1-1.6,0.5v5.4
			C123.1,467.5,123.6,467.6,124.1,467.6z"/>
		<path d="M140.2,464.3c0,3.2-1.8,5.2-4.7,5.2c-2.9,0-4.6-1.8-4.6-5c0-3.1,1.8-5,4.8-5C138.5,459.5,140.2,461.3,140.2,464.3z
			 M137.7,464.4c0-2-0.8-3.1-2.2-3.1c-1.4,0-2.2,1.1-2.2,3.1c0,2.1,0.8,3.2,2.3,3.2C137,467.6,137.7,466.5,137.7,464.4z"/>
		<path d="M145.2,463.9v5.3h-2.4v-9.5h2.4v1.8c1.2-1.5,2.4-2.3,4.1-1.8l-0.3,2.2C147.5,461.6,146.3,462.1,145.2,463.9z"/>
		<path d="M158.7,468.9c-1.1,0.3-2.5,0.6-3.8,0.6c-3.2,0-4.8-1.7-4.8-4.9c0-3.2,1.7-5.1,4.6-5.1c0.8,0,1.2,0.1,1.7,0.3V455h2.4
			V468.9z M156.3,461.7c-0.4-0.2-1-0.3-1.5-0.3c-1.5,0-2.4,1.1-2.4,3c0,2,0.8,3.1,2.5,3.1c0.4,0,0.9-0.1,1.3-0.2V461.7L156.3,461.7z
			"/>
		<path d="M169.2,468.7c-1,0.5-2.1,0.8-3.5,0.8c-2.9,0-4.5-1.8-4.5-5s1.6-5,4.4-5c2.4,0,3.7,1.5,3.7,4c0,0.4,0,0.9-0.1,1.4h-5.8
			c0.1,1.8,0.9,2.8,2.5,2.8c1,0,1.9-0.3,2.8-0.7L169.2,468.7L169.2,468.7z M165.6,461.2c-1.2,0-1.9,0.7-2.1,2.2h3.9
			C167.4,462,166.8,461.2,165.6,461.2z"/>
		<path d="M174.4,463.9v5.3H172v-9.5h2.4v1.8c1.2-1.5,2.4-2.3,4.1-1.8l-0.3,2.2C176.8,461.6,175.6,462.1,174.4,463.9z"/>
	</g>
	
		<line fill="none" stroke="#010202" stroke-width="2" stroke-linecap="round" stroke-miterlimit="10" x1="246.3" y1="494.5" x2="188.8" y2="494.5"/>
	<g>
		<path d="M113.2,489.5c3.2,0,4.8,1.7,4.8,4.9c0,3.2-1.7,5.1-4.6,5.1c-0.7,0-1.2-0.1-1.6-0.3v4.9h-2.4v-14
			C110.4,489.7,111.9,489.5,113.2,489.5z M111.7,497.2c0.4,0.2,1,0.3,1.5,0.3c1.5,0,2.4-1.1,2.4-3c0-2-0.8-3.1-2.5-3.1
			c-0.4,0-0.9,0.1-1.3,0.2L111.7,497.2L111.7,497.2z"/>
		<path d="M125.2,498.3c-0.8,0.6-1.6,1.2-2.8,1.2c-1.6,0-2.8-1-2.8-2.7c0-2.3,2.2-3.1,5.3-3.3v-0.7c0-1-0.5-1.5-1.6-1.5
			c-0.7,0-1.6,0.2-2.8,0.6l-0.5-1.7c1.2-0.5,2.4-0.7,3.6-0.7c2.4,0,3.6,1.1,3.6,3.3v3.6c0,1.1,0.1,1.9,0.2,2.8h-2
			C125.3,498.9,125.2,498.7,125.2,498.3z M124.9,494.9c-1.9,0.1-3,0.4-3,1.6c0,0.7,0.4,1.2,1,1.2c0.6,0,1.3-0.4,1.9-0.9L124.9,494.9
			L124.9,494.9z"/>
		<path d="M138.4,498.9c-1.1,0.3-2.5,0.6-3.8,0.6c-3.2,0-4.8-1.7-4.8-4.9c0-3.2,1.7-5.1,4.6-5.1c0.8,0,1.2,0.1,1.7,0.3V485h2.4
			V498.9z M136,491.7c-0.4-0.2-1-0.3-1.5-0.3c-1.5,0-2.4,1.1-2.4,3c0,2,0.8,3.1,2.5,3.1c0.4,0,0.9-0.1,1.3-0.2V491.7L136,491.7z"/>
		<path d="M149.7,498.9c-1.1,0.3-2.5,0.6-3.8,0.6c-3.2,0-4.8-1.7-4.8-4.9c0-3.2,1.7-5.1,4.6-5.1c0.8,0,1.2,0.1,1.7,0.3V485h2.4
			V498.9z M147.3,491.7c-0.4-0.2-1-0.3-1.5-0.3c-1.5,0-2.4,1.1-2.4,3c0,2,0.8,3.1,2.5,3.1c0.4,0,0.9-0.1,1.3-0.2V491.7L147.3,491.7z
			"/>
		<path d="M152.8,486.6c0-0.8,0.6-1.4,1.4-1.4c0.9,0,1.5,0.6,1.5,1.4c0,0.8-0.6,1.4-1.5,1.4C153.3,488,152.8,487.5,152.8,486.6z
			 M153,489.7h2.4v9.5H153V489.7z"/>
		<path d="M164.3,489.5c1.9,0,2.9,1.1,2.9,3.4v6.3h-2.4v-6.1c0-1-0.4-1.5-1.4-1.5c-0.7,0-1.5,0.4-2.4,1.1v6.6h-2.4v-9.5h2.3l0,1
			C162.2,489.9,163.2,489.5,164.3,489.5z"/>
		<path d="M178.5,489.1c-0.8,0.2-1.6,0.6-2.1,1.3c0.7,0.6,1,1.5,1,2.6c0,2-1.4,3.2-3.7,3.2c-0.3,0-0.5,0-0.7,0
			c-0.2,0.2-0.3,0.5-0.3,0.8c0,1.8,5.6,0.6,5.6,4.2c0,2.5-2.4,3-4.6,3c-2.4,0-4.2-0.9-4.2-2.8c0-1.2,0.8-2.1,1.6-2.8
			c-0.3-0.3-0.4-0.8-0.4-1.3c0-0.7,0.3-1.3,0.7-1.8c-0.9-0.6-1.3-1.5-1.3-2.7c0-2.1,1.4-3.4,3.7-3.4c0.5,0,1,0.1,1.4,0.2
			c0.9-1,1.8-2,3-2.3L178.5,489.1L178.5,489.1z M176,501.4c0-1.3-2.1-1.3-3.7-1.8c-0.6,0.6-1,1.1-1,1.7c0,0.9,0.9,1.4,2.4,1.4
			C175,502.6,176,502.4,176,501.4z M172,492.8c0,1,0.6,1.6,1.6,1.6c1,0,1.7-0.6,1.7-1.6c0-1-0.6-1.7-1.7-1.7S172,491.8,172,492.8z"
			/>
	</g>
	<g>
		<g>
			
				<line fill="none" stroke="#010202" stroke-width="2" stroke-linecap="round" stroke-miterlimit="10" x1="264.8" y1="260" x2="661.7" y2="260"/>
			<g>
				<polygon fill="#010202" points="266.3,265 257.6,260 266.3,255 				"/>
			</g>
			<g>
				<polygon fill="#010202" points="660.2,265 668.8,260 660.2,255 				"/>
			</g>
		</g>
	</g>
	<g>
		<path d="M428.6,252.2h-1.8l-2.5-6.4l-2.5,6.4H420l-2.8-9.5h2.5l1.5,6.3l2.3-6.3h1.7l2.4,6.4l1.3-6.4h2.3L428.6,252.2z"/>
		<path d="M432.9,239.6c0-0.8,0.6-1.4,1.4-1.4c0.9,0,1.5,0.6,1.5,1.4c0,0.8-0.6,1.4-1.5,1.4C433.5,241,432.9,240.5,432.9,239.6z
			 M433.2,242.7h2.4v9.5h-2.4V242.7z"/>
		<path d="M446.8,251.9c-1.1,0.3-2.5,0.6-3.8,0.6c-3.2,0-4.8-1.7-4.8-4.9c0-3.2,1.7-5.1,4.6-5.1c0.8,0,1.2,0.1,1.7,0.3V238h2.4
			V251.9z M444.4,244.7c-0.4-0.2-1-0.3-1.5-0.3c-1.5,0-2.4,1.1-2.4,3c0,2,0.8,3.1,2.5,3.1c0.4,0,0.9-0.1,1.3-0.2V244.7L444.4,244.7z
			"/>
		<path d="M453.6,252.5c-2.2,0-3.3-1.1-3.3-3.4v-4.6h-1.4v-1.7h1.4v-3l2.4-0.6v3.6h2.5v1.7h-2.5v4.5c0,1,0.4,1.5,1.3,1.5
			c0.5,0,1-0.1,1.4-0.2l0.3,1.9C455.2,252.3,454.5,252.5,453.6,252.5z"/>
		<path d="M463.1,242.5c1.9,0,2.9,1.1,2.9,3.4v6.3h-2.4v-6.1c0-1-0.4-1.5-1.4-1.5c-0.7,0-1.5,0.4-2.4,1.1v6.6h-2.4V238h2.4v5.6
			C461,242.9,462,242.5,463.1,242.5z"/>
		<path d="M474.1,246.3c0-4.6,1.9-7.4,3.8-9.6l1.5,1.1c-1.5,2.1-3,4.3-3,8.4c0,4.1,1.4,6.3,3,8.5l-1.5,1.1
			C476,253.7,474.1,251,474.1,246.3z"/>
		<path d="M484.5,252.4c-2.9,0-4.5-1.8-4.5-4.9c0-3.3,1.7-5,4.7-5c1,0,1.8,0.2,2.5,0.5l-0.4,1.8c-0.7-0.3-1.3-0.4-2-0.4
			c-1.6,0-2.4,1-2.4,3c0,2.1,0.8,3.1,2.3,3.1c0.9,0,1.6-0.2,2.2-0.4l0.4,1.7C486.5,252.2,485.5,252.4,484.5,252.4z"/>
		<path d="M491.7,250.7c0.9,0,1.4-0.3,1.4-1c0-1.8-4.4-1.3-4.4-4.5c0-1.9,1.7-2.8,3.7-2.8c1,0,2,0.2,2.8,0.5l-0.5,1.8
			c-0.6-0.2-1.4-0.5-2.2-0.5c-0.9,0-1.4,0.3-1.4,0.9c0,1.7,4.5,1.2,4.5,4.5c0,2.1-1.7,2.8-3.8,2.8c-1.1,0-2.4-0.2-3.3-0.7l0.6-1.8
			C489.7,250.3,490.8,250.7,491.7,250.7z"/>
		<path d="M500,250.7c0.9,0,1.4-0.3,1.4-1c0-1.8-4.4-1.3-4.4-4.5c0-1.9,1.7-2.8,3.7-2.8c1,0,2,0.2,2.8,0.5l-0.5,1.8
			c-0.6-0.2-1.4-0.5-2.2-0.5c-0.9,0-1.4,0.3-1.4,0.9c0,1.7,4.5,1.2,4.5,4.5c0,2.1-1.7,2.8-3.8,2.8c-1.1,0-2.4-0.2-3.3-0.7l0.6-1.8
			C498,250.3,499.1,250.7,500,250.7z"/>
		<path d="M509.9,246.3c0,4.6-1.9,7.4-3.8,9.6l-1.5-1.1c1.5-2.1,3-4.3,3-8.4c0-4.1-1.4-6.3-3-8.5l1.5-1.1
			C508,238.9,509.9,241.6,509.9,246.3z"/>
	</g>
	<g>
		<g>
			
				<line fill="none" stroke="#010202" stroke-width="2" stroke-linecap="round" stroke-miterlimit="10" x1="740" y1="374.2" x2="740" y2="590.3"/>
			<g>
				<polygon fill="#010202" points="735,375.6 740,367 745,375.6 				"/>
			</g>
			<g>
				<polygon fill="#010202" points="735,588.9 740,597.5 745,588.9 				"/>
			</g>
		</g>
	</g>
	<g>
		<path d="M757.5,440.9c0,1.9-1.1,2.9-3.4,2.9h-6.3v-2.4h6.1c1,0,1.5-0.4,1.5-1.4c0-0.7-0.4-1.5-1.1-2.4h-6.6v-2.4H762v2.4h-5.6
			C757.1,438.8,757.5,439.8,757.5,440.9z"/>
		<path d="M748.3,454.2c-0.5-1-0.8-2.1-0.8-3.5c0-2.9,1.8-4.5,5-4.5s5,1.6,5,4.4c0,2.4-1.5,3.7-4,3.7c-0.4,0-0.9,0-1.4-0.1v-5.8
			c-1.8,0.1-2.8,0.9-2.8,2.5c0,1,0.3,1.9,0.7,2.8L748.3,454.2L748.3,454.2z M755.8,450.6c0-1.2-0.7-1.9-2.2-2.1v3.9
			C755,452.4,755.8,451.8,755.8,450.6z"/>
		<path d="M757.3,457v2.4h-9.5V457H757.3z M760.4,456.8c0.8,0,1.4,0.6,1.4,1.4c0,0.9-0.6,1.5-1.4,1.5c-0.8,0-1.4-0.6-1.4-1.5
			C759,457.4,759.5,456.8,760.4,456.8z"/>
		<path d="M757.9,470.7c-0.2-0.8-0.6-1.6-1.3-2.1c-0.6,0.7-1.5,1-2.6,1c-2,0-3.2-1.4-3.2-3.7c0-0.3,0-0.5,0-0.7
			c-0.2-0.2-0.5-0.3-0.8-0.3c-1.8,0-0.6,5.6-4.2,5.6c-2.5,0-3-2.4-3-4.6c0-2.4,0.9-4.2,2.8-4.2c1.2,0,2.1,0.8,2.8,1.6
			c0.3-0.3,0.8-0.4,1.3-0.4c0.7,0,1.3,0.3,1.8,0.7c0.6-0.9,1.5-1.3,2.7-1.3c2.1,0,3.4,1.4,3.4,3.7c0,0.5-0.1,1-0.2,1.4
			c1,0.9,2,1.8,2.3,3L757.9,470.7L757.9,470.7z M745.6,468.2c1.3,0,1.3-2.1,1.8-3.7c-0.6-0.6-1.1-1-1.7-1c-0.9,0-1.4,0.9-1.4,2.4
			C744.4,467.2,744.6,468.2,745.6,468.2z M754.2,464.2c-1,0-1.6,0.6-1.6,1.6c0,1,0.6,1.7,1.6,1.7c1,0,1.7-0.6,1.7-1.7
			S755.2,464.2,754.2,464.2z"/>
		<path d="M757.5,478.2c0,1.9-1.1,2.9-3.4,2.9h-6.3v-2.4h6.1c1,0,1.5-0.4,1.5-1.4c0-0.7-0.4-1.5-1.1-2.4h-6.6v-2.4H762v2.4h-5.6
			C757.1,476.1,757.5,477.1,757.5,478.2z"/>
		<path d="M747.5,487.8c0-2.2,1.1-3.3,3.4-3.3h4.6v-1.4h1.7v1.4h3l0.6,2.4h-3.6v2.5h-1.7v-2.5H751c-1,0-1.5,0.4-1.5,1.3
			c0,0.5,0.1,1,0.2,1.4l-1.9,0.3C747.7,489.4,747.5,488.7,747.5,487.8z"/>
		<path d="M753.7,496.5c4.6,0,7.4,1.9,9.6,3.8l-1.1,1.5c-2.1-1.5-4.3-3-8.4-3c-4.1,0-6.3,1.4-8.5,3l-1.1-1.5
			C746.3,498.4,749,496.5,753.7,496.5z"/>
		<path d="M747.6,506.9c0-2.9,1.8-4.5,4.9-4.5c3.3,0,5,1.7,5,4.7c0,1-0.2,1.8-0.5,2.5l-1.8-0.4c0.3-0.7,0.4-1.3,0.4-2
			c0-1.6-1-2.4-3-2.4c-2.1,0-3.1,0.8-3.1,2.3c0,0.9,0.2,1.6,0.4,2.2l-1.7,0.4C747.8,508.9,747.6,507.9,747.6,506.9z"/>
		<path d="M749.3,514.1c0,0.9,0.3,1.4,1,1.4c1.8,0,1.3-4.4,4.5-4.4c1.9,0,2.8,1.7,2.8,3.7c0,1-0.2,2-0.5,2.8l-1.8-0.5
			c0.2-0.6,0.5-1.4,0.5-2.2c0-0.9-0.3-1.4-0.9-1.4c-1.7,0-1.2,4.5-4.5,4.5c-2.1,0-2.8-1.7-2.8-3.8c0-1.1,0.2-2.4,0.7-3.3l1.8,0.6
			C749.7,512.1,749.3,513.2,749.3,514.1z"/>
		<path d="M749.3,522.4c0,0.9,0.3,1.4,1,1.4c1.8,0,1.3-4.4,4.5-4.4c1.9,0,2.8,1.7,2.8,3.7c0,1-0.2,2-0.5,2.8l-1.8-0.5
			c0.2-0.6,0.5-1.4,0.5-2.2c0-0.9-0.3-1.4-0.9-1.4c-1.7,0-1.2,4.5-4.5,4.5c-2.1,0-2.8-1.7-2.8-3.8c0-1.1,0.2-2.4,0.7-3.3l1.8,0.6
			C749.7,520.4,749.3,521.5,749.3,522.4z"/>
		<path d="M753.7,532.3c-4.6,0-7.4-1.9-9.6-3.8l1.1-1.5c2.1,1.5,4.3,3,8.4,3c4.1,0,6.3-1.4,8.5-3l1.1,1.5
			C761.1,530.4,758.4,532.3,753.7,532.3z"/>
	</g>
	<g>
		<g>
			
				<line fill="none" stroke="#010202" stroke-width="2" stroke-linecap="round" stroke-miterlimit="10" x1="773" y1="352.2" x2="773" y2="612.3"/>
			<g>
				<polygon fill="#010202" points="768,353.6 773,345 778,353.6 				"/>
			</g>
			<g>
				<polygon fill="#010202" points="768,610.9 773,619.5 778,610.9 				"/>
			</g>
		</g>
	</g>
	<g>
		<path d="M781.3,396.8c-0.5-1-0.8-2.1-0.8-3.5c0-2.9,1.8-4.5,5-4.5s5,1.6,5,4.4c0,2.4-1.5,3.7-4,3.7c-0.4,0-0.9,0-1.4-0.1v-5.8
			c-1.8,0.1-2.8,0.9-2.8,2.5c0,1,0.3,1.9,0.7,2.8L781.3,396.8L781.3,396.8z M788.8,393.2c0-1.2-0.7-1.9-2.2-2.1v3.9
			C788,395,788.8,394.4,788.8,393.2z"/>
		<path d="M795,399.6v2.4h-14.2v-2.4H795z"/>
		<path d="M781.3,412.5c-0.5-1-0.8-2.1-0.8-3.5c0-2.9,1.8-4.5,5-4.5s5,1.6,5,4.4c0,2.4-1.5,3.7-4,3.7c-0.4,0-0.9,0-1.4-0.1v-5.8
			c-1.8,0.1-2.8,0.9-2.8,2.5c0,1,0.3,1.9,0.7,2.8L781.3,412.5L781.3,412.5z M788.8,408.9c0-1.2-0.7-1.9-2.2-2.1v3.9
			C788,410.7,788.8,410,788.8,408.9z"/>
		<path d="M789.3,417.6c0.8,1.2,1.2,2.2,1.2,3.3c0,1.1-0.4,2-1.4,2.5c1.1,1.5,1.4,2.6,1.4,3.6c0,1.7-0.8,2.8-3.3,2.8h-6.4v-2.4h6
			c1,0,1.6-0.4,1.6-1.3c0-0.6-0.3-1.4-1.1-2.3h-0.1h-6.4v-2.4h6c1,0,1.6-0.4,1.6-1.3c0-0.7-0.4-1.5-1.1-2.3h-6.5v-2.4h9.5v2.2H789.3
			L789.3,417.6z"/>
		<path d="M781.3,440.2c-0.5-1-0.8-2.1-0.8-3.5c0-2.9,1.8-4.5,5-4.5s5,1.6,5,4.4c0,2.4-1.5,3.7-4,3.7c-0.4,0-0.9,0-1.4-0.1v-5.8
			c-1.8,0.1-2.8,0.9-2.8,2.5c0,1,0.3,1.9,0.7,2.8L781.3,440.2L781.3,440.2z M788.8,436.6c0-1.2-0.7-1.9-2.2-2.1v3.9
			C788,438.4,788.8,437.8,788.8,436.6z"/>
		<path d="M790.5,448.7c0,1.9-1.1,2.9-3.4,2.9h-6.3v-2.4h6.1c1,0,1.5-0.4,1.5-1.4c0-0.7-0.4-1.5-1.1-2.4h-6.6V443h9.5v2.3l-1,0
			C790.1,446.5,790.5,447.5,790.5,448.7z"/>
		<path d="M780.5,458.3c0-2.2,1.1-3.3,3.4-3.3h4.6v-1.4h1.7v1.4h3l0.6,2.4h-3.6v2.5h-1.7v-2.5H784c-1,0-1.5,0.4-1.5,1.3
			c0,0.5,0.1,1,0.2,1.4l-1.9,0.3C780.7,459.9,780.5,459.2,780.5,458.3z"/>
		<path d="M782.1,462.7c0.8,0,1.5,0.6,1.5,1.4c0,0.8-0.6,1.5-1.5,1.5c-0.8,0-1.4-0.6-1.4-1.5C780.6,463.3,781.3,462.7,782.1,462.7z"
			/>
		<path d="M780.6,472c0-2.9,1.8-4.5,4.9-4.5c3.3,0,5,1.7,5,4.7c0,1-0.2,1.8-0.5,2.5l-1.8-0.4c0.3-0.7,0.4-1.3,0.4-2
			c0-1.6-1-2.4-3-2.4c-2.1,0-3.1,0.8-3.1,2.3c0,0.9,0.2,1.6,0.4,2.2l-1.7,0.4C780.8,474.1,780.6,473.1,780.6,472z"/>
		<path d="M795,476.9v2.4h-14.2v-2.4H795z"/>
		<path d="M790.3,482.6v2.4h-9.5v-2.4H790.3z M793.4,482.4c0.8,0,1.4,0.6,1.4,1.4c0,0.9-0.6,1.5-1.4,1.5c-0.8,0-1.4-0.6-1.4-1.5
			C792,483,792.5,482.4,793.4,482.4z"/>
		<path d="M781.3,495.5c-0.5-1-0.8-2.1-0.8-3.5c0-2.9,1.8-4.5,5-4.5s5,1.6,5,4.4c0,2.4-1.5,3.7-4,3.7c-0.4,0-0.9,0-1.4-0.1v-5.8
			c-1.8,0.1-2.8,0.9-2.8,2.5c0,1,0.3,1.9,0.7,2.8L781.3,495.5L781.3,495.5z M788.8,491.9c0-1.2-0.7-1.9-2.2-2.1v3.9
			C788,493.7,788.8,493.1,788.8,491.9z"/>
		<path d="M790.5,504c0,1.9-1.1,2.9-3.4,2.9h-6.3v-2.4h6.1c1,0,1.5-0.4,1.5-1.4c0-0.7-0.4-1.5-1.1-2.4h-6.6v-2.4h9.5v2.3l-1,0
			C790.1,501.8,790.5,502.8,790.5,504z"/>
		<path d="M780.5,513.6c0-2.2,1.1-3.3,3.4-3.3h4.6v-1.4h1.7v1.4h3l0.6,2.4h-3.6v2.5h-1.7v-2.5H784c-1,0-1.5,0.4-1.5,1.3
			c0,0.5,0.1,1,0.2,1.4l-1.9,0.3C780.7,515.2,780.5,514.5,780.5,513.6z"/>
		<path d="M786.4,525.8v-5.7h-5.6v-2.4h13v2.4h-5.4v5.7h5.4v2.4h-13v-2.4H786.4z"/>
		<path d="M781.3,539c-0.5-1-0.8-2.1-0.8-3.5c0-2.9,1.8-4.5,5-4.5s5,1.6,5,4.4c0,2.4-1.5,3.7-4,3.7c-0.4,0-0.9,0-1.4-0.1v-5.8
			c-1.8,0.1-2.8,0.9-2.8,2.5c0,1,0.3,1.9,0.7,2.8L781.3,539L781.3,539z M788.8,535.4c0-1.2-0.7-1.9-2.2-2.1v3.9
			C788,537.2,788.8,536.5,788.8,535.4z"/>
		<path d="M790.3,541.8v2.4h-9.5v-2.4H790.3z M793.4,541.5c0.8,0,1.4,0.6,1.4,1.4c0,0.9-0.6,1.5-1.4,1.5c-0.8,0-1.4-0.6-1.4-1.5
			C792,542.1,792.5,541.5,793.4,541.5z"/>
		<path d="M790.9,555.4c-0.2-0.8-0.6-1.6-1.3-2.1c-0.6,0.7-1.5,1-2.6,1c-2,0-3.2-1.4-3.2-3.7c0-0.3,0-0.5,0-0.7
			c-0.2-0.2-0.5-0.3-0.8-0.3c-1.8,0-0.6,5.6-4.2,5.6c-2.5,0-3-2.4-3-4.6c0-2.4,0.9-4.2,2.8-4.2c1.2,0,2.1,0.8,2.8,1.6
			c0.3-0.3,0.8-0.4,1.3-0.4c0.7,0,1.3,0.3,1.8,0.7c0.6-0.9,1.5-1.3,2.7-1.3c2.1,0,3.4,1.4,3.4,3.7c0,0.5-0.1,1-0.2,1.4
			c1,0.9,2,1.8,2.3,3L790.9,555.4L790.9,555.4z M778.6,552.9c1.3,0,1.3-2.1,1.8-3.7c-0.6-0.6-1.1-1-1.7-1c-0.9,0-1.4,0.9-1.4,2.4
			C777.4,551.9,777.6,552.9,778.6,552.9z M787.2,548.9c-1,0-1.6,0.6-1.6,1.6c0,1,0.6,1.7,1.6,1.7c1,0,1.7-0.6,1.7-1.7
			C788.8,549.5,788.2,548.9,787.2,548.9z"/>
		<path d="M790.5,562.9c0,1.9-1.1,2.9-3.4,2.9h-6.3v-2.4h6.1c1,0,1.5-0.4,1.5-1.4c0-0.7-0.4-1.5-1.1-2.4h-6.6v-2.4H795v2.4h-5.6
			C790.1,560.8,790.5,561.8,790.5,562.9z"/>
		<path d="M780.5,572.5c0-2.2,1.1-3.3,3.4-3.3h4.6v-1.4h1.7v1.4h3l0.6,2.4h-3.6v2.5h-1.7v-2.5H784c-1,0-1.5,0.4-1.5,1.3
			c0,0.5,0.1,1,0.2,1.4l-1.9,0.3C780.7,574.1,780.5,573.4,780.5,572.5z"/>
	</g>
	<g>
		<g>
			
				<line fill="none" stroke="#010202" stroke-width="2" stroke-linecap="round" stroke-miterlimit="10" x1="243.3" y1="226" x2="675.8" y2="226"/>
			<g>
				<polygon fill="#010202" points="244.8,231 236.2,226 244.8,221 				"/>
			</g>
			<g>
				<polygon fill="#010202" points="674.4,231 683,226 674.4,221 				"/>
			</g>
		</g>
	</g>
	<g>
		<path d="M380.6,216.7c-1,0.5-2.1,0.8-3.5,0.8c-2.9,0-4.5-1.8-4.5-5s1.6-5,4.4-5c2.4,0,3.7,1.5,3.7,4c0,0.4,0,0.9-0.1,1.4h-5.8
			c0.1,1.8,0.9,2.8,2.5,2.8c1,0,1.9-0.3,2.8-0.7L380.6,216.7L380.6,216.7z M377,209.2c-1.2,0-1.9,0.7-2.1,2.2h3.9
			C378.8,210,378.1,209.2,377,209.2z"/>
		<path d="M383.4,203h2.4v14.2h-2.4V203z"/>
		<path d="M396.3,216.7c-1,0.5-2.1,0.8-3.5,0.8c-2.9,0-4.5-1.8-4.5-5s1.6-5,4.4-5c2.4,0,3.7,1.5,3.7,4c0,0.4,0,0.9-0.1,1.4h-5.8
			c0.1,1.8,0.9,2.8,2.5,2.8c1,0,1.9-0.3,2.8-0.7L396.3,216.7L396.3,216.7z M392.7,209.2c-1.2,0-1.9,0.7-2.1,2.2h3.9
			C394.5,210,393.8,209.2,392.7,209.2z"/>
		<path d="M401.3,208.7c1.2-0.8,2.2-1.2,3.3-1.2c1.1,0,2,0.4,2.5,1.4c1.5-1.1,2.6-1.4,3.6-1.4c1.7,0,2.8,0.8,2.8,3.3v6.4h-2.4v-6
			c0-1-0.4-1.6-1.3-1.6c-0.6,0-1.4,0.3-2.3,1.1v0.1v6.4h-2.4v-6c0-1-0.4-1.6-1.3-1.6c-0.7,0-1.5,0.4-2.3,1.1v6.5h-2.4v-9.5h2.2
			V208.7L401.3,208.7z"/>
		<path d="M424,216.7c-1,0.5-2.1,0.8-3.5,0.8c-2.9,0-4.5-1.8-4.5-5s1.6-5,4.4-5c2.4,0,3.7,1.5,3.7,4c0,0.4,0,0.9-0.1,1.4h-5.8
			c0.1,1.8,0.9,2.8,2.5,2.8c1,0,1.9-0.3,2.8-0.7L424,216.7L424,216.7z M420.4,209.2c-1.2,0-1.9,0.7-2.1,2.2h3.9
			C422.2,210,421.5,209.2,420.4,209.2z"/>
		<path d="M432.4,207.5c1.9,0,2.9,1.1,2.9,3.4v6.3H433v-6.1c0-1-0.4-1.5-1.4-1.5c-0.7,0-1.5,0.4-2.4,1.1v6.6h-2.4v-9.5h2.3l0,1
			C430.2,207.9,431.3,207.5,432.4,207.5z"/>
		<path d="M442.1,217.5c-2.2,0-3.3-1.1-3.3-3.4v-4.6h-1.4v-1.7h1.4v-3l2.4-0.6v3.6h2.5v1.7h-2.5v4.5c0,1,0.4,1.5,1.3,1.5
			c0.5,0,1-0.1,1.4-0.2l0.3,1.9C443.6,217.3,442.9,217.5,442.1,217.5z"/>
		<path d="M446.4,215.9c0-0.8,0.6-1.5,1.4-1.5c0.8,0,1.5,0.6,1.5,1.5c0,0.8-0.6,1.4-1.5,1.4C447,217.4,446.4,216.7,446.4,215.9z"/>
		<path d="M455.8,217.4c-2.9,0-4.5-1.8-4.5-4.9c0-3.3,1.7-5,4.7-5c1,0,1.8,0.2,2.5,0.5l-0.4,1.8c-0.7-0.3-1.3-0.4-2-0.4
			c-1.6,0-2.4,1-2.4,3c0,2.1,0.8,3.1,2.3,3.1c0.9,0,1.6-0.2,2.2-0.4l0.4,1.7C457.8,217.2,456.8,217.4,455.8,217.4z"/>
		<path d="M460.7,203h2.4v14.2h-2.4V203z"/>
		<path d="M466.2,204.6c0-0.8,0.6-1.4,1.4-1.4c0.9,0,1.5,0.6,1.5,1.4c0,0.8-0.6,1.4-1.5,1.4C466.7,206,466.2,205.5,466.2,204.6z
			 M466.4,207.7h2.4v9.5h-2.4V207.7z"/>
		<path d="M479.3,216.7c-1,0.5-2.1,0.8-3.5,0.8c-2.9,0-4.5-1.8-4.5-5s1.6-5,4.4-5c2.4,0,3.7,1.5,3.7,4c0,0.4,0,0.9-0.1,1.4h-5.8
			c0.1,1.8,0.9,2.8,2.5,2.8c1,0,1.9-0.3,2.8-0.7L479.3,216.7L479.3,216.7z M475.7,209.2c-1.2,0-1.9,0.7-2.1,2.2h3.9
			C477.5,210,476.8,209.2,475.7,209.2z"/>
		<path d="M487.7,207.5c1.9,0,2.9,1.1,2.9,3.4v6.3h-2.4v-6.1c0-1-0.4-1.5-1.4-1.5c-0.7,0-1.5,0.4-2.4,1.1v6.6h-2.4v-9.5h2.3l0,1
			C485.5,207.9,486.6,207.5,487.7,207.5z"/>
		<path d="M497.4,217.5c-2.2,0-3.3-1.1-3.3-3.4v-4.6h-1.4v-1.7h1.4v-3l2.4-0.6v3.6h2.5v1.7h-2.5v4.5c0,1,0.4,1.5,1.3,1.5
			c0.5,0,1-0.1,1.4-0.2l0.3,1.9C498.9,217.3,498.2,217.5,497.4,217.5z"/>
		<path d="M513.7,217.2h-2.5l-3.1-9.6l-3.1,9.6h-2.5l-2.8-13h2.5l1.8,10l3-10h2.2l3.1,9.9l1.8-9.9h2.3L513.7,217.2z"/>
		<path d="M519.6,204.6c0-0.8,0.6-1.4,1.4-1.4c0.9,0,1.5,0.6,1.5,1.4c0,0.8-0.6,1.4-1.5,1.4C520.2,206,519.6,205.5,519.6,204.6z
			 M519.8,207.7h2.4v9.5h-2.4V207.7z"/>
		<path d="M533.5,216.9c-1.1,0.3-2.5,0.6-3.8,0.6c-3.2,0-4.8-1.7-4.8-4.9c0-3.2,1.7-5.1,4.6-5.1c0.8,0,1.2,0.1,1.7,0.3V203h2.4
			V216.9z M531.1,209.7c-0.4-0.2-1-0.3-1.5-0.3c-1.5,0-2.4,1.1-2.4,3c0,2,0.8,3.1,2.5,3.1c0.4,0,0.9-0.1,1.3-0.2V209.7L531.1,209.7z
			"/>
		<path d="M540.3,217.5c-2.2,0-3.3-1.1-3.3-3.4v-4.6h-1.4v-1.7h1.4v-3l2.4-0.6v3.6h2.5v1.7h-2.5v4.5c0,1,0.4,1.5,1.3,1.5
			c0.5,0,1-0.1,1.4-0.2l0.3,1.9C541.8,217.3,541.1,217.5,540.3,217.5z"/>
		<path d="M549.8,207.5c1.9,0,2.9,1.1,2.9,3.4v6.3h-2.4v-6.1c0-1-0.4-1.5-1.4-1.5c-0.7,0-1.5,0.4-2.4,1.1v6.6h-2.4V203h2.4v5.6
			C547.7,207.9,548.7,207.5,549.8,207.5z"/>
	</g>
</g>
</svg>
