<?xml version="1.0" encoding="utf-8"?>
<!-- Generator: Adobe Illustrator 15.1.0, SVG Export Plug-In . SVG Version: 6.00 Build 0)  -->
<!DOCTYPE svg PUBLIC "-//W3C//DTD SVG 1.1//EN" "http://www.w3.org/Graphics/SVG/1.1/DTD/svg11.dtd">
<svg version="1.1" id="Layer_1" xmlns="http://www.w3.org/2000/svg" xmlns:xlink="http://www.w3.org/1999/xlink" x="0px" y="0px"
	 width="500px" height="500px" viewBox="0 0 500 500" enable-background="new 0 0 500 500" xml:space="preserve">
<circle fill="#FFFFFF" stroke="#000000" stroke-miterlimit="10" cx="185.8395996" cy="300.4179688" r="96.6682129"/>
<g>
	<rect x="46.6049805" y="250.7578125" fill="none" width="281.2485352" height="66.0927734"/>
	<path d="M131.3032227,254.6982422v21.9365234c0,0.4980469-0.4213867,0.9189453-0.9189453,0.9189453
		s-0.9189453-0.4208984-0.9189453-0.9189453v-24.578125c-0.1147461-0.3828125,0-0.765625,0.3447266-1.0341797
		c0.4213867-0.2675781,1.0336914-0.1914063,1.3017578,0.2294922l16.2324219,22.5117188v-21.8222656
		c0-0.4980469,0.4213867-0.9189453,0.9189453-0.9189453c0.5361328,0,0.9570313,0.4208984,0.9570313,0.9189453v24.6933594
		c0,0.4980469-0.4208984,0.9189453-0.9570313,0.9189453c-0.3061523,0-0.5361328-0.1152344-0.7275391-0.3447266
		c-0.0380859-0.0380859-0.1147461-0.0761719-0.152832-0.1533203L131.3032227,254.6982422z"/>
	<path d="M174.1787109,259.7128906v16.921875c0,0.4980469-0.4213867,0.9189453-0.9189453,0.9189453
		s-0.9189453-0.4208984-0.9189453-0.9189453v-2.7949219c-1.6079102,2.2207031-4.1728516,3.7138672-7.0439453,3.7138672
		c-4.9389648,0-8.8823242-4.25-8.8823242-9.3798828s3.9433594-9.3798828,8.8823242-9.3798828
		c2.8710938,0,5.4360352,1.4550781,7.0439453,3.6757813v-2.7568359c0-0.5351563,0.4213867-0.9189453,0.9189453-0.9189453
		S174.1787109,259.1777344,174.1787109,259.7128906z M172.3408203,268.1738281c0-4.2109375-3.1772461-7.5800781-7.0439453-7.5800781
		c-3.8286133,0-7.0444336,3.3691406-7.0444336,7.5800781c0,4.2119141,3.2158203,7.5419922,7.0444336,7.5419922
		C169.1635742,275.7158203,172.3408203,272.3857422,172.3408203,268.1738281z"/>
	<path d="M188.6850586,259.7128906c0,0.4599609-0.4594727,0.9189453-0.918457,0.9189453h-2.4121094v13.6679688
		c0,0.9189453,0.9189453,1.3779297,1.378418,1.3779297c0.4589844,0,0.9570313,0.4980469,0.9570313,0.9570313
		c0,0.4599609-0.4980469,0.9189453-0.9570313,0.9189453c-1.8759766,0-3.2924805-1.3779297-3.2924805-3.2539063v-13.6679688
		h-2.3354492c-0.9189453,0-0.9189453-0.4589844-0.9189453-0.9189453c0-0.4589844,0-0.9189453,0.9189453-0.9189453h2.3354492
		v-6.9677734c0-0.4589844,0.4589844-0.9179688,0.918457-0.9179688c0.4980469,0,0.9956055,0.4589844,0.9956055,0.9179688v6.9677734
		h2.4121094C188.2255859,258.7939453,188.6850586,259.2539063,188.6850586,259.7128906z"/>
	<path d="M197.4887695,253.5878906c0-0.4980469,0.4213867-0.9189453,0.9189453-0.9189453
		c0.5361328,0,0.9570313,0.4208984,0.9570313,0.9189453v0.8808594c0,0.5351563-0.4208984,0.9951172-0.9570313,0.9951172
		c-0.4975586,0-0.9189453-0.4599609-0.9189453-0.9951172V253.5878906z M197.4887695,259.7128906
		c0-0.5351563,0.4213867-0.9189453,0.9189453-0.9189453c0.5361328,0,0.9570313,0.3837891,0.9570313,0.9189453v16.921875
		c0,0.4980469-0.4208984,0.9189453-0.9570313,0.9189453c-0.4975586,0-0.9189453-0.4208984-0.9189453-0.9189453V259.7128906z"/>
	<path d="M214.2177734,277.4003906c-0.1152344-0.1142578-0.2299805-0.2294922-0.3066406-0.4208984l-7.0439453-16.7685547
		c-0.1914063-0.4589844,0.0380859-0.9951172,0.4589844-1.1865234c0.4594727-0.1914063,1.0336914,0.0380859,1.1870117,0.4970703
		l6.2402344,14.7783203l6.2402344-14.7783203c0.1533203-0.4589844,0.7275391-0.6884766,1.1870117-0.4970703
		s0.6508789,0.7275391,0.4594727,1.1865234l-7.0058594,16.6152344c-0.0385742,0.1533203-0.1152344,0.3066406-0.2299805,0.4599609
		c-0.152832,0.1914063-0.4208984,0.2675781-0.6123047,0.2675781c-0.1152344,0-0.1914063,0-0.3066406-0.0380859
		c-0.0380859,0-0.0380859,0-0.0761719-0.0380859C214.3325195,277.4775391,214.2939453,277.4384766,214.2177734,277.4003906z"/>
	<path d="M227.9970703,268.2119141c0-5.2060547,4.0581055-9.4179688,9.1113281-9.4179688
		c4.8237305,0,8.6523438,3.8291016,9.0351563,8.7294922v0.0380859v0.1152344c0,0.4970703-0.4208984,0.8417969-0.9189453,0.8417969
		h-15.3901367c0.1914063,4.0966797,3.4072266,7.1972656,7.2739258,7.1972656c2.4887695,0,4.7856445-1.3017578,6.0488281-3.4072266
		c0.2680664-0.4589844,0.8422852-0.5361328,1.2250977-0.3056641c0.4213867,0.3056641,0.574707,0.8417969,0.3066406,1.3007813
		c-1.6079102,2.5654297-4.402832,4.25-7.5805664,4.25C232.0551758,277.5537109,227.9970703,273.3427734,227.9970703,268.2119141z
		 M229.9492188,266.7197266h14.2036133c-0.612793-3.5224609-3.5986328-6.0878906-7.0444336-6.0878906
		C233.5864258,260.6318359,230.6386719,263.1591797,229.9492188,266.7197266z"/>
</g>
<g>
	<rect x="89.5620117" y="295.1220703" fill="none" width="193.3354492" height="66.09375"/>
	<path d="M134.2182617,294.9453125c3.2817383,0,5.8608398,2.7900391,5.878418,6.2294922
		c-0.0175781,3.4394531-2.5966797,6.2294922-5.878418,6.2294922c-3.3164063,0-5.9135742-2.7900391-5.9311523-6.2294922
		C128.3046875,297.7353516,130.9018555,294.9453125,134.2182617,294.9453125z M134.2182617,306.5449219
		c2.7026367,0,4.9838867-2.3691406,5.0014648-5.3701172c-0.0175781-3.0361328-2.2988281-5.3515625-5.0014648-5.3515625
		c-2.7900391,0-5.0712891,2.3154297-5.0712891,5.3515625C129.1469727,304.1757813,131.4282227,306.5449219,134.2182617,306.5449219z
		"/>
	<path d="M143.5512695,303.2978516v-0.1748047v-0.1757813v-7.4052734c0-0.2275391,0.1928711-0.4208984,0.4213867-0.4208984
		c0.2456055,0,0.4384766,0.1933594,0.4384766,0.4208984v4.9482422c0.7543945-1.0175781,1.9477539-1.6845703,3.2988281-1.6845703
		c2.3164063,0,4.1591797,1.9306641,4.1591797,4.3173828c0,2.3505859-1.8427734,4.28125-4.1591797,4.28125
		c-1.3510742,0-2.5444336-0.6494141-3.2988281-1.6669922v1.2460938c0,0.2275391-0.1928711,0.4208984-0.4384766,0.4208984
		c-0.2285156,0-0.4213867-0.1933594-0.4213867-0.4208984V303.2978516z M144.4111328,303.1230469
		c0,1.8945313,1.4916992,3.421875,3.2988281,3.421875c1.8251953,0,3.2993164-1.5273438,3.2993164-3.421875
		c0-1.9130859-1.4741211-3.4570313-3.2993164-3.4570313c-1.7719727,0-3.2285156,1.4736328-3.2988281,3.3164063V303.1230469z"/>
	<path d="M153.8325195,309.9140625c0.3334961,0,0.6318359-0.2988281,0.6318359-0.6494141v-10.0195313
		c0-0.2460938,0.2104492-0.4394531,0.4384766-0.4394531s0.4213867,0.1933594,0.4213867,0.4394531v10.0195313
		c0,0.8417969-0.6494141,1.4912109-1.4916992,1.4912109c-0.2456055,0-0.4213867-0.1757813-0.4213867-0.4033203
		C153.4111328,310.1064453,153.5869141,309.9140625,153.8325195,309.9140625z M154.4990234,296.4199219
		c0-0.2285156,0.2285156-0.421875,0.4389648-0.421875c0.2280273,0,0.4208984,0.1933594,0.4208984,0.421875v0.4033203
		c0,0.2275391-0.1928711,0.4384766-0.4208984,0.4384766c-0.2104492,0-0.4389648-0.2109375-0.4389648-0.4384766V296.4199219z"/>
	<path d="M158.8852539,303.1230469c0-2.3867188,1.8603516-4.3173828,4.1762695-4.3173828
		c2.2114258,0,3.9658203,1.7548828,4.1416016,4.0009766v0.0175781v0.0527344c0,0.2285156-0.1933594,0.3857422-0.4213867,0.3857422
		h-7.0541992c0.0878906,1.8779297,1.5620117,3.2998047,3.3339844,3.2998047c1.140625,0,2.1938477-0.5966797,2.7729492-1.5625
		c0.1225586-0.2099609,0.3857422-0.2451172,0.5615234-0.1396484c0.1928711,0.1396484,0.2631836,0.3857422,0.1401367,0.5957031
		c-0.7368164,1.1757813-2.0180664,1.9482422-3.4746094,1.9482422
		C160.7456055,307.4042969,158.8852539,305.4736328,158.8852539,303.1230469z M159.7802734,302.4384766h6.5102539
		c-0.2807617-1.6142578-1.6494141-2.7900391-3.2290039-2.7900391
		C161.4472656,299.6484375,160.0961914,300.8066406,159.7802734,302.4384766z"/>
	<path d="M169.5703125,303.0878906c0-2.3867188,1.965332-4.2822266,4.4223633-4.2822266
		c1.0175781,0,1.9829102,0.3515625,2.7373047,0.9482422c0.175293,0.1220703,0.2104492,0.3857422,0.0527344,0.5791016
		c-0.140625,0.1572266-0.3862305,0.2099609-0.5791016,0.0693359c-0.6142578-0.4912109-1.3862305-0.7714844-2.2109375-0.7714844
		c-2.0004883,0-3.5800781,1.5615234-3.5800781,3.4570313c0,1.9296875,1.5795898,3.4746094,3.5800781,3.4746094
		c0.824707,0,1.5966797-0.28125,2.2109375-0.7548828c0.1928711-0.140625,0.4384766-0.0878906,0.5791016,0.0703125
		c0.1577148,0.1923828,0.1225586,0.4560547-0.0878906,0.6142578c-0.7192383,0.5615234-1.6845703,0.9121094-2.7021484,0.9121094
		C171.5356445,307.4042969,169.5703125,305.5087891,169.5703125,303.0878906z"/>
	<path d="M183.203125,299.2275391c0,0.2099609-0.2104492,0.4208984-0.4208984,0.4208984h-1.1054688v6.2646484
		c0,0.4208984,0.4208984,0.6318359,0.6318359,0.6318359c0.2104492,0,0.4384766,0.2275391,0.4384766,0.4384766
		c0,0.2099609-0.2280273,0.4208984-0.4384766,0.4208984c-0.8598633,0-1.5092773-0.6318359-1.5092773-1.4912109v-6.2646484
		h-1.0703125c-0.4213867,0-0.4213867-0.2109375-0.4213867-0.4208984c0-0.2109375,0-0.421875,0.4213867-0.421875h1.0703125
		v-3.1933594c0-0.2109375,0.2104492-0.4208984,0.4213867-0.4208984c0.2280273,0,0.4560547,0.2099609,0.4560547,0.4208984v3.1933594
		h1.1054688C182.9926758,298.8056641,183.203125,299.0166016,183.203125,299.2275391z"/>
	<path d="M186.6767578,308.7558594c0.6318359-0.3515625,0.8774414-0.7373047,0.824707-1.3515625
		c-0.2631836-0.0703125-0.4736328-0.2636719-0.4736328-0.6142578v-0.3681641c0-0.3339844,0.2456055-0.5791016,0.5791016-0.5791016
		s0.5791016,0.2451172,0.5791016,0.5791016v0.4384766c0,0.9824219-0.1582031,1.5087891-0.4741211,1.8251953
		c-0.3154297,0.3154297-0.7543945,0.5615234-0.9121094,0.5615234c-0.1230469,0-0.2631836-0.0878906-0.2631836-0.2636719
		C186.5366211,308.8955078,186.5888672,308.8085938,186.6767578,308.7558594z"/>
	<path d="M203.4331055,304.2285156h-5.5981445l-1.0878906,2.8945313c-0.0698242,0.1757813-0.2280273,0.28125-0.4033203,0.28125
		c-0.0351563,0-0.1054688-0.0175781-0.1582031-0.0175781c-0.2104492-0.0878906-0.3330078-0.3505859-0.2456055-0.5615234
		l4.2641602-11.3886719c0.0703125-0.1572266,0.2456055-0.2626953,0.4213867-0.2626953
		c0.1928711,0,0.3681641,0.1054688,0.4208984,0.2626953l4.2641602,11.3886719
		c0.0878906,0.2109375-0.0175781,0.4736328-0.2280273,0.5615234c-0.0703125,0-0.1054688,0.0175781-0.1582031,0.0175781
		c-0.1577148,0-0.3334961-0.1054688-0.4033203-0.28125L203.4331055,304.2285156z M198.1508789,303.3681641h4.9663086
		l-2.4746094-6.5976563L198.1508789,303.3681641z"/>
	<path d="M207.8530273,299.2451172c0-0.2460938,0.1928711-0.421875,0.4389648-0.421875
		c0.2104492,0,0.4033203,0.1757813,0.4033203,0.421875v1.8945313c0.0351563-0.0703125,0.0703125-0.140625,0.1230469-0.2099609
		c0.6489258-1.0185547,1.7895508-2.1064453,3.4394531-2.1064453c0.2280273,0,0.4208984,0.1757813,0.4208984,0.421875
		c0,0.2275391-0.1928711,0.4208984-0.4208984,0.4208984c-1.1230469,0-1.8955078,0.6318359-2.4921875,1.4033203
		c-0.5791016,0.7724609-0.9121094,1.6494141-1.0351563,2.0009766c-0.0351563,0.0703125-0.0351563,0.1054688-0.0351563,0.1396484
		v3.7734375c0,0.2451172-0.1928711,0.4208984-0.4033203,0.4208984c-0.2460938,0-0.4389648-0.1757813-0.4389648-0.4208984
		V299.2451172z"/>
	<path d="M215.5551758,299.2451172c0-0.2460938,0.1928711-0.421875,0.4389648-0.421875
		c0.2104492,0,0.4033203,0.1757813,0.4033203,0.421875v1.8945313c0.0351563-0.0703125,0.0703125-0.140625,0.1230469-0.2099609
		c0.6489258-1.0185547,1.7895508-2.1064453,3.4394531-2.1064453c0.2280273,0,0.4208984,0.1757813,0.4208984,0.421875
		c0,0.2275391-0.1928711,0.4208984-0.4208984,0.4208984c-1.1230469,0-1.8955078,0.6318359-2.4921875,1.4033203
		c-0.5791016,0.7724609-0.9121094,1.6494141-1.0351563,2.0009766c-0.0351563,0.0703125-0.0351563,0.1054688-0.0351563,0.1396484
		v3.7734375c0,0.2451172-0.1928711,0.4208984-0.4033203,0.4208984c-0.2460938,0-0.4389648-0.1757813-0.4389648-0.4208984
		V299.2451172z"/>
	<path d="M230.03125,299.2275391v7.7558594c0,0.2275391-0.1933594,0.4208984-0.4213867,0.4208984
		s-0.4213867-0.1933594-0.4213867-0.4208984v-1.28125c-0.7368164,1.0175781-1.9125977,1.7021484-3.2285156,1.7021484
		c-2.2636719,0-4.0712891-1.9482422-4.0712891-4.2988281c0-2.3515625,1.8076172-4.2998047,4.0712891-4.2998047
		c1.315918,0,2.4916992,0.6669922,3.2285156,1.6845703v-1.2626953c0-0.2460938,0.1933594-0.421875,0.4213867-0.421875
		S230.03125,298.9814453,230.03125,299.2275391z M229.1884766,303.1054688c0-1.9306641-1.4560547-3.4746094-3.2285156-3.4746094
		c-1.7548828,0-3.2285156,1.5439453-3.2285156,3.4746094c0,1.9296875,1.4736328,3.4570313,3.2285156,3.4570313
		C227.7324219,306.5625,229.1884766,305.0351563,229.1884766,303.1054688z"/>
	<path d="M233.503418,299.2099609c0-0.2285156,0.1928711-0.4042969,0.4033203-0.4042969
		c0.2456055,0,0.4389648,0.1757813,0.4389648,0.4042969v4.6669922c0,1.4746094,1.1757813,2.6503906,2.6318359,2.6503906
		c1.4741211,0,2.6499023-1.1757813,2.6674805-2.6503906v-4.6669922c0-0.0703125,0.0175781-0.1582031,0.0703125-0.2109375
		c0-0.0175781,0.0175781-0.0351563,0.0175781-0.0527344c0.0170898,0,0.0170898-0.0175781,0.034668-0.0175781
		c0.0351563-0.0527344,0.1054688-0.0878906,0.1582031-0.1054688h0.0351563c0.0175781,0,0.0351563-0.0175781,0.0527344-0.0175781
		h0.0522461h0.0527344c0.0703125,0.0175781,0.140625,0.0527344,0.2104492,0.0878906
		c0.0351563,0.0351563,0.0878906,0.0878906,0.1054688,0.140625c0.0351563,0.0527344,0.0527344,0.1230469,0.0527344,0.1757813
		v4.6669922v0.1582031v2.6845703c0,2.2460938-1.8251953,4.0361328-4.0888672,4.0361328
		c-0.6313477,0-1.2280273-0.1582031-1.7719727-0.4033203c-0.1933594-0.1230469-0.2807617-0.3691406-0.1757813-0.5615234
		c0.1054688-0.2109375,0.3334961-0.2636719,0.5439453-0.2109375c0.4213867,0.2109375,0.9125977,0.3339844,1.4038086,0.3339844
		c1.7900391,0,3.2290039-1.421875,3.246582-3.1943359v-0.5615234c-0.6494141,0.7373047-1.5966797,1.2285156-2.6674805,1.2285156
		c-1.9125977-0.0175781-3.4741211-1.5791016-3.4741211-3.5097656V299.2099609z"/>
	<path d="M242.5039063,308.7558594c0.6318359-0.3515625,0.8774414-0.7373047,0.824707-1.3515625
		c-0.2631836-0.0703125-0.4736328-0.2636719-0.4736328-0.6142578v-0.3681641c0-0.3339844,0.2456055-0.5791016,0.5791016-0.5791016
		s0.5791016,0.2451172,0.5791016,0.5791016v0.4384766c0,0.9824219-0.1582031,1.5087891-0.4741211,1.8251953
		c-0.3154297,0.3154297-0.7543945,0.5615234-0.9121094,0.5615234c-0.1230469,0-0.2631836-0.0878906-0.2631836-0.2636719
		C242.3637695,308.8955078,242.4160156,308.8085938,242.5039063,308.7558594z"/>
	<path d="M113.2871094,316.5966797c0-0.2275391,0.1928711-0.4208984,0.4208984-0.4208984h0.0527344h2.6845703
		c1.6845703,0,3.0532227,1.3681641,3.0532227,3.0703125c0,0.9658203-0.4736328,1.8251953-1.175293,2.3867188
		c1.3862305,0.4736328,2.4038086,1.7724609,2.4038086,3.3164063c0,1.9482422-1.5791016,3.5097656-3.5092773,3.5097656h-3.4570313
		h-0.0527344h-0.0175781c-0.2280273,0-0.4033203-0.1933594-0.4033203-0.4208984V316.5966797z M116.4453125,321.4228516
		c1.2109375,0,2.1933594-0.9833984,2.1933594-2.1767578c0-1.2275391-0.9824219-2.2109375-2.1933594-2.2109375h-2.2988281v4.3876953
		H116.4453125z M117.2177734,327.5996094c1.4560547,0,2.6318359-1.1757813,2.6494141-2.6503906
		c-0.0175781-1.4560547-1.1933594-2.6494141-2.6494141-2.6494141h-3.0712891v5.2998047H117.2177734z"/>
	<path d="M127.1831055,319.8603516c2.2636719,0,4.0712891,1.9658203,4.0712891,4.2998047s-1.8076172,4.2988281-4.0712891,4.2988281
		c-2.2460938,0-4.0708008-1.9648438-4.0708008-4.2988281S124.9370117,319.8603516,127.1831055,319.8603516z
		 M127.1831055,327.6171875c1.7548828,0,3.2290039-1.5449219,3.2290039-3.4570313
		c0-1.9130859-1.4741211-3.4746094-3.2290039-3.4746094s-3.2285156,1.5615234-3.2285156,3.4746094
		C123.9545898,326.0722656,125.4282227,327.6171875,127.1831055,327.6171875z"/>
	<path d="M138.1489258,319.8603516c2.2636719,0,4.0712891,1.9658203,4.0712891,4.2998047s-1.8076172,4.2988281-4.0712891,4.2988281
		c-2.2460938,0-4.0708008-1.9648438-4.0708008-4.2988281S135.902832,319.8603516,138.1489258,319.8603516z M138.1489258,327.6171875
		c1.7548828,0,3.2290039-1.5449219,3.2290039-3.4570313c0-1.9130859-1.4741211-3.4746094-3.2290039-3.4746094
		s-3.2285156,1.5615234-3.2285156,3.4746094C134.9204102,326.0722656,136.394043,327.6171875,138.1489258,327.6171875z"/>
	<path d="M145.5703125,316.5966797c0-0.2275391,0.1928711-0.4208984,0.4208984-0.4208984
		c0.2456055,0,0.4389648,0.1933594,0.4389648,0.4208984v11.4414063c0,0.2275391-0.1933594,0.4208984-0.4389648,0.4208984
		c-0.2280273,0-0.4208984-0.1933594-0.4208984-0.4208984V316.5966797z"/>
	<path d="M149.9912109,324.1777344c0-2.3867188,1.8603516-4.3173828,4.1767578-4.3173828
		c2.2109375,0,3.965332,1.7548828,4.1411133,4.0009766v0.0175781v0.0527344c0,0.2285156-0.1933594,0.3857422-0.4213867,0.3857422
		h-7.0541992c0.0878906,1.8779297,1.5620117,3.2998047,3.3344727,3.2998047c1.1401367,0,2.1933594-0.5966797,2.7724609-1.5625
		c0.1225586-0.2099609,0.3857422-0.2451172,0.5615234-0.1396484c0.1928711,0.1396484,0.2631836,0.3857422,0.1401367,0.5957031
		c-0.7368164,1.1757813-2.0180664,1.9482422-3.4741211,1.9482422
		C151.8515625,328.4589844,149.9912109,326.5283203,149.9912109,324.1777344z M150.8862305,323.4931641h6.5102539
		c-0.2807617-1.6142578-1.6494141-2.7900391-3.2285156-2.7900391
		C152.5532227,320.703125,151.2021484,321.8613281,150.8862305,323.4931641z"/>
	<path d="M168.5029297,320.2822266v7.7558594c0,0.2275391-0.1933594,0.4208984-0.4213867,0.4208984
		s-0.4213867-0.1933594-0.4213867-0.4208984v-1.28125c-0.7368164,1.0175781-1.9125977,1.7021484-3.2285156,1.7021484
		c-2.2636719,0-4.0712891-1.9482422-4.0712891-4.2988281c0-2.3515625,1.8076172-4.2998047,4.0712891-4.2998047
		c1.315918,0,2.4916992,0.6669922,3.2285156,1.6845703v-1.2626953c0-0.2460938,0.1933594-0.421875,0.4213867-0.421875
		S168.5029297,320.0361328,168.5029297,320.2822266z M167.6601563,324.1601563c0-1.9306641-1.4560547-3.4746094-3.2285156-3.4746094
		c-1.7548828,0-3.2285156,1.5439453-3.2285156,3.4746094c0,1.9296875,1.4736328,3.4570313,3.2285156,3.4570313
		C166.2041016,327.6171875,167.6601563,326.0898438,167.6601563,324.1601563z"/>
	<path d="M178.1171875,323.3701172c0-1.4560547-1.1757813-2.6494141-2.6494141-2.6494141
		c-1.456543,0-2.6323242,1.1933594-2.6674805,2.6494141v4.6679688v0.0703125
		c-0.0175781,0.0693359-0.0351563,0.1396484-0.0874023,0.1923828c-0.0703125,0.1054688-0.1933594,0.1582031-0.315918,0.1582031
		h-0.1054688c-0.1225586-0.0351563-0.2280273-0.1230469-0.2807617-0.2285156
		c-0.0175781-0.0175781-0.0175781-0.0351563-0.0175781-0.0527344c0-0.0166016-0.0175781-0.0341797-0.0175781-0.0341797v-0.1054688
		v-4.6679688v-0.140625v-2.9296875c0-0.2285156,0.1757813-0.421875,0.4213867-0.421875
		c0.2280273,0,0.4033203,0.1933594,0.4033203,0.421875v0.8242188c0.6318359-0.7548828,1.597168-1.2460938,2.6674805-1.2460938
		c1.9301758,0,3.4916992,1.5791016,3.4916992,3.4921875v4.6679688c0,0.2451172-0.1928711,0.4208984-0.4208984,0.4208984
		s-0.4213867-0.1757813-0.4213867-0.4208984V323.3701172z"/>
	<path d="M182.1865234,329.8105469c0.6318359-0.3515625,0.8774414-0.7373047,0.824707-1.3515625
		c-0.2631836-0.0703125-0.4736328-0.2636719-0.4736328-0.6142578v-0.3681641c0-0.3339844,0.2456055-0.5791016,0.5791016-0.5791016
		s0.5791016,0.2451172,0.5791016,0.5791016v0.4384766c0,0.9824219-0.1582031,1.5087891-0.4741211,1.8251953
		c-0.3154297,0.3154297-0.7543945,0.5615234-0.9121094,0.5615234c-0.1230469,0-0.2631836-0.0878906-0.2631836-0.2636719
		C182.0463867,329.9501953,182.0986328,329.8632813,182.1865234,329.8105469z"/>
	<path d="M192.0463867,317.4746094c0-0.2285156,0.1928711-0.421875,0.4213867-0.421875
		c0.2456055,0,0.4384766,0.1933594,0.4384766,0.421875v0.4033203c0,0.2451172-0.1928711,0.4560547-0.4384766,0.4560547
		c-0.2285156,0-0.4213867-0.2109375-0.4213867-0.4560547V317.4746094z M192.0463867,320.2822266
		c0-0.2460938,0.1928711-0.421875,0.4213867-0.421875c0.2456055,0,0.4384766,0.1757813,0.4384766,0.421875v7.7558594
		c0,0.2275391-0.1928711,0.4208984-0.4384766,0.4208984c-0.2285156,0-0.4213867-0.1933594-0.4213867-0.4208984V320.2822266z"/>
	<path d="M196.3623047,326.6689453c0.140625-0.1748047,0.4038086-0.2099609,0.5966797-0.0527344
		c0.5966797,0.4384766,1.5444336,1.0009766,2.6323242,1.0009766c0.6665039,0,1.2456055-0.2109375,1.6318359-0.5273438
		c0.4213867-0.2802734,0.6494141-0.6660156,0.6494141-1.0527344c-0.0175781-0.4033203-0.1757813-0.6835938-0.6142578-1.0527344
		c-0.3686523-0.2802734-0.9829102-0.4912109-1.8251953-0.6318359l-0.034668-0.0175781
		c-0.7724609-0.1396484-1.456543-0.3154297-1.9482422-0.6660156c-0.5439453-0.3164063-0.9296875-0.8779297-0.9296875-1.5449219
		c0-0.6845703,0.3857422-1.2802734,0.9296875-1.6845703c0.5092773-0.3505859,1.2285156-0.5791016,2.105957-0.5791016
		c1.1054688,0,1.8950195,0.5087891,2.5620117,0.9306641c0.1928711,0.1396484,0.2456055,0.4033203,0.1225586,0.5966797
		c-0.1225586,0.1923828-0.3857422,0.2451172-0.5791016,0.1220703c-0.6313477-0.4208984-1.2631836-0.859375-2.1054688-0.859375
		c-0.7021484,0-1.2636719,0.1933594-1.6318359,0.4912109c-0.3510742,0.28125-0.5439453,0.6318359-0.5439453,0.9824219
		c0,0.3515625,0.1577148,0.5966797,0.4912109,0.8603516c0.3862305,0.2626953,0.965332,0.4736328,1.7548828,0.5966797h0.0351563
		c0.824707,0.1220703,1.4912109,0.3681641,2.0878906,0.7011719c0.5615234,0.3691406,0.965332,1.0361328,0.965332,1.7548828
		c0,0.7197266-0.4038086,1.2988281-0.9829102,1.7373047c-0.5966797,0.4384766-1.2983398,0.6845703-2.140625,0.6845703
		c-1.3862305-0.0175781-2.4741211-0.6669922-3.1762695-1.2285156
		C196.2397461,327.0722656,196.222168,326.8447266,196.3623047,326.6689453z"/>
	<path d="M206.6787109,317.9833984v10.0546875c0,0.2275391-0.1928711,0.4208984-0.4208984,0.4208984
		s-0.4213867-0.1933594-0.4213867-0.4208984v-11.265625c-0.0522461-0.1757813,0-0.3515625,0.1582031-0.4736328
		c0.1928711-0.1230469,0.4736328-0.0878906,0.5966797,0.1044922l7.4399414,10.3183594v-10.0019531
		c0-0.2285156,0.1928711-0.4208984,0.4213867-0.4208984c0.2456055,0,0.4384766,0.1923828,0.4384766,0.4208984v11.3183594
		c0,0.2275391-0.1928711,0.4208984-0.4384766,0.4208984c-0.140625,0-0.2456055-0.0527344-0.3334961-0.1582031
		c-0.0175781-0.0175781-0.0527344-0.0351563-0.0703125-0.0703125L206.6787109,317.9833984z"/>
	<path d="M226.3300781,320.2822266v7.7558594c0,0.2275391-0.1928711,0.4208984-0.4208984,0.4208984
		s-0.4208984-0.1933594-0.4208984-0.4208984v-1.28125c-0.7373047,1.0175781-1.9130859,1.7021484-3.2290039,1.7021484
		c-2.2636719,0-4.0708008-1.9482422-4.0708008-4.2988281c0-2.3515625,1.8071289-4.2998047,4.0708008-4.2998047
		c1.315918,0,2.4916992,0.6669922,3.2290039,1.6845703v-1.2626953c0-0.2460938,0.1928711-0.421875,0.4208984-0.421875
		S226.3300781,320.0361328,226.3300781,320.2822266z M225.4882813,324.1601563c0-1.9306641-1.456543-3.4746094-3.2290039-3.4746094
		c-1.7548828,0-3.2290039,1.5439453-3.2290039,3.4746094c0,1.9296875,1.4741211,3.4570313,3.2290039,3.4570313
		C224.0317383,327.6171875,225.4882813,326.0898438,225.4882813,324.1601563z"/>
	<path d="M231.0664063,317.9833984v10.0546875c0,0.2275391-0.1928711,0.4208984-0.4208984,0.4208984
		s-0.4213867-0.1933594-0.4213867-0.4208984v-11.265625c-0.0522461-0.1757813,0-0.3515625,0.1582031-0.4736328
		c0.1928711-0.1230469,0.4736328-0.0878906,0.5966797,0.1044922l7.4399414,10.3183594v-10.0019531
		c0-0.2285156,0.1928711-0.4208984,0.4213867-0.4208984c0.2456055,0,0.4384766,0.1923828,0.4384766,0.4208984v11.3183594
		c0,0.2275391-0.1928711,0.4208984-0.4384766,0.4208984c-0.140625,0-0.2456055-0.0527344-0.3334961-0.1582031
		c-0.0175781-0.0175781-0.0527344-0.0351563-0.0703125-0.0703125L231.0664063,317.9833984z"/>
	<path d="M243.1201172,323.1416016c0-1.8417969,0.2456055-3.5263672,0.8422852-4.8251953
		c0.5786133-1.28125,1.6142578-2.1933594,3.0532227-2.1933594c0.2631836,0,0.4736328,0.2285156,0.4736328,0.4912109
		c0,0.2636719-0.2104492,0.4912109-0.4736328,0.4912109c-1.0004883,0.0175781-1.6494141,0.5439453-2.1762695,1.6318359
		c-0.4912109,1.0703125-0.7368164,2.6503906-0.7368164,4.4042969c0,1.7548828,0.2456055,3.3349609,0.7368164,4.4052734
		c0.5268555,1.0878906,1.1757813,1.6318359,2.1762695,1.6318359c0.2631836,0,0.4736328,0.2275391,0.4736328,0.4912109
		c0,0.2802734-0.2104492,0.4912109-0.4736328,0.4912109c-0.0175781,0-0.0175781,0-0.0351563,0
		c-1.4213867,0-2.456543-0.9121094-3.0180664-2.1933594C243.3657227,326.6865234,243.1201172,324.984375,243.1201172,323.1416016z"
		/>
	<path d="M250.9794922,330.1611328c-0.0175781,0-0.0175781,0-0.0351563,0c-0.2626953,0-0.4736328-0.2109375-0.4736328-0.4912109
		c0-0.2636719,0.2109375-0.4912109,0.4736328-0.4912109c1.0009766,0,1.6494141-0.5439453,2.1757813-1.6318359
		c0.4921875-1.0703125,0.7373047-2.6503906,0.7373047-4.4052734c0-1.7539063-0.2451172-3.3339844-0.7373047-4.4042969
		c-0.5263672-1.0878906-1.1748047-1.6142578-2.1757813-1.6318359c-0.2626953,0-0.4736328-0.2275391-0.4736328-0.4912109
		c0-0.2626953,0.2109375-0.4912109,0.4736328-0.4912109c1.4394531,0,2.4746094,0.9121094,3.0537109,2.1933594
		c0.5966797,1.2988281,0.8417969,2.9833984,0.8417969,4.8251953c0,1.8427734-0.2451172,3.5449219-0.8417969,4.8261719
		C253.4365234,329.2490234,252.4013672,330.1611328,250.9794922,330.1611328z"/>
	<path d="M258.0507813,329.8105469c0.6318359-0.3515625,0.8769531-0.7373047,0.8251953-1.3515625
		c-0.2636719-0.0703125-0.4746094-0.2636719-0.4746094-0.6142578v-0.3681641c0-0.3339844,0.2460938-0.5791016,0.5791016-0.5791016
		c0.3339844,0,0.5791016,0.2451172,0.5791016,0.5791016v0.4384766c0,0.9824219-0.1572266,1.5087891-0.4736328,1.8251953
		c-0.3154297,0.3154297-0.7539063,0.5615234-0.9121094,0.5615234c-0.1230469,0-0.2636719-0.0878906-0.2636719-0.2636719
		C257.9101563,329.9501953,257.9628906,329.8632813,258.0507813,329.8105469z"/>
	<path d="M133.3232422,345.3535156v-0.1748047v-0.1757813v-3.6669922c0-0.2285156,0.1933594-0.421875,0.4213867-0.421875
		c0.2456055,0,0.4384766,0.1933594,0.4384766,0.421875v1.2451172c0.7368164-1,1.9301758-1.6669922,3.2641602-1.6669922
		c2.315918,0,4.1586914,1.9130859,4.1586914,4.2646484c0,2.3339844-1.8427734,4.28125-4.1586914,4.28125
		c-1.3339844,0-2.5273438-0.6669922-3.2641602-1.6845703v4.9130859c0,0.2285156-0.1928711,0.421875-0.4384766,0.421875
		c-0.2280273,0-0.4213867-0.1933594-0.4213867-0.421875V345.3535156z M134.1831055,345.1787109
		c0,1.8945313,1.4916992,3.421875,3.2641602,3.4394531c1.824707-0.0175781,3.2988281-1.5449219,3.2988281-3.4394531
		c0-1.8955078-1.4741211-3.4042969-3.2988281-3.4042969c-1.7373047,0-3.1938477,1.4384766-3.2641602,3.2636719V345.1787109z"/>
	<path d="M152.1152344,341.3359375v7.7558594c0,0.2275391-0.1933594,0.4208984-0.4213867,0.4208984
		s-0.4213867-0.1933594-0.4213867-0.4208984v-1.28125c-0.7368164,1.0175781-1.9125977,1.7021484-3.2285156,1.7021484
		c-2.2636719,0-4.0712891-1.9482422-4.0712891-4.2988281c0-2.3515625,1.8076172-4.2998047,4.0712891-4.2998047
		c1.315918,0,2.4916992,0.6669922,3.2285156,1.6845703v-1.2626953c0-0.2460938,0.1933594-0.421875,0.4213867-0.421875
		S152.1152344,341.0898438,152.1152344,341.3359375z M151.2724609,345.2138672c0-1.9306641-1.4560547-3.4746094-3.2285156-3.4746094
		c-1.7548828,0-3.2285156,1.5439453-3.2285156,3.4746094c0,1.9296875,1.4736328,3.4560547,3.2285156,3.4560547
		C149.8164063,348.6699219,151.2724609,347.1435547,151.2724609,345.2138672z"/>
	<path d="M155.7631836,341.3535156c0-0.2460938,0.1928711-0.421875,0.4389648-0.421875
		c0.2104492,0,0.4033203,0.1757813,0.4033203,0.421875v1.8945313c0.0351563-0.0703125,0.0703125-0.140625,0.1230469-0.2099609
		c0.6489258-1.0185547,1.7895508-2.1064453,3.4394531-2.1064453c0.2280273,0,0.4208984,0.1757813,0.4208984,0.421875
		c0,0.2275391-0.1928711,0.4208984-0.4208984,0.4208984c-1.1230469,0-1.8955078,0.6318359-2.4921875,1.4033203
		c-0.5791016,0.7724609-0.9121094,1.6494141-1.0351563,2.0009766c-0.0351563,0.0703125-0.0351563,0.1054688-0.0351563,0.1396484
		v3.7734375c0,0.2451172-0.1928711,0.4208984-0.4033203,0.4208984c-0.2460938,0-0.4389648-0.1757813-0.4389648-0.4208984
		V341.3535156z"/>
	<path d="M162.8686523,347.7226563c0.140625-0.1757813,0.4038086-0.2099609,0.5966797-0.0527344
		c0.5966797,0.4394531,1.5444336,1,2.6323242,1c0.6665039,0,1.2456055-0.2099609,1.6318359-0.5263672
		c0.4208984-0.2802734,0.6494141-0.6660156,0.6494141-1.0527344c-0.0175781-0.4033203-0.1757813-0.6835938-0.6142578-1.0527344
		c-0.3686523-0.2802734-0.9829102-0.4912109-1.8251953-0.6318359l-0.0351563-0.0175781
		c-0.7719727-0.1396484-1.4560547-0.3154297-1.9477539-0.6660156c-0.5439453-0.3164063-0.9296875-0.8779297-0.9296875-1.5449219
		c0-0.6835938,0.3857422-1.2802734,0.9296875-1.6845703c0.5092773-0.3505859,1.2285156-0.5791016,2.105957-0.5791016
		c1.1054688,0,1.8950195,0.5087891,2.5620117,0.9306641c0.1928711,0.1396484,0.2456055,0.4033203,0.1225586,0.5966797
		c-0.1225586,0.1923828-0.3857422,0.2451172-0.5791016,0.1220703c-0.6313477-0.4208984-1.2631836-0.859375-2.1054688-0.859375
		c-0.7021484,0-1.2636719,0.1933594-1.6318359,0.4912109c-0.3510742,0.28125-0.5439453,0.6318359-0.5439453,0.9824219
		c0,0.3515625,0.1577148,0.5966797,0.4912109,0.8603516c0.3862305,0.2626953,0.9648438,0.4736328,1.7548828,0.5966797h0.0351563
		c0.824707,0.1220703,1.4912109,0.3681641,2.0878906,0.7011719c0.5615234,0.3691406,0.965332,1.0361328,0.965332,1.7548828
		c0,0.7197266-0.4038086,1.2988281-0.9829102,1.7373047c-0.5966797,0.4384766-1.2983398,0.6845703-2.140625,0.6845703
		c-1.3862305-0.0175781-2.4741211-0.6669922-3.1762695-1.2285156
		C162.7460938,348.1259766,162.7285156,347.8984375,162.8686523,347.7226563z"/>
	<path d="M171.4829102,345.2314453c0-2.3867188,1.8603516-4.3173828,4.1762695-4.3173828
		c2.2114258,0,3.9658203,1.7548828,4.1416016,4.0009766v0.0175781v0.0527344c0,0.2285156-0.1933594,0.3857422-0.4213867,0.3857422
		h-7.0541992c0.0878906,1.8779297,1.5620117,3.2988281,3.3339844,3.2988281c1.140625,0,2.1938477-0.5957031,2.7729492-1.5615234
		c0.1225586-0.2099609,0.3857422-0.2451172,0.5615234-0.1396484c0.1928711,0.1396484,0.2631836,0.3857422,0.1401367,0.5957031
		c-0.7368164,1.1757813-2.0180664,1.9482422-3.4746094,1.9482422
		C173.3432617,349.5126953,171.4829102,347.5820313,171.4829102,345.2314453z M172.3779297,344.546875h6.5102539
		c-0.2807617-1.6142578-1.6494141-2.7900391-3.2290039-2.7900391
		C174.0449219,341.7568359,172.6938477,342.9150391,172.3779297,344.546875z"/>
	<path d="M183.0981445,337.6503906c0-0.2275391,0.1928711-0.4208984,0.4213867-0.4208984
		c0.2456055,0,0.4384766,0.1933594,0.4384766,0.4208984v11.4414063c0,0.2275391-0.1928711,0.4208984-0.4384766,0.4208984
		c-0.2285156,0-0.4213867-0.1933594-0.4213867-0.4208984V337.6503906z"/>
	<path d="M194.2749023,344.4238281c0-1.4560547-1.175293-2.6494141-2.6494141-2.6494141
		c-1.456543,0-2.6323242,1.1933594-2.6674805,2.6494141v4.6679688v0.0703125
		c-0.0175781,0.0703125-0.0351563,0.1396484-0.0874023,0.1923828c-0.0703125,0.1054688-0.1933594,0.1582031-0.315918,0.1582031
		h-0.1054688c-0.1230469-0.0351563-0.2280273-0.1230469-0.2807617-0.2285156
		c-0.0175781-0.0175781-0.0175781-0.0351563-0.0175781-0.0517578c0-0.0175781-0.0175781-0.0351563-0.0175781-0.0351563v-0.1054688
		v-4.6679688v-0.140625v-2.9296875c0-0.2285156,0.1757813-0.421875,0.4213867-0.421875
		c0.2280273,0,0.4033203,0.1933594,0.4033203,0.421875v0.8242188c0.6318359-0.7548828,1.597168-1.2460938,2.6674805-1.2460938
		c1.9301758,0,3.4916992,1.5791016,3.4916992,3.4921875v4.6679688c0,0.2451172-0.1928711,0.4208984-0.4208984,0.4208984
		s-0.4213867-0.1757813-0.4213867-0.4208984V344.4238281z"/>
	<path d="M201.8886719,341.3359375c0,0.2099609-0.2104492,0.4208984-0.4208984,0.4208984h-1.1054688v6.2646484
		c0,0.4208984,0.4208984,0.6318359,0.6318359,0.6318359c0.2104492,0,0.4384766,0.2275391,0.4384766,0.4384766
		c0,0.2099609-0.2280273,0.4208984-0.4384766,0.4208984c-0.8598633,0-1.5092773-0.6318359-1.5092773-1.4912109v-6.2646484
		h-1.0703125c-0.4213867,0-0.4213867-0.2109375-0.4213867-0.4208984c0-0.2109375,0-0.421875,0.4213867-0.421875h1.0703125
		v-3.1933594c0-0.2109375,0.2104492-0.4208984,0.4213867-0.4208984c0.2280273,0,0.4560547,0.2099609,0.4560547,0.4208984v3.1933594
		h1.1054688C201.6782227,340.9140625,201.8886719,341.125,201.8886719,341.3359375z"/>
	<path d="M205.5205078,344.1953125c0-1.8417969,0.2456055-3.5263672,0.8422852-4.8251953
		c0.5786133-1.28125,1.6142578-2.1933594,3.0532227-2.1933594c0.2631836,0,0.4736328,0.2285156,0.4736328,0.4912109
		c0,0.2636719-0.2104492,0.4912109-0.4736328,0.4912109c-1.0004883,0.0175781-1.6494141,0.5439453-2.1762695,1.6318359
		c-0.4912109,1.0703125-0.7368164,2.6503906-0.7368164,4.4042969c0,1.7548828,0.2456055,3.3349609,0.7368164,4.4052734
		c0.5268555,1.0878906,1.1757813,1.6318359,2.1762695,1.6318359c0.2631836,0,0.4736328,0.2275391,0.4736328,0.4912109
		c0,0.2802734-0.2104492,0.4912109-0.4736328,0.4912109c-0.0175781,0-0.0175781,0-0.0351563,0
		c-1.4213867,0-2.456543-0.9121094-3.0180664-2.1933594C205.7661133,347.7402344,205.5205078,346.0380859,205.5205078,344.1953125z"
		/>
	<path d="M213.3803711,351.2148438c-0.0170898,0-0.0170898,0-0.034668,0c-0.2636719,0-0.4741211-0.2109375-0.4741211-0.4912109
		c0-0.2636719,0.2104492-0.4912109,0.4741211-0.4912109c1,0,1.6494141-0.5439453,2.1757813-1.6318359
		c0.4912109-1.0703125,0.7368164-2.6503906,0.7368164-4.4052734c0-1.7539063-0.2456055-3.3339844-0.7368164-4.4042969
		c-0.5263672-1.0878906-1.1757813-1.6142578-2.1757813-1.6318359c-0.2636719,0-0.4741211-0.2275391-0.4741211-0.4912109
		c0-0.2626953,0.2104492-0.4912109,0.4741211-0.4912109c1.4384766,0,2.4741211,0.9121094,3.0532227,2.1933594
		c0.5966797,1.2988281,0.8422852,2.9833984,0.8422852,4.8251953c0,1.8427734-0.2456055,3.5449219-0.8422852,4.8261719
		C215.8374023,350.3027344,214.8017578,351.2148438,213.3803711,351.2148438z"/>
	<path d="M220.4511719,350.8642578c0.6318359-0.3515625,0.8774414-0.7373047,0.824707-1.3515625
		c-0.2631836-0.0703125-0.4736328-0.2636719-0.4736328-0.6142578v-0.3681641c0-0.3339844,0.2456055-0.5791016,0.5791016-0.5791016
		s0.5791016,0.2451172,0.5791016,0.5791016v0.4384766c0,0.9824219-0.1582031,1.5087891-0.4741211,1.8251953
		c-0.3154297,0.3154297-0.7543945,0.5615234-0.9121094,0.5615234c-0.1230469,0-0.2631836-0.0878906-0.2631836-0.2636719
		C220.3110352,351.0039063,220.3632813,350.9160156,220.4511719,350.8642578z"/>
	<path d="M230.9780273,347.7578125c0.4912109,0,0.8774414,0.3857422,0.8774414,0.8779297
		c0,0.4912109-0.3862305,0.8769531-0.8774414,0.8769531c-0.4916992,0-0.8774414-0.3857422-0.8774414-0.8769531
		C230.1005859,348.1435547,230.4863281,347.7578125,230.9780273,347.7578125z"/>
	<path d="M235.0131836,347.7578125c0.4912109,0,0.8774414,0.3857422,0.8774414,0.8779297
		c0,0.4912109-0.3862305,0.8769531-0.8774414,0.8769531c-0.4916992,0-0.8774414-0.3857422-0.8774414-0.8769531
		C234.1357422,348.1435547,234.5214844,347.7578125,235.0131836,347.7578125z"/>
	<path d="M239.0483398,347.7578125c0.4912109,0,0.8774414,0.3857422,0.8774414,0.8779297
		c0,0.4912109-0.3862305,0.8769531-0.8774414,0.8769531c-0.4916992,0-0.8774414-0.3857422-0.8774414-0.8769531
		C238.1708984,348.1435547,238.5566406,347.7578125,239.0483398,347.7578125z"/>
</g>
<g>
	<rect x="263.5966797" y="225.7104492" fill="none" width="193.3339844" height="66.0942383"/>
	<path d="M310.4619141,230.3061523c-0.2275391,0-0.4208984-0.1928711-0.4208984-0.4208984
		c0-0.2456055,0.1933594-0.4213867,0.4208984-0.4213867h5.5625c0.1054688-0.0175781,0.2109375,0.0175781,0.2988281,0.0703125
		l0.0527344,0.0527344l0.0175781,0.0175781c0.1054688,0.1054688,0.140625,0.2456055,0.0878906,0.3857422
		c-0.0175781,0.0878906-0.0703125,0.1757813-0.1582031,0.2285156l-5.0537109,6.9311523h4.8076172
		c0.2285156,0,0.421875,0.175293,0.421875,0.4213867c0,0.2456055-0.1933594,0.4208984-0.421875,0.4208984h-5.6152344
		c-0.1748047,0-0.3330078-0.1054688-0.3857422-0.2456055c0-0.0175781-0.0175781-0.0175781-0.0175781-0.0175781
		c-0.0175781-0.0527344-0.0175781-0.1054688-0.0175781-0.1577148v-0.0175781c0-0.1230469,0.0527344-0.2285156,0.140625-0.2983398
		l5.0712891-6.9492188H310.4619141z"/>
	<path d="M321.0068359,236.2373047c0.4912109,0,0.8769531,0.3862305,0.8769531,0.8774414s-0.3857422,0.8774414-0.8769531,0.8774414
		s-0.8779297-0.3862305-0.8779297-0.8774414S320.515625,236.2373047,321.0068359,236.2373047z"/>
	<path d="M324.5507813,226.1298828c0-0.2280273,0.1923828-0.4208984,0.4208984-0.4208984h0.0527344h2.6845703
		c1.6845703,0,3.0537109,1.3686523,3.0537109,3.0708008c0,0.9648438-0.4736328,1.824707-1.1757813,2.3862305
		c1.3857422,0.4741211,2.4033203,1.7724609,2.4033203,3.3164063c0,1.9482422-1.5791016,3.5097656-3.5087891,3.5097656h-3.4570313
		h-0.0527344h-0.0175781c-0.2285156,0-0.4033203-0.1928711-0.4033203-0.4208984V226.1298828z M327.7089844,230.9555664
		c1.2109375,0,2.1933594-0.9824219,2.1933594-2.1757813c0-1.2285156-0.9824219-2.2109375-2.1933594-2.2109375h-2.2988281v4.3867188
		H327.7089844z M328.4814453,237.1323242c1.4560547,0,2.6318359-1.1757813,2.6494141-2.6499023
		c-0.0175781-1.4560547-1.1933594-2.6494141-2.6494141-2.6494141h-3.0712891v5.2993164H328.4814453z"/>
	<path d="M335.4638672,236.2373047c0.4912109,0,0.8769531,0.3862305,0.8769531,0.8774414s-0.3857422,0.8774414-0.8769531,0.8774414
		s-0.8779297-0.3862305-0.8779297-0.8774414S334.9726563,236.2373047,335.4638672,236.2373047z"/>
	<path d="M346.9560547,237.921875c-0.0878906-0.0351563-0.140625-0.1049805-0.1757813-0.1928711l-3.2285156-7.6860352
		c-0.0878906-0.2104492,0.0175781-0.4560547,0.2109375-0.5439453c0.2099609-0.0874023,0.4736328,0.0175781,0.5439453,0.2280273
		l2.8603516,6.7734375l1.9824219-4.7202148c0.0703125-0.1577148,0.2460938-0.2631836,0.4033203-0.2631836
		c0.1757813,0,0.3515625,0.1054688,0.421875,0.2631836l1.9824219,4.7202148l2.8427734-6.7734375
		c0.0878906-0.2104492,0.3505859-0.3154297,0.5439453-0.2280273c0.2109375,0.0878906,0.3154297,0.3334961,0.2285156,0.5439453
		l-3.2119141,7.6508789c-0.0351563,0.0878906-0.0869141,0.1577148-0.1572266,0.2104492s-0.140625,0.0878906-0.2109375,0.0878906
		h-0.0351563h-0.0527344c-0.140625-0.0175781-0.2978516-0.1230469-0.3330078-0.2631836l-0.0175781-0.0175781l-2.0009766-4.7553711
		l-1.9824219,4.737793c0,0-0.0175781,0.0175781-0.0175781,0.0351563c-0.0527344,0.1577148-0.2285156,0.2631836-0.3681641,0.2631836
		c-0.0527344,0-0.1054688-0.0175781-0.1582031-0.0351563C346.9912109,237.9570313,346.9736328,237.9394531,346.9560547,237.921875z"
		/>
	<path d="M358.1142578,227.0073242c0-0.2280273,0.1933594-0.4208984,0.4208984-0.4208984
		c0.2460938,0,0.4394531,0.1928711,0.4394531,0.4208984v0.4038086c0,0.2456055-0.1933594,0.4560547-0.4394531,0.4560547
		c-0.2275391,0-0.4208984-0.2104492-0.4208984-0.4560547V227.0073242z M358.1142578,229.8149414
		c0-0.2456055,0.1933594-0.4208984,0.4208984-0.4208984c0.2460938,0,0.4394531,0.175293,0.4394531,0.4208984v7.7563477
		c0,0.2280273-0.1933594,0.4208984-0.4394531,0.4208984c-0.2275391,0-0.4208984-0.1928711-0.4208984-0.4208984V229.8149414z"/>
	<path d="M369.1679688,232.9033203c0-1.456543-1.1757813-2.6494141-2.6494141-2.6494141
		c-1.4570313,0-2.6318359,1.1928711-2.6669922,2.6494141v4.6679688v0.0698242
		c-0.0175781,0.0703125-0.0351563,0.140625-0.0878906,0.1933594c-0.0703125,0.1049805-0.1933594,0.1577148-0.3164063,0.1577148
		h-0.1044922c-0.1230469-0.0351563-0.2285156-0.1230469-0.28125-0.2280273
		c-0.0175781-0.0175781-0.0175781-0.0351563-0.0175781-0.0527344s-0.0175781-0.0351563-0.0175781-0.0351563v-0.1049805v-4.6679688
		v-0.1401367v-2.9306641c0-0.2280273,0.1757813-0.4208984,0.4208984-0.4208984c0.2285156,0,0.4042969,0.1928711,0.4042969,0.4208984
		v0.824707c0.6308594-0.7543945,1.5966797-1.2456055,2.6669922-1.2456055c1.9296875,0,3.4921875,1.5791016,3.4921875,3.4916992
		v4.6679688c0,0.2456055-0.1933594,0.4208984-0.421875,0.4208984c-0.2275391,0-0.4208984-0.175293-0.4208984-0.4208984V232.9033203z
		"/>
	<path d="M380.3095703,236.3251953c-0.7548828,1.0175781-1.9482422,1.6669922-3.2988281,1.6669922
		c-2.3164063,0-4.1591797-1.9301758-4.1591797-4.2817383c0-2.3862305,1.8427734-4.3164063,4.1591797-4.3164063
		c1.3505859,0,2.5439453,0.6665039,3.2988281,1.6845703v-4.9487305c0-0.2280273,0.1923828-0.4208984,0.4384766-0.4208984
		c0.2285156,0,0.4208984,0.1928711,0.4208984,0.4208984v7.4052734v0.175293v3.8608398
		c0,0.2280273-0.1923828,0.4208984-0.4208984,0.4208984c-0.2460938,0-0.4384766-0.1928711-0.4384766-0.4208984V236.3251953z
		 M380.3095703,233.8510742v-0.2807617c-0.0703125-1.8427734-1.5263672-3.3164063-3.2988281-3.3164063
		c-1.8076172,0-3.2988281,1.5439453-3.2988281,3.456543c0,1.8950195,1.4912109,3.421875,3.2988281,3.421875
		C378.7832031,237.1323242,380.2392578,235.6757813,380.3095703,233.8510742z"/>
	<path d="M388.6777344,229.394043c2.2636719,0,4.0703125,1.965332,4.0703125,4.2988281
		c0,2.3339844-1.8066406,4.2993164-4.0703125,4.2993164c-2.2460938,0-4.0712891-1.965332-4.0712891-4.2993164
		C384.6064453,231.359375,386.4316406,229.394043,388.6777344,229.394043z M388.6777344,237.1499023
		c1.7539063,0,3.2285156-1.5444336,3.2285156-3.4570313s-1.4746094-3.4741211-3.2285156-3.4741211
		c-1.7548828,0-3.2294922,1.5615234-3.2294922,3.4741211S386.9228516,237.1499023,388.6777344,237.1499023z"/>
	<path d="M398.1513672,237.921875c-0.0878906-0.0351563-0.140625-0.1049805-0.1757813-0.1928711l-3.2285156-7.6860352
		c-0.0878906-0.2104492,0.0175781-0.4560547,0.2109375-0.5439453c0.2099609-0.0874023,0.4736328,0.0175781,0.5439453,0.2280273
		l2.8603516,6.7734375l1.9824219-4.7202148c0.0703125-0.1577148,0.2460938-0.2631836,0.4033203-0.2631836
		c0.1757813,0,0.3515625,0.1054688,0.421875,0.2631836l1.9824219,4.7202148l2.8427734-6.7734375
		c0.0878906-0.2104492,0.3505859-0.3154297,0.5439453-0.2280273c0.2109375,0.0878906,0.3154297,0.3334961,0.2285156,0.5439453
		l-3.2119141,7.6508789c-0.0351563,0.0878906-0.0869141,0.1577148-0.1572266,0.2104492s-0.140625,0.0878906-0.2109375,0.0878906
		h-0.0351563h-0.0527344c-0.140625-0.0175781-0.2978516-0.1230469-0.3330078-0.2631836l-0.0175781-0.0175781l-2.0009766-4.7553711
		l-1.9824219,4.737793c0,0-0.0175781,0.0175781-0.0175781,0.0351563c-0.0527344,0.1577148-0.2285156,0.2631836-0.3681641,0.2631836
		c-0.0527344,0-0.1054688-0.0175781-0.1582031-0.0351563C398.1865234,237.9570313,398.1689453,237.9394531,398.1513672,237.921875z"
		/>
	<path d="M408.6083984,239.3432617c0.6318359-0.3510742,0.8779297-0.7368164,0.8251953-1.3510742
		c-0.2636719-0.0703125-0.4746094-0.2631836-0.4746094-0.6142578v-0.3681641c0-0.3334961,0.2460938-0.5791016,0.5791016-0.5791016
		c0.3339844,0,0.5791016,0.2456055,0.5791016,0.5791016v0.4384766c0,0.9824219-0.1572266,1.5092773-0.4736328,1.824707
		c-0.3154297,0.315918-0.7539063,0.5615234-0.9121094,0.5615234c-0.1230469,0-0.2636719-0.0874023-0.2636719-0.2631836
		C408.4677734,239.4838867,408.5205078,239.3959961,408.6083984,239.3432617z"/>
	<path d="M322.5263672,257.3789063c-0.7548828,1.0175781-1.9482422,1.6669922-3.2988281,1.6669922
		c-2.3164063,0-4.1591797-1.9306641-4.1591797-4.28125c0-2.3867188,1.8427734-4.3168945,4.1591797-4.3168945
		c1.3505859,0,2.5439453,0.6665039,3.2988281,1.6850586v-4.9492188c0-0.2280273,0.1923828-0.4208984,0.4384766-0.4208984
		c0.2285156,0,0.4208984,0.1928711,0.4208984,0.4208984v7.4052734v0.1757813V258.625
		c0,0.2275391-0.1923828,0.4208984-0.4208984,0.4208984c-0.2460938,0-0.4384766-0.1933594-0.4384766-0.4208984V257.3789063z
		 M322.5263672,254.9042969v-0.2802734c-0.0703125-1.8427734-1.5263672-3.3164063-3.2988281-3.3164063
		c-1.8076172,0-3.2988281,1.5439453-3.2988281,3.4570313c0,1.8945313,1.4912109,3.421875,3.2988281,3.421875
		C321,258.1865234,322.4560547,256.7294922,322.5263672,254.9042969z"/>
	<path d="M330.8945313,250.4477539c2.2636719,0,4.0703125,1.965332,4.0703125,4.2993164
		c0,2.3330078-1.8066406,4.2988281-4.0703125,4.2988281c-2.2460938,0-4.0712891-1.9658203-4.0712891-4.2988281
		C326.8232422,252.4130859,328.6484375,250.4477539,330.8945313,250.4477539z M330.8945313,258.203125
		c1.7539063,0,3.2285156-1.5439453,3.2285156-3.4560547c0-1.9130859-1.4746094-3.4746094-3.2285156-3.4746094
		c-1.7548828,0-3.2294922,1.5615234-3.2294922,3.4746094C327.6650391,256.6591797,329.1396484,258.203125,330.8945313,258.203125z"
		/>
	<path d="M337.578125,254.7294922c0-2.3867188,1.9658203-4.2817383,4.421875-4.2817383
		c1.0175781,0,1.9833984,0.3505859,2.7373047,0.9477539c0.1757813,0.1230469,0.2109375,0.3857422,0.0527344,0.5791016
		c-0.1396484,0.1582031-0.3857422,0.2099609-0.5791016,0.0703125c-0.6142578-0.4912109-1.3857422-0.7724609-2.2109375-0.7724609
		c-2,0-3.5791016,1.5615234-3.5791016,3.4570313c0,1.9296875,1.5791016,3.4736328,3.5791016,3.4736328
		c0.8251953,0,1.5966797-0.2802734,2.2109375-0.7539063c0.1933594-0.140625,0.4394531-0.0878906,0.5791016,0.0703125
		c0.1582031,0.1923828,0.1230469,0.4560547-0.0869141,0.6142578c-0.7197266,0.5615234-1.6855469,0.9121094-2.703125,0.9121094
		C339.5439453,259.0458984,337.578125,257.1503906,337.578125,254.7294922z"/>
	<path d="M348.0351563,250.8510742c0-0.2456055,0.1933594-0.4208984,0.421875-0.4208984
		c0.2275391,0,0.4208984,0.175293,0.4208984,0.4208984v4.6850586c0,1.4746094,1.1757813,2.6503906,2.6318359,2.6669922
		c1.4746094-0.0166016,2.6669922-1.1923828,2.6669922-2.6669922v-4.6850586c0-0.2456055,0.2109375-0.4208984,0.421875-0.4208984
		c0.2451172,0,0.4384766,0.175293,0.4384766,0.4208984v4.6850586c0,1.9306641-1.5615234,3.5097656-3.5273438,3.5097656
		c-1.9296875,0-3.4746094-1.5791016-3.4746094-3.5097656V250.8510742z"/>
	<path d="M371.2666016,253.9570313c-0.0351563-1.4560547-1.1933594-2.6669922-2.6669922-2.6669922
		c-1.4560547,0-2.6494141,1.2109375-2.6494141,2.6669922v4.6855469v0.0527344c0,0.0175781-0.0175781,0.0351563-0.0175781,0.0351563
		v0.0351563c-0.0351563,0.1044922-0.1230469,0.1748047-0.2109375,0.2275391
		c-0.0703125,0.0351563-0.140625,0.0527344-0.2109375,0.0527344h-0.0517578h-0.0351563
		c-0.0175781,0-0.0351563-0.0175781-0.0351563-0.0175781c-0.0351563,0-0.0703125-0.0351563-0.1054688-0.0527344
		c-0.0175781,0-0.0351563-0.0175781-0.0527344-0.0351563l-0.0527344-0.0527344
		c-0.0175781-0.0175781-0.0175781-0.0351563-0.0351563-0.0351563c0-0.0175781,0-0.0175781-0.0175781-0.0351563
		c0,0,0-0.0175781-0.0175781-0.0351563c0-0.0166016,0-0.0341797-0.0175781-0.0517578v-0.0527344v-0.0351563v-4.6855469
		c0-1.4560547-1.1757813-2.6669922-2.6494141-2.6669922s-2.6494141,1.2109375-2.6494141,2.6669922v4.6855469
		c0,0.1396484-0.0703125,0.2626953-0.1933594,0.3330078c-0.0175781,0.0175781-0.0703125,0.0527344-0.1054688,0.0527344
		c-0.0175781,0.0175781-0.0351563,0.0175781-0.0703125,0.0175781h-0.0527344h-0.0527344
		c-0.1572266-0.0175781-0.2978516-0.1582031-0.3505859-0.3154297v-0.0878906v-4.6855469v-0.1396484v-2.9487305
		c0-0.2280273,0.1933594-0.4033203,0.4033203-0.4033203c0.2460938,0,0.421875,0.175293,0.421875,0.4033203v0.824707
		c0.6308594-0.7543945,1.5791016-1.2280273,2.6494141-1.2280273c1.3339844,0,2.4736328,0.7368164,3.0703125,1.824707
		c0.6142578-1.0878906,1.7724609-1.824707,3.0888672-1.824707c1.9296875,0,3.4921875,1.5620117,3.4921875,3.4916992v4.6855469
		c0,0.2099609-0.1757813,0.4033203-0.421875,0.4033203c-0.2275391,0-0.4033203-0.1933594-0.4033203-0.4033203V253.9570313z"/>
	<path d="M375.0371094,254.7646484c0-2.3867188,1.8603516-4.3168945,4.1767578-4.3168945
		c2.2109375,0,3.9658203,1.7543945,4.140625,4.0004883v0.0175781v0.0527344c0,0.2285156-0.1923828,0.3857422-0.4208984,0.3857422
		h-7.0537109c0.0878906,1.8779297,1.5615234,3.2988281,3.3339844,3.2988281c1.140625,0,2.1933594-0.5957031,2.7724609-1.5615234
		c0.1230469-0.2099609,0.3857422-0.2451172,0.5615234-0.1396484c0.1923828,0.1396484,0.2626953,0.3857422,0.140625,0.5957031
		c-0.7373047,1.1757813-2.0185547,1.9482422-3.4746094,1.9482422
		C376.8974609,259.0458984,375.0371094,257.1152344,375.0371094,254.7646484z M375.9326172,254.0800781h6.5097656
		c-0.2802734-1.6142578-1.6494141-2.7900391-3.2285156-2.7900391
		C377.5996094,251.2900391,376.2480469,252.4482422,375.9326172,254.0800781z"/>
	<path d="M392.4775391,253.9570313c0-1.4560547-1.1757813-2.6494141-2.6494141-2.6494141
		c-1.4570313,0-2.6318359,1.1933594-2.6669922,2.6494141V258.625v0.0703125
		c-0.0175781,0.0703125-0.0351563,0.1396484-0.0878906,0.1923828c-0.0703125,0.1054688-0.1933594,0.1582031-0.3164063,0.1582031
		h-0.1044922c-0.1230469-0.0351563-0.2285156-0.1230469-0.28125-0.2285156
		c-0.0175781-0.0175781-0.0175781-0.0351563-0.0175781-0.0517578c0-0.0175781-0.0175781-0.0351563-0.0175781-0.0351563V258.625
		v-4.6679688v-0.1396484v-2.9311523c0-0.2280273,0.1757813-0.4208984,0.4208984-0.4208984
		c0.2285156,0,0.4042969,0.1928711,0.4042969,0.4208984v0.824707c0.6318359-0.7543945,1.5966797-1.2456055,2.6669922-1.2456055
		c1.9296875,0,3.4921875,1.5795898,3.4921875,3.4916992V258.625c0,0.2451172-0.1933594,0.4208984-0.421875,0.4208984
		c-0.2275391,0-0.4208984-0.1757813-0.4208984-0.4208984V253.9570313z"/>
	<path d="M400.0917969,250.8686523c0,0.2104492-0.2109375,0.4213867-0.421875,0.4213867h-1.1054688v6.2646484
		c0,0.4208984,0.421875,0.6318359,0.6318359,0.6318359c0.2109375,0,0.4394531,0.2275391,0.4394531,0.4384766
		c0,0.2099609-0.2285156,0.4208984-0.4394531,0.4208984c-0.859375,0-1.5087891-0.6318359-1.5087891-1.4912109v-6.2646484h-1.0703125
		c-0.4208984,0-0.4208984-0.2109375-0.4208984-0.4213867s0-0.4208984,0.4208984-0.4208984H397.6875v-3.1938477
		c0-0.2104492,0.2109375-0.4208984,0.4208984-0.4208984c0.2285156,0,0.4560547,0.2104492,0.4560547,0.4208984v3.1938477h1.1054688
		C399.8808594,250.4477539,400.0917969,250.6582031,400.0917969,250.8686523z"/>
	<path d="M403.5644531,260.3974609c0.6318359-0.3515625,0.8769531-0.7373047,0.8251953-1.3515625
		c-0.2636719-0.0703125-0.4746094-0.2636719-0.4746094-0.6142578v-0.3681641c0-0.3339844,0.2460938-0.5791016,0.5791016-0.5791016
		c0.3339844,0,0.5791016,0.2451172,0.5791016,0.5791016v0.4384766c0,0.9824219-0.1572266,1.5087891-0.4736328,1.8251953
		c-0.3154297,0.3154297-0.7539063,0.5615234-0.9121094,0.5615234c-0.1230469,0-0.2636719-0.0878906-0.2636719-0.2636719
		C403.4238281,260.5371094,403.4765625,260.4492188,403.5644531,260.3974609z"/>
	<path d="M302.0673828,278.3105469c0.140625-0.1757813,0.4033203-0.2099609,0.5966797-0.0527344
		c0.5966797,0.4394531,1.5439453,1,2.6318359,1c0.6669922,0,1.2460938-0.2099609,1.6318359-0.5263672
		c0.421875-0.2802734,0.6494141-0.6660156,0.6494141-1.0527344c-0.0175781-0.4033203-0.1748047-0.6835938-0.6142578-1.0527344
		c-0.3681641-0.2802734-0.9824219-0.4912109-1.8242188-0.6318359l-0.0351563-0.0175781
		c-0.7724609-0.1396484-1.4570313-0.3154297-1.9482422-0.6660156c-0.5439453-0.3164063-0.9296875-0.8779297-0.9296875-1.5449219
		c0-0.6835938,0.3857422-1.2802734,0.9296875-1.6845703c0.5087891-0.3505859,1.2285156-0.5791016,2.1054688-0.5791016
		c1.1064453,0,1.8955078,0.5087891,2.5625,0.9306641c0.1933594,0.1396484,0.2451172,0.4033203,0.1230469,0.5966797
		c-0.1230469,0.1923828-0.3867188,0.2451172-0.5791016,0.1220703c-0.6318359-0.4208984-1.2636719-0.859375-2.1064453-0.859375
		c-0.7011719,0-1.2626953,0.1933594-1.6318359,0.4912109c-0.3505859,0.28125-0.5439453,0.6318359-0.5439453,0.9824219
		c0,0.3515625,0.1582031,0.5966797,0.4912109,0.8603516c0.3867188,0.2626953,0.9658203,0.4736328,1.7548828,0.5966797h0.0351563
		c0.8251953,0.1220703,1.4921875,0.3681641,2.0888672,0.7011719c0.5615234,0.3691406,0.9648438,1.0361328,0.9648438,1.7548828
		c0,0.7197266-0.4033203,1.2988281-0.9824219,1.7373047c-0.5966797,0.4384766-1.2988281,0.6845703-2.1416016,0.6845703
		c-1.3857422-0.0175781-2.4736328-0.6669922-3.1757813-1.2285156
		C301.9443359,278.7138672,301.9267578,278.4863281,302.0673828,278.3105469z"/>
	<path d="M310.6816406,275.8193359c0-2.3867188,1.8603516-4.3173828,4.1767578-4.3173828
		c2.2109375,0,3.9658203,1.7548828,4.140625,4.0009766v0.0175781v0.0527344c0,0.2285156-0.1923828,0.3857422-0.4208984,0.3857422
		h-7.0537109c0.0878906,1.8779297,1.5615234,3.2988281,3.3339844,3.2988281c1.140625,0,2.1933594-0.5957031,2.7724609-1.5615234
		c0.1230469-0.2099609,0.3857422-0.2451172,0.5615234-0.1396484c0.1923828,0.1396484,0.2626953,0.3857422,0.140625,0.5957031
		c-0.7373047,1.1757813-2.0185547,1.9482422-3.4746094,1.9482422
		C312.5419922,280.1005859,310.6816406,278.1699219,310.6816406,275.8193359z M311.5771484,275.1347656h6.5097656
		c-0.2802734-1.6142578-1.6494141-2.7900391-3.2285156-2.7900391
		C313.2441406,272.3447266,311.8925781,273.5029297,311.5771484,275.1347656z"/>
	<path d="M324.2792969,271.9238281c0,0.2099609-0.2109375,0.4208984-0.421875,0.4208984h-1.1054688v6.2646484
		c0,0.4208984,0.421875,0.6318359,0.6318359,0.6318359c0.2109375,0,0.4394531,0.2275391,0.4394531,0.4384766
		c0,0.2099609-0.2285156,0.4208984-0.4394531,0.4208984c-0.859375,0-1.5087891-0.6318359-1.5087891-1.4912109v-6.2646484h-1.0703125
		c-0.4208984,0-0.4208984-0.2109375-0.4208984-0.4208984c0-0.2109375,0-0.421875,0.4208984-0.421875H321.875v-3.1933594
		c0-0.2109375,0.2109375-0.4208984,0.4208984-0.4208984c0.2285156,0,0.4560547,0.2099609,0.4560547,0.4208984v3.1933594h1.1054688
		C324.0683594,271.5019531,324.2792969,271.7128906,324.2792969,271.9238281z"/>
	<path d="M331.6650391,268.6767578h-3.7021484c-0.2285156,0-0.421875-0.1923828-0.421875-0.4384766
		c0-0.2275391,0.1933594-0.4208984,0.421875-0.4208984h8.2470703c0.2285156,0,0.4208984,0.1933594,0.4208984,0.4208984
		c0,0.2460938-0.1923828,0.4384766-0.4208984,0.4384766h-3.7021484v11.0029297c0,0.2275391-0.1933594,0.4208984-0.421875,0.4208984
		c-0.2275391,0-0.4208984-0.1933594-0.4208984-0.4208984V268.6767578z"/>
	<path d="M338.9814453,269.1162109c0-0.2285156,0.1933594-0.421875,0.4208984-0.421875
		c0.2460938,0,0.4394531,0.1933594,0.4394531,0.421875v0.4033203c0,0.2451172-0.1933594,0.4560547-0.4394531,0.4560547
		c-0.2275391,0-0.4208984-0.2109375-0.4208984-0.4560547V269.1162109z M338.9814453,271.9238281
		c0-0.2460938,0.1933594-0.421875,0.4208984-0.421875c0.2460938,0,0.4394531,0.1757813,0.4394531,0.421875v7.7558594
		c0,0.2275391-0.1933594,0.4208984-0.4394531,0.4208984c-0.2275391,0-0.4208984-0.1933594-0.4208984-0.4208984V271.9238281z"/>
	<path d="M356.1943359,275.0117188c-0.0351563-1.4560547-1.1933594-2.6669922-2.6669922-2.6669922
		c-1.4560547,0-2.6494141,1.2109375-2.6494141,2.6669922v4.6855469V279.75c0,0.0175781-0.0175781,0.0351563-0.0175781,0.0351563
		v0.0351563c-0.0351563,0.1044922-0.1230469,0.1748047-0.2109375,0.2275391
		c-0.0703125,0.0351563-0.140625,0.0527344-0.2109375,0.0527344h-0.0517578h-0.0351563
		c-0.0175781,0-0.0351563-0.0175781-0.0351563-0.0175781c-0.0351563,0-0.0703125-0.0351563-0.1054688-0.0527344
		c-0.0175781,0-0.0351563-0.0175781-0.0527344-0.0351563l-0.0527344-0.0527344
		c-0.0175781-0.0175781-0.0175781-0.0351563-0.0351563-0.0351563c0-0.0175781,0-0.0175781-0.0175781-0.0351563
		c0,0,0-0.0175781-0.0175781-0.0351563c0-0.0166016,0-0.0341797-0.0175781-0.0517578v-0.0527344v-0.0351563v-4.6855469
		c0-1.4560547-1.1757813-2.6669922-2.6494141-2.6669922s-2.6494141,1.2109375-2.6494141,2.6669922v4.6855469
		c0,0.1396484-0.0703125,0.2626953-0.1933594,0.3330078c-0.0175781,0.0175781-0.0703125,0.0527344-0.1054688,0.0527344
		c-0.0175781,0.0175781-0.0351563,0.0175781-0.0703125,0.0175781h-0.0527344h-0.0527344
		c-0.1572266-0.0175781-0.2978516-0.1582031-0.3505859-0.3154297v-0.0878906v-4.6855469v-0.140625v-2.9472656
		c0-0.2285156,0.1933594-0.4042969,0.4033203-0.4042969c0.2460938,0,0.421875,0.1757813,0.421875,0.4042969v0.8242188
		c0.6308594-0.7548828,1.5791016-1.2285156,2.6494141-1.2285156c1.3339844,0,2.4736328,0.7373047,3.0703125,1.8251953
		c0.6142578-1.0878906,1.7724609-1.8251953,3.0888672-1.8251953c1.9296875,0,3.4921875,1.5625,3.4921875,3.4921875v4.6855469
		c0,0.2099609-0.1757813,0.4033203-0.421875,0.4033203c-0.2275391,0-0.4033203-0.1933594-0.4033203-0.4033203V275.0117188z"/>
	<path d="M359.9648438,275.8193359c0-2.3867188,1.8603516-4.3173828,4.1767578-4.3173828
		c2.2109375,0,3.9658203,1.7548828,4.140625,4.0009766v0.0175781v0.0527344c0,0.2285156-0.1923828,0.3857422-0.4208984,0.3857422
		h-7.0537109c0.0878906,1.8779297,1.5615234,3.2988281,3.3339844,3.2988281c1.140625,0,2.1933594-0.5957031,2.7724609-1.5615234
		c0.1230469-0.2099609,0.3857422-0.2451172,0.5615234-0.1396484c0.1923828,0.1396484,0.2626953,0.3857422,0.140625,0.5957031
		c-0.7373047,1.1757813-2.0185547,1.9482422-3.4746094,1.9482422
		C361.8251953,280.1005859,359.9648438,278.1699219,359.9648438,275.8193359z M360.8603516,275.1347656h6.5097656
		c-0.2802734-1.6142578-1.6494141-2.7900391-3.2285156-2.7900391
		C362.5273438,272.3447266,361.1757813,273.5029297,360.8603516,275.1347656z"/>
	<path d="M374.9316406,271.5019531c2.2636719,0,4.0703125,1.9658203,4.0703125,4.2998047
		c0,2.3330078-1.8066406,4.2988281-4.0703125,4.2988281c-2.2460938,0-4.0712891-1.9658203-4.0712891-4.2988281
		C370.8603516,273.4677734,372.6855469,271.5019531,374.9316406,271.5019531z M374.9316406,279.2578125
		c1.7539063,0,3.2285156-1.5439453,3.2285156-3.4560547c0-1.9130859-1.4746094-3.4746094-3.2285156-3.4746094
		c-1.7548828,0-3.2294922,1.5615234-3.2294922,3.4746094C371.7021484,277.7138672,373.1767578,279.2578125,374.9316406,279.2578125z
		"/>
	<path d="M381.7734375,271.90625c0-0.2460938,0.1933594-0.421875,0.421875-0.421875
		c0.2275391,0,0.4208984,0.1757813,0.4208984,0.421875v4.6845703c0,1.4746094,1.1757813,2.6503906,2.6318359,2.6669922
		c1.4746094-0.0166016,2.6669922-1.1923828,2.6669922-2.6669922V271.90625c0-0.2460938,0.2109375-0.421875,0.421875-0.421875
		c0.2451172,0,0.4384766,0.1757813,0.4384766,0.421875v4.6845703c0,1.9306641-1.5615234,3.5097656-3.5273438,3.5097656
		c-1.9296875,0-3.4746094-1.5791016-3.4746094-3.5097656V271.90625z"/>
	<path d="M395.7050781,271.9238281c0,0.2099609-0.2109375,0.4208984-0.421875,0.4208984h-1.1054688v6.2646484
		c0,0.4208984,0.421875,0.6318359,0.6318359,0.6318359c0.2109375,0,0.4394531,0.2275391,0.4394531,0.4384766
		c0,0.2099609-0.2285156,0.4208984-0.4394531,0.4208984c-0.859375,0-1.5087891-0.6318359-1.5087891-1.4912109v-6.2646484h-1.0703125
		c-0.4208984,0-0.4208984-0.2109375-0.4208984-0.4208984c0-0.2109375,0-0.421875,0.4208984-0.421875h1.0703125v-3.1933594
		c0-0.2109375,0.2109375-0.4208984,0.4208984-0.4208984c0.2285156,0,0.4560547,0.2099609,0.4560547,0.4208984v3.1933594h1.1054688
		C395.4941406,271.5019531,395.7050781,271.7128906,395.7050781,271.9238281z"/>
	<path d="M399.1777344,281.4521484c0.6318359-0.3515625,0.8769531-0.7373047,0.8251953-1.3515625
		c-0.2636719-0.0703125-0.4746094-0.2636719-0.4746094-0.6142578v-0.3681641c0-0.3339844,0.2460938-0.5791016,0.5791016-0.5791016
		c0.3339844,0,0.5791016,0.2451172,0.5791016,0.5791016v0.4384766c0,0.9824219-0.1572266,1.5087891-0.4736328,1.8251953
		c-0.3154297,0.3154297-0.7539063,0.5615234-0.9121094,0.5615234c-0.1230469,0-0.2636719-0.0878906-0.2636719-0.2636719
		C399.0371094,281.5917969,399.0898438,281.5039063,399.1777344,281.4521484z"/>
	<path d="M409.7050781,278.3457031c0.4912109,0,0.8769531,0.3857422,0.8769531,0.8779297
		c0,0.4912109-0.3857422,0.8769531-0.8769531,0.8769531s-0.8779297-0.3857422-0.8779297-0.8769531
		C408.8271484,278.7314453,409.2138672,278.3457031,409.7050781,278.3457031z"/>
	<path d="M413.7402344,278.3457031c0.4912109,0,0.8769531,0.3857422,0.8769531,0.8779297
		c0,0.4912109-0.3857422,0.8769531-0.8769531,0.8769531s-0.8779297-0.3857422-0.8779297-0.8769531
		C412.8623047,278.7314453,413.2490234,278.3457031,413.7402344,278.3457031z"/>
	<path d="M417.7753906,278.3457031c0.4912109,0,0.8769531,0.3857422,0.8769531,0.8779297
		c0,0.4912109-0.3857422,0.8769531-0.8769531,0.8769531s-0.8779297-0.3857422-0.8779297-0.8769531
		C416.8974609,278.7314453,417.2841797,278.3457031,417.7753906,278.3457031z"/>
</g>
<circle fill="none" stroke="#000000" stroke-miterlimit="10" cx="246.4501953" cy="255.7578125" r="214.6025391"/>
<g>
	<rect x="208.7485352" y="179.3427734" fill="none" width="281.2475586" height="66.0942383"/>
	<path d="M326.1191406,193.6582031h-13.7822266v11.5615234c0,0.4980469-0.4208984,0.9189453-0.9570313,0.9189453
		c-0.4980469,0-0.9189453-0.4208984-0.9189453-0.9189453v-24.9614258c0-0.4975586,0.4208984-0.918457,0.9189453-0.918457
		c0.5361328,0,0.9570313,0.4208984,0.9570313,0.918457v11.5620117h13.7822266v-11.5620117
		c0-0.4975586,0.4208984-0.918457,0.9189453-0.918457c0.5361328,0,0.9570313,0.4208984,0.9570313,0.918457v24.9614258
		c0,0.4980469-0.4208984,0.9189453-0.9570313,0.9189453c-0.4980469,0-0.9189453-0.4208984-0.9189453-0.9189453V193.6582031z"/>
	<path d="M345.1816406,187.3793945c4.9394531,0,8.8818359,4.2875977,8.8818359,9.3793945s-3.9423828,9.3798828-8.8818359,9.3798828
		c-4.9003906,0-8.8818359-4.2880859-8.8818359-9.3798828S340.28125,187.3793945,345.1816406,187.3793945z M345.1816406,204.3007813
		c3.8291016,0,7.0449219-3.3686523,7.0449219-7.5419922c0-4.1728516-3.2158203-7.5800781-7.0449219-7.5800781
		c-3.828125,0-7.0439453,3.4072266-7.0439453,7.5800781C338.1376953,200.9321289,341.3535156,204.3007813,345.1816406,204.3007813z"
		/>
	<path d="M359.8037109,202.2338867c0.3066406-0.3833008,0.8808594-0.4594727,1.3017578-0.1152344
		c1.3017578,0.9575195,3.3691406,2.1821289,5.7421875,2.1821289c1.4550781,0,2.71875-0.4589844,3.5605469-1.1484375
		c0.9189453-0.6123047,1.4169922-1.4545898,1.4169922-2.296875c-0.0380859-0.8803711-0.3828125-1.4931641-1.3398438-2.296875
		c-0.8046875-0.612793-2.1445313-1.0722656-3.9814453-1.378418l-0.0771484-0.0380859
		c-1.6845703-0.3066406-3.1777344-0.6894531-4.2490234-1.4550781c-1.1875-0.6889648-2.0292969-1.9140625-2.0292969-3.3691406
		c0-1.4926758,0.8417969-2.7944336,2.0292969-3.675293c1.109375-0.765625,2.6796875-1.2631836,4.59375-1.2631836
		c2.4121094,0,4.1347656,1.1103516,5.5898438,2.0288086c0.4208984,0.3066406,0.5351563,0.8808594,0.2675781,1.3017578
		c-0.2675781,0.4213867-0.8417969,0.5361328-1.2636719,0.2680664c-1.3779297-0.9189453-2.7558594-1.8759766-4.59375-1.8759766
		c-1.53125,0-2.7568359,0.4213867-3.5605469,1.0722656c-0.765625,0.6123047-1.1865234,1.3779297-1.1865234,2.1435547
		s0.3447266,1.3017578,1.0712891,1.8759766c0.8427734,0.5742188,2.1064453,1.0336914,3.8291016,1.3017578h0.0761719
		c1.7998047,0.2680664,3.2539063,0.8041992,4.5556641,1.53125c1.2255859,0.8041992,2.1064453,2.2587891,2.1064453,3.8286133
		s-0.8808594,2.8330078-2.1445313,3.7900391c-1.3017578,0.9570313-2.8330078,1.4931641-4.6708984,1.4931641
		c-3.0244141-0.0380859-5.3974609-1.4545898-6.9287109-2.6796875
		C359.5361328,203.1142578,359.4970703,202.6166992,359.8037109,202.2338867z"/>
	<path d="M387.0595703,188.2983398c0,0.4594727-0.4599609,0.918457-0.9189453,0.918457h-2.4121094v13.6674805
		c0,0.9189453,0.9189453,1.378418,1.3779297,1.378418c0.4599609,0,0.9570313,0.4975586,0.9570313,0.9570313
		s-0.4970703,0.9189453-0.9570313,0.9189453c-1.8759766,0-3.2919922-1.378418-3.2919922-3.2543945v-13.6674805h-2.3359375
		c-0.9179688,0-0.9179688-0.4589844-0.9179688-0.918457s0-0.9189453,0.9179688-0.9189453h2.3359375v-6.9677734
		c0-0.4594727,0.4589844-0.9189453,0.9189453-0.9189453c0.4970703,0,0.9951172,0.4594727,0.9951172,0.9189453v6.9677734h2.4121094
		C386.5996094,187.3793945,387.0595703,187.8388672,387.0595703,188.2983398z"/>
</g>
</svg>
