<?xml version="1.0" encoding="utf-8"?>
<!-- Generator: Adobe Illustrator 18.1.0, SVG Export Plug-In . SVG Version: 6.00 Build 0)  -->
<svg version="1.1" xmlns="http://www.w3.org/2000/svg" xmlns:xlink="http://www.w3.org/1999/xlink" x="0px" y="0px"
	 viewBox="0 0 490.5 395.8" enable-background="new 0 0 490.5 395.8" xml:space="preserve">
<g id="line">
	
		<line fill="none" stroke="#000000" stroke-width="2" stroke-linejoin="round" stroke-miterlimit="10" x1="112.1" y1="90.5" x2="333.7" y2="316.8"/>
</g>
<g id="tags">
	<g>
		<polygon fill="#FFFFFF" stroke="#000000" stroke-width="2" stroke-linejoin="round" stroke-miterlimit="10" points="169.6,118.8 
			54.6,119.8 54.6,61.2 169.6,61.2 		"/>
		<g>
			<rect x="55.3" y="76.7" fill="none" width="113.7" height="35.8"/>
			<path d="M82.5,87c2.2-1.5,4-2.3,6-2.3c3.1,0,4.8,1.8,4.8,5.4v11.1h-2.6V90.2c0-2.2-1-3.4-3-3.4c-1.5,0-3.1,0.8-5.2,2.4v11.8h-2.6
				V76.7h2.6L82.5,87L82.5,87z"/>
			<path d="M104.7,101.5c-3.4,0-4.9-1.8-4.9-5.2v-9.4h-2.5v-1.9h2.5v-5.4l2.6-0.6v6h4.7v1.9h-4.7v9.3c0,2.1,0.8,3.2,2.7,3.2
				c1,0,1.9-0.3,2.6-0.5l0.4,2.1C107.3,101.3,106.1,101.5,104.7,101.5z"/>
			<path d="M114,87.1c2.3-1.7,4.1-2.5,6.1-2.5c2,0,3.5,0.7,4.2,2.7c2.6-2,4.5-2.6,6.3-2.6c2.8,0,4.6,1.4,4.6,5.4v11h-2.6V90.4
				c0-2.3-0.8-3.5-2.9-3.5c-1.4,0-3.1,0.8-5.1,2.4l0,0.7v11.1h-2.6V90.4c0-2.3-0.8-3.5-2.9-3.5c-1.5,0-3.3,0.9-5.1,2.4v11.8h-2.6
				V84.9h2.4V87.1L114,87.1z"/>
			<path d="M141.7,76.7h2.6v24.4h-2.6V76.7z"/>
		</g>
	</g>
	<g>
		<polygon fill="#FFFFFF" stroke="#000000" stroke-width="2" stroke-linejoin="round" stroke-miterlimit="10" points="249.1,194.1 
			134.1,195.1 134.1,136.5 249.1,136.5 		"/>
		<g>
			<rect x="134.7" y="152" fill="none" width="113.7" height="35.8"/>
			<path d="M165.4,159.8c4.6,0,7,2.8,7,8.2c0,5.8-2.7,8.9-7.8,8.9c-1.9,0-3.8-0.5-5.6-1.4V152h2.6v8.7
				C163,160,164,159.8,165.4,159.8z M164.6,174.7c3.3,0,5.1-2.3,5.1-6.6c0-4.1-1.7-6.2-4.8-6.2c-1.1,0-2.2,0.2-3.5,1V174
				C162.4,174.4,163.5,174.7,164.6,174.7z"/>
			<path d="M191,168c0,5.5-2.7,8.8-7.5,8.8c-4.6,0-7.3-3.1-7.3-8.4c0-5.4,2.8-8.6,7.6-8.6C188.4,159.8,191,162.8,191,168z
				 M188.4,168.1c0-4-1.7-6.3-4.7-6.3c-3.1,0-4.8,2.3-4.8,6.4s1.7,6.4,4.8,6.4S188.4,172.4,188.4,168.1z"/>
			<path d="M208.3,175.8c-1.9,0.6-3.9,1-5.7,1c-5,0-7.7-2.9-7.7-8.4c0-5.4,2.8-8.6,7.6-8.6c1.4,0,2.3,0.3,3.2,0.6V152h2.6V175.8z
				 M205.7,162.6c-1-0.5-2.1-0.8-3.1-0.8c-3.2,0-5,2.4-5,6.4c0,4.1,1.8,6.4,5.2,6.4c1,0,2-0.2,3-0.5L205.7,162.6L205.7,162.6z"/>
			<path d="M220.8,177.7c-1.6,4.3-4,6.2-8.7,6.3l-0.3-2.1c3.4-0.1,5.2-1.2,6.8-4.8l0.2-0.4l-6.8-16.6h2.9l5.2,13.4l4.7-13.4h2.6
				L220.8,177.7z"/>
		</g>
	</g>
	<g>
		<polygon fill="#FFFFFF" stroke="#000000" stroke-width="2" stroke-linejoin="round" stroke-miterlimit="10" points="323.8,269.3 
			208.8,270.3 208.8,211.8 323.8,211.8 		"/>
		<g>
			<rect x="209.5" y="227.3" fill="none" width="113.7" height="35.8"/>
			<path d="M260,251.1c-1.9,0.6-3.9,1-5.7,1c-5,0-7.7-2.9-7.7-8.4c0-5.4,2.8-8.6,7.6-8.6c1.4,0,2.3,0.3,3.2,0.6v-8.4h2.6V251.1z
				 M257.4,237.9c-1-0.5-2.1-0.8-3.1-0.8c-3.2,0-5,2.4-5,6.4c0,4.1,1.8,6.4,5.2,6.4c1,0,2-0.2,3-0.5L257.4,237.9L257.4,237.9z"/>
			<path d="M266.2,230.2c0-1,0.7-1.7,1.8-1.7c1,0,1.7,0.7,1.7,1.7c0,1-0.7,1.7-1.7,1.7C266.8,231.9,266.2,231.3,266.2,230.2z
				 M266.6,235.5h2.6v16.2h-2.6V235.5z"/>
			<path d="M281.5,251.6H279l-6.6-16.2h2.8l5,13.4l4.9-13.4h2.8L281.5,251.6z"/>
		</g>
	</g>
	<g>
		<polygon fill="#FFFFFF" stroke="#000000" stroke-width="2" stroke-linejoin="round" stroke-miterlimit="10" points="428,344.6 
			280.4,345.6 280.4,287 428,287 		"/>
		<g>
			<rect x="281.1" y="302.5" fill="none" width="146.3" height="36.4"/>
			<path d="M313.9,310.3c4.6,0,7,2.8,7,8.2c0,5.8-2.7,8.9-7.8,8.9c-1.9,0-3.8-0.5-5.6-1.4v-23.4h2.6v8.7
				C311.4,310.6,312.5,310.3,313.9,310.3z M313.1,325.2c3.3,0,5.1-2.3,5.1-6.6c0-4.1-1.7-6.2-4.8-6.2c-1.1,0-2.2,0.2-3.5,1v11.1
				C310.9,325,311.9,325.2,313.1,325.2z"/>
			<path d="M330.7,327.2c-3.1,0-4.8-1.8-4.8-5.4v-11.1h2.6v10.9c0,2.2,1,3.4,3,3.4c1.5,0,3.1-0.8,5.2-2.4v-11.8h2.6v16.2h-2.5v-2.1
				C334.6,326.4,332.7,327.2,330.7,327.2z"/>
			<path d="M350.9,327.3c-3.4,0-4.9-1.8-4.9-5.2v-9.4h-2.5v-1.9h2.5v-5.4l2.6-0.6v6h4.7v1.9h-4.7v9.3c0,2.1,0.8,3.2,2.7,3.2
				c1,0,1.9-0.3,2.6-0.5l0.4,2.1C353.4,327,352.2,327.3,350.9,327.3z"/>
			<path d="M362.7,327.3c-3.4,0-4.9-1.8-4.9-5.2v-9.4h-2.5v-1.9h2.5v-5.4l2.6-0.6v6h4.7v1.9h-4.7v9.3c0,2.1,0.8,3.2,2.7,3.2
				c1,0,1.9-0.3,2.6-0.5l0.4,2.1C365.3,327,364,327.3,362.7,327.3z"/>
			<path d="M382.5,318.5c0,5.5-2.7,8.8-7.5,8.8c-4.6,0-7.3-3.1-7.3-8.4c0-5.4,2.8-8.6,7.6-8.6C379.9,310.3,382.5,313.3,382.5,318.5z
				 M379.9,318.7c0-4-1.7-6.3-4.7-6.3c-3.1,0-4.8,2.3-4.8,6.4s1.7,6.4,4.8,6.4S379.9,322.9,379.9,318.7z"/>
			<path d="M390.2,312.8c2.2-1.6,4-2.4,6.1-2.4c3.1,0,4.8,1.8,4.8,5.4v11.1h-2.6V316c0-2.2-1-3.4-3-3.4c-1.5,0-3.1,0.8-5.2,2.4v11.8
				h-2.6v-16.2h2.5L390.2,312.8L390.2,312.8z"/>
		</g>
	</g>
</g>
<g id="capture" display="none">
	<g display="inline">
		<g>
			<path fill="none" stroke="#F0004D" stroke-width="4" stroke-linecap="round" stroke-linejoin="round" d="M136.7,54.7
				c55-35.2,102.7,12,88.3,64.6"/>
			<g>
				<polygon fill="#F0004D" points="217.7,114.3 220.9,130.7 233.6,119.7 				"/>
			</g>
		</g>
	</g>
	<g display="inline">
		<g>
			<path fill="none" stroke="#F0004D" stroke-width="4" stroke-linecap="round" stroke-linejoin="round" d="M228.7,129.7
				c55-35.2,102.7,12,88.3,64.6"/>
			<g>
				<polygon fill="#F0004D" points="309.7,189.3 312.9,205.7 325.6,194.7 				"/>
			</g>
		</g>
	</g>
	<g display="inline">
		<g>
			<path fill="none" stroke="#F0004D" stroke-width="4" stroke-linecap="round" stroke-linejoin="round" d="M321.7,204.7
				c55-35.2,102.7,12,88.3,64.6"/>
			<g>
				<polygon fill="#F0004D" points="402.7,264.3 405.9,280.7 418.6,269.7 				"/>
			</g>
		</g>
	</g>
	<g display="inline">
		<rect x="273.1" y="54.2" fill="none" width="192.6" height="43.2"/>
		<path fill="#F0004D" d="M325.5,77.9c-1.3,0.6-3,1-5,1c-5.4,0-8.3-3-8.3-8.5c0-5.4,3.2-8.6,8.6-8.6c1.6,0,3.1,0.3,4.7,1l-1.2,3.9
			c-1.2-0.6-2.3-1-3.5-1c-2,0-3.3,1.4-3.3,4.2c0,3.1,1.2,4.9,3.7,4.9c1.1,0,2.3-0.4,3.3-0.9L325.5,77.9z"/>
		<path fill="#F0004D" d="M336.9,78.6c-0.1-0.4-0.3-1.1-0.3-1.5c-1.4,1-2.7,1.9-4.6,1.9c-2.7,0-5-1.7-5-4.9c0-3.9,4.1-5.3,8.9-5.5
			v-1c0-1.2-0.6-2.1-1.8-2.1s-3,0.3-5.2,1.3l-1-3.7c2.2-0.8,4.3-1.4,6.7-1.4c5.3,0,6.4,3.1,6.4,6.1v5.2c0,2,0.2,4.1,0.4,5.5H336.9z
			 M335.9,71.5c-2.4,0.1-3.9,0.6-3.9,2.2c0,1,0.4,1.6,1.4,1.6c0.9,0,1.5-0.5,2.5-1.3V71.5z"/>
		<path fill="#F0004D" d="M345.6,62.6c2-0.3,4.5-0.8,7.3-0.8c6.4,0,8.6,4.4,8.6,8.6c0,2.9-1.7,8.7-8.7,8.7c-0.7,0-1.4-0.1-2.1-0.3
			v7.8h-5.1V62.6z M350.6,74.5c0.6,0.3,1.4,0.4,2.1,0.4c2.4,0,3.3-1.9,3.3-4.3c0-2.2-0.9-4.7-3.8-4.7c-0.5,0-1.1,0.1-1.7,0.2V74.5z"
			/>
		<path fill="#F0004D" d="M375.3,78.5c-1,0.3-2.2,0.5-3.6,0.5c-4.2,0-6.3-1.9-6.3-6.3v-6.9H363v-3.7h2.4v-5l5.1-1.2v6.2h4.1v3.7
			h-4.1v6.7c0,1.5,0.6,2.2,2.1,2.2c0.8,0,1.4-0.2,2-0.3L375.3,78.5z"/>
		<path fill="#F0004D" d="M382.9,62.2v10.3c0,1.4,0.6,2.2,1.7,2.2c1.2,0,2.4-0.8,3.7-2.1V62.2h5.1v16.4h-4.5l-0.1-1.7
			c-2.2,1.4-3.2,2.2-5.8,2.2c-3.1,0-5.2-1.7-5.2-5.9V62.2H382.9z"/>
		<path fill="#F0004D" d="M410,67.2c-0.6-0.4-1.2-0.6-2-0.6c-1.5,0-3,1.1-4.4,3.6v8.4h-5V62.2h5v2.5c1.3-1.7,2.4-3,4.6-3
			c0.9,0,1.9,0.1,3,1L410,67.2z"/>
		<path fill="#F0004D" d="M416.5,71.7c0.4,2.3,1.6,3.5,3.8,3.5c1.6,0,3-0.4,4.8-1.2l1.2,3.6c-2,0.9-4.1,1.4-6.5,1.4
			c-6.3,0-7.9-4.7-7.9-8.5c0-4.6,2.2-8.7,7.9-8.7c4.7,0,6.7,3.7,6.7,7.2c0,0.9,0,1.7-0.2,2.7H416.5z M416.6,68.6h5.6
			c0-1.8-0.9-3.2-2.6-3.2C417.8,65.4,416.9,66.6,416.6,68.6z"/>
	</g>
</g>
<g id="bubble">
	<g>
		<g>
			<path fill="none" stroke="#189DC6" stroke-width="4" stroke-linecap="round" stroke-linejoin="round" d="M147.3,48.9
				c54.2-25,97.4,28.4,73.6,81.8"/>
			<g>
				<polygon fill="#189DC6" points="153.5,55.3 136.7,54.7 145.6,40.5 				"/>
			</g>
		</g>
	</g>
	<g>
		<g>
			<path fill="none" stroke="#189DC6" stroke-width="4" stroke-linecap="round" stroke-linejoin="round" d="M239.3,123.9
				c54.2-25,97.4,28.4,73.6,81.8"/>
			<g>
				<polygon fill="#189DC6" points="245.5,130.3 228.7,129.7 237.6,115.5 				"/>
			</g>
		</g>
	</g>
	<g>
		<g>
			<path fill="none" stroke="#189DC6" stroke-width="4" stroke-linecap="round" stroke-linejoin="round" d="M332.3,198.9
				c54.2-25,97.4,28.4,73.6,81.8"/>
			<g>
				<polygon fill="#189DC6" points="338.5,205.3 321.7,204.7 330.6,190.5 				"/>
			</g>
		</g>
	</g>
	<g>
		<rect x="278.1" y="54.2" fill="none" width="192.6" height="43.2"/>
		<path fill="#189DC6" d="M330.4,79.1c-2.7,0-5.3-0.9-7.5-2.1V54.2h5.1v8.4c1.1-0.5,2-0.8,3.8-0.8c4.5,0,7.2,3.6,7.2,8.4
			C339,74.9,336,79.1,330.4,79.1z M330.5,65.9c-0.6,0-1.7,0.2-2.4,0.7v7.8c0.7,0.3,1.5,0.4,2.2,0.4c2.6,0,3.5-2.5,3.5-4.4
			C333.7,68.3,333,65.9,330.5,65.9z"/>
		<path fill="#189DC6" d="M347.9,62.2v10.3c0,1.4,0.6,2.2,1.7,2.2c1.2,0,2.4-0.8,3.7-2.1V62.2h5.1v16.4h-4.5l-0.1-1.7
			c-2.2,1.4-3.2,2.2-5.8,2.2c-3.1,0-5.2-1.7-5.2-5.9V62.2H347.9z"/>
		<path fill="#189DC6" d="M370.9,79.1c-2.7,0-5.3-0.9-7.5-2.1V54.2h5.1v8.4c1.1-0.5,2-0.8,3.8-0.8c4.5,0,7.2,3.6,7.2,8.4
			C379.5,74.9,376.5,79.1,370.9,79.1z M371,65.9c-0.6,0-1.7,0.2-2.4,0.7v7.8c0.7,0.3,1.5,0.4,2.2,0.4c2.6,0,3.5-2.5,3.5-4.4
			C374.3,68.3,373.5,65.9,371,65.9z"/>
		<path fill="#189DC6" d="M390.9,79.1c-2.7,0-5.3-0.9-7.5-2.1V54.2h5.1v8.4c1.1-0.5,2-0.8,3.8-0.8c4.5,0,7.2,3.6,7.2,8.4
			C399.5,74.9,396.5,79.1,390.9,79.1z M390.9,65.9c-0.6,0-1.7,0.2-2.4,0.7v7.8c0.7,0.3,1.5,0.4,2.2,0.4c2.6,0,3.5-2.5,3.5-4.4
			C394.2,68.3,393.4,65.9,390.9,65.9z"/>
		<path fill="#189DC6" d="M403.4,78.6V54.2h5.1v24.4H403.4z"/>
		<path fill="#189DC6" d="M417,71.7c0.4,2.3,1.6,3.5,3.8,3.5c1.6,0,3-0.4,4.8-1.2l1.2,3.6c-2,0.9-4.1,1.4-6.5,1.4
			c-6.3,0-7.9-4.7-7.9-8.5c0-4.6,2.2-8.7,7.9-8.7c4.7,0,6.7,3.7,6.7,7.2c0,0.9,0,1.7-0.2,2.7H417z M417,68.6h5.6
			c0-1.8-0.9-3.2-2.6-3.2C418.3,65.4,417.3,66.6,417,68.6z"/>
	</g>
	<g>
	</g>
	<g>
	</g>
	<g>
	</g>
	<g>
	</g>
	<g>
	</g>
	<g>
	</g>
	<g>
	</g>
	<g>
	</g>
	<g>
	</g>
	<g>
	</g>
	<g>
	</g>
	<g>
	</g>
	<g>
	</g>
	<g>
	</g>
	<g>
	</g>
	<g>
	</g>
</g>
</svg>
