<?xml version="1.0" encoding="UTF-8" standalone="no"?>
<svg
   xmlns:dc="http://purl.org/dc/elements/1.1/"
   xmlns:cc="http://creativecommons.org/ns#"
   xmlns:rdf="http://www.w3.org/1999/02/22-rdf-syntax-ns#"
   xmlns:svg="http://www.w3.org/2000/svg"
   xmlns="http://www.w3.org/2000/svg"
   viewBox="0 0 677.33331 365.33334"
   height="365.33334"
   width="677.33331"
   xml:space="preserve"
   id="svg2"
   version="1.1"><metadata
     id="metadata8"><rdf:RDF><cc:Work
         rdf:about=""><dc:format>image/svg+xml</dc:format><dc:type
           rdf:resource="http://purl.org/dc/dcmitype/StillImage" /></cc:Work></rdf:RDF></metadata><defs
     id="defs6"><clipPath
       id="clipPath20"
       clipPathUnits="userSpaceOnUse"><path
         id="path18"
         d="M 0.06,273.35 H 507.999 V 0 H 0.06 Z" /></clipPath><clipPath
       id="clipPath26"
       clipPathUnits="userSpaceOnUse"><path
         id="path24"
         d="M 0,0 H 508 V 274 H 0 Z" /></clipPath><clipPath
       id="clipPath36"
       clipPathUnits="userSpaceOnUse"><path
         id="path34"
         d="M 0,0 H 508 V 274 H 0 Z" /></clipPath><clipPath
       id="clipPath56"
       clipPathUnits="userSpaceOnUse"><path
         id="path54"
         d="M 0.06,273.35 H 507.999 V 0 H 0.06 Z" /></clipPath><clipPath
       id="clipPath62"
       clipPathUnits="userSpaceOnUse"><path
         id="path60"
         d="M 0,0 H 508 V 274 H 0 Z" /></clipPath><clipPath
       id="clipPath82"
       clipPathUnits="userSpaceOnUse"><path
         id="path80"
         d="M 0,0 H 508 V 274 H 0 Z" /></clipPath></defs><g
     transform="matrix(1.3333333,0,0,-1.3333333,0,365.33333)"
     id="g10"><g
       id="g12" /><g
       id="g14"><g
         clip-path="url(#clipPath20)"
         id="g16"><g
           clip-path="url(#clipPath26)"
           id="g22"><path
             id="path28"
             style="fill:#231f20;fill-opacity:1;fill-rule:nonzero;stroke:none"
             d="M 13.482,87.887 9.301,74.022 H 17.62 Z M 7.807,69.074 6.058,63.185 H 0 l 10.196,30.121 h 6.401 l 10.28,-30.121 h -6.015 l -1.749,5.889 H 7.807" /></g></g></g><g
       id="g30"><g
         clip-path="url(#clipPath36)"
         id="g32"><path
           id="path38"
           style="fill:#231f20;fill-opacity:1;fill-rule:nonzero;stroke:none"
           d="m 49.359,63.185 h -5.118 l -0.043,2.175 c -1.067,-0.98 -3.158,-2.686 -6.87,-2.686 -3.539,0 -5.288,1.536 -6.142,2.816 -1.367,2.005 -1.238,4.435 -1.238,6.739 V 84.516 H 35.11 V 72.998 c -0.043,-1.749 -0.084,-3.842 1.706,-4.864 0.685,-0.427 1.665,-0.639 2.476,-0.639 2.474,0 3.71,1.619 4.138,2.388 0.852,1.623 0.768,3.925 0.811,5.589 v 9.044 h 5.118 V 63.185" /><path
           id="path40"
           style="fill:#231f20;fill-opacity:1;fill-rule:nonzero;stroke:none"
           d="m 69.069,76.921 c -0.342,1.154 -1.493,3.671 -4.95,3.671 -0.723,0 -2.43,-0.129 -3.796,-1.623 -1.494,-1.619 -1.449,-3.584 -1.449,-4.265 0,-0.682 0,-2.517 1.362,-4.054 0.215,-0.212 0.685,-0.681 1.367,-1.025 0.427,-0.211 1.279,-0.551 2.56,-0.551 2.048,0 3.199,0.809 3.797,1.449 1.45,1.452 1.45,3.329 1.45,4.01 0,1.195 -0.171,1.919 -0.341,2.388 z m 5.29,-9.937 c -0.043,-2.474 0.257,-5.505 -1.366,-7.682 -1.321,-1.791 -4.095,-3.243 -8.916,-3.243 -4.779,0 -7.124,1.325 -8.446,3.201 -0.512,0.768 -0.897,1.666 -1.324,3.497 l 5.631,-0.043 c 0.128,-0.426 0.215,-0.681 0.513,-1.065 1.11,-1.621 3.456,-1.579 3.839,-1.579 2.56,0 3.882,0.981 4.437,2.005 0.598,1.11 0.554,2.218 0.554,4.609 -2.388,-2.132 -5.374,-2.261 -6.441,-2.261 -1.279,0 -2.687,0.212 -3.882,0.767 -2.261,0.981 -5.332,3.542 -5.332,9.386 0,0.684 0,2.689 0.726,4.565 1.449,3.711 4.904,6.016 8.915,6.016 0.724,0 2.773,-0.085 4.522,-1.367 0.768,-0.554 1.321,-1.28 1.492,-1.534 v 2.26 h 5.078 V 66.984" /><path
           id="path42"
           style="fill:#231f20;fill-opacity:1;fill-rule:nonzero;stroke:none"
           d="m 93.642,77.819 c -0.427,0.895 -0.98,1.406 -1.323,1.706 -1.322,1.15 -2.73,1.536 -4.478,1.536 -0.215,0 -1.664,0 -2.603,-0.641 C 84.47,79.911 84.3,79.225 84.3,78.844 c 0.041,-0.728 0.552,-1.238 0.681,-1.325 0.555,-0.426 1.963,-0.768 3.67,-1.067 1.151,-0.212 2.304,-0.382 3.455,-0.639 1.151,-0.255 2.433,-0.641 3.371,-1.322 0.769,-0.556 2.347,-2.048 2.347,-4.651 0,-1.026 -0.257,-2.003 -0.726,-2.901 -1.023,-1.961 -3.668,-4.394 -8.874,-4.394 -4.011,0 -6.869,1.366 -8.19,2.177 -0.726,0.468 -1.408,1.025 -2.05,1.663 l 3.841,3.115 c 0.17,-0.214 0.427,-0.598 0.98,-1.067 1.835,-1.579 4.567,-1.664 5.161,-1.664 1.282,0 2.774,0.297 3.629,1.28 0.341,0.342 0.553,0.812 0.553,1.237 0,0.17 -0.042,0.514 -0.341,0.896 -0.553,0.767 -1.237,0.81 -2.815,1.152 -1.407,0.297 -2.815,0.469 -4.182,0.81 -0.937,0.254 -5.843,1.45 -5.887,6.059 0.044,1.621 0.684,2.815 0.982,3.285 1.068,1.663 3.585,3.669 8.19,3.669 1.665,0 5.975,-0.255 9.172,-3.969 l -3.625,-3.369" /><path
           id="path44"
           style="fill:#231f20;fill-opacity:1;fill-rule:nonzero;stroke:none"
           d="m 116.211,78.33 c -0.939,1.364 -2.519,2.175 -4.182,2.175 -1.323,0 -2.432,-0.469 -3.328,-1.407 -1.708,-1.748 -1.662,-4.182 -1.662,-4.864 0,-2.09 0.381,-4.434 2.175,-5.801 0.424,-0.299 1.492,-1.025 3.028,-1.025 0.81,0 2.645,0.257 3.883,2.135 1.067,1.706 1.194,4.051 1.236,4.521 0,0.555 0,2.645 -1.15,4.266 z m -9.089,4.395 c 0.215,0.212 0.469,0.426 0.684,0.596 2.132,1.623 4.478,1.836 5.417,1.836 1.282,0 3.881,-0.342 6.186,-2.689 1.279,-1.324 3.201,-4.011 3.201,-8.49 0,-4.009 -1.623,-8.149 -5.249,-10.197 -1.877,-1.067 -3.625,-1.236 -4.435,-1.236 -1.111,0 -2.902,0.212 -4.908,1.92 -0.34,0.3 -0.639,0.596 -0.938,0.938 v -2.218 h -5.078 v 30.121 h 5.078 l 0.042,-10.581" /><path
           id="path46"
           style="fill:#231f20;fill-opacity:1;fill-rule:nonzero;stroke:none"
           d="m 146.201,63.185 h -5.12 l -0.042,2.175 c -1.067,-0.98 -3.156,-2.686 -6.868,-2.686 -3.543,0 -5.291,1.536 -6.145,2.816 -1.363,2.005 -1.237,4.435 -1.237,6.739 v 12.287 h 5.162 V 72.998 c -0.043,-1.749 -0.084,-3.842 1.706,-4.864 0.683,-0.427 1.664,-0.639 2.474,-0.639 2.475,0 3.712,1.619 4.14,2.388 0.852,1.623 0.768,3.925 0.81,5.589 v 9.044 h 5.12 V 63.185" /><path
           id="path48"
           style="fill:#231f20;fill-opacity:1;fill-rule:nonzero;stroke:none"
           d="m 156.695,81.488 c 0.341,0.64 0.768,1.279 1.279,1.748 1.706,1.666 4.48,1.748 5.078,1.748 h 0.427 v -5.247 c -1.067,0 -5.162,0 -6.399,-3.924 -0.385,-1.194 -0.385,-2.259 -0.385,-3.497 v -9.131 h -4.95 v 21.331 h 4.95 v -3.028" /></g></g><g
       id="g50"><g
         clip-path="url(#clipPath56)"
         id="g52"><g
           clip-path="url(#clipPath62)"
           id="g58"><path
             id="path64"
             style="fill:#231f20;fill-opacity:1;fill-rule:nonzero;stroke:none"
             d="m 181.012,76.921 c -0.341,1.154 -1.492,3.671 -4.949,3.671 -0.724,0 -2.431,-0.129 -3.797,-1.623 -1.494,-1.619 -1.45,-3.584 -1.45,-4.265 0,-0.682 0,-2.517 1.364,-4.054 0.215,-0.212 0.684,-0.681 1.365,-1.025 0.427,-0.211 1.28,-0.551 2.561,-0.551 2.048,0 3.2,0.809 3.797,1.449 1.449,1.452 1.449,3.329 1.449,4.01 0,1.195 -0.171,1.919 -0.34,2.388 z m 5.29,-9.937 c -0.042,-2.474 0.257,-5.505 -1.366,-7.682 -1.321,-1.791 -4.095,-3.243 -8.915,-3.243 -4.78,0 -7.126,1.325 -8.447,3.201 -0.511,0.768 -0.897,1.666 -1.324,3.497 l 5.631,-0.043 c 0.128,-0.426 0.215,-0.681 0.514,-1.065 1.108,-1.621 3.455,-1.579 3.838,-1.579 2.56,0 3.882,0.981 4.438,2.005 0.597,1.11 0.553,2.218 0.553,4.609 -2.388,-2.132 -5.374,-2.261 -6.441,-2.261 -1.28,0 -2.687,0.212 -3.882,0.767 -2.261,0.981 -5.333,3.542 -5.333,9.386 0,0.684 0,2.689 0.726,4.565 1.45,3.711 4.905,6.016 8.916,6.016 0.724,0 2.773,-0.085 4.522,-1.367 0.768,-0.554 1.322,-1.28 1.492,-1.534 v 2.26 h 5.078 V 66.984" /><path
             id="path66"
             style="fill:#f68b1b;fill-opacity:1;fill-rule:nonzero;stroke:none"
             d="m 214.873,273.183 c -1.659,-0.507 -2.729,-2.031 -2.729,-3.682 0,-0.369 0.054,-0.747 0.167,-1.119 0,0 15.464,-50.81 18.039,-59.264 -7.093,0 -24.744,0.005 -24.744,0.005 -2.125,0 -3.846,-1.722 -3.846,-3.846 0,-2.126 1.719,-3.847 3.843,-3.847 l 29.937,-0.005 c 1.22,0 2.365,0.574 3.094,1.552 0.724,0.988 0.941,2.244 0.584,3.414 l -19.546,64.231 c -0.619,2.033 -2.769,3.177 -4.799,2.561" /><path
             id="path68"
             style="fill:#f68b1b;fill-opacity:1;fill-rule:nonzero;stroke:none"
             d="m 186.298,250.14 c 0,-2.779 2.262,-5.041 5.039,-5.041 2.783,0 5.047,2.262 5.047,5.041 0,2.781 -2.264,5.044 -5.047,5.044 -2.777,0 -5.039,-2.263 -5.039,-5.044" /><path
             id="path70"
             style="fill:#f68b1b;fill-opacity:1;fill-rule:nonzero;stroke:none"
             d="m 285.154,273.183 c 1.654,-0.507 2.721,-2.031 2.721,-3.682 0,-0.369 -0.048,-0.747 -0.166,-1.119 0,0 -15.46,-50.81 -18.037,-59.264 7.097,0 24.748,0.005 24.748,0.005 2.124,0 3.845,-1.722 3.845,-3.846 0,-2.126 -1.721,-3.847 -3.845,-3.847 l -29.934,-0.005 c -1.221,0 -2.369,0.574 -3.095,1.552 -0.724,0.988 -0.946,2.244 -0.592,3.414 l 19.552,64.231 c 0.619,2.033 2.766,3.177 4.803,2.561" /><path
             id="path72"
             style="fill:#f68b1b;fill-opacity:1;fill-rule:nonzero;stroke:none"
             d="m 245.176,250.14 c 0,-2.779 2.261,-5.041 5.04,-5.041 2.78,0 5.045,2.262 5.045,5.041 0,2.781 -2.265,5.044 -5.045,5.044 -2.779,0 -5.04,-2.263 -5.04,-5.044" /><path
             id="path74"
             style="fill:#f68b1b;fill-opacity:1;fill-rule:nonzero;stroke:none"
             d="m 344.028,273.183 c 1.661,-0.507 2.727,-2.031 2.727,-3.682 0,-0.369 -0.056,-0.747 -0.17,-1.119 0,0 -15.462,-50.81 -18.035,-59.264 7.093,0 24.741,0.005 24.741,0.005 2.128,0 3.851,-1.722 3.851,-3.846 0,-2.126 -1.722,-3.847 -3.846,-3.847 l -29.936,-0.005 c -1.219,0 -2.367,0.574 -3.089,1.552 -0.73,0.988 -0.946,2.244 -0.59,3.414 l 19.547,64.231 c 0.621,2.033 2.769,3.177 4.8,2.561" /></g></g></g><g
       id="g76"><g
         clip-path="url(#clipPath82)"
         id="g78"><path
           id="path84"
           style="fill:#f68b1b;fill-opacity:1;fill-rule:nonzero;stroke:none"
           d="m 304.05,250.14 c 0,-2.779 2.264,-5.041 5.044,-5.041 2.783,0 5.039,2.262 5.039,5.041 0,2.781 -2.256,5.044 -5.039,5.044 -2.78,0 -5.044,-2.263 -5.044,-5.044" /><path
           id="path86"
           style="fill:#f68b1b;fill-opacity:1;fill-rule:nonzero;stroke:none"
           d="m 362.926,250.14 c 0,-2.779 2.266,-5.041 5.05,-5.041 2.774,0 5.041,2.262 5.041,5.041 0,2.781 -2.267,5.044 -5.041,5.044 -2.784,0 -5.05,-2.263 -5.05,-5.044" /><path
           id="path88"
           style="fill:#f68b1b;fill-opacity:1;fill-rule:nonzero;stroke:none"
           d="m 291.982,186.004 c 0.051,-6.338 -4.868,-7.85 -6.855,-7.839 -1.944,0.014 -6.831,1.46 -6.864,7.839 3.63,0 10.084,0 13.719,0 z m -16.855,6.052 c -1.591,0 -2.926,-1.216 -3.066,-2.802 -0.437,-4.89 1.055,-9.593 4.096,-12.92 2.471,-2.706 5.659,-4.193 8.97,-4.193 3.309,0 6.495,1.476 8.954,4.154 3.036,3.301 4.53,8.017 4.118,12.946 -0.138,1.59 -1.473,2.815 -3.067,2.815 h -20.005" /><path
           id="path90"
           style="fill:#f68b1b;fill-opacity:1;fill-rule:nonzero;stroke:none"
           d="m 205.324,192.185 c -1.964,0 -3.564,-1.599 -3.564,-3.568 0,-1.969 1.6,-3.567 3.564,-3.567 h 15.929 c 1.973,0 3.566,1.598 3.566,3.567 0,1.969 -1.593,3.568 -3.566,3.568 h -15.929" /><path
           id="path92"
           style="fill:#f68b1b;fill-opacity:1;fill-rule:nonzero;stroke:none"
           d="m 205.324,181.402 c -1.964,0 -3.564,-1.594 -3.564,-3.565 0,-1.971 1.6,-3.568 3.564,-3.568 h 15.929 c 1.973,0 3.566,1.597 3.566,3.568 0,1.971 -1.593,3.565 -3.566,3.565 h -15.929" /><path
           id="path94"
           style="fill:#f68b1b;fill-opacity:1;fill-rule:nonzero;stroke:none"
           d="m 352.14,186.656 c -0.029,-0.013 -2.939,-1.269 -6.609,-1.266 h -1.809 c -3.786,0 -6.718,1.258 -6.746,1.271 -1.8,0.78 -3.898,-0.032 -4.693,-1.83 -0.788,-1.791 0.011,-3.884 1.8,-4.685 0.431,-0.191 4.369,-1.884 9.639,-1.884 h 1.809 c 5.164,-0.006 9.09,1.694 9.518,1.89 1.787,0.806 2.582,2.897 1.784,4.687 -0.795,1.795 -2.898,2.605 -4.693,1.817" /><path
           id="path96"
           style="fill:#231f20;fill-opacity:1;fill-rule:nonzero;stroke:none"
           d="m 225.583,79.537 c -0.042,-2.092 0,-4.138 -0.086,-6.23 -0.085,-2.774 -0.469,-5.375 -2.347,-7.592 -1.365,-1.579 -3.925,-3.37 -8.745,-3.37 -1.11,0 -4.779,0.043 -7.723,2.347 -0.425,0.339 -1.407,1.193 -2.175,2.474 -1.578,2.771 -1.449,5.844 -1.449,12.115 v 13.95 h 2.814 V 73.693 c 0.045,-1.623 0.128,-3.414 0.896,-4.948 0.769,-1.579 2.048,-2.305 2.603,-2.603 1.578,-0.854 3.243,-1.153 4.991,-1.153 0.769,0 4.522,0 6.656,2.519 1.706,2.048 1.706,4.734 1.706,7.166 v 18.557 h 2.859 V 79.537" /><path
           id="path98"
           style="fill:#231f20;fill-opacity:1;fill-rule:nonzero;stroke:none"
           d="m 245.718,63.111 v 10.582 c 0,2.729 0.043,4.35 -0.468,5.545 -0.384,1.068 -1.153,1.494 -1.537,1.749 -1.152,0.64 -2.303,0.64 -2.773,0.64 -0.469,0 -1.579,0 -2.689,-0.553 -1.492,-0.683 -2.686,-2.347 -3.07,-3.884 -0.215,-0.98 -0.215,-2.731 -0.257,-5.161 v -8.918 h -2.516 v 20.35 h 2.516 v -3.624 c 0.172,0.511 0.469,1.322 1.451,2.26 0.81,0.766 2.26,1.793 4.95,1.793 3.795,0 5.501,-2.093 6.184,-3.499 0.726,-1.622 0.684,-3.243 0.726,-6.698 V 63.111 h -2.517" /><path
           id="path100"
           style="fill:#231f20;fill-opacity:1;fill-rule:nonzero;stroke:none"
           d="m 254.847,83.461 h 2.475 v -20.35 h -2.475 z m 0,8.662 h 2.475 V 88.24 h -2.475 z" /><path
           id="path102"
           style="fill:#231f20;fill-opacity:1;fill-rule:nonzero;stroke:none"
           d="m 268.2,63.111 -7.04,20.35 h 2.518 l 5.63,-16.551 6.274,16.551 h 2.472 l -7.806,-20.35 H 268.2" /><path
           id="path104"
           style="fill:#231f20;fill-opacity:1;fill-rule:nonzero;stroke:none"
           d="m 296.271,75.399 c -0.599,5.246 -4.096,6.313 -6.313,6.313 -3.541,0 -5.206,-2.431 -5.76,-3.541 -0.384,-0.851 -0.64,-1.919 -0.769,-2.816 z m 2.9,-2.092 -15.783,-0.04 c -0.045,-1.666 0.17,-2.689 0.383,-3.415 0.427,-1.621 1.877,-4.991 6.526,-4.948 1.793,0 4.609,0.427 6.529,4.266 l 2.345,-0.682 c -0.212,-0.429 -0.723,-1.578 -1.578,-2.646 -1.108,-1.322 -3.113,-3.242 -7.253,-3.242 -0.724,0 -2.772,0.042 -4.692,1.067 -4.863,2.516 -5.033,8.49 -5.033,9.811 0,0.684 0.042,2.348 0.638,4.139 1.367,3.838 4.652,6.358 8.747,6.358 1.237,0 4.223,-0.257 6.528,-2.901 1.663,-1.836 2.643,-4.694 2.643,-7.168 v -0.599" /><path
           id="path106"
           style="fill:#231f20;fill-opacity:1;fill-rule:nonzero;stroke:none"
           d="m 304.376,63.111 v 20.35 h 2.517 v -3.242 c 0.129,0.341 0.342,0.725 0.557,1.025 0.255,0.383 1.108,1.449 2.386,2.005 0.556,0.254 1.452,0.511 2.901,0.511 0.343,0 0.768,0 1.495,-0.085 l -0.043,-2.262 c -0.512,0.087 -0.981,0.13 -1.579,0.13 -3.113,0 -5.033,-1.836 -5.502,-4.821 -0.172,-1.068 -0.215,-2.432 -0.215,-4.822 v -8.789 h -2.517" /><path
           id="path108"
           style="fill:#231f20;fill-opacity:1;fill-rule:nonzero;stroke:none"
           d="m 318.668,68.915 c 0.342,-1.407 1.877,-4.011 5.673,-4.011 1.922,0 3.159,0.554 3.755,1.023 0.896,0.683 1.45,1.88 1.45,2.946 0,0.639 -0.213,1.279 -0.554,1.79 -0.639,0.895 -1.664,1.407 -3.839,1.878 -2.005,0.469 -5.163,0.809 -6.612,2.559 -0.683,0.854 -1.068,2.09 -1.068,3.2 0.043,0.639 0.215,2.602 1.751,3.968 1.364,1.28 3.754,1.707 5.545,1.707 0.596,0 3.115,-0.045 4.991,-1.325 1.578,-1.15 2.047,-2.601 2.218,-3.284 l -2.388,-0.639 c -0.468,2.347 -2.903,3.028 -4.95,3.028 -1.662,0 -2.771,-0.382 -3.328,-0.768 -0.17,-0.085 -0.596,-0.427 -0.895,-0.896 -0.427,-0.725 -0.469,-1.449 -0.469,-1.75 0,-2.387 2.517,-2.857 4.267,-3.285 l 2.133,-0.425 c 1.79,-0.469 3.539,-1.067 4.649,-2.646 0.939,-1.28 0.981,-2.516 0.981,-3.112 0,-0.428 -0.042,-1.582 -0.64,-2.731 -0.81,-1.537 -2.858,-3.542 -6.953,-3.542 -1.237,0 -4.522,0.171 -6.827,3.073 -0.597,0.809 -0.98,1.536 -1.364,2.386 l 2.474,0.856" /><path
           id="path110"
           style="fill:#231f20;fill-opacity:1;fill-rule:nonzero;stroke:none"
           d="m 337.694,83.461 h 2.475 v -20.35 h -2.475 z m 0,8.662 h 2.475 V 88.24 h -2.475 z" /><path
           id="path112"
           style="fill:#231f20;fill-opacity:1;fill-rule:nonzero;stroke:none"
           d="m 355.4,63.667 c -0.554,-0.384 -1.58,-0.94 -3.243,-0.94 -0.214,0 -0.471,0 -0.683,0.044 -0.556,0.043 -2.091,0.17 -2.686,1.791 -0.344,0.896 -0.299,3.073 -0.299,4.053 v 12.714 h -4.268 v 2.132 h 4.268 v 8.662 h 2.429 v -8.662 h 4.482 v -2.132 h -4.482 v -11.22 c 0.044,-0.725 0.044,-1.451 0,-2.177 0,-1.192 -0.042,-2.986 1.665,-2.986 1.025,0 2.048,0.727 2.817,1.28 v -2.559" /><path
           id="path114"
           style="fill:#231f20;fill-opacity:1;fill-rule:nonzero;stroke:none"
           d="m 366.192,60.168 c -1.878,-4.863 -2.645,-7.379 -5.888,-7.379 -1.407,0 -2.262,0.509 -2.686,0.809 v 2.559 c 1.149,-0.81 1.96,-0.982 2.643,-0.982 1.451,0 1.877,0.94 2.729,3.072 0.3,0.642 0.557,1.282 0.811,1.921 l 1.068,2.943 -7.039,20.35 h 2.431 l 5.931,-17.319 6.612,17.319 h 2.562 l -9.174,-23.293" /><path
           id="path116"
           style="fill:#231f20;fill-opacity:1;fill-rule:nonzero;stroke:none"
           d="m 398.914,81.842 c -0.639,0 -2.22,-0.087 -3.669,-1.155 -1.579,-1.192 -2.902,-3.412 -2.902,-7.634 0,-0.768 -0.086,-4.864 2.687,-7.041 0.641,-0.511 1.838,-1.193 3.797,-1.193 2.987,0 6.527,1.876 6.614,8.319 0.042,6.611 -3.285,8.704 -6.527,8.704 z m 8.66,-12.543 c -1.281,-4.096 -4.478,-6.699 -8.79,-6.699 -1.407,0 -4.65,0.256 -7.036,3.412 -0.897,1.237 -2.093,3.414 -2.093,7.041 0,0.895 0.045,2.901 0.939,5.162 2.004,5.161 6.357,5.76 8.362,5.76 2.346,0 4.309,-0.642 5.973,-2.263 2.303,-2.132 3.155,-5.29 3.198,-8.318 0,-0.683 0,-2.304 -0.553,-4.095" /><path
           id="path118"
           style="fill:#231f20;fill-opacity:1;fill-rule:nonzero;stroke:none"
           d="M 418.194,81.329 V 63.111 h -2.515 V 81.329 H 411.2 v 2.132 h 4.479 v 3.883 c 0.043,2.175 -0.085,2.773 0.257,3.924 0.427,1.281 1.407,2.561 4.265,2.561 0.983,0 1.664,-0.128 2.601,-0.298 v -2.475 c -0.426,0.17 -1.234,0.554 -2.431,0.554 -0.853,0 -1.237,-0.256 -1.492,-0.554 -0.808,-0.81 -0.685,-1.622 -0.685,-3.498 v -4.097 h 4.608 v -2.132 h -4.608" /><path
           id="path120"
           style="fill:#231f20;fill-opacity:1;fill-rule:nonzero;stroke:none"
           d="m 214.263,37.587 -5.888,-15.402 h 11.69 z m 10.112,-26.79 -3.456,9.084 h -13.482 l -3.456,-9.084 h -3.156 l 12.286,30.117 h 2.389 l 11.988,-30.117 h -3.113" /><path
           id="path122"
           style="fill:#231f20;fill-opacity:1;fill-rule:nonzero;stroke:none"
           d="m 236.061,13.95 c 1.367,-1.148 2.859,-1.195 3.543,-1.195 4.692,0 6.313,4.569 6.313,8.49 0,0.641 -0.042,2.008 -0.554,3.586 -1.238,3.882 -4.223,4.436 -5.803,4.436 -0.895,0 -1.877,-0.212 -2.644,-0.641 -1.536,-0.852 -2.431,-2.6 -2.773,-4.223 -0.213,-1.067 -0.257,-2.091 -0.299,-3.158 -0.085,-2.559 0.042,-5.5 2.217,-7.295 z m -2.217,17.194 v -3.329 c 0.299,0.683 0.511,1.025 0.769,1.325 0.724,0.982 2.388,2.431 5.375,2.431 2.177,0 3.455,-0.598 4.223,-1.067 3.114,-1.961 4.308,-6.186 4.308,-9.598 0,-0.685 -0.042,-1.876 -0.426,-3.5 -0.385,-1.491 -2.176,-7.081 -8.105,-7.081 -3.199,0 -4.906,1.749 -5.589,2.817 -0.214,0.298 -0.3,0.468 -0.555,1.067 V 0 h -2.474 v 31.144 h 2.474" /><path
           id="path124"
           style="fill:#231f20;fill-opacity:1;fill-rule:nonzero;stroke:none"
           d="m 258.502,13.95 c 1.366,-1.148 2.86,-1.195 3.54,-1.195 4.695,0 6.315,4.569 6.315,8.49 0,0.641 -0.041,2.008 -0.554,3.586 -1.238,3.882 -4.223,4.436 -5.803,4.436 -0.895,0 -1.876,-0.212 -2.645,-0.641 -1.535,-0.852 -2.432,-2.6 -2.772,-4.223 -0.214,-1.067 -0.256,-2.091 -0.299,-3.158 -0.085,-2.559 0.043,-5.5 2.218,-7.295 z m -2.218,17.194 v -3.329 c 0.299,0.683 0.511,1.025 0.768,1.325 0.726,0.982 2.389,2.431 5.375,2.431 2.177,0 3.456,-0.598 4.224,-1.067 3.115,-1.961 4.308,-6.186 4.308,-9.598 0,-0.685 -0.042,-1.876 -0.426,-3.5 -0.384,-1.491 -2.176,-7.081 -8.106,-7.081 -3.199,0 -4.906,1.749 -5.59,2.817 -0.212,0.298 -0.296,0.468 -0.553,1.067 V 0 h -2.474 v 31.144 h 2.474" /><path
           id="path126"
           style="fill:#231f20;fill-opacity:1;fill-rule:nonzero;stroke:none"
           d="m 276.208,40.914 h 2.558 V 10.797 h -2.558 z" /><path
           id="path128"
           style="fill:#231f20;fill-opacity:1;fill-rule:nonzero;stroke:none"
           d="m 285.337,31.144 h 2.475 V 10.797 h -2.475 z m 0,8.661 h 2.475 v -3.882 h -2.475 z" /><path
           id="path130"
           style="fill:#231f20;fill-opacity:1;fill-rule:nonzero;stroke:none"
           d="m 308.757,23.083 c -0.597,5.245 -4.093,6.312 -6.313,6.312 -3.541,0 -5.206,-2.431 -5.76,-3.543 -0.384,-0.851 -0.639,-1.919 -0.767,-2.816 z m 2.903,-2.092 -15.786,-0.043 c -0.042,-1.666 0.171,-2.686 0.384,-3.414 0.426,-1.619 1.878,-4.989 6.527,-4.946 1.791,0 4.608,0.427 6.527,4.264 l 2.348,-0.682 c -0.215,-0.425 -0.727,-1.579 -1.579,-2.645 -1.111,-1.322 -3.116,-3.242 -7.253,-3.242 -0.726,0 -2.774,0.042 -4.692,1.066 -4.866,2.516 -5.036,8.49 -5.036,9.811 0,0.686 0.044,2.348 0.64,4.141 1.366,3.839 4.65,6.355 8.747,6.355 1.237,0 4.223,-0.257 6.526,-2.901 1.665,-1.835 2.647,-4.694 2.647,-7.168 v -0.596" /><path
           id="path132"
           style="fill:#231f20;fill-opacity:1;fill-rule:nonzero;stroke:none"
           d="m 327.828,28.244 c -0.555,0.382 -1.707,1.023 -3.371,1.023 -0.511,0 -1.537,0 -2.644,-0.595 -1.751,-0.94 -3.543,-3.244 -3.543,-7.681 0,-0.683 -0.083,-8.276 6.059,-8.276 1.579,0 2.901,0.384 3.967,1.536 1.707,1.706 1.962,4.35 1.962,6.57 0.085,4.093 -0.724,6.186 -2.43,7.423 z m 2.389,-17.447 v 3.667 c -0.94,-2.687 -3.543,-4.139 -6.271,-4.139 -0.769,0 -2.517,0.13 -4.224,1.282 -4.097,2.685 -4.181,8.361 -4.181,9.384 0,1.236 0.17,6.656 4.394,9.343 0.726,0.427 2.262,1.237 4.394,1.237 1.663,0 3.328,-0.512 4.523,-1.621 0.938,-0.895 1.151,-1.494 1.365,-2.048 v 13.012 h 2.473 V 10.797 h -2.473" /><path
           id="path134"
           style="fill:#231f20;fill-opacity:1;fill-rule:nonzero;stroke:none"
           d="m 352.826,19.881 c 0.086,-1.791 0.299,-2.557 0.682,-3.372 0.854,-1.876 3.115,-3.964 7.681,-3.964 0.598,0 1.918,0 3.414,0.427 2.772,0.85 4.905,2.943 4.905,5.971 0,0.469 -0.042,1.706 -0.809,2.903 -1.026,1.619 -2.734,2.344 -6.231,3.283 -2.176,0.554 -4.564,1.067 -6.614,2.048 -1.362,0.68 -4.349,2.386 -4.349,6.698 0,2.346 0.81,3.712 1.45,4.479 2.604,3.369 7.677,3.326 8.488,3.326 3.285,0 6.445,-0.896 8.622,-3.497 0.553,-0.683 1.107,-1.45 1.749,-3.113 l -2.647,-1.409 c -0.297,0.94 -0.639,1.791 -1.237,2.602 -0.851,1.237 -2.903,3.072 -6.571,3.072 -0.597,0 -3.799,-0.042 -5.675,-1.918 -0.554,-0.558 -1.407,-1.536 -1.407,-3.459 0,-1.063 0.298,-2.003 0.895,-2.814 1.325,-1.749 3.542,-2.261 5.503,-2.816 2.819,-0.724 6.617,-1.493 8.919,-3.414 0.939,-0.724 2.816,-2.602 2.816,-5.884 0,-1.581 -0.468,-4.522 -3.711,-6.869 -1.407,-0.982 -3.586,-2.133 -7.51,-2.133 -5.76,0 -9.983,2.475 -11.221,8.362 l 2.858,1.491" /><path
           id="path136"
           style="fill:#231f20;fill-opacity:1;fill-rule:nonzero;stroke:none"
           d="m 390.881,25.981 c -0.896,2.263 -3.114,3.414 -5.502,3.414 -0.768,0 -2.562,-0.084 -4.222,-1.493 -2.647,-2.26 -2.691,-6.056 -2.691,-6.954 0,-0.598 0.086,-4.096 1.92,-6.357 0.299,-0.34 0.896,-0.981 2.007,-1.492 0.512,-0.254 1.407,-0.596 2.771,-0.596 2.56,0 4.308,1.19 5.504,3.412 l 2.558,-0.599 c -0.554,-1.152 -1.234,-2.174 -2.216,-3.028 -0.939,-0.853 -2.816,-2.005 -5.929,-2.005 -1.111,0 -3.884,0.085 -6.23,2.305 -3.03,2.858 -3.114,7.081 -3.114,8.233 0,1.534 0.17,2.814 0.64,4.221 1.321,4.182 4.733,6.614 9.129,6.614 3.241,0 4.947,-1.235 5.929,-2.261 1.152,-1.194 1.579,-2.261 1.791,-2.857 l -2.345,-0.557" /><path
           id="path138"
           style="fill:#231f20;fill-opacity:1;fill-rule:nonzero;stroke:none"
           d="m 397.708,31.144 h 2.474 V 10.797 h -2.474 z m 0,8.661 h 2.474 v -3.882 h -2.474 z" /><path
           id="path140"
           style="fill:#231f20;fill-opacity:1;fill-rule:nonzero;stroke:none"
           d="m 421.126,23.083 c -0.596,5.245 -4.093,6.312 -6.312,6.312 -3.54,0 -5.206,-2.431 -5.762,-3.543 -0.382,-0.851 -0.638,-1.919 -0.765,-2.816 z m 2.901,-2.092 -15.783,-0.043 c -0.042,-1.666 0.17,-2.686 0.383,-3.414 0.425,-1.619 1.878,-4.989 6.526,-4.946 1.793,0 4.607,0.427 6.527,4.264 l 2.347,-0.682 c -0.212,-0.425 -0.724,-1.579 -1.578,-2.645 -1.109,-1.322 -3.114,-3.242 -7.251,-3.242 -0.726,0 -2.774,0.042 -4.693,1.066 -4.865,2.516 -5.035,8.49 -5.035,9.811 0,0.686 0.043,2.348 0.639,4.141 1.367,3.839 4.649,6.355 8.747,6.355 1.239,0 4.223,-0.257 6.527,-2.901 1.663,-1.835 2.644,-4.694 2.644,-7.168 v -0.596" /><path
           id="path142"
           style="fill:#231f20;fill-opacity:1;fill-rule:nonzero;stroke:none"
           d="m 442.543,10.797 v 10.578 c 0,2.728 0.043,4.351 -0.47,5.545 -0.382,1.067 -1.151,1.496 -1.536,1.752 -1.151,0.639 -2.301,0.639 -2.772,0.639 -0.467,0 -1.579,0 -2.688,-0.556 -1.493,-0.681 -2.687,-2.347 -3.072,-3.883 -0.213,-0.979 -0.213,-2.727 -0.254,-5.161 v -8.914 h -2.519 v 20.347 h 2.519 v -3.627 c 0.167,0.512 0.467,1.323 1.45,2.263 0.808,0.768 2.261,1.791 4.948,1.791 3.794,0 5.502,-2.091 6.185,-3.497 0.726,-1.624 0.684,-3.243 0.726,-6.699 V 10.797 h -2.517" /><path
           id="path144"
           style="fill:#231f20;fill-opacity:1;fill-rule:nonzero;stroke:none"
           d="m 464.695,26.924 c -0.896,2.259 -3.112,3.414 -5.502,3.414 -0.769,0 -2.56,-0.087 -4.223,-1.494 -2.644,-2.262 -2.688,-6.058 -2.688,-6.955 0,-0.595 0.087,-4.094 1.922,-6.356 0.299,-0.342 0.893,-0.982 2.005,-1.492 0.509,-0.257 1.407,-0.599 2.769,-0.599 2.562,0 4.311,1.196 5.507,3.415 l 2.559,-0.6 c -0.553,-1.149 -1.239,-2.173 -2.219,-3.027 -0.939,-0.855 -2.817,-2.005 -5.929,-2.005 -1.11,0 -3.884,0.087 -6.23,2.302 -3.029,2.859 -3.114,7.084 -3.114,8.236 0,1.534 0.17,2.814 0.642,4.223 1.319,4.18 4.733,6.612 9.128,6.612 3.243,0 4.949,-1.237 5.931,-2.26 1.15,-1.196 1.577,-2.262 1.791,-2.861 l -2.349,-0.553" /><path
           id="path146"
           style="fill:#231f20;fill-opacity:1;fill-rule:nonzero;stroke:none"
           d="m 485.858,24.023 c -0.599,5.247 -4.096,6.315 -6.316,6.315 -3.539,0 -5.203,-2.432 -5.76,-3.541 -0.382,-0.856 -0.639,-1.921 -0.767,-2.817 z m 2.898,-2.09 -15.783,-0.044 c -0.043,-1.663 0.17,-2.687 0.384,-3.411 0.425,-1.621 1.878,-4.993 6.527,-4.951 1.791,0 4.607,0.427 6.528,4.268 l 2.344,-0.681 c -0.212,-0.429 -0.723,-1.581 -1.577,-2.646 -1.109,-1.323 -3.114,-3.243 -7.253,-3.243 -0.725,0 -2.773,0.042 -4.691,1.068 -4.865,2.516 -5.035,8.485 -5.035,9.809 0,0.684 0.042,2.35 0.64,4.138 1.365,3.841 4.65,6.358 8.745,6.358 1.24,0 4.225,-0.254 6.528,-2.901 1.663,-1.833 2.643,-4.694 2.643,-7.166 v -0.598" /><path
           id="path148"
           style="fill:#231f20;fill-opacity:1;fill-rule:nonzero;stroke:none"
           d="m 494.687,17.54 c 0.344,-1.411 1.876,-4.013 5.675,-4.013 1.92,0 3.155,0.557 3.756,1.024 0.895,0.685 1.449,1.878 1.449,2.945 0,0.639 -0.215,1.277 -0.554,1.793 -0.638,0.894 -1.666,1.406 -3.841,1.876 -2.005,0.471 -5.163,0.81 -6.612,2.559 -0.684,0.853 -1.067,2.092 -1.067,3.2 0.042,0.64 0.214,2.601 1.748,3.966 1.367,1.282 3.754,1.708 5.547,1.708 0.596,0 3.115,-0.042 4.993,-1.322 1.577,-1.154 2.048,-2.604 2.218,-3.285 l -2.39,-0.639 c -0.469,2.345 -2.901,3.029 -4.948,3.029 -1.666,0 -2.774,-0.387 -3.329,-0.769 -0.17,-0.087 -0.595,-0.429 -0.894,-0.897 -0.429,-0.724 -0.469,-1.449 -0.469,-1.749 0,-2.389 2.517,-2.856 4.265,-3.284 l 2.135,-0.427 c 1.789,-0.469 3.537,-1.068 4.649,-2.644 0.939,-1.282 0.981,-2.519 0.981,-3.115 0,-0.429 -0.042,-1.579 -0.641,-2.729 -0.809,-1.537 -2.858,-3.542 -6.954,-3.542 -1.237,0 -4.522,0.172 -6.826,3.073 -0.597,0.81 -0.981,1.534 -1.363,2.387 l 2.472,0.855" /><path
           id="path150"
           style="fill:#231f20;fill-opacity:1;fill-rule:nonzero;stroke:none"
           d="m 26.948,115.401 h -5.687 v 13.727 H 8.302 V 115.401 H 2.615 v 30.192 h 5.687 v -11.376 h 12.959 v 11.376 h 5.687 v -30.192" /><path
           id="path152"
           style="fill:#231f20;fill-opacity:1;fill-rule:nonzero;stroke:none"
           d="m 42.728,132.806 c -0.47,0 -1.753,-0.086 -2.908,-0.812 -1.112,-0.728 -2.609,-2.481 -2.609,-5.688 0,-1.026 0.128,-1.925 0.427,-2.908 0.385,-1.027 1.84,-3.935 5.346,-3.935 3.892,0 5.604,3.422 5.517,6.8 -0.128,3.336 -2.01,6.543 -5.773,6.543 z m 10.265,-11.417 c -0.857,-2.182 -3.637,-6.63 -10.009,-6.63 -0.898,0 -2.735,0.085 -4.832,0.985 -2.223,1.025 -6.287,3.976 -6.287,10.434 0,2.309 0.6,4.02 0.942,4.789 0.855,2.139 3.634,6.458 10.007,6.458 0.812,0 2.694,-0.086 4.704,-0.984 2.309,-0.984 6.288,-3.849 6.329,-10.263 0,-0.77 -0.041,-2.78 -0.854,-4.789" /><path
           id="path154"
           style="fill:#231f20;fill-opacity:1;fill-rule:nonzero;stroke:none"
           d="m 76.556,121.431 c -0.342,-0.898 -0.771,-1.796 -1.369,-2.609 -1.924,-2.61 -5.089,-4.063 -8.297,-4.063 -0.77,0 -2.523,0.129 -4.447,0.985 -5.688,2.607 -6.115,8.552 -6.115,10.348 0,2.608 0.727,5.132 2.309,7.184 1.026,1.369 3.719,4.149 8.51,4.149 1.368,0 2.736,-0.257 3.977,-0.769 1.241,-0.513 3.806,-2.011 5.218,-5.304 l -4.577,-2.138 c -0.342,1.156 -0.983,1.882 -1.282,2.18 -0.6,0.6 -1.625,1.455 -3.593,1.455 -1.495,0 -2.694,-0.514 -3.677,-1.667 -1.582,-1.84 -1.582,-4.235 -1.582,-4.961 0,-1.112 0.17,-1.925 0.298,-2.354 0.642,-2.478 2.396,-4.318 5.09,-4.318 3.677,0 4.79,3.249 5.174,4.19 l 4.363,-2.308" /><path
           id="path156"
           style="fill:#231f20;fill-opacity:1;fill-rule:nonzero;stroke:none"
           d="m 84.509,134.601 c 0.428,0.473 0.941,0.941 2.052,1.583 0.813,0.472 2.354,1.241 4.705,1.241 2.353,0 4.919,-0.855 6.33,-2.824 1.324,-1.881 1.324,-3.847 1.324,-5.985 v -13.215 h -5.043 v 11.761 c -0.044,1.709 0.083,3.249 -1.371,4.489 -0.427,0.385 -1.24,0.899 -2.651,0.899 -1.753,0 -3.166,-0.728 -4.234,-2.052 -0.428,-0.514 -0.769,-1.156 -0.941,-1.798 -0.171,-0.64 -0.171,-1.153 -0.171,-1.839 v -11.46 h -5.131 v 30.192 h 5.131 v -10.992" /><path
           id="path158"
           style="fill:#231f20;fill-opacity:1;fill-rule:nonzero;stroke:none"
           d="m 118.251,130.069 c -0.427,0.898 -0.982,1.411 -1.326,1.71 -1.326,1.156 -2.736,1.542 -4.49,1.542 -0.214,0 -1.669,0 -2.61,-0.643 -0.767,-0.513 -0.94,-1.198 -0.94,-1.582 0.044,-0.726 0.556,-1.241 0.685,-1.327 0.555,-0.427 1.967,-0.769 3.678,-1.069 1.154,-0.213 2.309,-0.384 3.465,-0.64 1.154,-0.257 2.437,-0.642 3.378,-1.327 0.768,-0.555 2.35,-2.053 2.35,-4.66 0,-1.028 -0.256,-2.011 -0.726,-2.91 -1.027,-1.965 -3.678,-4.404 -8.894,-4.404 -4.02,0 -6.886,1.369 -8.212,2.182 -0.727,0.469 -1.411,1.025 -2.054,1.666 l 3.85,3.122 c 0.171,-0.212 0.428,-0.597 0.984,-1.068 1.84,-1.582 4.576,-1.668 5.175,-1.668 1.282,0 2.779,0.298 3.635,1.283 0.341,0.342 0.555,0.812 0.555,1.241 0,0.17 -0.041,0.512 -0.341,0.897 -0.557,0.769 -1.242,0.812 -2.824,1.155 -1.409,0.298 -2.823,0.47 -4.191,0.812 -0.941,0.257 -5.858,1.455 -5.901,6.073 0.043,1.625 0.684,2.822 0.984,3.293 1.068,1.667 3.591,3.678 8.211,3.678 1.667,0 5.986,-0.257 9.194,-3.977 l -3.635,-3.379" /><path
           id="path160"
           style="fill:#231f20;fill-opacity:1;fill-rule:nonzero;stroke:none"
           d="m 145.15,121.431 c -0.34,-0.898 -0.769,-1.796 -1.368,-2.609 -1.924,-2.61 -5.089,-4.063 -8.297,-4.063 -0.769,0 -2.523,0.129 -4.448,0.985 -5.686,2.607 -6.114,8.552 -6.114,10.348 0,2.608 0.726,5.132 2.309,7.184 1.026,1.369 3.721,4.149 8.51,4.149 1.368,0 2.737,-0.257 3.978,-0.769 1.239,-0.513 3.805,-2.011 5.218,-5.304 l -4.577,-2.138 c -0.342,1.156 -0.985,1.882 -1.284,2.18 -0.598,0.6 -1.624,1.455 -3.592,1.455 -1.497,0 -2.694,-0.514 -3.676,-1.667 -1.583,-1.84 -1.583,-4.235 -1.583,-4.961 0,-1.112 0.171,-1.925 0.298,-2.354 0.642,-2.478 2.395,-4.318 5.089,-4.318 3.678,0 4.791,3.249 5.176,4.19 l 4.361,-2.308" /><path
           id="path162"
           style="fill:#231f20;fill-opacity:1;fill-rule:nonzero;stroke:none"
           d="m 153.105,134.601 c 0.428,0.473 0.941,0.941 2.053,1.583 0.813,0.472 2.351,1.241 4.704,1.241 2.352,0 4.918,-0.855 6.33,-2.824 1.326,-1.881 1.326,-3.847 1.326,-5.985 v -13.215 h -5.048 v 11.761 c -0.042,1.709 0.087,3.249 -1.368,4.489 -0.427,0.385 -1.24,0.899 -2.652,0.899 -1.753,0 -3.163,-0.728 -4.233,-2.052 -0.427,-0.514 -0.77,-1.156 -0.94,-1.798 -0.172,-0.64 -0.172,-1.153 -0.172,-1.839 v -11.46 h -5.133 v 30.192 h 5.133 v -10.992" /><path
           id="path164"
           style="fill:#231f20;fill-opacity:1;fill-rule:nonzero;stroke:none"
           d="m 192.321,115.401 h -5.132 l -0.043,2.181 c -1.07,-0.984 -3.165,-2.694 -6.886,-2.694 -3.549,0 -5.302,1.539 -6.157,2.822 -1.37,2.01 -1.242,4.448 -1.242,6.758 v 12.316 h 5.176 v -11.547 c -0.043,-1.753 -0.086,-3.848 1.711,-4.876 0.684,-0.427 1.668,-0.641 2.481,-0.641 2.479,0 3.72,1.626 4.147,2.394 0.854,1.625 0.77,3.935 0.813,5.603 v 9.067 h 5.132 v -21.383" /><path
           id="path166"
           style="fill:#231f20;fill-opacity:1;fill-rule:nonzero;stroke:none"
           d="m 197.923,145.593 h 5.217 v -30.192 h -5.217 z" /><path
           id="path168"
           style="fill:#231f20;fill-opacity:1;fill-rule:nonzero;stroke:none"
           d="m 222.897,128.871 c -0.043,0.257 -0.128,0.984 -0.428,1.711 -0.469,1.027 -1.582,2.739 -4.361,2.739 -1.112,0 -1.712,-0.215 -2.139,-0.386 -2.395,-0.984 -2.951,-3.378 -3.079,-4.107 z m -10.177,-3.806 c 0.085,-0.64 0.298,-1.967 1.368,-3.25 0.725,-0.898 2.01,-2.051 4.662,-2.051 2.651,0 4.19,1.239 4.875,1.965 0.169,0.173 0.427,0.514 0.726,0.985 l 4.363,-2.524 c -0.343,-0.47 -0.941,-1.283 -1.968,-2.224 -1.198,-1.111 -4.062,-3.207 -8.468,-3.207 -1.368,0 -4.746,0.172 -7.655,2.866 -2.437,2.309 -3.336,5.26 -3.336,8.596 0,1.795 0.257,3.506 0.941,5.131 0.941,2.139 3.593,6.073 9.793,6.073 4.791,0 7.315,-2.48 8.426,-4.104 0.983,-1.499 1.967,-4.107 2.095,-8.256 H 212.72" /></g></g></g></svg>