<?xml version="1.0" encoding="utf-8"?>
<!-- Generator: Adobe Illustrator 16.0.1, SVG Export Plug-In . SVG Version: 6.00 Build 0)  -->
<!DOCTYPE svg PUBLIC "-//W3C//DTD SVG 1.1//EN" "http://www.w3.org/Graphics/SVG/1.1/DTD/svg11.dtd">
<svg version="1.1" id="Layer_1" xmlns="http://www.w3.org/2000/svg" xmlns:xlink="http://www.w3.org/1999/xlink" x="0px" y="0px"
	 width="800px" height="642.215px" viewBox="0 0 800 642.215" enable-background="new 0 0 800 642.215" xml:space="preserve">
<path d="M656.504,164.109L404.615,18.758c-2.852-1.629-6.378-1.629-9.229,0L143.497,164.109c-2.851,1.628-4.614,4.75-4.614,8.007
	v290.839c0,3.259,1.764,6.379,4.614,8.009l251.889,145.352c1.493,0.814,2.985,1.221,4.614,1.221s3.258-0.405,4.615-1.221
	l251.889-145.352c2.85-1.63,4.613-4.75,4.613-8.009V172.117C661.119,168.859,659.354,165.738,656.504,164.109z"/>
<polygon id="background_2_" fill="#F9F919" points="153.717,176.183 400.41,33.696 646.969,176.183 646.969,461.022 400.41,603.376 
	153.717,461.022 "/>
<g id="foreground" transform="translate(-512.60001,-9.5)">
	<path id="doorknob" d="M913.24,328.665c0.407,0,0.678,0.271,0.678,0.68c0,0.407-0.27,0.679-0.678,0.679
		c-0.408,0-0.679-0.271-0.679-0.679C912.561,328.937,912.833,328.665,913.24,328.665z"/>
	<path id="bottom-stripes" d="M1016.791,517.718c-0.678-1.223-2.307-1.629-3.393-0.95l-89.98,51.979l38.271-48.857
		c0.814-1.085,0.68-2.714-0.406-3.528s-2.715-0.679-3.529,0.407l-41.799,53.337v-52.115c0-1.356-1.086-2.579-2.58-2.579
		c-1.493,0-2.579,1.086-2.579,2.579v52.115l-41.801-53.337c-0.814-1.086-2.443-1.223-3.528-0.407
		c-1.086,0.814-1.222,2.443-0.407,3.529l38.272,48.856l-91.744-52.93c-1.221-0.679-2.714-0.271-3.393,0.95
		c-0.679,1.221-0.271,2.715,0.95,3.393l103.009,59.444c0,0,0,0,0.135,0c0.136,0,0.136,0.136,0.271,0.136c0,0,0,0,0.136,0
		c0,0,0,0,0.136,0h0.136c0.136,0,0.407,0.136,0.543,0.136l0,0l0,0l0,0l0,0c0.271,0,0.406,0,0.543-0.136h0.137h0.135
		c0.137,0,0.137-0.136,0.271-0.136c0,0,0,0,0.135,0l101.381-58.494C1017.063,520.567,1017.471,518.939,1016.791,517.718z"/>
	<circle id="bottom-dot-right" cx="1023.577" cy="512.968" r="3.121"/>
	<circle id="bottom-dot-left" cx="801.681" cy="512.968" r="3.121"/>
	
		<text id="letter-left" transform="matrix(0.8192 -0.5736 0.5736 0.8192 854.8998 513.8574)" font-family="'Helvetica-Bold'" font-size="21.7156">M</text>
	<text id="letter-middle" transform="matrix(1 0 0 1 905.0966 503.874)" font-family="'Helvetica-Bold'" font-size="21.7145">U</text>
	
		<text id="letter-right" transform="matrix(0.8192 0.5736 -0.5736 0.8192 959.3207 506.5752)" font-family="'Helvetica-Bold'" font-size="21.7156">C</text>
</g>
<g>
	<g>
		<path d="M327.832,452.857c-5.678,0-11.037,0-16.319,0c-0.121-0.113-0.17-0.154-0.211-0.201c-0.04-0.046-0.094-0.095-0.104-0.148
			c-0.044-0.248-0.106-0.497-0.106-0.746c-0.005-78.109-0.006-156.22-0.002-234.329c0-0.311,0.066-0.619,0.127-1.155
			c0.791-0.056,1.579-0.159,2.366-0.16c12.702-0.01,25.405-0.007,38.107-0.007c14.787,0,29.575,0,44.363,0
			c29.384,0,58.771-0.001,88.156,0.005c0.863,0,1.729,0.075,2.705,0.12c0,78.883,0,157.602,0,236.317
			c-1.303,0.471-14.475,0.569-16.727,0.075c0-0.816,0-1.687,0-2.557c0-44.3-0.002-88.599,0.002-132.898
			c0.002-5.44-0.158-10.859-1.203-16.227c-1.365-7.031-4.236-13.27-8.998-18.709c-16.479-18.826-36.236-33.036-59.338-42.629
			c-1.046-0.436-1.93-0.568-3.042-0.105c-23.269,9.684-43.202,23.97-59.755,43c-4.842,5.566-7.625,11.988-8.905,19.158
			c-0.904,5.057-1.123,10.161-1.122,15.288c0.01,44.365,0.005,88.729,0.005,133.092
			C327.832,450.912,327.832,451.784,327.832,452.857z"/>
		<path d="M305.731,406.179c-16.411,0-32.631,0-48.985,0c0-63.31,0-126.521,0-189.713c1.513-0.42,46.854-0.5,48.985-0.077
			C305.731,279.576,305.731,342.791,305.731,406.179z"/>
		<path d="M492.346,216.243c16.289,0,32.504,0,48.654,0c0.109,0.117,0.156,0.161,0.195,0.209c0.039,0.047,0.094,0.096,0.105,0.15
			c0.047,0.248,0.111,0.498,0.111,0.746c0.006,62.557,0.008,125.113,0.004,187.67c0,0.312-0.072,0.621-0.107,0.915
			c-1.367,0.415-45.627,0.585-48.836,0.198C492.064,404.825,491.902,219.522,492.346,216.243z"/>
		<path d="M542.883,179.19c5.035,0,9.691,0,14.479,0c0,10.858,0,21.622,0,32.358c-1.678,0.444-85.324,0.45-87.043,0.005
			c0-10.738,0-21.503,0-32.364c5.227,0,10.318,0,15.658,0c0.225,2.029,0.086,4.031,0.109,6.02c0.021,2.084,0.004,4.169,0.004,6.253
			c0,2.01,0,4.021,0,5.974c1.564,0.412,18.818,0.516,21.518,0.152c0.219-6.045-0.043-12.139,0.145-18.355c4.381,0,8.629,0,13.059,0
			c0,6.131,0,12.169,0,18.146c1.48,0.478,19.162,0.616,22.072,0.191C542.883,191.526,542.883,185.441,542.883,179.19z"/>
		<path d="M255.191,197.667c7.39,0,14.565,0,21.989,0c0-6.202,0-12.292,0-18.475c4.454,0,8.66,0,13.115,0c0,6.171,0,12.259,0,18.467
			c7.291,0,14.333,0,21.625,0c0-6.133,0-12.22,0-18.434c5.388,0,10.527,0,15.79,0c0,10.846,0,21.61,0,32.511
			c-29.01,0-57.911,0-86.945,0c0-10.853,0-21.618,0-32.512c4.705,0,9.348,0,14.211,0c0.037,0.667,0.106,1.333,0.107,1.999
			c0.01,4.802,0.002,9.604,0.01,14.406C255.094,196.3,255.156,196.97,255.191,197.667z"/>
		<path d="M492.26,452.742c0-13.612,0-27.103,0-40.69c16.381,0,32.646,0,49.041,0c0,13.602,0,27.089,0,40.558
			C539.887,453,494.963,453.131,492.26,452.742z"/>
		<path d="M305.795,412.062c0,13.646,0,27.094,0,40.518c-1.393,0.433-45.659,0.604-48.857,0.212
			c-0.406-1.324-0.514-38.283-0.099-40.729C273.082,412.062,289.346,412.062,305.795,412.062z"/>
		<path d="M259.447,193.545c0-4.954,0-9.591,0-14.339c4.45,0,8.78,0,13.351,0c0.286,4.681,0.06,9.366,0.129,14.33
			C268.37,193.565,263.991,193.548,259.447,193.545z"/>
		<path d="M525.322,179.227c4.355,0,8.73,0,13.232,0c0,4.716,0,9.357,0,13.996c-1.32,0.399-10.287,0.528-13.146,0.19
			C525.012,192.07,524.932,181.519,525.322,179.227z"/>
		<path d="M294.561,179.203c4.517,0,8.714,0,13.032,0c0,4.738,0,9.369,0,14.229c-4.236,0.25-8.48,0.071-12.972,0.11
			C294.492,188.732,294.591,184.052,294.561,179.203z"/>
	</g>
	<path d="M490.654,179.214c4.166,0,8.359,0,12.678,0c0,4.752,0,9.395,0,14.318c-4.242,0.039-8.436,0.015-12.574,0.012
		C490.238,191.931,490.182,181.19,490.654,179.214z"/>
</g>
<image overflow="visible" enable-background="new    " width="664" height="1028" xlink:href="2000px-Großes_Stadtwappen_München.svg.png"  transform="matrix(0.1661 0 0 0.1661 344.0796 282.2368)">
</image>
<path id="top-stripes" d="M503.287,124.276L400.279,64.833l0,0c-0.136-0.136-0.271-0.136-0.407-0.136l0,0l0,0h-0.136H399.6
	c-0.136,0-0.271,0-0.407,0c0,0,0,0-0.136,0h-0.136c-0.136,0-0.407,0-0.542,0l0,0l0,0l0,0c-0.136,0-0.271,0.136-0.407,0.136l0,0
	l-101.38,58.493c-1.222,0.679-1.628,2.172-0.95,3.393c0.679,1.223,2.307,1.629,3.393,0.951l90.115-51.98l-38.272,48.858
	c-0.814,1.086-0.678,2.714,0.407,3.528c1.086,0.814,2.714,0.679,3.529-0.406l41.8-53.337v52.114c0,1.357,1.086,2.579,2.579,2.579
	c1.493,0,2.578-1.085,2.578-2.579V74.333l41.801,53.337c0.543,0.678,1.223,0.949,2.035,0.949c0.543,0,1.086-0.136,1.494-0.543
	c1.084-0.814,1.221-2.442,0.406-3.528L409.236,75.69l91.744,52.929c0.406,0.271,0.814,0.271,1.223,0.271
	c0.812,0,1.764-0.407,2.17-1.221C504.916,126.584,504.508,124.956,503.287,124.276L503.287,124.276z"/>
<g id="nodeschool-banner_2_">
	<path d="M295.967,156.99c0.923,0,1.613-0.691,1.613-1.613v-8.183l6.684,8.757c0.46,0.578,0.922,1.039,1.729,1.039h0.113
		c0.922,0,1.729-0.691,1.729-1.73v-12.098c0-0.923-0.69-1.613-1.611-1.613c-0.923,0-1.613,0.69-1.613,1.613v7.834l-6.452-8.527
		c-0.463-0.574-0.923-1.035-1.729-1.035h-0.347c-0.922,0-1.729,0.691-1.729,1.729v12.1
		C294.355,156.299,295.045,156.99,295.967,156.99L295.967,156.99z"/>
	<path d="M325.055,157.104c4.723,0,8.181-3.572,8.181-7.835l0,0c0-4.379-3.341-7.835-8.064-7.835s-8.183,3.571-8.183,7.835l0,0
		C316.989,153.646,320.331,157.104,325.055,157.104z M320.561,149.27c0-2.65,1.844-4.725,4.609-4.725
		c2.649,0,4.606,2.188,4.606,4.84l0,0c0,2.65-1.842,4.724-4.606,4.724C322.405,153.994,320.561,151.918,320.561,149.27
		L320.561,149.27z"/>
	<path d="M343.967,156.873h4.264c4.84,0,8.066-3.341,8.066-7.604l0,0c0-4.264-3.342-7.605-8.066-7.605h-4.264
		c-0.921,0-1.729,0.692-1.729,1.729v11.754C342.355,156.182,343.046,156.873,343.967,156.873z M345.696,144.66h2.535
		c2.768,0,4.609,1.844,4.609,4.609l0,0c0,2.65-1.843,4.609-4.609,4.609h-2.535V144.66L345.696,144.66z"/>
	<path d="M366.026,156.873h8.525c0.809,0,1.5-0.69,1.5-1.496c0-0.808-0.691-1.5-1.5-1.5h-6.914v-3.226h5.763
		c0.808,0,1.498-0.692,1.498-1.498c0-0.807-0.69-1.499-1.498-1.499h-5.763v-3.111h6.801c0.806,0,1.496-0.691,1.496-1.496
		c0-0.808-0.691-1.5-1.496-1.5h-8.412c-0.922,0-1.729,0.691-1.729,1.729v11.869C364.413,156.182,365.104,156.873,366.026,156.873
		L366.026,156.873z"/>
	<path d="M384.697,155.26c1.729,1.27,3.688,1.845,5.762,1.845c3.341,0,5.646-1.728,5.646-4.726l0,0c0-2.649-1.728-3.801-4.839-4.608
		c-2.649-0.69-3.342-1.037-3.342-1.959l0,0c0-0.69,0.691-1.381,1.959-1.381c1.037,0,2.073,0.345,3.227,1.036
		c0.23,0.115,0.576,0.229,0.809,0.229c0.923,0,1.611-0.69,1.611-1.498c0-0.69-0.346-1.151-0.688-1.383
		c-1.385-0.921-2.998-1.383-4.842-1.383c-3.111,0-5.301,1.844-5.301,4.608l0,0c0,2.996,1.958,3.918,5.069,4.609
		c2.535,0.691,3.111,1.036,3.111,1.958l0,0c0,0.922-0.808,1.384-2.189,1.384c-1.497,0-2.766-0.576-3.918-1.384
		c-0.229-0.114-0.576-0.345-0.922-0.345c-0.921,0-1.612,0.691-1.612,1.498C384.005,154.569,384.351,155.03,384.697,155.26
		L384.697,155.26z"/>
	<path d="M411.014,157.104c2.418,0,4.031-0.692,5.416-1.958c0.344-0.23,0.576-0.691,0.576-1.152c0-0.808-0.691-1.498-1.613-1.498
		c-0.348,0-0.689,0.114-1.037,0.344c-0.924,0.807-1.846,1.154-3.342,1.154c-2.65,0-4.379-2.189-4.379-4.841l0,0
		c0-2.649,1.844-4.725,4.379-4.725c1.152,0,2.189,0.347,3.111,1.038c0.229,0.115,0.576,0.345,1.037,0.345
		c0.92,0,1.609-0.69,1.609-1.612c0-0.576-0.344-1.037-0.689-1.383c-1.268-0.921-2.766-1.498-5.068-1.498
		c-4.725,0-7.953,3.572-7.953,7.835l0,0C403.293,153.646,406.635,157.104,411.014,157.104z"/>
	<path d="M427.352,156.99c0.924,0,1.729-0.691,1.729-1.73v-4.608h6.225v4.608c0,0.922,0.691,1.73,1.729,1.73
		c0.924,0,1.729-0.691,1.729-1.73v-12.098c0-0.923-0.691-1.729-1.729-1.729c-0.922,0-1.729,0.69-1.729,1.729v4.492h-6.225v-4.492
		c0-0.923-0.689-1.729-1.729-1.729c-0.922,0-1.727,0.69-1.727,1.729v12.098C425.625,156.299,426.314,156.99,427.352,156.99z"/>
	<path d="M453.293,157.104c4.725,0,8.064-3.572,8.064-7.835l0,0c0-4.379-3.342-7.835-8.064-7.835c-4.727,0-8.182,3.571-8.182,7.835
		l0,0C445.227,153.646,448.566,157.104,453.293,157.104z M448.684,149.27c0-2.65,1.844-4.725,4.609-4.725
		c2.648,0,4.609,2.188,4.609,4.84l0,0c0,2.65-1.846,4.724-4.609,4.724C450.645,153.994,448.684,151.918,448.684,149.27
		L448.684,149.27z"/>
	<path d="M475.52,157.104c4.723,0,8.182-3.572,8.182-7.835l0,0c0-4.379-3.342-7.835-8.064-7.835c-4.725,0-8.182,3.571-8.182,7.835
		l0,0C467.453,153.646,470.795,157.104,475.52,157.104z M470.91,149.27c0-2.65,1.844-4.725,4.607-4.725
		c2.65,0,4.609,2.188,4.609,4.84l0,0c0,2.65-1.844,4.724-4.609,4.724C472.867,153.994,470.91,151.918,470.91,149.27L470.91,149.27z"
		/>
	<path d="M494.316,156.932h7.836c0.805,0,1.496-0.691,1.496-1.497c0-0.808-0.691-1.499-1.496-1.499h-6.223v-10.602
		c0-0.92-0.693-1.729-1.73-1.729c-0.922,0-1.729,0.691-1.729,1.729v11.869C492.586,156.239,493.395,156.932,494.316,156.932
		L494.316,156.932z"/>
</g>
</svg>
