<?xml version="1.0" encoding="utf-8"?>
<!-- Generator: Adobe Illustrator 22.1.0, SVG Export Plug-In . SVG Version: 6.00 Build 0)  -->
<svg version="1.1" id="Layer_1" xmlns="http://www.w3.org/2000/svg" xmlns:xlink="http://www.w3.org/1999/xlink" x="0px" y="0px"
	 viewBox="0 0 128 32" style="enable-background:new 0 0 128 32;" xml:space="preserve">
<style type="text/css">
	.st0{fill:#37474D;}
	.st1{fill:#C93F1F;}
	.st2{fill:#F39200;}
	.st3{fill:#007DB0;}
</style>
<g>
	<polygon class="st0" points="67.5,10.3 72.3,10.3 75.9,20 76,20 79.3,10.3 83.7,10.3 78.1,24.6 73.4,24.6 	"/>
	<path class="st0" d="M50.3,13.8h-4.3v4.7c0,0.4,0,0.7,0.1,1.1c0,0.3,0.1,0.6,0.3,0.8c0.1,0.2,0.4,0.4,0.7,0.5
		c0.3,0.1,0.7,0.2,1.2,0.2c0.3,0,0.6,0,1-0.1c0.4,0,0.7-0.2,1-0.3v3.7c-0.5,0.2-1.1,0.3-1.7,0.4c-0.6,0.1-1.1,0.1-1.7,0.1
		c-0.8,0-1.6-0.1-2.3-0.2c-0.7-0.2-1.3-0.4-1.8-0.7c-0.5-0.3-0.9-0.8-1.2-1.3c-0.3-0.5-0.4-1.2-0.4-2v-6.8h-3.1v-3.5h3.1V6.1h4.8
		v4.2h4.3V13.8z"/>
	<path class="st0" d="M51.6,10.3h4.4v2.3H56c0.5-0.9,1-1.5,1.7-2c0.6-0.4,1.5-0.7,2.4-0.7c0.3,0,0.5,0,0.8,0c0.3,0,0.5,0.1,0.7,0.1
		v4c-0.3-0.1-0.6-0.2-0.9-0.2c-0.3,0-0.6-0.1-1-0.1c-0.8,0-1.5,0.1-2,0.4c-0.5,0.2-0.9,0.6-1.1,1c-0.3,0.4-0.4,0.9-0.5,1.5
		c-0.1,0.6-0.1,1.2-0.1,1.9v5.9h-4.4V10.3z"/>
	<path class="st0" d="M64.8,8.9c0.6,0,1.2-0.2,1.6-0.7c0.5-0.5,0.7-1,0.7-1.6c0-0.6-0.2-1.2-0.7-1.6c-0.5-0.5-1-0.7-1.6-0.7
		c-0.6,0-1.2,0.2-1.6,0.7c-0.5,0.5-0.7,1-0.7,1.6c0,0.6,0.2,1.2,0.7,1.6C63.6,8.6,64.1,8.9,64.8,8.9z"/>
	<rect x="62.6" y="10.3" class="st0" width="4.4" height="14.2"/>
	<path class="st0" d="M91.2,18.3c-0.3,0-0.7,0-1.2,0c-0.5,0-1,0.1-1.4,0.2c-0.5,0.1-0.9,0.3-1.2,0.6c-0.3,0.3-0.5,0.7-0.5,1.1
		c0,0.5,0.2,0.9,0.7,1.2c0.4,0.3,0.9,0.4,1.4,0.4c0.4,0,0.8-0.1,1.2-0.2c0.4-0.1,0.8-0.3,1.1-0.5c0.3-0.2,0.6-0.5,0.7-0.8
		c0.2-0.3,0.3-0.7,0.3-1.2v-0.9H91.2z M92.2,22.8L92.2,22.8c-0.5,0.8-1.2,1.3-2,1.6c-0.8,0.3-1.7,0.5-2.6,0.5
		c-0.7,0-1.3-0.1-1.9-0.3c-0.6-0.2-1.2-0.5-1.6-0.8c-0.5-0.4-0.8-0.8-1.1-1.4c-0.3-0.5-0.4-1.2-0.4-1.9c0-0.8,0.2-1.5,0.5-2.1
		c0.3-0.6,0.7-1,1.2-1.4c0.5-0.4,1.1-0.7,1.8-0.9c0.7-0.2,1.4-0.4,2.1-0.5c0.7-0.1,1.4-0.2,2.1-0.2c0.7,0,1.4,0,2,0
		c0-0.8-0.3-1.4-0.8-1.9c-0.6-0.5-1.2-0.7-2-0.7c-0.7,0-1.4,0.2-2,0.5c-0.6,0.3-1.1,0.7-1.6,1.2l-2.3-2.4c0.8-0.8,1.8-1.3,2.9-1.7
		c1.1-0.4,2.2-0.6,3.4-0.6c1.3,0,2.3,0.2,3.2,0.5c0.8,0.3,1.5,0.8,2,1.4c0.5,0.6,0.8,1.4,1,2.3c0.2,0.9,0.3,2,0.3,3.1v7.2h-4V22.8z"
		/>
	<path class="st0" d="M126.5,14.4c-0.4-0.9-0.9-1.7-1.5-2.4c-0.6-0.7-1.4-1.2-2.3-1.5c-0.9-0.4-1.8-0.5-2.8-0.5
		c-1,0-1.9,0.2-2.8,0.5c-0.9,0.4-1.6,0.9-2.3,1.5c-0.6,0.7-1.2,1.4-1.5,2.4c-0.4,0.9-0.6,1.9-0.6,3.1s0.2,2.2,0.6,3.1
		c0.4,0.9,0.9,1.7,1.5,2.4c0.6,0.7,1.4,1.2,2.3,1.5c0.9,0.4,1.8,0.5,2.8,0.5c1,0,1.9-0.2,2.8-0.5c0.9-0.3,1.6-0.9,2.3-1.5
		c0.6-0.7,1.2-1.4,1.5-2.4c0.4-0.9,0.6-1.9,0.6-3.1S126.9,15.3,126.5,14.4z M122.3,20c-0.6,0.7-1.3,1-2.3,1c-1,0-1.8-0.3-2.3-1
		c-0.6-0.7-0.8-1.5-0.8-2.6s0.3-1.9,0.8-2.6c0.6-0.7,1.3-1,2.3-1c1,0,1.8,0.3,2.3,1c0.6,0.7,0.8,1.5,0.8,2.6S122.8,19.4,122.3,20z"
		/>
	<path class="st0" d="M108,10.4v1.9l0,0c0,0-0.3-0.5-0.6-0.7c-0.3-0.3-0.6-0.5-1.1-0.7c-0.4-0.2-0.9-0.4-1.4-0.5
		c-0.5-0.1-1.1-0.2-1.7-0.2c-1,0-1.9,0.2-2.7,0.6c-0.8,0.4-1.5,0.9-2,1.7c-0.5,0.7-0.8,1.4-1,2.4c-0.2,0.9-0.3,1.8-0.3,2.8
		c0,1.1,0.2,2.1,0.4,3c0.3,0.9,0.6,1.6,1.1,2.3c0.6,0.7,1.4,1.2,2.2,1.5c0.9,0.4,1.8,0.5,2.9,0.5c0.7,0,1.4-0.2,2.1-0.4
		c0.8-0.3,1.5-0.8,1.7-1.5l0,0v1.4c0,1-0.2,1.8-0.8,2.5c-0.6,0.7-1.5,1-2.9,1c-0.9,0-1.5,0-2.4-0.2c-0.8-0.2-1.8-0.6-2.5-1.1
		l-2.1,3.1c1.1,0.8,2.2,1.3,3.4,1.7c1.2,0.3,2.5,0.4,3.7,0.4c2.8,0,4.8-0.7,6.1-2.1c1.4-1.4,1.9-3.4,1.9-6.1V10.4H108z M107,20
		c-0.6,0.7-1.3,1-2.3,1c-1,0-1.8-0.3-2.3-1c-0.6-0.7-0.8-1.5-0.8-2.6s0.3-1.9,0.8-2.6c0.6-0.7,1.3-1,2.3-1c1,0,1.8,0.3,2.3,1
		c0.6,0.7,0.8,1.5,0.8,2.6S107.5,19.4,107,20z"/>
</g>
<g>
	<path class="st1" d="M12.2,27.2C-0.5,20.8,1.4,9.4,4.7,4.3C3.8,5.2,3,6.2,2.2,7.3l0,0v0l0,0C1.3,8.8-0.9,12.9,0.4,18
		c1.2,5.1,4.8,8.6,7.7,10.5c4.6,3,9.1,3.7,12.2,3.5c4.7-0.3,7.8-3,9.4-5.5c0.9-1.5,1.4-2.9,1.5-3.4C30.7,23.8,24.7,33.4,12.2,27.2z"
		/>
	<path class="st2" d="M20.7,26.9c-0.2,0-0.4,0-0.7,0.1c-2.6,0-5.5-0.9-7.5-1.9c-1.5-0.8-3.5-2.1-5-4.1C0,11.3,9.8,1.4,12.5,0.2
		c-0.5,0.1-1.1,0.2-1.8,0.4c-1.6,0.5-3.9,1.7-6,3.7C4.4,4.7,4.1,5.2,3.8,5.6l0,0l0,0l0,0C2.8,7.1,0.8,11,1.9,16
		c1.2,5,4.7,8.4,7.5,10.2c4.5,3,8.8,3.6,11.9,3.4c4.6-0.3,7.6-3,9.1-5.3c0.3-0.4,0.5-0.8,0.7-1.2c0-0.2,0.1-0.3,0.1-0.3
		c0.1-0.4,0.2-1.2,0.3-1.4c0.3-2,0.1-4-0.2-5.7C30.8,19.2,28,26.2,20.7,26.9z M6.5,19.1L6.5,19.1L6.5,19.1L6.5,19.1z M20.1,26.9
		L20.1,26.9L20.1,26.9L20.1,26.9z"/>
	<path class="st3" d="M28.9,9.6c-0.3-0.5-0.7-1.1-0.7-1.2c-0.4-0.5-0.8-1.1-1.1-1.5c-0.8-1-2.2-1.1-3.2-0.3c-1,0.8-1.1,2.2-0.4,3.2
		c0.9,1.1,1.4,2,2,3.4c0.3,0.6,0.8,2,1.1,3.7c0.2,1.5,0.4,4.5-1.2,6.9c-0.5,0.8-1.8,2.5-4.3,3l0,0c-0.1,0-0.3,0.1-0.5,0.1
		c0.3,0,0.5,0,0.8,0c4-0.3,6.7-2.6,8-4.7c1-1.6,1.4-3.2,1.4-3.2c0.1-0.4,0.2-1,0.2-1.2c0.1-0.7,0.2-1.4,0.1-2.1
		c-0.2-0.8-0.3-1.5-0.5-2.1C30.3,12.1,29.6,10.8,28.9,9.6z"/>
	<path class="st3" d="M6.5,19.1c-0.3-0.7-0.6-1.5-0.8-2.3c-0.3-1.1-0.4-4.1,1.3-6.6c1.9-2.7,4-4.4,8.9-4.5c1.6,0,2.8-0.8,3-2.4
		c0.2-1.6-0.9-3-2.6-3.2C15.7,0,15.1,0,14.5,0l0,0l0,0c0,0-0.8,0-2,0.2C10.5,1,7.8,2.8,6,5.7l0,0v0l0,0C5.2,7,3.3,10.4,4.4,14.9
		c0.6,2.5,1.8,4.5,3.2,6.1C7.2,20.4,6.8,19.8,6.5,19.1z M6.5,19.1L6.5,19.1L6.5,19.1L6.5,19.1z"/>
</g>
</svg>
