<svg xmlns="http://www.w3.org/2000/svg" viewBox="0 0 1366 768"><defs><style>.cls-1{fill:#e6be00;}.cls-2{fill:#fff;}</style></defs><title>slide-1</title><g id="whiskey"><rect class="cls-1" width="1366" height="768"/></g><g id="content"><path class="cls-2" d="M644.69,139.24q-12.2,31.13-26.49,61.36c-4.52,9.56-8.92,19.36-14.46,28.39-2.33,3.81-6.49,7.59-11.08,4.5s-3.46-10.91-3.2-15.62c.16-3-6.41-8.88-6.64-4.73-.57,10.4.64,22.45,11.18,27.66,11.55,5.72,16.91-6.79,21.25-15.22A862.1,862.1,0,0,0,651,145.39c1.17-3-5-9.37-6.26-6.15Z"/><path class="cls-2" d="M607.17,162c.44-4.54,6.46-6.33,10-7.84q8.21-3.51,16.56-6.68,15.64-6,31.69-10.87l-5.38-5.36-.86,1c-2.68,2,2.69,9.19,5.42,7.19,2-1.44,2.18-2.85,2-5.2-.14-1.94-3-6.09-5.38-5.36q-18.76,5.76-37,13c-5.43,2.15-11,4.24-16.23,6.77-3.81,1.83-7,4.21-7.43,8.65-.29,3,6.23,8.93,6.64,4.73Z"/><path class="cls-2" d="M678.18,139.09A337.26,337.26,0,0,0,644.71,225c-.58,2.4,4.43,8.58,6.44,5.44l18.7-29.19q4.53-7.1,9.08-14.18c2.43-3.77,5-8.28,10-8.3l-5.41-6.22c-3,11.33-6.2,22.63-9.09,34-2,8-1.09,17.38,7.14,21.63s17.21-6.63,22.76-11.48a285.23,285.23,0,0,0,23.24-22.76c5.11-5.6,12.35-13,4.29-19.71-6.22-5.17-16.1-.69-21.56,3.59-14.24,11.16-19.8,31.78-8.23,46.76,5.27,6.83,15,13.5,23.59,8.66C734.77,228.1,741,216.58,744,207c1-3.07-5.26-9.31-6.26-6.15A51,51,0,0,1,725,222.27c-3.75,3.66-8,6.33-13.34,3.88a16.36,16.36,0,0,1-8.24-9c-3.15-8.24.23-17.54,5-24.41a34.92,34.92,0,0,1,9.1-9.12c3.77-2.53,7.16-2.72,11.26-3.89q2.24.06-.51-.36a15.64,15.64,0,0,1-2.5,3.28c-1.57,1.83-3.2,3.61-4.84,5.38q-4.59,5-9.43,9.74-9.66,9.52-20.18,18.09c-2.09,1.7-8.09,7.92-10.94,4.87-2.49-2.67,1.36-12.06,2.15-15l7.62-28.53c.72-2.7-2.9-6.24-5.41-6.22-4.2,0-7.1,2.75-9.48,6-3.47,4.68-6.4,9.84-9.54,14.74L644.9,224.25l6.44,5.44a332.66,332.66,0,0,1,33.09-84.44c1.55-2.77-4.46-9.36-6.25-6.16Z"/><path class="cls-2" d="M316.74,353.44l51.67-70.16c6.42-8.71,16.14-19.25,13.84-31.06-1.58-8.13-10.64-17.38-17.78-8.95-15.61,18.45-26,42.51-32,65.72-2.87,11.12-5.45,23.16-5.07,34.7.29,8.79,4,19.92,13.3,23,6.29,2.08,10-3,13-7.76a142,142,0,0,0,9.6-18.48,151.68,151.68,0,0,0,11.07-40.8c.33-2.58-2.65-6.5-5.41-6.22-5.83.57-8.66,6.59-7.8,12,.93,5.87,6,10.83,11.67,12.18,17.73,4.21,23.13-18.35,31.1-28.87l-6.25-6.16a271.65,271.65,0,0,0-11.28,36,172.55,172.55,0,0,0-3.62,18.16c-.56,4.61.27,8.94,4,12,8,6.64,15-4.83,18.54-10.6L427,302.93l-6.26-6.16a84.3,84.3,0,0,0-6.46,49.32c.25,1.53,3.86,7.36,6,5.1,14.07-14.94,25-32.31,35.67-49.7L449.47,296a305.1,305.1,0,0,0-5.57,40c-.13,1.79,3.76,8.48,6,6a389.58,389.58,0,0,0,35.27-45.56L478.74,291l-5.64,26.51c-1.26,6-3,12.37,1.68,17.35,5,5.34,9.37,1.34,13.28-3A111.28,111.28,0,0,0,502,312.27l-6.45-5.45c-.21,7.1-.71,14.26-.58,21.36.09,4.84,2,9.42,6.15,12.19,9.89,6.66,18-3.07,22.27-11.11,1.5-2.81-4.54-9.37-6.26-6.16-2.19,4.11-8.09,14.8-14.55,11.35-2-1.08-.83-8.14-.76-10.35l.37-12.55c.06-2-4.45-9-6.44-5.44a108.1,108.1,0,0,1-9.08,13.74c-1.83,2.32-3.75,4.58-5.79,6.72-.66.7-2.28,1.75-2.64,2.54-.18.4-.59,4.61,0,1.12,2-11.55,4.7-23,7.14-34.49.51-2.4-4.36-8.59-6.45-5.44a380.19,380.19,0,0,1-34.42,44.52l6,6a308.12,308.12,0,0,1,5.57-40c.49-2.37-4.46-8.66-6.44-5.45-10.48,17-21.08,34.06-34.84,48.67l6,5.1A78.6,78.6,0,0,1,427,302.93c1.25-2.74-4.25-9.42-6.26-6.16L404.2,323.64c-2.41,3.91-4.78,7.85-7.22,11.75-.8,1.28-6.29,9.41-8.74,7.62,1.36,1,1.62-4.44,1.75-5.2.43-2.44.9-4.86,1.4-7.28.87-4.23,1.85-8.45,2.94-12.63a260.82,260.82,0,0,1,9.55-29.21c1.06-2.72-3.83-9.35-6.25-6.16-5.85,7.72-8.26,18.36-16.08,24.5-3,2.35-8.78,4.86-12.49,2.5-4-2.54.58-8.06,4-8.41l-5.41-6.21A146.2,146.2,0,0,1,347.85,352c-2.24,3.69-6.81,11-11.38,5.33-2.76-3.43-2.64-9.2-2.44-13.35a149.28,149.28,0,0,1,4.62-28.63A179.36,179.36,0,0,1,362,261.66a119.7,119.7,0,0,1,7.83-11.13c1.86-2.26,5.36-4.23,6.07.11.47,2.9-.82,6.22-2,8.79-4.2,9.34-11.62,17.48-17.65,25.67l-45.8,62.18c-1.82,2.48,4,9.23,6.26,6.16Z"/><path class="cls-2" d="M520.58,293.62A578.24,578.24,0,0,1,498.88,391l6.44,5.44a179.94,179.94,0,0,1,21.95-70.79,80.61,80.61,0,0,1,9.63-13.94,53.07,53.07,0,0,1,5.67-5.55,35.53,35.53,0,0,1,3.15-2.42c1.07-.71,3.43-1.07,2.1-2.59,1.35,1.54.61,6.64.38,8.61a18.52,18.52,0,0,1-3.29,9c-3.2,4.35-8.47,6.65-13.74,5.21l3.45,7.69c24.5-.24,47.11-17.58,53.69-41.18.73-2.61-3.77-9.55-6.25-6.16-8.64,11.8-10.37,27-5.52,40.65.73,2.08,3.23,5.27,5.75,4.15,17.41-7.75,29.09-23.22,40.11-38.14L616,285.49a448.88,448.88,0,0,1-35.29,93.21q-5.58,10.89-11.75,21.47c-3.83,6.57-7.75,14.49-14.14,19-.57.4-2.79,2.08-3.45,1.63-.85-.59.46-5.08.64-5.67a26.16,26.16,0,0,1,5.77-9.71c4.88-5.46,11.09-9.64,17-13.95l49.94-36.62c2.69-2-2.68-9.19-5.41-7.19L566.87,386c-10.29,7.54-28.43,21.06-20.65,36.16,9.62,18.68,25.24-9.45,29.86-17.44a448.21,448.21,0,0,0,26-52.8,458.79,458.79,0,0,0,20.47-61.73c.64-2.49-4.25-8.42-6.45-5.44-10.78,14.61-22.24,29.52-39.27,37.1l5.75,4.15c-4.3-12.16-1.86-25.29,5.69-35.6l-6.25-6.16a54.79,54.79,0,0,1-51.63,39.64c-1.87,0-1.07,2.95-.72,3.8a6.67,6.67,0,0,0,4.17,3.89c14,3.83,21.74-10.83,21.06-22.72-.3-5.25-1.64-12.43-7.5-14.23-5.67-1.75-12.12,5.66-15.42,9.27-10.17,11.16-16.88,25.61-22.16,39.6a188.6,188.6,0,0,0-11.17,48.18c-.22,2.24,5.36,8.87,6.44,5.44a586,586,0,0,0,22.09-98.79c.4-3-6.07-9-6.64-4.73Z"/><path class="cls-2" d="M1010.37,237a181.1,181.1,0,0,0-22.12,34.89A177.16,177.16,0,0,0,980.37,291c-2.06,6-4.42,12.37-4.52,18.75-.2,12.11,8.84,19,19.83,21.19,11.72,2.38,25.8,1.17,31.77-10.76,1.43-2.86-4.64-9.38-6.25-6.16-5.15,10.29-17.26,11.32-27.38,9.41-5.83-1.09-11.57-2.68-11.33-9.7.19-5.39,2.14-10.71,3.86-15.76a180.2,180.2,0,0,1,30.27-54.84c1.9-2.36-3.84-9.15-6.25-6.15Z"/><path class="cls-2" d="M971.7,275.42c3.53,3.76,7.87,4.55,12.86,4.4,8-.24,15.32.11,23,2.77,4.9,1.71,1.88-6.12-1.08-7.15a59.8,59.8,0,0,0-17.07-3.52c-4-.18-12.38,1.95-15.37-1.23-1-1.12-3.16-2.29-4.28-.71s1,4.42,2,5.44Z"/><path class="cls-2" d="M1025.15,275.55c-1,11.72-3.8,28,5.59,37.33,10.36,10.25,24.13-.14,29.29-10.54,5.68-11.42,1.93-25-9.48-31.24-12.25-6.65-25.33-.64-33.1,9.75-1.57,2.1,2,5.87,3.67,6.65a13.2,13.2,0,0,0,7,1.31c3.37-.24-.94-7.94-4.19-7.71a5.59,5.59,0,0,1-3.87-.75l3.67,6.65c5.23-7,13.81-12.56,22.86-10.66,10.93,2.29,11.21,12.82,6.53,21.15a26.86,26.86,0,0,1-8.49,9.3c-3.19,2.1-9.55,4.67-12.16.44-2-3.17-1.62-8.16-1.52-11.68.13-5.1.45-10.19.86-15.27.25-3-6.29-8.91-6.63-4.73Z"/><path class="cls-2" d="M144.56,521.66l96.05-130.24-6.25-6.15q-16.56,34.32-31.87,69.22c-4.92,11.21-9.82,22.46-13.91,34-3.76,10.67-7.8,22.45-8.56,33.82-.47,7,1.49,15.57,8,19.39,8.85,5.17,14.81-4.17,19-10.63,13.41-20.87,26.78-41.78,39.56-63.05,14.39-23.94,28-48.35,40.1-73.53,1.38-2.88-4.69-9.39-6.26-6.16a471.78,471.78,0,0,0-18.93,44.58q-4.15,11.38-7.69,23c-2,6.5-5.09,13.85-4.8,20.76a16.69,16.69,0,0,0,8.09,13.82c5.28,3,9.68.62,13.05-3.86,10.25-13.65,19.52-28.14,29.24-42.17l-6.25-6.15Q287,455.17,281,472c-3.22,9-6.14,18.35-2.15,27.55.54,1.27,3.74,6.17,5.75,4.15a322.25,322.25,0,0,0,37.51-45.39L317,456.73c3.21,3.84,0,10.45-1.7,14.31-1.89,4.3-3.89,8.76-3.74,13.55.16,5.48,5.6,16.43,12.74,12.74,3.78-2,6.33-7.2,8.81-10.49l10.5-14,21.59-28.69L358.94,438a240.7,240.7,0,0,0-9.54,29.37c-1.85,7.3-4,15.72,1.66,22,13.14,14.35,31.23-18.2,35.22-27.68L380,455.52c-3.7,9.4-8.13,21.13-6.6,31.4.92,6.26,5.59,15.4,13.26,14.35,4.5-.62,7.36-4.8,9.93-8.11a104.56,104.56,0,0,0,9.06-13.84,109,109,0,0,0,11.23-31.76c.43-2.25-2.35-6.05-4.68-6.2-7.32-.49-12.62,4.86-14.05,11.83-1.65,8,2.83,15.71,9.52,19.91a24.09,24.09,0,0,0,23,.93c9.07-4.38,14.76-13.46,18.9-22.27,1.25-2.66-2.91-8.16-5.83-6.67-12,6.09-23.8,20.64-21.66,34.92.86,5.73,5.35,11.73,11.56,11.86,3.86.08,7.13-2.17,10.39-3.91a14.07,14.07,0,0,1,5-1.88,8.1,8.1,0,0,1,2.6,0q2.42,1,0-1.2c.29,1.48,3.89,7.41,6,5.1a51.23,51.23,0,0,0,13.6-32.16l-1.95,1.48c7.37,1.5,13.85-1.69,20.64-4.1,7.09-2.53,16.27-3.9,18,5.65,1.57,8.61-4,16.7-8.86,23.25-2,2.66-5.52,8.51-9.48,8.4s-3.67-5.88-3.79-8.93-6.79-8.21-6.58-3c.33,8,5,22.34,15.84,19.36,5.42-1.49,9.25-8.09,12.24-12.39,3.64-5.21,6.92-11.09,7.46-17.55.82-9.75-4.69-21.09-14.61-23.92-11.83-3.37-21.88,8-33.6,5.56a1.56,1.56,0,0,0-2,1.47,47.39,47.39,0,0,1-12.39,29.71l6,5.1a11.53,11.53,0,0,0-9.29-9.5c-6.72-1.13-10.63,4.08-16.65,5.48-2.41.55-3,.57-3.7-1.47-.6-1.69.41-5,.87-6.64a37.18,37.18,0,0,1,4.14-9.34,38.6,38.6,0,0,1,15.59-14.12l-5.83-6.67c-5.26,11.18-14,23.8-27.89,23.12-5.85-.29-11.78-3-10.81-9.7.74-5.09,4.76-10.36,10.34-10l-4.67-6.21a104.29,104.29,0,0,1-18.91,42.86c-1.8,2.4-5.28,8-8.87,7.87-3.05-.07-2.78-4.68-2.69-7,.3-8.39,3.44-17.17,6.47-24.89,1.16-2.94-4.88-9.42-6.25-6.15a74.9,74.9,0,0,1-9.89,17.09c-1.78,2.28-12.52,15.67-16.05,12.29-1.21-1.15.56-7,.87-8.33.89-3.92,1.93-7.81,3.06-11.66,2.06-7,4.48-13.92,7.18-20.72,1.08-2.72-3.85-9.35-6.26-6.16l-34.42,45.76c-.76,1-3.24,5.45-4.46,5.57-3.6.35-.9-6.35-.52-7.41,1.28-3.52,3.15-6.8,4.24-10.4,1.89-6.27,1.42-12.58-2.9-17.75-1-1.21-3.64-3.71-5.07-1.61a314.69,314.69,0,0,1-36.68,44.35l5.75,4.15c-3.95-9.12,1.18-19.34,4.29-28l10.18-28.26c1-2.68-4-9.47-6.25-6.15l-22.71,32.77c-2,2.89-8.38,15.58-13.27,12.89-4.68-2.57,1.26-16.45,2.37-20.12a467,467,0,0,1,27.16-69.34l-6.26-6.16c-18.9,39.37-41.54,76.75-64.93,113.57-5.8,9.13-11.35,18.55-17.57,27.4-1.56,2.23-6.78,8.77-10.15,5.54-2.4-2.3-1-9.3-.51-12,3.74-22,13-42.74,21.9-63.07q15.12-34.45,31.48-68.34c1.31-2.72-3.94-9.29-6.25-6.15L138.31,515.51c-1.83,2.47,4,9.22,6.25,6.15Z"/><path class="cls-2" d="M551.46,443.81a44.84,44.84,0,0,0-26.82,17.49c-5.9,8.07-10.71,20.4-4.29,29.51,8.14,11.55,19.82,2.65,27.07-4.7a148.55,148.55,0,0,0,24.13-32.42c1.35-2.44-3.12-8.49-5.84-6.68-11.21,7.5-19.35,21.89-16.6,35.65,1.24,6.22,5.25,12.17,11.35,14.45,6.38,2.38,13.15-.27,18.1-4.44,6.6-5.57,12.12-12.83,17.86-19.27,6.21-7,12.36-14,18.37-21.1,10.1-12,20.17-24.58,22.49-40.56.28-1.93-3.74-8.3-6-5.95a122.61,122.61,0,0,0-25.43,38c-5.31,12.59-11.24,29.59-8,43.35s17.55,20.27,30.61,15.85c14-4.74,21.21-19.11,18-33.28-.44-2-1.82-4.38-3.83-5.08-1.59-.55-3.21.05-2.75,2.07a24.36,24.36,0,0,1-16.35,28.82c-5,1.6-12.52,2.1-16.8-1.64-4.5-3.95-3.12-12.23-2.29-17.47A117.93,117.93,0,0,1,636.67,413l-6-6c-1.85,12.78-9.31,23.54-17.3,33.34-9,11.06-18.58,21.71-28.13,32.33-4.21,4.7-8.26,10-13.33,13.81-4.75,3.59-14.67,6.85-16.32-1.53-2.34-11.93,6.13-24.45,15.57-30.76l-5.84-6.67a143.59,143.59,0,0,1-16.95,24.53c-3.19,3.7-18,21.81-23.41,15.66-2.71-3.07.19-9.7,1.64-12.88a40.66,40.66,0,0,1,7.09-10.73,41.85,41.85,0,0,1,22-12.59c3.54-.77-1-8.39-4.2-7.71Z"/><path class="cls-2" d="M388.08,416.06c3.09-.77,6.77-2.18,6.87-5.92.1-4-3.55-9.56-8-9-2,.26-1.1,3.25-.49,4.31.88,1.53,2.66,3.66,4.69,3.39-.85.12-2.55-2.28-2.5-2.2a6,6,0,0,0-.32-.83c-.13-.13-.16.27-.05.13-.26.35-.16.35-.49.69a7.9,7.9,0,0,1-3.88,1.69c-3.56.9,1.09,8.49,4.19,7.71Z"/><path class="cls-2" d="M1105.6,410.5a10.41,10.41,0,0,0,4.28,6.52c1.43,1,3.49,1.79,5.23,1.22a2.42,2.42,0,0,0,2-2.1,6.6,6.6,0,0,0-1.58-4.48,7.56,7.56,0,0,0-3.59-2.7,2.58,2.58,0,0,0-2.72.4c-1.28,1.46-.29,3.72.77,5.05a6.54,6.54,0,0,0,2.49,2.12c.58.23,1.65.59,2.16,0,.22-.25-.29,0-.57-.07-1.24-.32-1.85-1.34-1.85-3,0-2.48-.56-3.41-1.59-2.76.24,0,.23-.09-.11,0a1.66,1.66,0,0,1-.32,0c.34,0,.4,0,.19,0,0,0-.52,0-.54-.1.43.14.53.17.3.07s-.14-.05.37.23l-.18-.13a4.36,4.36,0,0,1,1,1,4.24,4.24,0,0,1,.84,1.78,7.11,7.11,0,0,0-3.83-5.09c-1.64-.65-3.11.13-2.74,2.07Z"/><path class="cls-2" d="M738.15,427.74a89,89,0,0,0,46.56-6.19c5.62-2.39,14-5.49,16.12-11.92,1.62-5-1.14-10.55-5.42-13.2-1.15-.72-2.51-1.28-3.43,0-8.47,11.69-13.25,25.26-17.17,39-4,14.1-7.32,28.4-10.73,42.66-3.63,15.2-7.38,30.4-12.32,45.24-2.35,7.08-5,14.07-7.94,20.9-2.75,6.29-5.56,12.89-10.28,18-5.14,5.54-12.91,8.66-18.59,2s-8-16.13-7.82-24.82a6.7,6.7,0,0,0-3-5.44c-1.11-.7-3.58-1.49-3.63.71-.31,13.71,5,31.06,17.32,38.73,13.26,8.24,24-5.57,29.27-16.43,15.08-31.38,21.33-66,29.76-99.52,4.78-19,9.73-38.75,21.38-54.84h-3.44c2.64,1.64-9.24,8.84-10.18,9.32a82.52,82.52,0,0,1-16.38,6.16,85.54,85.54,0,0,1-32.8,2c-4.23-.55-.32,7.29,2.72,7.69Z"/><path class="cls-2" d="M819.37,450.27C807,435.85,793.7,452.51,787,463.53a90.2,90.2,0,0,0-10,23.11c-1.55,5.68-1.74,11.75,2.2,16.55,10.86,13.23,25.8-5.92,32.53-14.17a133.13,133.13,0,0,0,23.5-43.22c.86-2.64-4.11-9.59-6.25-6.15a133.73,133.73,0,0,0-15.4,34.53c-2.44,8.65-7,21.1,1.34,28s17.24-4.29,22.07-10.3A130,130,0,0,0,856,459.52c1.2-2.95-4.88-9.4-6.26-6.16a135.12,135.12,0,0,0-5.38,15c-1.21,4.19-2.85,8.82-2.79,13.21.11,7.05,6.11,13.56,13.37,13.42,7.93-.16,14.66-7.7,17.85-14.34a34.11,34.11,0,0,0,3-10.94c.54-4.64.48-9.68,3.63-13.47,2.26-2.7-3.49-9.5-5.42-7.18-3.55,4.26-4.13,9.1-4.7,14.46-.69,6.56-2.56,12.54-7.1,17.5-2.12,2.31-4.84,4.69-7.87,5.67-1.11.36-4.79,1.22-5.74.05s0-3.65.18-4.76A115.84,115.84,0,0,1,856,459.52l-6.26-6.16a129.18,129.18,0,0,1-12.82,24.1,119.09,119.09,0,0,1-9,11.64c-2,2.35-6.39,7.88-10,7.45q-1.77,1.62-1.07-1.29a25.52,25.52,0,0,1,.35-2.75c.35-2.32.87-4.63,1.4-6.91a124.6,124.6,0,0,1,4.33-14.51,134.84,134.84,0,0,1,12.42-25.29L829,439.65a133.3,133.3,0,0,1-14.51,30.84c-6.12,9.55-13.81,20.07-23.16,26.71-2,1.39-5.23,3.69-7.59,2.25s-.68-5.95,0-8.28a89.15,89.15,0,0,1,6.62-16.35,83.21,83.21,0,0,1,10.2-15.46,24.3,24.3,0,0,1,5.66-5.24c2-1.22,7.21-3.29,9.25-.92.92,1.07,3,3.34,4.65,2.13s.11-4-.77-5.06Z"/><path class="cls-2" d="M911.71,455.56c-.6-3.57-3.34-7.69-7.4-7.74-4.29-.05-9.15,5.29-12,8-7.07,6.58-12.1,15.41-10.11,25.34,1.27,6.36,8.28,18.22,16.39,14.35,4.5-2.14,7.19-8.19,9.76-12.14l11.56-17.74-6.44-5.44c-2.21,9.74-5.36,33.63,9.56,35.51,7.17.9,12.63-6.27,16.89-10.92A185.33,185.33,0,0,0,955,466c1.79-2.53-4.06-9.26-6.25-6.15-6.17,8.74-13,17.54-21,24.68-1.53,1.37-3.9,3.49-6.1,3.41-3.28-.11-3-3.48-3.13-6.07a59.92,59.92,0,0,1,1.61-16.93c.54-2.4-4.4-8.59-6.45-5.44L902.07,477.2c-2.52,3.86-11.09,18.16-13.47,6.27-1.23-6.16,1.84-12.46,5.73-17a48.14,48.14,0,0,1,5.81-5.61c1.92-1.61,5.76-5.72,8.52-5l-2.51-1.48.92.88-2.13-3.88.19,1.19c.33,1.94,1.89,4.41,3.83,5.08,1.68.58,3.08-.06,2.75-2.07Z"/><path class="cls-2" d="M966.75,402c-5.64,4.71-6.29,12.69-3.21,19.09a24.93,24.93,0,0,0,18.58,13.41c9.1,1.42,18.8-1.5,27.09-5.1,8.07-3.5,15.57-9.11,18.44-17.77a22,22,0,0,0-4.33-21.86c-5.39-5.83-12.38-5.55-16.51,1.36-4.68,7.81-6.37,18.51-8.26,27.31-2.26,10.51-3.92,21.14-5.91,31.7-2.26,11.95-4.8,24.15-9.53,35.4-.92,2.19-1.88,4.78-4.26,5.72-3.69,1.46-5.77-1.93-7-4.83a36.3,36.3,0,0,1-2.35-19c.36-3-6.12-9-6.64-4.73a45.39,45.39,0,0,0,3.1,23.18c2.28,5.46,6.66,12.13,12.94,13.43,7.72,1.59,10.37-6.92,12.37-12.6a195.67,195.67,0,0,0,6.65-24.79c3.71-17.84,5.81-36.08,11-53.59,1-3.48,2-7.24,3.8-10.44,2.64-4.71,8.51-6.75,9.43.62,1.05,8.42-4.86,15.85-11.51,20.15-7.89,5.11-19.23,9-28.71,8.46-4.33-.23-10.32-1.64-12.64-5.76s-.48-9.34,2.87-12.14c2.62-2.18-2.87-9.31-5.41-7.19Z"/><path class="cls-2" d="M1048.28,441.35c-8-13.68-21.1-.92-27.83,7.14-7.53,9-15.81,22.93-15.05,35.19.32,5.2,3.24,10.71,8.44,12.5,5.87,2,10.7-2.87,14.14-7,5.07-6.06,10.14-12,15.79-17.55,1.52-1.49,3.06-2.94,4.63-4.37.67-.62,1.34-1.23,2-1.83q2.74-1.15-.39-3.06c-.73.21-3.22,10.48-3.69,11.71-1.06,2.75,4.42,9.53,6.25,6.15a128.69,128.69,0,0,0,11.77-30.48l-6.64-4.73c-.46,5.57,4.35,10,9.47,11.25,7.29,1.74,15.34-.21,22-3.25l-5.84-6.67c-6,13.31-11.62,26.94-10.1,41.83.23,2.21,3.39,6.57,6,5.1a49.29,49.29,0,0,0,21.84-25.24c1.17-3-5-9.37-6.25-6.15a46.93,46.93,0,0,1-21,24.2l6,5.11c-1.41-13.7,4.27-26.51,9.78-38.7,1.24-2.75-2.86-8-5.84-6.67a35.18,35.18,0,0,1-10.53,3,29.39,29.39,0,0,1-5.93.14c-1.51-.12-2.76-1.11-2.91.78.22-2.73-5.52-9.2-6.64-4.73a123.44,123.44,0,0,1-11.38,29.06l6.25,6.15c1.76-4.56,4.66-10.61,4.1-15.65-.4-3.62-3.13-7.86-7-8.17-5-.4-10.69,7.37-13.86,10.6-4.41,4.48-8.55,9.2-12.51,14.08-2,2.45-4,5.11-6.85,6.7-.82.46-3.38,1.83-4.3.64-.53-.67,0-3.7.16-4.53a56.76,56.76,0,0,1,6.09-16.9A65.5,65.5,0,0,1,1029,452.13a60.78,60.78,0,0,1,7-6.38,14.71,14.71,0,0,1,4.32-2.65c1.51-.47,3.73.9,2.7-.84.76,1.28,2.84,4,4.69,3.4s1.26-3,.5-4.31Z"/><path class="cls-2" d="M1112.69,453.87a642.2,642.2,0,0,0-18.16,82.24l6.36,2.92c-3.87-9.47-.28-19.42,4.09-28.07a220,220,0,0,1,14.29-23.69,131.75,131.75,0,0,1,7.83-11,7.44,7.44,0,0,1,3.43-2.79,8,8,0,0,1,.31,3.41,14.82,14.82,0,0,1-2.22,6.36c-2.15,3.6-6.3,8-10.14,9.88-5.38,2.64-9.69-2-13-5.62-1-1.14-3.17-2.28-4.28-.71s1,4.4,2,5.44c3.87,4.26,8.9,9.09,15,9.47s11.41-5.31,14.82-9.64c3.7-4.7,5.63-10.69,3.92-16.59-1.22-4.21-4.8-10-9.87-9.7-5.62.36-9.71,9.1-12.49,13.13q-6.66,9.66-12.5,19.85c-6.8,11.89-12.79,25.64-7.24,39.2.61,1.49,5.7,7.29,6.36,2.92A632.47,632.47,0,0,1,1118.94,460c.9-3.09-5.34-9.29-6.25-6.15Z"/><path class="cls-2" d="M1168.12,409a330.47,330.47,0,0,0-17.63,37.59c-4.38,11.15-8.31,22.8-2.84,34.3,2.32,4.89,5.78,9.07,9.4,13.06,3.14,3.45,6.78,7.79,11.58,8.86,5.17,1.16,10-2.47,14.09-5.07a151.35,151.35,0,0,0,15.76-11.48c2.62-2.16-2.86-9.3-5.41-7.18-3.65,3-7.41,5.88-11.32,8.55-3.61,2.47-8.06,6.19-12.35,7.31-5,1.31-8.59-3.94-11.46-7.32-3.67-4.31-6.42-8.88-6.45-14.7-.06-10.19,5.25-20.6,9.2-29.78,4.11-9.54,8.7-18.87,13.68-28,1.52-2.79-4.5-9.36-6.25-6.15Z"/><path class="cls-2" d="M1139.25,442c5.53,2.28,11.41,1.88,17.28,1.95l21.56.26c3.21,0-.94-7.67-4.19-7.71l-17.64-.21c-5.84-.07-12.61.83-18.09-1.45-4.77-2-1.79,6,1.08,7.16Z"/><path class="cls-2" d="M692.13,325.08a182.31,182.31,0,0,1,18.62-22.5q4.92-5,10.21-9.68c2.9-2.54,7.94-8.47,12.16-7.52l-4.49-6.92L717,311.24l-5.64,15.93c-1.49,4.2-3.34,8.28-2.34,12.79.36,1.6,3.67,7.25,6,5.1,5.18-4.81,6.33-12.51,8-19.06,2.26-8.86,4-17.82,5.42-26.85l-3.63.71c8.74,5.45,19.72,5.5,27.7-1.47,2.57-2.25-2.95-9.34-5.42-7.19-5.9,5.16-14.75,6.81-21.66,2.51-1.29-.8-3.3-1.41-3.63.71-1.19,7.79-2.66,15.52-4.51,23.18-1.53,6.38-2.6,15.56-7.69,20.27l6,5.1c-1.07-4.76,2.43-10.83,4-15.27l5-14.05,10.3-29c1-2.71-1.87-6.33-4.49-6.92-4.71-1.06-8.14,2.34-11.51,5.16q-6.42,5.36-12.32,11.29a189.94,189.94,0,0,0-20.69,24.78c-1.78,2.54,4.07,9.26,6.25,6.16Z"/><path class="cls-2" d="M773.28,284.42a59.6,59.6,0,0,0-23,33.12c-1.49,5.66-2,11.72,1.63,16.72,3.3,4.54,8.51,6.17,13.59,3.64,12-6,17.67-24.07,17.76-36.51,0-5.81-.3-12.67-4.48-17.17-3.52-3.8-9.23-4.05-10.5,1.89-1.2,5.61,3.37,11.69,8,14.3,7,3.92,14.33.08,20.45-3.61,2.75-1.66-2.44-9-5.41-7.19-3.54,2.13-10.76,6.95-15,4.25-1.79-1.13-1.62-2.14-.83-3.79.62-1.3.41-1.75.7.34a44.66,44.66,0,0,1,.42,7.84c-.42,10.17-4.26,20.84-11.26,28.38a16.15,16.15,0,0,1-5.61,4.19c-3,1.22-4.17.28-3.92-3,.34-4.59,2.14-9.3,4-13.46a57.06,57.06,0,0,1,18.87-22.75c2.69-1.94-2.66-9.17-5.42-7.19Z"/><path class="cls-2" d="M832.62,294.69c1.9-4.62-1.21-9.69-5.28-12.05-5.58-3.24-10.9.93-14.9,4.73a62.76,62.76,0,0,0-18.32,33.52c-1.08,5.65-.48,11.27,4.34,15.06,5.73,4.49,9.64-.87,13.43-5,5.35-5.83,10.89-11.56,15.93-17.66,4-4.82,7.13-10,7.37-16.38.08-2.19-4.17-8.8-6.45-5.44-6.52,9.63-12.75,24.93-9.11,36.73,2.93,9.49,17.48,15.84,21.7,3.67,1.06-3.05-5.14-9.34-6.25-6.15-.89,2.58-4.16,6.72-7.51,5.13-3.73-1.77-1.76-9.9-1.2-12.91A54,54,0,0,1,835,297.64l-6.45-5.44c-.34,9-7.43,15.49-13.08,21.72q-4.49,4.95-9,9.86c-1.4,1.52-3,4.11-4.82,5.17-2.89,1.71-1.43-.34-1-2.56a58.81,58.81,0,0,1,8.72-21.58,57.24,57.24,0,0,1,7.41-9.16,38.49,38.49,0,0,1,4.61-4.14c1.3-.95,4.5-1.71,5-3-1.22,3,4.94,9.37,6.25,6.15Z"/><path class="cls-2" d="M884.58,287.43c-2.54-6.23-8.61-10.56-15.42-8.14s-12.66,9.27-16.71,15.1c-6,8.66-17,32.57-3,39.38,7,3.43,13.85-4.84,18.14-9.2a178.42,178.42,0,0,0,41.34-66.49c.78-2.2-3.28-9.13-5.83-6.67-10.36,10-15.29,25.35-20.47,38.45q-4.54,11.47-8.43,23.18c-2.06,6.21-4.81,13-3.79,19.66,1.81,11.84,14.14,17.93,25.14,15.3a28.1,28.1,0,0,0,21-23.71c.39-3-6.08-9-6.63-4.73a25,25,0,0,1-17.19,20.37c-4,1.22-10.46,1.95-13.89-1.08-4.51-4-.46-13.19,1.06-17.85q5.46-16.68,12.24-32.89c4.26-10.2,8.31-21.68,16.41-29.51l-5.83-6.67a176.67,176.67,0,0,1-39.34,64.26c-2.12,2.2-4.28,4.36-6.54,6.42a22.28,22.28,0,0,1-2.91,2.39,31.94,31.94,0,0,1-4.27,2.28c-.82-.42.88-7.82,1.08-8.7a48.71,48.71,0,0,1,2.84-8.71,51.41,51.41,0,0,1,9.52-14.74,45.63,45.63,0,0,1,6.85-6.1,13.7,13.7,0,0,1,4.9-2.49c1.13-.24,4,.47,3.69-.21.65,1.59,2.37,4.39,4.4,4.39s2.36-1.61,1.68-3.29Z"/></g></svg>