<svg xmlns="http://www.w3.org/2000/svg" width="716.572" height="95.586" viewBox="0 0 716.5722656 95.5859375" enable-background="new 0 0 716.5722656 95.5859375"><g fill="#CA5430"><path d="M430.178 73.007c-2.616 0-4.577-1.963-4.577-4.579 0-2.534 2.043-4.496 4.577-4.496 2.698 0 4.578 1.962 4.578 4.496 0 2.616-1.962 4.579-4.578 4.579zM491.741 72.025h-4.987l-14.88-39.243-14.88 39.243h-4.904l-11.038-50.362h7.194l7.767 38.345 13.654-38.345h5.068l13.817 38.345 7.685-38.345h6.704l-11.2 50.362zM537.284 72.925c-17.905 0-22.647-13.816-22.647-25.182 0-12.1 5.724-26.979 23.709-26.979 17.17 0 22.729 13.407 22.729 25.099 0 12.918-5.478 27.062-23.791 27.062zm.816-46.602c-13.081 0-16.27 11.937-16.27 21.175 0 9.648 3.516 19.786 15.697 19.786 12.265 0 16.352-10.384 16.352-21.094 0-9.075-3.271-19.867-15.779-19.867zM590.102 21.663c13.98 0 20.438 5.15 20.438 13.98 0 7.276-4.332 11.69-10.955 14.063l13.735 22.318h-8.503l-11.772-20.766c-2.616.327-5.396.49-8.258.408v20.357h-6.867v-50.362h12.182zm-5.314 24.364c9.729.245 18.478-2.126 18.478-10.22 0-5.642-4.251-8.667-13.245-8.585l-5.232.082v18.723zM648.561 42.838l21.993 29.188h-9.403l-16.841-24.609-6.214 6.868v17.741h-6.867v-50.362h6.867v24.282l20.766-24.282h8.994l-19.295 21.175zM694.593 72.925c-5.887 0-11.446-1.554-15.615-3.352l1.962-6.296c5.15 2.534 10.056 3.925 14.145 3.925 5.478 0 10.056-2.453 10.056-7.767 0-12.02-24.364-9.893-24.364-26.244 0-8.994 7.357-12.427 15.615-12.427 3.598 0 7.931.735 12.836 2.289l-1.717 5.804c-4.169-1.717-8.094-2.452-11.037-2.452-5.15 0-8.829 2.045-8.829 6.541 0 11.037 24.526 9.074 24.526 26.243 0 10.384-9.074 13.735-17.577 13.735z"/></g><g fill="#010102"><path d="M10.038 90.864h9.416v-21.842c0-2.522-.194-4.271-.194-4.271h.194s4.175 7.863 15.046 7.863c12.814 0 22.326-10.096 22.326-25.722 0-15.243-8.444-25.725-21.645-25.725-12.232 0-16.31 8.736-16.31 8.736h-.193s.096-1.168.096-2.623c0-3.104-1.649-4.949-6.018-4.949h-8.834v8.058h3.98c1.359 0 2.136.678 2.136 2.135v58.339zm9.126-43.779c0-12.521 6.891-17.668 14.171-17.668 8.155 0 13.881 6.895 13.881 17.572 0 11.164-6.408 17.569-14.174 17.569-9.124 0-13.879-8.735-13.879-17.474m157.076 24.365h9.415v-20.095c0-3.007.292-6.019 1.165-8.831 2.233-7.28 7.766-11.551 13.783-11.551 1.554 0 2.817.288 2.817.288v-9.317s-1.263-.194-2.525-.194c-7.57 0-13.202 5.629-15.532 12.813h-.193s.193-1.456.193-3.398v-3.105c0-3.98-2.039-5.727-6.309-5.727h-8.93v8.058h3.979c1.359 0 2.137.678 2.137 2.135v38.925zm39.233-6.214c0 4.369 1.841 6.214 6.21 6.214h9.221v-8.057h-3.979c-1.359 0-2.134-.681-2.134-2.135v-32.714c0-4.367-1.846-6.212-6.215-6.212h-9.221v8.058h3.979c1.358 0 2.138.678 2.138 2.135v32.711zm23.438-19.51c0 14.17 8.35 25.142 21.937 25.142 7.184 0 11.75-2.72 14.66-7.475h.195s-.195 1.554-.195 3.106v3.301c0 9.9-6.99 13.687-15.53 13.687-7.377 0-13.397-3.302-13.397-3.302l-3.202 7.574c4.854 2.425 10.87 4.075 16.791 4.075 12.428 0 24.753-6.213 24.753-22.425v-37.079c0-1.263.874-1.94 2.137-1.94h3.881v-8.058h-9.124c-3.882 0-5.435 2.039-5.435 4.949v1.553h-.196s-3.494-7.666-15.724-7.666c-13.687 0-21.551 10.481-21.551 24.558m23.782 16.986c-8.832 0-14.171-6.989-14.171-17.181 0-9.998 4.856-16.212 13.395-16.212 7.57 0 13.88 3.689 13.88 16.504 0 12.812-6.31 16.889-13.104 16.889m33.083-15.919c0 14.949 11.746 25.821 26.403 25.821 14.659 0 26.5-10.872 26.5-25.821 0-14.851-11.841-25.625-26.5-25.625-14.657 0-26.403 10.774-26.403 25.625m9.613 0c0-10.193 7.567-17.474 16.791-17.474 9.32 0 16.89 7.28 16.89 17.474 0 10.29-7.57 17.668-16.89 17.668-9.223 0-16.791-7.378-16.791-17.668m55.213 24.656h9.415v-23.006c0-2.427.192-4.661.875-6.601 1.941-7.088 7.96-12.039 15.53-12.039 7.862 0 9.223 5.439 9.223 12.329v23.103c0 4.369 1.844 6.214 6.212 6.214h9.318v-8.057h-3.979c-1.36 0-2.137-.681-2.137-2.135v-21.261c0-12.521-5.244-18.829-16.892-18.829-10.678 0-16.502 6.986-18.443 11.259h-.193s.193-1.263.193-2.814v-1.845c0-3.591-2.038-5.436-6.21-5.436h-9.029v8.058h3.98c1.359 0 2.136.678 2.136 2.135v38.925zM73.119 43.487c.288-8.62 6.617-14.829 14.688-14.845 6.116-.015 10.474 4.373 11.323 10.258l-26.011 4.587zm35.946-1.255c0-8.962-6.275-21.063-21.16-21.063-13.978 0-24.656 10.093-24.656 25.725 0 14.559 10.581 25.722 26.112 25.722 11.648 0 18.929-7.183 18.929-7.183l-4.079-6.699s-5.92 5.729-14.364 5.729c-8.736 0-15.106-5.63-16.624-13.882l35.794-6.614s.047-.471.047-1.733M126.414 43.487c.287-8.62 6.617-14.829 14.688-14.845 6.116-.015 10.473 4.373 11.322 10.258l-26.01 4.587zm35.946-1.255c0-8.962-6.275-21.063-21.161-21.063-13.979 0-24.656 10.093-24.656 25.725 0 14.559 10.581 25.722 26.112 25.722 11.648 0 18.929-7.183 18.929-7.183l-4.077-6.699s-5.922 5.729-14.366 5.729c-8.736 0-15.106-5.63-16.623-13.882l35.794-6.614s.047-.471.047-1.733M225.259 7.837c0-2.955-2.396-5.352-5.352-5.352-2.955 0-5.35 2.396-5.35 5.352 0 2.954 2.395 5.351 5.35 5.351 2.956 0 5.352-2.396 5.352-5.351"/></g></svg>