<svg xmlns="http://www.w3.org/2000/svg" xmlns:xlink="http://www.w3.org/1999/xlink" xmlns:lucid="lucid" width="620" height="500"><g transform="translate(-300 -79.99999999999996)" lucid:page-tab-id="0_0"><path d="M320 220h240v60H320z" stroke="#000" stroke-opacity="0" stroke-width="2" fill="#46e1c8"/><use xlink:href="#a" transform="matrix(1,0,0,1,325,225) translate(51.57333333333334 35.32)"/><path d="M320 360h240v60H320z" stroke="#000" stroke-opacity="0" stroke-width="2" fill="#46e1c8"/><use xlink:href="#b" transform="matrix(1,0,0,1,325,365) translate(21.059999999999988 35.32)"/><path d="M501.33 280v61.76" stroke="#000" stroke-width="2" fill="none"/><path/><path d="M501.33 356.76l-4.64-14.26h9.26z"/><path d="M501.33 360l-6.02-18.5h12.04zm-3.26-16.5l3.26 10.03 3.25-10.03z"/><path d="M379.94 360v-61.76" stroke="#000" stroke-width="2" fill="none"/><path/><path d="M384.57 297.5h-9.27l4.64-14.26z"/><path d="M385.95 298.5h-12.02l6-18.5zm-9.27-2h6.52l-3.26-10.03z"/><path d="M660 220h240v60H660z" stroke="#000" stroke-opacity="0" stroke-width="2" fill="#46e1c8"/><use xlink:href="#a" transform="matrix(1,0,0,1,665,225) translate(51.57333333333334 35.32)"/><path d="M660 360h240v60H660z" stroke="#000" stroke-opacity="0" stroke-width="2" fill="#46e1c8"/><use xlink:href="#b" transform="matrix(1,0,0,1,665,365) translate(21.059999999999988 35.32)"/><path d="M780 360v-61.76" stroke="#000" stroke-width="2" fill="none"/><path/><path d="M784.64 297.5h-9.28l4.64-14.26z"/><path d="M786 298.5h-12l6-18.5zm-9.26-2h6.52L780 286.47z"/><path d="M660 500h240v60H660z" stroke="#000" stroke-opacity="0" stroke-width="2" fill="#46e1c8"/><use xlink:href="#c" transform="matrix(1,0,0,1,665,505) translate(73.18666666666667 35.32)"/><path d="M780 360v-61.76" stroke="#000" stroke-width="2" fill="none"/><path d="M780 283.24l4.64 14.26h-9.28z" stroke="#000" stroke-width="2"/><path d="M780 500v-61.76" stroke="#000" stroke-width="2" fill="none"/><path/><path d="M784.64 437.5h-9.28l4.64-14.26z"/><path d="M786 438.5h-12l6-18.5zm-9.26-2h6.52L780 426.47z"/><path d="M320 100h240v63.33H320z" stroke="#000" stroke-opacity="0" stroke-width="2" fill="#fff" fill-opacity="0"/><use xlink:href="#d" transform="matrix(1,0,0,1,325,104.99999999999997) translate(58.44444444444444 22.266666666666666)"/><use xlink:href="#e" transform="matrix(1,0,0,1,325,104.99999999999997) translate(114.64444444444445 22.266666666666666)"/><use xlink:href="#f" transform="matrix(1,0,0,1,325,104.99999999999997) translate(53.12222222222223 48.93333333333334)"/><path d="M660 100h240v63.33H660z" stroke="#000" stroke-opacity="0" stroke-width="2" fill="#fff" fill-opacity="0"/><g><use xlink:href="#g" transform="matrix(1,0,0,1,665,104.99999999999997) translate(41.111111111111114 22.266666666666666)"/><use xlink:href="#e" transform="matrix(1,0,0,1,665,104.99999999999997) translate(131.97777777777776 22.266666666666666)"/><use xlink:href="#f" transform="matrix(1,0,0,1,665,104.99999999999997) translate(53.12222222222223 48.93333333333334)"/></g><defs><path d="M565-850c-86 0-140 48-186 99V0H132v-1026c80 9 198-29 214 45l16 76c67-72 141-136 276-137 139-1 214 86 253 192 57-117 162-192 328-192 240 0 354 147 354 389V0h-247v-653c1-123-52-197-169-197s-180 76-180 197V0H729v-653c0-127-46-197-164-197" id="h"/><path d="M991-153C899-47 760 15 568 15 237 15 63-197 63-535c0-237 116-392 287-467 61-27 129-40 206-40 287 0 444 174 444 465 0 54-3 95-57 95H309c4 226 158 349 385 292 52-13 93-39 132-62 32-19 73-16 93 9zM778-631c-4-143-73-234-217-234-154 0-226 95-247 234h464" id="i"/><path d="M254-198c95 60 334 64 323-83-9-119-156-122-253-159C192-490 72-550 72-729c0-214 163-309 387-313 145-3 264 55 338 127-26 36-45 82-77 111-69 21-111-33-176-48-103-23-247 0-238 102 11 114 156 118 251 155 126 49 251 100 251 270C808-59 575 48 294 6 192-9 106-54 42-110c28-39 43-95 83-120 49-31 96 11 129 32" id="j"/><path d="M556-1045c246 0 380 151 380 397V0c-79-6-181 23-196-53l-22-73C630-49 541 18 379 16 194 13 81-77 81-262c0-184 152-247 321-292 78-21 176-31 293-34 10-155-29-262-170-262-104 0-161 40-224 77-47 28-107 5-127-31l-45-79c118-108 260-162 427-162zM317-275c-3 86 56 121 139 121 117 0 179-51 239-111v-173c-122 6-219 17-297 53-49 22-79 51-81 110" id="k"/><path d="M247-436C153-487 80-575 80-712c0-228 174-332 407-332 92 0 169 20 230 53h295c-4 63 19 133-53 146l-92 17c30 74 25 184-9 254-72 146-265 223-484 183-51 27-68 81-20 111 145 54 395 5 528 91 60 38 108 95 104 193-8 182-136 275-286 326-172 59-444 28-556-52C83 234 32 179 32 90c0-112 77-164 166-199-49-28-87-70-84-147 4-94 65-143 133-180zm247 621c132 0 252-20 264-139-10-98-129-93-228-102-63-6-132-5-191-13-47 27-93 62-93 127 0 112 123 127 248 127zM305-706c0 111 68 168 182 168s182-56 182-168c0-107-68-165-182-165s-182 58-182 165" id="l"/><path d="M225 14C133 14 73-43 73-136c0-92 60-151 152-151 91 0 151 60 151 151 0 92-59 150-151 150" id="m"/><path d="M16 177c97 0 132-44 132-142v-1061h247V35c-4 210-111 324-327 325-50 0-86-6-126-19l8-133c7-33 23-31 66-31zm256-1660c96 0 160 62 160 158 0 94-65 155-160 155-93 0-156-62-156-155 0-95 61-158 156-158" id="n"/><g id="a"><use transform="matrix(0.013333333333333334,0,0,0.013333333333333334,0,0)" xlink:href="#h"/><use transform="matrix(0.013333333333333334,0,0,0.013333333333333334,22.453333333333333,0)" xlink:href="#i"/><use transform="matrix(0.013333333333333334,0,0,0.013333333333333334,36.70666666666666,0)" xlink:href="#j"/><use transform="matrix(0.013333333333333334,0,0,0.013333333333333334,48.36,0)" xlink:href="#j"/><use transform="matrix(0.013333333333333334,0,0,0.013333333333333334,60.013333333333335,0)" xlink:href="#k"/><use transform="matrix(0.013333333333333334,0,0,0.013333333333333334,73.97333333333333,0)" xlink:href="#l"/><use transform="matrix(0.013333333333333334,0,0,0.013333333333333334,87.77333333333333,0)" xlink:href="#i"/><use transform="matrix(0.013333333333333334,0,0,0.013333333333333334,102.02666666666666,0)" xlink:href="#m"/><use transform="matrix(0.013333333333333334,0,0,0.013333333333333334,108.02666666666666,0)" xlink:href="#n"/><use transform="matrix(0.013333333333333334,0,0,0.013333333333333334,115.19999999999999,0)" xlink:href="#j"/></g><path d="M635 15C514 15 442-25 379-85v420H132v-1361c64 5 145-11 192 11 33 24 28 86 42 129 78-86 174-159 331-159 277 0 379 232 379 524 0 241-96 412-258 495-54 27-116 41-183 41zm186-536c0-181-37-329-209-329-117 0-175 55-233 124v460c48 60 104 93 198 93 188 0 244-152 244-348" id="o"/><path d="M604-806c-122 5-180 74-225 167V0H132v-1026c83 11 206-35 218 62l15 124c63-106 147-205 295-205 51 0 93 12 126 35l-32 185c-4 23-15 33-40 33-33 0-65-16-110-14" id="p"/><path d="M395-1026V0H148v-1026h247zm-123-457c96 0 160 62 160 158 0 94-65 155-160 155-93 0-156-62-156-155 0-95 61-158 156-158" id="q"/><path d="M605-850c-102 1-168 52-226 108V0H132v-1026c80 9 198-29 214 45l17 81c77-76 165-142 317-142 235 0 346 154 346 389V0H779v-653c0-121-55-198-174-197" id="r"/><path d="M738-75c-64 55-158 90-269 91-176 2-277-109-277-284v-573c-65-4-153 21-153-52v-98l165-27 52-280c10-66 115-35 183-42v323h270v176H439v556c-1 59 32 101 88 102 48 1 68-25 104-34 19 1 25 9 33 22" id="s"/><path d="M376-1057c5 39 7 82 7 123V0H146v-1446c85 3 182-6 258 6 17 7 27 20 36 37l432 803c23 42 41 90 60 136 19-47 38-95 61-138l428-801c15-33 41-43 90-43h203V0h-237c1-330-2-664 1-991 1-21 3-42 5-63l-437 820c-22 44-63 63-132 59-48-3-77-26-95-59" id="t"/><g id="b"><use transform="matrix(0.013333333333333334,0,0,0.013333333333333334,0,0)" xlink:href="#o"/><use transform="matrix(0.013333333333333334,0,0,0.013333333333333334,15.080000000000002,0)" xlink:href="#p"/><use transform="matrix(0.013333333333333334,0,0,0.013333333333333334,25.973333333333336,0)" xlink:href="#q"/><use transform="matrix(0.013333333333333334,0,0,0.013333333333333334,33.2,0)" xlink:href="#r"/><use transform="matrix(0.013333333333333334,0,0,0.013333333333333334,48.36,0)" xlink:href="#s"/><use transform="matrix(0.013333333333333334,0,0,0.013333333333333334,58.68000000000001,0)" xlink:href="#t"/><use transform="matrix(0.013333333333333334,0,0,0.013333333333333334,83.48,0)" xlink:href="#i"/><use transform="matrix(0.013333333333333334,0,0,0.013333333333333334,97.73333333333333,0)" xlink:href="#j"/><use transform="matrix(0.013333333333333334,0,0,0.013333333333333334,109.38666666666667,0)" xlink:href="#j"/><use transform="matrix(0.013333333333333334,0,0,0.013333333333333334,121.04,0)" xlink:href="#k"/><use transform="matrix(0.013333333333333334,0,0,0.013333333333333334,135,0)" xlink:href="#l"/><use transform="matrix(0.013333333333333334,0,0,0.013333333333333334,148.8,0)" xlink:href="#i"/><use transform="matrix(0.013333333333333334,0,0,0.013333333333333334,163.05333333333334,0)" xlink:href="#m"/><use transform="matrix(0.013333333333333334,0,0,0.013333333333333334,169.05333333333334,0)" xlink:href="#n"/><use transform="matrix(0.013333333333333334,0,0,0.013333333333333334,176.2266666666667,0)" xlink:href="#j"/></g><g id="c"><use transform="matrix(0.013333333333333334,0,0,0.013333333333333334,0,0)" xlink:href="#h"/><use transform="matrix(0.013333333333333334,0,0,0.013333333333333334,22.453333333333333,0)" xlink:href="#k"/><use transform="matrix(0.013333333333333334,0,0,0.013333333333333334,36.413333333333334,0)" xlink:href="#q"/><use transform="matrix(0.013333333333333334,0,0,0.013333333333333334,43.64,0)" xlink:href="#r"/><use transform="matrix(0.013333333333333334,0,0,0.013333333333333334,58.79999999999999,0)" xlink:href="#m"/><use transform="matrix(0.013333333333333334,0,0,0.013333333333333334,64.8,0)" xlink:href="#n"/><use transform="matrix(0.013333333333333334,0,0,0.013333333333333334,71.97333333333333,0)" xlink:href="#j"/></g><path d="M10-1457h284c57-1 100 29 112 73 73 280 148 558 220 839 7 28 12 57 15 88 84-319 189-616 281-927 12-37 57-75 110-73 63 3 134-9 172 19 18 14 33 31 40 54 86 278 171 556 257 834 8 26 15 55 21 85 10-55 21-109 34-159l200-760c10-39 57-73 110-73h266L1682 0h-306c-101-334-204-666-303-1002C973-666 868-334 766 0H460" id="u"/><path d="M440-1037V0H130v-1037h310zm-154-466c113 0 190 70 190 182 0 111-79 180-190 180-109 0-184-71-184-180 0-110 74-182 184-182" id="v"/><path d="M774-74c-71 55-172 90-290 90-196 0-304-108-304-303v-536c-70 1-146 12-146-61v-121l165-32 61-253c16-78 146-38 230-48v303h252v212H490v515c0 45 23 83 68 83 48 0 88-50 122 4" id="w"/><path d="M612-820c-81 1-134 39-182 81V0H120v-1497h310v551c73-60 149-110 278-107 236 5 352 157 352 394V0H750v-659c0-96-44-162-138-161" id="x"/><g id="d"><use transform="matrix(0.011111111111111112,0,0,0.011111111111111112,0,0)" xlink:href="#u"/><use transform="matrix(0.011111111111111112,0,0,0.011111111111111112,23.8,0)" xlink:href="#v"/><use transform="matrix(0.011111111111111112,0,0,0.011111111111111112,30.133333333333333,0)" xlink:href="#w"/><use transform="matrix(0.011111111111111112,0,0,0.011111111111111112,39.022222222222226,0)" xlink:href="#x"/></g><path d="M958-162C862-50 728 16 528 16 297 16 159-117 90-293c-49-124-51-307-4-437 70-194 223-323 484-323 177 0 287 60 380 153-36 45-67 98-109 136-73 33-113-34-174-50-21-5-46-11-77-11-169 4-215 131-220 304-6 205 103 354 302 295 57-17 74-74 140-74 25 0 42 10 56 27" id="y"/><path d="M544 269c-20 41-37 60-98 60H214L414-91 0-1037h274c46-1 73 23 84 54 69 190 150 371 209 571 68-189 134-380 199-571 10-28 45-55 82-54h250" id="z"/><path d="M440-1497V0H130v-1497h310" id="A"/><g id="e"><use transform="matrix(0.011111111111111112,0,0,0.011111111111111112,0,0)" xlink:href="#y"/><use transform="matrix(0.011111111111111112,0,0,0.011111111111111112,10.8,0)" xlink:href="#z"/><use transform="matrix(0.011111111111111112,0,0,0.011111111111111112,22.644444444444446,0)" xlink:href="#y"/><use transform="matrix(0.011111111111111112,0,0,0.011111111111111112,33.44444444444444,0)" xlink:href="#A"/><use transform="matrix(0.011111111111111112,0,0,0.011111111111111112,39.77777777777778,0)" xlink:href="#v"/><use transform="matrix(0.011111111111111112,0,0,0.011111111111111112,46.111111111111114,0)" xlink:href="#y"/></g><path d="M494-1057c110-3 175 36 236 85v-525h310V0H848c-79 3-80-75-100-131C671-51 581 16 426 16 225 16 127-123 78-290c-38-128-40-313 4-440 62-181 183-321 412-327zM370-515c0 153 21 293 164 293 98 0 150-43 196-97v-440c-41-45-87-70-162-70-160 0-198 144-198 314" id="B"/><path d="M1024-162C926-48 781 16 578 16 325 16 169-111 94-299c-49-123-59-309-6-439 74-183 225-315 476-315 298 0 466 176 466 475 0 66-3 115-70 115H362c16 155 90 243 244 247 98 2 155-39 218-71 37-18 85-16 110 14zM752-643c-3-120-60-196-182-196-129 0-185 80-205 196h387" id="C"/><path d="M666 16c-111 3-175-34-236-85v398H120v-1366h192c78-3 80 73 99 128 76-81 169-148 323-148 201 0 299 140 348 307 38 128 40 313-4 439-63 179-182 321-412 327zm124-543c0-153-21-288-164-293-99-3-151 43-196 98v440c40 45 88 70 162 70 160 0 198-144 198-315" id="D"/><path d="M612-820c-81 1-134 39-182 81V0H120v-1037h192c70-3 79 59 94 112 74-70 159-128 302-128 236 0 352 157 352 394V0H750v-659c0-96-44-162-138-161" id="E"/><g id="f"><use transform="matrix(0.011111111111111112,0,0,0.011111111111111112,0,0)" xlink:href="#B"/><use transform="matrix(0.011111111111111112,0,0,0.011111111111111112,12.88888888888889,0)" xlink:href="#C"/><use transform="matrix(0.011111111111111112,0,0,0.011111111111111112,24.977777777777778,0)" xlink:href="#D"/><use transform="matrix(0.011111111111111112,0,0,0.011111111111111112,37.82222222222222,0)" xlink:href="#C"/><use transform="matrix(0.011111111111111112,0,0,0.011111111111111112,49.91111111111111,0)" xlink:href="#E"/><use transform="matrix(0.011111111111111112,0,0,0.011111111111111112,62.79999999999999,0)" xlink:href="#B"/><use transform="matrix(0.011111111111111112,0,0,0.011111111111111112,75.68888888888888,0)" xlink:href="#C"/><use transform="matrix(0.011111111111111112,0,0,0.011111111111111112,87.77777777777777,0)" xlink:href="#E"/><use transform="matrix(0.011111111111111112,0,0,0.011111111111111112,100.66666666666666,0)" xlink:href="#y"/><use transform="matrix(0.011111111111111112,0,0,0.011111111111111112,111.46666666666665,0)" xlink:href="#z"/></g><path d="M366-1016c125-49 306-50 431 0 190 75 313 236 313 495 0 261-123 423-313 499-125 50-306 50-431 0C175-98 50-259 50-521c0-260 126-421 316-495zm4 497c0 183 45 305 212 305 163 0 208-124 208-305 0-182-44-304-208-304-167 0-212 121-212 304" id="F"/><path d="M452 16c-236 0-352-157-352-395v-658h310v658c0 97 43 162 138 161 82-1 133-37 182-80v-739h310V0H848c-67 5-80-61-95-112C679-41 594 16 452 16" id="G"/><g id="g"><use transform="matrix(0.011111111111111112,0,0,0.011111111111111112,0,0)" xlink:href="#u"/><use transform="matrix(0.011111111111111112,0,0,0.011111111111111112,23.8,0)" xlink:href="#v"/><use transform="matrix(0.011111111111111112,0,0,0.011111111111111112,30.133333333333333,0)" xlink:href="#w"/><use transform="matrix(0.011111111111111112,0,0,0.011111111111111112,39.022222222222226,0)" xlink:href="#x"/><use transform="matrix(0.011111111111111112,0,0,0.011111111111111112,51.91111111111111,0)" xlink:href="#F"/><use transform="matrix(0.011111111111111112,0,0,0.011111111111111112,64.8,0)" xlink:href="#G"/><use transform="matrix(0.011111111111111112,0,0,0.011111111111111112,77.68888888888888,0)" xlink:href="#w"/></g></defs></g></svg>