<?xml version="1.0" encoding="UTF-8" standalone="no"?>
<!-- Created with Inkscape (http://www.inkscape.org/) -->

<svg
   xmlns:dc="http://purl.org/dc/elements/1.1/"
   xmlns:cc="http://creativecommons.org/ns#"
   xmlns:rdf="http://www.w3.org/1999/02/22-rdf-syntax-ns#"
   xmlns:svg="http://www.w3.org/2000/svg"
   xmlns="http://www.w3.org/2000/svg"
   xmlns:sodipodi="http://sodipodi.sourceforge.net/DTD/sodipodi-0.dtd"
   xmlns:inkscape="http://www.inkscape.org/namespaces/inkscape"
   version="1.1"
   width="152"
   height="152"
   id="condime-head"
   xml:space="preserve"
   inkscape:version="0.91 r13725"
   sodipodi:docname="carsten.svg"><sodipodi:namedview
     pagecolor="#000000"
     bordercolor="#666666"
     borderopacity="1"
     objecttolerance="10"
     gridtolerance="10"
     guidetolerance="10"
     inkscape:pageopacity="0"
     inkscape:pageshadow="2"
     inkscape:window-width="1920"
     inkscape:window-height="1026"
     id="namedview56"
     showgrid="false"
     inkscape:zoom="1.5526316"
     inkscape:cx="-141.69492"
     inkscape:cy="73.42373"
     inkscape:window-x="0"
     inkscape:window-y="0"
     inkscape:window-maximized="1"
     inkscape:current-layer="condime-head" /><title
     id="title3177">CM</title><metadata
     id="metadata2991"><rdf:RDF><cc:Work
         rdf:about=""><dc:format>image/svg+xml</dc:format><dc:type
           rdf:resource="http://purl.org/dc/dcmitype/StillImage" /><dc:title>CM</dc:title><dc:creator><cc:Agent><dc:title>Sina Busch</dc:title></cc:Agent></dc:creator><dc:date>11.05.2014</dc:date><dc:source>http://www.condime.de</dc:source><dc:publisher><cc:Agent><dc:title>Carsten Meier</dc:title></cc:Agent></dc:publisher><cc:license
           rdf:resource="" /><dc:rights><cc:Agent><dc:title>Sina Busch</dc:title></cc:Agent></dc:rights></cc:Work></rdf:RDF></metadata><defs
     id="defs2989"><clipPath
       id="clipPath3001"><path
         d="m 0,3744 5616,0 L 5616,0 0,0 0,3744 z"
         id="path3003" /></clipPath><clipPath
       id="clipPath3097"><path
         d="m 0,3744 5616,0 L 5616,0 0,0 0,3744 z"
         id="path3099" /></clipPath></defs><g
     id="layer2"><path
       d="M 152,76 A 76,75.355934 0 1 1 0,76 76,75.355934 0 1 1 152,76 z"
       transform="matrix(0.91217042,0,0,0.91217042,6.6750481,6.6750481)"
       id="path3120"
       style="opacity:1;fill:#e1e1e1;stroke:#000000;stroke-opacity:0;fill-opacity:1" /></g><g
     id="layer1"
     transform="matrix(0.91266852,0,0,0.8679255,6.637193,6.776417)"><g
       transform="matrix(0.10806064,0,0,-0.10806064,-230.51737,305.52588)"
       clip-path="url(#clipPath3001)"
       id="head"><g
         transform="translate(2856.0396,1493.1216)"
         id="g3005"><path
           d="m 0,0 c -120.938,0 -172.146,46.93 -172.146,65.602 0,28.104 -7.579,189.615 -8.565,210.515 l 324.39,-15.85 C 143.218,227.722 141.367,96 141.367,77.613 c 0,-7.828 -5.448,-27.254 -26.069,-44.744 C 97.621,17.874 63.269,0 0,0"
           id="path3007"
           style="fill:#deccb7;fill-opacity:1;fill-rule:evenodd;stroke:none"
           inkscape:connector-curvature="0" /></g><g
         transform="translate(2670.1567,1777)"
         id="g3009"><path
           d="m 0,0 -2.414,-6.134 c 0,0 8.651,-182.561 8.651,-212.142 0,-25.305 57.736,-73.102 179.646,-73.102 121.91,0 148.867,64.026 148.867,85.113 0,21.086 2.414,189.791 2.414,189.791 L 0,0 Z m 13.05,-15.655 308.91,-15.094 c -0.587,-41.57 -2.21,-157.983 -2.21,-175.516 0,-5.329 -4.208,-22.728 -23.42,-39.025 -16.72,-14.183 -49.454,-31.088 -110.447,-31.088 -65.133,0 -105.955,13.828 -128.732,25.428 -26.871,13.685 -35.914,28.168 -35.914,32.674 0,25.862 -6.348,163.356 -8.187,202.621"
           id="path3011"
           style="fill:#c09a68;fill-opacity:1;fill-rule:nonzero;stroke:none"
           inkscape:connector-curvature="0" /></g><g
         transform="translate(2839.1611,1649.6089)"
         id="g3013"><path
           d="m 0,0 c -45.028,0 -88.721,10.481 -129.865,31.151 -39.844,20.018 -75.652,48.703 -106.427,85.258 -30.855,36.65 -55.089,79.351 -72.026,126.916 -17.56,49.313 -26.464,101.71 -26.464,155.736 0,3.439 0.038,6.934 0.112,10.386 l 0.009,0.415 -0.037,0.414 c -1.173,13.114 -1.767,27.418 -1.767,42.514 0,31.826 -0.437,60.746 -0.86,88.714 -0.368,24.379 -0.716,47.406 -0.716,69.511 0,54.08 27.845,105.205 78.407,143.957 51.256,39.284 119.379,60.919 191.821,60.919 l 129.123,0 c 72.66,0 141.376,-21.647 193.489,-60.954 51.577,-38.904 79.983,-90.016 79.983,-143.922 l 0,-220.838 c 0,-0.949 -0.045,-1.908 -0.132,-2.85 l -0.023,-0.251 -0.006,-0.252 C 331.986,282.589 295.858,185.141 232.892,112.432 170.105,39.929 87.396,0 0,0"
           id="path3015"
           style="fill:#deccb7;fill-opacity:1;fill-rule:evenodd;stroke:none"
           inkscape:connector-curvature="0" /></g><g
         transform="translate(2900.4712,2473)"
         id="g3017"><path
           d="m 0,0 -129.124,0 c -153.384,0 -277.727,-95.785 -277.727,-212.376 0,-47.15 1.576,-98.279 1.576,-158.225 0,-14.438 0.526,-28.97 1.796,-43.182 -0.075,-3.505 -0.113,-7.021 -0.113,-10.547 0,-224.538 153.245,-406.561 342.282,-406.561 185.537,0 336.588,175.347 342.118,394.135 0.106,1.137 0.164,2.315 0.164,3.542 l 0,220.838 C 280.972,-95.785 153.384,0 0,0 m 0,-15 c 35.924,0 70.919,-5.405 104.011,-16.066 31.797,-10.242 60.381,-24.836 84.961,-43.376 24.302,-18.33 43.349,-39.509 56.612,-62.95 13.529,-23.909 20.388,-49.137 20.388,-74.984 l 0,-220.838 c 0,-0.729 -0.033,-1.435 -0.1,-2.158 l -0.046,-0.502 -0.013,-0.503 c -1.311,-51.854 -10.979,-101.972 -28.734,-148.962 -17.141,-45.361 -41.085,-85.974 -71.166,-120.711 -29.964,-34.6 -64.583,-61.707 -102.896,-80.567 -39.461,-19.425 -81.29,-29.274 -124.327,-29.274 -43.848,0 -86.408,10.212 -126.498,30.353 -38.93,19.559 -73.94,47.614 -104.057,83.387 -30.276,35.961 -54.062,77.882 -70.698,124.601 -17.271,48.503 -26.029,100.054 -26.029,153.22 0,3.386 0.037,6.826 0.11,10.226 l 0.018,0.83 -0.074,0.827 c -1.153,12.893 -1.737,26.972 -1.737,41.846 0,31.883 -0.438,60.832 -0.861,88.827 -0.368,24.35 -0.715,47.349 -0.715,69.398 0,25.936 6.711,51.204 19.947,75.103 12.992,23.459 31.673,44.622 55.522,62.901 24.174,18.528 52.366,33.102 83.792,43.319 32.767,10.652 67.578,16.053 103.466,16.053 L 0,-15"
           id="path3019"
           style="fill:#c09a68;fill-opacity:1;fill-rule:nonzero;stroke:none"
           inkscape:connector-curvature="0" /></g><g
         transform="translate(2473.8972,1955.624)"
         id="g3021"><path
           d="m 0,0 c -2.31,0 -4.633,0.109 -6.903,0.326 -3.814,0.362 -7.98,3.42 -12.049,8.84 -15.986,21.297 -26.991,75.374 -15.901,133.643 2.502,13.145 7.539,28.814 17.329,28.814 12.104,0 28.713,-18.666 35.108,-27.128 L 32.11,6.802 C 26.133,4.187 14.322,0 0,0 Z"
           id="path3023"
           style="fill:#deccb7;fill-opacity:1;fill-rule:evenodd;stroke:none"
           inkscape:connector-curvature="0" /></g><g
         transform="translate(2456.3728,2134.7466)"
         id="g3025"><path
           d="m 0,0 c -10.254,0 -19.695,-8.637 -24.696,-34.911 -14.6,-76.706 7.57,-148.778 34.607,-151.352 2.6,-0.248 5.143,-0.36 7.613,-0.36 23.214,0 40.119,9.876 40.119,9.876 L 42.354,-31.822 C 42.354,-31.822 19.681,0 0,0 m 0,-15 c 2.807,0 9.146,-2.973 17.778,-11.35 4.32,-4.193 7.92,-8.478 10.1,-11.223 L 41.579,-167.45 c -5.836,-2.039 -14.278,-4.173 -24.055,-4.173 -2.074,0 -4.157,0.099 -6.192,0.292 -0.875,0.083 -3.415,1.419 -6.761,5.876 -7.571,10.086 -13.664,28.168 -16.719,49.609 -2.477,17.387 -4.108,45.055 2.188,78.13 2.483,13.051 5.732,18.671 7.447,20.859 C -1.057,-15 -0.369,-15 0,-15"
           id="path3027"
           style="fill:#c09a68;fill-opacity:1;fill-rule:nonzero;stroke:none"
           inkscape:connector-curvature="0" /></g><g
         transform="translate(3198.5566,1955.9707)"
         id="g3029"><path
           d="m 0,0 c -13.531,0 -24.062,3.356 -29.583,5.598 l 12.916,138.748 c 8.28,11.074 24.029,27.027 34.914,27.027 9.729,0 14.74,-15.638 17.232,-28.756 C 46.537,84.378 35.555,30.377 19.607,9.136 15.57,3.758 11.439,0.725 7.663,0.364 5.127,0.123 2.549,0 0,0"
           id="path3031"
           style="fill:#deccb7;fill-opacity:1;fill-rule:evenodd;stroke:none"
           inkscape:connector-curvature="0" /></g><g
         transform="translate(3216.8037,2134.8433)"
         id="g3033"><path
           d="m 0,0 c -19.605,0 -42.189,-31.773 -42.189,-31.773 l -13.599,-146.07 c 0,0 15.13,-8.53 37.541,-8.53 2.69,0 5.488,0.123 8.375,0.399 26.931,2.57 49.015,74.53 34.472,151.117 C 19.618,-8.624 10.214,0 0,0 m 0,-15 0,0 c 0.329,0 1.014,0 2.446,-1.832 1.708,-2.184 4.943,-7.793 7.417,-20.823 6.276,-33.05 4.645,-60.692 2.172,-78.062 -3.05,-21.417 -9.126,-39.466 -16.673,-49.517 -3.431,-4.571 -5.97,-5.742 -6.659,-5.808 -2.3,-0.219 -4.638,-0.331 -6.95,-0.331 -8.799,0 -16.259,1.605 -21.572,3.239 l 12.167,130.695 c 2.129,2.682 5.579,6.792 9.71,10.845 C -9.219,-18.037 -2.825,-15 0,-15"
           id="path3035"
           style="fill:#c09a68;fill-opacity:1;fill-rule:nonzero;stroke:none"
           inkscape:connector-curvature="0" /></g><g
         transform="translate(3212,2076)"
         id="g3037"><path
           d="m 0,0 c 0,0 -28.479,-1.22 -26.982,-37.102 1.496,-35.881 24.315,-37.951 24.315,-37.951"
           id="path3039"
           style="fill:none;stroke:#c09a68;stroke-width:15;stroke-linecap:round;stroke-linejoin:miter;stroke-miterlimit:10;stroke-dasharray:none;stroke-opacity:1"
           inkscape:connector-curvature="0" /></g><g
         transform="translate(2467.3335,2000.9473)"
         id="g3041"><path
           d="m 0,0 c 0,0 28.694,-1.132 27.194,34.868 -1.5,36 -26,37.185 -26,37.185"
           id="path3043"
           style="fill:none;stroke:#c09a68;stroke-width:15;stroke-linecap:round;stroke-linejoin:miter;stroke-miterlimit:10;stroke-dasharray:none;stroke-opacity:1"
           inkscape:connector-curvature="0" /></g><g
         transform="translate(2832.6299,1617.4473)"
         id="g3045"><path
           d="m 0,0 c -74.677,0 -156.129,62.103 -198.035,99.121 -1.84,1.626 -3.764,3.305 -5.764,5.05 -20.237,17.656 -47.952,41.837 -72.623,84.634 -28.256,49.018 -46.337,112.676 -53.783,189.313 0.089,-10e-4 0.179,-10e-4 0.269,-10e-4 3.563,0 8.314,0.223 13.585,1.062 2.829,-98.929 44.971,-197.523 111.243,-259.17 45.088,-41.943 104.536,-61.043 123.637,-64.863 3.233,-0.647 5.502,-1.175 7.503,-1.642 C -63.224,51 -63.224,51 -4,51 c 33.454,0 49.683,-0.546 61.533,-0.946 6.315,-0.212 11.303,-0.38 16.777,-0.38 l 0.006,0 c 4.326,0 8.777,0.106 14.01,0.333 27.285,1.186 80.625,26.299 129.781,72 68.245,63.449 105.791,153.827 111.668,268.746 4.99,-0.899 10.134,-1.705 14.353,-2.107 C 337.2,312.457 318.046,246.208 287.149,191.615 256.636,137.703 214.253,94.414 161.176,62.952 154.621,59.066 148.167,55.059 141.333,50.816 102.97,26.997 59.488,0 0,0"
           id="path3047"
           style="fill:#c1be8d;fill-opacity:1;fill-rule:evenodd;stroke:none"
           inkscape:connector-curvature="0" /></g><g
         transform="translate(2494.1299,2003.9473)"
         id="g3049"><path
           d="M 0,0 C -0.838,0 -0.766,-0.131 0.025,-0.292 0.017,-0.195 0.008,-0.097 0,0 M 661.164,13.256 C 655.113,-150.833 584.72,-228.115 551.5,-259 c -50.782,-47.213 -102,-69 -125,-70 -5.382,-0.234 -9.671,-0.326 -13.69,-0.326 -15.214,0 -26.531,1.326 -78.31,1.326 -70.1,0 -56,0 -76,4 -20,4 -77,23 -120,63 C 74.401,-201.374 29.87,-102.947 29.5,2 21.856,-0.266 14.229,-0.883 8.564,-0.883 4.396,-0.883 1.29,-0.549 0.025,-0.292 16.948,-198.008 95.961,-258.073 135.5,-293 c 51.734,-45.701 130.991,-101 203,-101 72,0 119.963,37.304 165,64 106.37,63.053 174.324,174.053 187.324,340.053 -0.384,-0.48 -1.62,-0.676 -3.387,-0.676 -7.436,0 -24.253,3.476 -26.273,3.879 m -486.941,-318.94 c 34.531,-20.147 67.784,-30.315 81.336,-33.025 3.116,-0.623 5.323,-1.138 7.271,-1.591 11.584,-2.7 11.584,-2.7 71.67,-2.7 33.325,0 49.482,-0.544 61.279,-0.941 6.386,-0.216 11.43,-0.385 17.031,-0.385 4.439,0 8.996,0.108 14.341,0.34 12.634,0.549 29.43,5.561 48.07,14.267 C 436.08,-354.021 395.531,-379 338.5,-379 c -29.846,0 -64.109,10.593 -101.836,31.484 -23.05,12.764 -44.467,27.805 -62.441,41.832"
           id="path3051"
           style="fill:#8c8954;fill-opacity:1;fill-rule:nonzero;stroke:none"
           inkscape:connector-curvature="0" /></g><g
         transform="translate(2500.7844,2008.9155)"
         id="g3053"><path
           d="m 0,0 c -2.352,21.049 -9.238,83.015 -11.688,108.743 -1.8,18.893 -14.323,232.067 -5.061,274.034 7.863,35.625 63.126,113.868 63.683,114.654 l 9.993,14.098 -9.785,-1.331 26.622,19.009 71.507,32.036 -7.575,2.705 40.447,6.665 -5.073,6.182 5.154,-3.313 2.323,0.07 c 0.919,0.027 22.6,0.976 31.747,27.72 0.555,1.624 1.068,3.194 1.537,4.712 0.992,-3.181 1.505,-6.18 1.221,-8.622 -0.552,-4.724 1.194,-7.807 2.755,-9.562 1.663,-1.868 4.804,-4.095 10.325,-4.095 13.308,0 37.328,13.589 45.349,28.863 2.352,4.479 4.639,8.626 6.733,12.304 l 2.117,-12.094 15.942,14.285 0,-13.815 61.367,24.343 -9.942,-37.858 52.992,23.681 -6.943,-26.442 53.698,29.461 -25.754,-40.865 43.526,23.519 -4.065,-7.74 43.104,0 1.745,1.36 -12.201,-26.806 42.085,27.739 -12.363,-27.003 20.65,0 -10.626,-19.391 6.943,-3.491 c 15.073,-7.579 41.127,-22.815 46.875,-31.436 2.91,-4.365 9.367,-12.679 17.543,-23.204 17.064,-21.969 42.853,-55.168 48.846,-69.264 6.327,-14.884 27.328,-66.737 31.888,-109.067 4.507,-41.831 7.333,-150.604 3.4,-167.368 C 688.264,141.582 679.88,42.868 677.332,12.367 l -15.556,1.68 c -0.957,27.439 -4.599,133.74 -4.599,163.396 0,32.31 -24.177,158.359 -56.728,185.906 -19.11,16.172 -47.862,19.566 -68.617,19.566 -12.64,0 -21.756,-1.254 -22.685,-1.387 -2.451,-0.321 -94.705,-12.31 -152.385,-12.311 -1.491,0 -2.957,0.008 -4.401,0.025 -34.014,0.384 -72.571,7.667 -106.589,14.092 -27.428,5.181 -51.115,9.655 -67.661,9.655 -1.216,0 -2.401,-0.024 -3.52,-0.073 -33.385,-1.451 -55.875,-4.162 -86.635,-29.504 L 86.76,362.429 C 75.432,353.128 54.346,335.816 45.505,305.131 39.042,282.701 38.552,244.724 38.229,219.595 38.113,210.615 38.013,202.861 37.667,198.65 36.051,179.034 29.464,148.797 25.529,130.732 24.249,124.856 23.238,120.215 22.636,117.083 20.02,103.481 16.012,70.683 16.012,55.95 16.012,44.994 15.624,14.753 15.44,1.047 L 0,0 Z"
           id="path3055"
           style="fill:#c1be8d;fill-opacity:1;fill-rule:evenodd;stroke:none"
           inkscape:connector-curvature="0" /></g><g
         transform="translate(2871.4453,2658.9473)"
         id="g3057"><path
           d="m 0,0 -64.888,-25.74 0,19.562 -18.384,-16.473 -3.245,18.533 c 0,0 -8.111,-12.356 -17.303,-29.859 -6.744,-12.841 -28.328,-24.849 -38.709,-24.849 -3.769,0 -6.063,1.584 -5.631,5.286 1.622,13.9 -12.978,33.978 -12.978,33.978 0,0 3.244,-4.634 -4.325,-26.77 -7.571,-22.137 -24.874,-22.652 -24.874,-22.652 l -43.259,27.8 27.037,-32.948 -56.236,-9.266 17.304,-6.178 -55.155,-24.71 -51.91,-37.066 22.711,3.089 c 0,0 -56.603,-79.837 -64.888,-117.375 -9.785,-44.338 3.542,-261.919 4.918,-276.362 3,-31.5 12.5,-116 12.5,-116 l 29.5,2 c 0,0 0.666,47.418 0.666,61.918 0,14.5 3.989,46.717 6.489,59.717 2.5,13 12.978,56.113 15.14,82.368 1.351,16.399 -0.929,75.52 7.571,105.02 8.5,29.5 29.126,45.599 40.013,54.569 28.119,23.166 47.692,26.299 82.192,27.799 1.027,0.045 2.089,0.067 3.194,0.067 35.994,-0.003 112.23,-23.047 174.165,-23.748 1.472,-0.016 2.967,-0.024 4.487,-0.024 59.346,0 153.406,12.38 153.406,12.38 0,0 8.996,1.318 21.664,1.318 18.999,-0.001 46.252,-2.966 63.771,-17.792 29.2,-24.71 54.073,-145.681 54.073,-180.181 0,-34.5 4.832,-170.155 4.832,-170.155 l 29.661,-3.203 c 0,0 11.108,134.556 14.173,147.618 4.391,18.715 1.081,129.73 -3.245,169.885 -4.326,40.154 -23.251,89.576 -32.443,111.197 -9.193,21.622 -58.051,80.194 -67.051,93.694 -9,13.5 -49.747,33.977 -49.747,33.977 l 12.978,23.681 -21.63,0 18.385,40.155 -42.177,-27.8 14.06,30.889 -23.793,-18.533 -28.118,0 9.733,18.533 L 74.62,-44.273 100.575,-3.089 36.77,-38.095 43.258,-13.385 -9.733,-37.066 0,0 Z m -22.042,-24.881 -2.199,-8.375 -7.951,-30.276 28.579,12.771 24.413,10.911 -7.398,-28.175 30.582,16.779 13.009,7.137 -25.553,-40.546 50.311,27.185 2.378,1.286 20.772,0 20.166,0 -17.542,-38.539 41.996,27.68 -6.342,-13.852 19.67,0 -0.807,-1.472 -7.47,-13.632 13.889,-6.979 c 17.596,-8.843 39.995,-22.885 44.002,-28.895 3.06,-4.591 9.591,-12.999 17.86,-23.644 15.804,-20.346 42.255,-54.399 47.866,-67.599 12.83,-30.176 27.799,-74.115 31.334,-106.935 4.72,-43.812 7.013,-150.117 3.555,-164.852 -2.693,-11.479 -9.989,-95.83 -13.24,-134.48 l -1.453,0.156 c -1.2,34.752 -4.369,129.071 -4.369,156.638 0,19.892 -6.972,60.925 -16.577,97.566 -12.929,49.322 -27.332,80.97 -42.806,94.065 -20.842,17.638 -51.452,21.341 -73.461,21.342 -12.904,0 -22.406,-1.275 -23.701,-1.457 -3.203,-0.418 -94.436,-12.241 -151.369,-12.241 -1.463,0 -2.901,0.008 -4.317,0.023 -33.357,0.378 -71.573,7.596 -105.29,13.964 -27.794,5.25 -51.798,9.784 -69.054,9.785 -1.317,0 -2.608,-0.027 -3.837,-0.081 -33.924,-1.475 -58.592,-4.444 -91.078,-31.208 l -1.185,-0.975 c -11.959,-9.818 -34.217,-28.093 -43.704,-61.018 -6.743,-23.401 -7.22,-60.458 -7.568,-87.517 -0.114,-8.839 -0.212,-16.473 -0.538,-20.425 -1.575,-19.121 -8.095,-49.054 -11.991,-66.938 -1.291,-5.926 -2.311,-10.607 -2.93,-13.828 -2.659,-13.825 -6.759,-46.913 -6.759,-62.55 0,-9.326 -0.283,-32.731 -0.479,-47.888 l -1.375,-0.093 c -2.837,25.473 -8.67,78.281 -10.88,101.485 -0.602,6.317 -4.296,64.084 -6.587,126.102 -3.836,103.851 -0.779,135.802 1.384,145.605 6.253,28.332 47.22,90.406 62.477,111.932 l 17.387,24.524 7.075,5.052 53.789,24.099 30.101,13.486 5.137,0.846 25.643,4.225 -2.052,2.501 c 6.943,2.303 14.956,7.093 21.401,15.788 0.216,-0.272 0.44,-0.539 0.672,-0.8 2.684,-3.014 7.625,-6.608 15.927,-6.608 11.275,0 23.716,6.861 28.542,9.811 5.088,3.11 13.572,9.051 19.715,17.212 l 0.884,-5.053 13.5,12.097 0,-8.068 20.532,8.144 37.314,14.802"
           id="path3059"
           style="fill:#8c8954;fill-opacity:1;fill-rule:nonzero;stroke:none"
           inkscape:connector-curvature="0" /></g><g
         transform="translate(2768.2197,2393.4097)"
         id="g3061"><path
           d="m 0,0 -29,-38 55,23 47,-44 6,38 37,-54 -4,63 84,-51 -27,46 60,-18 -35,53"
           id="path3063"
           style="fill:#c1be8d;fill-opacity:1;fill-rule:evenodd;stroke:#8c8954;stroke-width:15;stroke-linecap:round;stroke-linejoin:miter;stroke-miterlimit:10;stroke-dasharray:none;stroke-opacity:1"
           inkscape:connector-curvature="0" /></g><g
         transform="translate(2703.6484,2104.792)"
         id="g3065"><path
           d="m 0,0 c 14.036,0 24.961,-13.577 24.961,-31.209 0,-17.632 -11.379,-31.926 -25.415,-31.926 -14.036,0 -25.415,14.294 -25.415,31.926 C -25.869,-13.577 -14.036,0 0,0"
           id="path3067"
           style="fill:#1f1e1f;fill-opacity:1;fill-rule:evenodd;stroke:none"
           inkscape:connector-curvature="0" /></g><g
         transform="translate(2974.6484,2104.792)"
         id="g3069"><path
           d="m 0,0 c 14.036,0 25.418,-13.577 25.418,-31.209 0,-17.632 -11.379,-31.926 -25.416,-31.926 -14.036,0 -25.415,14.294 -25.415,31.926 C -25.413,-13.577 -14.036,0 0,0"
           id="path3071"
           style="fill:#1f1e1f;fill-opacity:1;fill-rule:evenodd;stroke:none"
           inkscape:connector-curvature="0" /></g><g
         transform="translate(3042.6514,2169.3433)"
         id="g3073"><path
           d="m 0,0 c 0,0 -23,7 -45,7 -30,0 -91,-17 -91,-17"
           id="path3075"
           style="fill:none;stroke:#8c8954;stroke-width:30;stroke-linecap:round;stroke-linejoin:miter;stroke-miterlimit:10;stroke-dasharray:none;stroke-opacity:1"
           inkscape:connector-curvature="0" /></g><g
         transform="translate(2635.1943,2196.3433)"
         id="g3077"><path
           d="m 0,0 c 0,0 21,13 43,13 30,0 93,-23 93,-23"
           id="path3079"
           style="fill:none;stroke:#8c8954;stroke-width:30;stroke-linecap:round;stroke-linejoin:miter;stroke-miterlimit:10;stroke-dasharray:none;stroke-opacity:1"
           inkscape:connector-curvature="0" /></g><g
         transform="translate(2688.0625,1910.6519)"
         id="g3081"><path
           d="m 0,0 c 0,0 21.914,-43.974 99,-60 79.87,-16.605 144,18 144,18"
           id="path3083"
           style="fill:none;stroke:#c09a68;stroke-width:15;stroke-linecap:round;stroke-linejoin:miter;stroke-miterlimit:10;stroke-dasharray:none;stroke-opacity:1"
           inkscape:connector-curvature="0" /></g><g
         transform="translate(2651.7427,1912.5376)"
         id="g3085"><path
           d="M 0,0 C 0,0 2.331,28.137 25.201,32.933"
           id="path3087"
           style="fill:none;stroke:#c09a68;stroke-width:15;stroke-linecap:round;stroke-linejoin:miter;stroke-miterlimit:10;stroke-dasharray:none;stroke-opacity:1"
           inkscape:connector-curvature="0" /></g></g></g></svg>