<?xml version="1.0" encoding="utf-8"?>
<!-- Generator: Adobe Illustrator 15.1.0, SVG Export Plug-In . SVG Version: 6.00 Build 0)  -->
<!DOCTYPE svg PUBLIC "-//W3C//DTD SVG 1.1 Basic//EN" "http://www.w3.org/Graphics/SVG/1.1/DTD/svg11-basic.dtd">
<svg version="1.1" baseProfile="basic" id="Layer_1"
	 xmlns="http://www.w3.org/2000/svg" xmlns:xlink="http://www.w3.org/1999/xlink" x="0px" y="0px" width="2639.472px"
	 height="2741.452px" viewBox="0 0 2639.472 2741.452" xml:space="preserve">
<g>
	<path fill="#82D3F5" d="M1710.449,1265.038c-5.28,10.46-23.21,29.24-32.58,30.97c-16.93,3.12-39.45,5.11-59.02,1.12
		c-1.91-14.79-4.63-38.96,4.63-42.28c9-3.24,17.9-6.71,31.029-10.84c3.421-1.07,13.42-21.21,19.4-43.65
		c-9.71-10.86-20.689-25.97-29.729-45.81c-9.88,2.42-19.591,6.48-19.591,6.48s-12.209,0.16-16.63,16.54
		c-7.6,16.14-37.54,69.45-46.55,85.21c-12.76,9.01-13.7,15.7-26.479,21.4c-37.351,16.66-60.8,25.34-60.8,25.34
		c-18.021,0-63.4,0.86-74.33-4.5c-4.131-9.37,11.649-40.53,20.27-43.36c6.529-2.14,31.2-0.77,34.92-1.69
		c5.82-1.45,28.34-11.45,36.04-15.58c16.22-8.71,11.489,1.88,15.76-26.09c4.66-30.47-42.93-43.72-56.29-70.57
		c-4.41-8.86-1.08-24.04-2.97-38.81c0,0-68.19-12.78-81.39,0.63c-7.82,20.34-15.33,37.8-15.33,37.8
		c-14.49,35.09-27.08,57.13-32.1,62.5c-13.671,14.62-52,59.93-71.821,73.31c-9.67,6.52-15.77,12.8-25.94,17.7
		c-14.58,3.17-57.23,5.71-72.89-1.69c-3.44-15-1.5-21.36,3.41-28.15c19.52-27.01,24.78-10.86,48.42-15.29
		c0,0,19.77-15.28,26.29-25.61c6.77-19.51,2.25-58.94,2.62-81.08c-10.36,1.46-10.68,1.4-25.4,3.59
		c-8.97,1.34-42.01-2.12-48.42-2.021c-10.04,14.74-13.93,33.5-26.41,50.61c-25.5,20.67-40.33,25.19-88.66,51.05
		c-30.94,16.56-54.5,26.81-88.27,35.64c-9.16,2.39-61.66-0.66-70.09-4.48c-2.51-17.11,1.45-25.79,8.64-35.29
		c12.2-16.12,46.07-4.3,50.67-5.77l68.08-47.33c27.94-22.4,36.14-93.38,36.12-98.69c-0.03-9.16-3.65-18.3-21.43-20.13
		c-9.27-0.95-30.28,2.19-36.83,3.46c-2.3,7.17-3.11,10.18-6.89,15.3c-9.33,12.65-15.79,17.64-20.5,19.29
		c-9.57,3.34-22.94,0.66-27.18-2.02c-7.94-5.04-16.48-12.47-24.37-31.61c-5-1.68-2.87-0.96-20.95-7.95
		c-32.83-12.7-53.46-42.57-60.64-75.57c-2.47-11.36-0.55-24.54-4.78-35.41c-4.81-12.37-19.55-28.68-20.65-42.05
		c-2.63-31.91-1.34-30.91,4.51-31.91c17.64-3,26.77-0.66,44.1-2.35c24.21-17.04,31.75-34.5,97.41-42.67
		c36.55-4.54,49.5-4.08,76.76,4.02c21.78,6.48,31.11,15.11,44.59,21.95c16.73-7.31,108.3-37.86,121.55-40.64
		c46.41-9.72,69.36-31.059,106.4-59.258c34.27-26.091,72.55-44.134,114.87-45.61c108.11-3.771,176.61,34.633,239.55,91.357
		c39.7,35.791,71,77.65,90.82,127.361c7.67,19.23,15.6,61.47,1.33,146.31c4.13,1.13,12.09,19.79,20.3,26.56
		c3.64,5.42,0.95,17.83-4.271,32.68c15.23,24.84,65.91,25,65.91,25c20.26,0.12,44.99-0.27,70.49,0.27
		c16.98-56.15,26.11-115.69,26.11-177.38c0-337.998-274.001-612-612.001-612c-337.989,0-612,274.002-612,612
		c0,338,274.01,612,612,612c246.421,0,458.811-145.641,555.831-355.53c-48.69-0.03-97.591-0.13-140.67-16.84
		C1718.77,1250.147,1715.209,1256.488,1710.449,1265.038"/>
	<path fill="#82D3F5" d="M994.199,979.508c-9.22,1.82-17.48,6.729-21.82,17.24c-4.34,10.51-4.76,18.89,5.4,32.04
		c15.58,2.58,29.22-2.07,39.18-12.12c9.95-10.05,4.09-35.97,4.09-35.97S1004.139,977.538,994.199,979.508"/>
	<path fill="#82D3F5" d="M885.289,986.558c-11.83-2.1-22.53,5.53-22.53,5.53s-4.15,17.6,1.4,28.91
		c5.78,11.77,32.34,21.69,45.25,15.92c4.54-6.24,6.77-14.96,6.02-26.14C914.409,995.748,899.709,989.107,885.289,986.558"/>
	<path d="M1016.959,1016.667c-9.959,10.05-23.6,14.7-39.18,12.12c-10.16-13.15-9.74-21.53-5.4-32.04
		c4.34-10.51,12.6-15.42,21.82-17.24c9.94-1.97,26.85,1.189,26.85,1.189S1026.909,1006.618,1016.959,1016.667 M909.409,1036.917
		c-12.91,5.77-39.47-4.15-45.25-15.92c-5.55-11.31-1.4-28.91-1.4-28.91s10.7-7.63,22.53-5.53c14.42,2.55,29.12,9.19,30.14,24.22
		C916.179,1021.958,913.949,1030.678,909.409,1036.917 M1824.669,1172.458c0,0-50.68-0.16-65.899-25
		c5.21-14.85,7.899-27.26,4.26-32.68c-8.21-6.77-16.17-25.43-20.3-26.56c14.27-84.84,6.34-127.08-1.33-146.32
		c-19.82-49.7-51.12-91.56-90.82-127.352c-62.939-56.723-131.439-95.128-239.55-91.357c-42.32,1.477-80.601,19.52-114.87,45.61
		c-37.04,28.2-59.99,49.539-106.4,59.259c-13.25,2.78-104.82,33.33-121.55,40.64c-13.48-6.84-22.81-15.47-44.59-21.95
		c-27.26-8.1-40.21-8.56-76.76-4.02c-65.66,8.17-73.2,25.63-97.41,42.67c-17.33,1.69-26.46-0.65-44.1,2.35
		c-5.851,1-7.14,0-4.51,31.91c1.1,13.37,15.84,29.68,20.65,42.05c4.23,10.87,2.31,24.05,4.78,35.41c7.18,33,27.81,62.87,60.64,75.57
		c18.08,6.99,15.95,6.27,20.95,7.95c7.89,19.14,16.43,26.57,24.37,31.61c4.24,2.68,17.61,5.36,27.18,2.02
		c4.71-1.65,11.17-6.64,20.5-19.29c3.78-5.12,4.59-8.13,6.89-15.3c6.55-1.27,27.56-4.42,36.83-3.46
		c17.78,1.83,21.4,10.97,21.43,20.13c0.02,5.31-8.18,76.29-36.12,98.69l-68.08,47.33c-4.6,1.47-38.47-10.36-50.67,5.77
		c-7.19,9.5-11.15,18.18-8.63,35.29c8.42,3.82,60.92,6.87,70.08,4.48c33.77-8.83,57.33-19.08,88.27-35.64
		c48.33-25.86,63.16-30.38,88.66-51.05c12.48-17.11,16.37-35.87,26.41-50.61c6.41-0.1,39.45,3.36,48.42,2.021
		c14.72-2.19,15.04-2.13,25.41-3.59c-0.38,22.14,4.14,61.57-2.63,81.08c-6.52,10.33-26.29,25.61-26.29,25.61
		c-23.64,4.43-28.9-11.72-48.42,15.29c-4.91,6.79-6.85,13.15-3.41,28.15c15.66,7.4,58.31,4.86,72.89,1.69
		c10.17-4.9,16.27-11.18,25.94-17.7c19.82-13.38,58.15-58.69,71.821-73.31c5.02-5.37,17.609-27.41,32.1-62.5
		c0,0,7.51-17.46,15.34-37.81c13.189-13.4,81.38-0.62,81.38-0.62c1.89,14.77-1.44,29.95,2.97,38.81
		c13.36,26.85,60.95,40.1,56.29,70.57c-4.271,27.96,0.46,17.38-15.76,26.09c-7.7,4.13-30.22,14.13-36.04,15.58
		c-3.72,0.92-28.391-0.45-34.92,1.69c-8.62,2.83-24.4,33.99-20.27,43.36c10.93,5.36,56.31,4.5,74.33,4.5
		c0,0,23.449-8.68,60.81-25.34c12.77-5.7,13.71-12.39,26.47-21.4c9.01-15.76,38.95-69.07,46.55-85.21
		c4.421-16.37,16.63-16.54,16.63-16.54s9.711-4.06,19.591-6.49c9.04,19.85,20.02,34.96,29.729,45.82
		c-5.98,22.44-15.979,42.58-19.39,43.65c-13.14,4.13-22.04,7.6-31.04,10.84c-9.26,3.32-6.54,27.49-4.63,42.28
		c19.569,3.99,42.09,2,59.02-1.13c9.37-1.72,27.3-20.5,32.58-30.96c4.76-8.55,8.32-14.89,13.98-30.06
		c43.079,16.71,91.979,16.81,140.67,16.84c11.77-25.47,21.84-51.88,30.06-79.09
		C1869.659,1172.188,1844.929,1172.578,1824.669,1172.458"/>
	<g>
		<path d="M448.283,1908.136c15.3-9.899,68.399-24.3,136.799-24.3c77.399,0,111.599,28.8,111.599,109.8v47.699
			c0,103.499-0.9,211.499-5.4,279.898c-24.3,14.399-66.6,30.6-125.099,30.6c-65.699,0.9-128.699-13.5-128.699-136.799
			c0-125.1,59.4-147.6,119.699-147.6c19.8,0,47.7,2.7,65.7,11.7v-71.1c0-42.3-19.8-53.1-55.8-53.1c-45,0-92.699,9-118.799,19.8
			c-8.1-14.399-9.9-30.6-9.9-41.399C438.383,1923.436,441.083,1913.536,448.283,1908.136z M580.582,2122.335
			c-36,0-66.6,12.6-66.6,90.898c0,65.7,23.4,77.4,58.5,77.4c19.8,0,39.6-7.2,47.7-15.301c2.7-29.699,2.7-96.299,2.7-144.898
			C611.182,2125.034,593.182,2122.335,580.582,2122.335z"/>
		<path d="M833.472,2328.433c0,14.4,0,14.4-72.899,14.4v-628.195c0-33.3,14.4-33.3,72.899-33.3V2328.433z"/>
		<path d="M900.962,1908.136c15.3-9.899,68.399-24.3,136.799-24.3c77.399,0,111.599,28.8,111.599,109.8v47.699
			c0,103.499-0.9,211.499-5.4,279.898c-24.3,14.399-66.6,30.6-125.099,30.6c-65.699,0.9-128.699-13.5-128.699-136.799
			c0-125.1,59.4-147.6,119.699-147.6c19.8,0,47.7,2.7,65.7,11.7v-71.1c0-42.3-19.8-53.1-55.8-53.1c-45,0-92.699,9-118.799,19.8
			c-8.1-14.399-9.9-30.6-9.9-41.399C891.063,1923.436,893.762,1913.536,900.962,1908.136z M1033.261,2122.335
			c-36,0-66.6,12.6-66.6,90.898c0,65.7,23.4,77.4,58.5,77.4c19.8,0,39.6-7.2,47.7-15.301c2.7-29.699,2.7-96.299,2.7-144.898
			C1063.861,2125.034,1045.861,2122.335,1033.261,2122.335z"/>
		<path d="M1391.451,1992.735c-0.9-32.399-8.1-45-44.1-45c-19.8,0-40.5,4.5-61.2,15.3v365.397c0,14.4-2.699,14.4-72.899,14.4
			v-429.297c39.6-18,86.399-29.7,135.899-29.7c38.7,0,63.899,9.9,80.999,27.9c30.601-17.101,73.8-27.9,110.699-27.9
			c90,0,100.8,45.899,100.8,126.899v317.697c0,14.4-2.7,14.4-72.899,14.4v-332.998c0-43.199-8.1-61.199-44.1-61.199
			c-20.7,0-40.5,4.5-60.3,17.1v362.697c0,14.4,0.9,14.4-72.899,14.4V1992.735z"/>
		<path d="M1783.842,2328.433c0,14.4-0.9,14.4-74.7,14.4v-416.697c0-33.3,15.3-33.3,74.7-33.3V2328.433z M1752.342,1695.737
			c27.899,0,36.899,14.4,36,52.199c0,36.9-13.5,58.5-41.4,58.5c-23.399,0-36.899-14.399-36.899-56.699
			C1710.941,1717.337,1723.542,1695.737,1752.342,1695.737z"/>
		<path d="M2045.729,1714.638c0-33.3,13.499-33.3,72.899-33.3v643.495c-29.7,14.4-72.899,27-128.699,27
			c-78.3,0-146.699-22.5-146.699-217.799c0-178.198,61.199-250.198,138.599-250.198c27.9,0,48.601,6.3,63.9,18V1714.638z
			 M2045.729,1959.436c-11.7-9-22.5-11.7-41.4-11.7c-39.6,0-79.199,30.601-79.199,178.199c0,134.999,25.2,160.199,67.5,160.199
			c19.8,0,38.699-3.601,53.1-13.5V1959.436z"/>
	</g>
</g>
</svg>
