<svg xmlns="http://www.w3.org/2000/svg" width="1072" height="655" viewBox="0 0 1072 655" xmlns:xlink="http://www.w3.org/1999/xlink">
  <defs>
    <path id="a" d="M1.5,0.5 L1.5,26"/>
    <path id="b" d="M1.5,59.5 L1.5,85"/>
    <path id="c" d="M1.5,0.5 L1.5,26"/>
    <path id="d" d="M1.5,59.5 L1.5,85"/>
    <path id="e" d="M1.5,0.5 L1.5,26"/>
    <path id="f" d="M1.5,59.5 L1.5,85"/>
    <path id="g" d="M1.5,0.5 L1.5,26"/>
    <path id="h" d="M1.5,59.5 L1.5,85"/>
    <path id="i" d="M1.5,0.5 L1.5,26"/>
    <path id="j" d="M1.5,59.5 L1.5,85"/>
    <path id="k" d="M1.5,0.5 L1.5,26"/>
    <path id="l" d="M1.5,59.5 L1.5,85"/>
  </defs>
  <g fill="none" fill-rule="evenodd" transform="translate(5 5)">
    <g transform="translate(0 121)">
      <rect width="383" height="113" stroke="#4A90E2" stroke-width="10" rx="20"/>
      <text fill="#181818" font-family="Lato-Regular, Lato" font-size="36">
        <tspan x="104.178" y="66">Application</tspan>
      </text>
      <g transform="translate(0 143)">
        <rect width="383" height="113" stroke="#4A90E2" stroke-width="10" rx="20"/>
        <text fill="#181818" transform="translate(119 30)" font-size="36" font-family="Lato-Regular, Lato">
          <tspan x=".518" y="36">Hoodie.js</tspan>
        </text>
      </g>
      <g transform="translate(0 286)">
        <rect width="383" height="113" stroke="#4A90E2" stroke-width="10" rx="20"/>
        <text fill="#181818" transform="translate(80 30)" font-size="36" font-family="Lato-Regular, Lato">
          <tspan x=".692" y="36">Browser Store</tspan>
        </text>
      </g>
      <path stroke="#181818" stroke-width="8" d="M43.5,89.5 L43.5,171 L43.5,89.5 Z M40.5,100.3 L43.5,89.5 L46.5,100.3 L40.5,100.3 Z M43.5,171 L46.5,160.2 L40.5,160.2 L43.5,171 Z M43.5,230.5 L43.5,312 L43.5,230.5 Z M40.5,241.3 L43.5,230.5 L46.5,241.3 L40.5,241.3 Z M43.5,312 L46.5,301.2 L40.5,301.2 L43.5,312 Z" stroke-linecap="square"/>
    </g>
    <g transform="translate(679 121)">
      <rect width="383" height="187" stroke="#4A90E2" stroke-width="10" rx="20"/>
      <text fill="#181818" font-family="Lato-Regular, Lato" font-size="36">
        <tspan x="45.88" y="66"> Plugins (Node.js)</tspan>
      </text>
      <g transform="translate(0 212)">
        <rect width="383" height="187" stroke="#4A90E2" stroke-width="10" rx="20"/>
        <text fill="#181818" transform="translate(118 50)" font-size="36" font-family="Lato-Regular, Lato">
          <tspan x=".732" y="36">CouchDB</tspan>
        </text>
      </g>
      <path stroke="#181818" stroke-width="8" d="M43.5,156.5 L43.5,238 L43.5,156.5 Z M40.5,167.3 L43.5,156.5 L46.5,167.3 L40.5,167.3 Z M43.5,238 L46.5,227.2 L40.5,227.2 L43.5,238 Z" stroke-linecap="square"/>
    </g>
    <rect width="79" height="256" x="419" y="264" stroke="#4A90E2" stroke-width="10" rx="20"/>
    <rect width="79" height="189" x="576" y="331" stroke="#4A90E2" stroke-width="10" rx="20"/>
    <text fill="#000000" transform="rotate(90 459 386.75)" font-family="Lato-Regular, Lato" font-size="36">
      <tspan x="421.83" y="400.75">Sync</tspan>
    </text>
    <text fill="#000000" transform="rotate(90 616 423.75)" font-family="Lato-Regular, Lato" font-size="36">
      <tspan x="541.552" y="437.75">REST API</tspan>
    </text>
    <path stroke="#181818" stroke-width="8" d="M536.5,447.5 L536.5,529 L536.5,447.5 Z M533.5,458.3 L536.5,447.5 L539.5,458.3 L533.5,458.3 Z M536.5,529 L539.5,518.2 L533.5,518.2 L536.5,529 Z" stroke-linecap="square" transform="rotate(90 536.5 488.25)"/>
    <text fill="#000000" font-family="Lato-Regular, Lato" font-size="36">
      <tspan x="144.3" y="77">Client</tspan>
    </text>
    <text fill="#000000" font-family="Lato-Regular, Lato" font-size="36">
      <tspan x="819.106" y="77">Server</tspan>
    </text>
    <g stroke="#979797" transform="translate(534)" stroke-linecap="square">
      <g transform="translate(1)">
        <use stroke-width="10" xlink:href="#a"/>
        <use xlink:href="#a"/>
        <g>
          <use stroke-width="10" xlink:href="#b"/>
          <use xlink:href="#b"/>
        </g>
      </g>
      <g transform="translate(0 224)">
        <use stroke-width="10" xlink:href="#c"/>
        <use xlink:href="#c"/>
        <g>
          <use stroke-width="10" xlink:href="#d"/>
          <use xlink:href="#d"/>
        </g>
      </g>
      <g transform="translate(0 448)">
        <use stroke-width="10" xlink:href="#e"/>
        <use xlink:href="#e"/>
        <g>
          <use stroke-width="10" xlink:href="#f"/>
          <use xlink:href="#f"/>
        </g>
      </g>
      <g transform="translate(1 112)">
        <use stroke-width="10" xlink:href="#g"/>
        <use xlink:href="#g"/>
        <g>
          <use stroke-width="10" xlink:href="#h"/>
          <use xlink:href="#h"/>
        </g>
      </g>
      <g transform="translate(0 336)">
        <use stroke-width="10" xlink:href="#i"/>
        <use xlink:href="#i"/>
        <g>
          <use stroke-width="10" xlink:href="#j"/>
          <use xlink:href="#j"/>
        </g>
      </g>
      <g transform="translate(0 560)">
        <use stroke-width="10" xlink:href="#k"/>
        <use xlink:href="#k"/>
        <g>
          <use stroke-width="10" xlink:href="#l"/>
          <use xlink:href="#l"/>
        </g>
      </g>
    </g>
  </g>
</svg>
