<svg viewBox="0 0 425.2 425.2" xmlns="http://www.w3.org/2000/svg" xmlns:xlink="http://www.w3.org/1999/xlink"><clipPath id="a"><path d="m0 .06h425.2v425.2h-425.2z"/></clipPath><path d="m212.78 390a177.31 177.31 0 1 0 -177.31-177.34 177.31 177.31 0 0 0 177.31 177.34z" fill="#fffffd"/><g clip-path="url(#a)" fill="#087c79"><path d="m222.23 267.06q-16.8 12.12-33.52 24.38l-74.15-128.44 68.77-39.7c18.78-10.83 35.56-13.51 48.51-7.77 16 7.11 24.54 25.87 19.42 42.72-2 6.77-6.31 15.18-30.92 29.38-11.2 6.47-29.88 17.36-29.88 17.36l-3 1.78 34.81 60.27z"/><path d="m406.45 125.32a212.55 212.55 0 0 0 -281.09-106.45 212.49 212.49 0 1 0 174.64 387.46c106.85-48.12 154.63-174.18 106.49-281zm-115.33 131.79a24.63 24.63 0 0 0 -18.46 4.14c-2.8 1.88-8.14 5.68-15.89 11.27l-73.11 52.82-3.17 2.32-100.49-173.9 3-1.76s66-38.09 75-43.31c1.63-.94 3.27-1.9 4.9-2.87l.49-.28a188.07 188.07 0 0 1 17.7-9.61c10.55-4.79 24.59-10.13 39.12-9.29a62 62 0 0 1 36.28 14.55c21.21 17.81 26.92 50.1 13.27 75.13-7 12.91-18.45 21.18-28.67 27.56-6.39 4-13 7.69-19.44 11.28l21.15 36.61.68-.49c5.73-4.17 12.22-8.91 18.95-12.86 19-11.07 44.2-7.86 60 7.67 16.61 16.3 18.84 43.53 5.08 62-9.31 12.51-24.54 20-40.73 20a53 53 0 0 1 -22.31-4.89c-8.4-3.87-14.77-9.9-21.3-20.18l21.85-12.7a25.82 25.82 0 0 0 17.77 12.2 25.42 25.42 0 0 0 18.49-3.56 22.06 22.06 0 0 0 10-14.66c2.29-12.5-6.75-24.67-20.16-27.12z"/></g></svg>