<svg viewBox="0 0 2854.24 834.24" xmlns="http://www.w3.org/2000/svg" xmlns:xlink="http://www.w3.org/1999/xlink"><clipPath id="a"><path d="m9.85 11.76h2834.53v810.71h-2834.53z"/></clipPath><path d="m415.8 765.13c192.38 0 348.33-156 348.33-348.34s-155.95-348.33-348.33-348.33-348.34 155.95-348.34 348.33 156 348.34 348.34 348.34z" fill="#fff"/><g clip-path="url(#a)" fill="#34b6b2"><path d="m433 520.56q-32 23.07-63.85 46.44l-141.23-244.66 131-75.62c35.77-20.65 67.73-25.76 92.4-14.82 30.49 13.55 46.74 49.3 37 81.4-3.91 12.89-12 28.91-58.9 56-21.32 12.32-56.9 33.07-56.9 33.07l-5.79 3.38z"/><path d="m783.85 250.52c-44.4-98.59-124.55-174-225.67-212.29s-211.08-34.94-309.69 9.48-173.98 124.55-212.29 225.67-34.94 211.09 9.48 309.68 124.55 173.94 225.67 212.29a402.24 402.24 0 0 0 309.65-9.46c203.55-91.69 294.54-331.89 202.85-535.37zm-219.64 251.07c-12.11-2.17-24.28.5-35.17 7.89-5.32 3.59-15.5 10.82-30.26 21.48l-139.25 100.62-6 4.42-191.38-331.3 5.82-3.36s125.46-72.57 142.73-82.5c3.1-1.8 6.22-3.63 9.33-5.47l.92-.54c10.77-6.36 21.92-12.94 33.72-18.3 20.11-9.12 46.83-19.3 74.5-17.7a118 118 0 0 1 69.11 27.72c40.4 33.92 51.27 95.45 25.28 143.12-13.43 24.61-35.15 40.33-54.56 52.52-12.17 7.58-24.79 14.65-37 21.48l40.28 69.75 1.29-.93c10.91-7.95 23.28-17 36.1-24.5 36.11-21.1 84.18-15 114.31 14.61 31.63 31.06 35.88 82.93 9.66 118.07-17.73 23.82-46.72 38-77.55 38a100.9 100.9 0 0 1 -42.5-9.33c-16-7.37-28.14-18.86-40.56-38.44l41.6-24.2a49.23 49.23 0 0 0 33.77 23.3 48.5 48.5 0 0 0 35.23-6.77 42.15 42.15 0 0 0 19-27.94c4.35-23.82-12.88-47-38.4-51.67z"/></g><g fill="#1d1d1b"><path d="m1084.9 285.72c-21.58 0-50.7 8.77-67.68 33.36l-3.83 5.53-4-34.09h-44.93v299.76h48.13v-121.18l4.67 7.21c14 21.65 45 29.37 69.39 29.37 63.43 0 106-44.2 106-110 0-63.73-45.33-110-107.8-110zm-3.9 173.56c-36.26 0-63.59-27.33-63.59-63.58 0-37.44 26.14-63.59 63.59-63.59s63.59 26.15 63.59 63.59c0 36.25-27.34 63.58-63.59 63.58z"/><path d="m1841.75 314.19-3.59 5.77-4.65-29.44h-44.58v209.92h48.14v-110.84c0-35.72 21-57.05 56.17-57.05 17.45 0 27.67 4.75 37.57 12.55l21.67-41.77c-12.18-11.28-32.45-18.48-52.26-18.48-20.88 0-42.4 3.56-58.47 29.34z"/><path d="m2013.21 198.83c-13.89 0-28.86 8.93-28.86 28.54s15 28.53 28.86 28.53 28.86-8.93 28.86-28.53-15-28.54-28.86-28.54z"/><path d="m1989.15 500.44h48.13v-210.79h-48.13z"/><path d="m2278.32 269.7-21.32 26.94-1.94-1.32c-15.43-10.44-33.68-11.78-47.87-11.78-62.7 0-106.48 43.79-106.48 106.49 0 65.14 40.8 105.61 106.48 105.61 27.48 0 57.05 14.31 57.05 45.71 0 29.17-22.93 48.76-57.05 48.76-32.48 0-57.23-19.69-58.72-46.22h-47.73c1.32 53.64 44.72 90.87 106.45 90.87 62.92 0 105.19-37.54 105.19-93.41 0-32.69-13.29-53.91-43.09-68.81l-4.73-2.38 4.82-2.2c40.71-18.59 43.87-64.35 43.87-77.93 0-24.94-7.21-45.22-22.05-62l-1.4-1.58 23.7-30.16-35.2-26.6zm-71.11 182.61c-34.61 0-58.79-25.61-58.79-62.28s24.72-63.15 58.79-63.15c33.82 0 58.36 26.56 58.36 63.15 0 36.09-24.54 62.28-58.36 62.28z"/><path d="m2473.18 286.16c-63 0-108.65 46.07-108.65 109.54 0 64.5 44.86 109.54 109.1 109.54 64.49 0 109.54-45 109.54-109.54 0-63.47-46.25-109.54-110-109.54zm.45 175.31c-41.9 0-61-34.09-61-65.77 0-32.9 20.94-66.2 61-66.2 38.16 0 61 33.66 61 66.2 0 31.68-19.08 65.77-61 65.77z"/><path d="m2755.77 287c-25.37 0-46.61 9.73-68.87 31.55l-3.68 3.6-3.83-32.1h-42.75v210.39h47.7v-107.36c0-35.75 24.71-62.71 57.48-62.71 33.07 0 54.43 23.59 54.43 60.1v110h48.13v-110.47c0-61.61-35.61-103-88.61-103z"/><path d="m1356.35 463.2c-37.2 0-62.73-18.39-66.62-48l-.38-2.86h168.48c3.47-41.62-5.24-75.17-25.25-97.13-18.36-20.16-46.38-30.81-81-30.81-66.82 0-111.72 44.2-111.72 110 0 69.18 44.31 112.15 115.64 112.15 32 0 68-10.06 88.65-29.06l-21.15-36.78c-19.1 15.15-42.35 22.49-66.65 22.49zm-65.66-93.06c7.68-27.37 31.1-43.71 62.61-43.71 33.58 0 54.84 16.07 58.34 44.09l.35 2.84h-122.21z"/><path d="m1628.8 463.2c-37.2 0-62.73-18.39-66.62-48l-.38-2.86h168.48c3.46-41.62-5.24-75.17-25.25-97.13-18.36-20.16-46.38-30.81-81-30.81-66.83 0-111.72 44.2-111.72 110 0 69.18 44.31 112.15 115.64 112.15 32 0 68-10.06 88.65-29.06l-21.13-36.76c-19.11 15.15-42.35 22.49-66.65 22.49zm-65.66-93.06c7.68-27.37 31.09-43.71 62.61-43.71 33.57 0 54.84 16.07 58.33 44.09l.36 2.84h-122.22z"/></g></svg>