<svg version="1.1" id="Ebene_1" xmlns="http://www.w3.org/2000/svg" xmlns:xlink="http://www.w3.org/1999/xlink" x="0" y="0" viewBox="0 0 425.2 425.2" xml:space="preserve"><style>.st0{clip-path:url(#SVGID_2_);fill:#fff}</style><defs><path id="SVGID_1_" d="M0 .1h425.2v425.2H0z"/></defs><clipPath id="SVGID_2_"><use xlink:href="#SVGID_1_" overflow="visible"/></clipPath><path class="st0" d="M222.2 267.1c-11.2 8.1-22.4 16.2-33.5 24.4L114.6 163l68.8-39.7c18.8-10.8 35.6-13.5 48.5-7.8 16 7.1 24.5 25.9 19.4 42.7-2 6.8-6.3 15.2-30.9 29.4-11.2 6.5-29.9 17.4-29.9 17.4l-3 1.8 34.7 60.3z"/><path class="st0" d="M406.5 125.3C358.2 18.3 232.4-29.3 125.4 18.9c-107 48.2-154.7 174-106.4 281s174 154.7 281 106.4c106.9-48.1 154.6-174.1 106.5-281zM291.1 257.1c-6.5-1.1-13.1.4-18.5 4.1-2.8 1.9-8.1 5.7-15.9 11.3l-73.1 52.8-3.2 2.3L80 153.8l3-1.8 75-43.3c1.6-.9 3.3-1.9 4.9-2.9l.5-.3c5.7-3.5 11.6-6.7 17.7-9.6 10.6-4.8 24.6-10.1 39.1-9.3 13.3.8 26.1 5.9 36.3 14.6 21.2 17.8 26.9 50.1 13.3 75.1-7 12.9-18.4 21.2-28.7 27.6-6.4 4-13 7.7-19.4 11.3l21.1 36.6.7-.5c5.7-4.2 12.2-8.9 18.9-12.9 19-11.1 44.2-7.9 60 7.7 16.6 16.3 18.8 43.5 5.1 62-9.3 12.5-24.5 20-40.7 20-7.7 0-15.3-1.7-22.3-4.9-8.4-3.9-14.8-9.9-21.3-20.2l21.8-12.7c3.9 6.5 10.4 10.9 17.8 12.2 6.4 1.2 13-.1 18.5-3.6 5.2-3.3 8.9-8.6 10-14.7 2.3-12.4-6.8-24.6-20.2-27.1z"/></svg>