<?xml version="1.0" encoding="utf-8"?>
<!-- Generator: Adobe Illustrator 19.2.1, SVG Export Plug-In . SVG Version: 6.00 Build 0)  -->
<svg version="1.1" id="Ebene_1" xmlns="http://www.w3.org/2000/svg" xmlns:xlink="http://www.w3.org/1999/xlink" x="0px" y="0px"
	 viewBox="0 0 800 1000" style="enable-background:new 0 0 800 1000;" xml:space="preserve">
<style type="text/css">
	.st0{fill:none;}
	.st1{fill:none;stroke:#000000;stroke-width:3;stroke-miterlimit:10;}
	.st2{fill:none;stroke:#000000;stroke-width:3;stroke-miterlimit:10;stroke-dasharray:4.9957,4.9957;}
	.st3{fill:none;stroke:#46E1C8;stroke-width:7;stroke-linecap:round;stroke-miterlimit:10;}
	.st4{fill:#46E1C8;}
	.st5{fill:none;stroke:#E6BE00;stroke-width:7;stroke-linecap:round;stroke-miterlimit:10;}
	.st6{fill:#E6BE00;}
</style>
<g>
	<rect x="38.6" y="58.8" class="st0" width="145.6" height="33.3"/>
	<path d="M59,77.1c-2.2,2.2-4.9,3.1-8,3.1c-7.8,0-11.1-5.4-11.1-10.8c0-5.5,3.5-11.1,11.1-11.1c2.9,0,5.5,1,7.7,3.2l-2.6,2.6
		c-1.4-1.4-3.2-2-5.1-2c-5.1,0-7.2,3.8-7.2,7.3c0,3.5,2.1,7.1,7.2,7.1c1.8,0,3.9-0.7,5.3-2.1L59,77.1z"/>
	<path d="M65.3,58.8v21h-3.6v-21H65.3z"/>
	<path d="M71.2,58.7c1.1,0,2.2,0.7,2.2,2.1c0,1.4-1.1,2.1-2.2,2.1c-1.1,0-2.2-0.7-2.2-2.1C69.1,59.4,70.1,58.7,71.2,58.7z M73,64.9
		v14.8h-3.7V64.9H73z"/>
	<path d="M79.9,73.7c0.2,1.8,1.8,3.1,4.4,3.1c1.3,0,3.1-0.5,4-1.4l2.3,2.3c-1.6,1.6-4.1,2.4-6.4,2.4c-5.1,0-8.1-3.2-8.1-7.9
		c0-4.5,3.1-7.7,7.9-7.7c4.9,0,8,3.1,7.5,9.1H79.9z M88,70.7c-0.2-1.9-1.7-2.9-3.8-2.9c-2,0-3.6,1-4.1,2.9H88z"/>
	<path d="M105.4,79.8v-7.8c0-2.2-1.3-4-3.6-4c-2.3,0-3.8,1.9-3.8,4.1v7.6h-3.6V65h3.3l0.2,1.9c1.5-1.6,3-2.2,4.9-2.2
		c3.5,0,6.3,2.6,6.3,7.3v7.9H105.4z"/>
	<path d="M117.9,60.8v4.3h4.1v3.1h-4.1v6.5c0,1.4,0.8,2.1,1.9,2.1c0.6,0,1.2-0.2,1.8-0.4l1,3.1c-1.1,0.5-1.9,0.6-3,0.6
		c-3.2,0.1-5.3-1.7-5.3-5.4v-6.5h-2.8v-3.1h2.8v-3.9L117.9,60.8z"/>
</g>
<g>
	<rect x="606.4" y="58.8" class="st0" width="145.6" height="33.3"/>
	<path d="M669,64c-0.7-1.2-2.7-2.3-5-2.3c-3,0-4.3,1.3-4.3,2.6c0,1.8,2.2,2.3,4.7,2.6c4.4,0.6,8.5,1.6,8.5,6.7
		c0,4.7-4.1,6.7-8.8,6.7c-4.3,0-7.6-1.3-9.1-5.2l3.3-1.7c1,2.3,3.3,3.3,5.9,3.3c2.5,0,4.8-0.9,4.8-3.1c0-2-2.1-2.8-4.9-3.1
		c-4.3-0.5-8.2-1.7-8.2-6.4c0-3.9,4.3-5.9,8.1-5.9c3.3,0,6.6,0.9,8.2,4.2L669,64z"/>
	<path d="M678.8,73.7c0.2,1.8,1.8,3.1,4.4,3.1c1.3,0,3.1-0.5,4-1.4l2.3,2.3c-1.6,1.6-4.1,2.4-6.4,2.4c-5.1,0-8.1-3.2-8.1-7.9
		c0-4.5,3.1-7.7,7.9-7.7c4.9,0,8,3.1,7.5,9.1H678.8z M686.9,70.7c-0.2-1.9-1.7-2.9-3.8-2.9c-2,0-3.6,1-4.1,2.9H686.9z"/>
	<path d="M696.7,65l0.3,1.7c1.1-1.8,2.7-2.1,4.2-2.1c1.5,0,3,0.6,3.8,1.4l-1.7,3.2c-0.8-0.6-1.4-1-2.6-1c-1.9,0-3.7,1-3.7,3.7v7.8
		h-3.7V65H696.7z"/>
	<path d="M721.9,64.9l-6.3,14.9h-4l-6.3-14.9h4l2,4.9l2.3,6.2l2.2-6.2l2-4.9H721.9z"/>
	<path d="M726.6,73.7c0.2,1.8,1.8,3.1,4.4,3.1c1.3,0,3.1-0.5,4-1.4l2.3,2.3c-1.6,1.6-4.1,2.4-6.4,2.4c-5.1,0-8.1-3.2-8.1-7.9
		c0-4.5,3.1-7.7,7.9-7.7c4.9,0,8,3.1,7.5,9.1H726.6z M734.6,70.7c-0.2-1.9-1.7-2.9-3.8-2.9c-2,0-3.6,1-4.1,2.9H734.6z"/>
	<path d="M744.5,65l0.3,1.7c1.1-1.8,2.7-2.1,4.2-2.1c1.5,0,3,0.6,3.8,1.4l-1.7,3.2c-0.8-0.6-1.4-1-2.6-1c-1.9,0-3.7,1-3.7,3.7v7.8
		h-3.7V65H744.5z"/>
</g>
<g>
	<g>
		<line class="st1" x1="81.4" y1="114.8" x2="81.4" y2="117.3"/>
		<line class="st2" x1="81.4" y1="122.3" x2="81.4" y2="949.1"/>
		<line class="st1" x1="81.4" y1="951.6" x2="81.4" y2="954.1"/>
	</g>
</g>
<g>
	<g>
		<line class="st1" x1="702.8" y1="114.8" x2="702.8" y2="117.3"/>
		<line class="st2" x1="702.8" y1="122.3" x2="702.8" y2="949.1"/>
		<line class="st1" x1="702.8" y1="951.6" x2="702.8" y2="954.1"/>
	</g>
</g>
<g>
	<g>
		<line class="st3" x1="687.3" y1="234.7" x2="96.3" y2="150"/>
		<g>
			<polygon class="st4" points="676,215.7 672.7,218.3 685.7,234.5 668.7,246.3 671.1,249.7 691.8,235.3 			"/>
		</g>
	</g>
</g>
<g>
	<g>
		<line class="st5" x1="96.8" y1="369.1" x2="687.8" y2="284.4"/>
		<g>
			<polygon class="st6" points="113,384.1 115.4,380.7 98.4,368.9 111.4,352.8 108.1,350.1 92.3,369.7 			"/>
		</g>
	</g>
</g>
<g>
	<g>
		<line class="st3" x1="687.3" y1="511.6" x2="96.3" y2="426.9"/>
		<g>
			<polygon class="st4" points="676,492.6 672.7,495.2 685.7,511.3 668.7,523.1 671.1,526.6 691.8,512.2 			"/>
		</g>
	</g>
</g>
<g>
	<g>
		<line class="st5" x1="96.8" y1="646" x2="687.8" y2="561.3"/>
		<g>
			<polygon class="st6" points="113,661 115.4,657.6 98.4,645.8 111.4,629.6 108.1,627 92.3,646.6 			"/>
		</g>
	</g>
</g>
<g>
	<g>
		<line class="st3" x1="687.3" y1="788.4" x2="96.3" y2="703.7"/>
		<g>
			<polygon class="st4" points="676,769.4 672.7,772.1 685.7,788.2 668.7,800 671.1,803.4 691.8,789.1 			"/>
		</g>
	</g>
</g>
<g>
	<g>
		<line class="st5" x1="96.8" y1="922.8" x2="687.8" y2="838.1"/>
		<g>
			<polygon class="st6" points="113,937.9 115.4,934.4 98.4,922.6 111.4,906.5 108.1,903.9 92.3,923.5 			"/>
		</g>
	</g>
</g>
<g>
	<rect x="93.5" y="115" class="st0" width="240.8" height="36.7"/>
	<path d="M103.2,131c0.5,0,0.9,0,1.3-0.1c0.4,0,0.8-0.1,1.1-0.2c0.3-0.1,0.7-0.2,1-0.3c0.3-0.1,0.6-0.3,0.9-0.4v-3.8h-2.7
		c-0.2,0-0.3,0-0.4-0.1c-0.1-0.1-0.1-0.2-0.1-0.3v-1.3h5.3v6.6c-0.4,0.3-0.9,0.6-1.4,0.8c-0.5,0.2-1,0.4-1.5,0.6
		c-0.5,0.2-1.1,0.3-1.7,0.3c-0.6,0.1-1.3,0.1-2,0.1c-1.2,0-2.4-0.2-3.4-0.6c-1-0.4-1.9-1-2.7-1.8s-1.3-1.7-1.8-2.8
		c-0.4-1.1-0.6-2.3-0.6-3.6c0-1.3,0.2-2.5,0.6-3.6c0.4-1.1,1-2,1.8-2.8s1.7-1.4,2.8-1.8c1.1-0.4,2.3-0.6,3.6-0.6
		c0.7,0,1.3,0.1,1.9,0.2s1.1,0.2,1.6,0.4c0.5,0.2,1,0.4,1.4,0.7c0.4,0.3,0.8,0.6,1.2,0.9l-0.7,1.1c-0.1,0.2-0.3,0.3-0.5,0.3
		c-0.1,0-0.3,0-0.4-0.1c-0.2-0.1-0.4-0.2-0.7-0.4s-0.5-0.3-0.9-0.5s-0.8-0.3-1.3-0.4s-1.1-0.2-1.7-0.2c-1,0-1.8,0.2-2.6,0.5
		c-0.8,0.3-1.5,0.8-2,1.4c-0.6,0.6-1,1.3-1.3,2.1s-0.4,1.8-0.4,2.8c0,1.1,0.2,2.1,0.5,2.9s0.7,1.6,1.3,2.2c0.6,0.6,1.2,1,2,1.4
		S102.3,131,103.2,131z"/>
	<path d="M115.7,116.7c0,0.2,0,0.4-0.1,0.6c-0.1,0.2-0.2,0.3-0.3,0.5c-0.1,0.1-0.3,0.3-0.5,0.3c-0.2,0.1-0.4,0.1-0.6,0.1
		s-0.4,0-0.6-0.1c-0.2-0.1-0.3-0.2-0.5-0.3c-0.1-0.1-0.2-0.3-0.3-0.5c-0.1-0.2-0.1-0.4-0.1-0.6c0-0.2,0-0.4,0.1-0.6
		c0.1-0.2,0.2-0.4,0.3-0.5c0.1-0.1,0.3-0.2,0.5-0.3c0.2-0.1,0.4-0.1,0.6-0.1s0.4,0,0.6,0.1c0.2,0.1,0.3,0.2,0.5,0.3
		c0.1,0.1,0.3,0.3,0.3,0.5S115.7,116.5,115.7,116.7z M115.2,120.5v12.2h-2.1v-12.2H115.2z"/>
	<path d="M117.4,120.5h1.8c0.2,0,0.3,0,0.4,0.1c0.1,0.1,0.2,0.2,0.2,0.3l3.1,7.8c0.1,0.3,0.2,0.6,0.3,0.9s0.1,0.6,0.2,0.9
		c0.1-0.3,0.1-0.6,0.2-0.9c0.1-0.3,0.2-0.6,0.3-0.9l3.1-7.8c0-0.1,0.1-0.2,0.2-0.3c0.1-0.1,0.2-0.1,0.4-0.1h1.7l-5,12.2h-1.9
		L117.4,120.5z"/>
	<path d="M135.8,120.3c0.7,0,1.4,0.1,2,0.4c0.6,0.2,1.1,0.6,1.6,1.1c0.4,0.5,0.8,1,1.1,1.7c0.3,0.7,0.4,1.4,0.4,2.3
		c0,0.3,0,0.6-0.1,0.7c-0.1,0.1-0.2,0.2-0.4,0.2h-8.1c0,0.8,0.1,1.4,0.3,2s0.5,1,0.8,1.4s0.7,0.7,1.2,0.9c0.5,0.2,1,0.3,1.6,0.3
		c0.5,0,1-0.1,1.4-0.2c0.4-0.1,0.7-0.3,1-0.4c0.3-0.1,0.5-0.3,0.7-0.4s0.3-0.2,0.5-0.2c0.2,0,0.3,0.1,0.4,0.2l0.6,0.8
		c-0.3,0.3-0.6,0.6-0.9,0.8c-0.4,0.2-0.8,0.4-1.2,0.6c-0.4,0.2-0.9,0.3-1.3,0.3c-0.4,0.1-0.9,0.1-1.3,0.1c-0.8,0-1.6-0.1-2.3-0.4
		c-0.7-0.3-1.3-0.7-1.8-1.2s-0.9-1.2-1.2-2c-0.3-0.8-0.4-1.7-0.4-2.8c0-0.8,0.1-1.6,0.4-2.4c0.3-0.7,0.6-1.4,1.1-1.9
		c0.5-0.5,1.1-1,1.8-1.3C134.1,120.5,134.9,120.3,135.8,120.3z M135.8,121.9c-1,0-1.8,0.3-2.4,0.9c-0.6,0.6-1,1.4-1.1,2.5h6.6
		c0-0.5-0.1-1-0.2-1.4c-0.1-0.4-0.3-0.8-0.6-1.1c-0.3-0.3-0.6-0.5-1-0.7S136.3,121.9,135.8,121.9z"/>
	<path d="M148.2,132.6v-12.2h1.3c0.3,0,0.5,0.1,0.6,0.4l0.2,1.2c0.4-0.6,1-1,1.5-1.4c0.6-0.4,1.2-0.5,1.9-0.5c0.8,0,1.5,0.2,2,0.7
		c0.5,0.5,0.9,1.1,1.1,1.8c0.2-0.4,0.4-0.8,0.7-1.1c0.3-0.3,0.6-0.6,0.9-0.8c0.3-0.2,0.7-0.4,1.1-0.5c0.4-0.1,0.8-0.1,1.2-0.1
		c0.6,0,1.2,0.1,1.7,0.3s0.9,0.5,1.3,0.9c0.3,0.4,0.6,0.9,0.8,1.4c0.2,0.6,0.3,1.2,0.3,2v7.7h-2.1v-7.7c0-1-0.2-1.7-0.6-2.2
		c-0.4-0.5-1-0.7-1.8-0.7c-0.4,0-0.7,0.1-1,0.2s-0.6,0.3-0.8,0.5c-0.2,0.2-0.4,0.5-0.6,0.9c-0.1,0.4-0.2,0.8-0.2,1.3v7.7h-2.1v-7.7
		c0-1-0.2-1.7-0.6-2.2s-1-0.7-1.7-0.7c-0.5,0-1,0.1-1.5,0.4c-0.5,0.3-0.9,0.7-1.2,1.2v9.1H148.2z"/>
	<path d="M172.7,120.3c0.7,0,1.4,0.1,2,0.4c0.6,0.2,1.1,0.6,1.6,1.1c0.4,0.5,0.8,1,1.1,1.7c0.3,0.7,0.4,1.4,0.4,2.3
		c0,0.3,0,0.6-0.1,0.7c-0.1,0.1-0.2,0.2-0.4,0.2h-8.1c0,0.8,0.1,1.4,0.3,2s0.5,1,0.8,1.4s0.7,0.7,1.2,0.9c0.5,0.2,1,0.3,1.6,0.3
		c0.5,0,1-0.1,1.4-0.2c0.4-0.1,0.7-0.3,1-0.4c0.3-0.1,0.5-0.3,0.7-0.4s0.3-0.2,0.5-0.2c0.2,0,0.3,0.1,0.4,0.2l0.6,0.8
		c-0.3,0.3-0.6,0.6-0.9,0.8c-0.4,0.2-0.8,0.4-1.2,0.6c-0.4,0.2-0.9,0.3-1.3,0.3c-0.4,0.1-0.9,0.1-1.3,0.1c-0.8,0-1.6-0.1-2.3-0.4
		c-0.7-0.3-1.3-0.7-1.8-1.2s-0.9-1.2-1.2-2c-0.3-0.8-0.4-1.7-0.4-2.8c0-0.8,0.1-1.6,0.4-2.4c0.3-0.7,0.6-1.4,1.1-1.9
		c0.5-0.5,1.1-1,1.8-1.3C171,120.5,171.8,120.3,172.7,120.3z M172.7,121.9c-1,0-1.8,0.3-2.4,0.9c-0.6,0.6-1,1.4-1.1,2.5h6.6
		c0-0.5-0.1-1-0.2-1.4c-0.1-0.4-0.3-0.8-0.6-1.1c-0.3-0.3-0.6-0.5-1-0.7S173.2,121.9,172.7,121.9z"/>
	<path d="M194,132.6h-0.9c-0.2,0-0.4,0-0.5-0.1c-0.1-0.1-0.2-0.2-0.3-0.4l-0.2-1.1c-0.3,0.3-0.6,0.5-0.9,0.8c-0.3,0.2-0.6,0.4-1,0.6
		c-0.3,0.2-0.7,0.3-1.1,0.4c-0.4,0.1-0.8,0.1-1.3,0.1c-0.5,0-0.9-0.1-1.3-0.2c-0.4-0.1-0.8-0.3-1.1-0.6c-0.3-0.3-0.5-0.6-0.7-1
		c-0.2-0.4-0.3-0.9-0.3-1.4c0-0.5,0.1-0.9,0.4-1.4c0.3-0.4,0.7-0.8,1.3-1.2c0.6-0.3,1.4-0.6,2.3-0.8s2.1-0.3,3.5-0.3v-1
		c0-1-0.2-1.7-0.6-2.2c-0.4-0.5-1-0.7-1.8-0.7c-0.5,0-1,0.1-1.3,0.2c-0.4,0.1-0.7,0.3-0.9,0.4s-0.5,0.3-0.7,0.4
		c-0.2,0.1-0.4,0.2-0.6,0.2c-0.1,0-0.3,0-0.4-0.1c-0.1-0.1-0.2-0.2-0.3-0.3l-0.4-0.7c0.7-0.6,1.4-1.1,2.2-1.5
		c0.8-0.3,1.6-0.5,2.6-0.5c0.7,0,1.3,0.1,1.8,0.3c0.5,0.2,1,0.5,1.3,0.9c0.4,0.4,0.6,0.9,0.8,1.5s0.3,1.2,0.3,1.9V132.6z
		 M188.5,131.3c0.4,0,0.7,0,1-0.1s0.6-0.2,0.9-0.3c0.3-0.1,0.5-0.3,0.8-0.5c0.3-0.2,0.5-0.4,0.7-0.7v-2.5c-1,0-1.8,0.1-2.5,0.2
		c-0.7,0.1-1.2,0.3-1.7,0.5s-0.7,0.4-0.9,0.7c-0.2,0.3-0.3,0.6-0.3,0.9c0,0.3,0.1,0.6,0.2,0.8s0.2,0.4,0.4,0.6s0.4,0.3,0.6,0.3
		C187.9,131.3,188.2,131.3,188.5,131.3z"/>
	<path d="M196.5,131.3c0-0.2,0-0.4,0.1-0.6c0.1-0.2,0.2-0.3,0.3-0.5c0.1-0.1,0.3-0.2,0.5-0.3s0.4-0.1,0.6-0.1s0.4,0,0.6,0.1
		s0.3,0.2,0.5,0.3c0.1,0.1,0.2,0.3,0.3,0.5c0.1,0.2,0.1,0.4,0.1,0.6c0,0.2,0,0.4-0.1,0.6c-0.1,0.2-0.2,0.3-0.3,0.5
		c-0.1,0.1-0.3,0.2-0.5,0.3c-0.2,0.1-0.4,0.1-0.6,0.1s-0.4,0-0.6-0.1c-0.2-0.1-0.3-0.2-0.5-0.3c-0.1-0.1-0.2-0.3-0.3-0.5
		C196.6,131.7,196.5,131.5,196.5,131.3z"/>
	<path d="M204.7,120.5v13.1c0,0.5-0.1,0.9-0.2,1.4s-0.3,0.8-0.6,1.1s-0.6,0.6-1.1,0.7c-0.4,0.2-1,0.3-1.6,0.3c-0.3,0-0.5,0-0.7-0.1
		c-0.2,0-0.4-0.1-0.6-0.2l0.1-1.2c0-0.1,0.1-0.2,0.1-0.2c0.1,0,0.1,0,0.3,0c0.1,0,0.1,0,0.2,0s0.2,0,0.3,0c0.6,0,1.1-0.1,1.3-0.4
		c0.3-0.3,0.4-0.8,0.4-1.4v-13H204.7z M205.2,116.7c0,0.2,0,0.4-0.1,0.6c-0.1,0.2-0.2,0.3-0.3,0.5c-0.1,0.1-0.3,0.3-0.5,0.3
		c-0.2,0.1-0.4,0.1-0.6,0.1s-0.4,0-0.6-0.1c-0.2-0.1-0.3-0.2-0.5-0.3c-0.1-0.1-0.2-0.3-0.3-0.5c-0.1-0.2-0.1-0.4-0.1-0.6
		c0-0.2,0-0.4,0.1-0.6c0.1-0.2,0.2-0.4,0.3-0.5c0.1-0.1,0.3-0.2,0.5-0.3c0.2-0.1,0.4-0.1,0.6-0.1s0.4,0,0.6,0.1
		c0.2,0.1,0.3,0.2,0.5,0.3c0.1,0.1,0.3,0.3,0.3,0.5S205.2,116.5,205.2,116.7z"/>
	<path d="M215.4,122.5c-0.1,0.2-0.2,0.3-0.4,0.3c-0.1,0-0.3,0-0.4-0.1c-0.2-0.1-0.3-0.2-0.6-0.3c-0.2-0.1-0.5-0.2-0.8-0.3
		c-0.3-0.1-0.7-0.1-1.1-0.1c-0.4,0-0.7,0-1,0.1c-0.3,0.1-0.5,0.2-0.7,0.4s-0.4,0.3-0.5,0.6c-0.1,0.2-0.2,0.4-0.2,0.7
		c0,0.3,0.1,0.6,0.3,0.8c0.2,0.2,0.4,0.4,0.7,0.5s0.6,0.3,1,0.4c0.4,0.1,0.8,0.2,1.2,0.4s0.8,0.3,1.2,0.4c0.4,0.2,0.7,0.4,1,0.6
		c0.3,0.2,0.5,0.5,0.7,0.9c0.2,0.3,0.3,0.8,0.3,1.3c0,0.6-0.1,1.1-0.3,1.6c-0.2,0.5-0.5,0.9-0.9,1.2c-0.4,0.3-0.9,0.6-1.4,0.8
		c-0.6,0.2-1.2,0.3-2,0.3c-0.8,0-1.6-0.1-2.3-0.4c-0.7-0.3-1.3-0.6-1.8-1.1l0.5-0.8c0.1-0.1,0.1-0.2,0.2-0.2
		c0.1-0.1,0.2-0.1,0.3-0.1c0.1,0,0.3,0.1,0.5,0.2c0.2,0.1,0.4,0.2,0.6,0.4c0.2,0.1,0.5,0.3,0.8,0.4c0.3,0.1,0.7,0.2,1.2,0.2
		c0.4,0,0.8-0.1,1.1-0.2s0.6-0.3,0.8-0.4s0.4-0.4,0.5-0.6c0.1-0.2,0.1-0.5,0.1-0.8c0-0.3-0.1-0.6-0.3-0.8c-0.2-0.2-0.4-0.4-0.7-0.6
		c-0.3-0.2-0.6-0.3-1-0.4c-0.4-0.1-0.8-0.2-1.2-0.4s-0.8-0.3-1.2-0.4s-0.7-0.4-1-0.6c-0.3-0.2-0.5-0.6-0.7-0.9
		c-0.2-0.4-0.3-0.8-0.3-1.3c0-0.5,0.1-0.9,0.3-1.3c0.2-0.4,0.5-0.8,0.8-1.1c0.4-0.3,0.8-0.6,1.4-0.8c0.5-0.2,1.1-0.3,1.8-0.3
		c0.8,0,1.5,0.1,2.2,0.4c0.6,0.3,1.2,0.6,1.6,1L215.4,122.5z"/>
</g>
<g>
	<rect x="445.5" y="251.5" class="st0" width="240.8" height="36.7"/>
	<path d="M575.9,269.2h-2.3v-7.8h-9.3v7.8h-2.3V252h2.3v7.7h9.3V252h2.3V269.2z"/>
	<path d="M584.5,256.8c0.7,0,1.4,0.1,2,0.4s1.1,0.6,1.6,1.1c0.4,0.5,0.8,1,1.1,1.7c0.3,0.7,0.4,1.4,0.4,2.3c0,0.3,0,0.6-0.1,0.7
		c-0.1,0.1-0.2,0.2-0.4,0.2H581c0,0.8,0.1,1.4,0.3,2c0.2,0.6,0.5,1,0.8,1.4s0.7,0.7,1.2,0.9c0.5,0.2,1,0.3,1.6,0.3
		c0.5,0,1-0.1,1.4-0.2c0.4-0.1,0.7-0.3,1-0.4s0.5-0.3,0.7-0.4c0.2-0.1,0.3-0.2,0.5-0.2c0.2,0,0.3,0.1,0.4,0.2l0.6,0.8
		c-0.3,0.3-0.6,0.6-0.9,0.8c-0.4,0.2-0.8,0.4-1.2,0.6c-0.4,0.2-0.9,0.3-1.3,0.3c-0.4,0.1-0.9,0.1-1.3,0.1c-0.8,0-1.6-0.1-2.3-0.4
		c-0.7-0.3-1.3-0.7-1.8-1.2c-0.5-0.5-0.9-1.2-1.2-2s-0.4-1.7-0.4-2.8c0-0.8,0.1-1.6,0.4-2.4c0.3-0.7,0.6-1.4,1.1-1.9
		c0.5-0.5,1.1-1,1.8-1.3C582.9,257,583.7,256.8,584.5,256.8z M584.6,258.4c-1,0-1.8,0.3-2.4,0.9c-0.6,0.6-1,1.4-1.1,2.5h6.6
		c0-0.5-0.1-1-0.2-1.4c-0.1-0.4-0.3-0.8-0.6-1.1c-0.3-0.3-0.6-0.5-1-0.7S585.1,258.4,584.6,258.4z"/>
	<path d="M592.3,269.2V257h1.2c0.2,0,0.4,0,0.5,0.1c0.1,0.1,0.1,0.2,0.2,0.5l0.1,1.9c0.4-0.8,0.9-1.5,1.5-2c0.6-0.5,1.3-0.7,2.2-0.7
		c0.3,0,0.6,0,0.9,0.1c0.3,0.1,0.5,0.2,0.8,0.3l-0.3,1.6c-0.1,0.2-0.2,0.3-0.4,0.3c-0.1,0-0.3,0-0.5-0.1c-0.2-0.1-0.6-0.1-1-0.1
		c-0.7,0-1.4,0.2-1.9,0.6s-0.9,1.1-1.3,1.9v7.7H592.3z"/>
	<path d="M606.8,256.8c0.7,0,1.4,0.1,2,0.4c0.6,0.2,1.1,0.6,1.6,1.1s0.8,1,1,1.7c0.3,0.7,0.4,1.4,0.4,2.3c0,0.3,0,0.6-0.1,0.7
		c-0.1,0.1-0.2,0.2-0.4,0.2h-8.1c0,0.8,0.1,1.4,0.3,2c0.2,0.6,0.5,1,0.8,1.4s0.7,0.7,1.2,0.9s1,0.3,1.6,0.3c0.5,0,1-0.1,1.4-0.2
		c0.4-0.1,0.7-0.3,1-0.4c0.3-0.1,0.5-0.3,0.7-0.4c0.2-0.1,0.3-0.2,0.5-0.2c0.2,0,0.3,0.1,0.4,0.2l0.6,0.8c-0.3,0.3-0.6,0.6-0.9,0.8
		c-0.4,0.2-0.8,0.4-1.2,0.6c-0.4,0.2-0.9,0.3-1.3,0.3c-0.4,0.1-0.9,0.1-1.3,0.1c-0.8,0-1.6-0.1-2.3-0.4c-0.7-0.3-1.3-0.7-1.8-1.2
		c-0.5-0.5-0.9-1.2-1.2-2c-0.3-0.8-0.4-1.7-0.4-2.8c0-0.8,0.1-1.6,0.4-2.4c0.3-0.7,0.6-1.4,1.1-1.9c0.5-0.5,1.1-1,1.8-1.3
		C605.1,257,605.9,256.8,606.8,256.8z M606.8,258.4c-1,0-1.8,0.3-2.4,0.9c-0.6,0.6-1,1.4-1.1,2.5h6.6c0-0.5-0.1-1-0.2-1.4
		c-0.1-0.4-0.3-0.8-0.6-1.1s-0.6-0.5-1-0.7S607.3,258.4,606.8,258.4z"/>
	<path d="M622.7,272.8c-0.1,0.2-0.2,0.3-0.3,0.4c-0.1,0.1-0.3,0.1-0.5,0.1h-1.6l2.2-4.8l-5-11.4h1.8c0.2,0,0.3,0,0.4,0.1
		c0.1,0.1,0.2,0.2,0.2,0.3l3.3,7.7c0.1,0.2,0.1,0.4,0.2,0.5c0.1,0.2,0.1,0.4,0.1,0.5c0.1-0.2,0.1-0.4,0.2-0.5
		c0.1-0.2,0.1-0.4,0.2-0.5l3.2-7.6c0-0.1,0.1-0.2,0.2-0.3c0.1-0.1,0.2-0.1,0.4-0.1h1.7L622.7,272.8z"/>
	<path d="M636.1,256.8c0.9,0,1.7,0.1,2.4,0.4c0.7,0.3,1.3,0.7,1.8,1.3s0.9,1.2,1.2,2c0.3,0.8,0.4,1.6,0.4,2.6c0,1-0.1,1.8-0.4,2.6
		c-0.3,0.8-0.7,1.4-1.2,2s-1.1,1-1.8,1.3c-0.7,0.3-1.5,0.4-2.4,0.4s-1.7-0.1-2.4-0.4s-1.3-0.7-1.8-1.3s-0.9-1.2-1.2-2
		c-0.3-0.8-0.4-1.6-0.4-2.6c0-1,0.1-1.8,0.4-2.6c0.3-0.8,0.7-1.4,1.2-2s1.1-1,1.8-1.3S635.2,256.8,636.1,256.8z M636.1,267.7
		c1.2,0,2.1-0.4,2.7-1.2c0.6-0.8,0.9-1.9,0.9-3.4c0-1.4-0.3-2.6-0.9-3.4c-0.6-0.8-1.5-1.2-2.7-1.2c-0.6,0-1.1,0.1-1.6,0.3
		s-0.8,0.5-1.1,0.9c-0.3,0.4-0.5,0.9-0.7,1.4c-0.1,0.6-0.2,1.2-0.2,1.9c0,0.7,0.1,1.4,0.2,1.9c0.1,0.6,0.4,1,0.7,1.4
		c0.3,0.4,0.7,0.7,1.1,0.9S635.5,267.7,636.1,267.7z"/>
	<path d="M646.3,257v7.8c0,0.9,0.2,1.6,0.6,2.1c0.4,0.5,1.1,0.8,1.9,0.8c0.6,0,1.2-0.1,1.8-0.4s1.1-0.7,1.5-1.2v-9h2.1v12.2h-1.3
		c-0.3,0-0.5-0.1-0.6-0.4l-0.2-1.3c-0.5,0.6-1.1,1.1-1.8,1.4c-0.7,0.4-1.4,0.5-2.3,0.5c-0.7,0-1.3-0.1-1.8-0.3
		c-0.5-0.2-0.9-0.5-1.3-0.9c-0.3-0.4-0.6-0.9-0.8-1.5c-0.2-0.6-0.3-1.2-0.3-1.9V257H646.3z"/>
	<path d="M666.6,256.8c0.5,0,1,0.1,1.5,0.2c0.5,0.1,0.9,0.3,1.3,0.5h3.3v0.8c0,0.3-0.2,0.4-0.5,0.5l-1.4,0.2
		c0.3,0.5,0.4,1.1,0.4,1.7c0,0.6-0.1,1.1-0.3,1.6c-0.2,0.5-0.5,0.9-0.9,1.2c-0.4,0.3-0.9,0.6-1.4,0.8s-1.2,0.3-1.8,0.3
		c-0.6,0-1.1-0.1-1.6-0.2c-0.3,0.2-0.5,0.3-0.6,0.5c-0.1,0.2-0.2,0.4-0.2,0.6c0,0.3,0.1,0.5,0.3,0.7c0.2,0.2,0.5,0.3,0.9,0.3
		c0.4,0.1,0.8,0.1,1.3,0.1c0.5,0,1,0,1.5,0c0.5,0,1,0,1.5,0.1c0.5,0.1,0.9,0.2,1.3,0.4c0.4,0.2,0.7,0.5,0.9,0.8
		c0.2,0.4,0.3,0.8,0.3,1.4c0,0.5-0.1,1-0.4,1.5c-0.3,0.5-0.6,0.9-1.1,1.3c-0.5,0.4-1.1,0.7-1.8,0.9s-1.5,0.3-2.4,0.3
		s-1.7-0.1-2.3-0.3s-1.2-0.4-1.7-0.7c-0.4-0.3-0.8-0.6-1-1c-0.2-0.4-0.3-0.8-0.3-1.2c0-0.6,0.2-1.1,0.6-1.5c0.4-0.4,0.9-0.8,1.6-1
		c-0.3-0.2-0.6-0.4-0.8-0.6s-0.3-0.6-0.3-1.1c0-0.2,0-0.4,0.1-0.5c0.1-0.2,0.2-0.4,0.3-0.6s0.3-0.4,0.5-0.5c0.2-0.2,0.4-0.3,0.7-0.4
		c-0.6-0.3-1.1-0.8-1.4-1.3c-0.3-0.6-0.5-1.2-0.5-2c0-0.6,0.1-1.1,0.3-1.6c0.2-0.5,0.5-0.9,1-1.2s0.9-0.6,1.5-0.8
		C665.3,256.9,665.9,256.8,666.6,256.8z M670.4,269.8c0-0.3-0.1-0.6-0.3-0.7c-0.2-0.2-0.4-0.3-0.7-0.4c-0.3-0.1-0.6-0.2-1-0.2
		s-0.8-0.1-1.2-0.1s-0.8,0-1.3,0c-0.4,0-0.8-0.1-1.2-0.2c-0.5,0.2-0.8,0.5-1.1,0.8c-0.3,0.3-0.4,0.7-0.4,1.1c0,0.3,0.1,0.5,0.2,0.8
		c0.1,0.2,0.4,0.4,0.6,0.6c0.3,0.2,0.6,0.3,1.1,0.4c0.4,0.1,1,0.1,1.5,0.1c0.6,0,1.1-0.1,1.5-0.2c0.5-0.1,0.8-0.3,1.2-0.5
		c0.3-0.2,0.6-0.4,0.7-0.7C670.3,270.4,670.4,270.1,670.4,269.8z M666.6,263.2c0.4,0,0.8-0.1,1.1-0.2s0.6-0.3,0.8-0.5
		c0.2-0.2,0.4-0.5,0.5-0.8c0.1-0.3,0.2-0.6,0.2-1c0-0.7-0.2-1.3-0.7-1.8c-0.5-0.4-1.1-0.7-2-0.7c-0.9,0-1.5,0.2-2,0.7
		s-0.7,1-0.7,1.8c0,0.4,0.1,0.7,0.2,1c0.1,0.3,0.3,0.6,0.5,0.8c0.2,0.2,0.5,0.4,0.8,0.5S666.1,263.2,666.6,263.2z"/>
	<path d="M679.7,256.8c0.9,0,1.7,0.1,2.4,0.4s1.3,0.7,1.8,1.3s0.9,1.2,1.2,2c0.3,0.8,0.4,1.6,0.4,2.6c0,1-0.1,1.8-0.4,2.6
		c-0.3,0.8-0.7,1.4-1.2,2s-1.1,1-1.8,1.3s-1.5,0.4-2.4,0.4s-1.7-0.1-2.4-0.4s-1.3-0.7-1.8-1.3c-0.5-0.5-0.9-1.2-1.2-2
		c-0.3-0.8-0.4-1.6-0.4-2.6c0-1,0.1-1.8,0.4-2.6c0.3-0.8,0.7-1.4,1.2-2c0.5-0.5,1.1-1,1.8-1.3S678.8,256.8,679.7,256.8z
		 M679.7,267.7c1.2,0,2.1-0.4,2.7-1.2c0.6-0.8,0.9-1.9,0.9-3.4c0-1.4-0.3-2.6-0.9-3.4c-0.6-0.8-1.5-1.2-2.7-1.2
		c-0.6,0-1.1,0.1-1.6,0.3s-0.8,0.5-1.1,0.9c-0.3,0.4-0.5,0.9-0.7,1.4c-0.1,0.6-0.2,1.2-0.2,1.9c0,0.7,0.1,1.4,0.2,1.9
		c0.1,0.6,0.4,1,0.7,1.4c0.3,0.4,0.7,0.7,1.1,0.9S679,267.7,679.7,267.7z"/>
</g>
<g>
	<rect x="445.5" y="528" class="st0" width="240.8" height="36.7"/>
	<path d="M472.9,528.6c0.1,0.1,0.2,0.2,0.3,0.3l10,13c0-0.2,0-0.4,0-0.6s0-0.4,0-0.6v-12.2h2v17.2H484c-0.2,0-0.3,0-0.5-0.1
		c-0.1-0.1-0.2-0.2-0.4-0.3l-9.9-12.9c0,0.2,0,0.4,0,0.6c0,0.2,0,0.4,0,0.5v12.3h-2v-17.2h1.2C472.6,528.5,472.8,528.5,472.9,528.6z
		"/>
	<path d="M493.9,533.4c0.9,0,1.7,0.1,2.4,0.4s1.3,0.7,1.8,1.3s0.9,1.2,1.2,2c0.3,0.8,0.4,1.6,0.4,2.6c0,1-0.1,1.8-0.4,2.6
		c-0.3,0.8-0.7,1.4-1.2,2s-1.1,1-1.8,1.3s-1.5,0.4-2.4,0.4c-0.9,0-1.7-0.1-2.4-0.4c-0.7-0.3-1.3-0.7-1.8-1.3s-0.9-1.2-1.2-2
		c-0.3-0.8-0.4-1.6-0.4-2.6c0-1,0.1-1.8,0.4-2.6c0.3-0.8,0.7-1.4,1.2-2s1.1-1,1.8-1.3C492.2,533.5,493,533.4,493.9,533.4z
		 M493.9,544.2c1.2,0,2.1-0.4,2.7-1.2s0.9-1.9,0.9-3.4c0-1.4-0.3-2.6-0.9-3.4c-0.6-0.8-1.5-1.2-2.7-1.2c-0.6,0-1.1,0.1-1.6,0.3
		s-0.8,0.5-1.1,0.9c-0.3,0.4-0.5,0.9-0.7,1.4c-0.1,0.6-0.2,1.2-0.2,1.9s0.1,1.4,0.2,1.9c0.1,0.6,0.4,1,0.7,1.4
		c0.3,0.4,0.7,0.7,1.1,0.9S493.3,544.2,493.9,544.2z"/>
	<path d="M507,549.8v-16.3h1.3c0.3,0,0.5,0.1,0.6,0.4l0.2,1.4c0.5-0.6,1.1-1.1,1.8-1.5c0.7-0.4,1.4-0.6,2.3-0.6
		c0.7,0,1.3,0.1,1.9,0.4c0.6,0.3,1.1,0.7,1.5,1.2c0.4,0.5,0.7,1.2,0.9,2c0.2,0.8,0.3,1.7,0.3,2.7c0,0.9-0.1,1.7-0.4,2.5
		c-0.2,0.8-0.6,1.4-1,2c-0.4,0.6-1,1-1.7,1.3s-1.4,0.5-2.2,0.5c-0.8,0-1.4-0.1-1.9-0.4s-1-0.6-1.4-1.1v5.4H507z M512.4,535.1
		c-0.7,0-1.3,0.2-1.8,0.5c-0.5,0.3-1,0.8-1.4,1.4v5.9c0.4,0.5,0.8,0.9,1.3,1.1s1,0.3,1.6,0.3c1.1,0,2-0.4,2.6-1.2s0.9-2,0.9-3.5
		c0-0.8-0.1-1.5-0.2-2s-0.3-1-0.6-1.4c-0.3-0.4-0.6-0.6-1-0.8S512.9,535.1,512.4,535.1z"/>
	<path d="M520.2,545.7v-12.2h1.2c0.2,0,0.4,0,0.5,0.1s0.1,0.2,0.2,0.5l0.1,1.9c0.4-0.8,0.9-1.5,1.5-2s1.3-0.7,2.2-0.7
		c0.3,0,0.6,0,0.9,0.1c0.3,0.1,0.5,0.2,0.8,0.3l-0.3,1.6c-0.1,0.2-0.2,0.3-0.4,0.3c-0.1,0-0.3,0-0.5-0.1c-0.2-0.1-0.6-0.1-1-0.1
		c-0.7,0-1.4,0.2-1.9,0.6c-0.5,0.4-0.9,1.1-1.3,1.9v7.7H520.2z"/>
	<path d="M534.8,533.4c0.9,0,1.7,0.1,2.4,0.4s1.3,0.7,1.8,1.3s0.9,1.2,1.2,2c0.3,0.8,0.4,1.6,0.4,2.6c0,1-0.1,1.8-0.4,2.6
		c-0.3,0.8-0.7,1.4-1.2,2s-1.1,1-1.8,1.3s-1.5,0.4-2.4,0.4c-0.9,0-1.7-0.1-2.4-0.4c-0.7-0.3-1.3-0.7-1.8-1.3s-0.9-1.2-1.2-2
		c-0.3-0.8-0.4-1.6-0.4-2.6c0-1,0.1-1.8,0.4-2.6c0.3-0.8,0.7-1.4,1.2-2s1.1-1,1.8-1.3C533.1,533.5,533.9,533.4,534.8,533.4z
		 M534.8,544.2c1.2,0,2.1-0.4,2.7-1.2s0.9-1.9,0.9-3.4c0-1.4-0.3-2.6-0.9-3.4c-0.6-0.8-1.5-1.2-2.7-1.2c-0.6,0-1.1,0.1-1.6,0.3
		s-0.8,0.5-1.1,0.9c-0.3,0.4-0.5,0.9-0.7,1.4c-0.1,0.6-0.2,1.2-0.2,1.9s0.1,1.4,0.2,1.9c0.1,0.6,0.4,1,0.7,1.4
		c0.3,0.4,0.7,0.7,1.1,0.9S534.2,544.2,534.8,544.2z"/>
	<path d="M543.3,545.7V528h2.1v7.3c0.5-0.6,1.1-1.1,1.7-1.4c0.7-0.4,1.4-0.5,2.2-0.5c0.7,0,1.3,0.1,1.9,0.4s1.1,0.7,1.5,1.2
		c0.4,0.5,0.7,1.2,0.9,1.9s0.3,1.7,0.3,2.7c0,0.9-0.1,1.7-0.4,2.5c-0.2,0.8-0.6,1.4-1,2c-0.5,0.6-1,1-1.7,1.3
		c-0.7,0.3-1.4,0.5-2.2,0.5c-0.8,0-1.5-0.2-2-0.5s-1-0.7-1.4-1.3l-0.1,1.1c-0.1,0.3-0.2,0.5-0.6,0.5H543.3z M548.7,535.1
		c-0.7,0-1.3,0.2-1.8,0.5c-0.5,0.3-1,0.8-1.4,1.4v5.9c0.4,0.5,0.8,0.9,1.3,1.1s1,0.3,1.6,0.3c1.1,0,2-0.4,2.6-1.2s0.9-2,0.9-3.5
		c0-0.8-0.1-1.5-0.2-2s-0.3-1-0.6-1.4c-0.3-0.4-0.6-0.6-1-0.8S549.2,535.1,548.7,535.1z"/>
	<path d="M556,544.2c0-0.2,0-0.4,0.1-0.5c0.1-0.2,0.2-0.3,0.3-0.4c0.1-0.1,0.3-0.2,0.5-0.3c0.2-0.1,0.4-0.1,0.6-0.1
		c0.2,0,0.5,0,0.6,0.1c0.2,0.1,0.3,0.2,0.5,0.4c0.1,0.2,0.2,0.3,0.3,0.5c0.1,0.2,0.1,0.4,0.1,0.7c0,0.4-0.1,0.7-0.2,1.1
		c-0.1,0.4-0.3,0.8-0.4,1.2c-0.2,0.4-0.4,0.8-0.7,1.1s-0.6,0.7-1,1l-0.4-0.3c-0.1-0.1-0.2-0.2-0.2-0.3c0-0.1,0.1-0.2,0.2-0.3
		c0.1-0.1,0.2-0.2,0.3-0.4s0.2-0.3,0.4-0.5c0.1-0.2,0.2-0.4,0.4-0.6c0.1-0.2,0.2-0.5,0.2-0.7h-0.2c-0.2,0-0.4,0-0.6-0.1
		s-0.3-0.2-0.4-0.3s-0.2-0.3-0.3-0.5C556.1,544.7,556,544.5,556,544.2z"/>
	<path d="M566.4,545.7V528h2.1v7.2c0.5-0.6,1.1-1,1.7-1.3c0.6-0.3,1.4-0.5,2.2-0.5c0.7,0,1.2,0.1,1.8,0.3c0.5,0.2,0.9,0.5,1.3,0.9
		c0.3,0.4,0.6,0.9,0.8,1.5s0.3,1.2,0.3,1.9v7.7h-2.1V538c0-0.9-0.2-1.6-0.6-2.1c-0.4-0.5-1.1-0.8-1.9-0.8c-0.6,0-1.2,0.2-1.8,0.5
		c-0.5,0.3-1.1,0.7-1.5,1.2v9H566.4z"/>
	<path d="M584.5,533.4c0.7,0,1.4,0.1,2,0.4c0.6,0.2,1.1,0.6,1.6,1.1s0.8,1,1,1.7c0.3,0.7,0.4,1.4,0.4,2.3c0,0.3,0,0.6-0.1,0.7
		c-0.1,0.1-0.2,0.2-0.4,0.2H581c0,0.8,0.1,1.4,0.3,2c0.2,0.6,0.5,1,0.8,1.4s0.7,0.7,1.2,0.9c0.5,0.2,1,0.3,1.6,0.3
		c0.5,0,1-0.1,1.4-0.2c0.4-0.1,0.7-0.3,1-0.4c0.3-0.1,0.5-0.3,0.7-0.4c0.2-0.1,0.3-0.2,0.5-0.2c0.2,0,0.3,0.1,0.4,0.2l0.6,0.8
		c-0.3,0.3-0.6,0.6-0.9,0.8c-0.4,0.2-0.8,0.4-1.2,0.6s-0.9,0.3-1.3,0.3s-0.9,0.1-1.3,0.1c-0.8,0-1.6-0.1-2.3-0.4
		c-0.7-0.3-1.3-0.7-1.8-1.2c-0.5-0.5-0.9-1.2-1.2-2c-0.3-0.8-0.4-1.7-0.4-2.8c0-0.8,0.1-1.6,0.4-2.4c0.3-0.7,0.6-1.4,1.1-1.9
		c0.5-0.5,1.1-1,1.8-1.3C582.9,533.5,583.7,533.4,584.5,533.4z M584.6,534.9c-1,0-1.8,0.3-2.4,0.9c-0.6,0.6-1,1.4-1.1,2.5h6.6
		c0-0.5-0.1-1-0.2-1.4c-0.1-0.4-0.3-0.8-0.6-1.1s-0.6-0.5-1-0.7S585.1,534.9,584.6,534.9z"/>
	<path d="M592.3,545.7v-12.2h1.2c0.2,0,0.4,0,0.5,0.1s0.1,0.2,0.2,0.5l0.1,1.9c0.4-0.8,0.9-1.5,1.5-2s1.3-0.7,2.2-0.7
		c0.3,0,0.6,0,0.9,0.1c0.3,0.1,0.5,0.2,0.8,0.3l-0.3,1.6c-0.1,0.2-0.2,0.3-0.4,0.3c-0.1,0-0.3,0-0.5-0.1c-0.2-0.1-0.6-0.1-1-0.1
		c-0.7,0-1.4,0.2-1.9,0.6c-0.5,0.4-0.9,1.1-1.3,1.9v7.7H592.3z"/>
	<path d="M606.8,533.4c0.7,0,1.4,0.1,2,0.4s1.1,0.6,1.6,1.1c0.4,0.5,0.8,1,1.1,1.7c0.3,0.7,0.4,1.4,0.4,2.3c0,0.3,0,0.6-0.1,0.7
		s-0.2,0.2-0.4,0.2h-8.1c0,0.8,0.1,1.4,0.3,2c0.2,0.6,0.5,1,0.8,1.4s0.7,0.7,1.2,0.9c0.5,0.2,1,0.3,1.6,0.3c0.5,0,1-0.1,1.4-0.2
		s0.7-0.3,1-0.4c0.3-0.1,0.5-0.3,0.7-0.4c0.2-0.1,0.3-0.2,0.5-0.2c0.2,0,0.3,0.1,0.4,0.2l0.6,0.8c-0.3,0.3-0.6,0.6-0.9,0.8
		s-0.8,0.4-1.2,0.6s-0.9,0.3-1.3,0.3c-0.4,0.1-0.9,0.1-1.3,0.1c-0.8,0-1.6-0.1-2.3-0.4c-0.7-0.3-1.3-0.7-1.8-1.2
		c-0.5-0.5-0.9-1.2-1.2-2c-0.3-0.8-0.4-1.7-0.4-2.8c0-0.8,0.1-1.6,0.4-2.4s0.6-1.4,1.1-1.9c0.5-0.5,1.1-1,1.8-1.3
		C605.1,533.5,605.9,533.4,606.8,533.4z M606.8,534.9c-1,0-1.8,0.3-2.4,0.9c-0.6,0.6-1,1.4-1.1,2.5h6.6c0-0.5-0.1-1-0.2-1.4
		c-0.1-0.4-0.3-0.8-0.6-1.1c-0.3-0.3-0.6-0.5-1-0.7S607.3,534.9,606.8,534.9z"/>
	<path d="M622.7,549.3c-0.1,0.2-0.2,0.3-0.3,0.4c-0.1,0.1-0.3,0.1-0.5,0.1h-1.6l2.2-4.8l-5-11.4h1.8c0.2,0,0.3,0,0.4,0.1
		c0.1,0.1,0.2,0.2,0.2,0.3l3.3,7.7c0.1,0.2,0.1,0.4,0.2,0.5c0.1,0.2,0.1,0.4,0.1,0.5c0.1-0.2,0.1-0.4,0.2-0.5
		c0.1-0.2,0.1-0.4,0.2-0.5l3.2-7.6c0-0.1,0.1-0.2,0.2-0.3s0.2-0.1,0.4-0.1h1.7L622.7,549.3z"/>
	<path d="M636.1,533.4c0.9,0,1.7,0.1,2.4,0.4c0.7,0.3,1.3,0.7,1.8,1.3s0.9,1.2,1.2,2c0.3,0.8,0.4,1.6,0.4,2.6c0,1-0.1,1.8-0.4,2.6
		c-0.3,0.8-0.7,1.4-1.2,2s-1.1,1-1.8,1.3c-0.7,0.3-1.5,0.4-2.4,0.4s-1.7-0.1-2.4-0.4s-1.3-0.7-1.8-1.3s-0.9-1.2-1.2-2
		c-0.3-0.8-0.4-1.6-0.4-2.6c0-1,0.1-1.8,0.4-2.6c0.3-0.8,0.7-1.4,1.2-2s1.1-1,1.8-1.3S635.2,533.4,636.1,533.4z M636.1,544.2
		c1.2,0,2.1-0.4,2.7-1.2c0.6-0.8,0.9-1.9,0.9-3.4c0-1.4-0.3-2.6-0.9-3.4c-0.6-0.8-1.5-1.2-2.7-1.2c-0.6,0-1.1,0.1-1.6,0.3
		s-0.8,0.5-1.1,0.9s-0.5,0.9-0.7,1.4c-0.1,0.6-0.2,1.2-0.2,1.9s0.1,1.4,0.2,1.9c0.1,0.6,0.4,1,0.7,1.4s0.7,0.7,1.1,0.9
		S635.5,544.2,636.1,544.2z"/>
	<path d="M646.3,533.6v7.8c0,0.9,0.2,1.6,0.6,2.1c0.4,0.5,1.1,0.8,1.9,0.8c0.6,0,1.2-0.1,1.8-0.4s1.1-0.7,1.5-1.2v-9h2.1v12.2h-1.3
		c-0.3,0-0.5-0.1-0.6-0.4l-0.2-1.3c-0.5,0.6-1.1,1.1-1.8,1.4c-0.7,0.4-1.4,0.5-2.3,0.5c-0.7,0-1.3-0.1-1.8-0.3
		c-0.5-0.2-0.9-0.5-1.3-0.9c-0.3-0.4-0.6-0.9-0.8-1.5c-0.2-0.6-0.3-1.2-0.3-1.9v-7.8H646.3z"/>
	<path d="M666.6,533.4c0.5,0,1,0.1,1.5,0.2c0.5,0.1,0.9,0.3,1.3,0.5h3.3v0.8c0,0.3-0.2,0.4-0.5,0.5l-1.4,0.2
		c0.3,0.5,0.4,1.1,0.4,1.7c0,0.6-0.1,1.1-0.3,1.6c-0.2,0.5-0.5,0.9-0.9,1.2c-0.4,0.3-0.9,0.6-1.4,0.8c-0.6,0.2-1.2,0.3-1.8,0.3
		c-0.6,0-1.1-0.1-1.6-0.2c-0.3,0.2-0.5,0.3-0.6,0.5c-0.1,0.2-0.2,0.4-0.2,0.6c0,0.3,0.1,0.5,0.3,0.7c0.2,0.2,0.5,0.3,0.9,0.3
		c0.4,0.1,0.8,0.1,1.3,0.1c0.5,0,1,0,1.5,0c0.5,0,1,0,1.5,0.1c0.5,0.1,0.9,0.2,1.3,0.4c0.4,0.2,0.7,0.5,0.9,0.8s0.3,0.8,0.3,1.4
		c0,0.5-0.1,1-0.4,1.5s-0.6,0.9-1.1,1.3s-1.1,0.7-1.8,0.9c-0.7,0.2-1.5,0.3-2.4,0.3s-1.7-0.1-2.3-0.3c-0.7-0.2-1.2-0.4-1.7-0.7
		c-0.4-0.3-0.8-0.6-1-1c-0.2-0.4-0.3-0.8-0.3-1.2c0-0.6,0.2-1.1,0.6-1.5s0.9-0.8,1.6-1c-0.3-0.2-0.6-0.4-0.8-0.6s-0.3-0.6-0.3-1.1
		c0-0.2,0-0.4,0.1-0.5c0.1-0.2,0.2-0.4,0.3-0.6s0.3-0.4,0.5-0.5c0.2-0.2,0.4-0.3,0.7-0.4c-0.6-0.3-1.1-0.8-1.4-1.3
		c-0.3-0.6-0.5-1.2-0.5-2c0-0.6,0.1-1.1,0.3-1.6c0.2-0.5,0.5-0.9,1-1.2s0.9-0.6,1.5-0.8C665.3,533.4,665.9,533.4,666.6,533.4z
		 M670.4,546.3c0-0.3-0.1-0.6-0.3-0.7s-0.4-0.3-0.7-0.4s-0.6-0.2-1-0.2s-0.8-0.1-1.2-0.1s-0.8,0-1.3,0c-0.4,0-0.8-0.1-1.2-0.2
		c-0.5,0.2-0.8,0.5-1.1,0.8c-0.3,0.3-0.4,0.7-0.4,1.1c0,0.3,0.1,0.5,0.2,0.8c0.1,0.2,0.4,0.4,0.6,0.6s0.6,0.3,1.1,0.4
		c0.4,0.1,1,0.1,1.5,0.1c0.6,0,1.1-0.1,1.5-0.2c0.5-0.1,0.8-0.3,1.2-0.5c0.3-0.2,0.6-0.4,0.7-0.7C670.3,547,670.4,546.7,670.4,546.3
		z M666.6,539.8c0.4,0,0.8-0.1,1.1-0.2s0.6-0.3,0.8-0.5c0.2-0.2,0.4-0.5,0.5-0.8c0.1-0.3,0.2-0.6,0.2-1c0-0.7-0.2-1.3-0.7-1.8
		c-0.5-0.4-1.1-0.7-2-0.7c-0.9,0-1.5,0.2-2,0.7c-0.5,0.4-0.7,1-0.7,1.8c0,0.4,0.1,0.7,0.2,1s0.3,0.6,0.5,0.8
		c0.2,0.2,0.5,0.4,0.8,0.5S666.1,539.8,666.6,539.8z"/>
	<path d="M679.7,533.4c0.9,0,1.7,0.1,2.4,0.4s1.3,0.7,1.8,1.3s0.9,1.2,1.2,2c0.3,0.8,0.4,1.6,0.4,2.6c0,1-0.1,1.8-0.4,2.6
		c-0.3,0.8-0.7,1.4-1.2,2s-1.1,1-1.8,1.3s-1.5,0.4-2.4,0.4s-1.7-0.1-2.4-0.4s-1.3-0.7-1.8-1.3c-0.5-0.5-0.9-1.2-1.2-2
		c-0.3-0.8-0.4-1.6-0.4-2.6c0-1,0.1-1.8,0.4-2.6c0.3-0.8,0.7-1.4,1.2-2c0.5-0.5,1.1-1,1.8-1.3S678.8,533.4,679.7,533.4z
		 M679.7,544.2c1.2,0,2.1-0.4,2.7-1.2c0.6-0.8,0.9-1.9,0.9-3.4c0-1.4-0.3-2.6-0.9-3.4c-0.6-0.8-1.5-1.2-2.7-1.2
		c-0.6,0-1.1,0.1-1.6,0.3s-0.8,0.5-1.1,0.9s-0.5,0.9-0.7,1.4c-0.1,0.6-0.2,1.2-0.2,1.9s0.1,1.4,0.2,1.9c0.1,0.6,0.4,1,0.7,1.4
		s0.7,0.7,1.1,0.9S679,544.2,679.7,544.2z"/>
</g>
<g>
	<rect x="445.5" y="805.5" class="st0" width="240.8" height="36.7"/>
	<path d="M484.6,816.3v6.8h-2.3v-6.8L476,806h2c0.2,0,0.4,0.1,0.5,0.2c0.1,0.1,0.2,0.2,0.3,0.4l3.9,6.7c0.2,0.3,0.3,0.5,0.4,0.8
		s0.2,0.5,0.3,0.7c0.1-0.2,0.2-0.5,0.3-0.7c0.1-0.2,0.2-0.5,0.4-0.8l3.9-6.7c0.1-0.1,0.2-0.2,0.3-0.4s0.3-0.2,0.5-0.2h2.1
		L484.6,816.3z"/>
	<path d="M495.6,810.8c0.7,0,1.4,0.1,2,0.4c0.6,0.2,1.1,0.6,1.6,1.1s0.8,1,1,1.7s0.4,1.4,0.4,2.3c0,0.3,0,0.6-0.1,0.7
		c-0.1,0.1-0.2,0.2-0.4,0.2H492c0,0.8,0.1,1.4,0.3,2c0.2,0.6,0.5,1,0.8,1.4s0.7,0.7,1.2,0.9c0.5,0.2,1,0.3,1.6,0.3
		c0.5,0,1-0.1,1.4-0.2c0.4-0.1,0.7-0.3,1-0.4c0.3-0.1,0.5-0.3,0.7-0.4c0.2-0.1,0.3-0.2,0.5-0.2c0.2,0,0.3,0.1,0.4,0.2l0.6,0.8
		c-0.3,0.3-0.6,0.6-0.9,0.8c-0.4,0.2-0.8,0.4-1.2,0.6c-0.4,0.2-0.9,0.3-1.3,0.3c-0.4,0.1-0.9,0.1-1.3,0.1c-0.8,0-1.6-0.1-2.3-0.4
		s-1.3-0.7-1.8-1.2c-0.5-0.5-0.9-1.2-1.2-2c-0.3-0.8-0.4-1.7-0.4-2.8c0-0.8,0.1-1.6,0.4-2.4c0.3-0.7,0.6-1.4,1.1-1.9
		c0.5-0.5,1.1-1,1.8-1.3S494.7,810.8,495.6,810.8z M495.7,812.4c-1,0-1.8,0.3-2.4,0.9s-1,1.4-1.1,2.5h6.6c0-0.5-0.1-1-0.2-1.4
		s-0.3-0.8-0.6-1.1s-0.6-0.5-1-0.7S496.1,812.4,495.7,812.4z"/>
	<path d="M510.3,813c-0.1,0.2-0.2,0.3-0.4,0.3c-0.1,0-0.3,0-0.4-0.1c-0.2-0.1-0.3-0.2-0.6-0.3c-0.2-0.1-0.5-0.2-0.8-0.3
		c-0.3-0.1-0.7-0.1-1.1-0.1c-0.4,0-0.7,0-1,0.1c-0.3,0.1-0.5,0.2-0.7,0.4s-0.4,0.3-0.5,0.6s-0.2,0.4-0.2,0.7c0,0.3,0.1,0.6,0.3,0.8
		c0.2,0.2,0.4,0.4,0.7,0.5c0.3,0.2,0.6,0.3,1,0.4s0.8,0.2,1.2,0.4c0.4,0.1,0.8,0.3,1.2,0.4c0.4,0.2,0.7,0.4,1,0.6
		c0.3,0.2,0.5,0.5,0.7,0.9c0.2,0.3,0.3,0.8,0.3,1.3c0,0.6-0.1,1.1-0.3,1.6c-0.2,0.5-0.5,0.9-0.9,1.2c-0.4,0.3-0.9,0.6-1.4,0.8
		c-0.6,0.2-1.2,0.3-2,0.3c-0.8,0-1.6-0.1-2.3-0.4c-0.7-0.3-1.3-0.6-1.8-1.1l0.5-0.8c0.1-0.1,0.1-0.2,0.2-0.2s0.2-0.1,0.3-0.1
		c0.1,0,0.3,0.1,0.5,0.2c0.2,0.1,0.4,0.2,0.6,0.4c0.2,0.1,0.5,0.3,0.8,0.4c0.3,0.1,0.7,0.2,1.2,0.2c0.4,0,0.8-0.1,1.1-0.2
		c0.3-0.1,0.6-0.3,0.8-0.4c0.2-0.2,0.4-0.4,0.5-0.6c0.1-0.2,0.1-0.5,0.1-0.8c0-0.3-0.1-0.6-0.3-0.8c-0.2-0.2-0.4-0.4-0.7-0.6
		c-0.3-0.2-0.6-0.3-1-0.4c-0.4-0.1-0.8-0.2-1.2-0.4c-0.4-0.1-0.8-0.3-1.2-0.4s-0.7-0.4-1-0.6c-0.3-0.2-0.5-0.6-0.7-0.9
		c-0.2-0.4-0.3-0.8-0.3-1.3c0-0.5,0.1-0.9,0.3-1.3c0.2-0.4,0.5-0.8,0.8-1.1c0.4-0.3,0.8-0.6,1.4-0.8c0.5-0.2,1.1-0.3,1.8-0.3
		c0.8,0,1.5,0.1,2.2,0.4c0.6,0.3,1.2,0.6,1.6,1L510.3,813z"/>
	<path d="M513.2,821.7c0-0.2,0-0.4,0.1-0.5c0.1-0.2,0.2-0.3,0.3-0.4s0.3-0.2,0.5-0.3s0.4-0.1,0.6-0.1c0.2,0,0.5,0,0.6,0.1
		c0.2,0.1,0.3,0.2,0.5,0.4s0.2,0.3,0.3,0.5c0.1,0.2,0.1,0.4,0.1,0.7c0,0.4-0.1,0.7-0.2,1.1c-0.1,0.4-0.3,0.8-0.4,1.2
		c-0.2,0.4-0.4,0.8-0.7,1.1c-0.3,0.4-0.6,0.7-1,1l-0.4-0.3c-0.1-0.1-0.2-0.2-0.2-0.3c0-0.1,0.1-0.2,0.2-0.3c0.1-0.1,0.2-0.2,0.3-0.4
		c0.1-0.1,0.2-0.3,0.4-0.5c0.1-0.2,0.2-0.4,0.4-0.6c0.1-0.2,0.2-0.5,0.2-0.7h-0.2c-0.2,0-0.4,0-0.6-0.1c-0.2-0.1-0.3-0.2-0.4-0.3
		s-0.2-0.3-0.3-0.5C513.2,822.1,513.2,821.9,513.2,821.7z"/>
	<path d="M527.1,826.8c-0.1,0.2-0.2,0.3-0.3,0.4c-0.1,0.1-0.3,0.1-0.5,0.1h-1.6l2.2-4.8l-5-11.4h1.8c0.2,0,0.3,0,0.4,0.1
		c0.1,0.1,0.2,0.2,0.2,0.3l3.3,7.7c0.1,0.2,0.1,0.4,0.2,0.5c0.1,0.2,0.1,0.4,0.1,0.5c0.1-0.2,0.1-0.4,0.2-0.5
		c0.1-0.2,0.1-0.4,0.2-0.5l3.2-7.6c0-0.1,0.1-0.2,0.2-0.3s0.2-0.1,0.4-0.1h1.7L527.1,826.8z"/>
	<path d="M540.4,810.8c0.9,0,1.7,0.1,2.4,0.4c0.7,0.3,1.3,0.7,1.8,1.3s0.9,1.2,1.2,2c0.3,0.8,0.4,1.6,0.4,2.6c0,1-0.1,1.8-0.4,2.6
		c-0.3,0.8-0.7,1.4-1.2,2s-1.1,1-1.8,1.3c-0.7,0.3-1.5,0.4-2.4,0.4s-1.7-0.1-2.4-0.4s-1.3-0.7-1.8-1.3s-0.9-1.2-1.2-2
		c-0.3-0.8-0.4-1.6-0.4-2.6c0-1,0.1-1.8,0.4-2.6c0.3-0.8,0.7-1.4,1.2-2s1.1-1,1.8-1.3S539.5,810.8,540.4,810.8z M540.4,821.7
		c1.2,0,2.1-0.4,2.7-1.2c0.6-0.8,0.9-1.9,0.9-3.4c0-1.4-0.3-2.6-0.9-3.4c-0.6-0.8-1.5-1.2-2.7-1.2c-0.6,0-1.1,0.1-1.6,0.3
		s-0.8,0.5-1.1,0.9c-0.3,0.4-0.5,0.9-0.7,1.4c-0.1,0.6-0.2,1.2-0.2,1.9c0,0.7,0.1,1.4,0.2,1.9c0.1,0.6,0.4,1,0.7,1.4
		c0.3,0.4,0.7,0.7,1.1,0.9S539.8,821.7,540.4,821.7z"/>
	<path d="M550.7,811v7.8c0,0.9,0.2,1.6,0.6,2.1c0.4,0.5,1.1,0.8,1.9,0.8c0.6,0,1.2-0.1,1.8-0.4s1.1-0.7,1.5-1.2v-9h2.1v12.2h-1.3
		c-0.3,0-0.5-0.1-0.6-0.4l-0.2-1.3c-0.5,0.6-1.1,1.1-1.8,1.4c-0.7,0.4-1.4,0.5-2.3,0.5c-0.7,0-1.3-0.1-1.8-0.3s-0.9-0.5-1.3-0.9
		c-0.3-0.4-0.6-0.9-0.8-1.5s-0.3-1.2-0.3-1.9V811H550.7z"/>
	<path d="M561.8,811c-0.2-0.4-0.4-0.8-0.5-1.2c-0.1-0.4-0.2-0.8-0.2-1.2c0-0.7,0.2-1.4,0.5-2.1c0.4-0.7,0.9-1.3,1.5-1.8l0.7,0.4
		c0.1,0,0.1,0.1,0.1,0.1c0,0,0,0.1,0,0.1c0,0.1,0,0.2-0.1,0.3c-0.1,0.2-0.3,0.3-0.4,0.5c-0.1,0.2-0.2,0.4-0.3,0.6s-0.2,0.4-0.2,0.6
		c-0.1,0.2-0.1,0.4-0.1,0.7c0,0.3,0,0.5,0.1,0.8c0.1,0.3,0.2,0.6,0.4,0.9c0.1,0.1,0.1,0.2,0.1,0.3c0,0.2-0.1,0.3-0.3,0.4L561.8,811z
		"/>
	<path d="M567.3,823.2V811h1.2c0.2,0,0.4,0,0.5,0.1c0.1,0.1,0.1,0.2,0.2,0.5l0.1,1.9c0.4-0.8,0.9-1.5,1.5-2c0.6-0.5,1.3-0.7,2.2-0.7
		c0.3,0,0.6,0,0.9,0.1c0.3,0.1,0.5,0.2,0.8,0.3l-0.3,1.6c-0.1,0.2-0.2,0.3-0.4,0.3c-0.1,0-0.3,0-0.5-0.1c-0.2-0.1-0.6-0.1-1-0.1
		c-0.7,0-1.4,0.2-1.9,0.6c-0.5,0.4-0.9,1.1-1.3,1.9v7.7H567.3z"/>
	<path d="M581.7,810.8c0.7,0,1.4,0.1,2,0.4c0.6,0.2,1.1,0.6,1.6,1.1s0.8,1,1,1.7s0.4,1.4,0.4,2.3c0,0.3,0,0.6-0.1,0.7
		c-0.1,0.1-0.2,0.2-0.4,0.2h-8.1c0,0.8,0.1,1.4,0.3,2c0.2,0.6,0.5,1,0.8,1.4s0.7,0.7,1.2,0.9c0.5,0.2,1,0.3,1.6,0.3
		c0.5,0,1-0.1,1.4-0.2c0.4-0.1,0.7-0.3,1-0.4c0.3-0.1,0.5-0.3,0.7-0.4c0.2-0.1,0.3-0.2,0.5-0.2c0.2,0,0.3,0.1,0.4,0.2l0.6,0.8
		c-0.3,0.3-0.6,0.6-0.9,0.8c-0.4,0.2-0.8,0.4-1.2,0.6c-0.4,0.2-0.9,0.3-1.3,0.3c-0.4,0.1-0.9,0.1-1.3,0.1c-0.8,0-1.6-0.1-2.3-0.4
		s-1.3-0.7-1.8-1.2c-0.5-0.5-0.9-1.2-1.2-2c-0.3-0.8-0.4-1.7-0.4-2.8c0-0.8,0.1-1.6,0.4-2.4c0.3-0.7,0.6-1.4,1.1-1.9
		c0.5-0.5,1.1-1,1.8-1.3S580.9,810.8,581.7,810.8z M581.8,812.4c-1,0-1.8,0.3-2.4,0.9s-1,1.4-1.1,2.5h6.6c0-0.5-0.1-1-0.2-1.4
		s-0.3-0.8-0.6-1.1s-0.6-0.5-1-0.7S582.3,812.4,581.8,812.4z"/>
	<path d="M592.6,811h1.7c0.2,0,0.3,0,0.4,0.1s0.2,0.2,0.2,0.3l2.3,7.8c0.1,0.3,0.1,0.6,0.2,0.8c0.1,0.3,0.1,0.5,0.1,0.8
		c0.1-0.3,0.1-0.5,0.2-0.8c0.1-0.3,0.2-0.5,0.3-0.8l2.6-7.9c0-0.1,0.1-0.2,0.2-0.3c0.1-0.1,0.2-0.1,0.4-0.1h0.9c0.2,0,0.3,0,0.4,0.1
		c0.1,0.1,0.2,0.2,0.2,0.3l2.5,7.9c0.1,0.3,0.2,0.6,0.2,0.8c0.1,0.3,0.1,0.5,0.2,0.8c0-0.3,0.1-0.5,0.2-0.8c0.1-0.3,0.1-0.6,0.2-0.8
		l2.4-7.8c0-0.1,0.1-0.2,0.2-0.3c0.1-0.1,0.2-0.1,0.4-0.1h1.6l-3.9,12.2H605c-0.2,0-0.4-0.1-0.4-0.4l-2.7-8.2
		c-0.1-0.2-0.1-0.4-0.2-0.6c0-0.2-0.1-0.4-0.1-0.6c0,0.2-0.1,0.4-0.1,0.6c0,0.2-0.1,0.4-0.2,0.6l-2.7,8.2c-0.1,0.3-0.3,0.4-0.5,0.4
		h-1.6L592.6,811z"/>
	<path d="M617.3,810.8c0.7,0,1.4,0.1,2,0.4s1.1,0.6,1.6,1.1c0.4,0.5,0.8,1,1.1,1.7s0.4,1.4,0.4,2.3c0,0.3,0,0.6-0.1,0.7
		c-0.1,0.1-0.2,0.2-0.4,0.2h-8.1c0,0.8,0.1,1.4,0.3,2c0.2,0.6,0.5,1,0.8,1.4s0.7,0.7,1.2,0.9c0.5,0.2,1,0.3,1.6,0.3
		c0.5,0,1-0.1,1.4-0.2c0.4-0.1,0.7-0.3,1-0.4c0.3-0.1,0.5-0.3,0.7-0.4c0.2-0.1,0.3-0.2,0.5-0.2c0.2,0,0.3,0.1,0.4,0.2l0.6,0.8
		c-0.3,0.3-0.6,0.6-0.9,0.8c-0.4,0.2-0.8,0.4-1.2,0.6c-0.4,0.2-0.9,0.3-1.3,0.3c-0.4,0.1-0.9,0.1-1.3,0.1c-0.8,0-1.6-0.1-2.3-0.4
		s-1.3-0.7-1.8-1.2c-0.5-0.5-0.9-1.2-1.2-2c-0.3-0.8-0.4-1.7-0.4-2.8c0-0.8,0.1-1.6,0.4-2.4c0.3-0.7,0.6-1.4,1.1-1.9
		c0.5-0.5,1.1-1,1.8-1.3S616.5,810.8,617.3,810.8z M617.4,812.4c-1,0-1.8,0.3-2.4,0.9c-0.6,0.6-1,1.4-1.1,2.5h6.6
		c0-0.5-0.1-1-0.2-1.4c-0.1-0.4-0.3-0.8-0.6-1.1c-0.3-0.3-0.6-0.5-1-0.7S617.9,812.4,617.4,812.4z"/>
	<path d="M627.5,805.5v17.7h-2.1v-17.7H627.5z"/>
	<path d="M639.5,813.2c-0.1,0.1-0.1,0.2-0.2,0.2c-0.1,0-0.2,0.1-0.3,0.1s-0.2,0-0.4-0.2c-0.1-0.1-0.3-0.2-0.5-0.3
		c-0.2-0.1-0.5-0.2-0.8-0.3c-0.3-0.1-0.7-0.2-1.1-0.2c-0.6,0-1.1,0.1-1.6,0.3s-0.8,0.5-1.1,0.9c-0.3,0.4-0.5,0.9-0.7,1.5
		c-0.2,0.6-0.2,1.2-0.2,1.9c0,0.7,0.1,1.4,0.3,2c0.2,0.6,0.4,1.1,0.7,1.4c0.3,0.4,0.7,0.7,1.1,0.9c0.4,0.2,0.9,0.3,1.5,0.3
		c0.5,0,0.9-0.1,1.3-0.2s0.6-0.3,0.8-0.4c0.2-0.2,0.4-0.3,0.6-0.4c0.1-0.1,0.3-0.2,0.4-0.2c0.2,0,0.3,0.1,0.4,0.2l0.6,0.8
		c-0.5,0.6-1.2,1.1-2,1.4c-0.8,0.3-1.6,0.5-2.5,0.5c-0.8,0-1.5-0.1-2.1-0.4c-0.7-0.3-1.2-0.7-1.7-1.2c-0.5-0.5-0.9-1.2-1.1-2
		c-0.3-0.8-0.4-1.7-0.4-2.7c0-0.9,0.1-1.7,0.4-2.5s0.6-1.4,1.1-2c0.5-0.6,1.1-1,1.8-1.3c0.7-0.3,1.5-0.5,2.4-0.5
		c0.8,0,1.6,0.1,2.3,0.4c0.7,0.3,1.2,0.7,1.7,1.2L639.5,813.2z"/>
	<path d="M647.4,810.8c0.9,0,1.7,0.1,2.4,0.4s1.3,0.7,1.8,1.3s0.9,1.2,1.2,2c0.3,0.8,0.4,1.6,0.4,2.6c0,1-0.1,1.8-0.4,2.6
		c-0.3,0.8-0.7,1.4-1.2,2s-1.1,1-1.8,1.3s-1.5,0.4-2.4,0.4c-0.9,0-1.7-0.1-2.4-0.4c-0.7-0.3-1.3-0.7-1.8-1.3s-0.9-1.2-1.2-2
		c-0.3-0.8-0.4-1.6-0.4-2.6c0-1,0.1-1.8,0.4-2.6c0.3-0.8,0.7-1.4,1.2-2s1.1-1,1.8-1.3C645.7,811,646.5,810.8,647.4,810.8z
		 M647.4,821.7c1.2,0,2.1-0.4,2.7-1.2c0.6-0.8,0.9-1.9,0.9-3.4c0-1.4-0.3-2.6-0.9-3.4c-0.6-0.8-1.5-1.2-2.7-1.2
		c-0.6,0-1.1,0.1-1.6,0.3s-0.8,0.5-1.1,0.9c-0.3,0.4-0.5,0.9-0.7,1.4c-0.1,0.6-0.2,1.2-0.2,1.9c0,0.7,0.1,1.4,0.2,1.9
		c0.1,0.6,0.4,1,0.7,1.4c0.3,0.4,0.7,0.7,1.1,0.9S646.8,821.7,647.4,821.7z"/>
	<path d="M655.8,823.2V811h1.3c0.3,0,0.5,0.1,0.6,0.4l0.2,1.2c0.4-0.6,1-1,1.5-1.4c0.6-0.4,1.2-0.5,1.9-0.5c0.8,0,1.5,0.2,2,0.7
		c0.5,0.5,0.9,1.1,1.1,1.8c0.2-0.4,0.4-0.8,0.7-1.1c0.3-0.3,0.6-0.6,0.9-0.8c0.3-0.2,0.7-0.4,1.1-0.5c0.4-0.1,0.8-0.1,1.2-0.1
		c0.6,0,1.2,0.1,1.7,0.3s0.9,0.5,1.3,0.9c0.3,0.4,0.6,0.9,0.8,1.4c0.2,0.6,0.3,1.2,0.3,2v7.7h-2.1v-7.7c0-1-0.2-1.7-0.6-2.2
		c-0.4-0.5-1-0.7-1.8-0.7c-0.4,0-0.7,0.1-1,0.2c-0.3,0.1-0.6,0.3-0.8,0.5c-0.2,0.2-0.4,0.5-0.6,0.9s-0.2,0.8-0.2,1.3v7.7H663v-7.7
		c0-1-0.2-1.7-0.6-2.2c-0.4-0.5-1-0.7-1.7-0.7c-0.5,0-1,0.1-1.5,0.4s-0.9,0.7-1.2,1.2v9.1H655.8z"/>
	<path d="M680.3,810.8c0.7,0,1.4,0.1,2,0.4s1.1,0.6,1.6,1.1s0.8,1,1,1.7s0.4,1.4,0.4,2.3c0,0.3,0,0.6-0.1,0.7
		c-0.1,0.1-0.2,0.2-0.4,0.2h-8.1c0,0.8,0.1,1.4,0.3,2c0.2,0.6,0.5,1,0.8,1.4c0.3,0.4,0.7,0.7,1.2,0.9c0.5,0.2,1,0.3,1.6,0.3
		c0.5,0,1-0.1,1.4-0.2c0.4-0.1,0.7-0.3,1-0.4c0.3-0.1,0.5-0.3,0.7-0.4c0.2-0.1,0.3-0.2,0.5-0.2c0.2,0,0.3,0.1,0.4,0.2l0.6,0.8
		c-0.3,0.3-0.6,0.6-0.9,0.8c-0.4,0.2-0.8,0.4-1.2,0.6c-0.4,0.2-0.9,0.3-1.3,0.3c-0.4,0.1-0.9,0.1-1.3,0.1c-0.8,0-1.6-0.1-2.3-0.4
		s-1.3-0.7-1.8-1.2c-0.5-0.5-0.9-1.2-1.2-2c-0.3-0.8-0.4-1.7-0.4-2.8c0-0.8,0.1-1.6,0.4-2.4c0.3-0.7,0.6-1.4,1.1-1.9
		c0.5-0.5,1.1-1,1.8-1.3C678.6,811,679.4,810.8,680.3,810.8z M680.4,812.4c-1,0-1.8,0.3-2.4,0.9s-1,1.4-1.1,2.5h6.6
		c0-0.5-0.1-1-0.2-1.4c-0.1-0.4-0.3-0.8-0.6-1.1s-0.6-0.5-1-0.7S680.9,812.4,680.4,812.4z"/>
</g>
<g>
	<rect x="91.5" y="391.4" class="st0" width="240.8" height="36.7"/>
	<path d="M109.5,400.5c0,1.3-0.2,2.5-0.6,3.5c-0.4,1.1-1,2-1.7,2.8c-0.7,0.8-1.6,1.4-2.7,1.8s-2.2,0.6-3.5,0.6
		c-1.3,0-2.4-0.2-3.5-0.6c-1-0.4-1.9-1-2.7-1.8c-0.7-0.8-1.3-1.7-1.7-2.8c-0.4-1.1-0.6-2.3-0.6-3.5s0.2-2.5,0.6-3.5
		c0.4-1.1,1-2,1.7-2.8c0.7-0.8,1.6-1.4,2.7-1.8c1-0.4,2.2-0.6,3.5-0.6c1.3,0,2.4,0.2,3.5,0.6c1,0.4,1.9,1,2.7,1.8
		c0.7,0.8,1.3,1.7,1.7,2.8C109.3,398.1,109.5,399.2,109.5,400.5z M107.1,400.5c0-1.1-0.1-2-0.4-2.8c-0.3-0.8-0.7-1.5-1.2-2.1
		c-0.5-0.6-1.2-1-1.9-1.3c-0.8-0.3-1.6-0.5-2.5-0.5c-0.9,0-1.8,0.2-2.5,0.5s-1.4,0.8-1.9,1.3c-0.5,0.6-0.9,1.3-1.2,2.1
		s-0.4,1.8-0.4,2.8c0,1.1,0.1,2,0.4,2.8s0.7,1.5,1.2,2.1c0.5,0.6,1.2,1,1.9,1.3s1.6,0.5,2.5,0.5c0.9,0,1.8-0.2,2.5-0.5
		c0.8-0.3,1.4-0.8,1.9-1.3c0.5-0.6,0.9-1.3,1.2-2.1C107,402.5,107.1,401.6,107.1,400.5z"/>
	<path d="M112.4,409.1v-17.7h2.1v7.2c0.5-0.6,1.1-1,1.7-1.3c0.6-0.3,1.4-0.5,2.2-0.5c0.7,0,1.2,0.1,1.8,0.3c0.5,0.2,0.9,0.5,1.3,0.9
		c0.3,0.4,0.6,0.9,0.8,1.5c0.2,0.6,0.3,1.2,0.3,1.9v7.7h-2.1v-7.7c0-0.9-0.2-1.6-0.6-2.1c-0.4-0.5-1.1-0.8-1.9-0.8
		c-0.6,0-1.2,0.2-1.8,0.5c-0.5,0.3-1.1,0.7-1.5,1.2v9H112.4z"/>
	<path d="M125.1,407.6c0-0.2,0-0.4,0.1-0.5s0.2-0.3,0.3-0.4c0.1-0.1,0.3-0.2,0.4-0.3c0.2-0.1,0.4-0.1,0.6-0.1c0.2,0,0.5,0,0.6,0.1
		c0.2,0.1,0.3,0.2,0.5,0.4c0.1,0.2,0.2,0.3,0.3,0.5s0.1,0.4,0.1,0.7c0,0.4-0.1,0.7-0.2,1.1c-0.1,0.4-0.3,0.8-0.4,1.2
		s-0.4,0.8-0.7,1.1c-0.3,0.4-0.6,0.7-1,1l-0.4-0.3c-0.1-0.1-0.2-0.2-0.2-0.3c0-0.1,0.1-0.2,0.2-0.3c0.1-0.1,0.2-0.2,0.3-0.4
		c0.1-0.1,0.2-0.3,0.4-0.5s0.2-0.4,0.4-0.6c0.1-0.2,0.2-0.5,0.2-0.7h-0.2c-0.2,0-0.4,0-0.6-0.1c-0.2-0.1-0.3-0.2-0.4-0.3
		s-0.2-0.3-0.3-0.5C125.1,408.1,125.1,407.9,125.1,407.6z"/>
	<path d="M138.5,409.1h-2.3v-17.2h2.3V409.1z"/>
	<path d="M156.4,409.1h-0.9c-0.2,0-0.4,0-0.5-0.1c-0.1-0.1-0.2-0.2-0.3-0.4l-0.2-1.1c-0.3,0.3-0.6,0.5-0.9,0.8
		c-0.3,0.2-0.6,0.4-1,0.6c-0.3,0.2-0.7,0.3-1.1,0.4c-0.4,0.1-0.8,0.1-1.3,0.1c-0.5,0-0.9-0.1-1.3-0.2c-0.4-0.1-0.8-0.3-1.1-0.6
		c-0.3-0.3-0.5-0.6-0.7-1c-0.2-0.4-0.3-0.9-0.3-1.4c0-0.5,0.1-0.9,0.4-1.4c0.3-0.4,0.7-0.8,1.3-1.2c0.6-0.3,1.4-0.6,2.3-0.8
		s2.1-0.3,3.5-0.3v-1c0-1-0.2-1.7-0.6-2.2c-0.4-0.5-1-0.7-1.8-0.7c-0.5,0-1,0.1-1.3,0.2c-0.4,0.1-0.7,0.3-0.9,0.4s-0.5,0.3-0.7,0.4
		c-0.2,0.1-0.4,0.2-0.6,0.2c-0.1,0-0.3,0-0.4-0.1c-0.1-0.1-0.2-0.2-0.3-0.3l-0.4-0.7c0.7-0.6,1.4-1.1,2.2-1.5
		c0.8-0.3,1.6-0.5,2.6-0.5c0.7,0,1.3,0.1,1.8,0.3c0.5,0.2,1,0.5,1.3,0.9c0.4,0.4,0.6,0.9,0.8,1.5s0.3,1.2,0.3,1.9V409.1z
		 M150.8,407.8c0.4,0,0.7,0,1-0.1s0.6-0.2,0.9-0.3c0.3-0.1,0.5-0.3,0.8-0.5c0.3-0.2,0.5-0.4,0.7-0.7v-2.5c-1,0-1.8,0.1-2.5,0.2
		c-0.7,0.1-1.2,0.3-1.7,0.5s-0.7,0.4-0.9,0.7c-0.2,0.3-0.3,0.6-0.3,0.9c0,0.3,0.1,0.6,0.2,0.8s0.2,0.4,0.4,0.6s0.4,0.3,0.6,0.3
		C150.3,407.8,150.5,407.8,150.8,407.8z"/>
	<path d="M162,391.4v17.7h-2.1v-17.7H162z"/>
	<path d="M172.7,399c-0.1,0.2-0.2,0.3-0.4,0.3c-0.1,0-0.3,0-0.4-0.1c-0.2-0.1-0.3-0.2-0.6-0.3c-0.2-0.1-0.5-0.2-0.8-0.3
		c-0.3-0.1-0.7-0.1-1.1-0.1c-0.4,0-0.7,0-1,0.1c-0.3,0.1-0.5,0.2-0.7,0.4s-0.4,0.3-0.5,0.6c-0.1,0.2-0.2,0.4-0.2,0.7
		c0,0.3,0.1,0.6,0.3,0.8c0.2,0.2,0.4,0.4,0.7,0.5s0.6,0.3,1,0.4c0.4,0.1,0.8,0.2,1.2,0.4s0.8,0.3,1.2,0.4c0.4,0.2,0.7,0.4,1,0.6
		c0.3,0.2,0.5,0.5,0.7,0.9c0.2,0.3,0.3,0.8,0.3,1.3c0,0.6-0.1,1.1-0.3,1.6c-0.2,0.5-0.5,0.9-0.9,1.2c-0.4,0.3-0.9,0.6-1.4,0.8
		c-0.6,0.2-1.2,0.3-2,0.3c-0.8,0-1.6-0.1-2.3-0.4c-0.7-0.3-1.3-0.6-1.8-1.1l0.5-0.8c0.1-0.1,0.1-0.2,0.2-0.2
		c0.1-0.1,0.2-0.1,0.3-0.1c0.1,0,0.3,0.1,0.5,0.2c0.2,0.1,0.4,0.2,0.6,0.4c0.2,0.1,0.5,0.3,0.8,0.4c0.3,0.1,0.7,0.2,1.2,0.2
		c0.4,0,0.8-0.1,1.1-0.2s0.6-0.3,0.8-0.4s0.4-0.4,0.5-0.6c0.1-0.2,0.1-0.5,0.1-0.8c0-0.3-0.1-0.6-0.3-0.8c-0.2-0.2-0.4-0.4-0.7-0.6
		c-0.3-0.2-0.6-0.3-1-0.4c-0.4-0.1-0.8-0.2-1.2-0.4s-0.8-0.3-1.2-0.4s-0.7-0.4-1-0.6c-0.3-0.2-0.5-0.6-0.7-0.9
		c-0.2-0.4-0.3-0.8-0.3-1.3c0-0.5,0.1-0.9,0.3-1.3c0.2-0.4,0.5-0.8,0.8-1.1c0.4-0.3,0.8-0.6,1.4-0.8c0.5-0.2,1.1-0.3,1.8-0.3
		c0.8,0,1.5,0.1,2.2,0.4c0.6,0.3,1.2,0.6,1.6,1L172.7,399z"/>
	<path d="M181.1,396.8c0.9,0,1.7,0.1,2.4,0.4c0.7,0.3,1.3,0.7,1.8,1.3s0.9,1.2,1.2,2c0.3,0.8,0.4,1.6,0.4,2.6c0,1-0.1,1.8-0.4,2.6
		c-0.3,0.8-0.7,1.4-1.2,2s-1.1,1-1.8,1.3c-0.7,0.3-1.5,0.4-2.4,0.4c-0.9,0-1.7-0.1-2.4-0.4c-0.7-0.3-1.3-0.7-1.8-1.3s-0.9-1.2-1.2-2
		c-0.3-0.8-0.4-1.6-0.4-2.6c0-1,0.1-1.8,0.4-2.6s0.7-1.4,1.2-2s1.1-1,1.8-1.3C179.4,396.9,180.2,396.8,181.1,396.8z M181.1,407.6
		c1.2,0,2.1-0.4,2.7-1.2c0.6-0.8,0.9-1.9,0.9-3.4c0-1.4-0.3-2.6-0.9-3.4c-0.6-0.8-1.5-1.2-2.7-1.2c-0.6,0-1.1,0.1-1.6,0.3
		s-0.8,0.5-1.1,0.9c-0.3,0.4-0.5,0.9-0.7,1.4c-0.1,0.6-0.2,1.2-0.2,1.9c0,0.7,0.1,1.4,0.2,1.9c0.1,0.6,0.4,1,0.7,1.4
		c0.3,0.4,0.7,0.7,1.1,0.9S180.5,407.6,181.1,407.6z"/>
	<path d="M194.1,409.1V397h1.3c0.3,0,0.5,0.1,0.6,0.4l0.2,1.3c0.5-0.6,1.1-1.1,1.8-1.4c0.7-0.4,1.4-0.5,2.3-0.5
		c0.7,0,1.2,0.1,1.8,0.3c0.5,0.2,0.9,0.5,1.3,0.9c0.3,0.4,0.6,0.9,0.8,1.5c0.2,0.6,0.3,1.2,0.3,1.9v7.7h-2.1v-7.7
		c0-0.9-0.2-1.6-0.6-2.1c-0.4-0.5-1.1-0.8-1.9-0.8c-0.6,0-1.2,0.2-1.8,0.5c-0.5,0.3-1.1,0.7-1.5,1.2v9H194.1z"/>
	<path d="M212.3,396.8c0.7,0,1.4,0.1,2,0.4c0.6,0.2,1.1,0.6,1.6,1.1c0.4,0.5,0.8,1,1.1,1.7c0.3,0.7,0.4,1.4,0.4,2.3
		c0,0.3,0,0.6-0.1,0.7c-0.1,0.1-0.2,0.2-0.4,0.2h-8.1c0,0.8,0.1,1.4,0.3,2s0.5,1,0.8,1.4s0.7,0.7,1.2,0.9c0.5,0.2,1,0.3,1.6,0.3
		c0.5,0,1-0.1,1.4-0.2c0.4-0.1,0.7-0.3,1-0.4c0.3-0.1,0.5-0.3,0.7-0.4s0.3-0.2,0.5-0.2c0.2,0,0.3,0.1,0.4,0.2l0.6,0.8
		c-0.3,0.3-0.6,0.6-0.9,0.8c-0.4,0.2-0.8,0.4-1.2,0.6c-0.4,0.2-0.9,0.3-1.3,0.3c-0.4,0.1-0.9,0.1-1.3,0.1c-0.8,0-1.6-0.1-2.3-0.4
		c-0.7-0.3-1.3-0.7-1.8-1.2s-0.9-1.2-1.2-2c-0.3-0.8-0.4-1.7-0.4-2.8c0-0.8,0.1-1.6,0.4-2.4c0.3-0.7,0.6-1.4,1.1-1.9
		c0.5-0.5,1.1-1,1.8-1.3C210.6,396.9,211.4,396.8,212.3,396.8z M212.3,398.3c-1,0-1.8,0.3-2.4,0.9c-0.6,0.6-1,1.4-1.1,2.5h6.6
		c0-0.5-0.1-1-0.2-1.4c-0.1-0.4-0.3-0.8-0.6-1.1c-0.3-0.3-0.6-0.5-1-0.7S212.8,398.3,212.3,398.3z"/>
	<path d="M224.9,396.8c0.7,0,1.4,0.1,2,0.4c0.6,0.2,1.1,0.6,1.6,1.1c0.4,0.5,0.8,1,1.1,1.7c0.3,0.7,0.4,1.4,0.4,2.3
		c0,0.3,0,0.6-0.1,0.7c-0.1,0.1-0.2,0.2-0.4,0.2h-8.1c0,0.8,0.1,1.4,0.3,2s0.5,1,0.8,1.4s0.7,0.7,1.2,0.9c0.5,0.2,1,0.3,1.6,0.3
		c0.5,0,1-0.1,1.4-0.2c0.4-0.1,0.7-0.3,1-0.4c0.3-0.1,0.5-0.3,0.7-0.4s0.3-0.2,0.5-0.2c0.2,0,0.3,0.1,0.4,0.2l0.6,0.8
		c-0.3,0.3-0.6,0.6-0.9,0.8c-0.4,0.2-0.8,0.4-1.2,0.6c-0.4,0.2-0.9,0.3-1.3,0.3c-0.4,0.1-0.9,0.1-1.3,0.1c-0.8,0-1.6-0.1-2.3-0.4
		c-0.7-0.3-1.3-0.7-1.8-1.2s-0.9-1.2-1.2-2c-0.3-0.8-0.4-1.7-0.4-2.8c0-0.8,0.1-1.6,0.4-2.4c0.3-0.7,0.6-1.4,1.1-1.9
		c0.5-0.5,1.1-1,1.8-1.3C223.2,396.9,224,396.8,224.9,396.8z M224.9,398.3c-1,0-1.8,0.3-2.4,0.9c-0.6,0.6-1,1.4-1.1,2.5h6.6
		c0-0.5-0.1-1-0.2-1.4c-0.1-0.4-0.3-0.8-0.6-1.1c-0.3-0.3-0.6-0.5-1-0.7S225.4,398.3,224.9,398.3z"/>
	<path d="M241.2,409.1c-0.3,0-0.5-0.1-0.6-0.4l-0.2-1.5c-0.5,0.6-1.1,1.1-1.8,1.5s-1.4,0.6-2.3,0.6c-0.7,0-1.3-0.1-1.9-0.4
		s-1.1-0.7-1.5-1.2s-0.7-1.2-0.9-1.9s-0.3-1.7-0.3-2.7c0-0.9,0.1-1.7,0.4-2.5c0.2-0.8,0.6-1.4,1-2c0.5-0.6,1-1,1.6-1.3
		c0.6-0.3,1.4-0.5,2.2-0.5c0.7,0,1.4,0.1,1.9,0.4c0.5,0.3,1,0.6,1.4,1.1v-6.7h2.1v17.7H241.2z M237,407.6c0.7,0,1.3-0.2,1.8-0.5
		c0.5-0.3,1-0.8,1.4-1.4v-5.9c-0.4-0.5-0.8-0.9-1.3-1.1c-0.5-0.2-1-0.3-1.6-0.3c-1.1,0-2,0.4-2.6,1.2c-0.6,0.8-0.9,2-0.9,3.5
		c0,0.8,0.1,1.5,0.2,2s0.3,1,0.6,1.4c0.3,0.4,0.6,0.6,1,0.8C236.1,407.5,236.6,407.6,237,407.6z"/>
	<path d="M250.8,409.1v-17.7h2.1v7.3c0.5-0.6,1.1-1.1,1.7-1.4c0.7-0.4,1.4-0.5,2.2-0.5c0.7,0,1.3,0.1,1.9,0.4
		c0.6,0.3,1.1,0.7,1.5,1.2c0.4,0.5,0.7,1.2,0.9,1.9c0.2,0.8,0.3,1.7,0.3,2.7c0,0.9-0.1,1.7-0.4,2.5c-0.2,0.8-0.6,1.4-1,2
		c-0.5,0.6-1,1-1.7,1.3c-0.7,0.3-1.4,0.5-2.2,0.5c-0.8,0-1.5-0.2-2-0.5c-0.5-0.3-1-0.7-1.4-1.3l-0.1,1.1c-0.1,0.3-0.2,0.5-0.6,0.5
		H250.8z M256.2,398.5c-0.7,0-1.3,0.2-1.8,0.5c-0.5,0.3-1,0.8-1.4,1.4v5.9c0.4,0.5,0.8,0.9,1.3,1.1s1,0.3,1.6,0.3
		c1.1,0,2-0.4,2.6-1.2c0.6-0.8,0.9-2,0.9-3.5c0-0.8-0.1-1.5-0.2-2c-0.1-0.6-0.3-1-0.6-1.4c-0.3-0.4-0.6-0.6-1-0.8
		C257.1,398.6,256.7,398.5,256.2,398.5z"/>
	<path d="M263.4,407.8c0-0.2,0-0.4,0.1-0.6c0.1-0.2,0.2-0.3,0.3-0.5c0.1-0.1,0.3-0.2,0.5-0.3s0.4-0.1,0.6-0.1s0.4,0,0.6,0.1
		s0.3,0.2,0.5,0.3c0.1,0.1,0.2,0.3,0.3,0.5c0.1,0.2,0.1,0.4,0.1,0.6c0,0.2,0,0.4-0.1,0.6c-0.1,0.2-0.2,0.3-0.3,0.5
		c-0.1,0.1-0.3,0.2-0.5,0.3c-0.2,0.1-0.4,0.1-0.6,0.1s-0.4,0-0.6-0.1c-0.2-0.1-0.3-0.2-0.5-0.3c-0.1-0.1-0.2-0.3-0.3-0.5
		C263.4,408.2,263.4,408,263.4,407.8z"/>
	<path d="M271.6,397V410c0,0.5-0.1,0.9-0.2,1.4s-0.3,0.8-0.6,1.1s-0.6,0.6-1.1,0.7c-0.4,0.2-1,0.3-1.6,0.3c-0.3,0-0.5,0-0.7-0.1
		c-0.2,0-0.4-0.1-0.6-0.2l0.1-1.2c0-0.1,0.1-0.2,0.1-0.2c0.1,0,0.1,0,0.3,0c0.1,0,0.1,0,0.2,0s0.2,0,0.3,0c0.6,0,1.1-0.1,1.3-0.4
		c0.3-0.3,0.4-0.8,0.4-1.4v-13H271.6z M272,393.1c0,0.2,0,0.4-0.1,0.6c-0.1,0.2-0.2,0.3-0.3,0.5c-0.1,0.1-0.3,0.3-0.5,0.3
		c-0.2,0.1-0.4,0.1-0.6,0.1s-0.4,0-0.6-0.1c-0.2-0.1-0.3-0.2-0.5-0.3c-0.1-0.1-0.2-0.3-0.3-0.5c-0.1-0.2-0.1-0.4-0.1-0.6
		c0-0.2,0-0.4,0.1-0.6c0.1-0.2,0.2-0.4,0.3-0.5c0.1-0.1,0.3-0.2,0.5-0.3c0.2-0.1,0.4-0.1,0.6-0.1s0.4,0,0.6,0.1
		c0.2,0.1,0.3,0.2,0.5,0.3c0.1,0.1,0.3,0.3,0.3,0.5S272,392.9,272,393.1z"/>
	<path d="M282.2,399c-0.1,0.2-0.2,0.3-0.4,0.3c-0.1,0-0.3,0-0.4-0.1c-0.2-0.1-0.3-0.2-0.6-0.3c-0.2-0.1-0.5-0.2-0.8-0.3
		c-0.3-0.1-0.7-0.1-1.1-0.1c-0.4,0-0.7,0-1,0.1c-0.3,0.1-0.5,0.2-0.7,0.4s-0.4,0.3-0.5,0.6c-0.1,0.2-0.2,0.4-0.2,0.7
		c0,0.3,0.1,0.6,0.3,0.8c0.2,0.2,0.4,0.4,0.7,0.5s0.6,0.3,1,0.4c0.4,0.1,0.8,0.2,1.2,0.4s0.8,0.3,1.2,0.4c0.4,0.2,0.7,0.4,1,0.6
		c0.3,0.2,0.5,0.5,0.7,0.9c0.2,0.3,0.3,0.8,0.3,1.3c0,0.6-0.1,1.1-0.3,1.6c-0.2,0.5-0.5,0.9-0.9,1.2c-0.4,0.3-0.9,0.6-1.4,0.8
		c-0.6,0.2-1.2,0.3-2,0.3c-0.8,0-1.6-0.1-2.3-0.4c-0.7-0.3-1.3-0.6-1.8-1.1l0.5-0.8c0.1-0.1,0.1-0.2,0.2-0.2
		c0.1-0.1,0.2-0.1,0.3-0.1c0.1,0,0.3,0.1,0.5,0.2c0.2,0.1,0.4,0.2,0.6,0.4c0.2,0.1,0.5,0.3,0.8,0.4c0.3,0.1,0.7,0.2,1.2,0.2
		c0.4,0,0.8-0.1,1.1-0.2s0.6-0.3,0.8-0.4s0.4-0.4,0.5-0.6c0.1-0.2,0.1-0.5,0.1-0.8c0-0.3-0.1-0.6-0.3-0.8c-0.2-0.2-0.4-0.4-0.7-0.6
		c-0.3-0.2-0.6-0.3-1-0.4c-0.4-0.1-0.8-0.2-1.2-0.4s-0.8-0.3-1.2-0.4s-0.7-0.4-1-0.6c-0.3-0.2-0.5-0.6-0.7-0.9
		c-0.2-0.4-0.3-0.8-0.3-1.3c0-0.5,0.1-0.9,0.3-1.3c0.2-0.4,0.5-0.8,0.8-1.1c0.4-0.3,0.8-0.6,1.4-0.8c0.5-0.2,1.1-0.3,1.8-0.3
		c0.8,0,1.5,0.1,2.2,0.4c0.6,0.3,1.2,0.6,1.6,1L282.2,399z"/>
</g>
<g>
	<rect x="90.5" y="668.9" class="st0" width="307.6" height="36.7"/>
	<path d="M101.4,672.1c-0.1,0.1-0.1,0.2-0.2,0.3s-0.2,0.1-0.3,0.1c-0.1,0-0.3-0.1-0.5-0.2c-0.2-0.1-0.4-0.3-0.7-0.4
		c-0.3-0.2-0.6-0.3-1-0.5c-0.4-0.1-0.9-0.2-1.4-0.2c-0.5,0-1,0.1-1.4,0.2c-0.4,0.1-0.7,0.3-1,0.6c-0.3,0.2-0.5,0.5-0.6,0.8
		c-0.1,0.3-0.2,0.7-0.2,1c0,0.5,0.1,0.9,0.4,1.2c0.2,0.3,0.5,0.6,0.9,0.8c0.4,0.2,0.8,0.4,1.3,0.6s1,0.3,1.5,0.5
		c0.5,0.2,1,0.4,1.5,0.6c0.5,0.2,0.9,0.5,1.3,0.8c0.4,0.3,0.7,0.7,0.9,1.2c0.2,0.5,0.4,1.1,0.4,1.8c0,0.8-0.1,1.5-0.4,2.1
		s-0.6,1.2-1.1,1.7c-0.5,0.5-1.1,0.9-1.8,1.2c-0.7,0.3-1.5,0.4-2.4,0.4c-1.1,0-2.1-0.2-3-0.6s-1.7-1-2.3-1.6l0.7-1.1
		c0.1-0.1,0.1-0.2,0.2-0.2c0.1-0.1,0.2-0.1,0.3-0.1c0.2,0,0.4,0.1,0.6,0.3c0.2,0.2,0.5,0.4,0.8,0.6c0.3,0.2,0.7,0.4,1.2,0.6
		c0.5,0.2,1,0.3,1.7,0.3c0.6,0,1-0.1,1.5-0.2c0.4-0.2,0.8-0.4,1.1-0.6s0.5-0.6,0.7-1c0.2-0.4,0.2-0.8,0.2-1.3c0-0.5-0.1-0.9-0.4-1.3
		c-0.2-0.3-0.5-0.6-0.9-0.8s-0.8-0.4-1.3-0.6s-1-0.3-1.5-0.5c-0.5-0.2-1-0.4-1.5-0.6c-0.5-0.2-0.9-0.5-1.3-0.8
		c-0.4-0.3-0.7-0.8-0.9-1.3c-0.2-0.5-0.4-1.2-0.4-1.9c0-0.6,0.1-1.2,0.4-1.8c0.2-0.6,0.6-1.1,1-1.5c0.4-0.4,1-0.8,1.7-1.1
		s1.4-0.4,2.3-0.4c1,0,1.8,0.2,2.6,0.5c0.8,0.3,1.5,0.7,2.1,1.3L101.4,672.1z"/>
	<path d="M109.9,674.3c0.9,0,1.7,0.1,2.4,0.4c0.7,0.3,1.3,0.7,1.8,1.3s0.9,1.2,1.2,2c0.3,0.8,0.4,1.6,0.4,2.6c0,1-0.1,1.8-0.4,2.6
		c-0.3,0.8-0.7,1.4-1.2,2s-1.1,1-1.8,1.3c-0.7,0.3-1.5,0.4-2.4,0.4c-0.9,0-1.7-0.1-2.4-0.4c-0.7-0.3-1.3-0.7-1.8-1.3s-0.9-1.2-1.2-2
		s-0.4-1.6-0.4-2.6c0-1,0.1-1.8,0.4-2.6c0.3-0.8,0.7-1.4,1.2-2s1.1-1,1.8-1.3C108.2,674.4,109,674.3,109.9,674.3z M109.9,685.1
		c1.2,0,2.1-0.4,2.7-1.2c0.6-0.8,0.9-1.9,0.9-3.4c0-1.4-0.3-2.6-0.9-3.4c-0.6-0.8-1.5-1.2-2.7-1.2c-0.6,0-1.1,0.1-1.6,0.3
		s-0.8,0.5-1.1,0.9c-0.3,0.4-0.5,0.9-0.7,1.4c-0.1,0.6-0.2,1.2-0.2,1.9s0.1,1.4,0.2,1.9c0.1,0.6,0.4,1,0.7,1.4
		c0.3,0.4,0.7,0.7,1.1,0.9S109.3,685.1,109.9,685.1z"/>
	<path d="M118.3,686.6v-12.2h1.2c0.2,0,0.4,0,0.5,0.1c0.1,0.1,0.1,0.2,0.2,0.5l0.1,1.9c0.4-0.8,0.9-1.5,1.5-2
		c0.6-0.5,1.3-0.7,2.2-0.7c0.3,0,0.6,0,0.9,0.1c0.3,0.1,0.5,0.2,0.8,0.3l-0.3,1.6c-0.1,0.2-0.2,0.3-0.4,0.3c-0.1,0-0.3,0-0.5-0.1
		s-0.6-0.1-1-0.1c-0.7,0-1.4,0.2-1.9,0.6c-0.5,0.4-0.9,1.1-1.3,1.9v7.7H118.3z"/>
	<path d="M128,686.6v-12.2h1.2c0.2,0,0.4,0,0.5,0.1c0.1,0.1,0.1,0.2,0.2,0.5l0.1,1.9c0.4-0.8,0.9-1.5,1.5-2c0.6-0.5,1.3-0.7,2.2-0.7
		c0.3,0,0.6,0,0.9,0.1c0.3,0.1,0.5,0.2,0.8,0.3l-0.3,1.6c-0.1,0.2-0.2,0.3-0.4,0.3c-0.1,0-0.3,0-0.5-0.1s-0.6-0.1-1-0.1
		c-0.7,0-1.4,0.2-1.9,0.6c-0.5,0.4-0.9,1.1-1.3,1.9v7.7H128z"/>
	<path d="M141.2,690.2c-0.1,0.2-0.2,0.3-0.3,0.4s-0.3,0.1-0.5,0.1h-1.6l2.2-4.8l-5-11.4h1.8c0.2,0,0.3,0,0.4,0.1
		c0.1,0.1,0.2,0.2,0.2,0.3l3.3,7.7c0.1,0.2,0.1,0.4,0.2,0.5c0.1,0.2,0.1,0.4,0.1,0.5c0.1-0.2,0.1-0.4,0.2-0.5s0.1-0.4,0.2-0.5
		l3.2-7.6c0-0.1,0.1-0.2,0.2-0.3c0.1-0.1,0.2-0.1,0.4-0.1h1.7L141.2,690.2z"/>
	<path d="M147.7,685.1c0-0.2,0-0.4,0.1-0.5s0.2-0.3,0.3-0.4c0.1-0.1,0.3-0.2,0.4-0.3c0.2-0.1,0.4-0.1,0.6-0.1c0.2,0,0.5,0,0.6,0.1
		s0.3,0.2,0.5,0.4c0.1,0.2,0.2,0.3,0.3,0.5s0.1,0.4,0.1,0.7c0,0.4-0.1,0.7-0.2,1.1c-0.1,0.4-0.3,0.8-0.4,1.2s-0.4,0.8-0.7,1.1
		c-0.3,0.4-0.6,0.7-1,1l-0.4-0.3c-0.1-0.1-0.2-0.2-0.2-0.3c0-0.1,0.1-0.2,0.2-0.3c0.1-0.1,0.2-0.2,0.3-0.4s0.2-0.3,0.4-0.5
		c0.1-0.2,0.2-0.4,0.4-0.6c0.1-0.2,0.2-0.5,0.2-0.7h-0.2c-0.2,0-0.4,0-0.6-0.1s-0.3-0.2-0.4-0.3s-0.2-0.3-0.3-0.5
		C147.7,685.5,147.7,685.3,147.7,685.1z"/>
	<path d="M166.6,686.6c-0.3,0-0.5-0.1-0.6-0.4l-0.2-1.5c-0.5,0.6-1.1,1.1-1.8,1.5s-1.4,0.6-2.3,0.6c-0.7,0-1.3-0.1-1.9-0.4
		c-0.6-0.3-1.1-0.7-1.5-1.2c-0.4-0.5-0.7-1.2-0.9-1.9c-0.2-0.8-0.3-1.7-0.3-2.7c0-0.9,0.1-1.7,0.4-2.5c0.2-0.8,0.6-1.4,1-2
		c0.5-0.6,1-1,1.6-1.3c0.6-0.3,1.4-0.5,2.2-0.5c0.7,0,1.4,0.1,1.9,0.4c0.5,0.3,1,0.6,1.4,1.1v-6.7h2.1v17.7H166.6z M162.5,685
		c0.7,0,1.3-0.2,1.8-0.5s1-0.8,1.4-1.4v-5.9c-0.4-0.5-0.8-0.9-1.3-1.1c-0.5-0.2-1-0.3-1.6-0.3c-1.1,0-2,0.4-2.6,1.2s-0.9,2-0.9,3.5
		c0,0.8,0.1,1.5,0.2,2c0.1,0.6,0.3,1,0.6,1.4s0.6,0.6,1,0.8C161.5,685,162,685,162.5,685z"/>
	<path d="M176.4,674.3c0.9,0,1.7,0.1,2.4,0.4c0.7,0.3,1.3,0.7,1.8,1.3s0.9,1.2,1.2,2c0.3,0.8,0.4,1.6,0.4,2.6c0,1-0.1,1.8-0.4,2.6
		c-0.3,0.8-0.7,1.4-1.2,2s-1.1,1-1.8,1.3c-0.7,0.3-1.5,0.4-2.4,0.4c-0.9,0-1.7-0.1-2.4-0.4c-0.7-0.3-1.3-0.7-1.8-1.3s-0.9-1.2-1.2-2
		s-0.4-1.6-0.4-2.6c0-1,0.1-1.8,0.4-2.6c0.3-0.8,0.7-1.4,1.2-2s1.1-1,1.8-1.3C174.7,674.4,175.5,674.3,176.4,674.3z M176.4,685.1
		c1.2,0,2.1-0.4,2.7-1.2c0.6-0.8,0.9-1.9,0.9-3.4c0-1.4-0.3-2.6-0.9-3.4c-0.6-0.8-1.5-1.2-2.7-1.2c-0.6,0-1.1,0.1-1.6,0.3
		s-0.8,0.5-1.1,0.9c-0.3,0.4-0.5,0.9-0.7,1.4c-0.1,0.6-0.2,1.2-0.2,1.9s0.1,1.4,0.2,1.9c0.1,0.6,0.4,1,0.7,1.4
		c0.3,0.4,0.7,0.7,1.1,0.9S175.8,685.1,176.4,685.1z"/>
	<path d="M193,690.2c-0.1,0.2-0.2,0.3-0.3,0.4s-0.3,0.1-0.5,0.1h-1.6l2.2-4.8l-5-11.4h1.8c0.2,0,0.3,0,0.4,0.1
		c0.1,0.1,0.2,0.2,0.2,0.3l3.3,7.7c0.1,0.2,0.1,0.4,0.2,0.5c0.1,0.2,0.1,0.4,0.1,0.5c0.1-0.2,0.1-0.4,0.2-0.5s0.1-0.4,0.2-0.5
		l3.2-7.6c0-0.1,0.1-0.2,0.2-0.3c0.1-0.1,0.2-0.1,0.4-0.1h1.7L193,690.2z"/>
	<path d="M206.3,674.3c0.9,0,1.7,0.1,2.4,0.4c0.7,0.3,1.3,0.7,1.8,1.3s0.9,1.2,1.2,2c0.3,0.8,0.4,1.6,0.4,2.6c0,1-0.1,1.8-0.4,2.6
		c-0.3,0.8-0.7,1.4-1.2,2s-1.1,1-1.8,1.3c-0.7,0.3-1.5,0.4-2.4,0.4c-0.9,0-1.7-0.1-2.4-0.4c-0.7-0.3-1.3-0.7-1.8-1.3s-0.9-1.2-1.2-2
		s-0.4-1.6-0.4-2.6c0-1,0.1-1.8,0.4-2.6c0.3-0.8,0.7-1.4,1.2-2s1.1-1,1.8-1.3C204.7,674.4,205.5,674.3,206.3,674.3z M206.3,685.1
		c1.2,0,2.1-0.4,2.7-1.2c0.6-0.8,0.9-1.9,0.9-3.4c0-1.4-0.3-2.6-0.9-3.4c-0.6-0.8-1.5-1.2-2.7-1.2c-0.6,0-1.1,0.1-1.6,0.3
		s-0.8,0.5-1.1,0.9c-0.3,0.4-0.5,0.9-0.7,1.4c-0.1,0.6-0.2,1.2-0.2,1.9s0.1,1.4,0.2,1.9c0.1,0.6,0.4,1,0.7,1.4
		c0.3,0.4,0.7,0.7,1.1,0.9S205.7,685.1,206.3,685.1z"/>
	<path d="M216.6,674.5v7.8c0,0.9,0.2,1.6,0.6,2.1c0.4,0.5,1.1,0.8,1.9,0.8c0.6,0,1.2-0.1,1.8-0.4c0.6-0.3,1.1-0.7,1.5-1.2v-9h2.1
		v12.2h-1.3c-0.3,0-0.5-0.1-0.6-0.4l-0.2-1.3c-0.5,0.6-1.1,1.1-1.8,1.4c-0.7,0.4-1.4,0.5-2.3,0.5c-0.7,0-1.3-0.1-1.8-0.3
		c-0.5-0.2-0.9-0.5-1.3-0.9c-0.3-0.4-0.6-0.9-0.8-1.5c-0.2-0.6-0.3-1.2-0.3-1.9v-7.8H216.6z"/>
	<path d="M241.7,686.6h-0.9c-0.2,0-0.4,0-0.5-0.1c-0.1-0.1-0.2-0.2-0.3-0.4l-0.2-1.1c-0.3,0.3-0.6,0.5-0.9,0.8
		c-0.3,0.2-0.6,0.4-1,0.6s-0.7,0.3-1.1,0.4c-0.4,0.1-0.8,0.1-1.3,0.1c-0.5,0-0.9-0.1-1.3-0.2c-0.4-0.1-0.8-0.3-1.1-0.6
		c-0.3-0.3-0.5-0.6-0.7-1s-0.3-0.9-0.3-1.4c0-0.5,0.1-0.9,0.4-1.4c0.3-0.4,0.7-0.8,1.3-1.2c0.6-0.3,1.4-0.6,2.3-0.8s2.1-0.3,3.5-0.3
		v-1c0-1-0.2-1.7-0.6-2.2c-0.4-0.5-1-0.7-1.8-0.7c-0.5,0-1,0.1-1.3,0.2c-0.4,0.1-0.7,0.3-0.9,0.4s-0.5,0.3-0.7,0.4
		c-0.2,0.1-0.4,0.2-0.6,0.2c-0.1,0-0.3,0-0.4-0.1c-0.1-0.1-0.2-0.2-0.3-0.3l-0.4-0.7c0.7-0.6,1.4-1.1,2.2-1.5
		c0.8-0.3,1.6-0.5,2.6-0.5c0.7,0,1.3,0.1,1.8,0.3c0.5,0.2,1,0.5,1.3,0.9c0.4,0.4,0.6,0.9,0.8,1.5c0.2,0.6,0.3,1.2,0.3,1.9V686.6z
		 M236.1,685.3c0.4,0,0.7,0,1-0.1s0.6-0.2,0.9-0.3c0.3-0.1,0.5-0.3,0.8-0.5c0.3-0.2,0.5-0.4,0.7-0.7v-2.5c-1,0-1.8,0.1-2.5,0.2
		c-0.7,0.1-1.2,0.3-1.7,0.5s-0.7,0.4-0.9,0.7c-0.2,0.3-0.3,0.6-0.3,0.9c0,0.3,0.1,0.6,0.2,0.8s0.2,0.4,0.4,0.6
		c0.2,0.1,0.4,0.3,0.6,0.3C235.6,685.3,235.8,685.3,236.1,685.3z"/>
	<path d="M247.3,668.9v17.7h-2.1v-17.7H247.3z"/>
	<path d="M258,676.5c-0.1,0.2-0.2,0.3-0.4,0.3c-0.1,0-0.3,0-0.4-0.1c-0.2-0.1-0.3-0.2-0.6-0.3c-0.2-0.1-0.5-0.2-0.8-0.3
		c-0.3-0.1-0.7-0.1-1.1-0.1c-0.4,0-0.7,0-1,0.1s-0.5,0.2-0.7,0.4s-0.4,0.3-0.5,0.6c-0.1,0.2-0.2,0.4-0.2,0.7c0,0.3,0.1,0.6,0.3,0.8
		c0.2,0.2,0.4,0.4,0.7,0.5c0.3,0.2,0.6,0.3,1,0.4c0.4,0.1,0.8,0.2,1.2,0.4s0.8,0.3,1.2,0.4s0.7,0.4,1,0.6c0.3,0.2,0.5,0.5,0.7,0.9
		c0.2,0.3,0.3,0.8,0.3,1.3c0,0.6-0.1,1.1-0.3,1.6c-0.2,0.5-0.5,0.9-0.9,1.2c-0.4,0.3-0.9,0.6-1.4,0.8c-0.6,0.2-1.2,0.3-2,0.3
		c-0.8,0-1.6-0.1-2.3-0.4c-0.7-0.3-1.3-0.6-1.8-1.1l0.5-0.8c0.1-0.1,0.1-0.2,0.2-0.2c0.1-0.1,0.2-0.1,0.3-0.1c0.1,0,0.3,0.1,0.5,0.2
		c0.2,0.1,0.4,0.2,0.6,0.4c0.2,0.1,0.5,0.3,0.8,0.4c0.3,0.1,0.7,0.2,1.2,0.2c0.4,0,0.8-0.1,1.1-0.2c0.3-0.1,0.6-0.3,0.8-0.4
		c0.2-0.2,0.4-0.4,0.5-0.6c0.1-0.2,0.1-0.5,0.1-0.8c0-0.3-0.1-0.6-0.3-0.8c-0.2-0.2-0.4-0.4-0.7-0.6c-0.3-0.2-0.6-0.3-1-0.4
		s-0.8-0.2-1.2-0.4s-0.8-0.3-1.2-0.4s-0.7-0.4-1-0.6s-0.5-0.6-0.7-0.9c-0.2-0.4-0.3-0.8-0.3-1.3c0-0.5,0.1-0.9,0.3-1.3
		s0.5-0.8,0.8-1.1c0.4-0.3,0.8-0.6,1.4-0.8c0.5-0.2,1.1-0.3,1.8-0.3c0.8,0,1.5,0.1,2.2,0.4c0.6,0.3,1.2,0.6,1.6,1L258,676.5z"/>
	<path d="M266.4,674.3c0.9,0,1.7,0.1,2.4,0.4c0.7,0.3,1.3,0.7,1.8,1.3s0.9,1.2,1.2,2c0.3,0.8,0.4,1.6,0.4,2.6c0,1-0.1,1.8-0.4,2.6
		c-0.3,0.8-0.7,1.4-1.2,2s-1.1,1-1.8,1.3c-0.7,0.3-1.5,0.4-2.4,0.4c-0.9,0-1.7-0.1-2.4-0.4c-0.7-0.3-1.3-0.7-1.8-1.3s-0.9-1.2-1.2-2
		s-0.4-1.6-0.4-2.6c0-1,0.1-1.8,0.4-2.6c0.3-0.8,0.7-1.4,1.2-2s1.1-1,1.8-1.3C264.7,674.4,265.5,674.3,266.4,674.3z M266.4,685.1
		c1.2,0,2.1-0.4,2.7-1.2c0.6-0.8,0.9-1.9,0.9-3.4c0-1.4-0.3-2.6-0.9-3.4c-0.6-0.8-1.5-1.2-2.7-1.2c-0.6,0-1.1,0.1-1.6,0.3
		s-0.8,0.5-1.1,0.9c-0.3,0.4-0.5,0.9-0.7,1.4c-0.1,0.6-0.2,1.2-0.2,1.9s0.1,1.4,0.2,1.9c0.1,0.6,0.4,1,0.7,1.4
		c0.3,0.4,0.7,0.7,1.1,0.9S265.8,685.1,266.4,685.1z"/>
	<path d="M279.4,686.6v-17.7h2.1v7.2c0.5-0.6,1.1-1,1.7-1.3c0.6-0.3,1.4-0.5,2.2-0.5c0.7,0,1.2,0.1,1.8,0.3c0.5,0.2,0.9,0.5,1.3,0.9
		c0.3,0.4,0.6,0.9,0.8,1.5c0.2,0.6,0.3,1.2,0.3,1.9v7.7h-2.1v-7.7c0-0.9-0.2-1.6-0.6-2.1c-0.4-0.5-1.1-0.8-1.9-0.8
		c-0.6,0-1.2,0.2-1.8,0.5c-0.5,0.3-1.1,0.7-1.5,1.2v9H279.4z"/>
	<path d="M301.7,686.6h-0.9c-0.2,0-0.4,0-0.5-0.1c-0.1-0.1-0.2-0.2-0.3-0.4l-0.2-1.1c-0.3,0.3-0.6,0.5-0.9,0.8
		c-0.3,0.2-0.6,0.4-1,0.6s-0.7,0.3-1.1,0.4c-0.4,0.1-0.8,0.1-1.3,0.1c-0.5,0-0.9-0.1-1.3-0.2c-0.4-0.1-0.8-0.3-1.1-0.6
		c-0.3-0.3-0.5-0.6-0.7-1s-0.3-0.9-0.3-1.4c0-0.5,0.1-0.9,0.4-1.4c0.3-0.4,0.7-0.8,1.3-1.2c0.6-0.3,1.4-0.6,2.3-0.8s2.1-0.3,3.5-0.3
		v-1c0-1-0.2-1.7-0.6-2.2c-0.4-0.5-1-0.7-1.8-0.7c-0.5,0-1,0.1-1.3,0.2c-0.4,0.1-0.7,0.3-0.9,0.4s-0.5,0.3-0.7,0.4
		c-0.2,0.1-0.4,0.2-0.6,0.2c-0.1,0-0.3,0-0.4-0.1c-0.1-0.1-0.2-0.2-0.3-0.3l-0.4-0.7c0.7-0.6,1.4-1.1,2.2-1.5
		c0.8-0.3,1.6-0.5,2.6-0.5c0.7,0,1.3,0.1,1.8,0.3c0.5,0.2,1,0.5,1.3,0.9c0.4,0.4,0.6,0.9,0.8,1.5c0.2,0.6,0.3,1.2,0.3,1.9V686.6z
		 M296.2,685.3c0.4,0,0.7,0,1-0.1s0.6-0.2,0.9-0.3c0.3-0.1,0.5-0.3,0.8-0.5c0.3-0.2,0.5-0.4,0.7-0.7v-2.5c-1,0-1.8,0.1-2.5,0.2
		c-0.7,0.1-1.2,0.3-1.7,0.5s-0.7,0.4-0.9,0.7c-0.2,0.3-0.3,0.6-0.3,0.9c0,0.3,0.1,0.6,0.2,0.8s0.2,0.4,0.4,0.6
		c0.2,0.1,0.4,0.3,0.6,0.3C295.6,685.3,295.9,685.3,296.2,685.3z"/>
	<path d="M303,674.5h1.8c0.2,0,0.3,0,0.4,0.1c0.1,0.1,0.2,0.2,0.2,0.3l3.1,7.8c0.1,0.3,0.2,0.6,0.3,0.9c0.1,0.3,0.1,0.6,0.2,0.9
		c0.1-0.3,0.1-0.6,0.2-0.9c0.1-0.3,0.2-0.6,0.3-0.9l3.1-7.8c0-0.1,0.1-0.2,0.2-0.3c0.1-0.1,0.2-0.1,0.4-0.1h1.7l-5,12.2H308
		L303,674.5z"/>
	<path d="M321.4,674.3c0.7,0,1.4,0.1,2,0.4s1.1,0.6,1.6,1.1s0.8,1,1,1.7c0.3,0.7,0.4,1.4,0.4,2.3c0,0.3,0,0.6-0.1,0.7
		s-0.2,0.2-0.4,0.2h-8.1c0,0.8,0.1,1.4,0.3,2c0.2,0.6,0.5,1,0.8,1.4c0.3,0.4,0.7,0.7,1.2,0.9c0.5,0.2,1,0.3,1.6,0.3
		c0.5,0,1-0.1,1.4-0.2s0.7-0.3,1-0.4c0.3-0.1,0.5-0.3,0.7-0.4c0.2-0.1,0.3-0.2,0.5-0.2c0.2,0,0.3,0.1,0.4,0.2l0.6,0.8
		c-0.3,0.3-0.6,0.6-0.9,0.8s-0.8,0.4-1.2,0.6s-0.9,0.3-1.3,0.3c-0.4,0.1-0.9,0.1-1.3,0.1c-0.8,0-1.6-0.1-2.3-0.4
		c-0.7-0.3-1.3-0.7-1.8-1.2c-0.5-0.5-0.9-1.2-1.2-2c-0.3-0.8-0.4-1.7-0.4-2.8c0-0.8,0.1-1.6,0.4-2.4c0.3-0.7,0.6-1.4,1.1-1.9
		c0.5-0.5,1.1-1,1.8-1.3C319.7,674.4,320.5,674.3,321.4,674.3z M321.4,675.8c-1,0-1.8,0.3-2.4,0.9c-0.6,0.6-1,1.4-1.1,2.5h6.6
		c0-0.5-0.1-1-0.2-1.4c-0.1-0.4-0.3-0.8-0.6-1.1s-0.6-0.5-1-0.7S321.9,675.8,321.4,675.8z"/>
	<path d="M342,676.6c-0.1,0.1-0.1,0.2-0.2,0.2c-0.1,0-0.2,0.1-0.3,0.1s-0.2,0-0.4-0.1c-0.1-0.1-0.3-0.2-0.5-0.3
		c-0.2-0.1-0.5-0.2-0.8-0.3c-0.3-0.1-0.7-0.2-1.1-0.2c-0.6,0-1.1,0.1-1.6,0.3s-0.8,0.5-1.1,0.9c-0.3,0.4-0.5,0.9-0.7,1.5
		c-0.2,0.6-0.2,1.2-0.2,1.9c0,0.7,0.1,1.4,0.3,2s0.4,1.1,0.7,1.4c0.3,0.4,0.7,0.7,1.1,0.9c0.4,0.2,0.9,0.3,1.5,0.3
		c0.5,0,0.9-0.1,1.3-0.2s0.6-0.3,0.8-0.4c0.2-0.2,0.4-0.3,0.6-0.4c0.1-0.1,0.3-0.2,0.4-0.2c0.2,0,0.3,0.1,0.4,0.2l0.6,0.8
		c-0.5,0.6-1.2,1.1-2,1.4s-1.6,0.5-2.5,0.5c-0.8,0-1.5-0.1-2.1-0.4c-0.7-0.3-1.2-0.7-1.7-1.2c-0.5-0.5-0.9-1.2-1.1-2
		c-0.3-0.8-0.4-1.7-0.4-2.7c0-0.9,0.1-1.7,0.4-2.5c0.3-0.8,0.6-1.4,1.1-2c0.5-0.6,1.1-1,1.8-1.3c0.7-0.3,1.5-0.5,2.4-0.5
		c0.8,0,1.6,0.1,2.3,0.4c0.7,0.3,1.2,0.7,1.7,1.2L342,676.6z"/>
	<path d="M344.3,685.3c0-0.2,0-0.4,0.1-0.6c0.1-0.2,0.2-0.3,0.3-0.5c0.1-0.1,0.3-0.2,0.5-0.3c0.2-0.1,0.4-0.1,0.6-0.1s0.4,0,0.6,0.1
		c0.2,0.1,0.3,0.2,0.5,0.3c0.1,0.1,0.2,0.3,0.3,0.5c0.1,0.2,0.1,0.4,0.1,0.6c0,0.2,0,0.4-0.1,0.6c-0.1,0.2-0.2,0.3-0.3,0.5
		c-0.1,0.1-0.3,0.2-0.5,0.3c-0.2,0.1-0.4,0.1-0.6,0.1s-0.4,0-0.6-0.1c-0.2-0.1-0.3-0.2-0.5-0.3c-0.1-0.1-0.2-0.3-0.3-0.5
		C344.3,685.7,344.3,685.5,344.3,685.3z"/>
	<path d="M352.4,674.4v13.1c0,0.5-0.1,0.9-0.2,1.4s-0.3,0.8-0.6,1.1c-0.3,0.3-0.6,0.6-1.1,0.7c-0.4,0.2-1,0.3-1.6,0.3
		c-0.3,0-0.5,0-0.7-0.1c-0.2,0-0.4-0.1-0.6-0.2l0.1-1.2c0-0.1,0.1-0.2,0.1-0.2c0.1,0,0.1,0,0.3,0c0.1,0,0.1,0,0.2,0s0.2,0,0.3,0
		c0.6,0,1.1-0.1,1.3-0.4c0.3-0.3,0.4-0.8,0.4-1.4v-13H352.4z M352.9,670.6c0,0.2,0,0.4-0.1,0.6c-0.1,0.2-0.2,0.3-0.3,0.5
		c-0.1,0.1-0.3,0.2-0.5,0.3c-0.2,0.1-0.4,0.1-0.6,0.1s-0.4,0-0.6-0.1c-0.2-0.1-0.3-0.2-0.5-0.3s-0.2-0.3-0.3-0.5
		c-0.1-0.2-0.1-0.4-0.1-0.6c0-0.2,0-0.4,0.1-0.6c0.1-0.2,0.2-0.4,0.3-0.5c0.1-0.1,0.3-0.2,0.5-0.3c0.2-0.1,0.4-0.1,0.6-0.1
		s0.4,0,0.6,0.1c0.2,0.1,0.3,0.2,0.5,0.3c0.1,0.1,0.3,0.3,0.3,0.5C352.9,670.2,352.9,670.4,352.9,670.6z"/>
	<path d="M363.1,676.5c-0.1,0.2-0.2,0.3-0.4,0.3c-0.1,0-0.3,0-0.4-0.1c-0.2-0.1-0.3-0.2-0.6-0.3c-0.2-0.1-0.5-0.2-0.8-0.3
		c-0.3-0.1-0.7-0.1-1.1-0.1c-0.4,0-0.7,0-1,0.1s-0.5,0.2-0.7,0.4c-0.2,0.2-0.4,0.3-0.5,0.6c-0.1,0.2-0.2,0.4-0.2,0.7
		c0,0.3,0.1,0.6,0.3,0.8c0.2,0.2,0.4,0.4,0.7,0.5c0.3,0.2,0.6,0.3,1,0.4c0.4,0.1,0.8,0.2,1.2,0.4c0.4,0.1,0.8,0.3,1.2,0.4
		s0.7,0.4,1,0.6s0.5,0.5,0.7,0.9c0.2,0.3,0.3,0.8,0.3,1.3c0,0.6-0.1,1.1-0.3,1.6c-0.2,0.5-0.5,0.9-0.9,1.2c-0.4,0.3-0.9,0.6-1.4,0.8
		c-0.6,0.2-1.2,0.3-2,0.3c-0.8,0-1.6-0.1-2.3-0.4c-0.7-0.3-1.3-0.6-1.8-1.1l0.5-0.8c0.1-0.1,0.1-0.2,0.2-0.2
		c0.1-0.1,0.2-0.1,0.3-0.1c0.1,0,0.3,0.1,0.5,0.2c0.2,0.1,0.4,0.2,0.6,0.4c0.2,0.1,0.5,0.3,0.8,0.4c0.3,0.1,0.7,0.2,1.2,0.2
		c0.4,0,0.8-0.1,1.1-0.2c0.3-0.1,0.6-0.3,0.8-0.4c0.2-0.2,0.4-0.4,0.5-0.6c0.1-0.2,0.1-0.5,0.1-0.8c0-0.3-0.1-0.6-0.3-0.8
		c-0.2-0.2-0.4-0.4-0.7-0.6s-0.6-0.3-1-0.4s-0.8-0.2-1.2-0.4c-0.4-0.1-0.8-0.3-1.2-0.4c-0.4-0.2-0.7-0.4-1-0.6s-0.5-0.6-0.7-0.9
		s-0.3-0.8-0.3-1.3c0-0.5,0.1-0.9,0.3-1.3c0.2-0.4,0.5-0.8,0.8-1.1c0.4-0.3,0.8-0.6,1.4-0.8c0.5-0.2,1.1-0.3,1.8-0.3
		c0.8,0,1.5,0.1,2.2,0.4c0.6,0.3,1.2,0.6,1.7,1L363.1,676.5z"/>
	<path d="M365.2,670.9c0.2-0.2,0.5-0.5,0.8-0.7c0.3-0.2,0.6-0.4,1-0.6c0.4-0.2,0.7-0.3,1.2-0.4s0.9-0.1,1.3-0.1
		c0.6,0,1.2,0.1,1.8,0.3c0.5,0.2,1,0.4,1.4,0.8c0.4,0.3,0.7,0.7,0.9,1.2c0.2,0.5,0.3,1,0.3,1.6c0,0.6-0.1,1.1-0.3,1.6
		c-0.2,0.4-0.4,0.8-0.7,1.2s-0.6,0.6-0.9,0.9c-0.3,0.2-0.6,0.5-0.9,0.7s-0.5,0.4-0.7,0.6c-0.2,0.2-0.3,0.5-0.4,0.7l-0.2,1.8h-1.5
		l-0.1-2v-0.1c0-0.3,0.1-0.6,0.3-0.9c0.2-0.3,0.4-0.5,0.7-0.7c0.3-0.2,0.6-0.5,0.9-0.7c0.3-0.2,0.6-0.5,0.9-0.8
		c0.3-0.3,0.5-0.6,0.7-0.9c0.2-0.4,0.3-0.8,0.3-1.2c0-0.3-0.1-0.7-0.2-0.9c-0.1-0.3-0.3-0.5-0.6-0.7c-0.2-0.2-0.5-0.3-0.8-0.5
		c-0.3-0.1-0.7-0.2-1-0.2c-0.5,0-0.9,0.1-1.3,0.2c-0.3,0.1-0.6,0.3-0.9,0.4c-0.2,0.1-0.4,0.3-0.6,0.4c-0.1,0.1-0.3,0.2-0.4,0.2
		c-0.2,0-0.4-0.1-0.5-0.3L365.2,670.9z M367.6,685.3c0-0.2,0-0.4,0.1-0.6c0.1-0.2,0.2-0.3,0.3-0.5c0.1-0.1,0.3-0.2,0.5-0.3
		c0.2-0.1,0.4-0.1,0.6-0.1s0.4,0,0.6,0.1s0.3,0.2,0.5,0.3c0.1,0.1,0.2,0.3,0.3,0.5c0.1,0.2,0.1,0.4,0.1,0.6c0,0.2,0,0.4-0.1,0.6
		c-0.1,0.2-0.2,0.3-0.3,0.5c-0.1,0.1-0.3,0.2-0.5,0.3c-0.2,0.1-0.4,0.1-0.6,0.1s-0.4,0-0.6-0.1c-0.2-0.1-0.3-0.2-0.5-0.3
		c-0.1-0.1-0.2-0.3-0.3-0.5C367.6,685.7,367.6,685.5,367.6,685.3z"/>
</g>
<g>
</g>
<g>
</g>
<g>
</g>
<g>
</g>
<g>
</g>
<g>
</g>
<g>
</g>
<g>
</g>
<g>
</g>
<g>
</g>
<g>
</g>
<g>
</g>
<g>
</g>
<g>
</g>
<g>
</g>
<g>
</g>
</svg>
