<svg xmlns="http://www.w3.org/2000/svg" viewBox="0 0 1366 768"><title>slide-3</title><g id="content"><path d="M486.53,282.74c-36.61,11.16-64.43,41.92-71.16,79.71-6.28,35.32,6.42,80,42.17,94.9,9.24,3.85,19.21,5.49,29.14,6.32a201.06,201.06,0,0,0,32.92.41c18.6-1.51,36.1-8.09,50.57-20,27.2-22.34,43.19-63.61,26.16-96.76-4.93-9.59-12.73-17.25-20.79-24.23-9.13-7.9-18.36-15.85-28.31-22.69-18.57-12.77-41.63-21.79-64.17-15-3.57,1.07,1.17,8.62,4.19,7.7,19-5.74,38.6.22,54.92,10.51a209.6,209.6,0,0,1,22.7,17.1c7.08,5.94,14.57,11.8,20.51,18.93,22.67,27.22,8.35,69.06-14.24,91.48a86,86,0,0,1-40,22.79c-18.83,4.55-40.09,3.87-59.1.58-18-3.11-32.64-12.16-41.57-28.31-8.6-15.55-11.29-34-9.48-51.58,4.08-39.34,32-72.68,69.76-84.18,3.57-1.09-1.17-8.63-4.19-7.71Z"/><path d="M448.32,345.85c2,1.95,4.4,3.83,6.23,6,2.1,2.48,1,4.08.7,7.26a34.09,34.09,0,0,0,1.8,13.55,41.63,41.63,0,0,0,16.4,21.18c15.92,10.42,37.72,9.33,53.18-1.44,7.21-5,13.23-12.3,15.8-20.78a37.81,37.81,0,0,0,1.37-12.34c-.14-6.56,3-10.23,5.83-15.77,3.7-7.29-1.07-14.69-9.42-12.6-4.1,1-7.63,3.45-11.19,5.63-5.17,3.16-10.07,4.94-16.22,4.55-6-.37-11.85-1.94-17.87-2-6.57-.07-12.67,2.66-19.17,2.77-10.86.19-18.57-10.39-29.83-8.68-3.49.53,1,8.2,4.19,7.71,8.34-1.27,15.19,5.73,22.85,7.88,9.38,2.65,18.52-2.56,28-1.83,8.86.69,17.92,3.74,26.6.4a59,59,0,0,0,9.32-5.12,34.75,34.75,0,0,1,5.58-3,17.52,17.52,0,0,0,2.61-.77q2.66.1.15-1.33c-.92-1.55-1.54-1.48-1.84.22-2.3,2-4.59,7.43-5.5,10.34-1.34,4.27-.31,8.71-.79,13.08-.88,8.14-5.42,15.45-11.4,20.88C513,393.15,493,397.17,477.29,389.46c-9.71-4.78-16.22-14.63-15.4-25.64.31-4.24,1.7-7.78-.65-11.73-2.53-4.25-7.09-7.59-10.62-11-4.34-4.18-5.49,1.66-2.3,4.73Z"/><path d="M476.63,449.71c2.9-4.49.25-10.31-3.28-13.66-4.43-4.22-10.92-5-16.1-8a38.62,38.62,0,0,1-13.68-13.29c-2.29-3.76-8.17-14.73-3.46-18.31l-4.65-2.14a117.91,117.91,0,0,0,31.47,30.6c4.15,2.71,10.53,7.2,15.1,2.84,5-4.76,1-11.86,1-17.4.12-7.42,8.47-10.44,14.72-11.11a20.87,20.87,0,0,1,10,.95c4.17,1.72,4.84,5.54,5.1,9.57.46,6.93-.22,13.74,1,20.65a67.26,67.26,0,0,0,2.93,11.06c.59,1.63,4.87,9.39,3.59,10.28-2.72,1.86,2.6,9.12,5.41,7.18,5-3.46-1.54-12.53-2.92-16.36-3.09-8.64-3.16-17-3.29-26-.18-13.76-7.44-25.14-22.31-25.19-6.11,0-13.2,1.54-17.55,6.17a12.3,12.3,0,0,0-3.38,8.51c-.05,3.72,2,7.38,1.54,11.06-.8,6.7-6.49,4.14-10.32,1.65a101.22,101.22,0,0,1-11.15-8.39,106.48,106.48,0,0,1-17.06-19c-.79-1.12-3.13-3.29-4.65-2.13-4.54,3.46-2.75,10.11-1.39,14.78a52,52,0,0,0,8.15,16.26,53.24,53.24,0,0,0,13.13,12.63,47.39,47.39,0,0,0,8.53,4.6c2.72,1.11,9.83,2.08,7.27,6.05-1.7,2.63,4.22,9.3,6.25,6.15Z"/><path d="M471.18,445.76c-1,4.72,2.89,10.47,7.3,12a2.27,2.27,0,0,0,2.16,0,2.19,2.19,0,0,0,.58-2.09c-.33-1.9-1.9-4.4-3.83-5.08-.19-.07-.39-.17-.59-.23.32.09.34.29,0,0a7.11,7.11,0,0,1,.71.74c-.52-.69.32.58,0,.08s.32.67.07.12.33.38,0,0c-.15-.19,0,.14,0-.1a6.66,6.66,0,0,1,.11-.78c.4-1.94-1.5-4.45-3-5.45s-3.2-1.31-3.62.72Z"/><path d="M493.73,368.67c2.77-2.12,5.1-4.75,4.46-8.5-.56-3.25-3.11-6.74-6.37-7.64-8.25-2.27-11,11-9.44,16.6,1.85,6.64,8.84,13.43,16.12,10.46S508,366,505.92,359.21c-.81-2.71-2.92-5.77-5.8-6.53-3.74-1-5.95,2.28-7.25,5.33-3.06,7.18-2.62,16,3.72,21.27,12.16,10.14,24.33-22.39,7.84-27.75-7.54-2.45-11.54,9.59-11.49,15.1.06,6.56,3.66,15.08,10.68,16.84,8.38,2.1,13.34-6.48,13.22-13.65-.11-6-2.05-17.55-9.82-18.27s-11.86,9.95-12.23,16.06c-.4,6.61,2.24,16.66,9.56,18.71,8.22,2.29,12.09-8.18,12.16-14.48.07-7.65-3.64-17.47-10.69-21.32s-14.63,3.94-17.67,9.8c-3.39,6.54-4,15.69,2.48,20.57,6.27,4.72,13.08.14,15.37-6.3,2.49-7,2.12-15.19-3.5-20.62a13.23,13.23,0,0,0-19.23,1c-4.72,5.39-7.23,15.5-5.14,22.47,1.87,6.24,8.78,11.9,15.07,7.46,6.85-4.84,3.5-14.63-.34-20.24s-11.33-9-14.8-.95c-2.94,6.85-.84,16.09,5.5,20.3,7.05,4.69,12.11-1.35,13.8-8,2.1-8.22.54-17.94-7.55-22.39-7.57-4.17-14.33,2.38-17.89,8.75a15.39,15.39,0,0,0,4.36,20.15c6.46,4.58,14.11.28,15.31-7.22,1.14-7.16-2.06-17.38-8.34-21.51-6.87-4.51-14.73.42-15.79,8.07-.84,6,3.08,14.75,10.16,14.49,7.94-.28,10.5-10.64,9-16.9-1.63-6.84-7.63-13.1-14.92-13.46s-12.39,6.7-10.68,13.66c1.27,5.11,8.63,13.47,14,8,4.77-4.78.88-13.41-3-17.31-2.12-2.14-5.26-4.17-8.44-3.69a6,6,0,0,0-5.18,7.05c.81,4.9,7.9,10.78,11.86,5.67.68-.87-.08-2.76-.53-3.53a63.22,63.22,0,0,0-16.42-18.43c-3.15-2.38-4.11,1-2.9,3.53a26.59,26.59,0,0,0,7.47,9.05c3.58,2.95,9.92,6.23,7.43,11.73l6.42,4.59-1.27-5.27c-.42-1.77-3.48-7.06-6-5.1-5.24,4.08-4.23,14.6,3,16.29,2.76.65,5-1.38,5.33-4.08.47-3.91-2.44-7.34-4.88-10-1-1.11-3.2-2.32-4.28-.71a11.27,11.27,0,0,0-.86,12c1.35,2.45,5.17,6.74,8.44,5.08,2.82-1.43,2.39-6.61,2-9.17a12.21,12.21,0,0,0-6.81-9.14,1.87,1.87,0,0,0-2.59.49c-3.84,6.9-1.13,19.62,8.73,19.39,9-.21,4.51-12-.65-14.58-.48-.24-1.7-.54-2.16,0-5.61,6.24-3.94,16.4,2.75,21.37,2.76,2,5.49,2.1,7.29-1.06,2.64-4.65,2-10.65.2-15.42-.67-1.78-2.81-4.82-5.14-4.41-10.05,1.77-3.69,23,4.47,18.34,8.85-5.08-2.74-22.2-11.27-15.13-3.91,3.24-2.23,9.17,1.12,12.11s8.66,2,9-2.91c.35-4.38-4.27-9.12-8.6-9-5.39.14-6.21,5.71-4.37,9.77,1.53,3.4,8.77,10.49,12,5.05,3.08-5.23-3.72-10.76-7.81-12.42-.51-.2-1.67-.56-2.16,0-3,3.32-5.07,6.78-3,11.21,1.26,2.76,4.65,6.55,8.1,6,8-1.35,1.81-16.57-5.17-15.94-8.31.75-2.7,13.73,3.6,14.16a5.81,5.81,0,0,0,6.3-6.41c-.27-4.47-3.82-8.34-7.73-10.07-.49-.22-1.68-.56-2.16,0-3.1,3.47-4.31,7.41-2,11.72,1.62,3.05,5.28,6.47,9,5.36,3.47-1,4.71-5.18,4.07-8.42-1-4.93-5-8.49-8.75-11.41-.68-.52-2.22-1.27-3-.51a8.66,8.66,0,0,0-2.86,5.52c-.45,2.88,5.63,9.08,6.63,4.73,1.18-5.08-1.64-9.46-5.44-12.58a2.72,2.72,0,0,0-3-.52c-3.77,2.43-1.41,7.86.77,10.63,3.2,4.07,8.6,6.35,13.68,6.59,4.39.21,10.54-1.13,13-5.24,2.27-3.81.1-8.08-3.22-10.39-.71-.5-2.17-1.28-3-.51a7.89,7.89,0,0,0-2,9c.89,2.46,3.65,6.89,6.92,6,6.32-1.77-.74-14.15-7.05-10.78s-2.68,15.62,2,18.93c2.74,1.93,6.3,2.1,8.45-.84,2.87-3.91.72-9-1.26-12.73-.51-1-3.7-4.88-5.29-3.14-3.58,3.9-6.84,8.86-3.19,13.81,2.13,2.89,7.26,5.28,9.91,1.62,6-8.23-14.7-20-15.05-4.81-.22,9.8,14.57,20,20.53,8.77,2.29-4.28.3-10-3.92-12.36-4.85-2.68-7.72,2.17-8.48,6.39h4.47c-2.75-3.11-7.41-7.61-12-5.73-3.93,1.62-4.23,6.24-2.24,9.47s6.21,5.76,9.48,2.85c3.94-3.51.7-9.59-1.95-12.72-.68-.81-4.09-4.07-5.07-1.61-2.74,6.85,3.75,15.4,11,14.86.71-.05,1.18-.87,1.23-1.49.38-5.31-3-11.06-8.19-12.77a7.49,7.49,0,0,0-10,7.22c.16,4,4,10.05,8.62,9.65,5.46-.48,4.57-7.37,2.08-10.44s-8.42-4.88-10.1.08c-1.56,4.55,3.18,9.27,7,10.66,5.9,2.12,13.8.25,19.62-1.37a61.91,61.91,0,0,0,19.8-9.66c3-2.16-2.43-7.48-4.81-7.45-8.17.13-9.37,8.7-3.81,13.52,6.55,5.69,13.25-2.93,13.47-9.37.07-2-2.68-7.27-5.41-6.22-3.23,1.25-6.14,2.95-6,6.8a9.43,9.43,0,0,0,5.43,7.95c2.57,1,4.81-.2,5.06-3,.28-3.17-2.16-6.13-4.89-7.38-4.67-2.12-1.72,5.88,1.09,7.15l.72.33L516,379.74l.32.69-.72-2.82c-.25,7,4.71,1.78,6.33,1.15l-5.41-6.22a8.86,8.86,0,0,1-3.55,7.23l-1.89,1,2.33,1.31c.86,0,3-1.2,4.28-1.22l-4.81-7.44a57.58,57.58,0,0,1-22.59,10.09,81,81,0,0,1-11.62,1,6.4,6.4,0,0,1-1.92-.45q4.54,3.82.09-.88c-.35,2.33,6.12-3.25,5.94-.71L484,381l-.58-1-5.07-1.62c1.12,1.8.83,2.9-.86,3.32q1.68,4.63,3.37,2.37,1.31-1.79,3.76.07c.71.69,1.39,1.42,2,2.18,1.15,1.3,4,2.54,4.47,0,.27-1.54,1.08-4.64,3.32-3.95l-2.51-1.48c-.68-.6-7.73,8.15-9,1.93a3.62,3.62,0,0,1,1.13-2.49,2.12,2.12,0,0,0,.52-2.73q2,4.56,2.94,1.07a15.7,15.7,0,0,1,2.53-3.31l-5.3-3.14q2.63,3.75-.42,6.08,0,1.26,0-.15c-.41-1.47.63-5.91,2.7-4.77l-3.13-3.12.41.81-.72-2.82-.06.76,3.3,2.38a3.93,3.93,0,0,1,1.5-2.45l-3-.51-1.16-1.32-.72-2.82c.1,3.54-4.17,5.05-7.06,5.61a14.49,14.49,0,0,1-5.13.1c-.28,0-5.36-1.33-4.11-2.13l-3-.52a2.44,2.44,0,0,0-.57,1.7l6.63,4.73a4,4,0,0,1,1.65-3.07l-3-.51a3.46,3.46,0,0,1,1.95,2.5,1.76,1.76,0,0,1-.09,2.92l-1.24.72a3.18,3.18,0,0,0,3.11-2.36l-2.16,0a3.46,3.46,0,0,1-2.36,1.6q1.17,3.94,2.57,1.39-2.68-2.88-.14,1a12.42,12.42,0,0,1,2.19-2.86l-2.16,0q2,1.23.54-.6,3-1.26-.3-3.36c.87,3,1.77,3.5,2.72,1.41a4.14,4.14,0,0,1,2.43-1.06c-.36-1-.64-.76-.84.8q2,6,1.47,1.89c.6-1.85,0-3.88,2.53-4.32l-5.14-4.41c.33.9,1.9,11-.57,10.63-1.86-.24.94-6.24,1.82-7.22l-2.16,0c-1.13-2.67-2-2.95-2.51-.85-1.1,1-1.77,1.09-2,.24-1-1,1.08-4.27,1.6-5.19l-2.59.5c-.93-1.51-1.16-1.34-.7.49a18.42,18.42,0,0,1-.17,2.34c1.34,4.8,2.32-1.17,3.3-2.62l-4.28-.71-.86,1.69,2.51,1.48s2.45-2.74,2.65-2.9l-6-5.1,1.26,5.26c.34,1.43,4.79,8.18,6.42,4.59,2.31-5.12.34-10.52-2.86-14.82-3.65-4.89-10.51-7.55-13.12-13l-2.9,3.54a45.39,45.39,0,0,1,11.85,13.18l-.53-3.53L466,355.2c1.55-1.19,3-.91,4.23.82a5.55,5.55,0,0,1,.08,2.86c-.26,1.13-.86,2.51-2.2,2.5-1.7,0-.68-2.13-.14-3.27,2.43-5.11,11.27-6.41,12.43.27a10.51,10.51,0,0,1-2.68,8.28c-3.16,3.28-4.8,1.76-3-2.25,1-2.24,4.24-5.71,7.13-4.53s3.38,6.61,3.24,9.18c-.15,2.91-1.56,5.94-4.29,7.28-5.7,2.8-4.23-4.65-3-7.08,2.05-4.18,12.24-15.44,13.82-4.81.4,2.7-1.34,14.21-6.21,13.59-5.82-.74,1.7-18.87,4.68-7.75.76,2.83.22,5.73-2.32,7.46-3.09,2.12-3.76.54-3.57-2.34.38-5.53,2.26-12.35,7.11-15.6,1.8-1.21,4.58-2.29,6.83-1.79,3.22.73,2.9,3.59,2.57,6.35a17.71,17.71,0,0,1-2.4,7.19c-1.13,1.76-5.35,5.69-6,1.75-.7-4.45,3.9-10.43,7-13,1.79-1.52,5.09-4.19,7.46-2.47s3,7.09,3,9.73a14.3,14.3,0,0,1-1.87,7.63c-2,3.2-5.1,4.92-6.36.59-1.75-6,2.16-11.7,5.95-15.64,0,0,4.29-1.63,1.16-2.35.51.12,1.05,4.18,1.17,5,.56,3.68.53,7.77-2.16,10.66-2.24,2.42-6.1,4-7.78.12-1.15-2.65-.11-6.53,1-9a13.87,13.87,0,0,1,2.11-3.29c1.7-2,2.52-2.58,2.9.36.31,2.42-1.55,5.54-2.78,7.54-2.11,3.45-6.26,6.88-5.48.21.26-2.25,1.86-9.62,5.14-8.94l-2.51-1.47c-.59-1.43-.79-1.48-.61-.16a21.38,21.38,0,0,1,0,2.53,19,19,0,0,1-.71,4.3c-.88,2.95-3,6.22-6.27,6.88-5.72,1.14-4.14-6.65-2.51-9.41.36-.62,4.63-4.07,1.26-4.83a34.76,34.76,0,0,1-3.15,3.28c-2.66,2,2.75,9.23,5.42,7.19Z"/><path d="M524.16,384.5a10.87,10.87,0,0,1-.31-7.52c.63-2-.59-4.08-2-5.44-.73-.71-3.66-2.68-4.28-.71a18.19,18.19,0,0,0,.48,12.57c.72,1.79,2.3,4.11,4.4,4.39s2.27-1.83,1.68-3.29Z"/><path d="M526.66,374.53a20,20,0,0,0,6.13-12.63c.22-2.09-2.75-7.17-5.41-6.22-5,1.76-8.17,5.25-5.13,10.49,2.87,4.95,8,6.18,10.42.29,2.11-5.25,2.63-12.85-1.13-17.52-4.82-6-8.78-1.24-10.83,4.11s-3.56,11.39,1.51,15.37c5.4,4.23,9.09-1.59,9.24-6.75.13-4.51-3.61-10.82-8.87-9.73-6.35,1.33-4.34,9.19-2.56,13.22.72,1.61,3.41,5.79,5.75,4.14,5.67-4-.83-14.25-6.78-13.6-3.71.4-5.69,4.07-5.37,7.48.39,4.23,3.36,7.79,6.72,10.13.95.66,2.73,1.38,3.44,0,2.57-5,4.13-13.22-3.07-15.43a4.82,4.82,0,0,0-6,2.47c-1.4,3.1.46,6.81,1.76,9.57.48,1,3.7,4.83,5.3,3.14,5.56-5.88,5.54-14.84-2.16-19.15-7.43-4.15-10.72,5.1-6.37,10.27.74.88,3.27,3.53,4.65,2.13,5.14-5.21-.31-17.94-8.05-14.59-7,3,1.56,16.71,7.5,11.94,6.21-5-3.62-16.5-9.88-14.61-3.71,1.11-2.95,5.44-1.33,8.11,2.42,4,6.14,5.1,10.58,4.6a1.38,1.38,0,0,0,1-.78,12.18,12.18,0,0,0-1-9.68c-1.13-2.09-4-6.33-7-4.91-4.83,2.28,2.09,12.23,6.48,8.76,2.45-1.93-1.49-6.32-3.25-7.17-8.83-4.3-16.88,4.12-25.6,1.36l4.49,6.92a12.09,12.09,0,0,1,10-5.79c3.39-.24-1-7.91-4.19-7.71A30.2,30.2,0,0,0,481,349c-2.66,2,2.6,9.08,5.41,7.19,8.31-5.57,20.43-10.55,30.46-6.89,3.58,1.3,6.77,3.51,10.76,3.16,4.52-.4,8.36-3.46,12.61-4.78l-4.81-7.45a51.84,51.84,0,0,0-15.75,27.36c-.43,2,3.94,8.31,6,6a37.86,37.86,0,0,0,7-11.19c1.16-2.89-4.78-9.44-6.26-6.15l-2.75,6.11c-1,2.3,3.32,8.95,5.83,6.67a23.13,23.13,0,0,0,7-11.2c.72-2.59-3.82-9.57-6.25-6.16-2.87,4-5.56,10.14-3.92,15.15.76,2.31,6.3,8.47,7.84,3.57.74-2.33-1-4.81-2.81-6.15l-.45-.34c-.64-.49-2.27-1.31-3-.52-2.05,2.15-2.89,4.51-3.82,7.27-1.27,3.75-2.58,5.49-6.18,7.27-4,2-8.12,3.73-12.17,5.6l-5.22,2.39-3.47,1.6q-4,.27-.92,3.75c2.58-2.24-2.94-9.34-5.41-7.19-3.09,2.69-.92,7.5,1.62,9.86,4.32,4,9.06,1.26,13.6-.83,6.36-2.92,14.22-5.27,19.93-9.32,4.65-3.29,3.79-9.35,7.46-13.21l-3-.52.45.34L528,364.24l.12.2,2.4.78-.62-.51,2.73,3.62c-1-3,2.31-8.19,4-10.5l-6.25-6.16a20.4,20.4,0,0,1-6.17,10.17l5.83,6.67,2.76-6.11-6.26-6.15a33.83,33.83,0,0,1-6.2,10.15l6,6a47.67,47.67,0,0,1,14.53-24.9c2.32-2.12-2-8.31-4.8-7.45-4.08,1.27-8.3,4.7-12.62,4.78-3,.06-5.78-1.94-8.49-2.89a24.68,24.68,0,0,0-7-1.4c-9.56-.56-19.18,3.31-27,8.54l5.41,7.19a27.68,27.68,0,0,1,15.5-5.76l-4.19-7.71a15.06,15.06,0,0,0-12.05,7.34c-1.62,2.55,2.39,6.26,4.49,6.92,8.06,2.55,16.55-5.5,24-1.89L510.88,348l-.08.2,2.51,1.48-.57-.54,2.17,4.73.18.07-4-2.39a4,4,0,0,0,1.21,4c1.33,1.63,1.35,1.79,0,.51l1.74,3.66c0-2.5-.51-2.69-1.52-.6l4.65,2.14c.27,1.13.59,1.26,1,.39s.63-.75,1,.17-2.33,3.65-2.71,4.05l5.3,3.14.65-3.65q-2.7-5.37-3.25-1.93c-.61.77-1.12,2.84-1.58,3.73H521c-1.49-1,2.67-7.34-.6-5.05l5.75,4.15c-1.11-2.5-1-3.34-.59-5.86,2-.68,1.66-1.32-.87-1.94a4,4,0,0,0,.13,4.19c1.38,4.15,1.4-1.41,2.18-3.44.22-.6,2.15-5.81,3.18-5.23L527,350.85c1.32,2.16.44,6.12-.23,8.31s-1.51,2.09.53,4,1.74,1.08,4.26.18l-5.41-6.21a15.93,15.93,0,0,1-4.92,10.17c-2.48,2.43,3.14,9.42,5.42,7.19Z"/><path d="M499.07,409a21.73,21.73,0,0,0-1,16.51c.4,1.31,3.89,6.15,5.75,4.14,6.27-6.78,10.52-21.47,1.08-27.89s-13.89,13.69-12,19.77c1,3.23,4.33,8.24,8.32,8,4.86-.31,6.45-9,6.57-12.79.23-6.84-7.39-19.87-15.11-12.37-3.72,3.61-5.27,9.83-3.2,14.62,1.66,3.85,6.07,8.67,10.8,7.65,9.48-2,3-16.21-4.58-16.39-10.36-.26-5.82,14.34,1.22,16.42,8.6,2.54,5-15.52-3.08-16.22-11.42-1-1.13,19.35,5.82,10.36,3-3.89-.07-11.9-3.65-14.5-5.67-4.13-7.7,3.8-9.32,7.84-.9,2.25,3.72,9.21,5.84,6.67,4-4.75,2.11-10.48-1.89-14.58-.77-.79-2.71-2.18-3.86-1.23a7.22,7.22,0,0,0-2.37,3.21c-1.06,2.7,3.91,9.39,6.25,6.15a8.84,8.84,0,0,0,1.37-7.79c-.59-2.37-3.07-6.35-6-5.11a7,7,0,0,0-.47,12.79c2.35,1.11,4,.8,5.86-1,2.56-2.4,4.27-4.59,7.46-6.28.14-.08,4.39-2,3.29-2.22.94.19,2.06,4.54,2.49,5.69A64,64,0,0,1,508,423.67c.3,2.06,5.95,8.36,6.61,3.88a43.6,43.6,0,0,0-2.81-22.92c-.84-2.1-6.69-7.36-6.33-2.06l1.65,23.63c.16,2.27,5.89,8.21,6.61,3.87a58,58,0,0,0,.78-10.94,6.9,6.9,0,0,0-3-5.44c-1.11-.69-3.58-1.48-3.63.71a82.94,82.94,0,0,0,4,27.35c.74,2.31,7.06,7.13,6.33,2.06l-1.41-9.87c-.3-2.07-5.94-8.35-6.61-3.87a43.58,43.58,0,0,0,2.52,22.23l5.63.1c-2.43-4.17-3.15-8.74-3.87-13.45-.22-1.48-5.18-8.14-6.41-4.58-2.44,7.08-.9,13.78,3.24,19.86,1,1.53,4.59,4,5.26.9a55.26,55.26,0,0,0,.27-22c-.53-2.85-7.27-8.23-6.57-3a83.3,83.3,0,0,0,4.16,17.11l5.63.1a25,25,0,0,1-2.74-6c-.51-1.61-5.91-7.18-6.37-2.91-.75,7.08,1.33,13.45,5.48,19.17,1,1.4,4.68,4.11,5.25.9.5-2.76-.12-4.75-1.35-7.24-.84-1.71-5.12-5.53-5.9-1.91l-.52,2.39,6.61,3.87A46.44,46.44,0,0,0,511,433c-.92-1.2-3.72-3.74-5.07-1.61a15.59,15.59,0,0,0-2.17,11c.42,2.88,6.83,8.35,6.57,3a62.41,62.41,0,0,0-3.16-16.62c-.41-1.22-5.18-6.87-6.17-3.62a33.13,33.13,0,0,0,1.33,23.61c.75,1.7,5.23,7.13,6.36,2.91a56,56,0,0,0,1.15-23.46c-.23-1.46-5.26-8.17-6.42-4.59A68.28,68.28,0,0,0,500.3,439l6.6,3.88a101.16,101.16,0,0,0-3.92-13.1c-.6-1.6-4.42-6.57-6.17-3.63a23.74,23.74,0,0,0-2.69,18c.41,1.77,6.09,8.53,6.6,3.88a113.66,113.66,0,0,0,0-25c-.2-1.82-4.58-7.84-6.41-4.58a31.54,31.54,0,0,0-3.95,17.32c.1,2.35,5.92,8.16,6.61,3.88a38.7,38.7,0,0,0-1.16-17c-.4-1.43-4.89-6.73-6.17-3.63a39.45,39.45,0,0,0-3.08,15.87c0,2.49,5.74,9.38,6.63,4.73a38.89,38.89,0,0,0-.26-16.22c-.37-1.68-4.44-7.95-6.41-4.59a18.43,18.43,0,0,0-2.65,10.13c0,1.82,5.15,9.2,6.45,5.44a18.71,18.71,0,0,0-.35-13.65c-.56-1.41-4.63-6.74-6.17-3.63a29.77,29.77,0,0,0-3,15.76c.12,1.7,5,8,6.41,4.58a30.16,30.16,0,0,0,1.44-18.83c-.3-1.25-5.2-8.29-6.41-4.58A33.71,33.71,0,0,0,481,430.58c.34,2,5.93,8.41,6.61,3.87l1.72-11.53-6.63-4.73a24.73,24.73,0,0,0,1.17,10.28c1.07,3.38,7.86,6.71,6.09,1.1a15.8,15.8,0,0,1-.63-6.65c.27-2.88-6-9.07-6.63-4.73L481,429.72l6.61,3.88a27.17,27.17,0,0,1,.93-13.48l-6.41-4.58A24.7,24.7,0,0,1,481,431.23l6.41,4.58a23.81,23.81,0,0,1,2.65-12.61l-6.17-3.63a11.48,11.48,0,0,1,.17,8.6l6.45,5.44a15.62,15.62,0,0,1,2.26-8.7l-6.41-4.59a34.62,34.62,0,0,1,.2,14.51l6.63,4.73a35.75,35.75,0,0,1,2.7-14.44l-6.17-3.63a30.25,30.25,0,0,1,.61,13.35l6.61,3.87a26.28,26.28,0,0,1,3.62-14.19l-6.41-4.58a106.06,106.06,0,0,1-.07,23.29l6.6,3.87a19.23,19.23,0,0,1,2.38-14.83l-6.17-3.63a89.2,89.2,0,0,1,3.43,11.19,7.33,7.33,0,0,0,3.4,4.84c1.2.61,3,.94,3.2-1a61.78,61.78,0,0,1,2.74-13.86l-6.42-4.59A51.53,51.53,0,0,1,502,447l6.36,2.92a26,26,0,0,1-1.16-18.56l-6.17-3.63a54.61,54.61,0,0,1,2.68,14.71l6.57,3a11,11,0,0,1,1.86-7.89l-5.07-1.62a33.45,33.45,0,0,1,6.76,16.61c.28,2.15,5.65,8.3,6.61,3.87L521,454l-5.91-1.91-.1,1.6,5.26.91a15.8,15.8,0,0,1-2.72-11.52l-6.36-2.92a34.56,34.56,0,0,0,3.65,8c1.5,2.43,7.56,5.51,5.63.1a74.13,74.13,0,0,1-3.67-15.19l-6.57-3a50.8,50.8,0,0,1-.34,20.33l5.26.91c-2.19-3.21-2.09-7.24-.87-10.79l-6.41-4.58c.92,6.1,2.12,12,5.26,17.37,1.48,2.53,7.66,5.38,5.63.09a36,36,0,0,1-2-18.6l-6.61-3.88,1.42,9.87,6.33,2.06a71.72,71.72,0,0,1-3.43-23.72l-6.64-4.73a58.09,58.09,0,0,1-.78,10.94l6.61,3.87L512,405.59l-6.33-2.06a36.13,36.13,0,0,1,2.25,19.29l6.6,3.87c-1.24-8.52-3.61-20.85-10.23-27-2.81-2.61-5.38-2.49-8.72-.94a26.75,26.75,0,0,0-6,3.54c-.8.68-4.08,5.29-5.06,4.82l3.86,5.94c0-2.34,1.08-3.52,3.11-4.39l-6-5.1a4.83,4.83,0,0,1-1,4.66l6.25,6.15a3.34,3.34,0,0,1,1.53-2.17L488.36,411a8.13,8.13,0,0,1-1.22,2.66l5.84,6.67c.45-1.12,2.22-7.54,3.69-7.43l-2.51-1.47q-1.4-2.67-.09.95c.06,1.48-.46,2.38-1.57,2.7l2.73,3.63c.83,0,1-.31.45-.95-.3-1-.39-.95-.29.12-.28,1,.19,1.32,1.4,1l1.31-.75c1.64.22,1.9,0,.78-.65q-1-1.4-1.47.75c-1.25.26-1.74,1.16-2.09-1-.22-1.27,3.76-8.86,5.9-7.22,1,.74-1.07,7.36-1.29,8-.58,1.58-1.25,2.45-.93,4.29a13.55,13.55,0,0,1,.51-5.18,17.89,17.89,0,0,1,1.55-4.19c.64-1.23,2.59-2.82,2.78-3.89.11-.65-.24-4.16-.17.55a17.23,17.23,0,0,1-.55,4.29,18.91,18.91,0,0,1-4.71,8.61l5.75,4.15a15.06,15.06,0,0,1,1.16-11.46c1.4-2.88-4.69-9.38-6.25-6.15Z"/><path d="M486.87,442.91a13.13,13.13,0,0,0-.64,4.36c.08,2.21,3.9,8.73,6.44,5.44,2.84-3.66.25-9.38-3.5-11.38-4-2.12-6.93,1.29-5.79,5.29s6.45,7.79,9.7,3.77c3-3.66.31-9.31-3.09-11.66s-8.52-1.87-9.33,2.75c-.73,4.17,3.25,10.13,7.6,10.6,8.53.92,2.78-19.59-7.28-13.9-9.38,5.3,4.8,21.81,9.75,14.23,5.69-8.72-12.33-21.22-15.19-10-1.08,4.27,2.31,9.4,6.48,10.54,4.62,1.28,7.56-2.51,5.89-6.82-1.25-3.23-6.3-8.33-10-5.34s-1.14,9.67,1.66,12.28c3.59,3.36,10.58,2.76,8.88-3.43-1-3.73-6.6-9.3-10-4.69-3.22,4.32,1.36,10.93,5.68,12.24,6.46,1.94,9.34-4.54,8.53-10-.3-2-2.37-5.12-4.64-5.35-9.45-.92-7.51,10.5-1.67,14.1,7.42,4.58,11.63-4,8-10.05-.89-1.47-5.24-5.71-5.91-1.91-.93,5.23,4.6,13.31,10.61,11.75,6.71-1.74,3.71-10.26.56-13.66-.76-.81-2.72-2.16-3.86-1.23-5,4-1.74,11.91,3,14.74,6.24,3.75,11-3,9.13-8.78-.59-1.79-4.3-6.39-6.17-3.63-4.78,7,8.19,18.08,11.83,9,1-2.39-3-8.73-5.83-6.67-4.39,3.19.93,10,4.8,10.81l-4.07-7.44c-2,2.42-6.5,2.07-9.31,2.22a67.18,67.18,0,0,1-12.83-.61c-3.29-.45-1.54,4-.58,5.3,2.89,3.92,8,6.92,12.89,4.78s5.33-8,3.37-12.44a13.64,13.64,0,0,0-5-6c-3-1.88-6.3-1.91-9-4.26-4.06-3.49-6.86-8.09-12.88-7.51l5.13,4.4-1.25-3c-.86-2.11-2.65-4.42-5.14-4.41-3.75,0-4.17,3.64-3.39,6.52l2.5-3-19.55-10.23,1.9,7.42,3.9.52c1.51.2,2.1-1,1.92-2.33a15.7,15.7,0,0,0-5.05-9.62c-.88-.84-3.42-2.58-4.28-.71s-.67,2.95-.14,5l4.2-1.82-2.67-2.73c-.93-1-3.32-2.47-4.28-.72a3.11,3.11,0,0,1-2.79-3.05,16.8,16.8,0,0,1-.65-4l-5.23-.05a16.93,16.93,0,0,1,3.68,7.41c.58,2.63,6.83,8.51,6.57,3a24.81,24.81,0,0,0-10.74-18.86c-3.86-2.76-4.11,2.17-2.25,4.54,6,7.66,12.91,15.5,21,21.06,3.83,2.63,8,3.44,12.38,4.73A69.84,69.84,0,0,1,487,437.6c5,3,3.7-4.3.62-6.15-8.06-4.84-16.2-7.13-25-10.15-8.51-2.94-15.95-12.68-21.34-19.54l-2.25,4.54c3.41,2.43,4.6,5.6,4.79,9.69l6.57,3A30.94,30.94,0,0,0,444,405.66c-1.39-1.7-5.59-4.11-5.22,0,.5,5.53,2.67,11.67,6.9,15.49,2.51,2.26,7.27,4.56,9.37.71l-4.28-.71,2.66,2.73c2.27,2.33,5.1,1.67,4.2-1.81l-.34-1.29.09,2.53.56-1.21-4.28-.71.78,1.87,1.93-2.33-3.9-.52c-4.65-.62.27,6.56,1.9,7.41L474,438c2.49,1.3,3-1.23,2.5-3l1.49.09-5.13-4.41,1.25,3.05c.79,1.92,2.71,4.64,5.14,4.4,3.85-.36,7.61,6.3,10.9,8.16a15.49,15.49,0,0,0,2.28,1c2.08.81,4.4.47,3.86,3.17-.4,2-5,4.68-6.69,2.44l-.58,5.3a76.09,76.09,0,0,0,14.31.64c3.27-.18,8.24.07,10.53-2.74,2-2.52-1.44-6.9-4.07-7.43l-.75-.16,2.51,1.48,1.57,2.74-5.83-6.67a1.82,1.82,0,0,0-.38,2.8c.17,1.6.52,1.76,1.05.5l-6.17-3.62c.41,1.24-1.24,2-1.71,2.83l-.17,1.85a2.52,2.52,0,0,1,1.27-2.35l-3.86-1.23c-.64-1.52-1.05-1.48-1.21.12a1.67,1.67,0,0,0-1,1.79l-5.91-1.91c.74,1.24-.94,1.52-1.09,2.15-1,.34-1.05.63-.14.88q1.29,1,2.82-.3l-4.65-5.35a5.06,5.06,0,0,1-.49,3.88,2.91,2.91,0,0,0-1.39,3.83,8.17,8.17,0,0,0-3.58-6.48c.84,2.39,1.74,2.59,2.67.58,1.7.2,2.24.51,4-.91q-3.32-2.72.8.22c-.35-1.37-1-1.74-1.91-1.09l3.14,3.12-.31-.67.72,2.82c0-1.38-2-4.68-3.32-3l6.45,5.44a7.15,7.15,0,0,1,.25-2.94c.89-3.1-5.36-9.29-6.25-6.15Z"/><path d="M680,344.67l-15.24,65.91c-2.22,9.56-3.66,19.89-7.88,28.84-1.49,3.17-4.55,9.15-8.26,10.11-4,1.05-6.55-11.07-7.3-14-.9-3.48-7.55-6.79-6.09-1.1,1.66,6.47,6.94,25.7,17,23.13,4.35-1.11,7.88-6.28,9.92-10,2.58-4.65,4-9.86,5.25-15,6.82-27.62,12.85-55.46,19.26-83.18.68-2.95-5.65-9-6.64-4.73Z"/><path d="M690.43,288.66c-6.8,4.06-7.63,12.58-4.42,19.21.69,1.42,3.39,4.46,5.3,3.14,3.78-2.6,6.88-6.06,5-10.89-1.46-3.8-5.78-8.25-10.08-6.07-2.75,1.4,2.28,8.78,5.42,7.19q-1.23-3.23-1.8-1.07a4.75,4.75,0,0,1-1.18,1.49,18.32,18.32,0,0,1-2.8,2.16l5.3,3.14c-2-4.07,1.23-9.07,4.65-11.11,2.75-1.64-2.43-9-5.42-7.19Z"/><path d="M728.31,286.27l-34.16,127.9c-.72,2.7,5.57,8.48,6.45,5.44a220.2,220.2,0,0,1,11.59-31.24q3.59-7.77,7.79-15.24c2.36-4.2,4.92-10.28,9-13.09.94-.65,2.34-1.45,3.54-1.25,1.54.25,1.15,1.17,1.17,2.89a39.52,39.52,0,0,1-.68,7.19c-.94,5.41-2.74,10.6-4.34,15.84A86.39,86.39,0,0,0,725.41,398a39.72,39.72,0,0,0-.35,7.15c.05,1.17,1.71,9.22-.76,8.81l2.51,1.48-.69-.61c-4.5-3.95-5.66,1.78-2.3,4.73,3.89,3.43,8.68,2.5,8.77-3.31.06-3.48-1.06-6.84-.87-10.38A54.9,54.9,0,0,1,734,394c3.09-10.83,11-27.2,3.81-37.91-3.07-4.58-8.72-6.74-13.67-3.65-5.27,3.3-8.38,10.89-11.26,16.11a219.1,219.1,0,0,0-18.51,44.91l6.45,5.44L735,291c.78-2.92-5.5-9-6.64-4.73Z"/><path d="M766.91,348.94a522.36,522.36,0,0,0-14,53c-.49,2.34,4.58,8.7,6.44,5.44L772.3,384.8c1.92-3.35,3.76-6.78,5.82-10.05,1-1.65,4.29-7.08,6.82-7.23,7.64-.45-3.85,41.31-5,46-.72,2.94,5.6,9,6.64,4.73,2.58-10.62,6-21.37,7.34-32.22,1-8,.74-19.77-6.35-25.16-6.89-5.24-13.25,3.55-16.46,8.93-6.18,10.34-12,20.91-18,31.36l6.44,5.44a508.89,508.89,0,0,1,13.59-51.55c1-3.08-5.24-9.32-6.25-6.15Z"/><path d="M810.05,354l-17.12,53.11c-.84,2.63,4.06,9.58,6.26,6.15l12.72-19.86c4.1-6.42,7.89-14.68,13.54-19.85,3.11-2.83,8.2-5.12,10.4.15,1.43,3.43.82,8.46.5,12.05-.67,7.69-2.05,15.34-3.15,23-.44,3,6,9,6.63,4.73,1.47-10.19,3.88-20.75,3.33-31.09-.41-7.72-3.46-18-12.36-19.53-9.37-1.58-14.55,7.86-18.79,14.48l-19.08,29.8,6.26,6.15,17.11-53.11c1-3.07-5.23-9.32-6.25-6.15Z"/><path d="M857.73,411.65q10.56-11.65,20.53-23.82c6.32-7.74,11.92-16.23,18.46-23.76,1.31-1.51.23-3.66-.77-5.06-1.38-1.94-2.74-3-5.14-3a1.4,1.4,0,0,0-1,.78c-1.16,4.06,1.48,7.39,2.65,11.25a42.32,42.32,0,0,1,1.33,17.41c-.62,4.94-2,10.24-4.67,14.47-1.23,1.91-3,4-5.45,4.27-4.42.56-6-4.39-7.19-7.68s-8.07-6.63-6.09-1.11c2.18,6.08,5.18,12.58,11.4,15.47s11.31-.47,14.26-6c3.45-6.42,4.84-14.25,4.73-21.46-.12-8-2.62-14.44-5.12-21.88l.08,2.53,0-.38-4-2.39.42.6-.77-5.06c-6.54,7.54-12.14,16-18.46,23.76q-9.95,12.18-20.52,23.82c-2.36,2.6,3.34,9.48,5.41,7.19Z"/></g></svg>