<svg xmlns="http://www.w3.org/2000/svg" viewBox="0 0 1366 768"><title>slide-4</title><g id="content"><path d="M497.16,342.44c-5.8-11-4-24.64,2.6-34.85a33.29,33.29,0,0,1,32.35-14.65A35,35,0,0,1,549,299.53c5.14,3.9,7.28,9.86,11.82,14.22,10.66,10.23,21.26-2.23,33-.59l-4.48-6.92a87.7,87.7,0,0,1-18.21,27.64c-2.37,2.43,2,7.77,4.81,7.45a29.38,29.38,0,0,0,17.91-8.65l-5.75-4.15c2.69,9.69-8.72,17.05-14.24,23-5.93,6.44-8,14.18-10.63,22.3a142.87,142.87,0,0,1-22.39,43c-21.1,27.51-54.08,45.58-89.24,44.13a87.23,87.23,0,0,1-29-6.06c-8.37-3.39-18-8.76-20.36-18.22l-1.2,2.35a168.81,168.81,0,0,0,47.36-15.34c2.8-1.38-2-7.38-4.06-7.43a47,47,0,0,1-29.72-11.11l2.4,6.67L440,402c3-1.26-2.22-7.23-4.07-7.43-16.79-1.88-32.09-10.16-42.2-23.79l.15,5.31a84.47,84.47,0,0,1,28-.91c4.43.6.08-6.62-1.91-7.41A54.09,54.09,0,0,1,386.39,314l-2,1.48c9.61,2.9,17.42,9.32,25.18,15.42s15.55,11.61,24.65,15.3A81.07,81.07,0,0,0,490.54,348c3.57-1.21-1.22-8.72-4.19-7.71a76.52,76.52,0,0,1-57.62-3.18c-16.84-8.12-28.73-23.77-47-29.28a1.55,1.55,0,0,0-2,1.47c-1.91,27.72,15.52,55.28,41.31,65.6l-1.9-7.42a89.54,89.54,0,0,0-29.44.88c-2.51.5-.62,4.27.16,5.32a70.88,70.88,0,0,0,48.8,28.55l-4.07-7.44-23.06,9.87c-2.62,1.13,1.5,5.92,2.4,6.67A53.21,53.21,0,0,0,447,424L443,416.53a164.38,164.38,0,0,1-46.14,14.81c-1.06.18-1.41,1.43-1.19,2.35,4.37,17.81,21.54,27.18,38,31.75,18.95,5.26,39.55,4.16,58.15-2,36-11.95,62.7-42.56,75.65-77.56,1.93-5.22,3.31-10.61,5.21-15.82a37.89,37.89,0,0,1,10.16-14.81c7.43-7.06,14.39-14.67,11.35-25.6-.38-1.4-3.84-6.07-5.75-4.15a27.09,27.09,0,0,1-16.68,8.13l4.8,7.45a91.19,91.19,0,0,0,19-28.68c1-2.51-1.93-6.56-4.48-6.92-7.28-1-13.25,2.76-20.1,4.37-4.07,1-6.74.69-9.39-2.71-2.23-2.87-3.85-6-6.36-8.71A43.07,43.07,0,0,0,520.86,285c-28.26,2.15-41.32,34.8-28.88,58.31,2.06,3.88,8,4.43,5.18-.91Z"/><path d="M662,340.19l-23.75,73.86-5.71,17.77c-1.63,5.06-3,10.53-5.74,15.11-3,5-8.14,7.59-13.92,6.08-3-.77-16-7.4-13.5-11.92,1.52-2.79-4.5-9.36-6.26-6.15-5.56,10.19,12.5,22.34,20.25,25.07,13.55,4.77,20.28-6.08,23.92-17.36q15.55-48.13,31-96.31c1-3.07-5.24-9.32-6.26-6.15Z"/><path d="M666.89,318.14c2.12-1.26,4.45-2.79,5.26-5.26a8.94,8.94,0,0,0-1.61-7.89c-1.58-2.15-4.26-4.22-7.1-3.56-2.44.57-4.1,3-5.22,5-1.52,2.79,4.5,9.37,6.26,6.16a5.94,5.94,0,0,1,3.37-3.53.48.48,0,0,1,.39,0,5.78,5.78,0,0,1-2.38-2.55c-.11.14,0,.42-.11.6a5.16,5.16,0,0,1-1.09,1.6,16.36,16.36,0,0,1-3.19,2.21c-2.75,1.63,2.42,9,5.42,7.19Z"/><path d="M694.56,296.5q-11.91,51.19-27,101.58l6.45,5.44c3.74-17.73,15.82-31.86,27.76-44.86a30.14,30.14,0,0,1,4.15-4.15,10.08,10.08,0,0,1,2.83-1.58q-.82-3.18-1.12.46c-1.22,4.45-2.55,8.82-3.41,13.37a113.54,113.54,0,0,0-1.6,28.75c.19,3.11,6.9,8.2,6.57,3-.89-14,1.5-26.85,5.09-40.28,1.94-7.26-4.18-16.3-12.09-12-4.29,2.34-7.56,7.07-10.76,10.67-3.57,4-7,8.17-10.24,12.51-6.54,8.87-11.53,18.54-13.82,29.37-.54,2.58,5.5,8.6,6.44,5.45q15.27-51.08,27.35-103c.68-3-5.65-9-6.64-4.73Z"/><path d="M737.27,348.51a123.31,123.31,0,0,0-15.47,51.57c-.15,2.07,4.87,9,6.44,5.44a171.82,171.82,0,0,1,24.63-40.22c2.12-2.56,4.26-5.55,7.21-7.19a6,6,0,0,1,2.54-1c-.45-.74-.57-.39-.37,1.07a30.85,30.85,0,0,1-.85,5c-1.56,8.54-3.5,17-5.72,25.4-.78,2.92,5.51,9,6.63,4.73C765,383.24,768.62,372,769,361.51c.25-6.87-5.8-14.55-13.08-11.24-4.14,1.88-7,6-9.76,9.43q-4.7,5.78-8.89,11.94A174.81,174.81,0,0,0,722,399.37l6.44,5.44a119.7,119.7,0,0,1,15.09-50.14c1.56-2.77-4.45-9.36-6.25-6.16Z"/><path d="M790.53,347l-15.61,58.23c-.74,2.75,4.88,9.62,6.26,6.15a158.53,158.53,0,0,1,25.94-43.82c2.51-3,5.13-5.88,7.87-8.65.72-.75,1.46-1.47,2.23-2.16q3.1-.68.9-2.68c.94,2.12.52,5.16.55,7.38A148.1,148.1,0,0,1,816.25,390c-.54,3,5.87,9,6.64,4.73,2.08-11.59,3.72-24.48,2.09-36.25-.49-3.47-2.08-7-5-9.11-3.66-2.63-6.87-1.11-9.81,1.8a157.82,157.82,0,0,0-35.25,54.1l6.26,6.15,15.61-58.23c.83-3.11-5.42-9.26-6.26-6.15Z"/><path d="M844.27,351.64q-6.51,27.08-14.89,53.65c-.9,2.87,4.92,9.52,6.26,6.16a119.22,119.22,0,0,1,26.91-41.05,66.57,66.57,0,0,1,8.27-7.39c2.32-1.61,3.71-2.3,5,.37,1.16,2.31,1.14,6.27,1.08,8.78-.19,9.56-3.86,18.68-7.39,27.43-1.21,3,5,9.38,6.25,6.16,4.46-11.05,9-22.9,7.5-35.05-.87-7-5.81-20-15.2-16.44-4.38,1.66-8.3,6.29-11.53,9.53a123.29,123.29,0,0,0-10.55,12,121.22,121.22,0,0,0-16.64,29.45l6.26,6.16q8.58-27.27,15.26-55.08c.71-2.95-5.61-9-6.63-4.73Z"/><path d="M892.11,401.45c19.77-17.31,39.55-34.76,56.35-55.06,2.26-2.73-1.9-7.46-4.8-7.45-9.56,0-9.7,11.77-6.88,18.14,2.28,5.15,7.68,10.31,7.05,16.24-.34,3.2-2.32,5.52-4.73,7.56a23.5,23.5,0,0,1-3,2.24l-2,1c-1.66-.11-1.94.56-.86,2,1-3.06-5.21-9.33-6.25-6.15-1.57,4.79,1.89,10.21,6.58,11.78,5.68,1.9,12.1-3.66,15-8.1,3.9-6,1.66-13-1.58-18.72-2.06-3.62-5.75-7.6-5.45-12a6.43,6.43,0,0,1,6.33-6.31L943,339.2c-16.8,20.31-36.57,37.75-56.35,55.06-2.58,2.26,2.95,9.35,5.42,7.19Z"/><path d="M824.62,441.34q31.3-8.23,62.93-15.14l-4.19-7.71c-18.29,6.72-36.8,13.68-52,26.18-2.56,2.1,2.13,8,4.81,7.45a151.54,151.54,0,0,0,50.4-20.43c2.74-1.74-2.5-9-5.42-7.19a147.12,147.12,0,0,1-49.17,19.91l4.8,7.45c14.91-12.23,32.91-19.08,50.81-25.66,3.59-1.32-1.17-8.36-4.19-7.71q-31.62,6.92-62.93,15.14c-3.56.94,1.11,8.52,4.19,7.71Z"/></g></svg>